<?xml version="1.0" encoding="utf-8"?>
<!-- Generator: Adobe Illustrator 24.1.2, SVG Export Plug-In . SVG Version: 6.00 Build 0)  -->
<svg version="1.1" id="Layer_1" xmlns="http://www.w3.org/2000/svg" xmlns:xlink="http://www.w3.org/1999/xlink" x="0px" y="0px"
	 viewBox="0 0 1024 1024" style="enable-background:new 0 0 1024 1024;" xml:space="preserve">
<style type="text/css">
	.st0{fill:#0D2538;}
	.st1{fill:#FFFFFF;}
	.st2{fill:#0E2537;}
	.st3{fill:#0E2538;}
	.st4{fill:#D3D5D2;}
	.st5{fill:#FEFEFD;}
	.st6{fill:#AAABA6;}
	.st7{fill:#2D588F;}
	.st8{fill:#2C588F;}
	.st9{fill:#2C5890;}
	.st10{fill:#ABABA2;}
	.st11{fill:#A9ABA6;}
	.st12{fill:#B9BAB5;}
	.st13{fill:#0E2438;}
</style>
<g>
	<g id="_x23_ffffffff">
	</g>
	<g id="_x23_0d2538ff">
		<path class="st0" d="M491,0h41.9c19.7,1.4,39.5,2.7,59.1,6c78.5,12.1,154,43.2,218.5,89.5c57.9,41.6,107.2,95.3,143.3,156.8
			c27.8,47.2,48,98.9,59.3,152.4c6.2,28.3,9.3,57.3,11,86.2v41.8c-1.5,21.8-3.1,43.5-7,65c-16.8,101.7-65.7,197.8-137.9,271.3
			c-55.3,57.3-124.5,101.2-199.8,127.2c-43,14.9-88,23.8-133.4,26.8c-4.3,0.4-8.6,0.3-12.9,0.9h-41.9c-28.7-1.7-57.4-4.7-85.5-10.8
			c-96.3-20.2-186.6-69.1-255.8-139C66.1,791.3,12.7,678.3,2.2,560.9C1.1,551.6,0.9,542.3,0,533v-41.8c0.2-1.7,0.4-3.4,0.4-5.1
			c4-83.3,28.8-165.5,71.8-236.9c25.1-42.1,56.4-80.3,92.4-113.6c73.3-68,167-113.8,265.9-129.3C450.5,2.8,470.7,1.4,491,0
			 M384,22.9c-53.5,13.9-104.6,36.8-150.7,67.4c-42.1,27.9-79.9,62.1-111.9,101c-41,49.8-72.3,107.6-91.6,169.1
			C15.8,405,7.9,451.4,6.9,498c0.1,14.7-0.3,29.5,0.6,44.2c2.5,43.5,10.8,86.7,24.3,128.1C55.8,743,96.6,810.2,150.2,864.9
			c48.3,49.7,107.1,89.3,171.3,115.4c53.8,21.9,111.4,34.4,169.4,36.6c7,0.6,14.1-0.3,21.1,0.5c7-0.8,14.1,0.1,21.1-0.5
			c83.3-3.2,165.8-27.6,237.4-70.4c69.1-41.2,128.2-99.1,170.7-167.4c47.3-75.6,73.8-164,75.9-253.1c0-4.7-0.2-9.4,0.3-14
			c-0.3-23.4-1.3-46.9-4.8-70.1c-7.6-55.4-24.6-109.5-50-159.3c-30-59-71.8-111.9-122.1-154.8C777.4,73.8,701,35.6,619.9,18.2
			C584.5,10.5,548.2,6.4,512,6.9C468.8,6.3,425.7,12.2,384,22.9z"/>
	</g>
	<g id="_x23_fbffffff">
		<path class="st1" d="M384,22.9c41.8-10.7,84.9-16.6,128-16.1c36.3-0.5,72.5,3.6,107.9,11.3C701,35.6,777.4,73.8,840.3,127.7
			c50.3,43,92.1,95.9,122.1,154.8c25.5,49.8,42.4,103.9,50,159.3c3.5,23.2,4.5,46.7,4.8,70.1c-0.5,4.7-0.2,9.3-0.3,14
			c-2.1,89.1-28.6,177.5-75.9,253.1c-42.5,68.3-101.6,126.2-170.7,167.4c-71.6,42.8-154,67.3-237.4,70.4c-7,0.6-14.1-0.2-21.1,0.5
			c-7-0.8-14.1,0.1-21.1-0.5c-58-2.2-115.6-14.7-169.4-36.6c-64.2-26.1-123-65.7-171.3-115.4C96.6,810.2,55.8,743,31.8,670.3
			C18.3,628.9,10,585.7,7.5,542.2c-1-14.7-0.5-29.5-0.6-44.2c1.1-46.6,8.9-93.1,22.8-137.6c19.3-61.5,50.6-119.3,91.6-169.1
			c32-39,69.9-73.2,111.9-101C279.3,59.8,330.5,36.9,384,22.9 M491,21.2c-72.2,2.9-143.8,22.2-207.7,56
			c-87.3,45.8-160.2,118.7-206,206.1C40.1,353.4,20.4,432.7,20.9,512c-0.4,57.5,10,115.1,29.8,169.1
			c25.6,69.9,67.5,133.8,121.2,185.3c44.6,43,97.5,77.3,154.9,100.7c50.9,20.7,105.3,32.8,160.2,35.5c49.9,2.4,100.2-2.3,148.5-15.1
			c43.2-11.1,84.8-28.3,123.2-50.7c66.7-38.7,124-93.4,165.8-158.2c50.1-77.1,78-168.7,78.4-260.7c1.9-100.8-29-201.8-86.4-284.6
			c-39.1-56.8-90.2-105.2-149.1-141c-72.7-44.5-157.3-69.5-242.6-71.4C513.6,21,502.3,20.7,491,21.2z"/>
		<path class="st1" d="M501.4,131.3c74.2-2.2,149,17.9,212,57.4c64.6,40.2,116.7,100.1,147.2,169.8c22.8,51.4,33.6,108,32.1,164.1
			c-1.5,54.4-14.6,108.5-38.7,157.4c-20.8,42.3-49.6,80.8-84.4,112.7c-34.4,31.6-74.7,56.9-118.2,73.9c-85.9,34-184.3,35.1-271,3
			c-70.2-25.6-132.2-72.7-176.2-133c-24.1-32.9-42.8-69.8-55.2-108.7c-25.1-78.8-23.8-165.7,4.1-243.6
			c19.5-55.1,52.1-105.4,94.1-146c37.7-36.6,83.2-65.2,132.5-83.5C418.6,140.2,460,132.5,501.4,131.3 M502.2,145.3
			c-68.1,1.8-135.6,22.9-192.3,60.7c-72.4,47.6-127,121.7-150.6,205.1c-9.7,33.4-14.2,68.1-14.3,102.8c0.5,31.4,4.4,62.9,12.7,93.3
			c17.6,66.1,54.4,126.9,104.6,173.3c55.7,52,127.9,86.1,203.6,95.3c57.4,7.4,116.4,0.7,170.8-18.9c48-17.3,92-45,128.9-80.2
			c35.2-33.8,63.8-74.7,83.2-119.6c21.9-50.9,32.2-106.9,29.5-162.2c-3.2-72.6-28.7-143.9-72.3-202
			c-45.1-60.8-109.7-107.1-181.9-130.2C584.9,150.2,543.5,144.3,502.2,145.3z"/>
		<path class="st1" d="M424.4,206c2,10.8,3.3,21.7,4.6,32.6c5.7-4,11.2-8.5,17-12.3c-4,5.7-8.3,11.2-12.7,16.6
			c11,1.6,22.1,3.2,33.1,4.6c-10.8,2.4-21.9,3.2-32.9,4.7c4.2,5.7,8.5,11.3,12.4,17.2c-5.8-4-11-8.6-16.7-12.7
			c-1.5,11-2.9,22-4.8,32.9c-1.6-10.9-3-21.9-4.6-32.8c-5.6,4-10.9,8.4-16.6,12.1c3.8-5.8,8.3-11,12.4-16.6
			c-11.1-1.2-22.1-2.7-33.1-4.5c10.9-1.8,21.8-3.1,32.7-4.7c-4-5.6-8.4-10.9-12.1-16.7c5.8,3.7,11.1,8,16.7,12.1
			C421.6,227.7,422.9,216.8,424.4,206z"/>
		<path class="st1" d="M512.2,244.7c1.7,5.6,1.2,11.6,1.2,17.4c0,73.7,0,147.3,0,221c0.1,24.9-0.3,49.7,0.2,74.6
			c-26.4,30.5-53.2,60.6-79.6,91.1c27.5-7.2,54.5-16.9,80.2-29.2c12.5-5.8,24.6-12.4,36.6-19.1c22.6-12.9,44.8-26.6,67.1-39.9
			c2.9-1.9,5.7-4.1,8.4-6.3c1.4-1.1,2.7-2.3,4-3.4c7.3-6.3,13.9-13.4,20.7-20.2c1.4-1.4,2.8-2.8,4.2-4.2c3.9-3.7,8.2-7.8,13.7-8.9
			c3.8-0.4,7.4,2.4,8.5,5.9c1.7,4.4-0.6,9.2-3.2,12.7c-6.1,7.6-14.4,13.1-22.5,18.4c-2.8,1.8-5.7,3.5-8.7,5.2
			c-7.2,4-14.4,7.8-21.8,11.3c-7,3.1-13.2,7.6-19.8,11.4c-14.6,8.9-29.5,17.3-44.8,25c-13.5,7.2-27.3,13.8-41.3,20.1
			c-1.2,0.5-2.3,1.1-3.5,1.7l-0.8-0.7l0.4,0.9l-0.4,0.2c-2.2,1-4.5,2-6.7,3.2c-16.9,6.7-33.6,14.1-51,19.6c-8.9,3.1-18.1,5.5-27.2,8
			c-3.9,0.9-6.2,4.4-8.7,7.2c-19.6,22.7-39.5,45.1-59.2,67.7c-2.3,3-5.1,5.6-7.9,8c7.7-24.8,16-49.5,24-74.2
			c-5,0.7-10.1,0.3-15.1,0.9c-5.7,0.5-11.4-0.5-17.2-0.5c-19.1-1.5-38.9-5.3-54.6-16.8c-10.9-7.7-18.2-20.2-19.6-33.5
			c-0.5-8.7-0.2-17.6,2.3-26c5.9-22.2,18.3-42,31.7-60.4c10.4-13.9,21.9-27.1,34.1-39.5c0,4-0.4,8-1.1,12
			c-12.8,13.3-24.6,27.4-34.9,42.7c-10.5,15.9-19.3,33.2-22.5,52.1c-1.5,10.9-0.9,22.5,4.5,32.4c6.7,12.8,19.9,20.8,33.4,24.7
			c20.1,5.8,41.3,5.4,61.9,3.2c2.1-7.2,4.9-14.3,6.9-21.5l-0.1,0.1l0.3-0.8c0.6-1.5,1.2-3,1.7-4.5c2.6-7.7,4.7-15.6,7.6-23.2
			l0.3-0.2l-0.3-0.1c0.9-2.2,1.8-4.3,2.7-6.5l-1,0.4l0.3-0.7c6.1-17,11.2-34.3,17-51.4c0.7-2.1,1.5-4.2,2.1-6.3
			c1.9-5.8,3.7-11.5,5.6-17.3c1.8-4.7,3.6-9.5,4.6-14.4c3-8.7,5.6-17.5,8.7-26.1c0.5-1.4,1-2.9,1.5-4.4c4-13.2,8.3-26.3,12.8-39.4
			c0.5-1.4,0.9-2.9,1.4-4.4c4.3-13.7,8.8-27.3,13.3-40.9c0.5-1.4,1-2.9,1.5-4.3c3.3-11.9,8-23.3,10.9-35.3l0.1-0.5l0.7,1.3
			c0.3-1.3,0.5-2.6,0.9-3.9c1.1-4.5,2.7-8.9,4.2-13.3c0.5-1.5,1-3,1.4-4.5C491.8,306.8,501.9,275.7,512.2,244.7z"/>
		<path class="st1" d="M877.4,253.2c7.4-1.6,15.6,0.1,21.5,4.9c5.8,4.9,9.8,12.2,9.9,19.8c-0.2,7.8-3.6,15.4-9.3,20.6
			c-6.5,5.7-14.8,10-23.6,9.1c-15.5,0.2-27.7-16.5-23.8-31.2C854.7,264.4,865.7,255.7,877.4,253.2 M883.5,260.8
			c-9.4,3.4-18.5,9.1-24.6,17.2c-5.7,7.7-0.7,19.5,8.2,22.1c4.5,0.9,9.1,0,13.2-1.9c6.1-2.8,11.9-6.5,16.9-11
			c3.7-3.8,7.6-8.8,6.5-14.4c-1.2-5.5-5.1-11-10.8-12.5C889.8,259.4,886.6,260,883.5,260.8z"/>
		<path class="st1" d="M259.2,335.2c1.9-1.3,5.4-0.9,5.6,1.8c0.9,2.5-2,4.8-4.4,3.8C258.1,340.1,258.1,337,259.2,335.2z"/>
		<path class="st1" d="M76.5,499.5c6.1,19.1,12.4,38.3,18.2,57.5c-6.1-3.6-12.2-7.3-18.2-11c-6,3.7-12.2,7.4-18.2,11
			C64.1,537.8,70.3,518.7,76.5,499.5z"/>
		<path class="st1" d="M947.6,499.5c6.2,19.1,12.2,38.3,18.3,57.4c-6.3-3.2-12.3-7.2-18.3-10.8c-6,3.8-12.2,7.3-18.2,11
			C935.1,537.8,941.5,518.7,947.6,499.5z"/>
		<path class="st1" d="M484.2,923.4c8.6-0.4,17.2,0.7,25.8,0.5c4.8,0,9.5,0.7,14.3,0.5c-0.2,5.9,0.1,11.8,0.4,17.7
			c-0.9,0-2.6,0-3.5,0c-0.8-4.8-1.5-10.8-6.4-13.1c-4.4-1.8-9.2-1.5-13.8-1.4c-1.2-0.2-1.9,1.2-2.1,2.2c-0.4,5.4,0.2,10.8-0.5,16.2
			c2.8-0.5,6-0.3,8.2-2.3c2.1-1.7,2.3-4.6,3-7c0.9,0,2.6,0.1,3.4,0.1c-1,7.2-0.5,14.5-0.6,21.8c-0.8,0-2.4,0-3.2,0
			c-0.6-2.9-1-6.2-3.6-8c-2.2-1.2-4.8-1.3-7.3-1.8c-0.1,5,0.2,10-0.3,15.1c-0.1,1.6-0.3,3.4,0.5,4.8c2.2,1.4,5,0.6,7.5,0.8
			c-0.1,1.2-0.1,2.3-0.2,3.5c-7.7,0.4-15.3-0.2-23-0.4c0-1.2,0-2.4,0-3.6c2.2,0,4.4,0,6.6,0c1.1-8.6,1.1-17.3,1.1-26
			c0.4-5.2,0.7-10.4,0-15.6c-2.2-0.2-4.4-0.3-6.5-0.4C484.2,926,484.2,924.3,484.2,923.4z"/>
	</g>
	<g id="_x23_0e2537ff">
		<path class="st2" d="M491,21.2c11.3-0.5,22.6-0.2,33.9-0.3c85.2,2,169.9,26.9,242.6,71.4c58.9,35.8,110,84.3,149.1,141
			C974,316.2,1005,417.2,1003,518c-0.5,92-28.4,183.6-78.4,260.7c-41.9,64.7-99.1,119.4-165.8,158.2
			c-38.5,22.4-80.1,39.7-123.2,50.7c-48.3,12.8-98.7,17.4-148.5,15.1c-54.9-2.6-109.3-14.8-160.2-35.5
			c-57.4-23.4-110.3-57.8-154.9-100.7C118.1,814.9,76.2,751,50.7,681.1c-19.8-54-30.1-111.6-29.8-169.1
			c-0.4-79.3,19.3-158.6,56.3-228.7c45.9-87.3,118.7-160.2,206-206.1C347.1,43.4,418.7,24.1,491,21.2 M517,50
			c-8.4,3.7-10.4,15.4-5.8,22.7c7.2,8.2,19.3,7.4,28.1,12.7c4.7,4.6,3,13.6-3.2,16c-5.8,2.2-13.1,1.4-17.8-3c-4.3-4-5.8-10-7.2-15.5
			c-0.8,0-2.5,0-3.3,0c0,7.6,0,15.1,0,22.7c0.7,0,2.1,0.1,2.8,0.1c1.1-1.6,2.2-3.2,3.4-4.8c6.5,5.7,16.1,7.1,24.2,4.4
			c4.3-1.5,7.8-5,9.4-9.3c1.5-5.9,1.4-13-3-17.6c-4.1-4.4-10.3-5.3-15.8-7c-5.1-1.5-11.1-3.2-13.5-8.4c-1.3-4.4,1.9-9.2,6.3-10.2
			c5.3-1.3,11.4,0.3,15.2,4.4c3.5,3.3,4.7,8.1,6.1,12.5c0.8,0,2.4,0,3.2,0c0-6.7,0-13.3,0-20c-1.2,0-2.4,0-3.6,0
			c-0.9,1.4-1.8,2.8-2.7,4.2C533.9,48.2,524.5,46.7,517,50 M448.2,53c0.2,1.3,0.4,2.7,0.6,4c2.5-0.2,5-0.4,7.5-0.2
			c2,15,2.5,30.2,3.7,45.3c-1.7,2.5-5.1,1.7-7.6,2.2c0,1.3,0,2.7,0,4c15.6-1.3,31.3-2.4,47-3.7c-0.3-7.1-0.6-14.3-0.6-21.4
			c-1.1,0.1-2.2,0.3-3.3,0.5c-1.1,5.3-0.9,11.7-5.4,15.5c-4.7,3.2-10.6,3-16,3.7c-1.9,0.3-5,0-5-2.5c-0.9-6.8-1.3-13.7-1.6-20.5
			c3.3,0,7.1-0.2,9.6,2.4c2.1,1.7,2.5,4.5,3.1,7c1,0,2.9,0,3.9,0c-0.9-8.2-1.3-16.4-2.1-24.5c-0.8,0-2.4,0-3.3,0
			c-0.5,2.9-0.7,6-2.6,8.4c-2.3,2.4-5.8,2.9-9,3.1c-0.6-6-1.2-12.1-1.5-18.2c0-2.3,2.5-2.5,4.2-2.8c5.2-0.5,10.9-1.2,15.6,1.4
			c4.3,3.1,5.1,8.7,7,13.3c1.1-0.4,2.2-0.9,3.4-1.3c-1.2-6.3-1.4-12.8-2.6-19.1C478.2,50.5,463.2,51.9,448.2,53 M389,65.7
			c1.3,7,2.6,14,3.8,21c0.8-0.1,2.4-0.4,3.2-0.5c-0.1-2.3-0.1-4.5-0.3-6.8c0.4-3.7,0-8,2.8-10.9c2.2-2.5,5.6-3,8.7-3.7
			c0.7,1.3,1.4,2.6,1.8,4.1c2.2,9.3,4.3,18.7,6.5,28c1.1,4.7,2.5,9.2,3,14c-2.7,1.1-5.5,1.9-8.4,2.5c0.4,1.3,0.7,2.6,1,3.9
			c8.6-2.2,17.3-3.9,26-6.1c-0.4-1.3-0.8-2.6-1.1-3.9c-2.7,0.7-5.4,1.2-8.1,1.7c-2.9-8.2-4.1-16.9-6.3-25.3
			c-1.4-6.9-3.7-13.8-4.3-20.8c3.6-1.8,8.2-2.5,11.5,0.1c4.2,3.4,5.7,8.9,8,13.5c0.8-0.2,2.4-0.6,3.2-0.8c-1.8-7-4.1-13.8-6-20.7
			C419,58.7,403.9,61.9,389,65.7 M591,57.1c-10.2,3.2-13.7,19.2-4.8,25.7c6.4,5,14.6,7,21.2,11.7c5,4.1,2.8,12.8-2.7,15.3
			c-4.8,2.4-10.6,1-15.1-1.4c-6.5-4.2-8.7-12.4-8.5-19.7c-1.1-0.2-2.3-0.4-3.4-0.5c-1.6,7.4-2.2,14.9-3.7,22.3
			c0.8,0.1,2.4,0.2,3.2,0.3c1.2-1.4,2.5-2.8,3.7-4.2c6.2,7.5,17.1,10.2,26.2,7.4c9.5-3.8,12.6-17.1,7.2-25.4
			c-4.8-5.8-12.5-7.6-18.8-11.1c-3.3-1.9-6.8-4.5-7.5-8.5c0.1-3.1,1.6-6.3,4.4-7.8c4.2-2.2,9.2-0.8,13.1,1.4
			c6.2,3.5,8.2,11.1,8.7,17.7c1.1,0.2,2.2,0.4,3.4,0.6c1-6.7,1.7-13.5,2.9-20.2c-1.1-0.1-2.2-0.3-3.2-0.4c-1.2,1.2-2.4,2.4-3.6,3.6
			C608.2,57.6,599,54.5,591,57.1 M634.7,69.3c2.3,0.8,4.5,1.6,6.7,2.6c-1.3,8.3-5,16-7.3,24.1c-3,6.6-3.8,14.2-7.8,20.4
			c-2.2-0.8-4.5-1.5-6.7-2.3c-0.5,1.3-1,2.6-1.5,3.9c8.1,2.5,16.1,5.7,24.3,8.2c0.5-1.3,0.9-2.6,1.4-3.9c-2.4-1.4-7-1-7.6-4.2
			c1.5-6.1,4.1-11.8,5.7-17.8c6.5,2.5,13.2,5,20.3,4.9c3.2-0.3,6.5-1,9-3.1c4.6-4.1,6.4-10.9,4.8-16.8c-1.7-5.4-6.8-8.6-11.9-10.4
			c-9.3-3.1-18.7-6.2-28-9.5C635.5,66.7,635.1,68,634.7,69.3 M355.5,75.2c-0.5,13.9-1.3,27.8-1.9,41.7c0,4-0.2,8-1,11.9
			c-0.4,2.7-3.3,3.6-5.3,4.8c0.4,1.2,0.8,2.5,1.1,3.7c6.5-2.2,13-4.1,19.3-6.6c-0.5-1.3-0.9-2.6-1.3-3.8c-2.6,0.7-5.9,2.6-8-0.2
			c-1.5-3.6-0.7-7.7-0.5-11.5c6.4-2,12.7-4.3,19-6.3c3,3.6,6.1,7.1,8.5,11.1c-2.4,1.1-4.8,2.1-7.2,3c0.4,1.3,0.8,2.5,1.3,3.8
			c7.4-2.4,14.8-4.9,22.1-7.6c-0.5-1.3-0.9-2.5-1.4-3.8c-1.6,0.5-3.2,0.9-4.8,1.3c-1.1-1-2.1-2-3.1-3.1
			c-11-12.8-21.9-25.6-32.9-38.4C358.5,74,356.8,75.3,355.5,75.2 M283.8,109c3,6.7,6.1,13.2,8.9,20c0.7-0.4,2.2-1.3,2.9-1.8
			c-1.3-4.7-3.3-9.5-2.9-14.5c0.8-4.6,4.9-7.4,9.1-8.7c3.5,4.8,5.6,10.4,8.5,15.7c3.2,5.9,6.1,11.9,9.1,17.9
			c1.3,2.7,3.4,5.2,3.7,8.3c-1.7,2.2-4.6,2.9-7,4.2c0.6,1.3,1.2,2.6,1.8,3.9c7.9-4,15.8-8.3,23.8-12.1c-0.6-1.2-1.3-2.5-1.9-3.8
			c-2.5,1.2-4.9,2.6-7.5,3.3c-1.2-1-2-2.4-2.7-3.8c-5.8-11.8-12-23.4-17.9-35.1c-0.4-1.1-0.7-2.2-0.9-3.3c3.3-1.9,7.4-3.9,11.3-2.3
			c4.8,2.5,7.8,7.2,11,11.4c0.9-0.6,1.9-1.2,2.9-1.8c-3.5-6.2-7.3-12.3-10.7-18.5C311.2,94.8,297.6,102.1,283.8,109 M686.4,108.5
			c-6.4,6.3-12.6,12.8-19.4,18.7c-2.2,2-5.2,0.9-7.6,0.1c-0.6,1.2-1.2,2.3-1.8,3.5c6.1,3.1,12.4,5.6,18.5,8.6c0.5-1.3,1-2.6,1.6-4
			c-2.1-1-4.2-2.2-6-3.8c0.9-4.6,4.9-7.4,8-10.4c6,2.8,12.1,5.3,18,8.3c0.1,4.4-0.3,8.9-1.1,13.3c-2.7,0.5-5-1.4-7.4-2.3
			c-0.6,1.3-1.2,2.5-1.8,3.8c7.1,3.3,14.3,6.4,21.4,9.7c0.5-1.2,1-2.4,1.6-3.6c-1.5-0.9-3-1.9-4.5-2.9c0.2-18.6,1.4-37.1,2.1-55.7
			c-1-0.5-2-1-3-1.5C699,96.7,692.4,102.2,686.4,108.5 M268.5,117.6c0,1.9,0,3.7,0,5.6c-8.4-1.2-17.8,2.7-21.7,10.5
			c-3.6,7.5,0.4,17,7.5,20.8c7.5,2.4,15.2-0.6,22.3-3c3.6-1,7.5-2.8,11.1-1.3c4.5,2.4,7.4,8.6,4.8,13.4c-2.7,5.3-8.8,8.3-14.5,8.9
			c-6.7-0.3-12.4-4.4-16.7-9.2c-0.8,0.5-2.3,1.4-3,1.9c4,6.4,8.2,12.7,12.5,18.9c0.8-0.5,1.7-1.1,2.5-1.6c-0.1-2-0.2-3.9-0.3-5.9
			c11.5,1.4,24.9-6.2,26-18.5c-0.3-7.6-5.4-15.4-13-17.2c-10.2-1.9-19,6.2-29,5.1c-4.9-0.6-8-6.4-5.9-10.8c1.9-4.1,6.3-6.4,10.4-7.6
			c6.9-1.5,13.6,2.6,18.4,7.2c0.7-0.4,2.2-1.3,2.9-1.8c-3.7-5.7-7.7-11.1-11.6-16.6C270.5,116.7,269.2,117.3,268.5,117.6
			 M736.9,120.8c-6.5,3.9-11.5,9.9-14.6,16.7c-3.8,9-3.2,20.3,3,28.1c4.7,5.1,11.4,8.9,18.5,8.4c6.8-0.1,12.5-4.4,16.8-9.2
			c-1.1-0.9-2.1-1.8-3.1-2.7c-4.4,3.8-9.4,8-15.5,7.7c-4.9,0.1-9.2-3-12.3-6.6c-3.5-4.3-2.8-10.6-0.9-15.5c3.3-8,8.1-15.5,14.7-21.2
			c2.7-2.4,6.1-3.4,9.5-4.3c4.3,1,8.9,2.4,11.5,6.3c4.7,6.4,2.4,14.9-0.3,21.6c0.8,0.4,2.3,1.2,3.1,1.6c3.8-6.6,7.8-13.1,11.4-19.9
			c-2.6-1.8-5.2-0.6-7.6,0.8c-2.3-6.8-8.1-12.3-15-14.3C749.6,116.3,742.6,117.8,736.9,120.8 M501.4,131.3
			c-41.5,1.2-82.8,8.9-121.7,23.4c-49.3,18.2-94.7,46.9-132.5,83.5c-42.1,40.5-74.6,90.9-94.1,146c-27.8,77.9-29.2,164.8-4.1,243.6
			c12.4,38.9,31.1,75.8,55.2,108.7c43.9,60.4,106,107.4,176.2,133c86.7,32.1,185,31,271-3c43.5-17,83.8-42.3,118.2-73.9
			c34.8-31.9,63.6-70.3,84.4-112.7c24.1-48.9,37.3-103,38.7-157.4c1.5-56.1-9.3-112.7-32.1-164.1c-30.5-69.7-82.7-129.6-147.2-169.8
			C650.5,149.1,575.7,129.1,501.4,131.3 M788,144.3c1.8,1.9,3.7,3.7,5.4,5.7c-5.1,6.6-10.9,12.7-16.3,19.1
			c-4.7,5.3-9,10.9-14.2,15.8c-2.1-1.4-4-3-5.9-4.7c-1,1-2,2-2.9,3c11.9,10.3,23.7,20.6,35.6,30.8c4.7-5.3,9.7-10.4,14.8-15.3
			c-0.8-0.8-1.7-1.7-2.5-2.6c-3.8,2.8-7.6,6.1-12.2,7.3c-4.4,0.9-8.1-2.2-11.5-4.6c-2.7-2.3-6-4.4-7.6-7.8c0.2-1.3,1.1-2.3,1.9-3.3
			c4-4.7,8.2-9.2,12-14c2.1,2,4.5,4.1,5.2,7c0.7,3.4-1.4,6.4-2.8,9.2c0.9,0.7,1.8,1.4,2.8,2.1c5.3-6.4,10.8-12.6,16.3-18.8
			c-1-0.7-1.9-1.4-2.9-2.2c-2.1,1.4-4,3.2-6.4,4c-3.8,0.8-6.9-2-9.7-4.1c4.5-5,8.5-10.6,13.7-15c5,3.5,10.1,7.4,12.9,13
			c1.5,5.4-1.5,10.6-4.3,15c0.9,0.8,1.8,1.7,2.7,2.5c4.4-5,8.3-10.4,12.4-15.7c-11.3-9.9-22.7-19.7-34-29.6
			C789.7,142.2,788.9,143.2,788,144.3 M203,170.8c-7.6,2.2-12.4,9-18.3,13.9c-4,4.2-8.4,7.9-12.4,11.9c1,0.9,1.9,1.9,2.9,2.8
			c1.9-1.5,3.6-4.4,6.4-4.2c2.7,2,4.8,4.6,7.2,6.9c7.9,8.8,16.5,16.9,24.2,25.8c-1.5,2.1-3.3,4.1-5.3,5.7c1,1,2,2.1,2.9,3.1
			c5.2-5.2,10.8-10,15.9-15.3c5.8-4.8,11.9-10.7,12.5-18.7c1.2-10.1-5.1-19.2-12.4-25.5C220.6,171.4,211.4,168,203,170.8
			 M848.7,200.1c1.5,2,3.1,4.1,4.5,6.1c-2.6,2.8-5.6,5.1-8.4,7.7c-9,7.5-17.4,15.6-26.7,22.7c-1.9-1.7-3.7-3.5-5.2-5.4
			c-1.1,0.8-2.2,1.7-3.3,2.5c5.6,6.7,11.4,13.3,17.1,19.8c1-1,1.9-1.9,2.9-2.9c-1.9-2.2-3.7-4.3-5.3-6.7c5.2-5.5,11.5-9.9,16.9-15.2
			c2,2.6,3.7,5.3,4.6,8.5c-1.1,2.8-2.5,5.4-4.7,7.5c0.7,1,1.4,2,2.1,3c6.4-5.2,12.6-10.7,18.8-16.2c-0.7-0.9-1.4-1.8-2.1-2.8
			c-2.5,1.4-5.2,3.2-8.2,3c-3.4-0.2-5.5-3.2-7.8-5.3c4.9-4.4,9.8-8.9,15.1-12.9c3.4,2,5.7,5.2,8.1,8.2c1.9,2.6,3.9,5.6,3.5,9
			c-0.7,4.6-3.7,8.4-6.6,11.9c0.9,0.9,1.8,1.7,2.7,2.6c4.7-4.6,9.7-9,14.3-13.8c-9.6-11.5-19.8-22.7-29.4-34.2
			C850.6,198.2,849.6,199.2,848.7,200.1 M133.3,245.1c1.1,0.9,2.1,1.7,3.2,2.6c1.9-1.7,3.1-5.6,6-5.3c8.3,5.9,16.1,12.6,24.2,18.8
			c3.8,3.1,8.1,5.8,11.2,9.7c-1.4,2-2.8,4-4.2,6c1.1,0.8,2.2,1.6,3.3,2.4c9.5-12.4,19.4-24.5,28.8-36.9c-5.4-4.6-10.8-9.4-16.1-14
			c-0.7,0.9-1.4,1.8-2,2.7c3.3,4.8,8.9,9.5,7.7,15.9c-2.5,6.1-6.5,11.8-11.6,16c-6.2-4.2-11.9-9.1-17.7-13.8
			c2.3-2.3,4.6-5.3,8.1-5.8c2.8,0.1,5.2,1.8,7.8,2.9c0.7-1,1.4-1.9,2.1-2.9c-6.5-5-12.9-10.1-19.4-15.1c-0.8,0.9-1.7,1.8-2.5,2.6
			c2.1,2.4,4.7,4.7,4.9,8.1c-0.4,2.9-2.1,5.5-3.6,8c-5.5-3.9-10.8-8-15.8-12.5c2.7-5.2,6.5-10.1,11.4-13.5
			c5.4-2.9,11.3,0.8,16.2,3.1c0.8-1,1.5-2,2.3-3c-5.5-3.8-10.9-7.8-16.5-11.6C151.9,221.5,142.5,233.2,133.3,245.1 M877.4,253.2
			c-11.7,2.5-22.7,11.2-25.3,23.2c-3.9,14.7,8.4,31.5,23.8,31.2c8.8,0.9,17.1-3.5,23.6-9.1c5.7-5.2,9.1-12.9,9.3-20.6
			c-0.2-7.7-4.1-15-9.9-19.8C893,253.3,884.8,251.6,877.4,253.2 M125.1,256.5c-7.6,13.4-15.4,26.7-23,40c6,4.1,12.1,8.1,18.2,11.8
			c0.6-0.9,1.1-1.9,1.7-2.8c-3.7-3.1-7.7-6.2-10.3-10.4c-2.7-4-0.5-9.7,3.2-12.2c2.7,0.9,4.9,2.5,7.4,3.8
			c10.9,6.6,22.2,12.5,33,19.3c-1.1,2.7-2.5,5.3-4,7.7c1.2,0.7,2.4,1.3,3.7,2c4.4-7.7,8.9-15.4,13.3-23c-1.2-0.6-2.4-1.3-3.7-2
			c-1.3,2.2-2.4,4.5-4.2,6.5c-1.9,0.3-3.5-0.8-5.1-1.6c-10.8-6.3-21.6-12.4-32.4-18.7c-1.4-0.8-2.6-1.8-3.8-2.7
			c1.6-3.4,3.8-7.4,7.8-8.1c5.5-0.8,10.7,1.5,15.7,3.2c0.4-0.7,1.3-2,1.7-2.7C138,263.2,131.6,259.8,125.1,256.5 M920.1,301.2
			c1.1,2.4,2.2,4.8,2.6,7.4c-4.6,2.6-9.6,4.5-14.3,6.8c-9.3,3.9-18.2,8.7-27.6,12.1c-1.4-2.1-2.4-4.3-3.8-6.4
			c-1.3,0.3-2.5,0.7-3.7,1.1c3.4,7.9,7,15.7,10.6,23.6c1.2-0.6,2.5-1.2,3.8-1.8c-1.2-2.4-2.3-4.9-3.3-7.4c6.2-4.1,13.5-6.4,20.1-9.7
			c1.6,3.4,3.7,7,3.4,10.9c-2.5,8.9-14.2,9-18.6,16.4c-2.1,4.2,0.3,9.9,4.4,12c4.2,1.7,8.9,0.1,12.8-1.8c-0.5-1-1-2.1-1.5-3.1
			c-2.1,0.8-4.3,1.5-6.5,2.1c-0.8-0.6-1.5-1.2-2.2-1.9c1.2-4.4,6.2-6.1,9.3-9.1c4.4-2.8,7.8-8.1,5.9-13.5c1.8,3,4.1,5.5,6.8,7.7
			c6.6,4.5,16.9,0.9,19.3-6.7c1.5-4.1,0.7-8.6-1.1-12.4c-4.2-9.3-8.4-18.6-12.6-27.9C922.6,300.2,921.4,300.7,920.1,301.2
			 M96.9,306.8c-3.5,7.7-7,15.5-10.4,23.2c1.2,0.5,2.5,1,3.7,1.6c1.1-2.4,2.2-4.8,3.7-6.9c14.1,5.6,27.7,12.4,41.6,18.5
			c0.4,2.9-1.2,5.4-2.2,8c1.2,0.6,2.4,1.2,3.7,1.7c3.6-7.7,6.8-15.5,10.6-23.1c-1.3-0.6-2.5-1.2-3.8-1.8c-1.4,2.2-1.7,6.1-4.7,6.7
			c-13.2-5.5-26.1-11.7-39.1-17.5c-3.7-1.8-0.2-6,0.5-8.6C99.3,307.9,98.1,307.3,96.9,306.8 M82.1,339c-2.6,6.8-4.6,13.9-7.1,20.8
			c1.2,0.3,2.4,0.7,3.6,1.1c1.1-3.5,4-8.1,8.4-6.5c10,2.8,19.7,6.7,29.6,9.8c-16,5.4-32.2,10.1-48.3,15.3c-1.5,4.7-3.1,9.4-4.8,14.1
			c1.2,0.6,2.4,1.2,3.6,1.8c1-2.8,2.2-5.6,4.8-7.3c10.2,3.6,20.4,7.2,30.6,10.5c3.1,1.1,6.5,1.9,9.1,4.2c2.4,1.9,1.1,5.3,1,7.9
			c1.2,0.4,2.3,0.8,3.5,1.1c2.4-6.8,4.5-13.8,6.9-20.5c-1.1-0.4-2.3-0.8-3.4-1.2c-1.3,2.4-2.4,5.8-5.4,6.5c-3.4,0.5-6.6-0.9-9.7-2
			c-8.7-3.2-17.5-5.9-26.2-8.9c17.3-5.5,34.6-11,51.9-16.4c2.1-0.2,2.6-2.1,3.3-3.7c-14.4-5.6-29.3-9.6-43.7-15.1
			c-1.7-0.9-3.7-1.7-4.5-3.5c-1.2-2.1,0-4.5,0.3-6.6C84.3,339.8,83.2,339.4,82.1,339 M925.5,364.6c-8.6,1.8-17.3,6.3-21.6,14.3
			c-6.7,10.4-3.3,26.5,8,32.2c4.7,2.7,10.3,1.9,15.5,2c-0.2-1.3-0.5-2.7-0.7-4c-5.6,0.1-11.6-0.3-16.1-4c-4.8-4.1-7-11.3-4.7-17.3
			c2.5-5.3,7.9-8.3,13.1-10.4c6.7-2.4,13.8-4.7,21-4.3c4.5,0.3,9.3,2,11.7,6.1c2.4,3.7,3.4,8.5,1.7,12.7c-2.5,6-8.2,9.7-13.8,12.5
			c0.3,1.1,0.7,2.3,1,3.4c7.1-2.4,14.3-4.8,21.5-7.2c-0.2-1.1-0.5-2.2-0.7-3.2c-1.7-0.5-3.4-1-5-1.4c3.2-8.5,1.3-18.9-5.4-25.2
			C944.4,364.5,934.4,362.9,925.5,364.6 M61.1,405c-1.3,7-2.6,13.9-3.7,20.9c1.3,0.4,2.5,0.7,3.8,1.1c0.4-2.8,1.2-5.6,2.8-7.9
			c7.1-0.1,13.9,2,20.9,3c5,1,10.2,1.4,15.2,3c4.6,1.4,7.8,6,7.8,10.8c0.1,5.4-1.3,11.2-5.2,15.1c-4.3,3.9-10.6,2.3-15.8,1.4
			c-9.5-2-19.2-3.1-28.6-5.5c0-2.6,0.3-5.3,0.6-7.9c-1.3-0.1-2.5-0.3-3.8-0.4c-1.5,8.2-2.8,16.5-4.5,24.7c1.3,0.2,2.6,0.4,4,0.6
			c1.1-2.5,0.3-8.7,4.6-7.7c9.9,1.8,19.9,3.4,29.8,5.3c4.9,0.8,10.4,1,14.6-2c4.6-3,6.7-8.5,7.9-13.6c1.2-5.9,1.9-12.5-1.3-17.9
			c-3.2-5.1-9.3-7.3-14.9-8.4c-9-1.6-18.1-3-27.1-5c-2.1-0.3-3.2-2.1-4-3.9c0.4-1.7,0.7-3.4,1-5.1C63.8,405.4,62.4,405.2,61.1,405
			 M960.4,413.9c0.3,2.5,0.6,4.9,0.9,7.4c-2.8,1.1-5.6,1.8-8.6,2.1c-12.2,1.8-24.2,4.8-36.4,6.2c-2-1.9-1.8-5.1-2.7-7.5
			c-1.2,0.4-2.5,0.7-3.7,1.1c2.8,15.2,5.5,30.5,8.2,45.8c7.1-0.8,14.2-1.7,21.3-2.6c-0.2-0.9-0.7-2.5-0.9-3.4
			c-5.5-0.1-12.2,0.3-16.2-4.2c-3.2-4.4-3.7-10-4.8-15.1c-0.2-1.7-0.9-4.9,1.6-5.2c6.7-1.2,13.3-2.8,20.1-3.5c1.3,2,0.7,4.6,0.6,6.8
			c-1,3.8-5,5.6-8.4,6.7c0.1,1.2,0.3,2.4,0.4,3.6c8.1-1.4,16.2-3.1,24.4-4.3c-0.2-1.2-0.4-2.4-0.6-3.6c-2.6-0.1-5.3,0.1-7.7-1
			c-3.1-2-4.1-5.8-4.8-9.2c6.6-0.6,13.1-3.1,19.8-2.8c2.6,5.4,3.2,11.8,2.4,17.6c-2,5.4-8,7.4-12.8,9.5c0.1,1.2,0.3,2.5,0.5,3.8
			c6.4-1.6,12.9-3.1,19.4-4.4c-2.4-14.9-5.2-29.7-7.8-44.5C963,413.4,961.7,413.6,960.4,413.9 M76.5,499.5
			c-6.1,19.2-12.4,38.3-18.2,57.5c6.1-3.7,12.2-7.3,18.2-11c6.1,3.7,12.1,7.4,18.2,11C88.8,537.8,82.6,518.7,76.5,499.5
			 M947.6,499.5c-6.1,19.2-12.5,38.3-18.2,57.6c6-3.8,12.2-7.3,18.2-11c6.1,3.7,12,7.6,18.3,10.8
			C959.8,537.8,953.8,518.6,947.6,499.5 M103.8,595.1c0.4,2.2,0.8,4.4,1,6.7c-7.2,2.7-14.9,4.3-22.2,6.6c-5.8,1.5-11.5,3.9-17.5,4.2
			c-0.7-2-1.3-4-1.9-6c-0.9,0.2-2.7,0.7-3.6,0.9c1.8,6.5,3.7,13,5.5,19.5c1.6,5.1,2.5,10.8,6.5,14.6c5.2,5.5,13.5,6.8,20.7,5.3
			c7.7-1.2,15.8-4.7,20.1-11.6c3.2-4.9,2.7-11.1,1.8-16.5c-2.3-8.3-4.9-16.5-7-24.8C106,594.3,104.9,594.7,103.8,595.1 M904,640
			c1.1,0.3,2.3,0.6,3.4,0.9c0.7-2.1,1.4-4.2,2.2-6.3c9,1.6,17.5,4.7,26.4,7c4.5,1.5,9.4,2.1,13.5,4.6c-0.5,2.1-1.1,4.1-1.6,6.2
			c0.9,0.2,2.7,0.8,3.5,1c3.8-13.3,7.5-26.7,11.4-40c-6-2.4-12.1-4.2-18.2-6.3c-0.2,0.7-0.4,2.2-0.6,2.9c3.8,2,7.7,4.1,10.5,7.5
			c1.7,2.4,1.2,5.6,0.8,8.3c-0.8,4-1.7,8.2-4,11.7c-6.5-1.4-12.8-3.4-19.2-5.3c1.2-2.4,1.9-5.2,4.1-6.9c2.4-1.5,5.3-0.9,8-1
			c0.3-1,0.6-2,1-2.9c-7.1-1.7-14-4.3-21.2-5.8c-0.4,0.9-0.8,1.9-1.1,2.9c2.4,1.3,5.3,2.4,6.6,4.9c0.6,2.5,0.6,5.4-0.5,7.8
			c-3.9-0.7-7.7-1.9-11.5-3c-2-0.6-4.2-1.1-5.7-2.6c0.9-5,2.3-10.1,5.2-14.4c3.7-3.8,9.5-3.2,14.3-2.7c0.2-1.1,0.3-2.2,0.5-3.3
			c-5.7-1.3-11.3-2.7-17-3.9C911.2,614.2,907.4,627.1,904,640 M116.9,643.1c0.8,2,1.6,4.1,2.3,6.2c-4.3,2.8-9.3,4-13.9,6
			c-8.2,3.2-16.3,6.6-24.6,9.5c-1.1-2-2-4.1-2.9-6.2c-1.2,0.4-2.3,0.8-3.5,1.2c5.1,12.9,10.2,25.9,15.3,38.8c6.2-2,12.3-4,18.4-6.2
			c-0.4-0.6-1.1-1.8-1.5-2.4c-4.7,0.3-9.8,2.1-14.2-0.4c-3.6-2.8-5.1-7.2-6.9-11.2c-0.6-1.9-2-4-1-6.1c5.7-3,12-4.8,17.9-7.3
			c0.8,2.7,2.3,5.7,0.9,8.5c-1.4,2.2-3.8,3.6-5.8,5.2c0.3,0.7,1,2,1.4,2.6c6.7-2.6,13.4-5.4,20.1-7.9c-0.2-1.1-0.4-2.2-0.8-3.2
			c-2.4,0.3-4.9,1.7-7.2,0.5c-3-1.2-4.4-4.4-5.7-7c5.6-2,11.1-4.4,16.7-6.4c3.1,5.2,5.7,11.3,4.9,17.4c-1.8,3.9-5.7,6.1-9.1,8.5
			c0.4,1.1,0.7,2.1,1.1,3.2c5.4-2.5,10.8-4.9,16.2-7.4c-4.9-12.5-9.8-25-14.8-37.4C119.2,642.2,118,642.6,116.9,643.1 M903.7,650.1
			c-5.3,3-9,8.6-9.6,14.7c-1.3,8,3.1,16,9.3,20.8c9.9,7.7,25.4,9.4,35.2,0.7c5.1-5.2,8.1-13,6-20.3c-1.5-5.7-6.1-9.9-11-12.7
			c-0.6,1.1-1.1,2.3-1.7,3.4c5.9,3.6,11.7,10.8,9,18.1c-1.2,5-5.5,9.3-10.8,9.6c-6.9,0.4-13.5-2.1-19.7-5
			c-4.6-2.4-9.4-5.3-11.6-10.2c-2.6-6.2,1.3-13.9,7.5-16.1c4.5-1.7,9.3-1.1,13.9-0.2c0.3-1,0.7-1.9,1-2.9
			c-6.4-2.6-13.1-4.2-19.5-6.8C900.5,645.9,902.1,648.2,903.7,650.1 M134.2,686.1c1.1,2.1,2.1,4.2,2.5,6.6
			c-11.9,6.4-24.1,12.4-36.1,18.6c-1.5-1.9-2.7-4-3.9-6.1c-1.1,0.6-2.2,1.2-3.2,1.8c3.7,6.6,6.8,13.5,10.3,20.2
			c1.1-0.6,2.2-1.1,3.3-1.7c-1.1-2.2-2.1-4.4-2.9-6.7c4.9-3.3,10.3-5.5,15.6-8.2c3.4,7.1,7,15.6,15.1,18.6c7.7,2,16.9-4,17.1-12.2
			c-0.1-6.1-3.6-11.5-6.4-16.7c-2.6-5.3-5.4-10.6-7.9-16C136.5,684.9,135.4,685.5,134.2,686.1 M884.4,692.3
			c-4.1,2.5-5.3,7.5-7.8,11.3c-3.3,6.4-6.5,12.8-9.7,19.2c1,0.5,2.1,1,3.1,1.6c1.2-1.8,1.8-4.5,3.9-5.4c4,0.9,7.4,3.4,11.2,5
			c8.2,4.6,16.9,8.3,25.1,13.1c-0.7,2.3-1.7,4.5-2.7,6.6c1.1,0.5,2.2,1,3.4,1.4c3.5-6.7,6.6-13.6,10.3-20.1
			c-1.1-0.6-2.3-1.2-3.4-1.8c-1.2,2.2-2.4,4.4-3.8,6.5c-5.9-2.8-11.7-5.8-17.5-8.7c1.9-3.6,3.7-8.6,8.2-9.3c6.4-0.3,11.7,5,18.2,4.5
			c5.1,0.2,8.1-6,6.7-10.3c-1.1-3.7-4.9-5.3-7.9-7.3c-0.6,0.9-1.1,1.8-1.6,2.7c2.2,1.5,4.3,3.2,6,5.3c-0.5,0.3-1.7,1-2.2,1.3
			c-5.1-0.1-9.9-2.3-15-2.7c-2.9-0.2-5.4,1.5-7.5,3.3c0.6-2.3,1-4.7,1.4-7.1c-0.5-2.2-0.7-4.6-2-6.4
			C897.3,689.9,889.4,688.8,884.4,692.3 M865.4,732.8c-10.2,2.4-17.9,12.8-17.1,23.3c0.2,11.5,9.7,20.8,20.1,24.3
			c8,2.4,17.8,0.9,23.7-5.4c4-4.3,7.2-10,6.8-16.1C899.5,742.2,881.2,729.2,865.4,732.8 M121.1,744c-2.8,0.6-4.9-1.7-6.5-3.7
			c-1,0.6-2,1.2-3,1.9c3.1,5.2,6.6,10.2,9.7,15.4c1-0.7,2-1.4,3-2c-1-2-1.8-4.1-2.3-6.3c3-2.6,7-2.8,10.7-3.5
			c3.2,5,6.4,9.9,9.6,14.9c-2.7,2.9-4.3,7.4-7.9,9.2c-1.6-1.4-2.7-3.3-3.9-5c-1.1,0.6-2.2,1.3-3.2,1.9c3.8,5.8,7.4,11.8,11.3,17.5
			c1-0.7,2.1-1.4,3.1-2.1c-0.8-1.3-1.5-2.5-2.2-3.8c9-13.9,19.2-26.9,28.5-40.6c-0.2-1-0.5-2-0.9-3C151.7,738,136.4,741.1,121.1,744
			 M177.3,758.4c1.3,1.8,2.6,3.7,3.7,5.7c-5.2,5.2-11.4,9.2-17,13.9c-5,3.7-9.6,8.1-15,11.3c-2.2-0.7-3.3-3.2-4.9-4.8
			c-0.9,0.8-1.9,1.5-2.8,2.3c4.7,6.1,9.2,12.2,14.3,18c0.9-0.9,1.7-1.7,2.6-2.6c-1.5-1.9-2.9-3.7-4.3-5.7
			c4.7-4.7,10.1-8.4,15.3-12.4c2,2.7,4.5,5.4,5.1,8.8c0.2,3.8-2.9,6.6-5.5,8.9c-3.3,2.7-6,6.1-7.7,10.1c0.8,3.2,2.4,6.8,5.8,8
			c4.4,1.3,8.7-1,11.9-3.9c-0.7-0.8-1.3-1.6-1.9-2.4c-1.9,1.2-4,2.3-6.1,3.2c-0.5-0.5-1.4-1.4-1.9-1.8c2.9-6,9.1-10.1,10.5-16.9
			c-0.4-1.5-0.8-3.1-1.3-4.6c2.8,2.3,5.7,4.9,9.5,5.2c7.4,1.3,14.3-6.4,12.8-13.6c-0.5-3.7-2.9-6.7-5.2-9.6
			c-5.1-6.4-10.1-12.8-15.1-19.2C179.2,757,178.3,757.7,177.3,758.4 M811.8,794.9c0.9,0.7,1.9,1.5,2.8,2.2c1.8-1.4,3-4,5.4-4.3
			c4.8,3.5,9,7.8,13.6,11.6c5.6,5.2,12,9.5,16.9,15.4c-1.4,1.8-2.8,3.5-4.3,5.2c1,0.7,2.2,1.4,3.2,2.1c4.9-5.8,9.9-11.4,14.8-17.2
			c-0.9-0.9-1.8-1.8-2.7-2.6c-1.7,2-3.5,3.9-5.5,5.7c-5.3-4.1-10.3-8.5-15.2-13.1c2.1-2.1,4.5-3.8,7.2-5c2.4,0.9,4.8,1.9,7,3.2
			c0.7-0.9,1.3-1.8,2-2.6c-5.8-4.6-11-9.8-16.9-14.3c-0.6,0.8-1.3,1.6-1.9,2.5c1.3,1.8,2.7,3.5,3.5,5.5c0.9,3.4-1.5,6.3-3.6,8.7
			c-4.2-4.4-9.7-7.4-13.1-12.5c3.8-4.6,7.5-10.4,13.7-11.8c4.1,0.3,7.8,2.5,11.3,4.5c0.6-1,1.3-1.9,1.9-2.8
			c-4.7-3.6-9.3-7.3-14-10.9C829.4,774.6,820.5,784.7,811.8,794.9 M206.6,789.9c-4.9,4.2-9.2,8.9-14.1,13.2c0.6,0.5,1.6,1.6,2.2,2.1
			c3.9-2.5,7.5-5.9,12.2-6.8c3.9-0.8,6.7,2.5,9.2,5c-2.6,4.2-6.7,7.1-9.7,10.9c-6.5,6.5-12.4,13.5-19.3,19.6c-2.1-1.5-3.9-3.3-5.8-5
			c-0.8,0.9-1.7,1.8-2.5,2.7c5.7,5.5,11.3,11,17.2,16.3c0.9-0.9,1.7-1.7,2.6-2.5c-1.7-1.7-3.7-3.2-4.8-5.4c0.6-2.4,2.8-4,4.4-5.7
			c3.5-3.2,6.4-7,9.9-10.3c4.8-4.6,8.7-10,14-14.1c3.6,0.9,5,4.8,6.2,7.9c-1.3,4.8-3.8,9-6.7,13c0.7,0.7,1.5,1.5,2.2,2.2
			c4.2-4.9,8.5-9.8,12.6-14.7C226.4,808.7,216.6,799.2,206.6,789.9 M784.7,820.7c-7.5,6.3-14.9,12.7-22.2,19.2
			c0.8,0.9,1.7,1.8,2.5,2.6c1.7-1.4,3.4-2.9,5.2-4.2c2.9,2.5,5.3,5.6,7.9,8.5c6.4,7.5,13,14.9,19.4,22.4c-1.4,1.9-3.1,3.5-4.9,5
			c0.8,1,1.6,2,2.4,3c5.8-5,11.4-10.1,17.3-15c-0.8-1-1.6-1.9-2.4-2.8c-2,1.5-4,3.1-6,4.6c-4.6-4.6-8.7-9.7-12.9-14.6
			c3.2-2.6,6.5-6.5,11.1-5.4c6.5,2.7,9.8,10.4,17.1,11.7c3.9-0.3,8.1-3.4,7.9-7.6c0.4-3.8-2.2-7-4.5-9.7c-0.6,0.5-1.9,1.3-2.6,1.8
			c1.3,1.9,2.6,3.8,3.7,5.9c-0.4,0.5-1.3,1.6-1.7,2.2c-4.7-2.1-8.3-5.8-12.8-8.3c-2.9-1.6-6.3-1.2-9.2,0c4.2-4.5,6.9-11.9,2.6-17.1
			C798.4,817,789.9,816.4,784.7,820.7 M237.4,819.9c-0.7,1-1.4,2.1-2.1,3.2c1.8,1.6,4.1,2.7,5.2,4.9c-5.7,8.6-12.7,16.3-18.9,24.6
			c-1.9,2.6-4.3,4.8-6.9,6.6c-2.1-0.9-4.1-2-6.1-3.2c-0.7,0.9-1.4,1.8-2,2.7c5.2,4.2,10.5,8.4,15.9,12.4c0.5-0.6,1.6-1.8,2.2-2.4
			c-1.6-2.1-4.7-3.9-4-6.9c0.7-2.1,2-3.9,3.4-5.6c6.2-7.9,12.4-15.8,18.7-23.7c-4.8,14.6-9.5,29.2-14.4,43.8
			c1.4,0.5,2.9,1.8,4.2,0.4c12.1-7.8,24.2-15.8,36.3-23.6c-8,10.1-15.8,20.5-24.1,30.4c-2.1-1.3-4.1-2.8-6.1-4.3c-0.8,1-1.6,2-2.4,3
			c6,4.6,11.7,9.5,17.9,13.8c0.7-1,1.3-1.9,2-2.9c-1.6-1.5-3.3-2.8-4.9-4.2c2.8-4.9,6.7-9,10.1-13.5c5.2-6.3,9.8-13.1,15.5-19.1
			c3.4,2.4,7.4,4,10.8,6.4c0.9,1.1-0.2,2.5-0.6,3.6c-4.5,8.1-9.2,16-13.7,24c-1.6,2.8-3,5.8-5.1,8.3c-2.3,0.6-4.3-1.8-6.4-2.6
			c-0.6,1.1-1.2,2.2-1.8,3.3c12.1,7,24.1,14,36.2,20.8c3.4-5.4,7-10.7,10.3-16.1c-0.6-0.4-1.8-1.2-2.5-1.5c-3.2,3-5.9,6.8-10,8.5
			c-4.1,1.1-8.1-1-11.7-2.9c-2.4-1.5-5.2-2.5-6.7-5c2.5-6.1,6.4-11.5,9.5-17.3c2,1.7,4.5,3.2,5.8,5.6c1.4,2.6-0.5,5.4-1.3,7.9
			c0.7,0.4,2.2,1.2,2.9,1.6c3.4-6.3,7.5-12.3,10.6-18.8c-0.6-0.9-1.4-1.5-2.1-2.2c-2,2-3.7,4.6-6.5,5.4c-2.8,0.3-5.4-1.1-7.9-2.2
			c3.2-5.1,5.7-10.5,9.2-15.4c5.2,2.1,10.6,4.9,13.9,9.7c2.1,4.4-0.1,9.3-1.4,13.6c1,0.4,2,0.9,3.1,1.3c2.6-5.3,5.3-10.6,8-15.8
			c-12.2-7-24.3-14.1-36.6-20.9c-4-2.8-7.6-6-11.5-8.9c-10.8,7.1-21.6,14.1-32.4,21.1c3.9-12.4,8.4-24.5,12.4-36.9
			C246.6,827.2,242,823.6,237.4,819.9 M742,853.7c0.8,1,1.5,2,2.3,3c1.9-1.3,3.8-2.6,5.7-3.8c2.8,2.9,4.9,6.3,7.3,9.6
			c5.5,8,11.6,15.7,16.7,24c-1.7,1.6-3.6,3-5.5,4.4c0.8,1,1.5,2,2.3,3c6.1-4.4,12.2-8.7,18.3-13c-0.7-1.1-1.3-2.2-1.9-3.2
			c-2.2,1.1-4.1,4.1-6.8,3.1c-2.5-2.7-4.2-5.9-6.3-8.8c-5.6-8-11.7-15.8-16.8-24.1c1.8-1.5,3.6-2.9,5.5-4.3
			c-0.8-1.1-1.5-2.1-2.2-3.2C754.5,845,748.2,849.4,742,853.7 M720.3,866.4c2.1,14.9,4.5,29.7,6.6,44.6c0.9,3.4-1.1,6.1-3.9,7.8
			c0.6,1,1.2,1.9,1.8,2.9c5.3-2.8,10.5-6,15.7-8.9c-0.7-1.1-1.3-2.2-2-3.3c-1.6,0.8-3.2,1.6-4.9,2.5c-4.2-1.9-3.6-7.3-4.4-11.1
			c5.1-3,10.2-5.9,15.4-8.8c3.2,2.5,6.5,5,9.2,8c-1.8,1.5-3.8,2.8-5.8,4c0.7,1,1.3,2.1,2,3.2c6-3.5,11.9-6.9,18-10.3
			c-0.5-1-1-2-1.5-3c-2.2,0.5-4.8,2-6.8,0.1c-12.3-9.7-24.6-19.2-36.7-29.1C722.4,865.3,721,866,720.3,866.4 M322.7,882.3
			c1.9,1.1,4,2.1,5.6,3.6c-0.4,4.5-3.3,8.4-4.9,12.6c-3.5,7.1-6.1,14.7-10.2,21.6c-1.8,3-5.4,1.7-8.1,0.9c-0.4,1.1-0.8,2.1-1.2,3.2
			c5.9,2.5,11.7,5.3,17.6,7.9c0.3-0.7,0.9-2.2,1.2-3c-1.9-1.3-3.6-2.7-5.3-4.2c0.1-2.4,0.5-4.8,1.6-6.9c3.9-8.3,7.4-16.8,11.4-25
			c3.2,16.4,6.9,32.7,10.3,49.1c0.7,0.4,2,1.1,2.7,1.4c6-12.5,11.2-25.3,17.4-37.7c1.6-3.7,5.8-4.1,9-2.5c0.4-1,0.8-2.1,1.2-3.1
			c-6-2.7-11.9-5.5-18-8c-0.2,0.8-0.6,2.3-0.8,3.1c1.9,1.5,5.1,2.7,5.2,5.5c-0.2,2.3-1.1,4.4-2,6.5c-3.3,7-6.3,14.1-9.7,21.1
			c-3.2-14.5-6.1-29.1-9.2-43.7c-4.1-1.9-8.2-3.8-12.4-5.7C323.8,880.2,323.2,881.3,322.7,882.3 M641.9,903.6c0.4,1.2,0.7,2.4,1,3.6
			c2.1-0.8,4.2-1.6,6.3-2.4c2.1,3.2,3.3,6.9,4.7,10.4c3.6,9.4,7.6,18.6,10.8,28.1c-2,1.1-4.1,2.1-6.3,2.9c0.5,1.1,0.9,2.2,1.4,3.4
			c12.9-5,25.8-10.2,38.7-15.2c-2-6.2-4-12.4-6.3-18.5c-0.6,0.4-1.7,1.2-2.3,1.6c0.3,4.6,2.1,9.7-0.3,14.1
			c-3.2,3.9-8.2,5.6-12.7,7.5c-1.7,0.7-4.7,1.7-5.3-0.9c-2.2-5.5-4.4-10.9-6.5-16.5c2.6-1,5.6-2.4,8.4-1.1c2.2,1.4,3.6,3.8,5.2,5.8
			c0.7-0.4,2-1.1,2.7-1.5c-2.9-6.7-5.3-13.5-8-20.1c-1.1,0.2-2.1,0.5-3.1,0.8c0.4,1.8,0.9,3.6,1,5.5c-0.5,3.9-4.3,6-7.5,7.5
			c-2.2-5.6-4.6-11.1-6.4-16.8c4.4-2.7,9.5-4.6,14.7-5.1c5.4,0.2,8.3,5.5,11,9.5c1.1-0.4,2.2-0.7,3.3-1.1
			c-2.5-5.4-4.9-10.8-7.5-16.2C666.7,893.8,654.3,898.6,641.9,903.6 M371.8,900.4c-2.3,6.1-4.1,12.4-6.3,18.6
			c0.7,0.1,2.1,0.2,2.8,0.3c2.9-3.8,4-9.1,8.2-11.8c3.1-2,6.9-0.5,10,0.5c-2.2,10-5.3,19.7-8.1,29.6c-1.1,3.7-1.6,7.8-3.9,11
			c-2.3-0.6-4.5-1.2-6.8-1.8c-0.4,1.1-0.8,2.2-1.2,3.4c7.5,2.3,15.1,4.4,22.7,6.5c0.4-1.2,0.8-2.4,1.2-3.5c-2.4-0.7-4.7-1.4-7.1-2.2
			c0.1-1.6,0.3-3.3,0.8-4.8c2.7-9.1,5.2-18.3,7.8-27.4c0.9-2.7,1.1-5.8,2.9-8.1c4.3-0.2,9,2.9,9.5,7.5c0.3,3.8,0.2,7.7-0.5,11.5
			c0.8,0.1,2.4,0.4,3.1,0.6c1.2-6.3,2.7-12.5,4.2-18.7C398.2,908,385,904.1,371.8,900.4 M618.8,909.9c0.3,1.2,0.5,2.4,0.8,3.7
			c2.2-0.6,4.3-1.2,6.5-1.7c2.3,5.4,3.7,11.2,5.2,16.9c-7.1,2.1-14.3,3.9-21.4,6.2c-1.5-5.7-3.6-11.2-4.6-16.9
			c2.1-0.9,4.3-1.7,6.5-2.5c-0.4-1.1-0.8-2.3-1.1-3.4c-7,2.2-14.1,4-21.1,6.1c0.3,1.2,0.7,2.3,1,3.5c2.1-0.6,4.3-1.1,6.4-1.6
			c4.5,12.9,7.7,26.2,11.5,39.2c-2,1.4-4.3,2.3-6.6,2.9c0.4,1.2,0.8,2.3,1.2,3.5c7.1-2,14.2-4.2,21.3-6.1c-0.4-1.2-0.8-2.5-1.2-3.7
			c-2,0.6-4,1.2-5.9,1.8c-3.3-5.9-4.1-12.9-6.4-19.2c7.2-2,14.4-4.1,21.6-6.2c1.8,6.2,3.6,12.4,5.2,18.7c-2,1.2-4.2,2-6.4,2.8
			c0.1,0.9,0.4,2.6,0.6,3.4c7.2-2,14.4-4,21.6-6c-0.2-0.9-0.7-2.6-1-3.4c-2.3,0.2-4.9,2.1-6.9,0.5c-2.6-6.4-4-13.3-6-19.9
			c-1.7-6.3-4-12.5-5-19c2.1-0.9,4.2-1.6,6.4-2.3c-0.3-1.1-0.6-2.3-0.9-3.4C632.9,905.7,626,908,618.8,909.9 M548,922.6
			c0.6,6.3,1.2,12.7,1.5,19c1,0,2,0,3,0c0.2-4.6,0.2-9.5,2.4-13.6c1.8-3.3,5.9-4.3,9.4-4.1c1.7,3.7,1.5,7.8,2.2,11.8
			c1,10,3,19.8,3.6,29.8c-2.5,0.6-5.1,1.1-7.7,1.5c0.2,0.9,0.4,2.6,0.6,3.5c7.8-0.8,15.6-1.9,23.4-3c-0.1-0.8-0.4-2.5-0.6-3.3
			c-2.4,0-4.8,0.3-7.2,0.3c-1.8-5.3-1.8-11-2.7-16.5c-0.8-8.4-2.2-16.7-3-25.1c3.8-1.4,8.5-1.4,11.4,1.9c2.4,3.6,3.7,7.8,5,11.9
			c0.8,0,2.2-0.1,3-0.1c-1.3-6.4-2.2-12.8-3.5-19.2C575.2,919.4,561.5,920.8,548,922.6 M450.6,919.5c-19.3,3.9-25.6,32.5-11.3,45.2
			c8.7,8.5,24.3,8,32.4-1.1c9.1-10.1,10-27.6,0.5-37.7C466.8,920,458.2,917.9,450.6,919.5 M484.2,923.4c0,0.9,0,2.6,0,3.5
			c2.2,0.1,4.4,0.2,6.5,0.4c0.7,5.2,0.3,10.4,0,15.6c0,8.7,0,17.4-1.1,26c-2.2,0-4.4,0-6.6,0c0,1.2,0,2.4,0,3.6
			c7.7,0.2,15.3,0.8,23,0.4c0.1-1.2,0.1-2.3,0.2-3.5c-2.5-0.2-5.3,0.5-7.5-0.8c-0.9-1.5-0.7-3.2-0.5-4.8c0.5-5,0.2-10.1,0.3-15.1
			c2.4,0.4,5,0.5,7.3,1.8c2.6,1.8,3,5.1,3.6,8c0.8,0,2.4,0,3.2,0c0.1-7.3-0.4-14.5,0.6-21.8c-0.8,0-2.5-0.1-3.4-0.1
			c-0.7,2.4-0.9,5.3-3,7c-2.2,2-5.4,1.8-8.2,2.3c0.7-5.4,0.1-10.8,0.5-16.2c0.2-1,0.9-2.4,2.1-2.2c4.6-0.1,9.5-0.5,13.8,1.4
			c4.9,2.4,5.6,8.4,6.4,13.1c0.9,0,2.6,0,3.5,0c-0.3-5.9-0.6-11.8-0.4-17.7c-4.8,0.2-9.5-0.4-14.3-0.5
			C501.4,924.1,492.8,923,484.2,923.4z"/>
		<path class="st2" d="M651,75c5.4,1.7,11.8,2.6,15.5,7.4c2.4,4,0.6,8.9-1.3,12.7c-1.4,3.1-4.7,5.1-8.1,4.9
			c-4.8-0.3-9.5-1.8-13.9-3.6C646,89.4,647.5,81.8,651,75z"/>
		<path class="st2" d="M682.9,117.9c5.5-5.2,11-10.3,16.2-15.7c0.2,7.6-0.7,15.2-0.5,22.8C693.3,122.7,688.2,120.1,682.9,117.9z"/>
		<path class="st2" d="M502.2,145.3c41.2-1,82.7,4.9,121.9,17.5C696.4,185.9,760.9,232.1,806,293c43.6,58.1,69.1,129.4,72.3,202
			c2.7,55.3-7.6,111.3-29.5,162.2c-19.4,44.9-47.9,85.7-83.2,119.6c-36.8,35.2-80.9,62.9-128.9,80.2
			c-54.4,19.6-113.4,26.4-170.8,18.9c-75.7-9.2-147.9-43.3-203.6-95.3c-50.1-46.5-87-107.2-104.6-173.3
			c-8.3-30.4-12.2-61.8-12.7-93.3c0.1-34.7,4.6-69.5,14.3-102.8c23.5-83.5,78.2-157.5,150.6-205.1
			C366.6,168.2,434.2,147.1,502.2,145.3 M424.4,206c-1.5,10.9-2.8,21.8-4.6,32.6c-5.5-4.1-10.9-8.4-16.7-12.1
			c3.8,5.8,8.1,11.1,12.1,16.7c-10.9,1.6-21.9,2.9-32.7,4.7c11,1.8,22,3.3,33.1,4.5c-4.1,5.5-8.6,10.8-12.4,16.6
			c5.8-3.7,11.1-8.1,16.6-12.1c1.5,10.9,3,21.9,4.6,32.8c1.9-10.9,3.4-21.9,4.8-32.9c5.7,4.1,10.9,8.7,16.7,12.7
			c-4-5.8-8.2-11.5-12.4-17.2c11-1.6,22.1-2.4,32.9-4.7c-11.1-1.4-22.1-3.1-33.1-4.6c4.4-5.4,8.7-10.9,12.7-16.6
			c-5.9,3.8-11.3,8.3-17,12.3C427.7,227.7,426.4,216.8,424.4,206 M513.6,239.9c-0.5,1.4-1,2.8-1.5,4.2l0.1,0.5
			c-10.3,31.1-20.4,62.1-30.3,93.3c-56.3,9.1-106.4,48-130.4,99.6c-8.2,17.5-14,36.3-15.6,55.5c-12.2,12.4-23.7,25.5-34.1,39.5
			C288.4,551,276,570.8,270,593c-2.5,8.4-2.8,17.3-2.3,26c1.4,13.3,8.7,25.8,19.6,33.5c15.7,11.5,35.5,15.4,54.6,16.8
			c5.7,0,11.4,1,17.2,0.5c5-0.6,10.1-0.2,15.1-0.9c-8,24.8-16.2,49.4-24,74.2c-0.7,1-1.2,2.1-1.6,3.2c15-10.5,29.6-21.5,44.5-32.2
			c16.3-12,32.7-23.7,48.9-35.7C487,698,540,698,585,678.3c31.1,22.7,62.2,45.5,93.4,68c-0.5-1.4-0.9-2.9-1.7-4.2
			c-11-34.9-22.5-69.6-33.8-104.4c31.8-33,50.2-78.6,49.4-124.5c0.6-52.3-24.1-103.9-64.5-137.1c-12.1-9.9-25.3-18.9-39.9-24.7
			c19.2-5.9,39-9.8,58.9-12c11-1,22.1-2,33.1-1c14.6,0.9,29.5,3.6,42.2,11.2c9.8,5.7,17.4,15.2,20.1,26.3c3.5,14.1,0.8,29-3.9,42.5
			c-4.2,13.6-11.2,26-17.8,38.5c1.2-0.6,2.6-1,3.2-2.2c4.8-7.8,8.9-16,12.9-24.2c6.8-15.3,12.7-31.7,12-48.7
			c0.2-12.6-5.7-25.1-15.6-33c-11.9-9.4-27.2-13.2-42-15.2c-16.2-1.9-32.7-1.4-48.9,0.2c-21.7,2.4-43.4,6.2-64.1,13.4
			c-10.3-4.7-21.5-7.3-32.6-9.4C534.9,305.2,524.4,272.5,513.6,239.9 M259.2,335.2c-1.2,1.8-1.2,4.9,1.3,5.5c2.3,1,5.2-1.3,4.4-3.8
			C264.6,334.3,261.1,333.9,259.2,335.2 M267.4,405.5c0.9,0,2.8,0,3.7-0.1c0.4-0.5,1.3-1.4,1.8-1.9c0.1-3-2-4.9-4.9-4.8
			C266.2,400.7,265.7,403.4,267.4,405.5 M206.6,427.1c-0.4,0.5-1.2,1.4-1.7,1.8c0,0.8,0,2.3,0,3.1c0.4,0.5,1.2,1.4,1.6,1.8
			c1.9-0.3,4.8-0.2,4.7-2.9C211.9,428,208.8,427.2,206.6,427.1 M180.1,440c0.8,0.4,2.5,1.2,3.3,1.6c1.1-0.9,2.1-1.7,3.1-2.6
			c-0.6-1.9-2.1-4.6-4.5-3.3C180.1,436.2,180.4,438.5,180.1,440 M243.8,440c1.2,1,2.1,3.5,4,2.8c3.2-0.2,3.4-5.6,0.2-5.8
			C245.9,436,244.9,438.8,243.8,440 M285.2,447.9c0.4,0.4,1.3,1.3,1.8,1.7c0.7,0,2,0,2.6,0.1c0.4-0.4,1.2-1.2,1.7-1.6
			c0-0.8,0-2.5,0.1-3.3c-1.4-0.6-2.8-1.4-4.4-1.1C285.5,444.7,285.4,446.4,285.2,447.9 M204.9,447.5c0,1,0,3,0,4
			c1.4,0.3,2.9,0.5,4.4,0.8c0.2-1.6,0.4-3.2,0.5-4.9C208.1,447.2,206.5,447.2,204.9,447.5 M214.4,457.3c0,1.1,0,2.2,0,3.4
			c1.1,0.6,2.1,2,3.6,1.7c2.8,0.2,4.5-4,2.3-5.8C218.7,454.4,215.9,455.8,214.4,457.3 M264.4,476.1c-0.5,2,1.7,2.7,2.9,3.8
			c1.3-0.7,2.6-1.4,3.8-2.1c-0.5-1.4,0-3.4-1.6-4.1C267.7,471.9,264.2,473.7,264.4,476.1 M269.8,511.1c-1.1,1.2-2.1,2.6-3,4
			c-2.3,0.4-4.7,0.7-7,1.2c2.3,0.6,4.7,1,7,1.4c1,1.4,1.9,2.8,3,4.1c0.7,3.7,0.5,7.6,1.3,11.3c0.4-3.6,0.3-7.2,0.9-10.8
			c0.9-1.6,2-3.1,3-4.6c2.4-0.3,4.9-0.7,7.3-1.2c-2.5-0.5-4.9-1-7.4-1.4c-1-1.5-2.1-3-3.2-4.3c0-3.4-0.2-6.7-0.6-10.1
			C270.5,504,270.4,507.6,269.8,511.1 M826.5,507.2c-0.9,4.5-0.8,9.1-1.5,13.6c-1.7,1.4-2.9,3.2-3.8,5.2c-3.3,0.5-6.6,0.9-9.8,1.6
			c3.1,0.6,6.3,0.8,9.4,1.7c1.4,1.8,2.6,3.8,4.1,5.5c0.7,4.6,0.4,9.3,1.7,13.8c0.2-4.6,0.6-9.1,0.8-13.7c1.4-1.7,2.7-3.5,3.8-5.4
			c3.2-0.6,6.4-1.1,9.6-2c-3.2-0.5-6.5-0.9-9.7-1.5c-0.9-2-2.1-3.8-3.7-5.3C827.2,516.2,827.2,511.6,826.5,507.2 M780.5,519.8
			c0,1.5,0,2.9,0,4.4c1.7,0.7,3.5,2.1,5.3,0.8c2.1-1.1,1.3-3.7,1.1-5.6C784.8,519,782.5,518.7,780.5,519.8 M789,543.8
			c1.5,1,3,2.7,5,2.4c1.7,0.1,2.7-1.6,4-2.4c-0.3-1.8,0.1-4-1.4-5.4c-1.6-1.1-3.7-1-5.5-0.5C788.8,538.8,789.2,541.7,789,543.8
			 M837.6,552.7c0.4,1.7,0.1,3.9,1.6,5.1c2.4,1.5,6.6,0.6,6.8-2.7c0.6-2.3-1.2-4.1-3.1-4.9C840.7,549.5,839.2,551.6,837.6,552.7
			 M743.8,558.8c0.5,1.1,1.1,2.1,1.6,3.2c1.6,0.4,3.5,1.6,5.1,0.5c3.7-1.4,2.9-8.5-1.4-8.2C746.2,553.8,744.3,556.3,743.8,558.8
			 M827,570.7c2.8,0.6,4.4-2,5.3-4.2c-1-2.4-3.5-5.1-6.3-3.6C822.4,564.2,823,570.7,827,570.7 M724,590c1.1,1.8,2.3,4.4,5,3.5
			c3.5-0.3,3.1-6-0.1-6.5C726.5,586,725.1,588.3,724,590 M747.7,590.7c1,1.5,2,2.9,3.2,4.2c0.9,0,2.6-0.1,3.5-0.1
			c1.2-1.4,2.7-2.9,2.1-4.9c-0.3-2.2-2.7-2.8-4.3-3.7C750.2,587.3,748.8,588.9,747.7,590.7 M800.8,613.1c-0.1,2.7,0.5,6.8,4.1,6.3
			c2.9,0.6,4.1-2.3,5-4.5c-1-1.6-1.6-4.3-4.1-4.1C803.8,610.3,802.3,612.1,800.8,613.1 M814,615.5c-0.5,4-0.6,8.1-1.1,12.1
			c-1.4,1.4-2.6,3.1-3.9,4.7c-2.7,0.7-5.5,0.9-8.2,1.4c2.8,0.7,5.6,1.2,8.5,1.7c1.1,2,2.6,3.7,3.7,5.7c0.5,3.8,0.3,7.7,0.9,11.6
			c0.8-4,0.9-8.2,1.3-12.3c1.2-1.5,2.4-3.1,3.4-4.8c2.8-0.6,5.7-1,8.5-1.6c-2.8-0.6-5.6-1-8.4-1.4c-0.9-1.8-2.1-3.4-3.5-4.8
			C814.7,623.6,814.9,619.5,814,615.5 M828.3,625.4c-0.4,0.9-0.7,1.8-1.1,2.6c0.3,0.9,0.7,1.7,1.1,2.6c1,0.5,2,0.9,3,1.4
			c1.2-1.1,3.5-2,3.1-4.1c0.2-2.1-1.9-2.8-3.2-3.8C830.3,624.5,829.3,625,828.3,625.4 M731,639.9c-0.7,2,0.8,3.6,1.9,5
			c0.8,0,2.5,0,3.4,0c1.2-1.3,2.9-2.7,2.3-4.7C738.3,636.2,731.6,636,731,639.9 M399.9,799.9c1.5,0.6,3,1.1,4.4,1.9
			c-1,5.6-3.6,10.8-5.1,16.2c-1.2,3.1-1.5,6.8-4.1,9.1c-1.7,0.6-5.9-1.3-5,1.7c4.3,1.9,8.8,3.1,13.3,4.6c0.1-2.5-2.1-3.6-3.8-4.9
			c1-8.4,4.8-16.1,7.5-24.1c-0.4,7.8,0.7,15.6,0.4,23.5c0.3,2.8-1,6.2,1.6,8.3c6.4-7.8,12.2-16.1,18.6-23.9
			c-2.9,7.9-4.9,16.1-8.3,23.8c-1.5-0.6-3-1.1-4.5-1.7c-0.2,0.7-0.6,2-0.8,2.7c4.8,1.7,9.6,3.1,14.4,4.8c0.2-0.6,0.5-2,0.7-2.6
			c-1.4-0.5-2.8-0.9-4-1.6c2.4-8.9,5.8-17.5,8.8-26.2c1.4,0.4,2.9,0.9,4.4,1.3c0.3-0.8,0.6-1.7,0.9-2.5c-3.6-1.4-7.3-2.5-11-3.7
			c-5.3,6.7-10.4,13.6-15.7,20.4c0.3-8.7-0.8-17.3-0.4-26c-3.7-1.2-7.4-2.5-11.2-3.6C400.5,798.2,400.1,799.4,399.9,799.9
			 M609.1,802.4c0.3,0.7,0.5,1.4,0.8,2.1c1.3-0.1,2.6-0.3,3.9-0.2c0.1,3.5-1.4,6.8-2.4,10.2c-3-2.2-6-4.5-9-6.7
			c1.2-0.6,2.3-1.2,3.5-1.8c-0.2-0.6-0.6-1.9-0.8-2.5c-4.5,1.7-9.1,3.3-13.6,4.9c0.6,2.8,3.3,1.5,5.3,2.2c4.5,2.9,8.7,6.4,13.1,9.5
			c-2.5,6-2.3,13.9-8.3,17.7c0.2,0.5,0.5,1.6,0.6,2.1c4.2-1.3,8.4-2.8,12.6-4.1c-0.2-0.6-0.4-1.7-0.6-2.2c-1.9,0.3-3.8,0.4-5-1.4
			c1.1-3.4,2-6.8,2.9-10.1c3.6,2.5,7.2,5,10.5,7.9c-1.5,0.7-2.9,1.3-4.4,1.9c0.2,0.6,0.7,1.8,1,2.4c4.8-1.9,9.8-3.4,14.6-5.2
			c-0.7-2.3-2.4-2.3-4.3-1.5c-5.5-3.2-10.2-7.5-15.5-11.1c1.3-4.1,1.9-8.5,3.8-12.5c1-2.1,4.8-2.9,3.5-5.8
			C617.2,799.4,613.2,800.8,609.1,802.4 M560,814.3c0.3,0.9,0.5,1.7,0.8,2.6c1.5-0.2,3-0.4,4.5-0.5c2.1,9,3.5,18.1,5.1,27.1
			c-1.5,0.3-3,0.6-4.5,1c0,0.7-0.2,2-0.2,2.7c5.3-0.8,10.6-1.9,15.9-2.8c-0.5-3-3.4-1.9-5.6-1.9c-1.5-9-3.4-17.9-4.8-26.9
			c2-0.9,4.9-1,4.9-3.8C570.7,812.3,565.4,813.5,560,814.3 M454.8,813.2c-0.2,0.6-0.6,1.9-0.9,2.5c1.8,0.2,3.5,0.5,5.2,1.1
			c-0.4,6-1.5,12-2.1,18.1c-0.5,3.1-0.4,6.6-2.8,9c-1.4,0-2.8,0-4.1,0c0,0.6-0.1,1.9-0.1,2.5c4.7,0.4,9.3,1.1,13.9,1.6
			c-0.1-0.6-0.2-1.7-0.3-2.2c-2-0.9-5.4-1.8-4.5-4.7c0.7-7.2,1.7-14.4,2.8-21.6c2.5,9.7,4.4,19.5,6.7,29.2c0.5,0.1,1.5,0.3,2,0.4
			c4.8-8.8,8.4-18.1,13.4-26.7c-1.2,8.4-1.9,16.9-3.6,25.2c-1.6-0.2-3.2-0.5-4.8-0.7c0,0.7,0,2,0,2.7c5,0.5,10.1,1.3,15.1,1.9
			c0-0.5-0.1-1.6-0.1-2.2c-1.4-0.5-2.9-0.8-4.3-1.4c0.8-9.1,2-18.3,3.5-27.3c1.5,0.1,3,0.2,4.4,0.3c0.1-0.6,0.5-1.8,0.6-2.3
			c-3.9-0.6-7.8-1.1-11.6-1.6c-3.9,7.7-7.4,15.5-11.4,23.2c-2-8.4-3.5-16.9-5.5-25.3C462.5,814.1,458.7,813.7,454.8,813.2
			 M529.5,818c-0.1,0.4-0.4,1.2-0.5,1.6c1.5,0.5,3,1.1,4.5,1.6c-1.6,3.1-3.5,5.9-5.3,8.8c-2.4-3-4.5-6.1-6.7-9.3
			c1.4-0.1,2.9-0.2,4.3-0.3c-0.3-0.9-0.5-1.7-0.8-2.5c-4.7-0.1-9.4,0.1-14.1,0.5c0,0.5,0,1.4,0,1.8c1.7,0.4,3.7,0.4,4.7,2
			c3.2,4.1,6.1,8.4,9.2,12.5c-4,5-6.3,12.4-13,14.5c0,0.5,0,1.6,0,2.2c4.4,0.1,8.8-0.5,13.2-0.6c0-0.6,0-1.8,0-2.3
			c-1.5-0.3-3.3-0.2-4.3-1.6c1.2-3.6,3.8-6.5,5.8-9.6c2.6,3.5,5.3,7,7.7,10.7c-1.5,0.1-3.1,0.2-4.6,0.3c0,0.7,0,2,0.1,2.6
			c5,0,10-0.7,15.1-0.5c0-0.6,0-1.8,0-2.3c-1.5-0.5-3.4-0.1-4.4-1.5c-3.7-4.5-6.9-9.5-10.5-14.1c3.7-4.6,5.5-11.8,12.1-13
			c0-0.6,0-1.7,0-2.2C537.9,817.3,533.7,817.3,529.5,818z"/>
		<path class="st2" d="M187.9,188c4.8-5.3,10.3-11.9,18.3-11.4c8.9,2.1,15.4,9.4,21,16.2c3.9,4.7,7.2,11.5,3.9,17.4
			c-2.7,4.5-7,7.8-10.9,11.3c-2.1-1.3-4-3.1-5.6-5C205.8,206.9,196.3,197.9,187.9,188z"/>
		<path class="st2" d="M883.5,260.8c3-0.9,6.3-1.4,9.4-0.5c5.7,1.5,9.6,6.9,10.8,12.5c1.1,5.6-2.7,10.7-6.5,14.4
			c-5,4.5-10.8,8.2-16.9,11c-4.1,1.9-8.8,2.8-13.2,1.9c-8.8-2.6-13.9-14.4-8.2-22.1C865,269.9,874.1,264.2,883.5,260.8z"/>
		<path class="st2" d="M908.3,325.1c6.2-2.6,12-5.9,18.4-7.9c1.7,1.5,2.4,3.8,3.4,5.7c1.5,3.4,3.3,7.1,2.2,10.9
			c-2,4.4-6.8,6.1-11.2,7.2C913.5,339.4,910.8,331.5,908.3,325.1z"/>
		<path class="st2" d="M299.8,547.8c10.3-15.3,22.2-29.4,34.9-42.7c-2.9,48.5,15.3,98.2,49.5,132.7l-0.3,0.8l0.1-0.1
			c-2.1,7.3-4.9,14.3-6.9,21.5c-20.6,2.2-41.8,2.7-61.9-3.2c-13.5-3.9-26.7-11.9-33.4-24.7c-5.4-9.8-6-21.5-4.5-32.4
			C280.5,581.1,289.4,563.7,299.8,547.8z"/>
		<path class="st2" d="M82.9,616.5c8.1-2.1,16.1-4.9,24.3-6.7c2.4,5.8,5.4,13,1.5,18.9c-4.6,6.3-12.7,8-19.8,9.8
			c-5.2,1.2-11.7,1.7-15.7-2.6c-3.5-4.1-4.5-9.7-5.4-14.8C72.7,619.2,77.8,618,82.9,616.5z"/>
		<path class="st2" d="M877.4,711c1.7-5.1,4.2-10.3,8.7-13.5c4.8-0.1,10.2,2,12.2,6.8c0.9,5.5-2.5,10.4-5,15
			C888,716.6,882.5,714.1,877.4,711z"/>
		<path class="st2" d="M123,708.7c6.1-2.8,11.9-6.3,18.2-8.7c2.5,4.4,6,9.1,5.4,14.5c-1.7,4.9-7.1,6.7-11.6,8.1
			C128.4,720.9,125.6,714.2,123,708.7z"/>
		<path class="st2" d="M864.2,738.2c7-0.4,13.3,4,18.9,7.8c5.7,4.3,12.3,10.2,11.3,18.1c-1.1,4.5-4.3,8.7-8.7,10.4
			c-4.9,2.1-10.2-0.4-14.6-2.6c-6.5-3.8-13.1-8.3-16.9-15C850.2,749.5,856,739.3,864.2,738.2z"/>
		<path class="st2" d="M136.9,744.7c6.5-1.3,13.1-2.5,19.5-3.9c-3.7,5.4-7.4,10.8-11.2,16.1C141.9,753.3,139.8,748.8,136.9,744.7z"
			/>
		<path class="st2" d="M172.2,781.6c4.8-3.4,9.1-7.5,14-10.7c4,3.2,7.6,7.8,8.6,13c-1.1,5.1-6.6,9.5-11.9,8.5
			C178.1,790.3,175.1,785.7,172.2,781.6z"/>
		<path class="st2" d="M785.4,825.4c2.4-1.7,5.8-1.8,8,0.2c2.8,2.2,5.8,5.5,5.1,9.3c-1.4,5.2-6.2,8.5-10.2,11.6
			c-3.7-4.5-8-8.6-11.3-13.5C779,829.7,782.2,827.4,785.4,825.4z"/>
		<path class="st2" d="M451.4,923.4c7.1-3,16.6,1.6,17.7,9.5c1.4,9.6,0.5,20.1-4.5,28.5c-4.5,8.1-18.1,7.2-21.9-1
			c-3.6-7.4-2-15.9-0.5-23.6C443.4,931.5,446,925.7,451.4,923.4z"/>
	</g>
	<g id="_x23_fbfefeff">
		<path class="st1" d="M517,50c7.4-3.3,16.9-1.8,22.8,3.8c0.9-1.4,1.8-2.8,2.7-4.2c1.2,0,2.4,0,3.6,0c0,6.7,0,13.3,0,20
			c-0.8,0-2.4,0-3.2,0c-1.4-4.4-2.6-9.2-6.1-12.5c-3.7-4.1-9.8-5.7-15.2-4.4c-4.4,0.9-7.6,5.8-6.3,10.2c2.4,5.2,8.4,7,13.5,8.4
			c5.5,1.7,11.7,2.6,15.8,7c4.4,4.6,4.5,11.8,3,17.6c-1.5,4.3-5.1,7.8-9.4,9.3c-8.1,2.7-17.7,1.3-24.2-4.4c-1.1,1.6-2.3,3.2-3.4,4.8
			c-0.7,0-2.1-0.1-2.8-0.1c0-7.6,0-15.1,0-22.7c0.8,0,2.5,0,3.3,0c1.4,5.5,2.9,11.5,7.2,15.5c4.6,4.4,11.9,5.3,17.8,3
			c6.2-2.4,7.9-11.4,3.2-16c-8.9-5.3-21-4.5-28.1-12.7C506.7,65.4,508.7,53.7,517,50z"/>
		<path class="st1" d="M389,65.7c14.9-3.7,30-6.9,45-10.5c1.9,6.9,4.2,13.8,6,20.7c-0.8,0.2-2.4,0.6-3.2,0.8
			c-2.3-4.7-3.8-10.1-8-13.5c-3.4-2.6-8-1.9-11.5-0.1c0.6,7.1,2.8,13.9,4.3,20.8c2.2,8.4,3.4,17.1,6.3,25.3c2.7-0.5,5.4-1,8.1-1.7
			c0.4,1.3,0.7,2.6,1.1,3.9c-8.6,2.2-17.4,3.9-26,6.1c-0.4-1.3-0.7-2.6-1-3.9c2.9-0.7,5.7-1.5,8.4-2.5c-0.5-4.8-1.9-9.4-3-14
			c-2.2-9.3-4.2-18.7-6.5-28c-0.4-1.4-1.1-2.8-1.8-4.1c-3.1,0.7-6.5,1.2-8.7,3.7c-2.8,2.9-2.5,7.2-2.8,10.9c0.2,2.3,0.3,4.5,0.3,6.8
			c-0.8,0.1-2.4,0.4-3.2,0.5C391.6,79.7,390.3,72.7,389,65.7z"/>
		<path class="st1" d="M591,57.1c8-2.6,17.2,0.5,22.6,6.9c1.2-1.2,2.4-2.4,3.6-3.6c1.1,0.1,2.2,0.3,3.2,0.4
			c-1.2,6.7-1.9,13.5-2.9,20.2c-1.1-0.2-2.2-0.4-3.4-0.6c-0.5-6.6-2.5-14.2-8.7-17.7c-3.9-2.2-8.9-3.6-13.1-1.4
			c-2.8,1.5-4.3,4.8-4.4,7.8c0.7,4,4.2,6.6,7.5,8.5c6.3,3.5,14.1,5.3,18.8,11.1c5.4,8.2,2.3,21.6-7.2,25.4c-9.2,2.7-20,0-26.2-7.4
			c-1.2,1.4-2.4,2.9-3.7,4.2c-0.8-0.1-2.4-0.2-3.2-0.3c1.5-7.4,2.1-14.9,3.7-22.3c1.1,0.2,2.3,0.3,3.4,0.5c-0.1,7.3,2,15.5,8.5,19.7
			c4.5,2.4,10.3,3.8,15.1,1.4c5.5-2.5,7.7-11.2,2.7-15.3c-6.6-4.7-14.8-6.7-21.2-11.7C577.3,76.3,580.8,60.3,591,57.1z"/>
		<path class="st1" d="M634.7,69.3c0.4-1.3,0.9-2.6,1.3-3.9c9.3,3.3,18.6,6.4,28,9.5c5.1,1.7,10.2,5,11.9,10.4
			c1.6,5.9-0.2,12.7-4.8,16.8c-2.5,2.1-5.8,2.8-9,3.1c-7.1,0.1-13.8-2.4-20.3-4.9c-1.6,6-4.2,11.8-5.7,17.8c0.6,3.2,5.2,2.9,7.6,4.2
			c-0.5,1.3-0.9,2.6-1.4,3.9c-8.1-2.6-16.1-5.7-24.3-8.2c0.5-1.3,1-2.6,1.5-3.9c2.2,0.8,4.5,1.5,6.7,2.3c4-6.1,4.8-13.7,7.8-20.4
			c2.3-8.1,6-15.8,7.3-24.1C639.2,70.9,637,70.1,634.7,69.3 M651,75c-3.5,6.8-5,14.4-7.9,21.4c4.4,1.8,9.1,3.3,13.9,3.6
			c3.4,0.2,6.8-1.8,8.1-4.9c2-3.8,3.7-8.7,1.3-12.7C662.8,77.6,656.4,76.7,651,75z"/>
		<path class="st1" d="M355.5,75.2c1.3,0.1,3-1.2,3.9,0.1c11,12.8,21.9,25.7,32.9,38.4c1,1.1,2,2.1,3.1,3.1c1.6-0.4,3.2-0.8,4.8-1.3
			c0.5,1.2,0.9,2.5,1.4,3.8c-7.3,2.7-14.7,5.2-22.1,7.6c-0.4-1.3-0.9-2.6-1.3-3.8c2.4-1,4.8-1.9,7.2-3c-2.4-4-5.5-7.5-8.5-11.1
			c-6.3,2.1-12.6,4.4-19,6.3c-0.2,3.8-1,7.9,0.5,11.5c2,2.8,5.4,0.9,8,0.2c0.4,1.3,0.9,2.5,1.3,3.8c-6.4,2.5-12.9,4.4-19.3,6.6
			c-0.4-1.2-0.8-2.5-1.1-3.7c2.1-1.2,4.9-2.1,5.3-4.8c0.8-3.9,1-8,1-11.9C354.3,103,355,89.1,355.5,75.2 M359.2,88
			c-0.5,7.5-0.8,15-1.2,22.5c5.4-1.7,10.8-3.5,16.2-5.4C369.1,99.6,364.3,93.7,359.2,88z"/>
		<path class="st1" d="M283.8,109c13.8-6.9,27.4-14.2,41.2-21c3.4,6.3,7.2,12.3,10.7,18.5c-1,0.6-1.9,1.2-2.9,1.8
			c-3.2-4.2-6.2-8.9-11-11.4c-3.8-1.6-7.9,0.4-11.3,2.3c0.2,1.1,0.6,2.2,0.9,3.3c5.8,11.8,12,23.3,17.9,35.1
			c0.7,1.4,1.5,2.8,2.7,3.8c2.6-0.8,5-2.1,7.5-3.3c0.6,1.2,1.3,2.5,1.9,3.8c-8,3.9-15.9,8.1-23.8,12.1c-0.6-1.3-1.2-2.6-1.8-3.9
			c2.4-1.3,5.3-2,7-4.2c-0.3-3.1-2.4-5.6-3.7-8.3c-3-6-5.9-12-9.1-17.9c-2.8-5.2-4.9-10.8-8.5-15.7c-4.2,1.2-8.3,4.1-9.1,8.7
			c-0.4,5,1.6,9.7,2.9,14.5c-0.7,0.4-2.2,1.3-2.9,1.8C289.8,122.2,286.7,115.6,283.8,109z"/>
		<path class="st1" d="M686.4,108.5c6-6.2,12.6-11.8,18.5-18.1c1,0.5,2,1,3,1.5c-0.7,18.5-1.8,37.1-2.1,55.7c1.5,1,3,2,4.5,2.9
			c-0.5,1.2-1.1,2.4-1.6,3.6c-7.1-3.3-14.3-6.4-21.4-9.7c0.6-1.3,1.2-2.5,1.8-3.8c2.4,0.9,4.7,2.8,7.4,2.3c0.8-4.4,1.2-8.8,1.1-13.3
			c-5.9-3-12.1-5.5-18-8.3c-3.1,3-7.1,5.8-8,10.4c1.8,1.5,3.8,2.8,6,3.8c-0.5,1.3-1.1,2.7-1.6,4c-6.1-3-12.4-5.5-18.5-8.6
			c0.6-1.2,1.2-2.3,1.8-3.5c2.5,0.8,5.4,1.9,7.6-0.1C673.8,121.3,680.1,114.8,686.4,108.5 M682.9,117.9c5.3,2.2,10.4,4.8,15.7,7
			c-0.2-7.6,0.7-15.2,0.5-22.8C693.8,107.6,688.3,112.7,682.9,117.9z"/>
		<path class="st1" d="M268.5,117.6c0.7-0.3,2-1,2.7-1.3c3.8,5.6,7.9,10.9,11.6,16.6c-0.7,0.4-2.2,1.3-2.9,1.8
			c-4.8-4.7-11.5-8.7-18.4-7.2c-4.1,1.2-8.6,3.5-10.4,7.6c-2.1,4.4,1.1,10.2,5.9,10.8c10.1,1.1,18.9-6.9,29-5.1
			c7.6,1.9,12.7,9.6,13,17.2c-1.1,12.3-14.5,19.9-26,18.5c0.1,2,0.2,4,0.3,5.9c-0.8,0.5-1.7,1.1-2.5,1.6
			c-4.3-6.2-8.5-12.5-12.5-18.9c0.8-0.5,2.3-1.4,3-1.9c4.4,4.7,10.1,8.8,16.7,9.2c5.8-0.6,11.8-3.5,14.5-8.9
			c2.6-4.8-0.2-11-4.8-13.4c-3.7-1.5-7.6,0.2-11.1,1.3c-7.1,2.4-14.9,5.4-22.3,3c-7.1-3.8-11.1-13.3-7.5-20.8
			c3.9-7.8,13.3-11.7,21.7-10.5C268.5,121.4,268.5,119.5,268.5,117.6z"/>
		<path class="st1" d="M736.9,120.8c5.8-3,12.7-4.6,19.1-2.5c6.9,2,12.7,7.4,15,14.3c2.4-1.4,5-2.6,7.6-0.8
			c-3.6,6.7-7.6,13.2-11.4,19.9c-0.8-0.4-2.3-1.2-3.1-1.6c2.8-6.7,5.1-15.2,0.3-21.6c-2.5-3.9-7.2-5.3-11.5-6.3
			c-3.4,0.9-6.8,1.9-9.5,4.3c-6.6,5.7-11.3,13.3-14.7,21.2c-2,4.9-2.7,11.1,0.9,15.5c3,3.6,7.4,6.7,12.3,6.6
			c6.2,0.3,11.2-3.9,15.5-7.7c1,0.9,2.1,1.8,3.1,2.7c-4.4,4.8-10.1,9.1-16.8,9.2c-7.1,0.6-13.9-3.2-18.5-8.4
			c-6.3-7.8-6.9-19.1-3-28.1C725.3,130.7,730.4,124.7,736.9,120.8z"/>
		<path class="st1" d="M788,144.3c0.8-1,1.7-2.1,2.6-3.1c11.4,9.8,22.7,19.7,34,29.6c-4.1,5.3-8,10.7-12.4,15.7
			c-0.9-0.8-1.8-1.7-2.7-2.5c2.7-4.4,5.8-9.6,4.3-15c-2.8-5.6-7.9-9.5-12.9-13c-5.2,4.4-9.1,10-13.7,15c2.8,2,5.9,4.8,9.7,4.1
			c2.4-0.8,4.3-2.6,6.4-4c1,0.7,1.9,1.4,2.9,2.2c-5.5,6.2-11,12.4-16.3,18.8c-0.9-0.7-1.9-1.4-2.8-2.1c1.4-2.8,3.6-5.8,2.8-9.2
			c-0.8-2.9-3.1-5-5.2-7c-3.9,4.8-8,9.3-12,14c-0.8,1-1.8,2-1.9,3.3c1.7,3.3,4.9,5.4,7.6,7.8c3.3,2.4,7,5.5,11.5,4.6
			c4.7-1.2,8.5-4.4,12.2-7.3c0.8,0.9,1.7,1.7,2.5,2.6c-5.1,5-10.1,10-14.8,15.3c-11.9-10.2-23.8-20.6-35.6-30.8c1-1,1.9-2,2.9-3
			c1.9,1.6,3.8,3.2,5.9,4.7c5.1-4.9,9.4-10.5,14.2-15.8c5.4-6.4,11.1-12.5,16.3-19.1C791.7,148,789.9,146.1,788,144.3z"/>
		<path class="st1" d="M203,170.8c8.4-2.9,17.6,0.6,23.7,6.5c7.3,6.4,13.5,15.4,12.4,25.5c-0.5,8-6.7,13.8-12.5,18.7
			c-5.1,5.3-10.7,10.1-15.9,15.3c-1-1-2-2-2.9-3.1c2-1.7,3.8-3.6,5.3-5.7c-7.7-9-16.3-17-24.2-25.8c-2.4-2.3-4.6-4.9-7.2-6.9
			c-2.7-0.2-4.4,2.7-6.4,4.2c-1-0.9-1.9-1.9-2.9-2.8c4.1-4.1,8.5-7.8,12.4-11.9C190.6,179.8,195.4,173.1,203,170.8 M187.9,188
			c8.4,9.9,17.9,18.9,26.7,28.5c1.6,1.9,3.4,3.7,5.6,5c3.9-3.5,8.2-6.8,10.9-11.3c3.4-5.9,0-12.7-3.9-17.4
			c-5.6-6.9-12.1-14.1-21-16.2C198.3,176.1,192.8,182.7,187.9,188z"/>
		<path class="st1" d="M848.7,200.1c1-0.9,2-1.9,3-2.8c9.7,11.5,19.8,22.7,29.4,34.2c-4.6,4.8-9.6,9.2-14.3,13.8
			c-0.9-0.9-1.8-1.8-2.7-2.6c2.9-3.5,5.9-7.3,6.6-11.9c0.4-3.4-1.5-6.4-3.5-9c-2.4-3-4.7-6.3-8.1-8.2c-5.2,4-10.1,8.5-15.1,12.9
			c2.3,2.1,4.4,5,7.8,5.3c3,0.2,5.6-1.6,8.2-3c0.7,0.9,1.4,1.8,2.1,2.8c-6.2,5.5-12.4,11-18.8,16.2c-0.7-1-1.4-2-2.1-3
			c2.1-2.1,3.6-4.7,4.7-7.5c-1-3.1-2.7-5.9-4.6-8.5c-5.4,5.3-11.7,9.7-16.9,15.2c1.6,2.4,3.5,4.5,5.3,6.7c-1,1-1.9,1.9-2.9,2.9
			c-5.8-6.6-11.6-13.1-17.1-19.8c1.1-0.8,2.2-1.7,3.3-2.5c1.6,2,3.3,3.8,5.2,5.4c9.3-7.1,17.7-15.2,26.7-22.7
			c2.8-2.5,5.8-4.9,8.4-7.7C851.7,204.1,850.2,202.1,848.7,200.1z"/>
		<path class="st1" d="M133.3,245.1c9.2-11.9,18.6-23.6,27.8-35.5c5.5,3.8,10.9,7.8,16.5,11.6c-0.8,1-1.5,2-2.3,3
			c-4.9-2.3-10.8-6-16.2-3.1c-4.9,3.4-8.7,8.2-11.4,13.5c5,4.5,10.3,8.6,15.8,12.5c1.5-2.5,3.2-5,3.6-8c-0.2-3.4-2.8-5.7-4.9-8.1
			c0.8-0.9,1.7-1.8,2.5-2.6c6.5,5,12.9,10.1,19.4,15.1c-0.7,1-1.4,2-2.1,2.9c-2.5-1.1-4.9-2.9-7.8-2.9c-3.5,0.5-5.7,3.5-8.1,5.8
			c5.8,4.7,11.6,9.5,17.7,13.8c5.1-4.2,9.1-9.9,11.6-16c1.2-6.4-4.3-11.2-7.7-15.9c0.7-0.9,1.4-1.8,2-2.7c5.4,4.7,10.7,9.4,16.1,14
			c-9.4,12.4-19.3,24.5-28.8,36.9c-1.1-0.8-2.2-1.6-3.3-2.4c1.4-2,2.9-4,4.2-6c-3.1-3.9-7.4-6.5-11.2-9.7
			c-8.1-6.2-15.9-12.8-24.2-18.8c-2.9-0.3-4.1,3.6-6,5.3C135.5,246.8,134.4,245.9,133.3,245.1z"/>
		<path class="st1" d="M125.1,256.5c6.5,3.3,12.9,6.7,19.4,10c-0.4,0.7-1.3,2-1.7,2.7c-5.1-1.7-10.3-4-15.7-3.2
			c-4.1,0.7-6.2,4.8-7.8,8.1c1.2,1,2.5,2,3.8,2.7c10.8,6.3,21.6,12.4,32.4,18.7c1.6,0.9,3.2,2,5.1,1.6c1.7-1.9,2.9-4.2,4.2-6.5
			c1.2,0.6,2.4,1.3,3.7,2c-4.4,7.7-8.9,15.4-13.3,23c-1.2-0.7-2.4-1.3-3.7-2c1.6-2.4,2.9-5,4-7.7c-10.8-6.8-22.1-12.8-33-19.3
			c-2.4-1.3-4.7-3-7.4-3.8c-3.7,2.5-5.9,8.2-3.2,12.2c2.6,4.2,6.6,7.3,10.3,10.4c-0.6,0.9-1.2,1.9-1.7,2.8
			c-6.2-3.8-12.3-7.7-18.2-11.8C109.8,283.1,117.5,269.8,125.1,256.5z"/>
		<path class="st1" d="M920.1,301.2c1.3-0.5,2.5-1,3.8-1.5c4.2,9.3,8.4,18.6,12.6,27.9c1.8,3.9,2.6,8.3,1.1,12.4
			c-2.4,7.6-12.7,11.2-19.3,6.7c-2.7-2.1-5.1-4.7-6.8-7.7c1.8,5.3-1.5,10.7-5.9,13.5c-3.1,3-8.1,4.6-9.3,9.1
			c0.7,0.6,1.5,1.2,2.2,1.9c2.2-0.7,4.3-1.3,6.5-2.1c0.5,1,1,2.1,1.5,3.1c-3.9,1.9-8.5,3.5-12.8,1.8c-4.1-2.2-6.4-7.8-4.4-12
			c4.4-7.4,16.1-7.6,18.6-16.4c0.3-3.9-1.9-7.5-3.4-10.9c-6.6,3.3-13.9,5.6-20.1,9.7c1,2.5,2.1,5,3.3,7.4c-1.3,0.6-2.5,1.2-3.8,1.8
			c-3.5-7.8-7.2-15.7-10.6-23.6c1.2-0.4,2.4-0.8,3.7-1.1c1.4,2.1,2.4,4.3,3.8,6.4c9.5-3.4,18.3-8.2,27.6-12.1
			c4.8-2.3,9.7-4.2,14.3-6.8C922.2,306.1,921.2,303.6,920.1,301.2 M908.3,325.1c2.5,6.3,5.2,14.2,12.7,16c4.4-1.1,9.2-2.9,11.2-7.2
			c1.1-3.8-0.7-7.5-2.2-10.9c-1-2-1.6-4.3-3.4-5.7C920.3,319.3,914.5,322.6,908.3,325.1z"/>
		<path class="st1" d="M82.1,339c1.1,0.4,2.3,0.8,3.4,1.2c-0.4,2.2-1.5,4.5-0.3,6.6c0.9,1.8,2.9,2.6,4.5,3.5
			c14.4,5.5,29.3,9.6,43.7,15.1c-0.7,1.6-1.2,3.5-3.3,3.7c-17.3,5.5-34.6,10.9-51.9,16.4c8.7,3.1,17.6,5.8,26.2,8.9
			c3.1,1,6.3,2.5,9.7,2c3.1-0.7,4.1-4,5.4-6.5c1.1,0.4,2.2,0.8,3.4,1.2c-2.5,6.8-4.5,13.7-6.9,20.5c-1.2-0.4-2.3-0.8-3.5-1.1
			c0.1-2.6,1.4-6-1-7.9c-2.6-2.2-6-3.1-9.1-4.2c-10.3-3.3-20.5-6.9-30.6-10.5c-2.6,1.7-3.7,4.6-4.8,7.3c-1.2-0.6-2.4-1.2-3.6-1.8
			c1.7-4.7,3.3-9.4,4.8-14.1c16.1-5.2,32.3-10,48.3-15.3c-9.9-3.1-19.6-7-29.6-9.8c-4.4-1.7-7.3,2.9-8.4,6.5
			c-1.2-0.4-2.4-0.7-3.6-1.1C77.4,352.9,79.4,345.8,82.1,339z"/>
		<path class="st1" d="M925.5,364.6c8.8-1.7,18.9-0.1,25.6,6.2c6.6,6.3,8.6,16.7,5.4,25.2c1.7,0.5,3.3,0.9,5,1.4
			c0.2,1.1,0.4,2.1,0.7,3.2c-7.2,2.3-14.3,4.7-21.5,7.2c-0.4-1.1-0.7-2.3-1-3.4c5.6-2.8,11.3-6.5,13.8-12.5c1.7-4.2,0.7-9-1.7-12.7
			c-2.4-4.1-7.2-5.8-11.7-6.1c-7.2-0.4-14.3,1.9-21,4.3c-5.2,2.1-10.6,5.1-13.1,10.4c-2.3,6-0.1,13.2,4.7,17.3
			c4.5,3.7,10.5,4.1,16.1,4c0.2,1.3,0.4,2.6,0.7,4c-5.2-0.1-10.8,0.7-15.5-2c-11.3-5.7-14.6-21.9-8-32.2
			C908.2,370.9,916.9,366.4,925.5,364.6z"/>
		<path class="st1" d="M61.1,405c1.3,0.2,2.7,0.5,4,0.7c-0.3,1.7-0.7,3.4-1,5.1c0.8,1.8,1.9,3.6,4,3.9c9,2,18,3.4,27.1,5
			c5.7,1.1,11.8,3.3,14.9,8.4c3.2,5.4,2.5,12,1.3,17.9c-1.2,5.1-3.3,10.6-7.9,13.6c-4.2,3-9.7,2.8-14.6,2
			c-9.9-1.9-19.9-3.5-29.8-5.3c-4.3-1-3.4,5.1-4.6,7.7c-1.3-0.2-2.6-0.4-4-0.6c1.7-8.2,2.9-16.5,4.5-24.7c1.3,0.1,2.5,0.2,3.8,0.4
			c-0.2,2.6-0.5,5.2-0.6,7.9c9.4,2.4,19.1,3.4,28.6,5.5c5.1,0.9,11.4,2.5,15.8-1.4c3.9-3.9,5.3-9.7,5.2-15.1c0-4.8-3.2-9.4-7.8-10.8
			c-4.9-1.5-10.1-2-15.2-3c-7-1.1-13.8-3.1-20.9-3c-1.6,2.3-2.3,5.1-2.8,7.9c-1.3-0.4-2.6-0.6-3.8-1.1
			C58.5,418.9,59.8,411.9,61.1,405z"/>
		<path class="st1" d="M960.4,413.9c1.3-0.2,2.6-0.5,4-0.7c2.6,14.8,5.5,29.6,7.8,44.5c-6.5,1.3-13,2.8-19.4,4.4
			c-0.2-1.3-0.3-2.5-0.5-3.8c4.8-2.1,10.9-4.1,12.8-9.5c0.8-5.9,0.2-12.3-2.4-17.6c-6.7-0.3-13.2,2.2-19.8,2.8
			c0.7,3.4,1.7,7.2,4.8,9.2c2.4,1,5.1,0.9,7.7,1c0.2,1.2,0.4,2.4,0.6,3.6c-8.2,1.2-16.2,2.9-24.4,4.3c-0.1-1.2-0.3-2.4-0.4-3.6
			c3.5-1,7.4-2.8,8.4-6.7c0.1-2.2,0.6-4.8-0.6-6.8c-6.8,0.7-13.4,2.2-20.1,3.5c-2.5,0.2-1.8,3.4-1.6,5.2c1.1,5.1,1.6,10.8,4.8,15.1
			c4.1,4.5,10.7,4.1,16.2,4.2c0.2,0.9,0.7,2.5,0.9,3.4c-7.1,0.9-14.2,1.8-21.3,2.6c-2.7-15.3-5.4-30.5-8.2-45.8
			c1.2-0.4,2.5-0.7,3.7-1.1c0.9,2.5,0.7,5.6,2.7,7.5c12.2-1.4,24.2-4.4,36.4-6.2c2.9-0.4,5.8-1.1,8.6-2.1
			C961.1,418.8,960.8,416.4,960.4,413.9z"/>
		<path class="st1" d="M269.8,511.1c0.6-3.5,0.7-7,1.3-10.5c0.5,3.3,0.6,6.7,0.6,10.1c1.1,1.4,2.2,2.8,3.2,4.3
			c2.5,0.4,4.9,0.9,7.4,1.4c-2.4,0.4-4.8,0.8-7.3,1.2c-1,1.5-2.1,3-3,4.6c-0.6,3.6-0.5,7.2-0.9,10.8c-0.9-3.7-0.7-7.6-1.3-11.3
			c-1.1-1.3-2-2.7-3-4.1c-2.4-0.4-4.7-0.8-7-1.4c2.3-0.5,4.7-0.8,7-1.2C267.7,513.6,268.7,512.3,269.8,511.1z"/>
		<path class="st1" d="M826.5,507.2c0.8,4.4,0.7,9,1,13.4c1.6,1.5,2.7,3.3,3.7,5.3c3.2,0.5,6.4,1,9.7,1.5c-3.1,0.9-6.4,1.3-9.6,2
			c-1.1,1.9-2.3,3.7-3.8,5.4c-0.2,4.6-0.6,9.2-0.8,13.7c-1.3-4.5-1-9.2-1.7-13.8c-1.6-1.7-2.7-3.7-4.1-5.5c-3.1-0.8-6.3-1-9.4-1.7
			c3.2-0.7,6.5-1.1,9.8-1.6c0.9-2,2.1-3.8,3.8-5.2C825.7,516.3,825.5,511.7,826.5,507.2z"/>
		<path class="st1" d="M743.8,558.8c0.5-2.5,2.4-5.1,5.3-4.5c4.4-0.3,5.1,6.8,1.4,8.2c-1.6,1.1-3.4-0.2-5.1-0.5
			C744.9,561,744.3,559.9,743.8,558.8z"/>
		<path class="st1" d="M103.8,595.1c1.1-0.4,2.2-0.8,3.3-1.1c2.2,8.3,4.8,16.5,7,24.8c0.9,5.5,1.3,11.7-1.8,16.5
			c-4.3,6.9-12.4,10.3-20.1,11.6c-7.2,1.5-15.5,0.2-20.7-5.3c-4-3.9-4.9-9.6-6.5-14.6c-1.8-6.5-3.7-13-5.5-19.5
			c0.9-0.2,2.7-0.7,3.6-0.9c0.6,2,1.2,4,1.9,6c6-0.3,11.7-2.7,17.5-4.2c7.4-2.4,15-3.9,22.2-6.6
			C104.6,599.5,104.2,597.3,103.8,595.1 M82.9,616.5c-5.1,1.5-10.3,2.7-15.2,4.6c1,5.1,2,10.7,5.4,14.8c4,4.3,10.5,3.8,15.7,2.6
			c7.1-1.7,15.2-3.5,19.8-9.8c3.9-5.9,0.9-13.1-1.5-18.9C99,611.6,91.1,614.4,82.9,616.5z"/>
		<path class="st1" d="M904,640c3.5-13,7.2-25.8,10.9-38.7c5.7,1.2,11.4,2.7,17,3.9c-0.2,1.1-0.3,2.2-0.5,3.3
			c-4.8-0.5-10.6-1.2-14.3,2.7c-2.9,4.2-4.3,9.4-5.2,14.4c1.5,1.5,3.7,2,5.7,2.6c3.8,1.1,7.6,2.3,11.5,3c1-2.4,1.1-5.2,0.5-7.8
			c-1.4-2.6-4.2-3.7-6.6-4.9c0.4-1,0.7-1.9,1.1-2.9c7.2,1.5,14,4.1,21.2,5.8c-0.3,1-0.7,2-1,2.9c-2.7,0.1-5.6-0.5-8,1
			c-2.2,1.7-3,4.5-4.1,6.9c6.4,1.9,12.7,3.9,19.2,5.3c2.3-3.5,3.2-7.6,4-11.7c0.4-2.7,0.8-5.9-0.8-8.3c-2.8-3.4-6.8-5.5-10.5-7.5
			c0.2-0.7,0.4-2.2,0.6-2.9c6,2.1,12.2,3.8,18.2,6.3c-3.9,13.3-7.6,26.6-11.4,40c-0.9-0.2-2.7-0.8-3.5-1c0.5-2.1,1.1-4.1,1.6-6.2
			c-4.1-2.5-9-3.1-13.5-4.6c-8.8-2.2-17.4-5.4-26.4-7c-0.9,2.1-1.6,4.2-2.2,6.3C906.2,640.6,905.1,640.3,904,640z"/>
		<path class="st1" d="M814,615.5c0.8,4,0.7,8.1,1.1,12.2c1.4,1.4,2.6,3,3.5,4.8c2.8,0.3,5.6,0.8,8.4,1.4c-2.8,0.6-5.7,1.1-8.5,1.6
			c-1,1.7-2.1,3.3-3.4,4.8c-0.4,4.1-0.5,8.2-1.3,12.3c-0.6-3.8-0.3-7.7-0.9-11.6c-1.1-2-2.6-3.7-3.7-5.7c-2.8-0.5-5.7-1-8.5-1.7
			c2.7-0.5,5.5-0.8,8.2-1.4c1.3-1.6,2.4-3.3,3.9-4.7C813.5,623.5,813.5,619.5,814,615.5z"/>
		<path class="st1" d="M116.9,643.1c1.2-0.5,2.3-1,3.4-1.5c5,12.5,9.8,25,14.8,37.4c-5.4,2.5-10.8,4.9-16.2,7.4
			c-0.4-1.1-0.7-2.1-1.1-3.2c3.4-2.4,7.3-4.6,9.1-8.5c0.8-6.2-1.8-12.2-4.9-17.4c-5.6,2.1-11.1,4.4-16.7,6.4c1.4,2.7,2.8,5.9,5.7,7
			c2.3,1.2,4.8-0.1,7.2-0.5c0.4,1,0.6,2.1,0.8,3.2c-6.8,2.5-13.4,5.3-20.1,7.9c-0.4-0.7-1-2-1.4-2.6c2-1.6,4.3-3,5.8-5.2
			c1.4-2.8-0.1-5.8-0.9-8.5c-5.9,2.5-12.2,4.3-17.9,7.3c-1,2,0.4,4.2,1,6.1c1.8,4,3.4,8.4,6.9,11.2c4.4,2.4,9.5,0.7,14.2,0.4
			c0.4,0.6,1.1,1.8,1.5,2.4c-6.1,2.2-12.3,4.2-18.4,6.2c-5.1-12.9-10.2-25.9-15.3-38.8c1.2-0.4,2.3-0.8,3.5-1.2
			c0.8,2.1,1.7,4.2,2.9,6.2c8.3-2.9,16.4-6.3,24.6-9.5c4.6-2,9.7-3.2,13.9-6C118.5,647.2,117.7,645.2,116.9,643.1z"/>
		<path class="st1" d="M903.7,650.1c-1.6-2-3.2-4.2-1.9-6.8c6.4,2.6,13.1,4.2,19.5,6.8c-0.3,0.9-0.7,1.9-1,2.9
			c-4.6-0.9-9.4-1.5-13.9,0.2c-6.2,2.2-10.2,9.8-7.5,16.1c2.2,4.9,7,7.8,11.6,10.2c6.1,2.8,12.8,5.4,19.7,5
			c5.3-0.3,9.6-4.6,10.8-9.6c2.7-7.3-3-14.4-9-18.1c0.5-1.2,1.1-2.3,1.7-3.4c4.9,2.9,9.6,7,11,12.7c2,7.2-1,15-6,20.3
			c-9.8,8.7-25.3,7-35.2-0.7c-6.2-4.9-10.6-12.8-9.3-20.8C894.6,658.8,898.4,653.2,903.7,650.1z"/>
		<path class="st1" d="M134.2,686.1c1.1-0.6,2.3-1.2,3.4-1.8c2.5,5.4,5.3,10.6,7.9,16c2.8,5.2,6.3,10.6,6.4,16.7
			c-0.2,8.2-9.5,14.2-17.1,12.2c-8-3-11.6-11.4-15.1-18.6c-5.2,2.6-10.7,4.9-15.6,8.2c0.8,2.3,1.9,4.5,2.9,6.7
			c-1.1,0.5-2.2,1.1-3.3,1.7c-3.5-6.7-6.7-13.6-10.3-20.2c1.1-0.6,2.2-1.2,3.2-1.8c1.1,2.1,2.3,4.2,3.9,6.1
			c12.1-6.2,24.2-12.2,36.1-18.6C136.3,690.4,135.3,688.2,134.2,686.1 M123,708.7c2.6,5.5,5.4,12.2,11.9,13.9
			c4.5-1.4,9.9-3.2,11.6-8.1c0.7-5.4-2.8-10.1-5.4-14.5C134.9,702.4,129.1,705.9,123,708.7z"/>
		<path class="st1" d="M884.4,692.3c5.1-3.5,13-2.4,16.5,2.8c1.3,1.9,1.6,4.2,2,6.4c-0.4,2.4-0.8,4.8-1.4,7.1
			c2.1-1.7,4.6-3.5,7.5-3.3c5.1,0.4,9.9,2.6,15,2.7c0.6-0.3,1.7-1,2.2-1.3c-1.6-2.2-3.7-3.8-6-5.3c0.5-0.9,1.1-1.8,1.6-2.7
			c3,1.9,6.8,3.5,7.9,7.3c1.4,4.3-1.6,10.6-6.7,10.3c-6.5,0.5-11.8-4.8-18.2-4.5c-4.6,0.8-6.4,5.7-8.2,9.3
			c5.8,2.9,11.6,5.9,17.5,8.7c1.5-2,2.7-4.3,3.8-6.5c1.1,0.6,2.2,1.2,3.4,1.8c-3.8,6.5-6.8,13.4-10.3,20.1c-1.1-0.5-2.3-1-3.4-1.4
			c1-2.2,1.9-4.4,2.7-6.6c-8.1-4.8-16.8-8.5-25.1-13.1c-3.7-1.6-7.2-4.2-11.2-5c-2.1,0.8-2.7,3.6-3.9,5.4c-1.1-0.5-2.1-1-3.1-1.6
			c3.2-6.4,6.4-12.8,9.7-19.2C879,699.8,880.3,694.8,884.4,692.3 M877.4,711c5.1,3.1,10.6,5.5,15.9,8.2c2.5-4.6,5.9-9.5,5-15
			c-2-4.7-7.3-6.9-12.2-6.8C881.6,700.7,879.1,705.9,877.4,711z"/>
		<path class="st1" d="M865.4,732.8c15.8-3.6,34.1,9.4,33.5,26.2c0.3,6.1-2.8,11.8-6.8,16.1c-5.9,6.3-15.6,7.8-23.7,5.4
			c-10.4-3.6-19.9-12.8-20.1-24.3C847.5,745.6,855.1,735.1,865.4,732.8 M864.2,738.2c-8.2,1.1-14,11.2-10,18.7
			c3.8,6.7,10.4,11.2,16.9,15c4.4,2.2,9.6,4.7,14.6,2.6c4.4-1.7,7.6-5.9,8.7-10.4c1-7.9-5.6-13.8-11.3-18.1
			C877.5,742.2,871.2,737.9,864.2,738.2z"/>
		<path class="st1" d="M121.1,744c15.3-2.9,30.6-6,45.9-9.1c0.4,1,0.7,2,0.9,3c-9.3,13.7-19.5,26.7-28.5,40.6
			c0.7,1.3,1.5,2.5,2.2,3.8c-1,0.7-2.1,1.4-3.1,2.1c-3.9-5.8-7.4-11.7-11.3-17.5c1.1-0.6,2.1-1.3,3.2-1.9c1.2,1.7,2.3,3.6,3.9,5
			c3.7-1.8,5.2-6.2,7.9-9.2c-3.2-4.9-6.4-9.9-9.6-14.9c-3.7,0.7-7.7,0.9-10.7,3.5c0.5,2.2,1.3,4.2,2.3,6.3c-1,0.6-2,1.3-3,2
			c-3.1-5.2-6.6-10.2-9.7-15.4c1-0.6,2-1.2,3-1.9C116.2,742.2,118.3,744.5,121.1,744 M136.9,744.7c2.8,4,5,8.6,8.3,12.2
			c3.9-5.3,7.5-10.7,11.2-16.1C150,742.3,143.4,743.4,136.9,744.7z"/>
		<path class="st1" d="M177.3,758.4c1-0.7,1.9-1.4,2.9-2.1c5,6.4,10,12.9,15.1,19.2c2.2,2.8,4.6,5.8,5.2,9.6
			c1.5,7.2-5.4,14.9-12.8,13.6c-3.8-0.2-6.7-2.9-9.5-5.2c0.4,1.5,0.8,3.1,1.3,4.6c-1.4,6.8-7.6,10.9-10.5,16.9
			c0.5,0.5,1.5,1.4,1.9,1.8c2.1-0.9,4.1-2,6.1-3.2c0.6,0.8,1.3,1.6,1.9,2.4c-3.2,3-7.5,5.2-11.9,3.9c-3.4-1.2-5-4.7-5.8-8
			c1.6-4,4.4-7.4,7.7-10.1c2.6-2.3,5.7-5.1,5.5-8.9c-0.6-3.5-3.1-6.1-5.1-8.8c-5.2,4-10.6,7.8-15.3,12.4c1.3,1.9,2.8,3.8,4.3,5.7
			c-0.9,0.9-1.7,1.7-2.6,2.6c-5.1-5.8-9.6-12-14.3-18c0.9-0.8,1.9-1.6,2.8-2.3c1.6,1.6,2.6,4.1,4.9,4.8c5.4-3.2,9.9-7.6,15-11.3
			c5.6-4.7,11.8-8.7,17-13.9C179.9,762.1,178.6,760.2,177.3,758.4 M172.2,781.6c2.9,4.1,5.9,8.7,10.7,10.7c5.3,1,10.8-3.3,11.9-8.5
			c-1-5.1-4.6-9.8-8.6-13C181.3,774.1,177,778.2,172.2,781.6z"/>
		<path class="st1" d="M811.8,794.9c8.7-10.2,17.6-20.3,26.3-30.5c4.7,3.5,9.3,7.3,14,10.9c-0.6,0.9-1.3,1.9-1.9,2.8
			c-3.5-2-7.2-4.2-11.3-4.5c-6.2,1.4-9.9,7.1-13.7,11.8c3.4,5.1,8.9,8.1,13.1,12.5c2.1-2.4,4.5-5.3,3.6-8.7c-0.8-2-2.2-3.8-3.5-5.5
			c0.6-0.8,1.3-1.7,1.9-2.5c5.8,4.5,11.1,9.7,16.9,14.3c-0.7,0.9-1.4,1.7-2,2.6c-2.2-1.3-4.6-2.3-7-3.2c-2.7,1.2-5.1,2.9-7.2,5
			c4.9,4.6,9.9,9,15.2,13.1c2-1.8,3.8-3.7,5.5-5.7c0.9,0.8,1.8,1.7,2.7,2.6c-4.9,5.8-9.9,11.4-14.8,17.2c-1.1-0.7-2.2-1.4-3.2-2.1
			c1.5-1.7,2.9-3.4,4.3-5.2c-4.8-5.9-11.3-10.2-16.9-15.4c-4.6-3.8-8.8-8.1-13.6-11.6c-2.4,0.3-3.6,2.9-5.4,4.3
			C813.7,796.3,812.7,795.6,811.8,794.9z"/>
		<path class="st1" d="M206.6,789.9c10.1,9.3,19.9,18.9,29.8,28.3c-4.1,5-8.4,9.8-12.6,14.7c-0.7-0.8-1.5-1.5-2.2-2.2
			c2.9-3.9,5.4-8.2,6.7-13c-1.2-3.1-2.7-7-6.2-7.9c-5.3,4.1-9.2,9.5-14,14.1c-3.4,3.3-6.4,7-9.9,10.3c-1.6,1.7-3.8,3.3-4.4,5.7
			c1,2.2,3,3.7,4.8,5.4c-0.9,0.8-1.7,1.7-2.6,2.5c-5.9-5.3-11.5-10.8-17.2-16.3c0.8-0.9,1.6-1.8,2.5-2.7c1.9,1.7,3.8,3.5,5.8,5
			c6.8-6.2,12.8-13.1,19.3-19.6c3.1-3.8,7.1-6.8,9.7-10.9c-2.4-2.5-5.3-5.8-9.2-5c-4.7,0.9-8.3,4.3-12.2,6.8
			c-0.6-0.5-1.6-1.6-2.2-2.1C197.3,798.8,201.7,794.1,206.6,789.9z"/>
		<path class="st1" d="M560,814.3c5.4-0.8,10.7-2,16.1-2.6c0,2.9-2.9,2.9-4.9,3.8c1.3,9,3.3,17.9,4.8,26.9c2.2,0,5.1-1.1,5.6,1.9
			c-5.3,0.9-10.6,2.1-15.9,2.8c0.1-0.7,0.2-2,0.2-2.7c1.5-0.4,3-0.7,4.5-1c-1.6-9.1-3-18.2-5.1-27.1c-1.5,0.1-3,0.3-4.5,0.5
			C560.5,816,560.3,815.1,560,814.3z"/>
		<path class="st1" d="M454.8,813.2c3.9,0.4,7.7,0.9,11.5,1.5c2,8.4,3.5,16.9,5.5,25.3c3.9-7.7,7.5-15.5,11.4-23.2
			c3.9,0.5,7.8,1,11.6,1.6c-0.1,0.6-0.4,1.8-0.6,2.3c-1.5-0.2-3-0.3-4.4-0.3c-1.4,9-2.7,18.2-3.5,27.3c1.4,0.6,2.8,0.9,4.3,1.4
			c0,0.5,0.1,1.6,0.1,2.2c-5-0.6-10.1-1.4-15.1-1.9c0-0.7,0-2,0-2.7c1.6,0.2,3.2,0.4,4.8,0.7c1.8-8.3,2.4-16.8,3.6-25.2
			c-5,8.6-8.6,18-13.4,26.7c-0.5-0.1-1.5-0.3-2-0.4c-2.3-9.7-4.2-19.5-6.7-29.2c-1.1,7.2-2.1,14.4-2.8,21.6c-0.9,3,2.5,3.8,4.5,4.7
			c0.1,0.5,0.2,1.6,0.3,2.2c-4.6-0.5-9.3-1.2-13.9-1.6c0-0.6,0.1-1.9,0.1-2.5c1.4,0,2.7,0,4.1,0c2.3-2.4,2.3-5.9,2.8-9
			c0.7-6,1.7-12,2.1-18.1c-1.7-0.6-3.5-0.9-5.2-1.1C454.2,815.1,454.6,813.9,454.8,813.2z"/>
		<path class="st1" d="M784.7,820.7c5.2-4.3,13.8-3.7,17.7,2c4.3,5.3,1.6,12.7-2.6,17.1c3-1.1,6.4-1.6,9.2,0
			c4.5,2.5,8.1,6.1,12.8,8.3c0.4-0.5,1.3-1.6,1.7-2.2c-1.1-2-2.3-4-3.7-5.9c0.6-0.5,1.9-1.3,2.6-1.8c2.3,2.7,4.9,5.8,4.5,9.7
			c0.1,4.2-4.1,7.3-7.9,7.6c-7.2-1.3-10.6-9-17.1-11.7c-4.6-1.1-7.9,2.8-11.1,5.4c4.2,5,8.3,10,12.9,14.6c2-1.5,4-3,6-4.6
			c0.8,0.9,1.6,1.9,2.4,2.8c-5.9,4.9-11.6,10-17.3,15c-0.8-1-1.6-2-2.4-3c1.8-1.5,3.5-3.1,4.9-5c-6.4-7.5-12.9-14.9-19.4-22.4
			c-2.5-2.9-4.9-6-7.9-8.5c-1.8,1.4-3.5,2.9-5.2,4.2c-0.8-0.9-1.7-1.8-2.5-2.6C769.8,833.4,777.2,827,784.7,820.7 M785.4,825.4
			c-3.1,2.1-6.4,4.4-8.4,7.6c3.3,4.9,7.6,9,11.3,13.5c4-3.2,8.8-6.4,10.2-11.6c0.8-3.9-2.2-7.1-5.1-9.3
			C791.2,823.5,787.8,823.7,785.4,825.4z"/>
		<path class="st1" d="M237.4,819.9c4.6,3.7,9.2,7.3,13.8,10.8c-4,12.4-8.5,24.5-12.4,36.9c10.8-7,21.6-14,32.4-21.1
			c3.9,2.9,7.5,6.1,11.5,8.9c12.3,6.8,24.4,13.9,36.6,20.9c-2.8,5.2-5.5,10.5-8,15.8c-1-0.4-2-0.9-3.1-1.3c1.3-4.3,3.5-9.2,1.4-13.6
			c-3.3-4.7-8.7-7.6-13.9-9.7c-3.5,4.9-6,10.3-9.2,15.4c2.5,1.1,5,2.5,7.9,2.2c2.8-0.8,4.6-3.4,6.5-5.4c0.7,0.7,1.5,1.4,2.1,2.2
			c-3.1,6.5-7.2,12.5-10.6,18.8c-0.7-0.4-2.2-1.2-2.9-1.6c0.7-2.5,2.7-5.3,1.3-7.9c-1.2-2.5-3.7-3.9-5.8-5.6
			c-3.1,5.8-7,11.2-9.5,17.3c1.5,2.5,4.4,3.5,6.7,5c3.6,1.8,7.6,4,11.7,2.9c4.1-1.7,6.9-5.5,10-8.5c0.6,0.4,1.8,1.2,2.5,1.5
			c-3.4,5.4-6.9,10.7-10.3,16.1c-12.1-6.9-24.1-13.9-36.2-20.8c0.6-1.1,1.2-2.2,1.8-3.3c2.1,0.8,4.1,3.2,6.4,2.6
			c2.1-2.5,3.5-5.5,5.1-8.3c4.6-8,9.3-15.9,13.7-24c0.4-1.1,1.6-2.4,0.6-3.6c-3.4-2.4-7.4-3.9-10.8-6.4c-5.6,6-10.2,12.8-15.5,19.1
			c-3.3,4.5-7.3,8.6-10.1,13.5c1.6,1.4,3.4,2.7,4.9,4.2c-0.6,1-1.3,2-2,2.9c-6.1-4.4-11.9-9.2-17.9-13.8c0.8-1,1.6-2,2.4-3
			c1.9,1.5,3.9,3,6.1,4.3c8.3-9.9,16.1-20.2,24.1-30.4c-12.1,7.8-24.2,15.8-36.3,23.6c-1.3,1.4-2.8,0.1-4.2-0.4
			c4.9-14.6,9.6-29.2,14.4-43.8c-6.3,7.8-12.4,15.8-18.7,23.7c-1.4,1.7-2.7,3.5-3.4,5.6c-0.7,3.1,2.3,4.8,4,6.9
			c-0.5,0.6-1.6,1.8-2.2,2.4c-5.4-4-10.6-8.2-15.9-12.4c0.7-0.9,1.4-1.8,2-2.7c1.9,1.2,4,2.4,6.1,3.2c2.7-1.8,5.1-4,6.9-6.6
			c6.2-8.2,13.1-16,18.9-24.6c-1.1-2.2-3.4-3.3-5.2-4.9C236,822,236.7,821,237.4,819.9z"/>
		<path class="st1" d="M742,853.7c6.2-4.4,12.4-8.7,18.5-13.3c0.7,1.1,1.5,2.1,2.2,3.2c-1.9,1.3-3.8,2.8-5.5,4.3
			c5.2,8.3,11.2,16.1,16.8,24.1c2.2,2.9,3.9,6.1,6.3,8.8c2.6,1,4.6-2,6.8-3.1c0.6,1.1,1.3,2.2,1.9,3.2c-6.1,4.4-12.2,8.7-18.3,13
			c-0.8-1-1.5-2-2.3-3c1.9-1.4,3.8-2.8,5.5-4.4c-5.1-8.3-11.2-16-16.7-24c-2.4-3.3-4.5-6.7-7.3-9.6c-2,1.2-3.8,2.5-5.7,3.8
			C743.5,855.7,742.8,854.7,742,853.7z"/>
		<path class="st1" d="M720.3,866.4c0.7-0.3,2.1-1,2.8-1.4c12.1,9.9,24.5,19.4,36.7,29.1c2,1.9,4.5,0.4,6.8-0.1c0.5,1,1,2,1.5,3
			c-6,3.3-12,6.8-18,10.3c-0.7-1.1-1.3-2.1-2-3.2c2-1.2,4-2.5,5.8-4c-2.8-3-6-5.5-9.2-8c-5.2,2.9-10.3,5.9-15.4,8.8
			c0.8,3.8,0.2,9.2,4.4,11.1c1.6-0.8,3.2-1.6,4.9-2.5c0.7,1.1,1.3,2.2,2,3.3c-5.3,2.9-10.4,6.1-15.7,8.9c-0.6-1-1.2-2-1.8-2.9
			c2.7-1.7,4.7-4.4,3.9-7.8C724.8,896.1,722.4,881.3,720.3,866.4 M725.8,877c0.9,6.5,1.7,13.1,2.8,19.6c4.3-2.5,8.6-4.9,12.9-7.4
			C736.4,885,731,881.1,725.8,877z"/>
		<path class="st1" d="M322.7,882.3c0.5-1.1,1.1-2.1,1.6-3.2c4.1,1.9,8.2,3.8,12.4,5.7c3,14.6,6,29.2,9.2,43.7
			c3.4-6.9,6.4-14.1,9.7-21.1c0.9-2.1,1.9-4.2,2-6.5c-0.1-2.9-3.3-4-5.2-5.5c0.2-0.8,0.6-2.3,0.8-3.1c6.1,2.5,12,5.3,18,8
			c-0.4,1-0.8,2-1.2,3.1c-3.3-1.6-7.5-1.2-9,2.5c-6.1,12.4-11.3,25.3-17.4,37.7c-0.7-0.4-2-1.1-2.7-1.4c-3.4-16.4-7-32.7-10.3-49.1
			c-4,8.2-7.5,16.7-11.4,25c-1.1,2.1-1.5,4.5-1.6,6.9c1.7,1.5,3.4,2.9,5.3,4.2c-0.3,0.8-0.9,2.2-1.2,3c-5.9-2.6-11.6-5.4-17.6-7.9
			c0.4-1.1,0.8-2.2,1.2-3.2c2.6,0.7,6.3,2,8.1-0.9c4.1-6.8,6.7-14.4,10.2-21.6c1.6-4.2,4.5-8.1,4.9-12.6
			C326.7,884.4,324.6,883.4,322.7,882.3z"/>
		<path class="st1" d="M641.9,903.6c12.4-5,24.8-9.8,37.2-14.7c2.5,5.4,5,10.8,7.5,16.2c-1.1,0.4-2.2,0.7-3.3,1.1
			c-2.7-3.9-5.6-9.3-11-9.5c-5.2,0.5-10.3,2.4-14.7,5.1c1.8,5.7,4.1,11.2,6.4,16.8c3.2-1.5,7-3.6,7.5-7.5c-0.2-1.9-0.6-3.7-1-5.5
			c1-0.3,2.1-0.6,3.1-0.8c2.8,6.7,5.2,13.5,8,20.1c-0.7,0.4-2,1.1-2.7,1.5c-1.6-2-3-4.4-5.2-5.8c-2.8-1.4-5.8,0-8.4,1.1
			c2.1,5.5,4.3,11,6.5,16.5c0.6,2.6,3.6,1.6,5.3,0.9c4.5-1.9,9.5-3.6,12.7-7.5c2.5-4.4,0.6-9.5,0.3-14.1c0.6-0.4,1.8-1.2,2.3-1.6
			c2.3,6.1,4.2,12.3,6.3,18.5c-12.9,5-25.8,10.2-38.7,15.2c-0.5-1.1-1-2.2-1.4-3.4c2.1-0.8,4.2-1.8,6.3-2.9
			c-3.2-9.5-7.3-18.7-10.8-28.1c-1.4-3.5-2.6-7.2-4.7-10.4c-2.1,0.8-4.2,1.6-6.3,2.4C642.6,906,642.3,904.8,641.9,903.6z"/>
		<path class="st1" d="M371.8,900.4c13.2,3.7,26.4,7.6,39.6,11.2c-1.6,6.2-3,12.4-4.2,18.7c-0.8-0.1-2.4-0.4-3.1-0.6
			c0.7-3.8,0.8-7.7,0.5-11.5c-0.5-4.5-5.2-7.7-9.5-7.5c-1.8,2.3-2.1,5.4-2.9,8.1c-2.6,9.1-5.1,18.3-7.8,27.4
			c-0.5,1.6-0.6,3.2-0.8,4.8c2.3,0.8,4.7,1.5,7.1,2.2c-0.4,1.2-0.8,2.3-1.2,3.5c-7.6-2.1-15.2-4.2-22.7-6.5c0.4-1.1,0.8-2.3,1.2-3.4
			c2.2,0.6,4.5,1.2,6.8,1.8c2.3-3.3,2.8-7.3,3.9-11c2.8-9.8,5.9-19.6,8.1-29.6c-3.2-1.1-6.9-2.5-10-0.5c-4.3,2.7-5.4,8-8.2,11.8
			c-0.7-0.1-2.1-0.2-2.8-0.3C367.6,912.8,369.5,906.5,371.8,900.4z"/>
		<path class="st1" d="M618.8,909.9c7.1-1.8,14.1-4.2,21.3-5.9c0.3,1.1,0.6,2.3,0.9,3.4c-2.2,0.7-4.3,1.4-6.4,2.3
			c1,6.5,3.3,12.7,5,19c2,6.6,3.4,13.5,6,19.9c2,1.5,4.6-0.4,6.9-0.5c0.2,0.9,0.7,2.6,1,3.4c-7.2,2.1-14.4,4-21.6,6
			c-0.1-0.9-0.5-2.6-0.6-3.4c2.2-0.9,4.4-1.6,6.4-2.8c-1.6-6.3-3.4-12.5-5.2-18.7c-7.2,2.1-14.4,4.1-21.6,6.2
			c2.3,6.3,3.1,13.3,6.4,19.2c2-0.6,4-1.2,5.9-1.8c0.4,1.2,0.8,2.4,1.2,3.7c-7.1,1.9-14.2,4.1-21.3,6.1c-0.4-1.2-0.8-2.4-1.2-3.5
			c2.3-0.6,4.7-1.4,6.6-2.9c-3.9-13.1-7-26.4-11.5-39.2c-2.2,0.5-4.3,1-6.4,1.6c-0.3-1.2-0.7-2.3-1-3.5c7-2.1,14.1-3.8,21.1-6.1
			c0.4,1.1,0.7,2.2,1.1,3.4c-2.2,0.8-4.3,1.6-6.5,2.5c1,5.8,3.1,11.3,4.6,16.9c7-2.3,14.3-4.1,21.4-6.2c-1.6-5.7-2.9-11.5-5.2-16.9
			c-2.2,0.5-4.4,1.1-6.5,1.7C619.3,912.3,619.1,911.1,618.8,909.9z"/>
	</g>
	<g id="_x23_fbfeffff">
		<path class="st1" d="M448.2,53c15-1.1,30-2.5,45-3.5c1.2,6.3,1.3,12.8,2.6,19.1c-1.1,0.4-2.2,0.9-3.4,1.3
			c-1.9-4.6-2.7-10.2-7-13.3c-4.7-2.6-10.4-1.9-15.6-1.4c-1.7,0.3-4.2,0.6-4.2,2.8c0.3,6.1,0.9,12.1,1.5,18.2c3.2-0.2,6.7-0.7,9-3.1
			c1.9-2.4,2-5.5,2.6-8.4c0.8,0,2.4,0,3.3,0c0.7,8.2,1.1,16.4,2.1,24.5c-1,0-2.9,0-3.9,0c-0.6-2.5-0.9-5.3-3.1-7
			c-2.5-2.6-6.3-2.4-9.6-2.4c0.3,6.8,0.8,13.7,1.6,20.5c0,2.5,3.1,2.8,5,2.5c5.4-0.6,11.3-0.5,16-3.7c4.5-3.8,4.3-10.2,5.4-15.5
			c1.1-0.2,2.2-0.4,3.3-0.5c-0.1,7.1,0.3,14.3,0.6,21.4c-15.6,1.3-31.3,2.4-47,3.7c0-1.3,0-2.7,0-4c2.5-0.5,5.9,0.3,7.6-2.2
			c-1.2-15.1-1.7-30.3-3.7-45.3c-2.5-0.2-5,0-7.5,0.2C448.6,55.7,448.4,54.3,448.2,53z"/>
		<path class="st1" d="M548,922.6c13.6-1.8,27.2-3.2,40.8-5.2c1.3,6.4,2.2,12.8,3.5,19.2c-0.8,0-2.2,0.1-3,0.1
			c-1.3-4.1-2.6-8.3-5-11.9c-2.8-3.3-7.6-3.3-11.4-1.9c0.9,8.4,2.3,16.7,3,25.1c1,5.5,1,11.1,2.7,16.5c2.4-0.1,4.8-0.3,7.2-0.3
			c0.1,0.8,0.4,2.5,0.6,3.3c-7.8,1.1-15.6,2.2-23.4,3c-0.2-0.9-0.4-2.6-0.6-3.5c2.6-0.4,5.1-0.9,7.7-1.5c-0.6-10-2.5-19.8-3.6-29.8
			c-0.7-3.9-0.5-8.1-2.2-11.8c-3.5-0.2-7.6,0.8-9.4,4.1c-2.2,4.2-2.2,9-2.4,13.6c-1,0-2,0-3,0C549.2,935.3,548.5,928.9,548,922.6z"
			/>
	</g>
	<g id="_x23_0e2538ff">
		<path class="st3" d="M359.2,88c5.1,5.7,9.9,11.6,15,17.1c-5.4,1.8-10.8,3.7-16.2,5.4C358.4,103,358.8,95.5,359.2,88z"/>
	</g>
	<g id="_x23_d3d5d2ff">
		<path class="st4" d="M513.6,239.9c10.8,32.6,21.3,65.3,31.9,98c0.8,2.4,1.6,4.7,2.4,7.1c1.1,3.4,2.1,6.7,3.2,10.1
			c0.5,1.4,1,2.8,1.5,4.2c3.6,11.6,7.4,23.1,11.1,34.6c0.5,1.4,0.9,2.8,1.4,4.2c4.5,13.7,8.9,27.5,13.4,41.1
			c0.4,1.4,0.9,2.7,1.3,4.1c4.3,13.2,8.6,26.4,12.8,39.6c0.5,1.4,0.9,2.8,1.4,4.2c2.4,7.8,5.1,15.4,7.4,23.1l-0.4,1.6l0.8-0.7
			c1.2,3.8,2.6,7.5,3.9,11.3c2.1,7.8,4.9,15.5,7.4,23.2c0.5,1.6,1,3.3,1.6,4.9c1,3.3,2.1,6.6,3.2,9.8c-22.4,13.3-44.5,27-67.1,39.9
			c-7.8-10.2-16.7-19.5-25.1-29.2c-3.8-4.5-7.8-8.8-11.8-13.1l-0.4-0.5c-0.5-24.9-0.1-49.7-0.2-74.6c0-73.6,0-147.3,0-221
			c0-5.8,0.5-11.7-1.2-17.4l-0.1-0.5C512.6,242.8,513,241.3,513.6,239.9z"/>
		<path class="st4" d="M601.4,582.4c6.6-3.8,12.8-8.3,19.8-11.4c3.5,10.3,6.6,20.7,10.2,30.9c0.8,2.8,1.6,5.5,2.4,8.3l1.3-0.2
			l-1.9,0.5l1.1,0.6c2.2,7.3,4.6,14.6,7,21.9c0.5,1.6,1,3.2,1.5,4.7c11.3,34.8,22.8,69.5,33.8,104.4c-3.7-2.7-6.8-5.9-9.6-9.4
			c-33.5-38.2-66.9-76.4-100.3-114.6c-3.2-3.8-6.5-7.5-10.2-10.7C571.9,599.7,586.8,591.3,601.4,582.4z"/>
	</g>
	<g id="_x23_fbfffeff">
		<path class="st1" d="M96.9,306.8c1.2,0.6,2.4,1.2,3.6,1.8c-0.7,2.6-4.3,6.8-0.5,8.6c13,5.9,25.9,12,39.1,17.5
			c3-0.6,3.3-4.5,4.7-6.7c1.3,0.6,2.5,1.2,3.8,1.8c-3.7,7.6-7,15.5-10.6,23.1c-1.2-0.6-2.4-1.2-3.7-1.7c1-2.6,2.6-5.1,2.2-8
			c-13.9-6.1-27.5-12.9-41.6-18.5c-1.5,2.1-2.6,4.5-3.7,6.9c-1.2-0.5-2.5-1-3.7-1.6C89.9,322.2,93.4,314.5,96.9,306.8z"/>
		<path class="st1" d="M450.6,919.5c7.6-1.6,16.2,0.5,21.5,6.4c9.5,10.2,8.7,27.6-0.5,37.7c-8.1,9.1-23.7,9.6-32.4,1.1
			C425,952,431.2,923.3,450.6,919.5 M451.4,923.4c-5.4,2.3-8,8.1-9.2,13.5c-1.6,7.7-3.1,16.2,0.5,23.6c3.8,8.2,17.4,9.1,21.9,1
			c5-8.5,5.9-19,4.5-28.5C468,925,458.5,920.5,451.4,923.4z"/>
	</g>
	<g id="_x23_fefefdff">
		<path class="st5" d="M642.2,334c16.2-1.6,32.7-2,48.9-0.2c14.8,1.9,30.1,5.7,42,15.2c9.9,7.9,15.7,20.4,15.6,33
			c0.8,17-5.2,33.4-12,48.7c-3.9,8.2-8.1,16.4-12.9,24.2c-0.6,1.2-2.1,1.6-3.2,2.2c6.7-12.5,13.6-24.9,17.8-38.5
			c4.7-13.5,7.5-28.4,3.9-42.5c-2.7-11.1-10.4-20.5-20.1-26.3c-12.7-7.6-27.7-10.3-42.2-11.2c-11-1-22.1-0.1-33.1,1
			c-19.9,2.2-39.8,6.1-58.9,12c-3.4-1.2-6.6-2.5-9.8-4.2C598.8,340.2,620.5,336.3,642.2,334z"/>
	</g>
	<g id="_x23_aaaba6ff">
		<path class="st6" d="M351.5,437.6c24-51.6,74.1-90.5,130.4-99.6c-0.5,1.5-0.9,3-1.4,4.5c-5.9,1.1-11.8,2.6-17.5,4.4
			c4.1,3.4,8.6,6.3,13.3,8.9c-0.3,1.3-0.6,2.6-0.9,3.9l-0.7-1.3l-0.1,0.5c-4.4,4.1-7.4,9.3-10.7,14.2c-3.8,5.8-7.1,11.9-10.5,17.9
			c3.4,1.1,6.8,2.2,10.3,3.2c-0.5,1.5-1,2.9-1.5,4.3c-3.6-1.2-7.1-2.4-10.7-3.7c-6.6,13.1-11.9,27-16.2,41c4.5,1.4,9,2.6,13.6,3.6
			c-0.5,1.5-0.9,2.9-1.4,4.4c-4.5-1.1-9-2.4-13.4-3.6c-3.8,13.6-6.4,27.4-8.2,41.4c3,0.6,5.9,1.1,8.9,1.6c-0.5,1.5-1,2.9-1.5,4.4
			c-2.6-0.6-5.2-1.2-7.8-1.8c-0.9,9.3-2.2,18.6-0.8,27.9c-1,5-2.8,9.7-4.6,14.4c-0.2-3.8-0.5-7.6-0.6-11.4c-14.9,0-29.9,0-44.8,0
			c0.4,13.5,1.6,27,4.6,40.2c11.5-4.5,23.3-8.3,35.3-11.5c-0.5,2.2-1.3,4.2-2.1,6.3l-0.5-0.2c-1.7-0.6-3.4,0.1-5,0.4
			c-9,2.9-18,5.8-26.8,9.2c3.6,14.5,8.4,28.7,15.4,41.9l-0.3,0.7l1-0.4c-0.9,2.2-1.8,4.3-2.7,6.5l0.3,0.1l-0.3,0.2
			c-6.2,3.4-12,7.4-17.5,11.8c3.1,3.9,6.4,7.8,10,11.4c-0.5,1.5-1.1,3-1.7,4.5c-34.3-34.6-52.4-84.2-49.5-132.7c0.7-4,1.1-8,1.1-12
			C337.5,473.9,343.3,455.1,351.5,437.6 M442.5,354.4c-9.3,4.2-18.3,9-26.7,14.8c3.1,2.4,6.2,4.8,9.4,7.2
			c10.3-10.6,22.2-19.5,34.3-28.1C453.5,349.4,448,352,442.5,354.4 M429.1,378.9c6.4,4,13.2,7.4,20.2,10.3
			c6.1-11.1,12.5-22,20.2-32.1c-2.3-1.6-4.6-3.3-6.9-5C450.3,359.5,439.2,368.7,429.1,378.9 M376.1,406.1c5.6,4.8,12,8.8,18.3,12.7
			c7.7-14.1,17.1-27.3,27.9-39.2c-3.5-2.5-6.9-5.1-10.2-7.8C398.5,381.5,386.3,393,376.1,406.1 M398.2,420.7
			c10.5,5.7,21.6,10.4,33.1,13.8c4-14.3,9.7-27.9,16-41.3c-7.3-3.3-14.6-6.7-21.3-11C415.2,393.8,406,406.8,398.2,420.7
			 M373.3,409.6c-9.6,13.1-17.7,27.4-23.3,42.8c8.6,4.8,17.3,9.3,26.4,13.1c3.8-14.8,9-29.3,16-42.9
			C385.7,418.8,379.4,414.4,373.3,409.6 M396.3,424.8c-7.1,13.4-12.1,27.7-15.8,42.3c13.4,5.4,27.2,9.8,41.3,13.1
			c1.8-14,4.4-27.9,8.2-41.4C418.5,435,407.1,430.5,396.3,424.8 M348.3,456.7c-6.1,17.9-9.4,36.8-9.7,55.8c10.6,0,21.2,0,31.8,0
			c0.5-14.3,1.8-28.7,5.1-42.6C366.1,466.1,357.2,461.3,348.3,456.7 M379.4,471.5c-2.8,13.5-4.4,27.2-4.5,41c14.9,0,29.8,0,44.7,0
			c0.4-9.3,0.8-18.6,1.8-27.8C407,481.3,393,476.8,379.4,471.5 M338.5,516.6c0.5,18.8,3.8,37.4,9.8,55.2c8.6-4.9,17.5-9.4,26.8-13.1
			c-3-13.8-4.3-27.9-4.7-42C359.8,516.5,349.1,516.5,338.5,516.6 M350,576c5.8,15.1,13.6,29.5,23.3,42.5c5.9-4.6,12.2-8.8,18.7-12.7
			c-7.1-13.6-12.2-28.1-15.8-42.9C367.2,566.7,358.4,571,350,576z"/>
		<path class="st6" d="M545.5,337.9c11.1,2.1,22.3,4.7,32.6,9.4c3.1,1.7,6.4,3,9.8,4.2c14.6,5.9,27.8,14.8,39.9,24.7
			c40.3,33.1,65.1,84.8,64.5,137.1c0.8,45.8-17.6,91.5-49.4,124.5c-0.5-1.6-1-3.2-1.5-4.7c3.1-3.5,6.1-7,9.2-10.6
			c-5.1-4.2-10.3-8.2-16.2-11.3l-1.1-0.6l1.9-0.5l-1.3,0.2c-0.8-2.8-1.7-5.5-2.4-8.3c6.2-13,11.1-26.5,14.5-40.4
			c-0.7-0.4-2.1-1.3-2.9-1.8c2.9-1.7,5.8-3.4,8.7-5.2c-0.2,1.4-0.4,2.8-0.6,4.1c9.3,4,18.4,8.5,27.2,13.5c6-17.9,9.6-36.7,9.8-55.7
			c-10.8,0-21.6,0-32.4,0c-0.2,3.3-0.4,6.6-0.5,9.9c-1.4,1.4-2.8,2.8-4.2,4.2c0.1-4.7,0.3-9.4,0.3-14.1c-15,0-30.1,0-45.1,0
			c-0.2,2-0.4,4-0.5,6c-1.3-3.8-2.7-7.5-3.9-11.3l-0.8,0.7l0.4-1.6c1.2-8.2-0.5-16.4-1-24.6c-2.2,0.5-4.3,1-6.5,1.5
			c-0.5-1.4-0.9-2.8-1.4-4.2c2.5-0.5,4.9-1,7.4-1.5c-1.5-14-4.4-27.8-8.1-41.3c-4,1.1-8.1,2.1-12.1,3.2c-0.4-1.4-0.9-2.7-1.3-4.1
			c4.1-1,8.2-2.1,12.3-3.2c-4.4-14-9.5-27.9-16.2-41c-3.2,1-6.4,2.1-9.6,3.1c-0.5-1.4-0.9-2.8-1.4-4.2c3-0.9,6-1.9,8.9-2.8
			c-5.8-11.1-12.4-21.8-20-31.8c-0.5-1.4-1-2.8-1.5-4.2c4.3-2.6,8.5-5.4,12.4-8.5c-5.4-1.5-10.9-2.9-16.4-4.1
			c0.2,0.6,0.6,1.9,0.8,2.6C547.1,342.6,546.3,340.3,545.5,337.9 M567.1,348c1.1,1.2,2,2.6,3.4,3.5c11.1,7.2,21.3,15.8,30.4,25.4
			c3.4-2.4,6.8-4.9,10.1-7.5C597.6,360.1,582.8,352.6,567.1,348 M556.6,357c7.5,10.3,14.3,21.1,20.2,32.5c7.1-2.9,14-6.3,20.6-10.4
			c-10.2-10.1-21.5-19.2-33.5-27C561.4,353.7,559,355.4,556.6,357 M604.2,380c10.7,12,20.1,25,27.7,39.1c6.7-3.7,13-8.1,19-12.9
			c-10.2-13.2-22.6-24.6-36-34.5C611.4,374.6,607.8,377.3,604.2,380 M578.9,393.4c6.3,13.4,11.9,27.2,16.1,41.4
			c11.4-3.5,22.5-8,33-13.6c-7.6-14-16.8-27.2-27.7-38.7C593.5,386.8,586.3,390.3,578.9,393.4 M633.9,423.1
			c6.9,13.5,12.2,27.9,15.8,42.6c9.3-4,18.4-8.5,27.1-13.6c-5.8-15.1-13.6-29.3-23.2-42.3C647.3,414.6,640.8,419.1,633.9,423.1
			 M596.1,439c4,13.6,6.2,27.5,8.5,41.4c14-3.4,27.8-7.8,41.2-13c-3.6-14.6-8.9-28.7-15.5-42.2C619.2,430.7,607.8,435.4,596.1,439
			 M650.8,470c2.7,13.9,4.9,28,4.5,42.3c10.9,0.5,21.9,0.1,32.8,0.2c0-19.1-3.6-38.1-9.7-56.1C669.5,461.5,660.3,466,650.8,470
			 M604.9,484.8c0.8,9.2,1.5,18.4,1.3,27.6c15.1,0,30.1,0,45.2,0c0-13.7-1.8-27.3-4.7-40.6C633,476.9,619.1,481.4,604.9,484.8
			 M650,563.1c-3.7,14.8-9,29.1-15.6,42.8c6.6,3.8,13,8,18.9,12.8c9.7-12.9,17.5-27.2,23.4-42.2C668.2,571.4,659.2,566.9,650,563.1z
			"/>
	</g>
	<g id="_x23_2e5790ff">
		<path class="st7" d="M463,346.9c5.7-1.9,11.6-3.3,17.5-4.4c-1.5,4.4-3.1,8.8-4.2,13.3C471.6,353.2,467.1,350.2,463,346.9z"/>
	</g>
	<g id="_x23_2c588fff">
		<path class="st7" d="M547.1,342.5c5.5,1.2,11,2.6,16.4,4.1c-3.9,3.1-8.1,5.9-12.4,8.5c-1.1-3.4-2.1-6.8-3.2-10.1
			C547.7,344.4,547.3,343.1,547.1,342.5z"/>
		<path class="st8" d="M464,373c3.2-5,6.3-10.2,10.7-14.2c-2.9,12-7.6,23.4-10.9,35.3c-3.5-1-6.9-2.1-10.3-3.2
			C456.9,384.8,460.2,378.8,464,373z"/>
		<path class="st7" d="M425.6,485.6c2.6,0.6,5.2,1.2,7.8,1.8c-3.1,8.6-5.6,17.5-8.7,26.1C423.4,504.2,424.7,494.9,425.6,485.6z"/>
		<path class="st7" d="M564.2,663.1c3.3,2.5,6.7,4.9,10,7.4c-3.3,2.2-6.7,4.4-10,6.6c-2.2-1.5-4.3-3.1-6.5-4.6
			C559.9,669.3,562.1,666.2,564.2,663.1z"/>
	</g>
	<g id="_x23_2c5890ff">
		<path class="st7" d="M567.1,348c15.7,4.6,30.5,12.1,44,21.3c-3.3,2.6-6.7,5.1-10.1,7.5c-9.1-9.6-19.3-18.2-30.4-25.4
			C569.1,350.6,568.2,349.2,567.1,348z"/>
		<path class="st7" d="M442.5,354.4c5.5-2.4,11-5,17-6c-12,8.6-23.9,17.4-34.3,28.1c-3.2-2.4-6.3-4.8-9.4-7.2
			C424.2,363.4,433.3,358.6,442.5,354.4z"/>
		<path class="st9" d="M552.6,359.4c7.6,10,14.3,20.6,20,31.8c-3,1-5.9,1.9-8.9,2.8C560,382.4,556.2,370.9,552.6,359.4z"/>
		<path class="st7" d="M376,622c5.5-4.4,11.3-8.4,17.5-11.8c-2.9,7.6-5,15.5-7.6,23.2C382.4,629.7,379.1,625.9,376,622z"/>
		<path class="st7" d="M452.5,670.9c3.2-2.6,6.5-4.9,9.9-7.2c1.8,2.8,3.7,5.5,5.6,8.2c-2.2,1.6-4.5,3.2-6.7,4.9
			C458.4,674.8,455.5,672.9,452.5,670.9z"/>
	</g>
	<g id="_x23_2d588fff">
		<path class="st7" d="M556.6,357c2.4-1.6,4.8-3.3,7.3-4.9c12.1,7.9,23.3,16.9,33.5,27c-6.5,4.1-13.5,7.4-20.6,10.4
			C570.9,378.1,564.1,367.3,556.6,357z"/>
		<path class="st7" d="M429.1,378.9c10.1-10.2,21.2-19.4,33.5-26.7c2.3,1.7,4.6,3.3,6.9,5c-7.7,10.1-14.1,21-20.2,32.1
			C442.4,386.3,435.6,382.9,429.1,378.9z"/>
		<path class="st7" d="M376.1,406.1c10.2-13.1,22.4-24.6,35.9-34.3c3.3,2.7,6.7,5.3,10.2,7.8c-10.7,12-20.2,25.1-27.9,39.2
			C388.1,414.9,381.8,411,376.1,406.1z"/>
		<path class="st7" d="M604.2,380c3.6-2.7,7.2-5.4,10.7-8.2c13.4,9.9,25.8,21.3,36,34.5c-6,4.8-12.3,9.1-19,12.9
			C624.3,405,614.9,392,604.2,380z"/>
		<path class="st7" d="M398.2,420.7c7.8-13.9,17-26.9,27.8-38.6c6.8,4.3,14,7.8,21.3,11c-6.3,13.4-12,27.1-16,41.3
			C419.9,431.1,408.8,426.4,398.2,420.7z"/>
		<path class="st7" d="M578.9,393.4c7.4-3.1,14.6-6.6,21.4-10.9c10.9,11.6,20.2,24.7,27.7,38.7c-10.5,5.6-21.7,10-33,13.6
			C590.7,420.6,585.2,406.8,578.9,393.4z"/>
		<path class="st7" d="M435.4,435.7c4.4-14,9.6-27.9,16.2-41c3.5,1.3,7.1,2.5,10.7,3.7c-4.6,13.6-9,27.2-13.3,40.9
			C444.4,438.3,439.8,437.1,435.4,435.7z"/>
		<path class="st7" d="M565.1,398.2c3.2-1,6.4-2.1,9.6-3.1c6.7,13.1,11.7,27,16.2,41c-4.1,1.1-8.2,2.2-12.3,3.2
			C574,425.6,569.6,411.9,565.1,398.2z"/>
		<path class="st7" d="M373.3,409.6c6.1,4.8,12.4,9.1,19.1,13c-7,13.6-12.3,28.1-16,42.9c-9.1-3.8-17.8-8.3-26.4-13.1
			C355.5,437.1,363.7,422.8,373.3,409.6z"/>
		<path class="st7" d="M633.9,423.1c6.9-4,13.4-8.5,19.7-13.3c9.6,13,17.4,27.2,23.2,42.3c-8.7,5.1-17.8,9.6-27.1,13.6
			C646.1,451,640.8,436.6,633.9,423.1z"/>
		<path class="st7" d="M396.3,424.8c10.8,5.6,22.2,10.1,33.7,14c-3.8,13.6-6.4,27.4-8.2,41.4c-14.1-3.3-27.9-7.7-41.3-13.1
			C384.2,452.5,389.2,438.2,396.3,424.8z"/>
		<path class="st7" d="M596.1,439c11.8-3.6,23.1-8.3,34.1-13.8c6.6,13.5,11.9,27.6,15.5,42.2c-13.4,5.2-27.2,9.6-41.2,13
			C602.3,466.5,600.1,452.5,596.1,439z"/>
		<path class="st7" d="M434.2,440c4.5,1.3,8.9,2.5,13.4,3.6c-4.4,13.1-8.7,26.2-12.8,39.4c-3-0.5-5.9-1.1-8.9-1.6
			C427.8,467.4,430.4,453.6,434.2,440z"/>
		<path class="st7" d="M579.8,443.4c4-1,8.1-2.1,12.1-3.2c3.7,13.5,6.6,27.4,8.1,41.3c-2.5,0.5-4.9,1-7.4,1.5
			C588.4,469.8,584.1,456.6,579.8,443.4z"/>
		<path class="st7" d="M348.3,456.7c9,4.6,17.8,9.4,27.2,13.1c-3.3,14-4.5,28.3-5.1,42.6c-10.6,0-21.2,0-31.8,0
			C338.9,493.5,342.1,474.6,348.3,456.7z"/>
		<path class="st7" d="M650.8,470c9.5-4,18.7-8.5,27.6-13.7c6.1,18.1,9.7,37,9.7,56.1c-10.9-0.1-21.9,0.3-32.8-0.2
			C655.8,498,653.5,483.9,650.8,470z"/>
		<path class="st7" d="M379.4,471.5c13.7,5.3,27.7,9.8,42,13.1c-1,9.2-1.4,18.5-1.8,27.8c-14.9,0-29.8,0-44.7,0
			C375,498.7,376.5,485,379.4,471.5z"/>
		<path class="st7" d="M604.9,484.8c14.2-3.4,28.1-7.9,41.8-13c2.8,13.4,4.6,27,4.7,40.6c-15.1,0-30.1,0-45.2,0
			C606.3,503.2,605.7,494,604.9,484.8z"/>
		<path class="st7" d="M655.8,516.5c10.8,0.1,21.6,0,32.4,0c-0.2,19-3.8,37.7-9.8,55.7c-8.8-5-17.9-9.6-27.2-13.5
			c0.2-1.4,0.4-2.8,0.6-4.1c8.1-5.3,16.4-10.8,22.5-18.4c2.6-3.6,5-8.3,3.2-12.7c-1.2-3.5-4.8-6.4-8.5-5.9
			c-5.5,1.1-9.7,5.2-13.7,8.9C655.3,523.1,655.5,519.8,655.8,516.5z"/>
		<path class="st7" d="M338.5,516.6c10.6,0,21.2,0,31.9,0c0.4,14.1,1.7,28.2,4.7,42c-9.2,3.7-18.1,8.2-26.8,13.1
			C342.3,554,339,535.3,338.5,516.6z"/>
		<path class="st7" d="M374.7,516.6c14.9,0,29.9,0,44.8,0c0.1,3.8,0.5,7.6,0.6,11.4c-1.9,5.8-3.7,11.6-5.6,17.3
			c-12,3.2-23.8,7-35.3,11.5C376.2,543.6,375.1,530.1,374.7,516.6z"/>
		<path class="st7" d="M606.2,516.5c15,0,30.1,0,45.1,0c-0.1,4.7-0.2,9.4-0.3,14.1c-6.9,6.8-13.4,13.9-20.7,20.2
			c-5.7-1.7-11.4-3.5-17.2-5.1c-2.5-7.7-5.2-15.4-7.4-23.2C605.9,520.6,606.1,518.5,606.2,516.5z"/>
		<path class="st7" d="M406.9,551.9c1.6-0.3,3.4-1,5-0.4l0.5,0.2c-5.8,17.1-10.9,34.4-17,51.4c-7-13.2-11.8-27.5-15.4-41.9
			C389,557.7,397.9,554.7,406.9,551.9z"/>
		<path class="st7" d="M621.2,571c7.4-3.4,14.7-7.3,21.8-11.3c0.7,0.4,2.1,1.3,2.9,1.8c-3.4,13.9-8.3,27.5-14.5,40.4
			C627.9,591.7,624.8,581.3,621.2,571z"/>
		<path class="st7" d="M350,576c8.4-4.9,17.2-9.3,26.2-13.1c3.6,14.8,8.7,29.4,15.8,42.9c-6.5,3.8-12.7,8-18.7,12.7
			C363.6,605.4,355.7,591.1,350,576z"/>
		<path class="st7" d="M650,563.1c9.2,3.8,18.1,8.3,26.7,13.4c-6,15-13.7,29.3-23.4,42.2c-5.9-4.8-12.3-9.1-18.9-12.8
			C641,592.2,646.3,577.9,650,563.1z"/>
		<path class="st7" d="M515.3,627.5c7.5,5.2,14.7,10.8,22.2,16c-1.9,6.1-4.2,12.1-6.9,17.9c-5.1-0.9-10.3-1.5-15.4-1.8
			C515.2,649,515,638.3,515.3,627.5z"/>
		<path class="st7" d="M504.3,632.7c2.2-1.1,4.4-2.2,6.7-3.2c0.2,10.1,0,20.2,0.1,30.3c-5.3,0.1-10.5,0.7-15.7,1.6
			c-2.5-5.6-4.6-11.2-6.7-17C494,640.6,499.2,636.8,504.3,632.7z"/>
		<path class="st7" d="M484.8,647.3c2.5,4.8,3.9,10,6.1,14.9c-6.6,1.8-12.9,4.4-19,7.5c-2-2.9-4-5.8-6-8.7
			C472.2,656.6,478.4,651.7,484.8,647.3z"/>
		<path class="st7" d="M535.1,662.4c2.1-5.3,4.4-10.6,6.2-16.1c6.3,4.9,12.9,9.5,19.4,14.2c-2.2,3.2-4.5,6.4-6.8,9.6
			C547.9,666.9,541.6,664.4,535.1,662.4z"/>
		<path class="st7" d="M462.9,681.3c27.9-23.2,72.2-23.2,99.9,0.3C530.4,691.4,495.1,691.2,462.9,681.3z"/>
		<path class="st7" d="M567.7,680.2c3.4-2.4,6.8-4.7,10.2-7.1c1,0.7,2,1.5,3,2.2C576.6,677,572.2,678.7,567.7,680.2z"/>
		<path class="st7" d="M448.4,673.4c2.9,1.9,5.7,3.8,8.5,5.9c-3.5-1.1-6.8-2.4-10.2-3.7C447,675.1,447.9,674,448.4,673.4z"/>
	</g>
	<g id="_x23_fcfffeff">
		<path class="st1" d="M267.4,405.5c-1.7-2.2-1.2-4.8,0.5-6.8c2.9-0.1,5,1.8,4.9,4.8c-0.4,0.5-1.3,1.4-1.8,1.9
			C270.2,405.5,268.3,405.5,267.4,405.5z"/>
	</g>
	<g id="_x23_fafdfeff">
		<path class="st1" d="M206.6,427.1c2.2,0.1,5.3,0.9,4.6,3.9c0.1,2.6-2.8,2.6-4.7,2.9c-0.4-0.5-1.2-1.4-1.6-1.8c0-0.8,0-2.3,0-3.1
			C205.3,428.5,206.1,427.6,206.6,427.1z"/>
	</g>
	<g id="_x23_fcfdfcff">
		<path class="st1" d="M180.1,440c0.2-1.5-0.1-3.8,1.9-4.3c2.4-1.3,3.9,1.4,4.5,3.3c-1,0.9-2.1,1.7-3.1,2.6
			C182.6,441.2,181,440.5,180.1,440z"/>
	</g>
	<g id="_x23_fcfcfcff">
		<path class="st1" d="M243.8,440c1.1-1.2,2.1-4,4.2-3c3.2,0.2,3.1,5.6-0.2,5.8C245.9,443.5,245,441,243.8,440z"/>
	</g>
	<g id="_x23_fafdfdff">
		<path class="st1" d="M285.2,447.9c0.2-1.6,0.4-3.2,1.8-4.2c1.6-0.3,3,0.5,4.4,1.1c0,0.8-0.1,2.5-0.1,3.3c-0.4,0.4-1.2,1.2-1.7,1.6
			c-0.7,0-2,0-2.6-0.1C286.5,449.2,285.6,448.4,285.2,447.9z"/>
	</g>
	<g id="_x23_f9fdfbff">
		<path class="st1" d="M204.9,447.5c1.6-0.2,3.3-0.3,4.9-0.1c-0.1,1.6-0.3,3.2-0.5,4.9c-1.5-0.2-2.9-0.5-4.4-0.8
			C204.9,450.4,204.9,448.5,204.9,447.5z"/>
	</g>
	<g id="_x23_fbfdfeff">
		<path class="st1" d="M214.4,457.3c1.5-1.5,4.3-2.9,5.8-0.7c2.2,1.8,0.5,6-2.3,5.8c-1.5,0.3-2.4-1.1-3.6-1.7
			C214.4,459.5,214.4,458.4,214.4,457.3z"/>
		<path class="st1" d="M827,570.7c-4.1,0-4.6-6.5-1-7.8c2.8-1.5,5.3,1.2,6.3,3.6C831.4,568.7,829.8,571.3,827,570.7z"/>
		<path class="st1" d="M747.7,590.7c1.1-1.8,2.5-3.4,4.4-4.5c1.6,0.9,4,1.5,4.3,3.7c0.6,2-0.9,3.5-2.1,4.9c-0.9,0-2.6,0.1-3.5,0.1
			C749.7,593.6,748.6,592.2,747.7,590.7z"/>
	</g>
	<g id="_x23_fbfdfdff">
		<path class="st1" d="M264.4,476.1c-0.2-2.4,3.3-4.2,5.1-2.5c1.6,0.7,1.1,2.8,1.6,4.1c-1.3,0.7-2.6,1.4-3.8,2.1
			C266.1,478.8,263.9,478.1,264.4,476.1z"/>
		<path class="st1" d="M724,590c1.1-1.7,2.5-4,4.9-3.1c3.1,0.5,3.5,6.2,0.1,6.5C726.3,594.4,725.1,591.7,724,590z"/>
		<path class="st1" d="M609.1,802.4c4-1.5,8.1-2.9,12.2-4.2c1.4,2.9-2.4,3.7-3.5,5.8c-1.9,3.9-2.5,8.3-3.8,12.5
			c5.3,3.5,10,7.9,15.5,11.1c1.9-0.7,3.7-0.7,4.3,1.5c-4.8,1.8-9.8,3.3-14.6,5.2c-0.2-0.6-0.7-1.8-1-2.4c1.4-0.6,2.9-1.3,4.4-1.9
			c-3.2-2.9-6.9-5.4-10.5-7.9c-1,3.4-1.8,6.8-2.9,10.1c1.2,1.8,3.1,1.6,5,1.4c0.2,0.6,0.4,1.7,0.6,2.2c-4.2,1.4-8.4,2.8-12.6,4.1
			c-0.2-0.5-0.5-1.6-0.6-2.1c6-3.8,5.9-11.7,8.3-17.7c-4.4-3.1-8.6-6.6-13.1-9.5c-1.9-0.7-4.6,0.6-5.3-2.2c4.5-1.6,9.1-3.2,13.6-4.9
			c0.2,0.6,0.6,1.9,0.8,2.5c-1.2,0.6-2.3,1.2-3.5,1.8c3,2.2,6,4.5,9,6.7c0.9-3.4,2.4-6.6,2.4-10.2c-1.3,0-2.6,0.1-3.9,0.2
			C609.7,803.8,609.4,803,609.1,802.4z"/>
		<path class="st1" d="M529.5,818c4.1-0.6,8.3-0.6,12.5-0.6c0,0.6,0,1.7,0,2.2c-6.5,1.2-8.4,8.4-12.1,13c3.7,4.6,6.8,9.6,10.5,14.1
			c1,1.4,3,1,4.4,1.5c0,0.6,0,1.8,0,2.3c-5-0.2-10.1,0.5-15.1,0.5c0-0.7,0-2-0.1-2.6c1.5-0.1,3.1-0.2,4.6-0.3
			c-2.4-3.7-5.1-7.2-7.7-10.7c-2,3.2-4.6,6-5.8,9.6c1,1.4,2.8,1.3,4.3,1.6c0,0.6,0,1.8,0,2.3c-4.4,0.1-8.8,0.7-13.2,0.6
			c0-0.5,0-1.6,0-2.2c6.7-2.1,8.9-9.5,13-14.5c-3.1-4.1-6-8.5-9.2-12.5c-1-1.7-3-1.7-4.7-2c0-0.5,0-1.4,0-1.8
			c4.7-0.5,9.4-0.7,14.1-0.5c0.2,0.8,0.5,1.7,0.8,2.5c-1.4,0.1-2.9,0.2-4.3,0.3c2.1,3.2,4.3,6.3,6.7,9.3c1.8-2.9,3.7-5.8,5.3-8.8
			c-1.5-0.6-3-1.1-4.5-1.6C529.1,819.1,529.4,818.3,529.5,818z"/>
	</g>
	<g id="_x23_2c5790ff">
		<path class="st7" d="M594.1,487.2c2.1-0.5,4.3-1,6.5-1.5c0.4,8.2,2.2,16.4,1,24.6C599.2,502.6,596.5,495,594.1,487.2z"/>
	</g>
	<g id="_x23_fcfefeff">
		<path class="st1" d="M780.5,519.8c2-1,4.2-0.8,6.4-0.4c0.2,1.9,1.1,4.5-1.1,5.6c-1.8,1.3-3.6-0.1-5.3-0.8
			C780.5,522.7,780.5,521.2,780.5,519.8z"/>
		<path class="st1" d="M800.8,613.1c1.5-1.1,3-2.9,5.1-2.3c2.4-0.2,3,2.5,4.1,4.1c-0.9,2.1-2.2,5-5,4.5
			C801.3,619.9,800.7,615.8,800.8,613.1z"/>
		<path class="st1" d="M399.9,799.9c0.2-0.6,0.6-1.7,0.8-2.3c3.8,1.1,7.5,2.4,11.2,3.6c-0.4,8.7,0.7,17.3,0.4,26
			c5.3-6.8,10.4-13.7,15.7-20.4c3.7,1.2,7.4,2.3,11,3.7c-0.3,0.8-0.6,1.6-0.9,2.5c-1.5-0.5-2.9-0.9-4.4-1.3
			c-3,8.7-6.4,17.3-8.8,26.2c1.3,0.6,2.7,1.1,4,1.6c-0.2,0.7-0.5,2-0.7,2.6c-4.8-1.7-9.6-3.1-14.4-4.8c0.2-0.7,0.6-2,0.8-2.7
			c1.5,0.5,3,1.1,4.5,1.7c3.5-7.7,5.5-15.9,8.3-23.8c-6.4,7.8-12.2,16.1-18.6,23.9c-2.6-2-1.3-5.5-1.6-8.3
			c0.4-7.8-0.8-15.6-0.4-23.5c-2.7,7.9-6.5,15.7-7.5,24.1c1.7,1.3,4,2.3,3.8,4.9c-4.5-1.4-9-2.7-13.3-4.6c-0.9-3,3.3-1.1,5-1.7
			c2.6-2.3,2.9-6.1,4.1-9.1c1.6-5.4,4.1-10.6,5.1-16.2C402.9,801,401.4,800.5,399.9,799.9z"/>
	</g>
	<g id="_x23_fcfefdff">
		<path class="st1" d="M789,543.8c0.2-2.1-0.2-4.9,2.1-6c1.8-0.5,3.9-0.6,5.5,0.5c1.5,1.4,1.1,3.6,1.4,5.4c-1.3,0.9-2.3,2.5-4,2.4
			C791.9,546.5,790.5,544.8,789,543.8z"/>
	</g>
	<g id="_x23_ababa2ff">
		<path class="st10" d="M613.1,545.8c5.7,1.6,11.5,3.3,17.2,5.1c-1.3,1.1-2.7,2.3-4,3.4c-3.8-1.2-7.7-2.4-11.6-3.6
			C614.2,549.1,613.7,547.4,613.1,545.8z"/>
	</g>
	<g id="_x23_fdfefeff">
		<path class="st1" d="M837.6,552.7c1.6-1.1,3.1-3.1,5.3-2.4c2,0.8,3.7,2.6,3.1,4.9c-0.2,3.3-4.4,4.2-6.8,2.7
			C837.8,556.6,838.1,554.4,837.6,552.7z"/>
	</g>
	<g id="_x23_2b5791ff">
		<path class="st7" d="M614.7,550.7c3.9,1.1,7.8,2.3,11.6,3.6c-2.7,2.2-5.5,4.3-8.4,6.3C616.8,557.3,615.7,554,614.7,550.7z"/>
	</g>
	<g id="_x23_a9aba6ff">
		<path class="st11" d="M513.6,557.6l0.4,0.5c0,20.5-0.4,41,0.2,61.4c-25.7,12.3-52.7,21.9-80.2,29.2
			C460.3,618.2,487.1,588.1,513.6,557.6z"/>
		<path class="st11" d="M511.8,629.2c1.1-0.6,2.3-1.1,3.5-1.7c-0.3,10.7-0.1,21.5-0.1,32.2c5.2,0.2,10.3,0.8,15.4,1.8
			c2.7-5.8,5-11.8,6.9-17.9c1.2,0.9,2.5,1.7,3.8,2.6l0,0.1c-1.7,5.5-4,10.8-6.2,16.1c6.5,2,12.8,4.5,18.8,7.7
			c2.3-3.2,4.5-6.4,6.8-9.6c1.2,0.9,2.4,1.7,3.6,2.6c-2.2,3.1-4.3,6.3-6.5,9.4c2.2,1.5,4.3,3.1,6.5,4.6c3.4-2.2,6.7-4.4,10-6.6
			c1.2,0.9,2.4,1.8,3.7,2.6c-3.4,2.4-6.8,4.7-10.2,7.1c4.5-1.5,8.9-3.2,13.2-4.9c1.4,1,2.8,2,4.1,3.1C540,698,487,698,442,678.4
			c-16.2,12-32.6,23.8-48.9,35.7c-14.9,10.7-29.5,21.7-44.5,32.2c0.5-1.1,0.9-2.2,1.6-3.2c2.8-2.5,5.6-5,7.9-8
			c19.7-22.6,39.6-45,59.2-67.7c2.5-2.8,4.8-6.3,8.7-7.2c9.1-2.5,18.3-4.8,27.2-8c17.4-5.5,34.1-12.9,51-19.6
			c-5,4.1-10.3,7.9-15.6,11.7c2,5.7,4.2,11.4,6.7,17c5.2-0.9,10.4-1.5,15.7-1.6c-0.1-10.1,0.1-20.2-0.1-30.3l0.4-0.2l-0.4-0.9
			L511.8,629.2 M484.8,647.3c-6.4,4.4-12.5,9.2-18.9,13.7c2,2.9,4,5.8,6,8.7c6.1-3.1,12.4-5.7,19-7.5
			C488.7,657.4,487.3,652.1,484.8,647.3 M452.5,670.9c2.9,2,5.9,3.9,8.8,5.9c2.2-1.6,4.5-3.2,6.7-4.9c-1.9-2.7-3.8-5.5-5.6-8.2
			C459,666,455.7,668.4,452.5,670.9 M462.9,681.3c32.3,9.9,67.5,10.1,99.9,0.3C535.1,658.1,490.8,658.2,462.9,681.3 M448.4,673.4
			c-0.4,0.5-1.3,1.6-1.8,2.2c3.4,1.3,6.8,2.6,10.2,3.7C454.1,677.2,451.2,675.3,448.4,673.4z"/>
	</g>
	<g id="_x23_b9bab5ff">
		<path class="st12" d="M514,558.1c4,4.3,8,8.6,11.8,13.1c8.3,9.8,17.2,19,25.1,29.2c-12,6.7-24.1,13.3-36.6,19.1
			C513.5,599,514,578.6,514,558.1z"/>
		<path class="st12" d="M515.3,627.5c14-6.2,27.8-12.9,41.3-20.1c3.8,3.2,7,6.9,10.2,10.7c33.4,38.2,66.9,76.4,100.3,114.6
			c2.8,3.5,6,6.8,9.6,9.4c0.8,1.3,1.1,2.7,1.7,4.2c-31.2-22.6-62.2-45.4-93.4-68c-1.4-1-2.7-2.1-4.1-3.1c-1-0.7-2-1.5-3-2.2
			c-1.2-0.9-2.5-1.8-3.7-2.6c-3.4-2.4-6.7-4.9-10-7.4c-1.2-0.9-2.4-1.8-3.6-2.6c-6.5-4.7-13.1-9.3-19.4-14.2l0-0.1
			c-1.3-0.9-2.5-1.7-3.8-2.6C530,638.3,522.8,632.7,515.3,627.5z"/>
	</g>
	<g id="_x23_2b588fff">
		<path class="st7" d="M634.4,611.2c5.9,3.1,11.1,7.1,16.2,11.3c-3,3.5-6.1,7.1-9.2,10.6C639,625.8,636.7,618.5,634.4,611.2z"/>
	</g>
	<g id="_x23_fdfdfcff">
		<path class="st1" d="M828.3,625.4c1-0.4,2-0.9,2.9-1.3c1.3,1,3.4,1.7,3.2,3.8c0.4,2-1.9,2.9-3.1,4.1c-1-0.5-2-0.9-3-1.4
			c-0.4-0.9-0.7-1.7-1.1-2.6C827.6,627.2,828,626.3,828.3,625.4z"/>
	</g>
	<g id="_x23_fcfeffff">
		<path class="st1" d="M731,639.9c0.6-4,7.3-3.7,7.6,0.3c0.6,2-1.1,3.4-2.3,4.7c-0.8,0-2.5,0-3.4,0
			C731.8,643.5,730.3,641.9,731,639.9z"/>
	</g>
	<g id="_x23_0e2438ff">
		<path class="st13" d="M725.8,877c5.2,4,10.5,8,15.7,12.1c-4.3,2.5-8.6,5-12.9,7.4C727.5,890.1,726.7,883.5,725.8,877z"/>
	</g>
</g>
</svg>
