<?xml version="1.0" encoding="UTF-8"?>
<svg id="Layer_1" data-name="Layer 1" xmlns="http://www.w3.org/2000/svg" version="1.1" viewBox="0 0 392.6 451">
  <defs>
    <style>
      .cls-1 {
        fill: #9b9e9f;
      }

      .cls-1, .cls-2, .cls-3, .cls-4, .cls-5, .cls-6, .cls-7, .cls-8, .cls-9, .cls-10, .cls-11, .cls-12, .cls-13, .cls-14, .cls-15, .cls-16, .cls-17, .cls-18, .cls-19, .cls-20, .cls-21, .cls-22, .cls-23, .cls-24, .cls-25, .cls-26, .cls-27, .cls-28, .cls-29, .cls-30, .cls-31, .cls-32, .cls-33, .cls-34, .cls-35, .cls-36, .cls-37, .cls-38 {
        stroke-width: 0px;
      }

      .cls-2 {
        fill: #cfd0d0;
      }

      .cls-3 {
        fill: #f5f5f5;
      }

      .cls-4 {
        fill: #eadcde;
      }

      .cls-5 {
        fill: #003a6a;
      }

      .cls-6 {
        fill: #004177;
      }

      .cls-7 {
        fill: #ebe1e3;
      }

      .cls-8 {
        fill: #8f2b39;
      }

      .cls-9 {
        fill: #aaa5a7;
      }

      .cls-10 {
        fill: #d8d8d8;
      }

      .cls-11 {
        fill: #060606;
      }

      .cls-12 {
        fill: #003c6d;
      }

      .cls-13 {
        fill: #f3f3f3;
      }

      .cls-14 {
        fill: silver;
      }

      .cls-15 {
        fill: #edeaea;
      }

      .cls-16 {
        fill: #89abcf;
      }

      .cls-17 {
        fill: #8e2a37;
      }

      .cls-18 {
        fill: #013e70;
      }

      .cls-19 {
        fill: #676767;
      }

      .cls-20 {
        fill: #dfdfdf;
      }

      .cls-21 {
        fill: #010202;
      }

      .cls-22 {
        fill: #959293;
      }

      .cls-23 {
        fill: #bfbabb;
      }

      .cls-24 {
        fill: #ededed;
      }

      .cls-25 {
        fill: #040404;
      }

      .cls-26 {
        fill: #000102;
      }

      .cls-27 {
        fill: #05080b;
      }

      .cls-28 {
        fill: #93313e;
      }

      .cls-29 {
        fill: #999c9d;
      }

      .cls-30 {
        fill: #9b9799;
      }

      .cls-31 {
        fill: #0f0f0f;
      }

      .cls-32 {
        fill: #010204;
      }

      .cls-33 {
        fill: #151515;
      }

      .cls-34 {
        fill: #f6f6f6;
      }

      .cls-35 {
        fill: #919091;
      }

      .cls-36 {
        fill: #0a0a0a;
      }

      .cls-37 {
        fill: #020203;
      }

      .cls-38 {
        fill: #010203;
      }
    </style>
  </defs>
  <path class="cls-16" d="M12.4,447.5c1.6.3,1.6-.9,2-2,13.1-32.2,26.4-64.4,39.5-96.6,12-29.5,23.8-59.1,35.8-88.7,13.3-32.7,26.7-65.3,40-98s26.7-65.3,40-98c8.5-20.8,17.1-41.6,25.6-62.8.5-.4.9-.4,1.7-.4,4.7,11,8.9,22,13.3,32.9,6.3,15.6,12.6,31.2,19,46.8l24,58.5c6,14.5,12,29.1,17.9,43.6,8,19.5,15.9,39,23.8,58.5,9.2,22.7,18.2,45.4,27.4,68,11,26.8,22.2,53.6,33.2,80.4,7.7,18.7,15.2,37.6,22.8,56.3.2.6.8,1,1.6,1.1-.4,1.6,2.3,5.5-3.2,4.7-35.2-18.3-69.9-36.8-104.6-55.2-23.4-12.4-46.9-24.5-70-37.4-4.3-2.4-7.8-2.2-12.1.1-31.4,17.1-63.2,33.7-94.7,50.5-24.1,12.9-48.3,25.4-72.3,38.5-2,1.1-4.2,2-6.6,3.2-3.7,1-5-.4-4.3-4.3l.2.3Z"/>
  <path class="cls-21" d="M72.2,346.5c15.4-38.4,30.8-76.5,46.3-114.5,25.2-61.7,50.4-123.4,75.6-185.1.6-1.5,1.3-3,1.9-4.4,1.8.3,1.7,1.8,2.1,2.8,40.8,99.9,81.5,199.7,122.3,299.6.2.5.3.9.6,1.8-1.5,1.9-3.4,1.1-5,.7-5.1-1.2-10.2-1.9-15.8-2.8-2.1,0-3.7-.5-5.8-1-7.2-1.5-14.2-1.9-21.4-3-2.4,0-4.4,0-6.8-.3-1.3-.2-2.1-.6-3.4-.7-14.7-2.1-29.1-2.9-43.5-3.8-6-.4-11.8-1.3-17.8-1.3-17.3,0-34.4,1.6-52,3.1-9.8.6-19,1.9-28.7,3-2.1,0-3.7.9-5.8.9-5.4.3-10.2,1.3-15.5,2.1-3.9.8-7.4,1.1-11.3,1.9-3.8.5-7.1,1.5-10.5,1.9-1.7.2-3.6,1.2-5.2-.8h-.3Z"/>
  <path class="cls-38" d="M266.9,375.3c-22.3-11.7-44.2-23.2-66.1-34.9-3.4-1.8-5.8-1.6-9.1.2-21.5,11.6-43.2,23-65.1,34.5-.8.5-1.3.5-2.1.8-.2.1-.2.2-.2.2-4.8,1.3-9.4,3-14.9,1.9-.6-.3-.8-.5-1.2-1,1.5-5.3,6.3-7.6,9.6-11.6.4-.4.6-.5,1-.9,1.7-.9,2.8-2,3.9-3.5.4-.4.6-.6,1.1-.9,14.7-10.6,30.6-18.1,48-23.1,17.5-4,34.7-4.2,52.1.7,14.9,4.7,28.5,11.1,41.5,19.9.5.3.7.4,1.2.8,3.9,3.5,7.9,6.5,11.7,10.2.5.3.7.4,1.1.8s.6.5,1.3,1.1c.7.7.8.8,1.2,1.3.4.5.5.7.9,1.2,2.2,4.4,1.5,5.7-2.8,5.4-4.4-.3-8.7-1.2-13.2-3h.1Z"/>
  <path class="cls-26" d="M61.2,373.4c3.1-8.3,6.3-16.1,9.8-24.3,5-2.7,10.4-2.5,15.8-4.1,3.9-.8,7.5-1,11.3-2,5.6-.4,10.7-1.5,16.2-2.3,1.8-.2,3.2-.3,4.9-.7,7.4-.6,14.3-1.7,21.7-2,.7.1.9.2,1.5.6.3.5.4.8.2,1.3-6,2.4-12.2,3.6-18,5.9,5.8-2,11.7-3.7,18-5.3,2.4-1.2,4.8-.8,7.2-1.7,2.5-.2,4.4-.9,6.7-1.7,2.5-.5,4.7-.7,7.2,0,.6.3.8.5,1.1,1-2.1,3.3-5.7,3.2-8.7,4.4-11.4,4.6-22,10.7-32.3,18.1l-.3.2c-1.2,1.2-2.4,2.4-3.8,3.8l-.2.2c-4.1,2.9-7.9,6.1-10.8,10.8q-.2.3-.2.2c-1.1,2-3,3.1-5.2,3.5-15.1,2.8-30.2,5.5-45.1,9.4-.8.2-1.6,0-2.8-.6,1.3-4.1,2.9-7.9,4.7-12,1-1.2,2.2-1.6,3.5-2.5,17-10.9,34.7-19.5,53.6-25.6-19,6-36.7,14.6-53.7,25.6-1,.7-1.7.6-2.3-.5v.3Z"/>
  <path class="cls-26" d="M332.3,375.7c2.6,3.7,3.7,7.7,5.3,11.9-1.4,1.7-3.1,1-4.6.6-7.1-1.9-14.3-3.3-21.9-4.9-2.2-.2-3.9-1.1-6.2-1.2-2.1-.6-3.9-1-6-1.2-7.2-.4-12.9-2.7-17.1-8.8q-.3-.3-.3-.2c-.2-.2-.4-.5-.8-.9q-.2-.2-.2-.1c-.2-.2-.4-.5-.8-.9q-.2-.2-.2-.1c-3.8-3.9-7.7-7.8-12.7-10.8l-.3-.2c-10.1-8.1-21.6-13.4-33.5-18-1.5-.6-3.2-.9-4.6-2.3,1.5-2.5,3.7-2.1,5.7-1.8,4.2.6,8.3,1.4,12.8,2.5,22.6,5,43.9,12.5,64.1,22.9,7.3,3.8,15.1,7.1,21.3,13.4h0Z"/>
  <path class="cls-37" d="M338.1,389.8c4.3,9.7,8.3,19.1,12.4,28.5l-.9,1.2c-17.2-9.3-34.4-18.6-51.9-28.1-2.1-2.1-3.6-4.2-5.5-6.5-.4-.5-.5-.7-.7-1.3,0-5.8,3.8-2.8,6.5-3.2,2.1.9,4,.4,6.1,1.1,2.2.4,4,.8,6.2,1.2,9.4,2.5,18.8,3.6,27.9,7.2h0Z"/>
  <path class="cls-37" d="M95.7,391c-17.5,9.7-34.9,19.1-52.2,28.4-.4-.3-.7-.6-1.1-.8,3.9-9.3,7.7-18.6,11.8-28.2,8.9-3.8,18.2-5.4,27.3-7.2,6.7-1.3,13.4-3,20.7-3.2.5.4.6.6.8,1.2-.2,2.1-1.8,3.1-2.5,5.1-.3.5-.4.7-.8,1.1-1.6,1-2.6,2.4-4,3.6Z"/>
  <path class="cls-38" d="M321.2,348.7c3.6,8,6.9,15.8,10.3,24-1.1,1.3-2.1.7-3.1,0-24.5-15.6-51.3-25.8-79.4-32.5-.3,0-.6-.2-1.4-.3-.9-.1-1.4-.3-2.2-.9-.2-.6-.2-.9,0-1.4,5.7-.7,10.9.8,16.6.8,1.3.1,2,.4,3.2.8,2.3.2,4.2.1,6.6.2,7.4,1.8,14.6,1.8,22,3.4,1.8,0,3.1.6,4.9.6,7.6,1.8,15.1,2.3,22.4,5.1v.2Z"/>
  <path class="cls-12" d="M247.2,339.5c30,6,57.8,17.5,84,33.6,1.3.5,1.1,1.5,1.4,2.6-10.5-5.4-20.6-11.8-31.6-16.7-17-7.7-34.7-13.6-53.2-18-.7-.4-.9-.8-.6-1.5h0Z"/>
  <path class="cls-18" d="M102.7,382.2c-1.8-3-4.2-1.2-5.8-1-13,2.2-26,4.7-38.7,8.3-.9.3-1.9.4-3.3.6-.4-.5-.3-1.1,0-1.9,13.8-3.1,27.4-6.6,41.2-8.8,4.1-.7,8.3-.7,12.1-3.5,2.8,2.3,5.6.8,8.2.6,2.4-.1,4.8-.5,7.7-.7-.6.7-1.7,1.4-3.1,2.1-6,2.1-12,2.9-18.1,4.2h-.2Z"/>
  <path class="cls-18" d="M298.1,380.3c-1.4.6-3.2.5-4.9.6-2.1,0-1,1.4-.8,2.7-.7,1-1.7,1.2-2.3.6-4.5-4.4-10.9-3.4-16.5-5.5-2.5-1-4.6-2.1-6.9-3.4,5.5.2,11.1,1.9,16.9,1.7.3-2.2-1.9-2.7-2.3-4.7.6-.2,1.5-.3,1.7,0,3.5,5.2,8.9,6.7,15,7.9h.1Z"/>
  <path class="cls-27" d="M273.6,379c6.5-1,13.1-.7,18.5,5,.4,0,.3,0,.3,0,.7,1.4,1.8,2.6,1.2,4.6-7.2-1.9-13.2-6.2-20-9.6Z"/>
  <path class="cls-27" d="M102.4,382c5.3-3.3,11.3-3.4,17.7-4-6.3,3.7-13.1,7.4-20.3,11.2-.8-.4-.9-.9-.6-1.9.2-.4.2-.3.2-.4.9-1.5,1.9-2.9,2.8-4.8.2-.3.2-.2.2-.2h0Z"/>
  <path class="cls-12" d="M338.4,389.8c-9.2-1.8-18.3-3.9-27.8-6.2-.5-.4-.6-.6-.5-1.2,9.2,1,17.9,3.3,27.1,5.6.7.5.9,1,1.2,1.8h0Z"/>
  <path class="cls-5" d="M321.6,348.6c-7.2-1.1-14.4-2.5-21.9-4-.5-.4-.6-.7-.5-1.2,7.3.3,14.1,1.9,21.4,3.5.6.5.8,1,1,1.7Z"/>
  <path class="cls-5" d="M87.6,345.6c-5.3,1.3-10.5,2.4-16,3.4-.3-.9,0-1.7.3-2.7,5.3.9,9.9-1.8,15.1-2.1.7.3.9.7.6,1.4h0Z"/>
  <path class="cls-18" d="M293.7,389.1c-.7-1.5-1.1-2.9-1.4-4.7,2.7,1.1,3.8,3.7,5.1,6.5-1.5.3-2.6-.4-3.7-1.8Z"/>
  <path class="cls-18" d="M99,386.9c.3.6.3,1.1.4,2-1.1,1-2.2,1.6-3.6,2.3.3-1.8,1-3.5,3.2-4.3h0Z"/>
  <path class="cls-12" d="M63.7,373.8c-.9,1-1.8,1.6-3.1,2.2-.2-.9,0-1.7.3-2.8.7,0,1.1.2,1.8.4.5,0,.7,0,1,.2h0Z"/>
  <path class="cls-18" d="M124.6,376c.2-.3.6-.6,1.4-.9-.2.3-.6.6-1.4.9Z"/>
  <path class="cls-29" d="M188.2,117c.8,2.4,1.6,4.4,2.7,7.6,1.8-6.5,3.4-12.5,11.7-8.8-1.7,3.8-3.2,7.8-5.1,11.7-1.4,2.9-1.7,5.6,0,8.4,1.3,2.1,2.3,4.4,3.1,6.8.5,1.6,3.2,3.3.9,5.1-2,1.6-7.4-.3-8.3-2.6-.7-1.8-1.4-3.7-2.3-6.1-1.3,3-1.9,6-3.6,7.9-2,2.3-5.3.6-8.3,1,.9-4.4,3-8,4.9-11.5,1.7-3.3,1.9-6.1.3-9.4-1.8-3.7-3.3-7.6-5.1-11.9,3.5.3,6.6-1.7,9.2,1.8h-.1Z"/>
  <path class="cls-3" d="M275.9,268.8c7.5,18,14.7,35.8,21.8,53.5-.3.2-.5.4-.8.7-4.7-2.8-9.5-5.7-14.2-8.4-2.1-1.2-1.9-3.3-2.2-5.2-1.9-13.2-3.7-26.3-5.7-39.9.2-.6.5-.7,1.1-.6h0Z"/>
  <path class="cls-34" d="M118,267.8c-1.8,13.9-3.8,27.3-5.6,40.8-.5,3.6-1.6,6-5.1,7.7-4.2,2-8.1,4.7-12.9,7.6,7.7-19.3,14.9-37.5,22.4-55.9.5-.4.7-.4,1.1-.1h0Z"/>
  <path class="cls-6" d="M247.1,339.1c.3.4.3.8.3,1.5-6.2-.5-12.1-3.1-18.7-1.9-.5.6-.8.7-1.4.3-.2-.2-.3-.6-.3-.6,0,0-.4.1-.4.4-.3.5-.6.6-1.2.5-7.9-1.5-15.4-3.6-23.3-4.3-10.1-.9-19.9,1.3-30.1,3.1-.6,0-.8.2-1.4.2-.4-.3-.5-.5-.5-1,.8-.9,1.7-.7,2.5-.9-.8.2-1.7,0-2.6.8-1.8,1-3.4,1.2-5.4.6-2.6,0-4.9.2-7.6.4-3.1-.5-6.2,1.2-8.6-1.7,38.1-5.5,76.1-3.4,114.5,1.5.5.3.6.5.6,1-5.9-.2-11.6-.6-17.8-1.1-1.8.5-3.1-.4-4.5-.5,1.3.3,2.5.6,4,1.3.7.2,1.1.3,1.9.4h0Z"/>
  <path class="cls-1" d="M214.3,138c0,2-.2,3.5,0,5,.7,4.4-1.3,5.4-5.3,5.1-2.5-.2-3-1.2-3-3.4,0-8.8.2-17.7,0-26.5,0-4,2.4-3,4.6-3.2,2.7-.3,3.9.5,3.8,3.5-.2,6.3,0,12.7,0,19.5h0Z"/>
  <path class="cls-13" d="M140.5,227.4c-.4,2.7-1,5-.9,7.3,0,3.1-1.3,4.8-3.9,6.2-3,1.6-5.9,3.5-10,5.9,6-15.3,11.5-29.4,17-43.6.4,0,.7.2,1.1.3-1.1,7.8-2.1,15.6-3.2,23.9h0Z"/>
  <path class="cls-13" d="M251.7,207.6c5.1,12.8,10,25.3,14.9,37.8-.2.3-.4.6-.6.8-3.9-2.4-7.9-4.8-11.8-7.2-.9-.5-.7-1.4-.8-2.2-1.5-11-2.9-22.1-4.5-33.9,1.9,1.5,2.3,3,2.8,4.7h0Z"/>
  <path class="cls-25" d="M189.4,289.9c-.8.1-1.2,0-1.8-.2-1.9-3.1-5.7-.9-8-3.2-2.1-1.3-4.4-1.7-5.6-4.1,1.7-4.4,6-5.5,9.4-8,3.3-.9,6.1.7,9.5.6.7.2,1,.3,1.6.6.9.6,1.2,1,1.8,2,.5,3.8,1.2,7.1-.6,10.7-.3.4-.3.3-.2.3-1.5,2.1-3.8.5-6,1.4h-.1Z"/>
  <path class="cls-25" d="M204.2,288.1c-.4-.2-.3-.2-.3-.2-.5.2-.9.6-1.5,1.3-1.7.3-3,.3-4.7,0l-.3-.2c-1.8-3.3-.7-6.9-.9-10.7.2-1,.4-1.5,1.1-2.3.6-.4.8-.6,1.4-.9,3.4-.3,6.2-1.2,9.6-1,3.9,2.3,7.9,3.8,10.2,7.9-4,4.2-8.9,5.8-14.6,6.2h0Z"/>
  <path class="cls-15" d="M155.9,263.2c-.8-2-1.5-3.7-1.7-5.5-.5-4.3-1-8.4-7.5-6.3,1.6-3.6,6.3.6,6.9-4.3.3-.4.6-.5,1.2-.6,3.7,2.4,7.3,3,11.3.7.5-.8.8-1.4,1.1-2.4.5-2.1,1.4-3.7,2.2-5.7.5-1.2.9-2,1.4-3.2,1.3-1.7,2.6-2.7,4.8-1.8.3.5.4.7.4,1.3,0,1.1-.4,1.7-.9,2.7-.7,1.2-1.3,1.9-1.7,2.8-2,4-1.1,6,3.2,7.1,2.6.7,5.2.1,8.1-.1,3.4.7,6.6,0,10,1.2.5.4.6.6.8,1.2-1,1.7-2.5,1.7-4,1.8-2,0-3.5.8-4.5,2.9-1.8,1.5-2.6,0-3.4-.9-1.1-1.3-2.4-2.2-4.6-2-1.2.2-2.1.5-3.4.6-5.1-1.4-4.3,2.1-4.6,5-.4.7-.8,1-1.6,1.2-1.8-.8-2.2-2.3-2.6-3.7-.5-1.8-1.6-2.7-3.4-3.1-5.4-.9-7,.6-5.9,6,.3,1.3.7,2.6.2,4.2-.6.6-1.1.8-1.9.5v.4Z"/>
  <path class="cls-15" d="M239.1,248.8c2.2,1.7,4.8,0,7.7,2-3,.2-5,.4-7.2.8-.9.7-1.6.8-2.7.8-4.2.4-8.4-1.5-11.8,2.5-.7.5-1.1.6-2,.6-1.6-1.5-2.5-3.5-5.4-2.5-1.3,0-2.2-.2-3.4-.5-2.6-.5-4.4,0-5.5,2.3-.5,1.2-1.4,2.2-3.2,2.2-.7-4.9-4.7-4.5-8.1-5.7-.3-.5-.3-.7,0-1.3,2.5-1.9,5.2-1.1,8.1-1.8.9-.2,1.4-.2,2.2-.2,1.7.1,3,.6,4.3.6,2.9.2,5.9.1,7.7-2.5,1.7-2.5-.4-4.7-1.7-7.1-.6-.9-.8-1.6-1.2-2.6,0-.6,0-.8,0-1.4,1.8-2.3,3-.4,4.7.5.8,1,1.1,1.9,1.7,3.1.9,2,1.8,3.7,2.3,5.8.2,1,.3,1.7.5,2.6,3.2,2.5,6.6,1.3,10.2,1.5,1.1,0,1.8,0,2.8.3h0Z"/>
  <path class="cls-24" d="M163.6,157.8c-.2,4.6-1.1,9-1.2,13.5,0,6-3.3,9-9.4,10.7,3.2-8.1,6.2-15.7,9.4-23.6.4-.5.6-.6,1.3-.5h0Z"/>
  <path class="cls-24" d="M229.9,157.8c3.5,8,6.5,15.8,9.7,23.9-7.9-2.8-8.1-3.1-9.1-10.5-.6-4.1-1.1-8.2-1.7-12.8.2-.6.5-.7,1.1-.6h0Z"/>
  <path class="cls-5" d="M148,336.1c2.6,1.9,5.7,0,8.3,1.9-1.5.8-3.4,1.3-5.6,1.8-.9-.5-1.5-.4-2.5-.4-2-.3-3.7-.1-5.6-.6-7.7.6-15,1.3-22.9,2-.8-.3-.9-.7-.6-1.4,9.6-1.3,19-2.4,28.9-3.5v.2Z"/>
  <path class="cls-10" d="M203.8,288.5c5.2-1.4,10-3.3,14.8-6.1.6-1.3,1.3-2,2.4-2.8.8-.5,1.3-.9,2-1.5,3.7-2.7,5.4-7,9.4-9.3.8,0,1.1.4,1.2,1.1-2.1,4.7-5.8,7.6-9.1,10.9-3.5,3.6-15.8,8.6-20.8,7.7h0Z"/>
  <path class="cls-2" d="M239.4,248.6c-.6.7-1.2.9-2,1.2-1.9-2.4-1-5.4-2.4-8.2-.3-.7-.5-1.1-.9-1.8-.2-.5-.3-.7-.5-1.2-.2-.7-.3-1.1-.4-1.9-.3-1.5-1-2.7-1.1-4.3.2-.7.5-1.1,1.1-1.4,2.6,1.8,2.5,6.8,7.8,5.1-6,3.7-.4,8.2-1.5,12.5h0Z"/>
  <path class="cls-23" d="M202.1,211.5c8,.3,14.8,3.3,21.3,8.1,0,.8-.2,1.2-1,1.7-6.8-2.4-12.9-5.6-19.9-7.7-.6-.7-.7-1.2-.4-2h0Z"/>
  <path class="cls-5" d="M294.6,343.6c-7.4-.8-14.5-1.8-22-2.9-.5-.4-.6-.7-.5-1.2,7.3.6,14.4,1.6,21.9,2.7.7.4.9.8.6,1.5h0Z"/>
  <path class="cls-20" d="M154.8,242.2c-.2-1.3-.2-2.4-.3-3.8-.2-1,0-1.5.7-2,3.4-4.2,5.3-9.1,9.6-12.7.5,0,.7.2,1,.6-.5,4.6-4.4,7.1-6,11.3,0,.8-.2,1.2-.4,1.9,0,.5-.2.7-.4,1.2-.6,1-1.2,1.5-1.8,2.5-.4.6-.7.9-1.4,1.2-.5,0-.7,0-1.2-.2h.2Z"/>
  <path class="cls-10" d="M173.9,281.8c1.9,1.3,3.6,2.4,5.5,3.7.3.5.5.7.4,1.1-5.8-1.5-11.4-3.1-13.9-9.6,1.7-.9,2.7.2,4.1,1.1,1.5,1.2,3,1.9,4,3.7h0Z"/>
  <path class="cls-2" d="M155.6,263.3c.3-.4.7-.4,1.4-.4,4.5,3.7,7.2,8.2,8.6,13.8-.2.3-.3.2-.2.2-5.6-2.7-7.2-8.3-9.8-13.6Z"/>
  <path class="cls-5" d="M114.7,341c-5.2,1.9-10.4,2.2-15.9,2.9-.8-.3-.9-.7-.6-1.4,5.3-1,10.3-1.7,15.8-2.5.6.2.8.4.7,1Z"/>
  <path class="cls-24" d="M202,211.1c.4.4.4.8.4,1.4-.2,1-.9,1.2-1.9,1.4-1.3,0-2.3-.5-3.6.4-.5.2-.7.2-1.2.2-.9-.2-1.4-.4-2.3-.5-.7,0-1.1-.1-1.8-.3-.8-.5-1.2-1.1-1.2-2.1,3.3,0,5.2-1.5,5.6-5.7,1.8,2.8,2,6.2,6,5.3h0Z"/>
  <path class="cls-10" d="M236.9,251.5c.8-.1,1.3,0,2.2.4.4,4.4-.7,8.5-2.6,12.8-.8.4-1.2.2-1.8-.6-.5-4.5,1-8.3,2.2-12.5h0Z"/>
  <path class="cls-14" d="M197.2,276.8c.3,3.9.3,7.6.3,11.7-.6,1.2-1.2,1-1.9.3,0-3.8-.2-7.3-.2-11.3.4-.9.9-1,1.9-.7h0Z"/>
  <path class="cls-20" d="M171.3,219.2c2.4-3.1,5.8-4.3,9.7-5.7.5,0,.7.3.9.9-1.9,3.8-5.3,4.8-9.1,5.5-.7-.2-.9-.3-1.4-.7h-.1Z"/>
  <path class="cls-23" d="M181.7,215.2c-.3-.5-.4-.8-.4-1.5,2.6-1.8,5.6-1.9,8.7-2.6.7.4.9.8,1.3,1.3-2.4,3.1-5.8,3.3-9.6,2.8Z"/>
  <path class="cls-6" d="M98,342.2c.4.4.4.7.4,1.4-3.4.9-6.8,1.5-10.6,2.2-.4-.4-.4-.7-.4-1.3,3.4-.9,6.8-1.6,10.6-2.2h0Z"/>
  <path class="cls-2" d="M170.7,218.9c.6,0,.9,0,1.5.2,0,3.8-3.3,4.8-6.4,6.2-.4-.3-.4-.6-.5-1.3,1.2-2.4,3.1-3.8,5.4-5h0Z"/>
  <path class="cls-20" d="M179.7,287.1c-.3-.4-.3-.6-.3-1,2.6.4,5.2,1,7.8,1.7.9.2,2.1.3.7,1.8-2.9-.7-5.4-1.5-8.2-2.4h0Z"/>
  <path class="cls-2" d="M234.9,263.8c.6.3.8.6,1.2,1-.5,1.8-1.3,3.4-2.3,5.2-.4-.1-.6-.4-1-.9-1.2-2.5,0-4,2.1-5.4h0Z"/>
  <path class="cls-2" d="M222.3,221.3c.3-.7.6-.9,1-1.3,1.1.6,2,1.3,3,2.2.2.5.4.7.4,1.3-2.4,1.2-3.6-.1-4.5-2.2h0Z"/>
  <path class="cls-6" d="M272,339c.4.3.4.5.4,1.1-2,.2-4,0-6.5-.2-.5-.3-.7-.5-.6-1,2.2-.2,4.2,0,6.7.1Z"/>
  <path class="cls-1" d="M155.1,236.1c.2.7,0,1.2-.5,1.8-1.4.2-2.7-.5-2.6-1.2.2-1.6,1.8-.5,3.1-.6Z"/>
  <path class="cls-6" d="M294.8,343.9c-.4-.4-.4-.8-.4-1.4,1.4,0,2.8.2,4.6.5.3.3.3.5.3,1.1-1.4.2-2.7,0-4.5-.2Z"/>
  <path class="cls-15" d="M233.3,230.6c0,.6-.2.9-.6,1.3-2-.2-2.8-1.4-3-3.5.2-.6.3-.9.8-1.1,1.1,1,1.9,2,2.7,3.4h0Z"/>
  <path class="cls-15" d="M226.3,224.5c0-.6,0-.9.2-1.6,1,.5,2,1.4,2.8,2.9-1.6,1.1-2.5.4-3-1.3h0Z"/>
  <path class="cls-6" d="M114.9,341.3c-.4-.2-.4-.4-.5-.9,1.4-.6,2.8-.9,4.6-1.1.4.4.4.7.4,1.3-1.4.4-2.7.5-4.5.7Z"/>
  <path class="cls-30" d="M164.1,157.7c-.5.3-.7.3-1.3.3-.4-1.4.3-2.6,1.1-3.8.9,1,.5,2.2.2,3.5Z"/>
  <path class="cls-9" d="M230.3,157.7c-.3.3-.5.3-1.2.3-1.1-1.2-.9-2.5-.4-4.2.7,1.5,1.1,2.5,1.6,3.8h0Z"/>
  <path class="cls-7" d="M189.5,290c.4-3.9,3.2-.6,5.4-1.5,1.1.7,1.6,1.6,0,1.7-1.6,0-3.3-.2-5.4-.2Z"/>
  <path class="cls-9" d="M276.3,268.7c-.3.3-.5.4-1.2.3-1-1.3-1.2-2.5-.2-3.8.5,1.1,1,2.1,1.4,3.5h0Z"/>
  <path class="cls-7" d="M197.2,289.4c1.5-.7,2.9-.9,4.7-1.1.6.3.7.5.7,1.2-2,.5-3.7,1.1-5.3,0h-.1Z"/>
  <path class="cls-34" d="M154.4,242.4c.3-.4.5-.3,1.1-.3,1.3,1.4,1.2,2.8,0,4.6-.6.3-.9.2-1.5.1-.2-1.4,0-2.7.3-4.4h.1Z"/>
  <path class="cls-12" d="M265.3,338.4c.2.4.2.6.2,1.1-.6.3-1.1.2-1.9,0-.2-.4-.2-.6-.2-1.1.6-.3,1.1-.2,1.9,0Z"/>
  <path class="cls-29" d="M118.2,267.8c-.4.3-.6.3-1,0,0-1.1-.4-2.1.8-2.5,0,.7.2,1.4,0,2.4h.1Z"/>
  <path class="cls-19" d="M249.2,200.7c0,.6-.2.9-.3,1.2-.6-.5-.4-1,.3-1.2Z"/>
  <path class="cls-19" d="M144.3,201.2c-.2.4-.4.5-.6.6v-1.1c.2,0,.4.2.6.6h0Z"/>
  <path class="cls-15" d="M229.4,226c.6,0,1,.4,1.5,1,0,.4,0,.6-.5,1-.9.2-1.3-.2-1.6-1,0-.4.3-.6.6-1Z"/>
  <path class="cls-14" d="M202.8,289.9c-.5-.3-.5-.6-.5-1.2.3-.5.7-.6,1.3-.7,1.2,1,1,1.7-.8,2h0Z"/>
  <path class="cls-7" d="M195.9,293.2c-.2-.6-.2-1.1,0-1.2.7-.4,1,.2,1.1,1.1-.4.4-.6.4-1.1.1Z"/>
  <path class="cls-14" d="M195.6,293.2c.3-.2.5-.2,1,0-.2.6-.6.7-1,0Z"/>
  <path class="cls-30" d="M164.9,152.5h0Z"/>
  <path class="cls-18" d="M169.6,337.7c.6.2.9.2,1.6.4-11.9,4.5-24.3,8.6-35.5,15.7-3.9,2.5-7.3,5.7-12,7.4,4-5.6,10.3-8.4,16.2-11.8,7.5-4.3,15.5-7.7,24.1-10.4,1.8-1.3,3.5-1.6,5.6-1.3h0Z"/>
  <path class="cls-18" d="M225.4,339.4c0-.4.3-.6.8-1,.4-.4.6-.5,1-.3.4.5.6.7,1,.8,14.2,3.9,27,10.1,38.2,19.7-4.9-2.4-9.7-5.3-14.6-8-8.3-4.6-17-8.2-26.4-11.2Z"/>
  <path class="cls-18" d="M266.5,359.3c5.7,1.3,9.5,5.6,13,10.3-5.1-2.2-8.5-6.7-13-10.3Z"/>
  <path class="cls-18" d="M108.7,375.9c1-5.6,5.7-8.2,10.4-11-2.5,4.3-6.7,7.2-10.4,11Z"/>
  <path class="cls-18" d="M119.7,365c-.5-2.4,1.4-3,3.3-4,.5,2.4-1.4,3-3.3,4Z"/>
  <path class="cls-18" d="M280.4,371.3c.3-.1.6,0,1,.4-.3.1-.6,0-1-.4Z"/>
  <path class="cls-18" d="M279.4,370.3c.3-.1.6,0,1,.4-.3.1-.6,0-1-.4Z"/>
  <path class="cls-12" d="M63.1,373.8c5.3-5.4,12.3-8.2,18.9-11.7,10.2-5.5,21-10,32-13.7,1-.4,2.2-.3,3.5,0-18.7,6.8-36.3,15.6-53.5,25.8-.3.1-.7-.2-.8-.4h-.1Z"/>
  <path class="cls-12" d="M142.7,341c-7.7,2.5-15.2,4.7-22.7,6.9,0-.5-.3-.9-.4-1.4,7.1-2.8,14.4-5.1,22.4-6.5.6.2.7.4.7.9h0Z"/>
  <path class="cls-6" d="M142.9,341.3c-.4-.1-.4-.3-.5-.9v-.5c1.5-1.3,3.3-1.6,5.5-1.1.9.4,1.5.5,2.3.9-2.2.7-4.5,1.1-7.2,1.6h0Z"/>
  <path class="cls-33" d="M170.1,337.6c-1.7.5-3.3.9-5.3,1.2-.4-.2-.4-.4-.3-.8,1.6-1.4,3.4-.9,5.5-1,.4,0,.2.4,0,.5h0Z"/>
  <path class="cls-32" d="M148,338.7c-1.5.6-3.2.9-5.3,1.2-.4-.2-.4-.3-.4-.8,1.7-1.4,3.6-1.2,5.7-.4h0Z"/>
  <path class="cls-5" d="M298.7,381.2c-.2-.3-.3-.6-.3-.7,1.9-.7,3.7-.6,5.7,1-1.5.2-3.4.9-5.4-.2h0Z"/>
  <path class="cls-18" d="M304.7,382.2c-.3-.2-.3-.6-.3-.7,1.9-.8,3.5,0,5.6.5.4.3.3.5.3,1-1.8,0-3.5-.3-5.6-.8Z"/>
  <path class="cls-18" d="M102.1,382.1c.9,2.1-.7,3.3-2.4,4.8-.9-2.2.8-3.3,2.4-4.8Z"/>
  <path class="cls-5" d="M245.4,338.7c-1.8.5-3.3-.5-5.7-1.1,2.1-1,3.5-.7,5.2.1.3.3.3.5.4.9h0Z"/>
  <path class="cls-5" d="M170.4,337c.4-.7,1-1.1,1.9-.9v.6c-.4.1-.9.2-1.6.3h-.3Z"/>
  <path class="cls-33" d="M227.4,338.1c0,.3-.3.2-.7,0-.7-.3-1.8-.3-1.2-1,.5-.6,1.4-.1,2,.9h0Z"/>
  <path class="cls-22" d="M174.3,281.9c-1.7-.6-3.2-1.3-4.8-2.4.4-4.1,1.6-7.7,4.4-10.9,1.1-.3,1.9-.1,2.7.6.8,2.8-.5,4.9-1.2,7.5-.4.6-.8.9-1,1.3-.4.6,0-.3.2.3,0,.1,0,0,0-.6,2.1-2.3,4.3-3.9,7.1-5.2,1.5.2,2.1.8,1.8,2.3-2.6,3.3-6.3,4.5-9.3,7.1h0Z"/>
  <path class="cls-20" d="M183.8,275c-.9-.6-1.3-1.2-2-1.9-.4-.3-.6-.4-.6-1,.3-.5.5-.6,1-.9.8-.2,1.3-.2,2.1,0,1.3.3,2.1.6,3.4,1,2.2.8,4.2,1.2,6,2.8.3.6.3.9,0,1.4-3.4-.3-6.5-.8-9.9-1.3h0Z"/>
  <path class="cls-7" d="M197.9,277c-.9,0-1.4.1-2.2.1s-1.1-.2-1.6-.4c-.2-.4,0-.6.2-1.2,1.6-1.5,3-1.4,4.6.1,0,.6-.3.9-.9,1.3h0Z"/>
  <path class="cls-7" d="M193.5,276.6v-1.1c.3-.7.6-.7,1.2-.3,0,.4,0,.6-.6,1.1s-.5.3-.5.3h-.1Z"/>
  <path class="cls-36" d="M195.1,275c-.6.2-.9.1-1.4,0-2.2-.4-4.2-.9-6.4-1.8,1.2-3.5,4.3-4.4,7.2-6.2,1-.4,1.7-.6,2.8-.6,3.3,1.7,6.6,3.1,8.4,6.6-1.5,2.6-4.1,1.8-6.5,2.7-.3.1-.3,0-.3.1-1-.9-1.7-2.7-3.8-1v.2Z"/>
  <path class="cls-30" d="M221.5,279.9c-.6.9-1.4,1.5-2.4,2.2-3.3-2.1-6.4-4.2-9.6-6.7-.3-.8-.3-1.2.3-1.7,3.3-.9,5,1.6,7.6,2.9.4.3.6.4,1,.7.6.4.9.7,1.4,1.1.7.5,1.2.9,1.7,1.6h0Z"/>
  <path class="cls-20" d="M210.8,273.7c-.5.5-.8.7-1.3,1.1-3.5-.2-6.5,2-10.2,1.6,1.3-2.4,4.1-1.2,6.2-3,.7-1.2,1.5-1.5,2.6-1.9.8-.2,1.2-.2,1.9,0,.5.3.6.4.9.9,0,.5,0,.8,0,1.3h0Z"/>
  <path class="cls-25" d="M165.3,225.4c2.4-2.1,4.7-4,7.1-6.1,2.9-1.6,5.6-2.9,8.6-4.3,3.4-.8,6.5-1.5,10-2.3.8-.2,1.3-.2,2.1-.1,1.3,4.4-1.3,7.9-2.8,12-.9,1.1-1.9,1.3-3.2,1.6-2.7.9-4.8,2.1-6.9,3.6,1.9-1.4,3.9-2.4,6.4-3.3.9-.2,1.4,0,2,.6-.2,8.9-2.1,10.6-11.1,9.8-.9-.4-1.3-.7-1.8-1.6-2.1-2.6-2.3.6-3.9.7-4.4,1.9-8.4,1.8-12.9,0,.8-4.4,3.6-7.3,6.4-10.7h0Z"/>
  <path class="cls-11" d="M174.7,268.7c-2.7,3.1-2.5,7.2-5,10.4-1.5-.5-2.1-2-4-1.9-2.1-5.1-6.6-8.4-8.3-13.9-.4-1.1-.6-1.9-.8-2.7-2.5-9.5-2.5-9.1,7-9.6,6.4-.3,3.9,4.8,5.8,7.6,1.5.9,2,2.2,2.7,3.6.9,1.6,1.8,2.9,2.7,4.5.2.8.2,1.2-.2,1.9h0Z"/>
  <path class="cls-8" d="M185,248.2c-3.5,2-10.3,2-13.1,0-2.1-1.5-1.7-3.3-.8-5.2.7-1.6,1.1-3.5,2.8-4.9,2.4-1.5,4.9-1.2,7.1-.9,4.6.6,6.7-1.6,7.5-5.8.2-1.3.5-2.6,1.2-4.2,4.6-3,6.8-2.2,7,2.6,0,4.1,1.5,8.8-3.8,11.6-.5.3-.8.4-1.2.7-1,.7-1.8,1-2.7,1.6-.3.3-.5.4-.8.7-.4.5-.6.8-.9,1.3-.2.4-.3.6-.5.9-.3.5-.5.8-.9,1.3-.3.3-.5.4-.9.3h0Z"/>
  <path class="cls-17" d="M184.7,272.2c-.7-.1-1.1-.2-1.8-.3-2.7-.7-5.1-1.5-6.3-4.5-.4-3,1.1-5.2,1.9-7.5,1.1-2.8,1.2-5.4-.2-8.4,4-1.2,6.5.2,7.9,4.4,1.2.7,1.7,1.3,2.6,1.9.4.3.6.4,1,.7.6.4,1,.6,1.6.9,2.4,1.1,4.9,1.8,4.5,5.3-3.2,3.5-6.8,5.9-11.3,7.5h0Z"/>
  <path class="cls-31" d="M170.7,258c-.2-1-.2-1.6-.3-2.3-1.4-4.4,0-5.7,4.6-3.8,4.3,1.1,5.3,3.5,3.9,7.1-.7,1.8-1,3.8-2.6,5.7-2.3,1.1-3-.5-4.1-2.1-.8-1.6-1.4-2.9-1.5-4.7h0Z"/>
  <path class="cls-11" d="M155.3,247.4c0-1.8.3-3.1.5-4.9.4-.5.6-.7.7-1.2,5.1-1.6,7.5,2.6,10.9,5.3.2.8.6,1.5.4,1.8-1.7,2.2-10.4,1.7-12.5-1h0Z"/>
  <path class="cls-28" d="M186.4,256c-.5-7.1,4.7-4.4,8.6-4.6,3.3,3.2,2.1,7.9-2.3,9.2-1.3,0-1.9-.8-3-1.3-.4-.2-.3-.2-.3-.2-.8-.9-1.7-1.7-2.8-2.8l-.2-.2h0Z"/>
  <path class="cls-28" d="M185.2,248h-.4c.8-.2,1.1-.8,1.4-1.8.2-.3.2-.2.2-.3.5-.4.5-1,.8-1.8l.2-.2c.7-.8,1.7-1.2,2.8-1.8.2-.2.2-.1.2-.2,5.1-2.8,6-2.2,6.3,4.8,0,.7,0,.9-.3,1.6-.3.6-.5.8-1,1.2-3.5-.7-7.1,1.8-10.2-1.5Z"/>
  <path class="cls-7" d="M191.6,259.7c2.6.3,4.3.2,3.9-2.8-.2-1.6,0-3.3,0-5.2s0-.9-.2-1.6c0-.4,0-.4,0-.4.2,0,.3-.1.8-.3.4-.1.6-.2,1.3,0,.5.5.4.7.3,1.4.9,1.2,1.2,2.3,1.1,3.4-.2,3,1.7,3.8,4.4,4.4,1,1.9-.3,2.6-1.4,3.3-1.3.8-2.4,1.7-2.9,3.7-.2.8-.4,1.3-1,2-.9.5-1.4.7-2.2.7-.9-1-.9-1.8-.5-3.1,1.3-4.5-2.4-3.6-4.5-5,0-.4.3-.5,1-.6h0Z"/>
  <path class="cls-1" d="M190.4,227c-1.2,7.6-6.4,11.2-15.7,10.9-.2-.6,0-1.2.5-1.8.4-.2.5-.4,1-.4.4.1.6.2.8.2,10.5,0,8,1.7,11.4-8.3.5-.8,1.1-1,2.1-.6h0Z"/>
  <path class="cls-28" d="M158.5,239.2c0-.3-.2-.7-.2-.9,4-2,8-1.9,12.1.2-.6,2.2-1.3,4-2.1,6.1-4.5.6-6.6-3.1-9.9-5.3h.1Z"/>
  <path class="cls-30" d="M175.2,265.2c.9-2.4,1.4-4.6,2.4-6.6,1.5-2.9.4-4.5-2.2-6.1.7-.6,1.6-.9,2.8-1.2,3.4,2.3,3.4,5,1.9,8.2-1.1,2.2-1.8,4.6-2.7,7.3-.8.6-1.4.3-2.1-.4-.2-.5-.2-.7,0-1.2h-.1Z"/>
  <path class="cls-35" d="M158.1,238.9c4,1,6.4,4,9.9,5.8.2.7,0,1.3-.2,2.1-3.7-1.9-7.1-3.9-10.9-5.8-.5-.9,0-1.7,1.2-2.1Z"/>
  <path class="cls-35" d="M170.8,238.8c-3.9-1.6-7.7-.3-11.9-.6-.4-.5-.4-1.1-.3-2,4.1-.3,8.1-.3,12.5,0,.3.9,0,1.7-.3,2.7h0Z"/>
  <path class="cls-10" d="M170.4,257.9c.7.9,1.3,2.1,2,3.6.4.8.3,1.2-.6,1.5-1-1.2-1.6-2.3-2.2-3.8.2-.6.5-.8.8-1.4h0Z"/>
  <path class="cls-36" d="M176.3,235.6c0,.2-.2.3-.6.4-.3-.1-.3-.3-.2-.7.4-.2.6,0,.8.4h0Z"/>
  <path class="cls-11" d="M228.5,226.5c.5.6.9,1.1,1.4,1.6.9,1.2,1.6,2.3,2.4,3.6.7,1.3,1.1,2.3,1.7,3.7-3.7,3.3-7.8,2-12.3,1.1-2,0-2.3-2.7-4.3-1.8-.3.8-.7,1.3-1.4,2-8.9,1.5-11.1,0-11.4-7.7,2.4-3.2,4.3-.6,6.7.1.7.3,1.2.4,1.3.8.2.4.3.5.2,0-2.3-.9-4.1-2.5-6.7-2.9-1.3-.3-2.2-.8-3.2-1.7-2-4.1-4.5-7.6-3.9-12.4,1-.2,1.8-.2,2.9,0,7.4,1.3,14,3.6,20.2,8,1.4,1.1,2.5,2.1,3.9,3.2.9.9,1.5,1.6,2.4,2.5h0Z"/>
  <path class="cls-11" d="M235.3,263.4c-.9,1.9-1.7,3.5-2.7,5.3-2.6,3.8-5.3,7.3-8.9,10.3-5.2-.8-4-5.6-5.8-8.8-.4-1.5-.3-2.7.2-4.2.2-.5.3-.7.6-1.2.4-.7.7-1,1.2-1.7,1.8-2.5,2.2-5.4,4.1-7.8.2-3,1.3-4.4,4.3-4.1,2.6.3,5.2,0,8.3,0,1.3,4.1-.3,7.9-1.4,12.2h.1Z"/>
  <path class="cls-8" d="M218.2,237.6c2.4,1.4,2.6,3.7,3.5,5.6,1.6,3.3,0,5-3,5.9-3.2,1-6.5.6-10.1.2-1.4-1.2-2.3-2.4-3.2-3.9-.3-.4-.5-.6-.8-1-.8-.9-1.5-1.3-2.6-1.9-.5-.3-.7-.4-1.3-.8-3.2-1.1-4.6-3.1-4.4-6.1,0-2,0-3.9,0-5.9.2-4.6,1.1-5.2,6.1-3.5,1.3,8.7,5.8,12.6,14.4,10.9.3,0,.6.2,1.3.5h0Z"/>
  <path class="cls-17" d="M197.7,265.2c-1.4-5.5,4.2-3.2,5.8-6.1.3-.8.4-.9,1.3-1.6,1.9-.6,2.6-1.5,2.7-2.4.5-3.7,2.9-4.4,6.4-3.9-2.1,5.1,1,9.5,2.2,14.5,0,.5,0,.8,0,1.3,0,.7-.2,1.2-.5,1.8-.2.4-.3.6-.6,1-.5.5-.8.7-1.3,1.1-.4.3-.5.4-.9.6-.4.3-.5.4-1.2.6-.7.1-.8,0-1.1-.3-.5-.1-1,0-1.7,0-4.8-.6-7.9-3.5-11.1-6.8v.2Z"/>
  <path class="cls-33" d="M235.1,240.3c2.4,2.6,2.3,5.7,2.1,9.1-4.2-.2-8.4,1.3-12.5-.8,1.7-5,5.8-6.8,10.4-8.2h0Z"/>
  <path class="cls-36" d="M217.1,252.3c2.3,0,6-4,5.4,2.3,1.2,3.3-1.2,5.4-2,8.2-.5.7-.7,1.2-1,1.9l-.2.3c-.4.4-.9.6-1.9.5-3-2.3-3.3-5.5-4-8.4-.6-2.5.9-4,3.6-4.7h.1Z"/>
  <path class="cls-28" d="M203.4,259c-4.1.2-6.1-2.2-6-7.3,1.5-.5,3-.5,4.5-.5,3.5,0,4.6,1.8,3.1,5.5l.3.3c0,.1-.3.3-.6.6l-1.2,1.2-.2.2h.1Z"/>
  <path class="cls-28" d="M206.7,248.7c-2.8,1.7-5.5.7-8.6,1h-.4c-2.1-2.1-1.5-4.8-1.1-7.1.6-3.6,3.1-1.6,5.4-.9.4.3.3.3.3.3.7.7,1.8.9,2.8,1.8l.2.2c.7,1.4,1.5,2.7,1.3,4.7h0Z"/>
  <path class="cls-1" d="M218.5,237.5c-1.1.4-2.2.5-3.4.5-6.9.1-11.3-3.3-13.1-10.4.2-.9.5-1.2,1.4-1.3.6,0,.9.2,1.5.9.7,8.4,1.1,8.7,11,8.6.6-.1.8-.2,1.2,0,.6.6.9,1,1.4,1.7h0Z"/>
  <path class="cls-28" d="M234,237.9c.4.3.4.7.4.9-2.5,3.1-5.7,5-9.5,6.3-1-1.9-1.8-3.6-2.6-5.7,3.3-4.3,7.5-2,11.7-1.5h0Z"/>
  <path class="cls-30" d="M217.2,252c-5.5,4.1-.9,8.2,0,12.6.6,1.6-.2,2.1-1.4,2.5-1.5-3.2-2.4-6.4-3.8-9.4-1.3-2.7-.3-4.4,1.9-6.2,1.1,0,2,0,3.2.4h0Z"/>
  <path class="cls-30" d="M224.5,245.3c3.1-2.4,6.1-4.4,9.5-6.4.7.2,1,.5,1.4,1.1-3.4,2.8-6.8,5.2-10.5,7.9-.3-.6-.3-1.4-.4-2.6Z"/>
  <path class="cls-30" d="M234.3,237.8c-3.9.5-7.7,0-11.9,1-.6-.4-.9-1.1-1.2-2.1,4-.5,8-.6,12.5-.8.5.5.6,1,.6,2h0Z"/>
  <path class="cls-14" d="M219.6,263.2c.8-2.7,1.7-5.1,2.8-7.9.5-.3.9-.3,1.6-.3.3,3.3-1.4,6-3.2,8.9-.6,0-.9-.1-1.1-.7h0Z"/>
  <path class="cls-4" d="M206.9,249c-.9-1.5-1.5-3-1.8-4.8,2.6.3,2.5,2.5,3.3,4.4-.4.3-.8.3-1.5.4h0Z"/>
  <path class="cls-36" d="M217.4,235.7c0,.3-.5.2-.7,0,0-.3,0-.5.5-.7.2,0,.3.2.3.6h0Z"/>
  <path class="cls-35" d="M218,268.8c2.7,3.2,2.5,7.2,5.1,10.3,0,.4-.5.7-1.2,1-.9-.2-1.5-.4-2.3-.8-.4-.5-.7-.7-1.1-1.1-.2-.2,0-.2,0-.1-1.8-2.1-2-4.9-3.3-7.6,0-.6,0-.9.2-1.4.9-.7,1.7-.7,2.7-.2h0Z"/>
  <path class="cls-4" d="M204.9,227.3c-.8-.2-1.4-.2-2.4-.1-3.8-2.3-5.5-1.7-5.2,2.7v1.5c-.6,4.6-.2,8.7,5.3,10.3-3.7-.4-5.3,2.2-5,7.7,0,.5-.3.5-.8.6-.5,0-.7-.2-1.1-.6-.2-1.6-.4-2.9-.2-4.2.5-3.9-1-4.6-4.7-3-.6-.4-.9-.7-.4-1.2,1.4-1.5,4.6-.3,4.8-2.7.4-3.6.5-7.3,0-10.8-.4-2.5-2.5-1.1-4.2-.2-.8.2-1.4,0-2.4,0-.8.2-1.2.2-1.9.4-.4-.2-.6-.4-.5-1,.9-.7,1.7-1.1,2.7-1.5,1-.6,1.8-1.1,2.9-1.8,3.1-1.4,1.9-4,2.2-6.4,0-1.1.4-1.8,1.1-2.6.5-.2.7-.2,1.1-.2,1.6,0,1.8,1,2.2,2.3.6,2.4-.8,4.9,1.8,6.6,1.1.6,1.9,1.1,2.8,1.8,1,.5,1.8.8,2.9,1.2.5.5.5.9,0,1.3-.5.1-.7.1-1.2,0h.2Z"/>
  <path class="cls-23" d="M197.6,217.3c-.4-1.1-.5-2-.8-3.1-.2-1.7.5-2.4,2.2-1.9,1,4.3,2.7,8.1,4.3,12.3-.7.2-1.6.1-2.7-.2-2.6-1.9-2.6-4.4-3-7.1Z"/>
  <path class="cls-9" d="M192.7,223.9c-1.1.5-1.9.8-3,1.1,1-3.8,2.4-7.6,3.8-11.8,1.1-1.4,1.6-.6,2,.6,0,1.1,0,1.9,0,3-1.1,2.5,0,5.3-2.7,7.1h0Z"/>
  <path class="cls-17" d="M180.8,271.9c.2.5.3.6.5.9-1.2,2.7-3.9,3.6-6.7,5,0-2.6.8-5,1.6-7.7,2-.8,3.1.4,4.5,1.8h.1Z"/>
  <path class="cls-7" d="M181.3,272.2c-1.7-.7-3-1.5-4.6-2.3s-1.2-.7-2-.9c-.3-.4-.3-.8-.4-1.5-.3-.9-.2-1.3.7-1.5.8.4,1.2.7,1.9,1.1,1.4,2.2,3.4,3.2,5.5,4.7,0,.3-.4.4-1.1.5h0Z"/>
  <path class="cls-17" d="M174.4,278.1c0,.3-.3.5-.5.6,0-.2,0-.5,0-.9.2-.1.4,0,.5.2h0Z"/>
  <path class="cls-22" d="M194.9,265c.4.7.4,1.5.5,2.7-3,1.3-5.1,3.5-8,5.2-1.1,0-1.9-.2-2.8-.5,3.2-2.5,6.6-4.9,10.3-7.3h0Z"/>
  <path class="cls-22" d="M197.5,265.4c3.5,1.8,6.9,4,10.7,6.5-.4.5-1.2.9-2.2,1.1-2.8-1.7-5.3-3.3-8.2-5.1-.3-.8-.3-1.4-.3-2.6h0Z"/>
  <path class="cls-28" d="M215.2,269.7c2.7,2.1,2.8,4.9,3.3,8-3,0-4.7-2.5-7.6-3.6-.3,0-.4-.4-.4-.6,0-.5.3-.8.7-1.3.2-.2.2-.1.2-.1.2-.2.5-.4.9-.9.2-.2.2-.1,0-.1.4-.4,1-.5,1.8-.8.2-.2.2-.1.2-.1.2-.2.3-.4.8-.3v-.2Z"/>
  <path class="cls-28" d="M218.4,278.3c.3-.1.6,0,.9.5-.2.1-.6,0-.9-.5Z"/>
  <path class="cls-15" d="M211.2,271.7c0,.6,0,1-.4,1.4-.3-.1-.3-.4-.4-1,.2-.5.4-.6.8-.4h0Z"/>
  <path class="cls-14" d="M186.1,226.1c.4.3.4.5.4,1.1-3.1,2.1-6.2,3.9-9.2,5.6-.3-.3-.5-.7-.8-1,2.5-2.7,5.8-4.3,9.6-5.7h0Z"/>
  <path class="cls-2" d="M175.4,265.7c-.2.5-.5.7-1,1.2-1-.9-2-2.1-3-3.6.2-.5.4-.7.8-1.2.9.8,1.7,1.7,2.7,2.8.3,0,.3.6.3.8h.2Z"/>
  <path class="cls-4" d="M190.2,241.6c0,1.8-1.3,2.2-2.5,2.6-.4-2.1,1.1-2.3,2.5-2.6Z"/>
  <path class="cls-4" d="M186,245.9c.7,1.1.5,2-.7,2.4-.2-1,0-1.8.7-2.4Z"/>
  <path class="cls-4" d="M187,244c1.6.7.5,1.2-.2,1.9-1.5-.7-.5-1.2.2-1.9Z"/>
  <path class="cls-15" d="M186.4,256.3c2.2-1.1,2.4,1.3,3.3,2.4-2,.4-2.5-1-3.3-2.4Z"/>
  <path class="cls-15" d="M191.8,259.5c0,.4-.3.4-1,.5-.7-.1-1.1-.3-1.4-.7.8-1.6,1.4-.3,2.4.2Z"/>
  <path class="cls-15" d="M195.3,249.2c.4,0,.7.1,1,.6,0,.2-.3.2-.9,0-.3,0-.2-.5,0-.6h0Z"/>
  <path class="cls-14" d="M205.2,227.4c.4-.4.7-.6,1.1-1,2.7.2,4.8,1.7,7.2,3.3,0,.5-.4.7-1.3.8-2.6-.5-3.9-2.6-6.5-2.4-.4,0-.3.1-.3.1,0-.1-.2-.3-.3-.6v-.2Z"/>
  <path class="cls-2" d="M211.9,230.5c0-.3.4-.4,1.3-.6,1.7.5,2.8,1.1,3,2.7-2.1,1-2.6-1.6-4.3-2.1h0Z"/>
  <path class="cls-10" d="M218.3,268.6c-.7.4-1.3.5-2.3.6-.6-.1-.8-.3-.8-.9.2-.4.3-.8.3-1,.6-.7,1.2-1.2,1.8-2,.6-.5,1.1-.7,1.9-.6,0,1.4-.5,2.5-.9,4h0Z"/>
  <path class="cls-10" d="M219.2,263.4c.5-.1.8,0,1.1.5,0,.5-.2.9-.7,1.2-.9-.3-1.1-.7-.4-1.7h0Z"/>
  <path class="cls-4" d="M205.4,243.6c-1.6,1.4-1.9-.6-3-1.3,1.6-1.5,2.1.1,3,1.3Z"/>
  <path class="cls-7" d="M203.7,259.1c-1.3-.8-.3-1.2.4-2,.5,0,.6.1,1,.6-.2.7-.6,1.1-1.3,1.4h-.1Z"/>
  <path class="cls-15" d="M215.1,268.1c.3,0,.4.3.5.8v.8c-.2.3-.4.4-.9.3-1.3-.9-.2-1.3.4-2h0Z"/>
  <path class="cls-15" d="M214.1,269.7c.3,1.3-.5,1.6-1.5,1.6-.2-1.3.6-1.5,1.5-1.6Z"/>
  <path class="cls-15" d="M205.4,257.8c-.5,0-.7-.1-.9-.6,0-.3.3-.5.7-.4.3.4.3.6.2,1Z"/>
  <path class="cls-15" d="M212,270.9c.8.5.7.9-.3,1.1-.8-.6-.7-.9.3-1.1Z"/>
  <path class="cls-11" d="M205.1,227.1c.2,0,.4.4.4.6-.3.2-.6,0-.9-.3,0-.3.3-.3.5-.3Z"/>
  <path class="cls-17" d="M192.8,224.2c.3-2.2,1.1-4.5,2.2-6.8-.6,2.1,2.7,5.6-2.2,6.8Z"/>
  <path class="cls-8" d="M197.4,217.5c1.9,1.3,1.9,3.9,3,6.4-5.4.4-2.3-3.7-3-6.4Z"/>
</svg>