<?xml version="1.0" encoding="UTF-8"?>
<svg id="Layer_1" data-name="Layer 1" xmlns="http://www.w3.org/2000/svg" version="1.1" viewBox="0 0 1920 2400">
  <defs>
    <style>
      .cls-1 {
        fill: #064d87;
      }

      .cls-1, .cls-2, .cls-3, .cls-4, .cls-5, .cls-6, .cls-7, .cls-8, .cls-9, .cls-10, .cls-11, .cls-12, .cls-13, .cls-14, .cls-15, .cls-16, .cls-17, .cls-18, .cls-19, .cls-20, .cls-21, .cls-22, .cls-23, .cls-24, .cls-25, .cls-26 {
        stroke-width: 0px;
      }

      .cls-2 {
        fill: #004a86;
      }

      .cls-3 {
        fill: #525759;
      }

      .cls-4 {
        fill: #fafafa;
      }

      .cls-5 {
        fill: #515657;
      }

      .cls-6 {
        fill: #004984;
      }

      .cls-7 {
        fill: #020202;
      }

      .cls-8 {
        fill: #474a4a;
      }

      .cls-9 {
        fill: #f8f9f9;
      }

      .cls-10 {
        fill: #014a86;
      }

      .cls-11 {
        fill: #565a5c;
      }

      .cls-12 {
        fill: #454647;
      }

      .cls-13 {
        fill: #505456;
      }

      .cls-14 {
        fill: #515557;
      }

      .cls-15 {
        fill: #14578f;
      }

      .cls-16 {
        fill: #53585a;
      }

      .cls-17 {
        fill: #47494a;
      }

      .cls-18 {
        fill: #464748;
      }

      .cls-19 {
        fill: #004681;
      }

      .cls-20 {
        fill: #54595b;
      }

      .cls-21 {
        fill: #044b86;
      }

      .cls-22 {
        fill: #010203;
      }

      .cls-23 {
        fill: #a2a4a5;
      }

      .cls-24 {
        fill: #78848a;
      }

      .cls-25 {
        fill: #55595a;
      }

      .cls-26 {
        fill: #0e0e0e;
      }
    </style>
  </defs>
  <path class="cls-24" d="M965.3,2c-.9,3.9,1.3,7.1,2.6,10.4,30.2,80.7,60.4,161.3,90.6,242,37.9,101.2,75.9,202.4,113.9,303.6,54.9,146.3,109.9,292.7,164.8,439,62,165.3,124,330.7,186,496,58,154.8,116.1,309.5,174.1,464.3,52,138.6,103.9,277.1,155.9,415.7,2.1,5.5,2.6,11.7,8.1,15.5.7,3.5.5,7.5.7,11.5.2,3.9-2.8,1.2-5,2-110.3-63-219.6-126.2-329-189.3-91.5-52.8-182.9-105.6-274.3-158.4-93.4-54-187-107.9-280.3-162-7.4-4.3-13.2-4-20.3.1-121.5,70.7-243.3,140.9-365.1,211.1-154.1,88.9-308,178.1-462.2,266.7-18.2,10.4-36,21.6-55.3,31.4-2.2.5-3.9.2-5.5.5-4.1.8-2.9-2.1-3-5.1,4.9.4,4.4-4.2,5.3-6.4,6.6-17.1,12.9-34.2,19.3-51.4,32-85.3,64-170.7,96-256,55.9-149.2,111.9-298.3,167.8-447.5,54.1-144.2,108.2-288.4,162.2-432.5,57.9-154.5,115.8-308.9,173.8-463.4,54.1-144.2,108.1-288.4,162.2-432.5,37.4-99.6,74.8-199.3,112.1-298.9.6-1.5.9-3.2,1.3-5.5.9-.8,1.7-.8,3.3-.8Z"/>
  <path class="cls-22" d="M635.8,1985.8c-142.5,82.2-284.4,164.1-426.3,246-.6-.4-1.1-.8-1.7-1.2C459.4,1559.9,710.9,889.2,962.4,218.5c.7,0,1.4-.2,2.1-.3,251.4,670.4,502.8,1340.7,754.3,2011.4-4.7,1.2-6.9-1.1-9.3-2.5-120.6-69.6-241.2-139.3-361.8-208.9-125.5-72.5-251-144.9-376.4-217.6-6.3-3.7-10.7-2.6-16.3.7-100.1,57.9-200.2,115.7-300.3,173.5-6.1,3.5-12.1,7-18.8,10.9Z"/>
  <path class="cls-6" d="M454.5,1898.5c-40.5,50.4-80.5,100.3-120.4,150.2-2.5,3.2-7.6,7.1-2.6,10.7,4.1,3,6.8-2.7,9.1-5.6,55-68.6,109.9-137.2,165-205.8,55.9-69.6,111.9-139.1,167.8-208.7,41.7-51.9,83.3-103.9,125-155.9,1.2-1.5,2-3.5,5.3-4-2,15.2-3.8,30.1-6.3,44.9-.6,3.3-3.7,6.2-6,9-49.8,59.9-99.7,119.8-149.6,179.6-45,54-90.1,107.8-135.1,161.8-44.8,53.7-89.4,107.6-134.1,161.3-33,39.7-66.1,79.3-99.2,118.9-1,1.2-2,2.8-4.5,2.5-1.9-3.2.4-6.2,1.5-8.9,12.3-33.1,24.7-66.1,37.1-99.1,21-56.1,42.1-112.2,63.1-168.3,27.4-72.9,54.8-145.9,82.1-218.8,22.6-60.2,45.1-120.3,67.6-180.5,27.5-73.3,55-146.5,82.5-219.7,22.9-61.1,45.8-122.2,68.7-183.3,27-72,54-144,81-216,20.7-55.2,41.3-110.4,62-165.5,27.4-72.9,54.8-145.9,82.1-218.8,17-45.2,33.9-90.4,50.9-135.6,1.6-4.3,3.3-8.6,5.8-12.7,1.3,9.4-1.2,18.5-2.3,27.7-2.7,23.1-5.9,46.1-9,69.2-1.9,14.5-3.3,29.1-6.2,43.4-1.6,8-5.9,15.4-8.8,23.2-17.7,48.5-35.4,97-53.1,145.4-25,68.5-50,137-75,205.5-19.7,54.1-39.3,108.3-59,162.4-25,68.5-50,137-74.9,205.5-19,52.2-38,104.5-57,156.7-25.6,70.4-51.3,140.8-76.9,211.1-18.9,51.9-37.8,103.9-56.8,155.8-21.3,58.5-42.6,117-63.8,175.5-1.4,3.9-3.5,7.2-5.9,10.3-17,21.4-34.2,42.6-51.1,64-2.4,3-8.1,6.6-2.9,10.6,4.4,3.4,6.9-2.4,9.1-5.2,20.1-24.9,40-49.9,60-74.8,35.7-44.8,71.4-89.6,107.1-134.4,32.2-40.4,64.4-80.7,96.5-121.1,35.3-44.3,70.5-88.6,105.7-132.9,25.1-31.5,50.2-63,75.3-94.5,1.2-1.5,2.6-2.9,5-5.7.8,9.7-1.7,17.5-2.2,25.4-.3,5.7-3.1,10.1-6.9,14.7-32.8,40.3-65.3,80.9-97.8,121.4-31.5,39.2-63,78.4-94.4,117.7-30.8,38.5-61.6,77-92.4,115.4-20.2,25.2-40.5,50.4-61.2,76.1Z"/>
  <path class="cls-6" d="M1660,2159.2c-9.3-5-14.6-14.5-21.4-22.5-25.4-30-50.4-60.3-75.5-90.5-28.5-34.3-57.1-68.6-85.6-102.9-24.7-29.7-49.5-59.3-74.2-89-28.6-34.3-57.1-68.6-85.7-102.9-24.9-29.9-49.9-59.8-74.9-89.8-28.3-34-56.7-68.1-85-102.1-7.7-9.2-15.3-18.5-23-27.6-2.7-3.1-4.9-6.1-5.4-10.4-1.8-13.8-3.8-27.6-6-43.7,11.6,11.4,19.5,22.9,28.2,33.6,36.1,44.9,72,89.9,108,134.9,39.8,49.6,79.6,99.3,119.4,148.9,36.7,45.7,73.5,91.3,110.2,137.1,32.5,40.5,65,81.1,97.5,121.6.2.3.4.5.6.8,2.4,3.1,5,8.1,9.2,4.6,4.5-3.7-.9-7.2-3-9.9-11.7-15-23.7-29.7-35.5-44.5-25.4-31.7-50.7-63.5-76.2-95.1-31.3-39-62.6-77.9-93.8-116.8-36.5-45.4-73-90.9-109.4-136.3-36-45-71.9-90-108.1-134.9-15.5-19.2-30.3-38.9-46.8-57.2-1.4-1.6-2.5-3.3-2.7-5.2-.6-9.3-3.3-18.3-2.8-28,4.4,0,5.7,3.5,7.6,5.8,21.3,26.5,42.4,53.1,63.5,79.7,32.8,41.2,65.5,82.4,98.2,123.5,33,41.4,66,82.8,99,124.3,34.9,43.8,69.7,87.5,104.6,131.3,25.1,31.5,50.2,63,75.3,94.5,1.7,2.1,3.4,4.1,5.2,6,1.3,1.3,2.9,1.6,4.5.6,2-1.2,2.5-3.3,1.6-5.2-.8-1.8-2.2-3.3-3.5-4.8-16.7-21.2-33.2-42.6-50.4-63.3-5.8-7-8.3-15.2-11.2-23.2-27.7-75.7-55.1-151.4-82.6-227.1-35.1-96.3-70.4-192.6-105.5-289-28.4-77.9-56.5-155.9-84.8-233.8-32.4-88.8-64.9-177.6-97.3-266.4-27.6-75.7-55-151.5-82.5-227.2-20.7-56.9-40.7-114.2-62.6-170.6-6.8-17.5-8.6-35.3-11.2-53.2-3.3-22.4-6.1-44.8-9-67.2-1.7-12.5-3.3-25-5.1-38.7,3.1,2.1,3.5,4.6,4.4,6.8,36.8,98.2,73.5,196.4,110.3,294.6,38,101.3,76,202.6,114,303.9,40,106.6,80,213.2,119.9,319.8,44.1,117.5,88.1,235,132.2,352.5,35.9,95.7,71.8,191.4,107.7,287.1,32.9,87.6,65.8,175.1,98.7,262.7.5,1.2.7,2.6.9,4.6Z"/>
  <path class="cls-2" d="M818.4,1370.6c-1.8,11.5-3.4,22.4-4.6,33.3-.6,5.7-3.9,9.4-7.3,13.5-13.8,16.7-27.1,33.8-40.6,50.7-35.5,44.5-71,89-106.5,133.5-35.1,44-70.2,88-105.2,132-24.3,30.5-48.5,61-72.7,91.5-1.9,2.3-4.1,4.4-6.9,6.7,1.5-13.8,7.8-26.4,12.5-39.5,16-45.2,32.5-90.2,48.8-135.2,27-74.5,54-148.9,80.9-223.4,18.2-50.4,36.4-100.8,54.7-151.2,27.2-75.1,54.4-150.2,81.5-225.3,21.3-58.8,42.4-117.7,63.7-176.6,26.7-73.9,53.6-147.7,80.3-221.5,5-13.8,9.8-27.6,14.8-41.4,1.4-4,3.1-7.9,5.2-11.7,1.5,7.9-.7,15.5-1.7,23.1-4.7,37.6-10.1,75.1-15.1,112.6-4.8,35.6-9.4,71.2-14,106.7-.3,2.6-.2,5.3-.3,8.9q-4.1,7.5-12.7-3c-3.2,25.3-16,41.4-43.2,45.3,8.5,7.3,16.4,8.7,23.3,12,6.2,2.9,10.5,7,12.4,13.4,2.9,9.9,8.2,18.9,9.5,30.1-4,30.8-6.8,60.9-12.7,91.5-6.9,11.2-18.4,16.1-27.2,24.2-40.7,37.2-63.6,82.9-68.8,137.9-3.2,34.3,2.2,66.9,14.8,98.7,1,2.5,1.7,5.1,1,8.5-4,3.5-8,2.1-11.9,1.5-23.9-3.5-47.5-8.3-71-13.7,28,13.1,58.5,17,88.8,24.4,9.8,8.3,14.1,19.9,21.9,29,3.3,3.9,8.3,7,8.2,13.7Z"/>
  <path class="cls-10" d="M1036.6,825.1c-.2-16.5-3.5-31.8-5.3-47.4-2.8-23.8-6.2-47.4-9.4-71.1-3.8-28-7.5-56-11.3-84-.6-4.3-1.2-8.6-.5-13.1,3.3.9,3.3,3.9,4.1,6.1,31.4,86.7,62.7,173.4,94.1,260.1,31.4,86.7,62.7,173.4,94.1,260.1,30.6,84.5,61.2,169,91.8,253.5,36.8,101.7,73.6,203.4,110.4,305.1,15.4,42.6,30.9,85.1,46.4,127.6,1.2,3.4,2.2,6.8,3.3,10.2-2.8,1.1-3.6-.7-4.5-1.8-42.9-53.9-85.8-107.9-128.7-161.8-40-50.3-80.1-100.5-120.1-150.7-24.7-31-49.3-62.1-73.9-93.1-.2-.3-.4-.6-.6-.8-12.2-9.1-13.9-22.4-14.7-36.2,0-1.6-.7-3.2-1.3-5.7-1-4.7,1.9-6.9,4.1-9.2,15.3-15.8,27.8-33.6,38.4-53.7,4-4,8.6-4.8,13.1-6.1,17.6-5.2,34.9-11,50.3-21.4,4.7-3.2,9.2-6.6,12.7-11.1,8.4-10.7,8.1-20.5-1-30.5-10.9-11.9-25.1-18.4-39.9-23.7-4.3-1.6-9-2.5-13-6.5-3-11.3-3.1-22.3-5.3-33-3.7-18.3-9.8-35.8-17.7-53.6-1.7-14.4-.8-28-.9-41.6-.1-23-5-44.8-13.7-66-4.7-11.6-11.6-21.7-20.7-30.3-4.8-4.6-7.4-9.9-8.4-16.4-4.3-28.3-10-56.3-20.7-83-10-24.9-24.6-46.3-45-63.7-2.3-1.9-4.8-3.6-6.3-7.2Z"/>
  <path class="cls-4" d="M1622.8,2142.6c-1.3-.4-1.6-.5-1.9-.6-18.8-9.2-34-22.5-48.3-37.8-155.4-167.1-311.3-333.8-467-500.5-2.7-2.9-5-6.3-9.1-8.5-14.6,15.8-29.4,31.6-43.8,47.8-5.5,6.2-11.7,10.3-19.6,12.9-20.5,6.7-41,13.8-61.3,21.1-5.7,2-10.3,2.1-15.8-.9-22.8-12.4-46-24.1-68.9-36.3-5.1-2.7-10.3-4.3-16.1-4.6-16.6-.8-33.3-1.6-49.9-2.9-6.3-.5-10.2,1.3-14,6.6-40.6,56.2-81.6,112-122.1,168.1-6.5,9-14.2,16.7-22.4,24-109.2,97.8-218.5,195.5-327.7,293.3-7.5,6.7-17,10.4-26,16-1.8.6-2.8.2-3.4-1.6,50.8-56.5,101.4-112.2,152.1-167.9,124.8-136.9,249.6-273.8,374.4-410.7,2.2-2.4,4-5.3,7.6-7.1,15.6,13.7,31.4,27.5,47.2,41.3,23.6,20.6,47.1,41.3,70.6,62,6.3,5.5,5.3,5.9,12.1.2,37.4-31.7,74.7-63.3,112.1-94.9,3.6-3,7.1-6,10.8-9.1,3.7,1.4,5.6,4.7,7.9,7.3,130.3,144.5,260.6,289,390.9,433.5,44.4,49.2,88.8,98.5,133.6,148.3-.1.9-.7,1.2-2.3,1.2Z"/>
  <path class="cls-9" d="M1175.5,1220.4c14.2,3.7,27.4,9,39.8,16.3,6.6,3.9,12.6,8.6,17.2,14.9,6.9,9.6,6.9,19,0,28.6-5.5,7.8-13.2,13-21.4,17.5-17.5,9.8-36.5,15.7-56.4,21.2-3.3,4.5-8,4.7-12,5.7-22.7,5.6-45.7,9.1-68.9,11.6-10.5,1.1-16.4,6.2-20.3,15-10.2,22.8-20.9,45.3-32.7,67.3-2.5,4.7-4.5,9.7-10,13.1-8.1,11.9-15.3,23.4-23,34.6-16,23.4-33.8,45.4-54.4,64.9-2.5,2.4-5.3,8.2-9.4,3.9-3.4-3.5,1.9-6.3,4.1-8.8,24.1-27.3,44.7-57,62.5-89.5-.9-4,1.1-6.3,2.5-8.9,7.8-14.8,15.1-29.8,22.8-45.3,0-1.2,2.1-1.4.7-2.1-1.2-.6.6-.2-.6,1.3-21.5,19.6-42.3,39.1-67.8,53.7-14.9,10-29.1,19.9-43.4,29.5-13,8.7-26.4,16.6-40.6,23.3-2.4,1.1-4.8,2.2-7.3,3.1-1.4.5-2.5-.4-3.3-1.5-.9-1.3-.5-2.7.5-3.6,1.2-1.1,2.7-1.9,4.1-2.7,24.7-14.1,46.7-31.7,68.8-50.5,6.8-12.8,18.9-19.3,28.5-28.3,20.4-19.1,41.3-37.6,60.6-57.8,1.1-1.1,2.6-2.2,2.2-4.3-38.1.8-76.3.4-114.4.3-34.6-.1-69-3.9-103.3-8.2-3.4-.4-6.3-1.8-9.9-4.1-24.5-5.1-48.5-9.1-71.6-16.6-7.9-2.6-15.7-5.5-23.5-8.4-1.8-.7-3.8-1.9-2.7-4.5.8-1.8,2.5-2,4.2-1.7,2.3.5,4.5,1.1,6.8,1.7,25.1,6.6,50.5,11.6,77.1,14.8,4-2.9,7.7-2,11.3-1.5,57.5,7.7,115.4,6.7,173.2,6.2,21.6-.2,43.1-2.5,64.6-4.4,7.9-.7,12.7-4.4,14.9-12.2,2.2-7.7,4.8-15.2,7.4-23.6.5-1.3.6-1.9,1-3.2,5.4-14.3,7.8-28.6,11.7-43.3.3-1.2.4-1.7.7-2.9.8-2.6,1.4-4.5,1.9-7.2.2-1.3.3-1.8.5-3,2.6-14.3,6.6-27.6,7.2-42.3.2-1.4.2-2,.5-3.4,6-26.6,7.4-52.8,8.9-79,.7-13.3-1.1-26.6,1.6-40.7-2.3-15.2-.6-29.7-2.7-44.1-2.9-19.4-3.9-20.9-24.9-25-22.7-5.9-43.6-1.2-64.5,5.2-5.1,1.6-11.9,5.9-14.9-1.2-3-7.2,4.9-9,9.7-11.2,20.2-9,41.2-15.2,64.5-14.1,5.1.1,9.4.4,13.7,1,8.9,1.2,9.9.4,7.8-8-6.1-25.4-14.9-49.7-29.4-72.5-.7-1-1-1.4-1.8-2.3-.8-1-1.1-1.4-1.8-2.3-17.4-23.6-39.1-39-68.4-41.1-18.7-1.3-36.2,4.4-52.9,11.9-8.8,4-16.9,9.3-24.8,14.9-8.9,6.4-8.4,13.9,1.3,19.2,6.7,3.7,14,6.1,21,9.2,3,1.4,6.4,2.8,6.4,6.8,0,3.7-3.5,4.5-6,5.9-1.2.6-2.4,1.4-3.6,1.7-20.1,3.9-28.7,18-33.3,36.2-1,4-.9,10.5-8.2,9-3.6-11-7.5-21.2-10.8-31.6-1.5-4.6-4.3-7-8.6-8.7-7.7-3-15.3-6.3-22.9-9.5-2.1-.9-4.6-1.1-5.6-4.2,9.4-3.9,18.7-8.2,28.2-11.8,4.8-1.8,7.5-4.5,9.1-9.4,3.4-10.3,7.5-20.5,11.4-31,3.6,3.2,3.8,7.3,5.3,10.8,2,4.6,3.8,1.7,6-.4,8.9-7.3,17.4-14.2,26.3-20.4,14.2-9.9,29.4-17.9,46.2-22.7,26.7-7.6,52.4-6,77.5,8.4,33.5,22.6,50.4,55.5,62.1,92,6.8,21.3,10.6,43.2,13.7,65.3.5,3.4,1.1,6.2,3.9,8.7,19.8,18,29.2,41.5,34.7,67,5.2,24,4.9,48.2,3.4,73.4,2.1,10.9.1,20.7-1.8,30.5-10.2,51.6-29,99.6-59.4,142.8-.6.8-1.1,1.7-1.3,4.1,25.6-3.4,49.8-10.9,74.4-19.7,11.9-5.3,23.3-9.9,31.7-19.7,7-8.2,7.1-13.4.5-22.1-6-8-15.7-11-22.7-18.7-.9-2.8-.8-4.8.8-7.2Z"/>
  <path class="cls-19" d="M1418.8,1667.1c12.3,33.5,24.3,66.4,36.3,99.2,14.5,39.7,29,79.4,43.5,119.1.6,1.5,1.6,3,.8,4.9-2.5.8-3.1-1.6-4.2-2.9-2.8-3.3-5.1-7.1-8.2-10.1-13.6-13.5-18.5-31.3-24.7-48.4-35.6-98.3-71-196.6-106.5-294.9-28.1-77.6-56.2-155.2-84.3-232.9-38.8-107-77.5-214.1-116.3-321.1-32.8-90.4-65.6-180.9-98.3-271.3-15.2-41.9-30.2-83.9-45.4-125.9-2-5.6-3.9-11.3-7.1-16.5-3.5-5.6-2.3-12.3-3.4-18.5-2.1-11.7-3-23.7-4.5-35.6,2.9.4,2.9,2.8,3.6,4.6,23.7,65,47.4,130.1,71.1,195.2,30,82.2,60.1,164.5,90,246.7,19.8,54.4,39.5,108.9,59.3,163.3,27.5,75.4,55,150.7,82.5,226.1,16.6,45.7,33.2,91.4,49.8,137,21.5,59.1,43.1,118.2,64.6,177.3.5,1.3.8,2.5,1.5,4.5Z"/>
  <path class="cls-19" d="M542,1616c-22,60.8-43.8,120.9-65.5,181-6.4,17.8-12.9,35.7-19.1,53.6-5.4,15.6-17.8,26.1-27.8,39.6-.1-2.6.1-.6-.9-1.5-.2-.2-.5-.7-.4-.9,3-8.8,6-17.6,9.2-26.3,163.6-449.3,327.3-898.5,491.4-1349,1.7,4.4,1.1,7.4.7,10.3-.9,7.2-2.7,14.4-3.1,21.7-.7,10.4-3.7,19.9-7.4,29.6-17.8,47.7-34.8,95.7-52.2,143.6-26.8,73.9-53.6,147.7-80.3,221.5-15.3,42.2-30.4,84.6-45.7,126.8-27.4,75.7-54.9,151.5-82.3,227.2-17.9,49.5-35.7,98.9-53.5,148.4-20.9,57.9-41.9,115.8-63.1,174.4Z"/>
  <path class="cls-5" d="M790.2,1330.8c17.6,1.4,35.4,3.6,53.2,5.4,48.1,4.8,96.3,5.1,144.6,3.8,12.3-.3,24.6-1.1,36.9-1.7-3,9-37.6,42.6-97.1,93.8-32.2-6.9-60.8-20.4-86.3-40.4-7.9-6.2-13.9-14.3-22.9-20.2-2.9-6.7-8.9-10.4-12.6-15.9-5.4-7.9-11.1-15.7-15.9-24.8Z"/>
  <path class="cls-13" d="M1011,1432.1c14.3-27.7,28.6-55.8,41.1-84.9,3.6-8.3,9.8-12.8,19.9-13.8,27.1-2.7,54-7.5,81.4-14-3.9,14.8-13.6,26.6-22.6,38.8-5.9,8-12.9,15.1-20.2,22.6-14.8,12-29.3,23.4-45.9,32.1-16.8,8.8-34.3,15.5-53.7,19.2Z"/>
  <path class="cls-25" d="M1018.6,1379.5c-7.6,19.1-16.8,37.7-27.3,56.2-14.3.3-28.1.2-42.8,0,16.6-14.5,35-27.9,52-42.9,4.7-4.1,9.5-8.2,14.7-12.7,1.2-.6,1.8-.7,3.3-.6Z"/>
  <path class="cls-23" d="M305.1,2137.9c1.1.5,1.6,1.2,2.6,2.2-1.2,2.9-4,3.8-7.3,4.3.1-3.1,2.5-4.4,4.6-6.5Z"/>
  <path class="cls-24" d="M1622,2142.9c.3-.7,1-.8,2.5-1,2.6.5,4.3,2.1,3.2,3.1-2,1.9-3.6-.9-5.7-2.1Z"/>
  <path class="cls-2" d="M474.1,1832.1c-.2.9-.5,1.8-.8,2.7-1.2-.7-.7-1.5.2-2.6.4-.2.6-.1.6,0Z"/>
  <path class="cls-6" d="M1660,2160c1,.3,1.5,1,1.4,2.1,0,.2-.5.3-.7.5-.3-.5-.5-1.1-.7-2.1,0-.5,0-.5,0-.5Z"/>
  <path class="cls-10" d="M1008.8,604.7c-.3-1.1.1-1.6.5-1.2.2.2-.1,1-.5,1.2Z"/>
  <path class="cls-6" d="M266.8,2160.6c.2-.2.3.5.3.5,0,0-.6-.3-.3-.5Z"/>
  <path class="cls-23" d="M299.9,2143.9c.7.4.8.8,0,1.3-.2.1-.6,0-.8,0,1.3.3-.2-2.1.6-1,.4-.2.2-.3.2-.3Z"/>
  <path class="cls-19" d="M427,1893c0,0,0,0,0,0Z"/>
  <path class="cls-14" d="M1069.3,1223.5c.5,2.2.3,4-.2,6.2-7.8,5.2-16,3-23.8,3-7.7,0-10.9,2.9-10.6,10.7.3,8.3.8,16.7-.4,24.9-.8,5.9,2.1,6.8,6.7,6.9,4.6.1,9.4-.9,14.3,2.3-1.4,13-6.5,24.7-10.2,36.7-.9,2.9-2.9,4.1-5.9,4.4-8.9.9-17.8,2.2-26.8,2.9-55.8,4.2-111.6,5-167.5,1.1-20.6-1.4-41.1-3.3-62.3-6.4-8.3-18.8-15.2-37.5-17.3-57.6-1.7-15.4-3.4-30.7-1.9-46.5,1.8-19.7,5.6-38.7,12-57.3,8.2-23.9,21.4-44.9,37.1-64.5,13.2-16.7,29.8-29.3,47.4-41.9,9.7-11,22.5-15.3,34.9-19.9,57.3-21.3,113.6-18.3,169.5,8.5,8.4,5.7,17.4,9,24.4,16.6,1.4,28.5-.6,56.3-3.5,84-1.3,12.5-3.4,24.9-5.4,38.1-9.4,5.3-19.2,3-28.7,3.2-16.2.4-16.2.1-16.1,15.8,0,2.7,0,5.3,0,8,0,19.7-1.3,18.7,19.2,18.7,4.9,0,10-1,15.3,2.3Z"/>
  <path class="cls-7" d="M1066.4,1039.5c-10.8-3.3-20.8-7.9-31.2-11.3-59.6-19.1-116.7-13.3-170.9,18.3-.9.5-1.8.8-3.4,1.3,3.5-30.8,7.7-61.7,12.3-93.3,4.1.4,3.7-3.1,4.3-4.7,3.5-9,6.9-18,9.7-27.2,1.3-4.3,3.7-6.6,7.8-8.2,9.8-3.8,19.5-8,31.4-13-11.2-4.7-20.2-9.3-29.7-12.2-7.8-2.5-9.3-8.5-11.5-14.7-.8-2.4.2-3.7,1.9-5,28.1-20.8,57.8-36.8,94.5-31.8,20.6,2.8,37.4,13.1,51.6,27.9,3.9,4.1,7.2,8.7,11,13.7.4,1,.6,1.4,1.1,2.3.4.5.4.4.4.4,6.5,17.3,6.4,35.7,9.1,53.6,1.5,10,4.4,20.1,1.6,31.1-23.9.7-46,6.1-67.3,15.5-1.8.8-3.7,1.6-5.4,2.5-2.3,1.2-5.6,2.3-4,5.7,1.6,3.3,4.5,1.4,6.9.6,8.4-3.1,17-5.7,25.8-7.6,14.8-3.1,29.6-4.1,45.3-.8,7.9,18.3,9.2,37.2,8.6,56.9Z"/>
  <path class="cls-3" d="M1176.1,1219c-1,3.1-.6,5.4-.1,8.5,2.2,4,3.2,7.5,3,11.3-1,17-2.6,33.8-10.6,50.2-23.2,10.7-47.1,16.3-71.3,21-4.2.8-8.3,2.6-13.5,1.5,39.2-53.6,61.8-113.1,69.5-179.3,14.5,26.4,22,55.4,23,86.8Z"/>
  <path class="cls-11" d="M1079.6,1272.5c12.6-44.2,22.9-88.7,28.8-134.3,2.5-19.5,4.6-38.9,5.8-59.4,11,2,15.4,11.1,20.7,20.3.8,22.4-2.2,43.8-7.3,64.8-9.2,38-24.1,73.7-45.2,107.5-.9.8-1.4,1.1-2.8,1Z"/>
  <path class="cls-20" d="M1078.3,1177.7c-.5,14.9-4.3,28.9-7.4,43.8-10.6,2.4-20.9,1.1-31.1,1.4-5.2.2-6.9-2.8-6.9-7.5,0-10.9.4-21.8-.2-32.7-.3-5.5,2.9-5.7,6.9-5.6,12.6.2,25.1-.4,38.6.7Z"/>
  <path class="cls-21" d="M1066.3,1040.6c-2.9-19-5.4-37.4-7.8-56.8,2.7-.4,5.3-.1,7.9.6,17.9,5.1,17.9,5.5,20.1,24.2,1.8,14.6,1.8,29.2,2.7,44.7-8.2-2.5-15.1-7.7-22.9-12.7Z"/>
  <path class="cls-1" d="M1056.8,967.7c-3-17.6-5.2-35-7.3-52.3-1.3-10.5-2.6-21-3.7-32.4,8.3,8.5,13.2,19.8,18.1,31.1,7.6,17.7,13,36.2,16.7,55.8-8.1,1.3-15.3-2.5-23.7-2.1Z"/>
  <path class="cls-1" d="M1168.6,1289.5c.5-12.1,4.4-23.7,6.1-35.8,1.1-7.9.7-15.8,1.5-24.6,7.8,2.3,14.8,6.7,20.9,12.4,10.9,10.3,10.9,20.5.2,30.9-8,7.7-17.9,12.4-28.6,17Z"/>
  <path class="cls-20" d="M1067.3,1231.6c-1.1,15.2-6.1,29.1-10.1,44-1,.8-1.6,1.3-2.3,1.3q-21.8,1.4-21.8-20.1c0-5.6.4-11.3,0-16.9-.6-6.7,1.3-9.7,8.6-9.1,8.2.6,16.5,0,25.7.7Z"/>
  <path class="cls-26" d="M900.9,900.6c-2.3,4.6-7.3,5.2-11.5,6.7-5.1,1.9-8.2,4.9-9.6,10.2-1,3.8-2.7,7.4-3.9,10.5-1,.9-1.7.7-1.9-.1-2.8-13.1-10-21.9-23.6-24.7-.9-.2-1.6-1.1-2.6-1.8,6.8-3.2,14.3-4.9,18.9-9.5,4.2-4.3,5.4-11.6,8-17.9.8,1,1.4,1.5,1.5,2,2.3,13.7,11.1,21,24.6,24.6Z"/>
  <path class="cls-15" d="M1135.2,1099c-7.3-5.6-12.1-14.3-20.3-20.7-.7-18.2.6-36,.5-54.1,15.2,22.4,18.9,47.8,19.8,74.8Z"/>
  <path class="cls-12" d="M1079.4,1177.7c-12.7.4-25.3.2-37.9.4-7,0-7.3.5-7.5,7.3-.2,9.6-.2,19.2,0,28.8.2,6.3,1.4,7.6,7.7,7.7,8.9.3,17.9.1,27.8.2,1,.4,1,.7.7,1.5-10.2.4-20.2.5-30.2.4-7.7-.1-7.9-.3-8.1-7.8-.2-9.6-.3-19.3,0-28.9.1-3.5-3.9-7.2-.3-10.2,2.9-2.4,7.1-1,10.6-1,11.6,0,23.3,0,35.9.2,1,0,1.2,1,1,1.5Z"/>
  <path class="cls-12" d="M1068.5,1231.6c-9.3.4-18.3.6-27.3.3-5-.1-7.4,1.5-7.2,6.9.2,10,0,20,0,30,.1,6.8.4,6.9,7.7,7.2,4.3.1,8.7,0,14,.2,1,.4.9.7.6,1.5-7.2.4-14.2.4-21.1.4-3.8,0-5.8-2-4.8-5.6,3.1-11.4.9-23,1.6-34.5.4-7.5.4-7.7,8-7.8,8.9-.1,17.8,0,27.7.1,1,.4,1,.7.7,1.5Z"/>
  <path class="cls-23" d="M1078.4,1272.7c.9-.5,1.4-.6,2.8-.6.2,1.7,0,3.8-2.6,3.6-.3,0-.4-1.6-.2-2.9Z"/>
  <path class="cls-23" d="M1019.9,1379.3c-1,.5-1.6.5-3.1.5-.3-1.6.7-2.9,2.4-3.1,1.2,0,1.2,1.2.7,2.6Z"/>
  <path class="cls-1" d="M1045.9,881.7c-.8.4-1.2,0-1.4-1.2.8-.4,1.3,0,1.4,1.2Z"/>
  <path class="cls-23" d="M1077,1278.7c.1,0-.1,0,0,0Z"/>
  <path class="cls-16" d="M915.6,1236.9c.4-1.8.4-2.6.4-4.1,14.8-3,29.8-1.2,44.7-1.7,2.8,0,4.3,1.3,4.3,4.2,0,12.3,0,24.6,0,36.9,0,4.2-2.4,4.8-5.8,4.8-12,0-24-.2-35.9,0-5.9,0-8.5-2.3-8.3-8.3.3-10.3,0-20.6.6-31.8Z"/>
  <path class="cls-16" d="M916.9,1222.4c-.9-1.3-.9-2.2-.9-3.7-2.1-12.2-.6-23.8-.9-35.4-.1-4.7,2.9-6.3,7.2-6.3,12.3,0,24.6.1,36.9,0,4.3,0,5.9,1.6,5.8,5.8-.2,11.3-.2,22.6,0,33.9.1,4.8-1.7,6.4-6.4,6.3-13.6-.3-27.3,0-41.8-.7Z"/>
  <path class="cls-16" d="M904.5,1201.2c-.5,1.7-.5,2.6-.5,4.1.1,1,.4,1.3.4,1.6q1.9,16.1-13.8,16.1c-9.6,0-19.3.2-29.8-.6-.9-1.3-.9-2.2-.9-3.7-3-13.3.3-25.7,1.1-38.2.3-3.8,3.3-3.5,6-3.5,11.3,0,22.6.2,33.9,0,5.1-.1,6.2,2.3,6,6.7-.3,5.6-.8,11.2-2.5,17.6Z"/>
  <path class="cls-16" d="M859.6,1236.8c.4-1.7.4-2.6.4-4.1,13.5-3,27.1-1.1,40.7-1.7,2.8-.1,4.3,1.3,4.3,4.2,0,3,0,6-.5,9.9-.4,1.8-.4,2.7-.4,4.2,1,2,1.6,3.5,1.8,5.2q2.8,22.4-19.9,22.4c-2,0-4,0-6,0-22.8-.2-16.6,2.3-20.7-19.4-1.2-6.4-.3-13.3.3-20.8Z"/>
  <path class="cls-16" d="M937.5,1069.7c1.4.3,2.3.3,3.8.3,4.6-2.8,8.8-2.3,13.9-.5,2.9.5,5,.5,7.9.5,3.1,12.8,1.3,25.7,1.8,38.5.2,3.6-2,4.4-5.1,4.4-9.9,0-19.9,0-29.8,0-3.8,0-5.6-1.4-4.4-5.5.8-2.5,1.5-5.1,1.9-8.7.4-.9.4-.9.4-.9,2-2.7.5-5.9,1.6-9.4.4-.6.4-.6.4-.6,1.5-1.4.8-3.3,1.6-5.5.4-.5.4-.5.4-.5,1.8-3.4,2.3-7.2,3.6-11.4.4-.6.4-.6.4-.6.3-.2.7-.5,1.5-.3Z"/>
  <path class="cls-16" d="M806.4,1265.2c-.1,1.9.2,3,1,4.5,2.2,4,2.2,7.3-2.8,7.2-8.5-.3-17.2,1.8-26.1-2.1-.6-.8-.6-.7-.6-.7-2.2-11.6-4.6-23.1-5.1-35-.2-5.8,1.1-8.6,7.6-8.1,7.2.6,15.6-2.2,21.5.8,7.3,3.7,1.1,13.2,3.6,19.9,1.5,4,1.8,8.4.8,13.6Z"/>
  <path class="cls-8" d="M978.5,1122c11.3,0,21.6,0,31.9,0,4.6,0,6.9,1,7.9,6.3,2.3,11.7,2.7,23.6,5.1,35.3.9,4.3-1.7,6.2-5.6,6.4-6,.2-12,.1-18,.1-7,0-14,0-21,0-4.4,0-6.9-2.2-6.9-6.7,0-12,0-23.9,0-35.9,0-3.8,1.9-5.4,6.5-5.3Z"/>
  <path class="cls-17" d="M1007.9,1176c1.3,0,1.6,0,2,0,4.2.4,9.1-1.5,12.5,1.3,3.3,2.8.7,7.7,1.8,11.4,3,9.5,1.3,19.1,1.8,28.7.2,4.5-1.5,6.7-6.3,6.7-14-.1-27.9-.1-41.9,0-4.3,0-5.8-2.1-5.8-6.1,0-12,0-23.9,0-35.9,0-4.2,1.8-6,6-6,9.6,0,19.3,0,29.9,0Z"/>
  <path class="cls-17" d="M984.3,1230c12.3,0,23.6.2,34.9,0,5.2,0,6.7,2.1,7,7.1.6,12.3-1.2,24.5-2.2,36.6-.2,2.8-1.8,4.2-4.5,4.2-14.3,0-28.6,0-42.9,0-3.4,0-4.4-2.3-4.4-5.3,0-12.3,0-24.6,0-36.9,0-3.6,1.5-5.6,5.3-5.6,2,0,4,0,6.9,0Z"/>
  <path class="cls-8" d="M1007.5,1084.6c4.8,7.4,5.2,16.5,7.9,25,.9,2.8-1,4.4-3.8,4.4-11.6,0-23.3,0-34.9,0-3.4,0-4.6-2.1-4.6-5.2,0-12,0-24,0-35.9,0-4.5,2.4-6.7,6.8-6.7,3.7,0,7.3,0,11,0,13.8,0,16,2,18.1,17.2-4,1.3-5-2-6.3-4.4-2.2-3.9-5.3-5.5-9.7-5.8-10.9-.8-12.8.8-13,11.7,0,1.7,0,3.3,0,5,0,20.7,0,20.6,21.2,19.4,6.1-.3,8.5-2.3,7-8.5-1.3-5.1-3.1-10.3.4-16.1Z"/>
  <path class="cls-17" d="M966,1153.9c-.1,17.9,1.7,16-14.8,16.1-9,0-18,.1-27,0-7.9-.1-8.6-.7-8.1-8.7.5-7.6,1.7-15.1,2.7-22.7.3-2.3.9-4.5,1.1-6.8.8-9.2,1.1-9.6,10-9.7,9.7-.1,19.3.1,29,0,5-.1,7.3,1.7,7.1,7-.2,8,0,16,0,25Z"/>
  <path class="cls-8" d="M875.2,1124.9c.4-3.1,2.8-2.9,5.2-2.9,8.7,0,17.3-.1,26,0,7.1.1,7.7,1.1,7.7,8.2,0,4.4-2.1,8.3-2.2,12.7,0,6.9-2.5,13.7-2,20.7.2,4-2.3,6.1-6.3,6.2-12,0-24,0-36,0-4.4,0-6.4-2.4-5.4-6.3,2.1-8.3,2-17.2,7.7-24.7,3.5,5.5.8,10.5,0,15.6-.9,5.4.9,8.3,6.6,8.4,6.9,0,13.9.2,20.8,0,4.3-.2,7-2.3,7.3-6.6.5-7.3,1.8-14.4,2.7-21.6.8-5.8-1.8-7.6-7.2-7.8-7.9-.2-15.9.9-24.9-2Z"/>
  <path class="cls-8" d="M1071.1,1151.2c3.5.8,3.8,4,4.4,6.8,2.3,9.5.3,11.9-9.4,12-9,0-18,0-26.9,0-7.8,0-8.1,0-9.5-7.6-2.1-11.7-3.7-23.4-5.5-35.2-.4-2.6.5-5,3.4-5,12.2,0,24.5-1.2,36.7.7.5,0,.8,1,.7,2.7-8.8,1.9-17.1,1.2-25.4,1.3-6.4.1-9.4,2.6-8.1,9.2.3,1.3.5,2.6.6,3.9,3,27.7.9,22.2,26.8,23.2,8.5.4,11.4-3.2,12-12Z"/>
  <path class="cls-17" d="M822.9,1176c8.6,0,16.2-.2,23.9,0,6.6.1,8.2,1.7,6.9,7.6-2.4,11.1-1.8,22.4-3.4,33.5-.7,5-2.1,7.1-7.2,6.9-8-.2-16-.2-24,0-5.1.2-7.5-1.8-7-7,.9-8.9,1.7-17.8,2.9-26.6.4-2.6,1-5.2,1.1-7.8,0-3.9,1.9-6.2,6.8-6.6Z"/>
  <path class="cls-17" d="M818.6,1273.4c-3.9-2.1-2.8-6.3-3.4-9.6-1.6-8.7-2.2-17.6-3.1-26.5-.5-4.8,1.1-7.5,6.6-7.3,8.3.3,16.6.2,24.9,0,4.7,0,6,1.9,6.6,6.5,1.5,11.4,1.1,23.1,3.6,34.4,1.1,5-.5,6.9-5.4,7.1-8.6.2-17.3,0-25.9,0-1.7,0-3.2-.6-4.2-3.2,6.6-3.3,13.6-1.4,20.5-1.8,5.9-.3,8.4-2.9,8.2-8.6-.3-8-2-15.8-2.3-23.7-.1-3-1.9-4.8-5-5.2-1.3-.2-2.6-.3-4-.3-15.6-.9-17.1.7-16.6,16.3.3,7.2,3.7,14.3-.5,22.1Z"/>
  <path class="cls-12" d="M915.8,1222.5c13.8-.6,27.4-.6,41.1-.4,5,0,7.3-1.6,7.2-6.9-.2-10,0-19.9-.1-29.9-.1-6.8-.5-7.1-7.6-7.2-10.6-.1-21.3-.2-31.9,0-7,.1-8.2,1.3-8.3,8.2-.2,10,0,19.9,0,30.8-2.1-.7-2-3.1-2-5.4,0-9.3-.1-18.6,0-27.9.1-7.2.4-7.6,7.2-7.7,12.6-.2,25.3,0,37.9,0,4.3,0,7,1,6.9,6.1-.1,12,0,23.9,0,35.9,0,3.3-.8,6.1-4.8,6-15.2-.4-30.4,1.3-45.3-1.4Z"/>
  <path class="cls-12" d="M915.4,1236.6c.6,9.4.5,19.3.6,29.3.1,9,1,10,9.5,10.1,10.6.1,21.3,0,31.9,0,4.6,0,6.7-1.7,6.6-6.4-.2-10.3-.2-20.6,0-30.9.1-5.4-2.4-6.8-7.3-6.7-13,.2-25.9,0-39.8.1-1.7-2.1-.2-2.1,1.1-2.1,13.7,0,27.3.1,41,0,5.2,0,7.1,2,7,7.1-.2,11.3-.2,22.7,0,34,.1,5.2-1.9,7.1-7,7-12.7-.2-25.3-.2-38,0-5.1,0-7.3-1.8-7-7,.6-11.3-1-22.6,1.4-34.5Z"/>
  <path class="cls-18" d="M779.2,1178.9c8-5.1,17.6-2.4,27.1-2.6,4.2,0,4.1,4.1,3.5,6.9-1.1,5.9-1.2,11.9-2.3,17.7-1,5.6-1.7,11.1-1.5,16.8.1,4.7-2,6.5-6.6,6.4-7-.2-14-.2-20.9,0-4.6.1-6.5-1.7-6.6-6.4-.2-9,.4-17.8,4.1-26.5,4.2,5.8,1.9,11.7,1.3,17.5-.6,6.1.4,10.2,8,10.6,12.7.7,15.3-.3,15.7-8.8.2-5.6.9-11.2,1.7-16.7,1.8-12.1,1.5-12.4-10.4-12.6-4,0-7.9.2-13-2Z"/>
  <path class="cls-18" d="M859.4,1236.6c0,10.6,1.3,21.8,2.6,32.9.5,4.5,2.7,6.5,7,6.5,10.2,0,20.5.2,30.7,0,5.5-.1,6.9-1.7,6-7.5-.8-5.5-2.3-11-1.8-17.5,1.3-.6,2.7-.3,3.3,1,.4.9.5,1.9.7,2.9,2.7,22.5,2.1,23.2-20.5,23.2-7.3,0-14.6,0-21.9,0-2.9,0-4.9-.9-5.5-4.3-1.9-12.1-3.2-24.2-.6-37.1Z"/>
  <path class="cls-18" d="M904.8,1201.8c-.9-4.8-.3-9.6.8-14.6,1.7-7.2,0-9.1-7.2-9.2-10-.1-20,0-29.9,0-3.8,0-6.2,1-6.5,5.5-.6,10.9-2.9,21.7-2,33.6-4.1-7.9-2.4-17.4-1.5-26.3,1.4-14.8,2.1-14.8,17.4-14.8,7.6,0,15.3,0,22.9,0,9.1,0,9.5.2,9.1,9.6-.2,5.3,2.6,11.3-3.1,16.2Z"/>
  <path class="cls-18" d="M806.6,1265.5c-.8-9-3.6-18.3-2.7-27.9.3-3.6-1.6-5.5-5.3-5.5-6.3,0-12.6,0-18.8,0-4.3,0-5.8,2-5.8,6.1-.1,8,2,15.6,3,23.4.5,3.6.9,7.2,1,11.6-5.5-11.5-6.2-24.5-6-37.8,0-3.8,1.9-5.4,5.5-5.3,7.6,0,15.3,0,22.9,0,2.4,0,5.4.5,5.2,3.4-.9,10.6,4.4,20.8.9,32Z"/>
  <path class="cls-17" d="M927.4,1098.5c.9,3.8.1,8-.9,13.4,11.5,0,22.2,0,33,0,4.1,0,4.4-3.2,4.4-6.3,0-11.2,0-22.4,0-34.6,2-1.7,2.1-.2,2.1,1.1,0,11.6.1,23.2,0,34.9-.1,6.7-.4,6.9-7.8,7.1-8.6.1-17.3.1-25.9,0-8.2-.1-9.4-1.7-7.4-9.4.5-1.9,1.4-3.7,2.6-6.1Z"/>
  <path class="cls-8" d="M854.7,1156.3c1.3,1.1,1.3,2.4,1.3,3.7-.3,9.1-1,9.8-9.7,10-6.3.1-12.7.1-19,0-7.3-.2-8.1-1.2-6.2-8.3.4-1.6,1.1-3.1,2.8-4.7,8,9.4,22.5,9.2,30.7-.7Z"/>
  <path class="cls-8" d="M812.7,1158.2c1.3,1.8,1.3,3.8,1.2,5.8-.2,4-2.5,5.9-6.4,6-7.6,0-15.2,0-22.8,0-4.2,0-5-2.4-3.6-6,1.2-3.1,1.7-6.4,4.9-9,4.4,10.6,15.1,12.1,26.8,3.3Z"/>
  <path class="cls-18" d="M859.8,1222.5c12-.6,23.9-.4,35.7-.5,8.2,0,8.2-.2,8.5-8.2,0-2,0-3.9,0-6.8,3.7,3.4,1.7,8.6,1.7,13.3,0,2.9-2.3,3.8-4.9,3.7-13.8-.4-27.5,1.3-41.1-1.4Z"/>
  <path class="cls-18" d="M904.6,1245.4c-.6-14.7.8-13.4-14.1-13.4-9.5,0-19,0-29.5,0-1.2-3.7,1.7-2,3-2,11.2-.2,22.3-.2,33.5,0,8.4,0,8.6.3,8.5,9.1,0,1.9-.5,3.8-1.4,6.3Z"/>
  <path class="cls-8" d="M837.1,1124.9c8.3-5.1,18-2,27.9-2.8,0,6.6-1.7,11.8-4.9,17,.3-17.4-13.9-10.4-22.9-14.2Z"/>
  <path class="cls-17" d="M1059.4,1110.6c2,.9,2.3,2.9,0,3-11.3.3-22.5.3-33.8.3-1.9,0-3.1-1.1-3.4-3-.1-.6-.2-1.4,0-1.9,1-1.7,1.6-.1,1.8.5,1,2.2,2.8,2.7,4.9,2.6,9.9-.4,19.9.9,30.4-1.4Z"/>
  <path class="cls-17" d="M1037.5,1069.4c-7.9,1.3-16.4-1.2-24.5,2.4,3.1-7,12.6-8.2,24.5-2.4Z"/>
  <path class="cls-18" d="M778.2,1274.8c8.8,3,18.1.9,27.3.8,1.7,0,2.3-2.2,2.4-4.7,2.8,2.7,3.3,6.5-1.9,6.9-8.5.7-17.1,0-25.6-.2-.7,0-1.4-1.3-2.2-2.7Z"/>
  <path class="cls-8" d="M801.2,1126.4c-.9-3.1.7-4.4,3.4-4.4,7.2,0,14.3,0,21.3,0,1,2.9.2,5-2,7.3-7.4-4.7-14.6-2.2-22.7-2.9Z"/>
  <path class="cls-17" d="M955.8,1069.3c-3.9.7-8,.7-13,.7,3-5.1,6.2-5.4,13-.7Z"/>
  <path class="cls-8" d="M1066,1126c3.4,4.2,4.1,9.2,3.2,15.3-5.6-3.2-6.4-8.3-3.8-14.6.6-.6.6-.6.6-.6Z"/>
  <path class="cls-17" d="M935.4,1070.4c.8,3.6.3,7.4-2.9,11.1-.8-3.6-.3-7.4,2.9-11.1Z"/>
  <path class="cls-8" d="M818.6,1140.1c1.7,4-.1,7.4-2.6,11-2.8-4.2-2.6-7.9,2.6-11Z"/>
  <path class="cls-18" d="M776,1190c.3-3.6-.7-7.4,1.4-11.5.6-.5.6-.5.6-.5,3,4,3.5,7.9-1.1,11.9-.9,0-.9,0-.9,0Z"/>
  <path class="cls-17" d="M929.5,1088.5c.3,2.5,1.2,5.6-.9,9-.3-2.5-1.2-5.6.9-9Z"/>
  <path class="cls-8" d="M856.6,1148.4c1.2,2,1.8,4.4,0,7.1-.5.5-.5.5-.6.5-2.1-2.2-2.2-4.6.6-7.6Z"/>
  <path class="cls-8" d="M824,1156c.1-2.4-.4-4.8,2-7,2.1,2.8,2.1,5.2-1.2,7-.8,0-.8,0-.8,0Z"/>
  <path class="cls-8" d="M1070,1142c2.4,1.6,1.9,4.2,2,7.3,0,.7,0,.7,0,.7-4.4-.6-3.7-3.6-2.6-7.3.6-.7.6-.7.6-.7Z"/>
  <path class="cls-8" d="M860,1140c-.1,2.4.4,4.8-1.5,7.5-.5.5-.5.5-.6.5-2.3-2.7-2.2-5.3,1.1-8,.9,0,.9,0,.9,0Z"/>
  <path class="cls-8" d="M870,1138c.1-2.4-.4-4.8,2-7,2.1,2.8,2.1,5.2-1.2,7-.8,0-.8,0-.8,0Z"/>
  <path class="cls-17" d="M1048,1084.6c.5-.2,1.2,0,1.4.6.5,1.1,1,2.3,1.1,3.5,0,.6-1.2.7-1.5,0-.5-1.1-.7-2.3-1-4.2Z"/>
  <path class="cls-17" d="M931.5,1082.4c.5,1.4.7,3.2-1,5.2-.5-1.4-.7-3.2,1-5.2Z"/>
  <path class="cls-8" d="M816,1152c0,1.8.2,3.6-1.5,5.6-.5.4-.5.4-.5.4-1.7-2.1-1.6-4.1,1.2-6,.8,0,.9,0,.9,0Z"/>
  <path class="cls-8" d="M789.3,1149.7c-1.3-1.4-1.5-3.3.6-4.7,1.5,1.6,1.5,3-.6,4.7Z"/>
  <path class="cls-8" d="M829.3,1143.7c-1.3-1.4-1.5-3.3.7-4.7,1.5,1.6,1.5,3-.7,4.7Z"/>
  <path class="cls-8" d="M820.7,1134.3c1.3,1.4,1.5,3.3-.2,5.2-.5.4-.5.4-.5.4-1.7-1.6-1.7-3.4.7-5.7Z"/>
  <path class="cls-8" d="M830,1138c0-1.8-.2-3.6,2-5,1.7,2.2,1.5,4-1.2,5.2-.7-.1-.7-.1-.7-.1Z"/>
  <path class="cls-8" d="M872,1130c0-1.8-.2-3.6,1.5-5.6.5-.4.5-.4.5-.4,1.6,2.1,1.7,4.1-1.2,6-.8,0-.9,0-.9,0Z"/>
  <path class="cls-17" d="M1020.7,1099.8c1.2.4,1.2,1.2.9,2.1,0,.2-.6.6-.7.5-.9-.6-.8-1.4-.2-2.6Z"/>
  <path class="cls-17" d="M1018.7,1091.8c1.2.4,1.2,1.2.9,2.1,0,.2-.6.6-.7.5-.9-.6-.8-1.4-.2-2.6Z"/>
  <path class="cls-17" d="M1017.8,1085.4c-1.4,1.7-1.5.3-1.5-.4,0-.5.5-1,.7-1.5.3.5.6,1,.8,1.9Z"/>
  <path class="cls-17" d="M1058,1105.5c-.8,0-1.5-.5-1.4-1.6,0-.2.5-.3.7-.5.2.5.5,1.1.7,2.1Z"/>
  <path class="cls-17" d="M1015.5,1078c-.5.8-.9.7-.9,0,0-.7.4-.8.9,0Z"/>
  <path class="cls-17" d="M1052.8,1093.5c.3.2.4.7.4,1.1-.2-.3-.4-.6-.4-1.1Z"/>
  <path class="cls-8" d="M786,1154c.3-1.1.7-2.2,1.5-3.7.5-.3.5-.3.5-.3,1.2,1.5.9,2.8-1.2,4-.8,0-.8,0-.8,0Z"/>
  <path class="cls-17" d="M1060,1110c-1.1-.6-1.7-1.6-2-3.4,0-.6,0-.6,0-.6,1.1.6,1.7,1.6,2,3.4,0,.6,0,.6,0,.6Z"/>
  <path class="cls-8" d="M835.2,1127.8c-.9-.9-.5-2,.3-3.5.5-.3.5-.3.5-.3,1.1,1.1,1.1,2.3-.8,3.8Z"/>
  <path class="cls-8" d="M826,1148c.3-1.1.7-2.2,1.5-3.7.5-.3.5-.3.5-.3,1.2,1.5.9,2.8-1.2,4-.8,0-.8,0-.8,0Z"/>
  <path class="cls-8" d="M832,1132c.3-1.1.7-2.2,1.5-3.7.5-.3.5-.3.5-.3,1.2,1.5.9,2.8-1.2,4-.8,0-.8,0-.8,0Z"/>
  <path class="cls-8" d="M824,1130c-.3,1.1-.7,2.2-1.5,3.7-.5.3-.5.3-.5.3-1.2-1.5-.9-2.8,1.2-4,.8,0,.8,0,.8,0Z"/>
  <path class="cls-8" d="M795.2,1135.8c-.8-.9-.5-2,.7-2.9,1,1.1.9,1.9-.7,2.9Z"/>
  <path class="cls-8" d="M793.2,1139.8c-.9-.9-.5-2,.3-3.4.5-.3.5-.3.5-.3,1.2,1.1,1.1,2.3-.8,3.8Z"/>
  <path class="cls-8" d="M796,1132c.3-1.1.7-2.2,1.9-3.1,1.1,1.6.7,2.8-1.2,3.3-.6-.2-.7-.2-.7-.2Z"/>
  <path class="cls-8" d="M790,1144c.3-1.1.7-2.2,1.5-3.7.5-.3.5-.3.5-.3,1.2,1.5.9,2.8-1.2,4-.8,0-.8,0-.8,0Z"/>
  <path class="cls-17" d="M1048,1084c-.2-.3-.5-.6-.7-.8.2,0,.3.2.6.6.1.3.1.3.1.3Z"/>
  <path class="cls-17" d="M937.9,1069.7c-.2.3-.5.3-1.4.3-.1-.7.2-1.4,1.4-.3Z"/>
  <path class="cls-17" d="M1038,1070c.2.3.5.6.7.8-.2,0-.3-.2-.6-.6-.1-.3-.1-.3-.1-.3Z"/>
  <path class="cls-17" d="M1054.9,1098.9c.1,0-.1,0,0,0Z"/>
  <path class="cls-8" d="M798,1128c.2-.6.6-1.2,1.6-1.8.4-.2.4-.2.4-.2.3.9.1,1.7-1.3,2.1-.7-.1-.7-.1-.7-.2Z"/>
  <path class="cls-17" d="M1161.3,1267.9c.4,10,.4,10.1-9,10.1-6.3,0-12.6,0-18.9,0-3.7,0-5.5-1.4-4.5-5.5,2.4-10.7,3.5-21.4,3.3-32.4-.1-8.2,1.9-9.9,9.9-10,6-.1,11.9-.1,17.9,0,7.7.2,8.7.7,7.9,8.8-1,9.4-1.6,19-5.3,28.7-5.7-5.6-1.9-12.3-1.6-18.6.6-12.6-1.5-14.8-13.8-14-5.1.3-7.7,2.3-8.6,7.5-1.3,7.5-1.4,15.2-2.7,22.7-1,5.7,1.8,7.6,7.1,8,6.6.4,12.5-.9,18.2-5.2Z"/>
  <path class="cls-16" d="M1020,1158.1c.3,5.1-.8,8-5.9,7.9-10.7-.2-21.3-.1-32,0-4.1,0-6.1-1.6-6.1-5.9.1-10,0-20,0-30,0-4.1,1.5-6.2,5.8-6.1,9.3.1,18.7.1,28,0,4.1,0,5.8,1.5,6.3,5.7,1,9.2,2.5,18.3,3.9,28.4Z"/>
  <path class="cls-16" d="M1001.9,1222c-7.3,0-13.6-.1-19.9,0-4.2,0-6-1.8-6-6,0-10.6,0-21.3,0-31.9,0-4.1,1.6-6.1,5.9-6.1,11.3,0,22.6,0,33.9,0,4,0,6.2,1.4,6.2,5.8,0,9.3,0,18.5,1.7,27.7,1.5,8.5-.9,10.3-9.9,10.5-3.7,0-7.3,0-12,0Z"/>
  <path class="cls-16" d="M998,1232c7,0,13,.2,18.9,0,5.1-.2,7.7,1.7,7,6.9-1.5,10.8-2.3,21.7-2.1,32.6,0,2.8-1.6,4.3-4.3,4.3-12.3,0-24.6,0-36.9,0-3.4,0-4.6-2.1-4.6-5.2,0-11.3,0-22.6,0-33.9,0-3.3,1.9-4.8,5-4.8,5.3,0,10.6,0,16.9,0Z"/>
  <path class="cls-16" d="M1008,1084c-.7,7.1,1.5,13.7,3.1,20.5,1.5,6,.5,7.3-5.4,7.4-8,.2-15.9,0-23.9,0-4.3,0-5.9-2-5.9-6.1,0-10,0-19.9,0-29.9,0-4.1,1.6-6.3,5.9-6,1,0,2,.1,3,0,11.1-1.9,19.4.9,22.6,13.6.6.4.6.4.6.4Z"/>
  <path class="cls-16" d="M922,1136.2q2.4-12.1,13.1-12.1c7.6,0,15.3,0,22.9,0,4.2,0,6,1.7,6,5.9,0,10-.1,19.9,0,29.9,0,4.9-2.3,6.3-6.8,6.2-11-.1-21.9,0-32.9,0-6-.1-6.3-.6-5.2-6.4,1.4-7.5.3-15.2,2.8-23.4Z"/>
  <path class="cls-16" d="M872,1130.7c1.8-1.8,2-3.6,2-6,10.6-.7,21.2-.8,31.8-.6,5.8.1,5.6.5,5,6.6-.8,8.5-3,16.8-3,25.5,0,8.1-2,9.7-10.1,9.8-8.3.1-16.6.2-24.9,0-6.2-.1-7.5-1.7-6.7-7.9.8-6.2,3.7-12,3.9-19.2,2.4-2.5,1.9-5,2-8.1Z"/>
  <path class="cls-16" d="M1069.4,1141.5c.7,2.9.1,5.3,2,8,.6,4.1.4,7.7,1.7,11.3,1.3,3.4-.5,5.1-3.9,5.1-11,0-21.9,0-32.9,0-2.8,0-4-1.6-4.4-4.4-1.2-9.5-2.9-18.9-4-28.4-.9-7.9.3-9.2,8.7-9,9.2.2,18.6-1.5,28.4,1.6.3,5.6,1.4,10.6,4.2,15.8Z"/>
  <path class="cls-16" d="M817.3,1220.6c-2.6-12.6-.8-24.4,1-36.2.6-3.9,2.8-6.6,7.4-6.5,6.3.2,12.6,0,18.9,0,3.8,0,5.4,1.9,5.3,5.5,0,4.3.8,8.9-.3,12.9-1.7,6.3-1.7,12.5-1.6,18.7,0,4.5-1.4,7-6.2,6.7-7.9-.4-15.9.8-24.5-1.3Z"/>
  <path class="cls-16" d="M818,1274c.6-10.9-2.9-21.6-2.1-32.6.7-9.2.2-9.3,9.6-9.4,5.6,0,11.3,0,16.9,0,2.9,0,5.7.8,5.4,4.3-.8,11,2.8,21.6,2.3,32.6-.2,5-1.7,7.5-6.9,7.1-7.9-.6-15.9,1.3-24.4-1.7-.8-.3-.8-.3-.8-.3Z"/>
  <path class="cls-16" d="M776,1190.9c3.3-3.8,1.5-7.8,2-12.1,8-.8,16-.8,24-.8,4,0,6.1.9,5.2,5.9-1.8,10.1-3.6,20.2-3.3,30.6.2,6.9-.4,7.2-7.4,7.4-5.3.2-10.7-.1-16,0-4.7.2-6.3-1.8-6.6-6.5-.4-6.1,1.8-11.8,2.1-17.8,0-2,0-4,0-6.9Z"/>
  <path class="cls-16" d="M832,1132.7c1.1-1.3,1.7-2.2,2-4.1,1.1-1.2,1.8-2.2,2-4,7-.6,13.9-.6,20.8-.6,3.7,0,5.8,1.5,4.3,5.5-1.1,2.9-1.1,5.8-1.1,9.6-2.4,2.5-1.9,5-2,8.1-2.4,2.4-1.9,4.9-2,8q-4,10.7-15.8,10.7c-2.6,0-5.2,0-7.9,0q-7.5-.2-8.3-9.1c2.4-2.5,1.9-5,2-8.1,1.1-1.4,1.7-2.3,1.9-4.1,1.8-1.7,2-3.4,2-5.9,1.8-1.7,2-3.5,2-6Z"/>
  <path class="cls-16" d="M798,1128.6c.7-.8,1.2-1.2,1.8-2.2,6.8-3.9,13.9-2.2,20.7-2.2,2.5,0,3.2,2,3.4,4.9-1.1,1.4-1.7,2.4-1.9,4.2-1.8,1.7-2,3.4-2,5.9-4.8,2.8-3.9,7.2-4,11.9-1.8,1.8-2,3.6-2,6.1-2.6,6.7-6.7,10-13.7,8.7-1.6-.3-3.3,0-4.9,0q-10.6,0-9.4-11.2c1.1-1.4,1.7-2.4,1.9-4.2,1.8-1.7,2-3.4,2.1-5.9,1.1-1.3,1.7-2.2,2-4.1,1.1-1.2,1.8-2.2,2-4,1.1-1.2,1.8-2.2,2-4,1.1-1.2,1.8-2.2,2-4Z"/>
  <path class="cls-16" d="M1162,1268c-2.6,6.1-6.8,9.2-13.7,8.1-2.9-.5-6,0-8.9-.1-6.7-.3-8.5-1.9-7.1-8.5,2.1-10,2.3-20.3,3.7-30.4.5-3.8,2.3-5.2,5.8-5.1,1.7,0,3.3,0,5,0,19.4.5,17.2-3.8,17.1,18.6,0,5.2-2.7,10.3-1.9,16.5,0,.9,0,.9,0,.9Z"/>
</svg>