<?xml version="1.0" encoding="UTF-8"?>
<svg id="Layer_1" data-name="Layer 1" xmlns="http://www.w3.org/2000/svg" version="1.1" viewBox="0 0 1920 1707">
  <defs>
    <style>
      .cls-1 {
        fill: #fdfdfd;
      }

      .cls-1, .cls-2, .cls-3, .cls-4, .cls-5, .cls-6, .cls-7, .cls-8, .cls-9, .cls-10, .cls-11, .cls-12, .cls-13, .cls-14, .cls-15, .cls-16, .cls-17, .cls-18, .cls-19 {
        stroke-width: 0px;
      }

      .cls-2 {
        fill: #919395;
      }

      .cls-3 {
        fill: #008ad3;
      }

      .cls-4 {
        fill: #008ed9;
      }

      .cls-5 {
        fill: #ede79a;
      }

      .cls-6 {
        fill: #8f9294;
      }

      .cls-7 {
        fill: #8d8f92;
      }

      .cls-8 {
        fill: #f9fafa;
      }

      .cls-9 {
        fill: #fcfcfd;
      }

      .cls-10 {
        fill: #909294;
      }

      .cls-11 {
        fill: #8e9193;
      }

      .cls-12 {
        fill: #eae598;
      }

      .cls-13 {
        fill: #0e263a;
      }

      .cls-14 {
        fill: #e8e397;
      }

      .cls-15 {
        fill: #e6e8ea;
      }

      .cls-16 {
        fill: #95989a;
      }

      .cls-17 {
        fill: #909395;
      }

      .cls-18 {
        fill: #eee89a;
      }

      .cls-19 {
        fill: #008ad4;
      }
    </style>
  </defs>
  <path class="cls-4" d="M962.6,1c2,5.1,3.4,10.4,5.3,15.4,6.3,16.9,12.7,33.8,19.1,50.7,9.5,25.3,19,50.5,28.5,75.8,7,18.9,13.8,37.8,20.9,56.7,4.5,12,9.3,24,13.9,36,7,18.4,13.9,36.8,20.8,55.2,9.5,25.4,19.1,50.8,28.6,76.2,5.8,15.5,11.6,31.1,17.4,46.6,4.5,12,8.9,24.1,13.4,36.1,4.4,11.9,8.9,23.7,13.4,35.6,9.6,25.6,19.2,51.1,28.8,76.7,7.1,18.9,14.2,37.7,21.3,56.6,10.6,28.2,21.2,56.3,31.7,84.5,8.3,22.2,16.5,44.5,24.9,66.7,10,26.8,20.1,53.6,30.2,80.4,11,29.4,22.1,58.8,33.1,88.1,11.6,30.9,23.3,61.8,34.8,92.7,8.3,22.4,16.3,44.9,24.7,67.3,8.4,22.4,17.1,44.7,25.5,67,7,18.6,13.9,37.2,20.8,55.7,8.6,23,17.3,46,26,68.9,7.6,20.2,15.2,40.5,22.8,60.7,9.6,25.6,19.1,51.2,28.7,76.7,13.5,35.9,27.1,71.8,40.6,107.7,9.1,24,18.1,48.1,27.1,72.2,5,13.2,9.9,26.5,14.9,39.7,6.5,17.5,13,35,19.5,52.6.3.7.9,1.3,1.6,1.7.3,1.9.3,4.2.3,6.7-1.3,0-2.7,0-4.2-.3-4.9-3.2-9.6-6.1-14.3-8.9-19.3-11.2-38.6-22.4-57.9-33.6-14.7-8.5-29.4-16.9-44.1-25.4-19-11-38.1-21.9-57.1-32.9-16.3-9.5-32.5-19.2-48.9-28.6-20.6-11.8-41.3-23.4-61.9-35.2-19.3-11.1-38.5-22.5-57.8-33.7-23.4-13.5-46.9-26.9-70.3-40.4-15.3-8.8-30.4-17.8-45.7-26.6-21.7-12.5-43.5-24.8-65.2-37.3-17.1-9.9-34-20-51.1-29.9-15.7-9.2-31.7-18-47.3-27.5-13-8-12.8-8.3-26.3-1.2-.4.2-.9.4-1.3.6-22.8,13.3-45.6,26.6-68.4,39.9-13.9,8.1-27.9,16.1-41.9,24.2-16.3,9.5-32.5,19.2-48.9,28.6-18.3,10.6-36.8,20.9-55.1,31.4-21.1,12-42.1,24.1-63.1,36.2-21.7,12.5-43.3,25.2-64.9,37.8-23.5,13.6-47,27.3-70.5,40.8-26,14.9-52,29.8-77.9,44.7-21.3,12.3-42.6,24.6-63.9,36.9-21,12.1-42.1,24.3-63.1,36.5-1.5.9-2.5,2.6-3.8,3.9h-5c0-2,0-4,0-6.5.7-1,1.7-1.4,1.9-2,10.4-27.7,20.7-55.4,31.1-83.1,11.1-29.5,22.4-59,33.5-88.5,7.9-21,15.6-42.1,23.4-63.1,8.7-23.1,17.5-46.2,26.2-69.4,6.9-18.2,13.7-36.5,20.5-54.7,9.6-25.6,19.2-51.1,28.8-76.7,8.4-22.4,16.7-44.8,25.1-67.2,10.6-28.3,21.3-56.6,31.9-84.9,8.6-23.1,17.1-46.4,25.7-69.5,9.7-25.9,19.6-51.7,29.3-77.6,12.7-33.6,25.3-67.3,37.9-100.9,8.6-22.8,16.9-45.8,25.5-68.6,13.8-36.8,27.7-73.7,41.6-110.5,9.7-25.7,19.4-51.4,29.1-77.1,4.9-13.1,9.7-26.2,14.6-39.3,9.1-24.2,18.3-48.3,27.3-72.6,9.3-25,18.2-50.1,27.5-75,13.6-36.2,27.5-72.4,41.2-108.5,9.2-24.2,18.2-48.3,27.3-72.5,5-13.2,9.9-26.5,14.8-39.7,13.2-35.7,26.3-71.4,39.5-107,9-24.2,18.1-48.4,27.3-72.6,2.3-6.2,4.8-12.4,6.9-19,.8-.3,1.9-.3,3.3-.3M1065.3,1337.2c143.9,83.1,287.9,166.2,431.8,249.4.4-.3.8-.6,1.2-1-178.9-477.1-357.8-954.3-536.7-1431.4-.4,0-.8,0-1.3.1-178.9,477.1-357.7,954.1-536.6,1431.2.3.3.7.6,1,.8,1.4-.7,2.8-1.4,4.2-2.2,40.4-23.3,80.8-46.6,121.2-70,135.8-78.4,271.6-156.8,407.3-235.3,2.7-1.6,4.6-1.4,7.2.1,33.3,19.3,66.6,38.6,100.6,58.2Z"/>
  <path class="cls-13" d="M1065,1337c-33.7-19.4-67-38.6-100.3-58-2.6-1.5-4.5-1.7-7.2-.1-135.7,78.5-271.5,156.9-407.3,235.3-40.4,23.3-80.8,46.7-121.2,70-1.4.8-2.8,1.5-4.2,2.2-.3-.3-.7-.6-1-.8,178.9-477.1,357.7-954.1,536.6-1431.2.4,0,.8,0,1.3-.1,178.9,477.1,357.8,954.3,536.7,1431.4-.4.3-.8.6-1.2,1-143.9-83.1-287.9-166.2-432.1-249.5M816.2,1096.8c10.7-16.5,21.4-33.1,32.7-50.5-13.9,0-26.5.1-39.1,0-3.3,0-5,1.2-6.7,3.9-14.7,24.2-29.5,48.4-44.2,72.5-1.1,1.7-2.2,3.4-3.6,5.6-1.4-2.2-2.4-3.7-3.3-5.2-14.5-23.9-29.1-47.8-43.5-71.8-2.1-3.6-4.3-5.1-8.6-5-11.2.3-22.3.1-33.5.1-1.4,0-2.8.2-4.8.3,1.4,2.1,2.3,3.7,3.3,5.2,21.5,33.7,43,67.4,64.7,100.9,2.4,3.7,2.2,6.1,0,9.7-22.4,35.5-44.6,71.1-66.9,106.7-.9,1.4-1.7,2.9-2.9,5,14,0,26.9-.1,39.9,0,3.3,0,5-1.1,6.6-3.9,13.3-22.9,26.8-45.7,40.3-68.5,2.6-4.4,5.2-8.8,8.2-13.7,1.4,2.2,2.5,3.8,3.5,5.5,13.1,21.7,26.2,43.3,39.3,65,3.1,5.1,5.3,12.1,9.8,14.6,4.6,2.6,11.7.8,17.6.8,8.4,0,16.8,0,26,0-1.3-2.2-2-3.7-2.9-5-22.7-35.9-45.4-71.8-68.2-107.6-2-3.1-2.2-5.2,0-8.4,12.2-18.5,24.2-37.1,36.6-56.3M917,701.6c24,15.9,49.5,17.8,75.7,6.9,18.8-7.8,31.1-22.4,39.3-41.2h-141.9c6,14,14.6,25.1,26.9,34.3M993.2,522.2c4.4,7.3,10.5,12.3,18.7,14.9,6.5,2.1,12.9,4.5,19.3,6.9,9.4,3.6,16.6,9.9,21,19,2.6,5.2,5.2,10.6,6.6,16.2,3.5,14.4,6.3,28.9,9.7,43.4.5,2,2.7,3.6,4.1,5.5,1.1-1.9,2.2-3.8,3.3-5.7.2-.3.1-.7.1-1,1.7-23.7,1.7-47.2-2-70.8-3.7-23.8-16.4-39.5-39.8-46.2-2.9-.8-5.7-2-8.5-3-14.8-5.6-27.6-13.9-37.4-26.6-1-1.3-2.5-2.1-3.8-3.2-.5.3-1,.5-1.5.8-1,17.2,1.4,33.7,10.2,49.9M889.7,623.2c-2,3.1-5.1,6-5.9,9.4-1.8,8,2.8,14.1,10.7,15.8,8.3,1.8,15-2,17.5-10,6.4-20.8-6.3-42.6-27.8-47-5.5-1.1-11.3-1.5-16.9-1.1-24.1,1.6-37,18.3-31.6,41.8,1.9,8.4,5.5,17.1,10.7,23.8,7.3,9.5,16.7,17.5,25.5,25.8,5.2,4.9,5.7,6.5,2.6,12.7-1.7,3.3-3,7.1-3.3,10.8-.8,8.8,3.9,13.7,12.7,14.5,8.7.8,14.2-3.4,15.4-11.9.9-5.9-.1-11.5-4-16-5.4-6.4-10.9-12.6-16.9-18.4-8.9-8.7-16.5-18.3-21.1-30-3.7-9.4-6.1-19.1-3.6-29.3,2.2-8.7,8-14.2,16.1-14.9,8.7-.7,16.1,2.1,21.9,8.7,5.9,6.7,5.6,9.5-2.3,15.3M917.2,745.9c-10.7,2.9-21.4,5.8-32.1,8.7v7.4h151.8v-7.9c-.7-.2-1.4-.5-2-.6-14.9-2.8-29.8-5.6-42.9-14.1-1.1-.7-2.9-.6-4.3-.6-17.8,0-35.6,0-53.5,0-2,0-4.1.8-6,1.7-3.5,1.5-6.9,3.4-11,5.4M951.9,532.6c.5,2.4,1,4.9,1.5,7.3,3.2,15.8,12.6,26.1,28,30.9,5.2,1.6,10.4,3.5,15.7,5.1,22.5,6.5,40.4,19.2,52.6,39.5,1.2,2,3,3.6,4.5,5.4.6-.2,1.1-.5,1.7-.7-.4-2.4-.6-5-1.4-7.3-5-13.7-12.4-25.7-23.2-35.7-12.7-11.8-27.6-20.3-42.9-28.2-9.8-5-17.3-12.2-21.6-22.1-4.4-10.2-7.4-21-10.9-31.5-.8-2.3-1.5-4.6-2.3-6.8-.7.1-1.5.3-2.2.4-2.4,14.2-2,28.5.5,43.7M923.5,661.2h103.4v-5.1c-.8-.1-1.3-.3-1.8-.3-15.1-.8-27.4-6.3-35.3-20-.6-1.1-3-1.7-4.6-1.8-16.2-.1-32.3,0-48.5-.1-2.6,0-4.1.6-5.5,3-4.4,7.9-11.1,13.3-19.7,16-5.3,1.7-10.9,2.4-16.6,3.6v4.6h28.5M810,895.4c-1-3.4.8-5.5,3-7.8,7.1-7.6,14-15.5,20.5-22.7-26.6,2.1-54.8,4.4-84.5,6.8,22.7,19.4,44.2,37.9,65.7,56.4.3-.2.7-.4,1-.6-1.9-10.4-3.7-20.8-5.7-32M999,1238.9c.7-.3,1.8-.5,1.9-1,2.4-7.4,4.9-14.9,6.9-22.4,1-3.9,3.1-5.7,6.9-6.7,8.2-2.2,16.3-5,24.5-7.5-8.5-3.5-16.9-6.3-25.4-8.6-3.3-.9-4.9-2.7-5.8-5.9-2.4-8.4-5.1-16.7-7.6-25.1-3.6,8.4-6.3,16.7-8.7,25.1-.9,3.3-2.6,5-5.9,5.9-8.4,2.4-16.7,5-25.1,7.6,8.5,3.7,17,6.4,25.5,8.9,2.9.8,4.4,2.2,5.3,5.2,2.3,8,4.8,15.9,7.5,24.5M1033.6,684.1c-5,5.9-10,11.8-15.2,17.8,22.2-2.3,61.3-33.4,65.3-51.7h-32.9c-2.7,12.7-9.2,23.3-17.2,33.9M974,473.7c-1.7-22.5-27.6-45.9-45-39.3,23.4,15.4,32.7,39.3,40.4,64.4,3.9-7.8,4.7-15.9,4.6-25.2M953.5,600.2c1.4,3.6,2.8,7.3,4.4,11.4-10,2.2-17.6,6-22.8,14.2h51.9c-5.4-8.2-12.9-12.1-22.2-14.1.5-2.4.3-5.1,1.4-6.7,2.4-3.4,3.7-6.9.9-9.9-1.7-1.9-5.1-3.2-7.7-3-4,.2-5.7,3.5-5.9,8.1M1061.6,1042.2c-.9-2.9-1.6-5.8-2.8-8.5-1.4-3.1-.5-4.9,2.2-6.6,3.2-2.1,6.2-4.5,9.3-6.8-3.4-1-6.4-1.3-9.3-.9-5.1.6-8.2-.9-9-6.4-.5-3-1.9-5.8-3.4-10-1.2,3.6-2,5.7-2.8,7.9-3.5,9.9-1,8.3-11.4,8.4-2.3,0-4.5,0-6.8,0-.1.4-.3.8-.4,1.2,2.1,1.5,4.1,3,6.2,4.6,7.4,5.6,6.6,3.4,4,11.9-.8,2.5-1.5,5-2.3,7.4,4.1-1.5,7.4-3.7,10.4-6.1,2.2-1.7,3.9-1.8,6.1,0,3.2,2.6,6.7,4.8,10.9,7.9-.5-2.1-.7-2.7-1-4M1065.8,1211.2c-.9,3.1-1.9,6.2-2.8,9.4,4.1-1.6,7.2-4.1,10.6-6,1.5-.8,4.1-.8,5.5,0,3.6,2,6.7,4.6,11.3,7.9-1.6-5.2-2.7-9-4-12.6-1.1-2.8-.4-4.6,2.1-6.3,3.2-2.1,6.2-4.6,9.3-7-4.3-1.1-8.3-1.3-12.2-1.1-2.8.1-4.2-1-5-3.7-1.1-3.8-2.5-7.5-3.8-11.3-2.2,3.8-3.6,7.4-4.5,11.1-.8,2.9-2.3,4.1-5.3,3.9-4-.2-8,0-11.9,0,2.8,3.4,5.6,5.7,8.7,7.6,3,1.9,4.3,4,2.2,8.1M1205.9,1039c-4.2-.3-8.4-.3-12.5-.9-1.5-.2-3.6-1.6-4.2-3-1.7-3.9-2.8-8.1-4.6-13.6-1.7,5.1-3.1,8.8-4.1,12.6-.8,3.1-2.3,4.4-5.6,4.2-3.7-.3-7.5,0-11.2,0-.1.4-.3.8-.4,1.2,2.3,1.7,4.5,3.8,7.1,5.1,4.9,2.5,5.5,5.9,3.4,10.6-1.2,2.6-1.8,5.6-2.6,8.4,3.8-1.5,6.9-3.4,9.6-5.8,2.8-2.4,5.1-2.2,7.8,0,2.9,2.4,6.1,4.5,10.3,7.5-1.7-5.3-2.8-9.2-4.3-13.1-1-2.6-.7-4.3,1.8-5.9,3.2-2.1,6.2-4.5,9.5-7.4M1235.9,1003.4c1.9-1.4,3.8-2.8,5.6-4.2-4.3-1-8.1-1.2-11.9-1-3,.2-4.6-.8-5.4-3.8-1-3.9-2.5-7.7-3.8-11.6-2.3,3.9-3.7,7.8-4.7,11.7-.7,2.7-2.1,3.8-4.9,3.6-4-.2-8,0-12.1,0,3,3.5,6.1,6,9.4,8.1,2.4,1.5,2.9,3.1,1.9,5.8-1.4,3.7-2.4,7.6-3.6,11.4,3.9-1.6,7-3.5,9.8-5.8,2.6-2.2,4.7-2.4,7.4-.1,2.9,2.4,6.1,4.4,9.1,6.6,0-3.1-.7-5.6-1.5-8q-2.4-7.5,4.6-12.7M1130.8,1133.6c-.8-2.3-1.5-4.5-2.8-8.2-1.4,4.1-2.2,6.8-3.1,9.4-2.8,8.4-1,7.1-10.2,7.3-2.6,0-5.3,0-7.9,0,2.4,3.1,4.8,5.3,7.5,6.8,4.5,2.3,4.9,5.4,3,9.7-1.3,2.8-1.9,6-2.8,9,3.9-1.6,7-3.6,9.8-5.9,2.6-2.2,4.7-2.4,7.4,0,2.8,2.4,6.1,4.4,9.1,6.6-.3-4.2-1.2-7.9-2.6-11.3-1.4-3.3-.5-5.2,2.3-6.9,3.2-2,6-4.4,9-6.6-2.8-1.1-5.2-1.1-7.6-1.1-10.3-.2-7.7,1.2-11.1-8.4M1206.7,1121.1h-5.9c3.3,3.7,6.7,6,9.8,8.7,1,.9,1.7,3.1,1.4,4.4-.9,4.1-2.4,8.1-4.1,13.6,4.5-3.1,7.8-5.2,10.9-7.7,2.4-2,4.1-1.8,6.4.1,3,2.5,6.3,4.6,9.5,6.8-.1-3.6-.7-6.8-2.1-9.5-2.4-4.7-1-7.6,3.3-10,2.6-1.5,4.9-3.6,7.3-5.4-4.4-.9-8.4-.6-12.3-1.1-1.6-.2-3.8-1.7-4.5-3.2-1.7-3.8-2.8-7.9-4.1-11.9-2.2,3.7-3.6,7.2-4.5,10.9-.8,3.7-2.8,5-6.3,4.5-1.3-.2-2.7,0-4.9,0M1132.1,992.6c2.4-1.8,4.9-3.6,7.3-5.5-4.4-1-8.4-1.2-12.3-.9-2.8.2-4.2-.9-5-3.6-1-3.8-2.4-7.6-3.7-11.3-2.5,4-3.5,7.9-5.2,11.5-.7,1.5-2.8,3.1-4.5,3.2-4,.5-8.1.2-12.1.2,2.4,3.1,4.9,5.3,7.7,6.9,3.9,2.2,4.9,4.7,3,8.9-1.4,3-2,6.4-3,9.6,3.9-1.6,7-3.5,9.7-5.8,2.8-2.4,5.1-2.2,7.8.1,2.7,2.3,5.8,4.2,8.7,6.4,0-3.7-.7-6.9-2.1-9.8-1.9-4.2-1.5-7.3,3.5-9.6M1274.4,1230l-3-9.2c-2.1,3.5-3.6,6.8-4.3,10.3-.9,4.1-3.1,5.4-7,5-3.4-.3-6.8,0-10.2,0,2.6,3.3,5.3,5.7,8.3,7.5,3.4,2,3.9,4.3,2.4,7.8-1.4,3.3-2.2,6.8-3.7,11.6,4.4-3.1,7.6-5.1,10.5-7.5,2.5-2,4.5-2.1,7,0,2.9,2.4,6.2,4.4,9.3,6.6-.2-3.9-.9-7.2-2.3-10.1-2-4.2-.8-6.7,3-8.9,2.9-1.7,5.4-3.9,8.1-5.9-3.9-1-7.3-1.3-10.5-1-4.2.4-6.7-1-7.5-6M1207.6,1333.8c1.1.7,2.2,1.3,4.2,2.5-1.5-4.9-2.6-8.8-4-12.7-.9-2.5-.5-3.9,1.7-5.4,3.4-2.2,6.5-4.8,9.8-7.2-4.3-1.1-8.2-1.2-12.2-1-2.8.1-4.2-1-5-3.7-1.1-3.9-2.5-7.8-3.7-11.6-2.4,4.1-3.5,8.2-5.2,12.1-.6,1.4-2.6,2.9-4.1,3-4,.4-8.1.1-12.2.1,2.7,3.3,5.6,5.8,8.7,7.8,2.8,1.8,3.2,3.7,2.1,6.7-1.3,3.5-2.3,7.2-3.8,12.2,2.5-1.7,3.8-2.5,5-3.4q9-6.5,18.7.5M1181,964.9c-1.3-1.1-3.3-2-3.9-3.4-1.6-3.8-2.7-7.8-4.4-13.1-1.8,5.2-3.3,9-4.3,12.9-.7,2.7-2.1,3.8-4.9,3.7-3.9-.2-7.8,0-11.7,0,2.8,3.5,5.8,5.9,9,8.1,2.3,1.6,2.9,3.2,1.9,5.9-1.4,3.7-2.4,7.6-3.6,11.4,4.1-1.7,7.3-3.8,10.2-6.2,2.3-1.9,4.2-2,6.6,0,3,2.4,6.3,4.5,9.5,6.8-.3-4.4-1.4-8.2-2.8-11.9-1-2.6-.5-4.3,1.8-5.9,3.3-2.3,6.5-4.8,9.8-7.2-.1-.3-.3-.6-.4-.9-4,0-7.9,0-12.8,0M1265.7,1163.9c-4.2.7-6.4-1-7.3-5.2-.8-3.4-2.2-6.7-3.8-11.3-1.8,5.4-2.8,9.4-4.5,13.1-.7,1.5-2.8,3-4.5,3.2-3.8.5-7.8.2-11.7.2,1.8,2.8,3.8,4.8,6.2,6,5.3,2.7,6,6.3,3.5,11.3-1.2,2.5-1.7,5.3-2.6,7.9,3.8-1.4,6.9-3.3,9.5-5.6,2.9-2.5,5.2-2.8,8.1-.1,2.6,2.3,5.8,4.1,10,7.1-1.6-5.1-2.5-8.8-3.9-12.3-1.3-3.1-.4-4.9,2.2-6.6,3.2-2.1,6.1-4.5,9.2-6.8-.2-.3-.3-.6-.5-.9-3,0-6,0-9.9,0M1091,1111.9c2.4-1.8,5-3.3,7.2-5.3,2.8-2.4,5.1-2.3,7.8,0,2.4,2.1,5.2,3.7,7.8,5.6.3-2.5-.2-4.2-.7-5.9-2.9-9.9-4.3-7.1,4.2-13.5,1.5-1.1,2.9-2.3,4.4-3.5-3.9-1.1-7.3-1.3-10.7-1.1-2.8.2-4.2-.8-5-3.6-.9-3.4-2.3-6.8-3.4-10.2-2.2,3.4-3.5,6.7-4.4,10.1-.7,2.7-2.2,3.7-5,3.6-3.5-.2-7.1,0-10.6,0,1.8,2.7,3.6,4.4,5.8,5.6,4.7,2.5,5.8,5.6,3.5,10.5-1.1,2.4-1,5.3-.9,7.7M994.3,957.8c1.3-.4,3.3-.5,3.7-1.4,1.3-2.8,1.9-5.8,2.9-9.1-15-4.9-29.5-9.6-44.5-14.4-1.2,4-2.3,7.5-3.6,11.4,13.9,4.5,27.3,8.9,41.4,13.5M1049.5,963.1c-9.7-3.2-19.5-6.3-29.6-9.6-1.3,4.1-2.4,7.5-3.7,11.4,15.2,4.9,29.8,9.6,44.7,14.5,1.3-4.1,2.4-7.5,3.6-11.3-5.2-1.7-9.7-3.2-15-4.9M834.4,893.1c-1.5-.4-3.1-.8-4.8-1.2-1.2,4-2.3,7.4-3.5,11.2,15,4.9,29.5,9.6,44.5,14.4,1.3-4.1,2.4-7.6,3.7-11.4-13.5-4.4-26.3-8.6-39.9-13M923.5,922.1c-8.7-2.8-17.4-5.8-26.1-8.4-1.4-.4-4.2,0-4.8,1.1-1.4,2.5-1.9,5.5-3,8.9,15,4.9,29.6,9.6,44.1,14.3q4.8-11-5.2-14.3c-1.4-.5-2.8-.9-5-1.7M1142.4,1065.8c-.8-2.9-1.5-5.8-2.6-8.6-1.2-3-.5-4.9,2.2-6.6,2.6-1.6,4.9-3.6,8.3-6.1-5.7-.3-11,1-13.9-1.1-2.9-2.1-3.5-7.5-5.1-11.5,0-.1-.3-.1-1-.4-1,3.1-2.3,6.1-3.1,9.2-.7,2.8-2.2,3.7-5,3.6-3.1-.2-6.3,0-9.5,0,2,2.8,3.9,4.6,6.2,5.9,3.7,2,4.1,4.7,2.6,8.3-1,2.5-1.7,5.2-2.5,7.7.2.5.5,1.1.7,1.6,7.2-9.9,14.5-8.7,21.8-1.5,0,0,.3,0,.8-.5M962,986.3c-2.5,0-5-.3-7.5,0-3.9.5-5.7-1.2-6.6-4.9-.6-2.7-1.8-5.3-3.2-9.2-1.4,4.2-2.5,6.8-3.1,9.5-.8,3.5-2.6,5-6.3,4.6-2.8-.3-5.7,0-8.6,0,2.1,2.8,4.2,4.7,6.6,6.1,3.1,1.8,4.1,3.8,2.5,7.3-1.2,2.7-1.8,5.7-2.7,8.5,3.6-1.5,6.4-3.3,8.9-5.4,2-1.7,3.6-1.7,5.6,0,2.5,2.1,5.4,3.9,8.1,5.9-.1-3.6-.7-6.5-1.9-9.2-1.5-3.2-.5-5.1,2.3-7,2.4-1.6,4.4-4,5.9-6.2M981.9,731.7c5.6.2,5.1-4.8,7.4-7.9h-56.5c1.8,6,5,8.4,11.3,8.1,12.3-.6,24.6-.2,37.8-.2Z"/>
  <path class="cls-18" d="M816,1097.1c-12.2,18.9-24.2,37.6-36.4,56-2.1,3.2-1.9,5.3,0,8.4,22.8,35.8,45.5,71.7,68.2,107.6.9,1.4,1.6,2.8,2.9,5-9.2,0-17.6,0-26,0-6,0-13,1.7-17.6-.8-4.6-2.6-6.8-9.5-9.8-14.6-13.1-21.7-26.2-43.3-39.3-65-1-1.7-2.1-3.3-3.5-5.5-3,5-5.6,9.3-8.2,13.7-13.5,22.8-27,45.6-40.3,68.5-1.6,2.8-3.3,3.9-6.6,3.9-13-.2-26,0-39.9,0,1.2-2,2-3.5,2.9-5,22.3-35.6,44.5-71.2,66.9-106.7,2.3-3.6,2.5-5.9,0-9.7-21.7-33.5-43.2-67.3-64.7-100.9-1-1.5-1.9-3-3.3-5.2,2.1-.2,3.5-.3,4.8-.3,11.2,0,22.3.2,33.5-.1,4.3-.1,6.5,1.4,8.6,5,14.4,24,29,47.9,43.5,71.8.9,1.5,1.9,3,3.3,5.2,1.4-2.1,2.6-3.8,3.6-5.6,14.8-24.2,29.6-48.3,44.2-72.5,1.6-2.7,3.4-3.9,6.7-3.9,12.6.2,25.2,0,39.1,0-11.3,17.4-22,33.9-32.9,50.8Z"/>
  <path class="cls-1" d="M916.7,701.3c-12.1-8.9-20.7-20.1-26.6-34.1h141.9c-8.2,18.8-20.5,33.4-39.3,41.2-26.2,10.9-51.7,9-76-7.1Z"/>
  <path class="cls-5" d="M993.1,521.9c-8.7-15.8-11-32.4-10-49.5.5-.3,1-.5,1.5-.8,1.3,1.1,2.8,1.9,3.8,3.2,9.8,12.7,22.6,21,37.4,26.6,2.8,1.1,5.6,2.2,8.5,3,23.4,6.7,36,22.4,39.8,46.2,3.7,23.5,3.7,47.1,2,70.8,0,.3,0,.7-.1,1-1.1,1.9-2.2,3.8-3.3,5.7-1.4-1.8-3.6-3.4-4.1-5.5-3.4-14.4-6.1-29-9.7-43.4-1.4-5.6-4-10.9-6.6-16.2-4.4-9-11.6-15.4-21-19-6.4-2.4-12.8-4.8-19.3-6.9-8.2-2.7-14.3-7.7-18.9-15.3Z"/>
  <path class="cls-8" d="M890,623c7.5-5.5,7.9-8.3,2-15.1-5.8-6.6-13.2-9.5-21.9-8.7-8.1.7-13.9,6.2-16.1,14.9-2.5,10.2-.1,19.8,3.6,29.3,4.6,11.7,12.1,21.3,21.1,30,5.9,5.8,11.5,12,16.9,18.4,3.8,4.5,4.9,10.1,4,16-1.3,8.5-6.7,12.7-15.4,11.9-8.8-.8-13.5-5.8-12.7-14.5.3-3.7,1.6-7.5,3.3-10.8,3.1-6.3,2.6-7.9-2.6-12.7-8.9-8.3-18.2-16.3-25.5-25.8-5.2-6.7-8.8-15.5-10.7-23.8-5.5-23.4,7.5-40.2,31.6-41.8,5.6-.4,11.4,0,16.9,1.1,21.5,4.4,34.3,26.2,27.8,47-2.5,8-9.2,11.9-17.5,10-7.9-1.7-12.5-7.8-10.7-15.8.8-3.4,3.8-6.3,6.2-9.6Z"/>
  <path class="cls-1" d="M917.6,745.8c3.8-1.8,7.1-3.7,10.6-5.2,1.9-.8,4-1.7,6-1.7,17.8-.1,35.6,0,53.5,0,1.5,0,3.2-.1,4.3.6,13,8.5,28,11.3,42.9,14.1.6.1,1.2.4,2,.6v7.9h-151.8v-7.4c10.7-2.9,21.4-5.8,32.5-8.9Z"/>
  <path class="cls-12" d="M951.9,532.2c-2.3-14.7-2.8-29-.4-43.3.7-.1,1.5-.3,2.2-.4.8,2.3,1.5,4.6,2.3,6.8,3.6,10.5,6.6,21.3,10.9,31.5,4.2,9.9,11.8,17,21.6,22.1,15.2,7.9,30.2,16.4,42.9,28.2,10.8,10,18.2,22,23.2,35.7.8,2.3.9,4.9,1.4,7.3-.6.2-1.1.5-1.7.7-1.5-1.8-3.3-3.4-4.5-5.4-12.2-20.3-30.1-33-52.6-39.5-5.3-1.5-10.4-3.4-15.7-5.1-15.4-4.8-24.7-15.1-28-30.9-.5-2.4-1-4.9-1.6-7.8Z"/>
  <path class="cls-9" d="M923,661.2h-28v-4.6c5.7-1.2,11.3-2,16.6-3.6,8.6-2.7,15.3-8.1,19.7-16,1.4-2.5,2.9-3.1,5.5-3,16.2.1,32.3,0,48.5.1,1.6,0,3.9.6,4.6,1.8,7.9,13.7,20.2,19.2,35.3,20,.5,0,1,.2,1.8.3v5.1h-103.9Z"/>
  <path class="cls-19" d="M810.1,895.8c1.9,10.8,3.8,21.2,5.6,31.6-.3.2-.7.4-1,.6-21.5-18.5-43-36.9-65.7-56.4,29.7-2.4,57.9-4.7,84.5-6.8-6.5,7.2-13.4,15.1-20.5,22.7-2.2,2.3-4,4.4-2.9,8.2Z"/>
  <path class="cls-16" d="M998.9,1238.6c-2.6-8.3-5.1-16.2-7.4-24.2-.8-2.9-2.4-4.3-5.3-5.2-8.6-2.5-17-5.2-25.5-8.9,8.4-2.6,16.7-5.3,25.1-7.6,3.3-.9,5-2.6,5.9-5.9,2.3-8.4,5-16.8,8.7-25.1,2.6,8.3,5.3,16.6,7.6,25.1.9,3.2,2.5,5,5.8,5.9,8.5,2.3,16.8,5.1,25.4,8.6-8.2,2.5-16.3,5.2-24.5,7.5-3.8,1-5.8,2.8-6.9,6.7-2,7.6-4.5,15-6.9,22.4-.2.5-1.3.6-2,.6Z"/>
  <path class="cls-8" d="M1033.8,683.8c7.8-10.3,14.3-20.9,17-33.6h32.9c-4,18.3-43,49.5-65.3,51.7,5.2-6.1,10.2-11.9,15.4-18.1Z"/>
  <path class="cls-14" d="M974,474.1c.1,8.8-.7,16.8-4.6,24.7-7.7-25.1-16.9-49-40.4-64.4,17.3-6.6,43.3,16.8,45,39.7Z"/>
  <path class="cls-8" d="M953.4,599.9c.3-4.2,2-7.6,6-7.7,2.6-.1,6,1.2,7.7,3,2.8,3.1,1.5,6.6-.9,9.9-1.2,1.6-1,4.3-1.4,6.7,9.3,2,16.8,5.8,22.2,14.1h-51.9c5.2-8.2,12.7-12.1,22.8-14.2-1.6-4.1-3-7.8-4.5-11.8Z"/>
  <path class="cls-11" d="M1061.7,1042.6c.3,1,.4,1.6.9,3.6-4.3-3.1-7.7-5.3-10.9-7.9-2.2-1.8-4-1.7-6.1,0-3,2.4-6.3,4.6-10.4,6.1.8-2.5,1.6-5,2.3-7.4,2.6-8.5,3.4-6.3-4-11.9-2-1.5-4.1-3-6.2-4.6.1-.4.3-.8.4-1.2,2.3,0,4.5,0,6.8,0,10.5-.2,7.9,1.4,11.4-8.4.8-2.2,1.5-4.3,2.8-7.9,1.5,4.2,2.9,7,3.4,10,.8,5.5,3.9,7,9,6.4,2.9-.4,5.9,0,9.3.9-3.1,2.3-6.1,4.7-9.3,6.8-2.6,1.7-3.5,3.5-2.2,6.6,1.2,2.7,1.9,5.7,2.9,8.8Z"/>
  <path class="cls-2" d="M1065.9,1210.8c2-3.7.7-5.9-2.3-7.7-3.1-1.9-5.9-4.2-8.7-7.6,4,0,8-.2,11.9,0,3,.2,4.6-1,5.3-3.9,1-3.7,2.3-7.2,4.5-11.1,1.3,3.8,2.7,7.5,3.8,11.3.8,2.7,2.2,3.8,5,3.7,3.9-.2,7.9,0,12.2,1.1-3.1,2.3-6.1,4.8-9.3,7-2.5,1.7-3.2,3.4-2.1,6.3,1.4,3.7,2.4,7.5,4,12.6-4.5-3.2-7.7-5.9-11.3-7.9-1.4-.8-4-.8-5.5,0-3.4,1.8-6.5,4.4-10.6,6,.9-3.1,1.9-6.2,2.9-9.7Z"/>
  <path class="cls-6" d="M1205.7,1039.3c-3.2,2.6-6.2,5-9.4,7.1-2.5,1.6-2.8,3.3-1.8,5.9,1.4,3.8,2.6,7.8,4.3,13.1-4.3-3.1-7.5-5.1-10.3-7.5-2.7-2.3-5-2.5-7.8,0-2.7,2.3-5.8,4.3-9.6,5.8.9-2.8,1.4-5.7,2.6-8.4,2.1-4.7,1.6-8.1-3.4-10.6-2.6-1.3-4.7-3.4-7.1-5.1.1-.4.3-.8.4-1.2,3.7,0,7.5-.2,11.2,0,3.3.2,4.8-1.1,5.6-4.2,1-3.8,2.4-7.5,4.1-12.6,1.8,5.5,2.9,9.7,4.6,13.6.6,1.4,2.6,2.8,4.2,3,4.1.6,8.4.7,12.4,1.2Z"/>
  <path class="cls-6" d="M1235.6,1003.6q-6.8,4.9-4.3,12.4c.8,2.5,1.6,4.9,1.5,8-3.1-2.2-6.3-4.2-9.1-6.6-2.7-2.3-4.8-2.1-7.4.1-2.7,2.3-5.8,4.3-9.8,5.8,1.2-3.8,2.1-7.7,3.6-11.4,1-2.7.5-4.3-1.9-5.8-3.3-2.2-6.4-4.7-9.4-8.1,4,0,8.1-.2,12.1,0,2.8.2,4.2-.9,4.9-3.6,1.1-3.9,2.4-7.8,4.7-11.7,1.3,3.9,2.7,7.7,3.8,11.6.8,3,2.4,4,5.4,3.8,3.8-.2,7.6,0,11.9,1-1.9,1.4-3.8,2.8-5.9,4.4Z"/>
  <path class="cls-10" d="M1130.9,1134c3.3,9.3.7,7.9,11,8.1,2.4,0,4.8,0,7.6,1.1-3,2.2-5.9,4.6-9,6.6-2.9,1.8-3.7,3.7-2.3,6.9,1.5,3.4,2.3,7.1,2.6,11.3-3-2.2-6.3-4.2-9.1-6.6-2.7-2.3-4.8-2.1-7.4,0-2.8,2.3-5.8,4.3-9.8,5.9.9-3,1.5-6.1,2.8-9,1.9-4.3,1.5-7.3-3-9.7-2.8-1.4-5.1-3.7-7.5-6.8,2.6,0,5.3,0,7.9,0,9.2-.1,7.4,1.1,10.2-7.3.9-2.6,1.7-5.3,3.1-9.4,1.2,3.7,2,5.9,2.9,8.6Z"/>
  <path class="cls-6" d="M1207.2,1121.1c1.8,0,3.1-.1,4.4,0,3.6.5,5.5-.8,6.3-4.5.8-3.7,2.3-7.2,4.5-10.9,1.3,4,2.4,8.1,4.1,11.9.7,1.5,2.8,3,4.5,3.2,3.9.5,7.9.2,12.3,1.1-2.4,1.8-4.7,3.9-7.3,5.4-4.3,2.4-5.8,5.3-3.3,10,1.4,2.7,2,5.9,2.1,9.5-3.2-2.3-6.5-4.3-9.5-6.8-2.3-1.9-4-2.1-6.4-.1-3,2.5-6.4,4.6-10.9,7.7,1.7-5.5,3.2-9.5,4.1-13.6.3-1.3-.4-3.5-1.4-4.4-3.1-2.7-6.6-5-9.8-8.7,2,0,3.9,0,6.4,0Z"/>
  <path class="cls-10" d="M1131.8,992.8c-4.7,2.2-5.2,5.2-3.2,9.4,1.3,2.9,2,6.1,2.1,9.8-2.9-2.1-6-4-8.7-6.4-2.7-2.3-5-2.6-7.8-.1-2.7,2.4-5.9,4.3-9.7,5.8,1-3.2,1.6-6.6,3-9.6,1.9-4.1.9-6.7-3-8.9-2.8-1.6-5.3-3.8-7.7-6.9,4,0,8.1.3,12.1-.2,1.6-.2,3.7-1.7,4.5-3.2,1.7-3.6,2.7-7.5,5.2-11.5,1.2,3.8,2.6,7.5,3.7,11.3.7,2.7,2.1,3.7,5,3.6,3.9-.2,7.9,0,12.3.9-2.4,1.8-4.9,3.6-7.6,5.7Z"/>
  <path class="cls-10" d="M1274.5,1230.4c.7,4.7,3.2,6.1,7.4,5.7,3.3-.3,6.6,0,10.5,1-2.7,2-5.2,4.2-8.1,5.9-3.7,2.2-5,4.7-3,8.9,1.4,2.9,2.1,6.2,2.3,10.1-3.1-2.2-6.4-4.2-9.3-6.6-2.5-2.1-4.5-1.9-7,0-2.9,2.4-6.1,4.4-10.5,7.5,1.5-4.8,2.3-8.3,3.7-11.6,1.5-3.5,1-5.8-2.4-7.8-3.1-1.8-5.8-4.2-8.3-7.5,3.4,0,6.8-.3,10.2,0,4,.4,6.2-.9,7-5,.7-3.5,2.2-6.8,4.3-10.3,1,3.1,2,6.2,3.1,9.6Z"/>
  <path class="cls-10" d="M1207.3,1333.6q-9.4-6.8-18.4-.3c-1.2.9-2.4,1.7-5,3.4,1.5-4.9,2.4-8.6,3.8-12.2,1.1-3,.6-4.9-2.1-6.7-3.1-2-6-4.4-8.7-7.8,4.1,0,8.2.3,12.2-.1,1.5-.2,3.5-1.6,4.1-3,1.7-3.9,2.8-8,5.2-12.1,1.2,3.9,2.6,7.7,3.7,11.6.7,2.6,2.2,3.8,5,3.7,3.9-.2,7.9,0,12.2,1-3.2,2.4-6.4,5-9.8,7.2-2.2,1.5-2.7,2.9-1.7,5.4,1.4,3.8,2.5,7.8,4,12.7-2-1.2-3.1-1.9-4.5-2.7Z"/>
  <path class="cls-17" d="M1181.4,964.9c4.4,0,8.4,0,12.3,0,.1.3.3.6.4.9-3.2,2.4-6.4,4.9-9.8,7.2-2.3,1.6-2.8,3.3-1.8,5.9,1.4,3.7,2.4,7.5,2.8,11.9-3.2-2.2-6.4-4.4-9.5-6.8-2.4-1.9-4.3-1.8-6.6,0-3,2.4-6.1,4.5-10.2,6.2,1.2-3.8,2.2-7.7,3.6-11.4,1-2.7.4-4.3-1.9-5.9-3.2-2.2-6.3-4.6-9-8.1,3.9,0,7.8-.2,11.7,0,2.8.2,4.2-.9,4.9-3.7,1.1-3.9,2.6-7.7,4.3-12.9,1.8,5.3,2.8,9.3,4.4,13.1.6,1.4,2.6,2.3,4.3,3.4Z"/>
  <path class="cls-17" d="M1266.2,1163.9c3.4,0,6.4,0,9.4,0,.2.3.3.6.5.9-3,2.3-6,4.7-9.2,6.8-2.6,1.7-3.5,3.5-2.2,6.6,1.4,3.5,2.3,7.2,3.9,12.3-4.2-2.9-7.3-4.7-10-7.1-3-2.6-5.3-2.4-8.1.1-2.7,2.4-5.7,4.2-9.5,5.6.8-2.6,1.4-5.4,2.6-7.9,2.5-5,1.8-8.7-3.5-11.3-2.4-1.2-4.4-3.2-6.2-6,3.9,0,7.9.3,11.7-.2,1.6-.2,3.8-1.7,4.5-3.2,1.7-3.7,2.8-7.8,4.5-13.1,1.6,4.6,3.1,7.9,3.8,11.3.9,4.2,3.1,5.9,7.8,5.2Z"/>
  <path class="cls-11" d="M1090.7,1112c.2-2.5,0-5.4,1.2-7.8,2.3-4.9,1.1-8.1-3.5-10.5-2.2-1.1-4-2.8-5.8-5.6,3.5,0,7.1-.1,10.6,0,2.8.2,4.3-.8,5-3.6.9-3.4,2.3-6.8,4.4-10.1,1.2,3.4,2.5,6.7,3.4,10.2.7,2.7,2.2,3.7,5,3.6,3.4-.2,6.9,0,10.7,1.1-1.5,1.2-2.9,2.3-4.4,3.5-8.6,6.4-7.1,3.6-4.2,13.5.5,1.7,1,3.4.7,5.9-2.6-1.8-5.4-3.5-7.8-5.6-2.7-2.3-5.1-2.5-7.8,0-2.2,2-4.8,3.6-7.5,5.5Z"/>
  <path class="cls-3" d="M994,957.7c-13.8-4.5-27.2-8.9-41-13.4,1.2-3.9,2.3-7.4,3.6-11.4,15,4.9,29.5,9.6,44.5,14.4-1,3.3-1.7,6.3-2.9,9.1-.4.9-2.4,1-4.1,1.3Z"/>
  <path class="cls-3" d="M1049.9,963.2c4.9,1.6,9.5,3.1,14.7,4.8-1.2,3.8-2.3,7.2-3.6,11.3-14.9-4.8-29.5-9.6-44.7-14.5,1.2-3.9,2.3-7.3,3.7-11.4,10.1,3.3,19.8,6.4,30,9.7Z"/>
  <path class="cls-3" d="M834.8,893.2c13.2,4.3,26,8.5,39.5,12.9-1.2,3.8-2.3,7.3-3.7,11.4-15-4.9-29.5-9.6-44.5-14.4,1.2-3.8,2.2-7.2,3.5-11.2,1.8.5,3.3.8,5.2,1.4Z"/>
  <path class="cls-3" d="M923.8,922.2c1.8.6,3.2,1.1,4.6,1.5q10,3.3,5.2,14.3c-14.5-4.7-29.1-9.4-44.1-14.3,1-3.4,1.5-6.4,3-8.9.6-1,3.4-1.5,4.8-1.1,8.8,2.6,17.4,5.6,26.5,8.5Z"/>
  <path class="cls-7" d="M1142.2,1066c-.3.3-.6.3-.7.3-7.3-7.2-14.5-8.5-21.8,1.5-.2-.5-.5-1.1-.7-1.6.8-2.6,1.4-5.2,2.5-7.7,1.5-3.6,1.1-6.3-2.6-8.3-2.3-1.3-4.3-3.1-6.2-5.9,3.2,0,6.3-.1,9.5,0,2.8.2,4.3-.8,5-3.6.8-3.1,2-6.1,3.1-9.2.7.3,1,.3,1,.4,1.6,4,2.2,9.4,5.1,11.5,2.9,2.1,8.2.8,13.9,1.1-3.4,2.5-5.7,4.5-8.3,6.1-2.8,1.7-3.5,3.6-2.2,6.6,1.1,2.8,1.7,5.7,2.4,8.8Z"/>
  <path class="cls-7" d="M962.4,986.3c-1.8,2.1-3.8,4.5-6.2,6.1-2.8,1.9-3.7,3.8-2.3,7,1.2,2.7,1.8,5.6,1.9,9.2-2.7-1.9-5.6-3.7-8.1-5.9-2-1.7-3.6-1.7-5.6,0-2.5,2.1-5.3,3.9-8.9,5.4.9-2.8,1.5-5.8,2.7-8.5,1.6-3.5.6-5.5-2.5-7.3-2.4-1.4-4.5-3.3-6.6-6.1,2.9,0,5.8-.2,8.6,0,3.7.4,5.5-1.1,6.3-4.6.6-2.7,1.7-5.3,3.1-9.5,1.4,3.9,2.6,6.5,3.2,9.2.8,3.7,2.7,5.4,6.6,4.9,2.5-.3,5,0,7.8,0Z"/>
  <path class="cls-15" d="M981.5,731.7c-12.7,0-25.1-.4-37.4.2-6.3.3-9.5-2.1-11.3-8.1h56.5c-2.2,3.1-1.8,8.1-7.8,7.9Z"/>
</svg>