<?xml version="1.0" encoding="iso-8859-1"?>
<!-- Generator: Adobe Illustrator 28.5.0, SVG Export Plug-In . SVG Version: 9.03 Build 54727)  -->
<svg version="1.1" id="Layer_1" xmlns="http://www.w3.org/2000/svg" xmlns:xlink="http://www.w3.org/1999/xlink" x="0px" y="0px"
	 viewBox="0 0 1920 2400" style="enable-background:new 0 0 1920 2400;" xml:space="preserve">
<path style="fill:#78848A;" d="M965.333,2c-0.853,3.862,1.328,7.062,2.578,10.402c30.187,80.672,60.365,161.347,90.597,242.002
	c37.936,101.208,75.901,202.406,113.884,303.596c52.943,141.046,105.942,282.07,158.866,423.123
	c53.974,143.854,107.891,287.729,161.826,431.597c58.954,157.258,117.885,314.524,176.854,471.776
	c51.029,136.08,102.099,272.144,153.142,408.219c10.979,29.269,21.903,58.558,32.889,87.824c1.14,3.037,1.429,6.596,5.371,7.96
	c0.66,3.5,0.54,7.505,0.693,11.499c0.151,3.95-2.779,1.177-5.034,2.001c-93.01-53.112-185.003-106.252-277.028-159.339
	c-78.77-45.44-157.498-90.955-236.248-136.431c-115.098-66.465-230.099-133.099-345.366-199.272
	c-8.667-4.976-17.367-9.932-25.822-15.224c-6.619-4.142-12.128-3.64-18.507,0.131c-38.423,22.716-77.192,44.842-115.863,67.132
	c-94.657,54.56-189.266,109.201-283.874,163.846c-82.207,47.483-164.455,94.896-246.614,142.462
	c-75.816,43.894-151.735,87.608-227.595,131.426c-2.898,1.674-6.075,2.71-9.546,4.775c-2.204,0.493-3.923,0.227-5.527,0.545
	c-4.103,0.815-2.855-2.085-3.01-5.052c4.935,0.373,4.424-4.226,5.269-6.405c6.612-17.054,12.869-34.246,19.29-51.374
	c31.986-85.332,63.991-170.656,95.986-255.984c55.934-149.168,111.861-298.339,167.799-447.506
	c54.07-144.184,108.156-288.362,162.225-432.547c55.937-149.167,111.857-298.341,167.795-447.507
	c54.07-144.184,108.15-288.364,162.231-432.543c39.363-104.942,78.737-209.88,118.088-314.827c0.58-1.547,0.925-3.182,1.348-5.541
	C962.889,2,963.778,2,965.333,2z"/>
<path style="fill:#010101;" d="M1313.135,1150.663c1.343,1.609,1.955,2.816,2.714,4.685c-6.275,6.024-14.128,5.665-21.692,5.728
	c-27.299,0.229-54.602,0.23-81.901,0.015c-10.376-0.082-20.585,1.28-30.845,2.284c-2.865,0.28-6.853,0.042-7.442,3.624
	c-0.676,4.111,3.373,5.392,6.385,6.489c13.271,4.834,27.201,6.09,41.147,7.336c31.223,2.791,62.515,1.869,93.789,2.027
	c2.99,0.015,6.004-0.095,9.733,1.238c6.892,10.772,10.053,22.41,14.251,33.589c71.634,190.741,143.115,381.54,214.582,572.345
	c0.778,2.078,2.497,4.036,1.119,7.743c-54.775-23.076-110.552-43.287-168.493-59.454c-5.967-0.596-7.321-5.182-9.455-8.731
	c-28.937-48.131-57.46-96.509-86.155-144.784c-1.867-3.141-3.771-6.284-4.132-10.775c0.242-1.191,0.427-1.645,1.151-2.594
	c5.159-2.764,9.661-1.072,14.174-0.071c20.784,4.607,41.658,8.8,62.425,13.487c1.529,0.345,3.194,1.178,5.209-0.523
	c-13.918-18.97-28.942-37.094-43.559-55.531c-34.305-43.269-68.428-86.682-103.016-129.726c-2.29-2.85-4.445-5.814-6.546-9.63
	c-2.17-2.017-2.562-4.33-3.872-6.073c1.359,2.251,1.93,4.991,4.503,7.333c12.258,30.637,22.548,61.245,33.561,91.587
	c3.258,8.977-0.089,12.464-9.862,10.745c-20.004-3.517-39.767-8.239-59.635-12.436c-3.479-0.735-6.901-2.032-11.717-1.64
	c7.655,16.4,16.84,30.988,25.245,45.941c32.129,57.159,63.914,114.512,96.198,171.584c2.873,5.079,6.838,10.035,5.273,17.288
	c-4.858,3.679-9.513,2.204-14.008,1.255c-60.067-12.684-120.696-21.732-181.822-27.158c-26.509-2.353-53.052-4.904-79.74-4.738
	c-19.316,0.12-38.511-2.368-57.884-2.112c-104.819,1.388-208.902,9.825-311.75,30.941c-5.501,1.13-10.982,3.038-17.512,1.327
	c-5.147-5.494-1.209-9.86,1.026-13.892c16.227-29.279,32.821-58.353,49.133-87.586c8.233-14.754,16.067-29.741,25.814-44.49
	c0.928-0.895,1.324-1.231,2.355-2.025c1.083-0.735,1.529-1.011,2.678-1.65c74.391-36.539,152.09-60.126,232.77-74.419
	c18.337-3.248,36.719-6.171,55.145-8.841c2.303-0.334,4.581-0.868,6.919-0.889c3.011-0.027,6.433-0.245,8.206,2.511
	c1.907,2.964-0.33,5.8-1.998,8.185c-7.055,10.083-14.649,19.772-22.398,30.248c-0.872,1.058-1.345,1.501-1.778,1.979
	c-0.894,0.988-0.299-0.57-0.597,0.693c-0.1,0.424,0.465-0.389,1.331-0.775c29.96-16.367,59.069-32.926,87.964-51.297
	c-34.151-11.649-67.111-25.563-102.226-35.351c-1.538-0.431-1.963-1.611-3.033-1.477c0.794,0.445,1.502,1.03,2.962,1.737
	c13.404,7.672,23.956,18.029,35.919,26.487c3.138,2.219,7.587,4.642,6.127,9.268c-1.366,4.33-6.154,4.449-10.145,4.99
	c-26.089,3.54-52.056,7.776-77.915,12.773c-68.675,13.271-135.205,33.277-198.903,62.38c-3.592,1.641-7.09,3.838-12.065,3.164
	c-4.148-4.901-0.74-8.489,1.309-12.062c10.1-17.616,19.631-35.549,29.727-53.166c1.608-2.806,3.888-5.456,3.609-9.639
	c-5.334-1.438-10.361,0.638-15.342,1.769c-17.533,3.982-35.184,7.393-52.77,11.112c-12.198,2.579-15.006-0.686-10.607-12.514
	c11.021-29.636,20.946-59.672,32.906-89.689c1.147-1.745,1.471-3.276,2.926-3.917c-1.057,0.03-1.386,0.915-2.187,2.179
	c-15.549,22.806-33.245,43.131-49.874,64.281c-33.897,43.114-68.165,85.934-102.197,128.941c-1.032,1.304-2.066,2.605-3.787,3.976
	c-0.618,0.497-1.031,0.389-1.075,0.778c1.074-0.79-0.255,0.36,1.438-0.649c24.79-5.969,49.217-10.641,73.531-15.848
	c4.154-0.89,9.144-2.354,11.852,2.099c2.402,3.949-1.058,7.613-3.096,10.866c-7.911,12.628-14.313,26.21-24.345,38.372
	c-35.291,26.129-68.502,53.508-99.876,83.241c-18.789,17.807-37.837,35.253-54.768,54.89c-3.197,3.707-6.678,7.44-12.216,8.175
	c-5.024-1.506-8.843,1.032-12.765,2.539c-17.388,6.681-34.635,13.729-51.992,20.494c-2.597,1.012-5.02,3.349-8.313,2.123
	c-0.809-2.964,0.864-5.274,1.741-7.613c60.581-161.674,121.235-323.321,181.882-484.971c13.088-34.884,26.165-69.771,39.271-104.648
	c1.396-3.714,2.266-7.689,5.669-11.237c5.701-2.745,11.091-2.018,16.366-2.012c35.196,0.039,70.413,0.67,105.415-4.137
	c7.902-1.085,15.824-2.274,23.293-5.193c3.245-1.268,8.016-2.47,7.028-6.977c-0.828-3.781-5.424-3.007-8.617-3.283
	c-33.804-2.921-67.693-1.898-101.556-2.21c-10.16-0.093-20.671,2.021-30.977-3.846c-0.928-2.316-0.494-3.841,1.081-5.79
	c9.248-4.099,18.446-3.043,27.131-2.13c18.176,1.909,36.442,0.782,54.573,2.711c1.582,0.168,3.231,0.08,3.582,0.581
	c-13.865-0.937-25.773-8.722-37.873-16.284c-7.89-4.931-17.271-4.008-26.07-5.215c-3.903-0.535-8.003,0.179-12.233-2.591
	c5.942-21.896,14.482-42.509,22.296-63.377c61.529-164.323,123.216-328.586,184.834-492.876
	c43.495-115.968,86.956-231.949,130.443-347.92c0.697-1.86,1.534-3.667,2.44-5.819c3.811,1.738,3.954,5.409,5.015,8.232
	c28.468,75.733,56.819,151.509,85.222,227.267c55.987,149.333,111.99,298.659,167.992,447.986
	c26.89,71.701,53.798,143.396,80.669,215.105c1.164,3.106,2.03,6.324,2.938,10.297c-12.727,5.679-26.12,5.084-40.045,6.028
	c-3.548-2.055-3.807-6.386-9.042-5.935c-32.233,2.781-64.56,0.696-96.846,1.243c-6.019,0.102-11.969,0.41-17.843,1.812
	c-10.57,2.522-15.775,9.296-15.26,20.111c0.143,2.994,0.574,6.009,1.271,8.892c4.97,20.567-4.661,35.353-18.821,48.461
	c-12.022,11.13-25.34,20.52-39.022,29.444c-1.618,1.055-3.548,1.956-4.252,5.423c6.711-5.922,15.416-7.318,19.981-14.783
	c0.501-0.819,1.494-1.647,2.388-1.726c12.821-1.131,20.339-13.359,32.665-15.537c3.121-0.552,5.087-3.006,6.979-5.372
	c1.889-2.363,3.946-5.265,6.796-5.663c12.685-1.773,16.751-14.541,26.393-20.109c2.362-1.364,1.857-3.837,1.558-6.284
	c-1.59-13.034,1.956-18.371,14.789-21.041c8.783-1.827,17.791-2.484,26.661-3.966c17.812-2.975,35.341-6.745,51.314-15.707
	c2.314-1.299,4.78-2.497,8.058-0.518c1.438,6.092-2.766,8.228-6.264,10.514c-8.937,5.838-18.768,9.171-29.475,9.657
	c25.361-1.17,50.728-2.906,76.15-3.302C1305.92,1148.994,1309.268,1148.864,1313.135,1150.663z"/>
<path style="fill:#010101;" d="M1369.037,1894.968c-3.119,0.543-5.161,2.47-7.433,3.772
	c-36.825,21.112-75.638,37.599-116.008,50.646c-7.918,2.559-14.148,2.073-21.489-2.196
	c-83.471-48.542-167.207-96.629-250.667-145.19c-7.32-4.259-12.638-4.197-19.854-0.005
	c-83.206,48.336-166.63,96.296-249.866,144.579c-6.007,3.484-11.146,4.107-17.786,2.008c-43.64-13.789-85.613-31.334-126-54.437
	c-0.552-6.107,4.178-8.604,7.908-11.722c19.111-15.976,38.342-31.808,58.216-49.055c-14.032,1.552-26.326,5.332-38.89,7.631
	c-4.491,0.822-9.119,2.637-13.467-1.661c1.677-5.102,5.733-7.031,9.267-9.44c44.759-30.514,92.688-55.158,141.884-77.637
	c14.514-6.632,28.643-4.397,43.088-2.793c35.411,3.932,70.925,5.963,106.49,8.022c40.993,2.373,81.94,1.724,122.875,1.317
	c57.271-0.568,114.384-4.84,171.172-12.636c6.464-0.887,12.493-0.543,18.584,1.898c54.044,21.661,104.921,49.223,153.054,81.914
	c2.991,2.031,6.322,3.912,6.707,8.878c-3.719,4.164-7.642,2.173-11.352,1.415c-11.586-2.365-23.19-4.664-35.346-7.641
	c-1.249-0.398-1.825-0.65-2.413-0.868c-0.526-0.196-0.831-0.258-0.891-0.264c-0.908-0.083-0.811,0.014,0.855,0.553
	c23.671,17.855,45.27,37.284,67.787,55.595C1367.543,1889.345,1369.23,1891.376,1369.037,1894.968z"/>
<path style="fill:#EDE799;" d="M1295.478,1830.12c16.617,2.796,32.901,6.19,49.967,9.719c6.683-1.953,12.995,2.069,18.598-1.683
	c-19.581-37.292-40.729-72.981-61.068-109.933c-2.646-5.194-6.451-9.16-6.133-15.5c-44.061-79.352-88.146-157.997-133.172-238.319
	c29.941,6.302,58.09,12.227,88.329,18.592c-12.525-34.89-24.452-68.113-36.637-102.067c-0.244-1.402-0.23-2.073,0.268-3.627
	c48.925,60.088,97.366,121.057,145.804,182.029c4.915,6.186,9.807,12.391,16.167,20.428c-30.836-6.417-59.307-12.341-88.597-18.113
	c-1.212,0.096-1.605,0.04-1.868,0.565c1.1,2.672,1.895,4.866,3.065,6.838c30.367,51.166,60.771,102.31,91.18,153.45
	c1.017,1.711,2.162,3.346,3.786,5.435c1.246,4.546,4.675,7.287,6.461,11.584c2.993,2.105,5.296,3.953,6.78,6.633
	c13.596,24.544,29.137,47.94,42.742,72.478c0.958,1.729,1.869,3.498,2.4,6.176c0.07,3.191,1.472,4.998,3.587,7.069
	c8.207,6.247,11.31,15.3,16.243,23.06c6.397,10.062,12.318,20.438,18.025,30.9c3.934,7.213,1.135,11.223-6.843,9.756
	c-8.763-1.611-17.662-2.928-26.802-6.394c-2.15-0.834-3.405-1.73-5.34-2.92c-6.677-1.782-12.788-3.053-19.693-4.25
	c-5.823,1.976-4.814,4.698-2.273,8.222c10.502,14.567,20.226,29.678,30.644,44.306c4.054,5.693,8.037,11.429,11.72,17.362
	c1.539,2.479,3.766,5.44,0.99,8.118c-3.015,2.908-6.288,1.083-8.943-1.087c-11.586-9.465-23.136-18.982-34.517-28.686
	c-15.161-12.928-31.063-24.998-45.691-39.559c-0.765-3.036-2.584-4.163-5.201-5.102c-1.13-3.737-4.422-5.216-6.865-7.272
	c-21.977-18.494-44.025-36.903-66.531-55.824C1295.438,1831.583,1295.291,1831.151,1295.478,1830.12z"/>
<path style="fill:#EDE799;" d="M572.95,1841.239c19.847-3.749,39.193-7.913,58.54-12.076c0.327,0.658,0.654,1.315,0.982,1.973
	c-24.232,20.49-48.464,40.979-72.962,62.118c-3.413,0.904-4.863,3.658-7.371,5.813c-4.753,9.948-14.153,14.241-21.429,20.694
	c-18.033,15.994-36.784,31.156-55.226,46.675c-3.011,2.534-6.084,5.113-10.581,6.652c-1.183,0.028-1.654-0.051-2.728-0.51
	c-2.781-5.366,0.915-8.589,3.181-12.027c13.361-20.272,27.262-40.178,41.16-60.084c1.305-1.87,2.854-3.609,3.603-6.055
	c-3.861-1.563-7.173,1.899-11.243,0.111c-6.633-1.308-12.139,1.792-18.486,2.751c-8.667,4.261-17.273,6.585-26.131,7.992
	c-3.53,0.561-7.677,2.183-10.074-1.588c-2.044-3.217,0.57-6.368,2.24-9.136c9.783-16.214,19.088-32.709,29.145-49.627
	c1.949-3.084,3.498-5.535,4.94-8.875c19.138-28.783,35.082-58.655,53.133-88.082c2.854-4.024,4.601-7.852,6.798-12.239
	c18.936-29.048,35.15-58.908,53.154-88.492c1.264-2.126,2.365-3.534,3.711-5.562c0.548-0.937,0.772-1.308,1.331-2.236
	c0.778-1.307,1.22-2.058,1.979-3.391c2.931-4.738,5.153-9.161,9.056-13.244c11.751-15.648,20.146-32.586,29.988-48.635
	c0.303-0.495,0.14-1.276,0.302-3.211c-29.319,6.033-58.284,11.993-87.827,17.375c20.964-27.961,42.443-55.394,64.065-82.713
	c30.902-39.046,61.909-78.008,93.387-117.453c0.935-0.637,1.354-0.827,2.367-0.667c-9.896,29.789-20.388,59.225-30.875,88.664
	c-1.776,4.987-3.529,9.981-5.928,16.77c29.414-6.162,57.503-12.047,88.123-18.462c-15.552,27.875-29.999,53.768-44.851,80.416
	c1.23,4.803-1.821,7.32-3.938,10.79c-0.42,0.511-0.491,0.354-0.413,0.318c-0.228,0.239-0.534,0.514-1.389,1.07
	c-3.44,3.155-4.991,6.885-6.937,10.353c-24.582,43.795-49.142,87.602-74.048,132.041c0.14,5.105-2.151,8.723-4.323,13.101
	c-20.668,36.215-40.488,72.096-60.66,108.559c-0.392,1.078-0.567,1.498-1.048,2.52c-0.758,1.353-1.225,2.096-1.999,3.364
	C564.247,1844.569,570.211,1837.565,572.95,1841.239z"/>
<path style="fill:#010101;" d="M463.331,1972.669c29.494-24.363,58.376-48.454,87.891-72.805
	c41.687,23.947,85.45,42.122,131.005,57.084c-2.241,4.103-5.549,5.144-8.305,6.736c-67.492,38.991-135.064,77.842-202.457,117.002
	c-5.818,3.381-10.704,3.685-16.871,1.61c-31.121-10.469-58.905-26.332-82.21-49.658c-7.17-7.177-7.104-7.227-0.766-15.397
	c34.544-44.528,75.156-82.828,119.908-116.884c2.118-1.612,4.152-3.335,6.513-5.634c5.74-2.941,11.252-4.956,18.446-4.428
	c-18.697,27.308-36.892,53.882-55.511,81.061C461.053,1972.775,461.79,1973.072,463.331,1972.669z"/>
<path style="fill:#020201;" d="M1374.047,1900.752c4.014-0.632,6.068,2.295,8.545,4.362c24.207,20.197,48.342,40.479,72.549,60.676
	c2.584,2.156,4.81,5.165,11.04,5.758c-19.065-27.901-37.022-54.181-55.122-80.669c3.943-1.63,6.666-0.273,10.152,0.987
	c11.317,8.788,21.889,17.369,32.507,25.892c36.782,29.525,69.501,63.052,98.611,100.127c6.099,7.768,6.12,7.913-0.661,14.682
	c-23.809,23.764-52.211,39.817-84.012,50.349c-5.383,1.783-8.939-0.499-12.939-2.808c-35.457-20.47-70.915-40.94-106.368-61.418
	c-31.418-18.147-62.84-36.288-94.227-54.489c-2.517-1.459-5.642-2.201-7.405-5.806
	C1291.183,1943.914,1334.069,1926.146,1374.047,1900.752z"/>
<path style="fill:#010101;" d="M1445.312,1897.287c12.087,1.688,23.948,4.29,37.805,7.33c-12.378-21.449-23.8-41.24-35.293-61.733
	c15.591-15.124,26.487-32.862,35.516-51.893c0.569-1.199,0.928-2.496,1.474-3.708c2.867-6.375,2.978-6.629,9.598-4.061
	c16.43,6.374,32.501,13.791,49.209,19.291c13.609,4.48,20.6,12.739,25.167,26.259c10.636,31.484,22.927,62.414,34.874,93.444
	c2.665,6.922,2.844,13.194,0.473,20.233c-9.092,26.992-20.993,52.425-40.056,75.941c-34.283-44.673-73.381-83.769-118.13-118.048
	C1445.234,1899.448,1445.161,1898.824,1445.312,1897.287z"/>
<path style="fill:#020202;" d="M478.423,1843.364c-5.083,12.857-12.939,23.554-19.312,35.091
	c-4.596,8.32-10.259,16.05-14.502,25.636c11.753-2.207,22.717-4.266,34.513-6.251c-18.059,15.3-36.828,30.652-54.394,47.441
	c-20.945,20.018-40.222,41.521-58.362,64.077c-2.046,2.544-3.528,5.669-6.886,7.1c-3.722-1.401-5.208-4.97-7.233-7.824
	c-14.545-20.5-25.083-42.975-32.546-66.941c-0.905-2.906-2.085-5.678,0.248-9.194c0.442-1.015,0.802-1.296,1.644-2.06
	c0.483-0.484,0.377-0.458,0.392-0.405c7.939-17.153,21.572-30.26,32.942-44.909c23.07-29.725,47.574-58.316,72.355-86.644
	c3.241-3.705,6.292-7.879,12.256-9.026C451.154,1808.531,464.781,1825.542,478.423,1843.364z"/>
<path style="fill:#020202;" d="M1572.294,2022.254c17.729-22.404,29.852-47.054,41.122-73.454
	c35.08,93.554,70.16,187.107,105.331,280.905c-4.829,1.139-6.992-1.31-9.457-2.717c-14.451-8.246-28.705-16.852-43.331-24.771
	c-5.688-3.08-8.964-7.256-11.307-13.082c-14.652-36.439-30.25-72.453-49.188-106.927c-9.623-17.519-20.082-34.509-31.655-50.815
	C1572.046,2028.907,1568.514,2026.568,1572.294,2022.254z"/>
<path style="fill:#020202;" d="M324.191,1977.683c7.311,15.081,15.178,28.98,25.244,41.474c3.435,4.263,3.791,7.455,0.396,12.186
	c-36.18,50.427-60.715,106.841-83.507,164.097c-1.213,3.047-2.474,5.105-5.191,6.659c-16.459,9.416-32.871,18.916-49.32,28.351
	c-0.783,0.449-1.764,0.551-4.335,1.312c35.139-93.719,69.853-186.306,105.25-280.714
	C316.961,1960.856,320.439,1968.919,324.191,1977.683z"/>
<path style="fill:#020202;" d="M279.257,2189.558c3.777-15.292,10.898-28.892,17.024-42.854
	c16.196-36.916,34.427-72.761,57.62-105.895c6.761-9.658,6.056-8.297,13.447-1.018c20.925,20.609,45.265,35.902,72.61,46.494
	c3.1,1.201,6.216,2.361,9.307,3.584c0.6,0.237,1.119,0.677,3.018,1.86c-57.333,33.01-114.019,65.649-171.408,98.375
	C280.17,2190.19,279.36,2189.966,279.257,2189.558z"/>
<path style="fill:#020202;" d="M1517.772,2069.869c14.695-8.816,27.502-18.926,39.128-30.448c7.396-7.329,6.513-7.113,12.701,1.59
	c11.209,15.764,21.03,32.407,30.215,49.412c15.845,29.333,29.255,59.808,41.971,90.593c0.81,1.961,2.702,3.957,0.669,7.459
	c-55.842-32.228-111.643-64.432-168.422-97.2c7.277-4.886,15.063-6.404,21.845-9.972
	C1502.949,2077.582,1510.044,2073.908,1517.772,2069.869z"/>
<path style="fill:#989B9D;" d="M1325.894,1183.734c-9.58,2.562-19.267,2.058-28.893,2.212c-30.962,0.495-61.887-0.187-92.675-3.937
	c-7.934-0.966-15.779-2.4-23.408-4.805c-2.525-0.796-5.016-1.815-7.358-3.044c-3.338-1.751-6.549-3.965-5.365-8.452
	c1.098-4.158,4.582-5.494,8.471-5.652c11.634-0.472,23.271-1.005,34.911-1.191c27.949-0.446,55.901-0.639,83.85-1.096
	c6.306-0.103,12.6-0.87,19.735-1.545C1319.975,1164.778,1323.666,1173.652,1325.894,1183.734z"/>
<path style="fill:#989B9D;" d="M611.473,1157.185c22.574,1.555,44.904,0.837,67.199,1.323c22.631,0.494,45.265,0.86,67.896,1.357
	c4.978,0.109,10.419-0.188,12.39,5.983c1.284,4.021-2.003,7.292-10.124,10.365c-11.962,4.527-24.59,6.001-37.152,7.078
	c-35.865,3.074-71.801,3.818-108.658,1.397C601.983,1174.462,606.414,1166.061,611.473,1157.185z"/>
<path style="fill:#EBEBEB;" d="M440.669,1789.267c-4.517,1.163-6.227,4.684-8.606,7.34
	c-38.219,42.665-74.189,87.183-109.549,133.052c-0.081-7.721,2.664-15.059,7.356-22.426c0.478-1.335,0.925-1.946,1.851-2.897
	c0.42-0.384,0.267-0.339,0.287-0.262c6.027-14.651,17.867-25.197,27.234-37.481c20.083-26.337,42.499-50.751,63.895-76.008
	c3.222-3.803,6.783-7.274,11.914-9.932c3.993-4.123,7.376-7.89,10.644-12.35c5.723-3.571,9.703-8.575,14.045-13.142
	c45.976-48.352,94.948-93.33,149.736-132.681c-0.753,5.303-3.415,10.106-7.473,14.942c-0.594,0.982-0.875,1.347-1.645,2.201
	c-0.488,0.489-0.286,0.438-0.298,0.334c-1.524,1.545-3.168,3.063-5.205,5.153c-42.683,34.15-82.781,70.142-120.813,109.44
	c-5.134,4.836-8.432,10.285-12.884,15.673c-5.052,4.192-9.529,7.997-13.419,13.351
	C445.475,1785.972,443.674,1787.901,440.669,1789.267z"/>
<path style="fill:#030303;" d="M1444.002,1834.858c-3.43-1.027-4.442-4.387-6.11-7.181c-15.177-25.426-30.284-50.893-45.596-77.016
	c5.646-1.06,10.776,1.598,16.129,3.186c21.585,6.403,42.954,13.48,64.073,21.285c6.616,2.445,6.653,2.668,3.944,9.272
	C1468.808,1803.013,1457.471,1819.247,1444.002,1834.858z"/>
<path style="fill:#060606;" d="M434.92,1780.327c-16.11,19.591-33.213,39.002-49.745,58.889
	c-17.609,21.183-34.678,42.815-52.564,64.593c-1.603-3.536,0.319-6.855,1.58-10.236c9.888-26.522,19.85-53.016,29.807-79.512
	c1.268-3.375,2.052-6.901,6.11-8.557C391.353,1796.835,412.217,1787.203,434.92,1780.327z"/>
<path style="fill:#979A9C;" d="M1313.849,1150.371c-30.141,2.105-60.302,3.393-92.713,3.351c8.916-3.058,15.984-5.058,22.696-7.899
	c7.215-3.055,14.9-5.68,18.829-13.235c-0.518-0.223-0.211,0.276-0.101,0.235c12.955-4.74,26.616-3.284,40.896-4.598
	C1310.308,1134.148,1310.589,1142.563,1313.849,1150.371z"/>
<path style="fill:#979A9C;" d="M621.741,1128.595c10.55-0.03,20.819,0.615,31.09,1.207c2.643,0.153,5.279-0.014,7.465,2.012
	c11.553,10.71,25.916,15.776,40.63,20.13c0.832,0.246,2.108-0.076,2.262,1.714c-29.129,0.312-58.18-1.383-88.154-2.555
	C613.917,1142.768,617.966,1136.103,621.741,1128.595z"/>
<path style="fill:#717D82;" d="M1445.151,1896.078c0.306,0.909,0.225,1.523,0.15,3.065c-1.011-0.153-2.028-1.234-3.245-2.846
	C1442.826,1895.771,1443.795,1895.777,1445.151,1896.078z"/>
<path style="fill:#020202;" d="M279.921,2189.926c-0.145,0.642-0.54,1.021-0.934,1.399c-0.143-0.508-0.285-1.017-0.13-1.85
	C279.155,2189.15,279.671,2189.662,279.921,2189.926z"/>
<path style="fill:#EBEBEB;" d="M321.94,1930.448c-0.12,0.115-0.486,0.646-1.436,1.209
	C320.622,1931.49,321.214,1931.216,321.94,1930.448z"/>
<path style="fill:#060606;" d="M331.584,1904.181c0.182,0.454-0.194,1.137-1.096,2.096
	C330.317,1905.838,330.671,1905.124,331.584,1904.181z"/>
<path style="fill:#EDE899;" d="M1010.342,796c0,19.318-0.03,37.636,0.014,55.953c0.02,8.232,0.087,8.231,7.974,8.373
	c11.841,0.213,11.843,0.213,11.844,12.544c0.001,6.994-0.156,13.993,0.054,20.981c0.124,4.151-1.155,6.379-5.634,5.829
	c-0.656-0.081-1.331-0.021-1.997-0.006c-12.251,0.266-12.253,0.267-12.255,12.099c-0.002,19.317-0.005,38.634,0,57.951
	c0.003,9.412,0.349,8.43-8.81,8.445c-10.658,0.017-21.326-0.275-31.969,0.119c-5.476,0.203-6.734-1.959-6.68-6.952
	c0.206-19.315,0.082-38.633,0.081-57.95c0-2.331-0.206-4.684,0.038-6.99c0.535-5.064-1.253-6.932-6.632-6.84
	c-18.312,0.313-36.634,0.118-54.951,0.118c-15.76,0-15.38-0.012-15.874-15.596c-0.438-13.813,1.763-26.916,5.77-40.167
	c17.323-57.285,34.025-114.757,50.954-172.161c0.658-2.233,1.397-4.444,1.981-6.695c0.801-3.086,2.763-4.129,5.869-4.116
	c18.317,0.081,36.636,0.104,54.953-0.01c3.791-0.023,5.397,1.253,5.318,5.181c-0.174,8.656-0.048,17.318-0.048,25.977
	C1010.342,726.392,1010.342,760.696,1010.342,796z"/>
<path style="fill:#717D82;" d="M573.774,1840.932c-5.275,1.042-9.999,3.751-15.042,2.493c-0.956-2.828,0.936-4.574,2.123-7.019
	c1.261-0.734,1.886-1.179,2.818-2.152c0.359-0.453,0.315-0.233,0.205-0.254c2.086-2.969,4.587-5.533,7.689-7.623
	c45.682-30.788,93.334-58.003,143.461-79.419c-30.131-3.54-58.849-14.369-88.526-24.161c-0.453-4.829,2.778-7.995,4.304-12.358
	c2.425,2.74,5.264,1.554,7.723,1.027c34.843-7.473,69.935-13.466,105.256-18.177c30.372-4.051,60.812-7.282,91.371-9.673
	c47.875-3.746,95.808-5.519,143.795-4.838c42.302,0.6,84.539,2.762,126.705,6.704c61.739,5.773,122.902,14.997,183.501,28.075
	c2.238,0.483,4.558,1.22,7.252-0.84c2.738,3.475,5.018,7.649,7.467,12.474c-3.803,4.37-8.054,1.806-12.076,0.967
	c-6.289-1.312-12.49-2.212-18.628,0.356c-21.814,9.127-44.653,14.607-68.164,19.002c54.85,22.978,105.559,52.468,154.017,85.993
	c2.486,1.72,4.313,4.147,7.443,6.174c2.471,1.44,3.726,3.013,2.768,5.124c-0.87,1.919-2.998,1.392-4.361,0.901
	c-5.648-2.035-11.705-1.329-18.026-3.297c0.094-4.528-3.534-5.309-5.807-6.845c-39.246-26.507-80.267-49.891-123.368-69.556
	c-10.592-4.833-21.44-9.105-32.066-13.867c-4.427-1.984-8.795-2.589-13.574-1.876c-33.587,5.009-67.372,7.885-101.254,10.154
	c-58.197,3.897-116.431,4.54-174.681,2.832c-48.567-1.425-97.074-4.334-145.247-11.15c-7.145-1.011-13.581,0.098-20.307,2.924
	c-53.289,22.388-103.574,50.223-151.406,82.58C577.256,1836.879,574.968,1837.792,573.774,1840.932z"/>
<path style="fill:#FAFAFA;" d="M1065.891,1217.903c-65.197,39.892-150.169,38.551-210.362-2.963
	c-12.138-8.371-22.884-18.266-32.138-29.747c-4.619-5.73-4.625-5.848,0.236-11.551c23.652-27.742,53.572-45.661,88.584-54.754
	c49.605-12.884,97.665-8.479,143.384,15.444c18.794,9.834,34.768,23.248,48.339,39.621c3.37,4.065,3.691,6.75,0.068,10.853
	C1092.908,1197.369,1080.632,1208.482,1065.891,1217.903z"/>
<path style="fill:#F1F1F1;" d="M714.789,1566.095c-1.806-4.046,0.85-6.653,3.186-9.936c3.23-0.382,5.672-2.286,8.342-3.555
	c64.233-30.536,131.714-50.972,201.346-64.702c29.001-5.719,58.133-10.651,87.474-14.304c1.846-0.23,4.01,0.039,5.61-2.93
	c-14.583-11.161-29.28-22.409-44.343-34.218c-0.608-1.126-0.849-1.692-0.584-3.028c37.28,11.58,74.052,23.931,112.662,36.899
	c-32.812,18.658-63.721,36.233-95.284,54.069c-1.939,0.468-2.945,0.033-3.66-1.931c9.64-13.924,19.266-26.962,30.376-42.01
	C912.72,1494.238,810.716,1517.869,714.789,1566.095z"/>
<path style="fill:#989B9D;" d="M1262.031,1132.018c-6.29,1.115-10.823,5.873-16.66,8.153c-15.311,5.981-31.255,9.16-47.382,11.658
	c-6.245,0.967-12.555,1.51-18.813,2.406c-2.621,0.375-5.279,0.902-7.752,1.815c-8.737,3.225-11.252,9.781-7.128,18.326
	c0.713,1.477,1.817,2.764,2.783,4.203c-2.257,2.786-5.763,3.156-8.51,4.842c-3.506,2.151-7.373,4.526-7.613,8.676
	c-0.279,4.818-2.4,5.746-6.533,6.638c-7.729,1.667-16.037,3.093-18.261,12.936c-0.583,2.583-3.13,1.867-5.008,2.067
	c-7.02,0.749-14.283,0.94-15.98,10.229c-0.458,2.509-3.097,2.006-5.001,2.027c-4.003,0.044-7.826,0.45-11.737,1.771
	c-5.016,1.694-2.714,8.57-7.338,9.642c-3.895,0.903-8.074,0.851-10.892,4.139c-1.682,1.963-2.849,4.366-4.471,6.923
	c-3.416-1.231-5.428-3.577-6.91-6.522c1.452-3.196,4.542-4.016,6.959-5.572c14.021-9.024,27.606-18.609,39.936-29.893
	c4.936-4.517,9.393-9.45,13.339-14.831c5.37-7.323,7.397-15.505,6.015-24.528c-0.807-5.266-1.653-10.535-2.172-15.833
	c-1.3-13.26,4.459-20.906,17.422-23.535c13.178-2.672,26.52-2.161,39.828-1.992c17.637,0.224,35.271,0.814,52.908,1.021
	c10.645,0.125,21.183-1.495,31.727-3.157c1.243,3.689-1.94,4.845-2.92,7.741C1261.927,1132.12,1261.995,1132.05,1262.031,1132.018z"
	/>
<path style="fill:#989B9D;" d="M763.757,1163.175c-4.153-7.354-10.759-8.352-17.474-9.115c-18.204-2.069-36.294-4.762-53.876-10.12
	c-7.663-2.335-15.1-5.224-21.838-9.666c-3.565-2.35-6.943-4.879-8.862-8.692c1.839-2.555,3.932-1.61,5.65-1.301
	c16.154,2.907,32.42,3.03,48.747,2.361c17.637-0.723,35.28-1.318,52.94-0.806c6.007,0.174,11.959,0.72,17.847,1.955
	c12.34,2.587,17.489,8.976,17.155,21.764c-0.095,3.636-0.571,7.309-1.318,10.872c-3.189,15.223,0.631,28.081,11.645,39.263
	c13.426,13.632,28.708,24.771,44.58,35.242c3.028,1.998,6.516,3.377,9.023,6.357c-0.716,3.624-3.262,5.5-7.073,7.304
	c-2.265-6.47-6.384-10.809-13.564-10.852c-2.427-0.015-3.456-1.209-4.036-3.449c-1.769-6.836-7.214-8.207-13.183-8.208
	c-4.451-0.001-7.911,0.241-9.453-5.73c-1.252-4.849-6.851-6.048-11.593-6.28c-4.866-0.239-8.572-0.513-10.006-6.679
	c-1.013-4.354-6.176-5.726-10.276-7.121c-2.821-0.96-5.799-1.467-8.718-2.127c-1.578-0.357-3.72-0.29-3.683-2.476
	c0.161-9.449-7.24-11.8-13.76-15.049c-0.857-0.427-1.594-1.094-2.762-1.914C763.28,1174.29,765.437,1169.557,763.757,1163.175z"/>
<path style="fill:#989B9D;" d="M764.466,1186.998c6.809,6.252,6.564,8.536-1.019,10.908c-12.11,3.789-24.689,5.571-37.175,7.499
	c-24.358,3.761-48.753,7.449-73.512,7.312c-11.328-0.062-22.675-0.005-33.739-2.93c-4.841-1.28-9.635-2.846-13.182-6.698
	c-2.352-2.555-4.023-5.595-2.854-9.078c1.34-3.993,4.999-2.389,7.746-2.35c29.663,0.426,59.314,0.698,88.939-1.508
	c14.295-1.065,28.566-2.142,42.55-5.496C749.645,1182.877,756.773,1183.996,764.466,1186.998z"/>
<path style="fill:#989B9D;" d="M1315.027,1207.346c-8.238,3.236-16.062,4.513-24.095,4.98c-31.115,1.809-61.746-2.34-92.311-7.333
	c-11.481-1.875-22.99-3.646-34.22-6.797c-2.893-0.812-6.241-1.389-6.614-5.066c-0.43-4.248,3.186-5.524,6.226-6.721
	c5.973-2.351,12.239-3.524,18.601-2.154c31.443,6.775,63.383,7.316,95.327,7.673c12.978,0.145,25.961-0.244,38.943-0.283
	c2.448-0.007,5.669-1.346,6.87,2.101c1.037,2.975,0.247,5.903-1.722,8.447C1320.356,1204.361,1318.091,1205.734,1315.027,1207.346z"
	/>
<path style="fill:#979A9C;" d="M787.586,1206.061c7.845,5.14,8.03,7.097,1.384,11.167c-2.813,1.723-5.876,3.202-9.013,4.203
	c-31.504,10.057-63.655,16.464-96.855,16.749c-7.051,0.061-13.897-0.957-20.434-3.768c-4.441-1.909-8.018-4.749-10.14-9.137
	c-2.013-4.165-0.956-6.365,3.717-6.574c11.63-0.52,23.24-1.106,34.8-2.586c24.708-3.165,49.585-5.404,73.516-12.894
	C772.504,1200.734,779.602,1203.433,787.586,1206.061z"/>
<path style="fill:#979A9C;" d="M1230.298,1238.005c-27.162-2.557-53.004-7.049-78.2-14.814c-5.702-1.757-11.475-3.629-16.252-7.428
	c-3.825-3.042-4.036-5.827-0.148-7.755c8.375-4.151,17.016-7.751,26.757-4.731c23.651,7.333,48.196,9.606,72.585,12.739
	c11.226,1.442,22.495,2.358,33.821,2.54c2.24,0.036,5.075-0.585,6.346,1.752c1.486,2.732-0.697,5.118-2.101,7.225
	c-3.104,4.658-7.915,6.918-13.113,8.517C1250.559,1238.952,1240.884,1238.143,1230.298,1238.005z"/>
<path style="fill:#96999B;" d="M782.886,1242.899c-16.059,4.457-31.042,10.353-47.368,9.31c-1.324-0.085-2.672,0.053-3.978-0.129
	c-3.096-0.431-7.659,0.718-8.387-3.16c-0.596-3.174,3.126-5.598,5.625-7.683c2.615-2.183,6.102-2.412,9.347-3.081
	c18.834-3.886,37.725-7.406,54.893-16.938c6.023-3.344,13.004-1.976,19.466-0.386c3.173,0.781,3.987,3.239,1.819,6.118
	c-2.259,3-5.37,4.945-8.583,6.671C798.682,1237.398,791.244,1240.231,782.886,1242.899z"/>
<path style="fill:#96999B;" d="M1112.579,1222.162c9.459-3.755,17.735-3.176,26.332,1.419c15.724,8.405,33.246,11.321,50.546,14.629
	c6.913,1.322,12.415,4.082,15.061,12.096c-9.114,3.074-18.234,2.805-26.827,1.261c-18.657-3.352-36.902-8.565-54.102-16.816
	c-2.977-1.428-5.784-3.289-8.461-5.236C1112.948,1227.931,1111.148,1225.887,1112.579,1222.162z"/>
<path style="fill:#96999B;" d="M1098.462,1245.521c-3.687-3.185-9.829-4.964-8.095-9.746c1.802-4.972,7.957-3.221,12.45-3.498
	c3.432-0.211,6.75,0.441,9.548,2.364c14.281,9.813,30.623,14.535,47.057,18.829c5.466,1.428,8.636,4.499,11.021,9.145
	c1.712,3.336,0.539,5.207-2.894,5.522c-5.663,0.519-11.277,0.097-16.861-1.238
	C1132.407,1262.53,1115.161,1255.671,1098.462,1245.521z"/>
<path style="fill:#96999B;" d="M821.644,1249.684c-14.852,7.824-29.721,13.54-45.361,17.259c-4.917,1.169-9.878,1.639-14.876,1.333
	c-6.069-0.371-6.758-2.085-3.688-7.642c2.06-3.727,4.929-5.892,9.168-6.964c9.676-2.446,19.265-5.239,28.545-9.011
	c6.192-2.517,12.207-5.332,17.75-9.087c6.658-4.51,13.87-4.031,21.124-2.161c3.51,0.905,3.986,3.199,1.619,5.929
	C832.143,1243.703,827.138,1246.423,821.644,1249.684z"/>
<path style="fill:#96999B;" d="M853.926,1253.015c-0.269,1.084-0.309,1.493-0.534,1.683c-16.966,14.341-35.652,25.058-58.292,27.161
	c-3.205,0.298-7.767,0.889-8.782-2.748c-1.123-4.021,2.025-7.48,5.461-9.781c1.609-1.077,3.639-1.54,5.497-2.231
	c14.011-5.206,27.855-10.72,39.529-20.454c2.365-1.972,5.164-2.861,8.263-2.979C851.44,1243.423,852.773,1244.649,853.926,1253.015z
	"/>
<path style="fill:#96999B;" d="M1075.014,1256.757c-2.62-3.887-3.473-7.415-0.701-10.691c3.065-3.623,7.275-2.544,11.155-1.83
	c1.559,0.287,3.174,1.167,4.406,2.202c12.209,10.259,26.819,15.798,41.461,21.295c1.544,0.579,3.228,1.022,4.527,1.967
	c3.076,2.238,5.84,5.654,5.056,9.126c-0.851,3.768-5.357,2.996-8.588,3.085c-6.753,0.186-13.219-1.32-19.393-3.934
	C1099.747,1272.392,1087.007,1265.963,1075.014,1256.757z"/>
<path style="fill:#989B9D;" d="M988.963,1521.808c1.101,0.618,1.612,1.473,2.851,2.584c-1.035,2.648-3.635,3.692-6.923,4.857
	C984.379,1525.834,987.068,1524.224,988.963,1521.808z"/>
<path style="fill:#EBEBEB;" d="M975.902,1432.345c0.378,0.846,0.331,1.385,0.21,2.735c-2.574,0.053-4.336-1.612-5.759-3.818
	C972.321,1429.988,973.713,1432.314,975.902,1432.345z"/>
<path style="fill:#717D82;" d="M1216.074,1385.879c-0.082,1.182-0.207,1.824-0.65,3.392c-1.882,0.036-1.871-1.724-2.492-3.118
	c-0.445-1-1.36-2.519,0.307-2.918C1213.96,1383.063,1215.088,1384.587,1216.074,1385.879z"/>
<path style="fill:#96999B;" d="M713.055,1387.519c-0.919,0.346-1.329,0.37-2.346,0.292c-0.393-1.842,0.833-3.499,2.143-3.556
	C714.304,1384.192,713.895,1386.022,713.055,1387.519z"/>
<path style="fill:#EDE799;" d="M551.352,1587.672c0.747-0.006,1.088,0.381,0.818,1.091c-0.077,0.202-0.438,0.296-0.669,0.44
	c1.259-0.44-1.336-1.496-0.092-1.099C551.556,1587.744,551.421,1587.692,551.352,1587.672z"/>
<path style="fill:#F1F1F1;" d="M712.588,1567.328c0.022-0.255,0.486-0.542,1.249-1.112
	C714.03,1566.609,713.661,1567.065,712.588,1567.328z"/>
<path style="fill:#717D82;" d="M1295.53,1829.059c0.247,0.879,0.213,1.295,0.117,2.334c-1.91,0.493-3-0.635-2.765-2.335
	C1293.026,1828.017,1294.353,1828.334,1295.53,1829.059z"/>
<path style="fill:#030303;" d="M1366.858,1837.29c-4.344,1.438-6.996-2.166-10.147-4.327
	c-44.797-30.717-91.613-57.85-141.238-80.037c-5.153-2.304-10.287-4.654-15.414-7.016c-0.243-0.112-0.338-0.544-0.665-1.107
	c5.56-3.084,11.895-3.141,17.821-4.448c19.178-4.23,38.148-9.074,56.142-17.081c3.867-1.721,7.56-2.244,11.583-1.34
	c5.832,1.309,11.668,2.597,18.304,3.9c5.625,8.292,10.559,16.517,15.255,24.876
	C1334.569,1779.314,1350.557,1807.965,1366.858,1837.29z"/>
<path style="fill:#010101;" d="M1287.498,1572.544c-1.118-0.79-1.724-1.72,0.581-1.156
	C1288.187,1571.798,1287.727,1572.295,1287.498,1572.544z"/>
<path style="fill:#030303;" d="M625.429,1722.701c7.287-1.296,13.388,0.394,19.688,3.097c21.222,9.105,43.735,13.802,66.303,18.146
	c2.938,0.566,5.925,0.84,9.37,2.841c-2.888,1.426-5.297,2.736-7.799,3.832c-52.046,22.799-100.863,51.332-148.525,83.261
	c-2.288-1.587-0.813-2.988-0.102-4.261c19.283-34.525,38.614-69.024,57.978-103.504
	C622.976,1724.983,624.046,1724.098,625.429,1722.701z"/>
<path style="fill:#030303;" d="M445.496,1784.671c2.192-7.281,7.229-11.253,13.354-15.11c23.008-11.086,47.124-16.767,70.781-23.806
	c2.178-0.648,4.543-1.039,6.714,1.397c-16.697,29.152-33.491,57.517-50.316,85.864c-0.667,1.125-1.62,2.08-3.092,3.383
	c-13.516-7.088-19.561-20.352-27.849-31.589C450.83,1799.038,447.847,1792.298,445.496,1784.671z"/>
<path style="fill:#060606;" d="M471.573,1754.59c37.78-40.134,77.596-77.175,121.471-110.673c1.826-0.587,2.775-0.245,3.44,1.617
	c-17.145,30.814-34.437,60.687-53.638,90.145c-4.667,4.078-9.997,4.843-15.016,6.409c-14.488,4.52-29.039,8.838-43.428,13.682
	C480.238,1757.171,475.696,1759.799,471.573,1754.59z"/>
<path style="fill:#717D82;" d="M470.972,1753.995c2.731,4.255,5.684,1.14,8.097,0.41c18.956-5.74,37.863-11.644,56.795-17.464
	c1.569-0.482,3.213-0.718,5.641-0.959c0.336,4.306-2.869,7.342-4.501,11.623c-3.929-2.041-6.93,0.44-9.852,1.343
	c-22.11,6.834-44.152,13.887-66.963,20.574C461.616,1763.163,466.926,1759.379,470.972,1753.995z"/>
<path style="fill:#717D82;" d="M444.888,1783.928c1.96,0.461,2.632,1.524,3.187,2.77c8.166,18.33,20.28,33.927,33.956,49.293
	c0.684,3.432-0.974,5.372-2.899,7.74c-16.731-14.967-29.827-32.509-39.08-53.614C440.406,1786.73,442.426,1785.383,444.888,1783.928
	z"/>
<path style="fill:#10273C;" d="M596.994,1646.025c-1.098-0.329-1.65-0.999-2.761-2.007c0.529-2.487,2.57-3.504,5.171-4.393
	C600.321,1642.275,598.402,1643.752,596.994,1646.025z"/>
<path style="fill:#717D82;" d="M463.102,1972.234c0.009,1.135-0.75,2.187-1.681,3.056c-0.697,0.651-1.803,1.37-2.598,0.554
	c-1.208-1.24,0.126-2.276,1.234-3.598C461.121,1971.997,461.691,1972.034,463.102,1972.234z"/>
<path style="fill:#030303;" d="M563.327,1833.587c0.17,0.743-0.366,1.272-1.395,2.128
	C561.833,1835.152,562.227,1834.263,563.327,1833.587z"/>
<path style="fill:#10273C;" d="M600.308,1639.9c-0.731-0.592-0.52-1.187,0.837-1.696
	C601.622,1638.73,601.306,1639.279,600.308,1639.9z"/>
<path style="fill:#717D82;" d="M1468.058,1975.043c-0.814,0.939-1.557,0.879-1.973,0.479c-1.037-0.997-3.365-2.129-1.947-3.564
	C1466.222,1969.849,1467.223,1972.449,1468.058,1975.043z"/>
<path style="fill:#717D82;" d="M1468.402,1975.601c0.527,0.268,1.191,0.78,1.133,1.187c-0.121,0.843-0.742,0.891-1.507-0.184
	C1467.838,1976.197,1468.211,1975.797,1468.402,1975.601z"/>
<path style="fill:#10100A;" d="M933.557,835.228c9.451-35.027,18.7-69.257,27.95-103.486c0.543,0.087,1.086,0.175,1.629,0.262
	c0,19.633,0,39.266,0,58.899c0,20.621,0.046,41.242-0.026,61.862c-0.026,7.49-0.155,7.559-7.765,7.625
	c-8.94,0.078-17.881,0.018-27.606,0.018C928.118,851.444,931.489,843.887,933.557,835.228z"/>
<path style="fill:#020202;" d="M803.624,1695.604c21.475-1.804,42.011-3.979,62.603-5.186c47.571-2.788,95.214-3.523,142.829-1.953
	c64.251,2.119,128.214,7.925,191.753,17.86c19.565,3.059,39.026,6.788,60.008,10.469c-3.419,3.867-6.76,4.253-9.717,5.198
	c-23.843,7.619-48.339,12.332-73.045,15.957c-50.116,7.353-100.545,10.881-151.146,12.88c-43.3,1.711-86.595,1.796-129.867,0.665
	c-46.588-1.218-93.143-3.995-139.409-9.889c-30.359-3.867-60.649-8.45-90.046-17.435c-4.401-1.345-9.015-2.232-13.614-5.36
	c7.678-4.08,15.667-4.245,23.244-5.649C718.782,1705.458,760.59,1699.422,803.624,1695.604z"/>
<path style="fill:#10273C;" d="M1022.58,1159.979c10.722,31.758-6.512,68.092-39.479,78.48c-25.362,7.992-47.734,2.179-65.569-17.25
	c-17.663-19.241-21.151-42.257-11.118-66.031c10.252-24.292,29.695-37.076,56.292-37.68
	C990.05,1116.877,1011.661,1132.265,1022.58,1159.979z"/>
</svg>
