<?xml version="1.0" encoding="UTF-8"?>
<svg id="Layer_1" data-name="Layer 1" xmlns="http://www.w3.org/2000/svg" version="1.1" viewBox="0 0 1920 2400">
  <defs>
    <style>
      .cls-1 {
        fill: #eae497;
      }

      .cls-1, .cls-2, .cls-3, .cls-4, .cls-5, .cls-6, .cls-7, .cls-8, .cls-9, .cls-10, .cls-11, .cls-12, .cls-13, .cls-14, .cls-15, .cls-16, .cls-17, .cls-18 {
        stroke-width: 0px;
      }

      .cls-2 {
        fill: #fdfdfd;
      }

      .cls-3 {
        fill: #9a9ea0;
      }

      .cls-4 {
        fill: #f8f8f8;
      }

      .cls-5 {
        fill: #94999c;
      }

      .cls-6 {
        fill: #060707;
      }

      .cls-7 {
        fill: #000203;
      }

      .cls-8 {
        fill: #a0a3a5;
      }

      .cls-9 {
        fill: #020202;
      }

      .cls-10 {
        fill: #004a87;
      }

      .cls-11 {
        fill: #969c9f;
      }

      .cls-12 {
        fill: #010101;
      }

      .cls-13 {
        fill: #014a86;
      }

      .cls-14 {
        fill: #8f989e;
      }

      .cls-15 {
        fill: #9c9fa2;
      }

      .cls-16 {
        fill: #000305;
      }

      .cls-17 {
        fill: #010203;
      }

      .cls-18 {
        fill: #78848a;
      }
    </style>
  </defs>
  <path class="cls-18" d="M965.3,2c1.3,3.5,1.4,7.1,2.6,10.4,30.1,80.7,60.3,161.4,90.5,242,37.9,101.2,75.9,202.4,113.9,303.6,54.9,146.3,109.9,292.7,164.8,439,62,165.3,124,330.7,186,496,58,154.8,116.1,309.5,174.1,464.3,52,138.6,103.9,277.2,155.9,415.7,2.1,5.5,4.9,10.7,8.1,15.5.7,3.5.5,7.5.7,11.5.2,3.9-2.8,1.2-4.6,1.4-3.2-2.6-5.6-4.9-8.4-6.5-45.5-26.3-91.1-52.6-136.6-78.8-70.3-40.6-140.7-81.1-211-121.6-91.6-52.9-183.2-105.9-274.8-158.8-63.4-36.6-126.8-73.2-190.2-109.8-24.2-14-48.4-27.9-72.7-41.9-2.5,1.4-4.9,2.7-7.1,4-75.2,43.4-150.5,86.8-225.7,130.2-68.9,39.7-137.8,79.4-206.7,119.2-106.9,61.7-213.8,123.5-320.7,185.2-42.9,24.8-85.9,49.6-128.7,74.5-1.9,1.1-3.2,3.4-4.7,5.1-1.7,0-3.4-.3-5,0-4.1.8-2.9-2.1-3-5.1,4.9.4,4.4-4.2,5.3-6.4,6.6-17.1,12.9-34.2,19.3-51.4,32-85.3,64-170.7,96-256,57.9-154.5,115.8-308.9,173.8-463.4,56.1-149.5,112.1-299,168.2-448.4,56.1-149.5,112.1-298.9,168.2-448.4,55.9-149.2,111.8-298.3,167.8-447.5,33.4-89.1,66.8-178.1,100.2-267.2.6-1.5.9-3.2,1.3-5.5.9-.8,1.7-.8,3.3-.8M622.1,1129.1c0,1-.2,2.1-1.5,3.7-.9,1.4-2,2.7-2.5,4.2-17.9,47.6-35.8,95.3-53.7,142.9-38,101.2-75.9,202.5-113.9,303.7-36,95.9-72,191.9-107.9,287.8-42,112.1-84.1,224.3-126.1,336.4-2.7,7.1-4.5,14.5-7.4,22.2.4,0,.8.1,2.6,0,15.9-9,31.9-17.9,47.8-27,49.3-28.4,98.5-57,147.8-85.5,54.5-31.4,109.1-62.7,163.5-94.1,57.4-33.1,114.6-66.4,171.9-99.6,67.2-38.8,134.4-77.4,201.6-116.2,6.3-3.6,12.2-7.9,19-11.9.5,0,.9,0,2.3,1.1,8.5,5.2,16.9,10.6,25.6,15.5,54.5,31.4,109.1,62.7,163.6,94.2,62,35.8,123.9,71.8,185.9,107.6,62.6,36.1,125.2,72.1,187.8,108.2,60.9,35.1,121.6,70.4,182.5,105.5,1.8,1,3.9,1.4,7.4,2.5-2.1-6.3-3.4-11-5.1-15.5-24.9-66.4-50-132.7-74.9-199.1-33.9-90.4-67.8-180.8-101.7-271.1-42.1-112.2-84.2-224.4-126.2-336.6-31.1-82.9-62-165.9-93.1-248.8-3.5-9.3-7.7-18.3-12.5-28.1-.3-1.1-.6-2.3-.8-5-.7-2.5-1.2-5.2-2.1-7.6-6.4-17.2-12.9-34.3-19.3-51.4-105-280-209.9-560-314.9-840-1.1-3-2.6-5.9-4.4-10.1-1.6,3.6-2.6,5.6-3.4,7.7-49.5,131.9-98.9,263.8-148.4,395.6-55.5,148.1-111.1,296.2-166.6,444.3-7.8,20.9-15.3,41.9-23,64.4Z"/>
  <path class="cls-10" d="M209.6,2229.7c2.2-7.3,4.1-14.7,6.7-21.8,42-112.2,84-224.3,126.1-336.4,36-95.9,72-191.9,107.9-287.8,38-101.2,75.9-202.5,113.9-303.7,17.9-47.7,35.8-95.3,53.7-142.9.6-1.5,1.7-2.8,3.1-3.6,2.1,24.2,2.6,47.9,5.5,71.3,5.5,44.7,16.3,88.3,30.6,131,23,68.9,54.4,133.8,91.8,196,42.7,71,91.6,137.5,147.9,198.3,21,22.7,43.7,43.9,65.6,65.8-6.1,4-12,8.2-18.3,11.9-67.2,38.8-134.4,77.4-201.6,116.2-57.4,33.1-114.6,66.4-171.9,99.6-54.5,31.5-109.1,62.7-163.5,94.1-49.3,28.4-98.5,57-147.8,85.5-15.8,9.1-31.8,18-48.6,27-.8,0-1.1-.3-1.1-.3Z"/>
  <path class="cls-10" d="M1305.9,1131.9c3.9,9.1,8.1,18.1,11.5,27.4,31.1,82.9,62,165.9,93.1,248.8,42,112.2,84.1,224.4,126.2,336.6,33.9,90.4,67.8,180.8,101.7,271.1,24.9,66.4,49.9,132.7,74.9,199.1,1.7,4.6,3.1,9.3,5.1,15.5-3.5-1.2-5.7-1.5-7.4-2.5-60.9-35.1-121.6-70.4-182.5-105.5-62.6-36.1-125.3-72.1-187.8-108.2-62-35.8-123.9-71.8-185.9-107.6-54.5-31.5-109.1-62.8-163.6-94.2-8.6-5-17.1-10.3-25.5-16.6,10.8-11.1,21.7-20.8,32.1-31.2,38.7-39.1,74.5-80.8,107.4-124.8,57.1-76.3,106-157.3,142.7-245.4,35-84,56.5-171,58-262.4Z"/>
  <path class="cls-12" d="M622.1,1127.5c7.6-20.9,15.1-41.9,23-62.8,55.5-148.1,111.1-296.2,166.6-444.3,49.5-131.9,98.9-263.8,148.4-395.6.8-2.1,1.8-4.1,3.4-7.7,1.9,4.2,3.3,7.1,4.4,10.1,105,280,209.9,560,314.9,840,6.4,17.1,12.9,34.3,19.3,51.4.9,2.5,1.4,5.1,1.2,8.3-11.1-.9-21.4-2.1-31.5-4.1-61.4-12.4-121.5-29.8-180.9-49.5-43.9-14.6-87.9-28.9-127.8-53.7-16.5,11.6-34.7,19.6-53.3,27-70,27.9-142.1,49.3-215.1,67.5-23.9,5.9-47.9,11.7-72.5,13.5M946.2,772.2c.3.3.6.5,1.1,2.4-4.3,33.9-8.5,67.9-13.1,104.2,10.5-9.4,19.5-17.3,30.1-26.8v124.7c.3,0,.7,0,1,0,15.2-72.9,30.4-145.9,45.6-218.8-.6-.2-1.1-.4-1.7-.6-10.1,8.9-20.3,17.7-30.4,26.6-.5-.3-1.1-.6-1.6-.8,5.1-35.5,10.2-71.1,15.3-106.6-10.8,6-18.3,14.7-29,22.3v-131.3c-.7,0-1.4-.2-2.1-.3-15.2,73.5-30.4,146.9-46,222.2,11.2-6.7,20.6-12.3,30.7-17.1M1003.1,455.9c12.3-3.4,24.6-6.8,39.2-10.8-20-5.4-37.5-10.5-55.3-14.9-5.3-1.3-7.6-4-8.9-9.1-3.8-15.1-8-30.2-12.1-45.2-.7-2.5-1.7-4.8-3.1-8.7-5.3,19.5-10.3,37.4-14.9,55.4-1.1,4.1-3,6.2-7.1,7.2-8.1,1.9-16.1,4.1-24.1,6.3-10,2.7-19.9,5.5-29.9,8.3,0,.5,0,.9,0,1.4,19.8,5.4,39.6,10.9,59.3,16.3,5.5,20.2,10.8,39.7,16.5,60.8,1.4-3.8,2.4-6.1,3.1-8.6,4.1-15.1,8.3-30.1,12.1-45.2,1.3-5,3.5-8.1,8.9-9.1,4.9-.8,9.6-2.5,16-4.1Z"/>
  <path class="cls-15" d="M622.1,1128.3c24.7-2.6,48.7-8.3,72.6-14.3,73.1-18.1,145.1-39.6,215.1-67.5,18.6-7.4,36.9-15.4,53.3-27,39.8,24.8,83.9,39.1,127.8,53.7,59.4,19.8,119.5,37.1,180.9,49.5,10.1,2,20.4,3.2,31.4,4.9,1.1,1.2,1.5,2.4,2.3,3.9-1.1,91.8-22.6,178.8-57.6,262.8-36.7,88.1-85.6,169.2-142.7,245.4-33,44-68.7,85.7-107.4,124.8-10.3,10.4-21.3,20.1-32.5,30.6-1,.5-1.5.5-2.3.6-22.3-21.9-44.9-43.1-65.9-65.8-56.4-60.8-105.2-127.3-147.9-198.3-37.4-62.1-68.7-127.1-91.8-196-14.3-42.7-25.1-86.3-30.6-131-2.9-23.4-3.3-47.1-4.8-71.6.1-2,.2-3,.3-4.8M1100.9,1305.9c.6-.4.9-.9,2.4-1.9,23.4-9.7,45.7-21.5,65-38.1,19.4-16.7,33.9-36.4,38.8-62.1,1.1-5.6,3.2-11.6-2.3-17.7-9.4-2.1-18.7-4.8-28.2-6-26.3-3.5-52.6-7.2-79-9.4-26.4-2.2-53-2.7-80.6-4.8-10-14.6-20-29.2-30.3-45.4-7.3-19.9-14.5-39.8-24.6-59.1-7.4,20.2-14.7,40.4-23.1,61.5-7.2,10.8-14.3,21.6-21.7,32.3-2.8,4.1-6.1,7.8-11,11.5-21.3,1.1-42.6,1.4-63.7,3.4-31.8,2.9-63.5,6.5-95.1,10.5-9.4,1.2-18.4,4.8-28.7,8.4-.1,2-.5,4-.3,5.9,2.2,21.9,11.3,40.7,25.9,56.9,22.3,24.7,50.2,40.8,81.4,53.8.7.3,1.4.5,2.1.6,0,0-.1,0-.5,1.5,1.3,1.9,2.5,3.9,4,5.7,30.6,39.5,61.1,79.1,91.5,120.2-3.6,10-7.1,20.1-11,30-3.5,8.9-7.4,17.7-13.1,26.4h-12.7v45.6h155.1v-45.4c-5.5,0-10.5,0-16.3-1.1-7.1-19-14.2-38-20.5-58.1,31.3-40.4,62.6-80.9,93.9-121.4.8-1,1.2-2.3,1.6-3.5,0,0,0,.1.9-.1M921.7,1630.9c0,17.3,0,34.5.4,51.8.1,6.3.9,12.7,2.5,18.7,3.9,14.6,12.6,25.2,28.5,27,8.1.9,16.6.6,24.6-.7,11.4-1.8,19.4-9,23-19.9,6.9-21,7.7-42.4,1.6-63.8-5.2-18.3-24.6-24.7-39-20.6-4.3,1.3-8.4,3.4-12.9,5.2,0-7.4-.3-14.7.1-21.8.2-2.8,1.7-5.7,3.1-8.3,2.4-4.6,6.6-6.5,11.7-6,4.6.4,8.2,2.7,9.8,7.4.7,2.1,1.5,4.1,2.1,5.7h24.3c1.7-15.8-5-27.3-19.1-31.3-7.2-2-15.1-2.3-22.6-2.2-19,.4-32.2,11.5-35.4,30.2-1.5,8.8-1.7,17.8-2.5,28.7Z"/>
  <path class="cls-10" d="M210.1,2230.1c-.3,0-.7,0-.7-.2.3-.2.6,0,.7.2Z"/>
  <path class="cls-1" d="M945.4,771.4c-9.3,5.6-18.7,11.2-29.9,17.9,15.6-75.2,30.8-148.7,46-222.2.7,0,1.4.2,2.1.3v131.3c10.7-7.6,18.2-16.3,29-22.3-5.1,35.5-10.2,71.1-15.3,106.6.5.3,1.1.6,1.6.8,10.1-8.9,20.3-17.7,30.4-26.6.6.2,1.1.4,1.7.6-15.2,72.9-30.4,145.9-45.6,218.8-.3,0-.7,0-1,0v-124.7c-10.7,9.5-19.6,17.4-30.1,26.8,4.6-36.3,8.8-70.3,13.2-105.5-.6-1.5-1.3-1.7-2-2Z"/>
  <path class="cls-4" d="M1002.3,456c-5.6,1.5-10.4,3.1-15.2,4-5.4.9-7.6,4-8.9,9.1-3.8,15.1-8,30.2-12.1,45.2-.7,2.4-1.7,4.8-3.1,8.6-5.7-21.1-11-40.6-16.5-60.8-19.7-5.4-39.5-10.8-59.3-16.3,0-.5,0-.9,0-1.4,10-2.8,19.9-5.6,29.9-8.3,8-2.2,16-4.4,24.1-6.3,4.1-1,6-3.1,7.1-7.2,4.6-18,9.6-35.9,14.9-55.4,1.4,3.9,2.4,6.2,3.1,8.7,4.1,15.1,8.3,30.1,12.1,45.2,1.3,5,3.5,7.7,8.9,9.1,17.7,4.4,35.3,9.4,55.3,14.9-14.6,4-26.9,7.4-40,11Z"/>
  <path class="cls-13" d="M1206.4,1186.6c3.9,5.6,1.7,11.5.7,17.1-4.9,25.7-19.4,45.4-38.8,62.1-19.4,16.6-41.6,28.4-66.1,38.5-1.7.7-2,1.2-2.1,1.8,0,0,0-.1-.7-.2-8.5,2.6-16.3,5.4-25,8.1-24.1,5.6-47.4,10.6-71.3,12.6-35.9,3.1-71.6,2.3-107.2-3.6-14.7-2.4-29.2-6-44.5-9.3-8.2-2.7-15.8-5.2-23.4-7.6,0,0,.1,0-.1-.5-1-.7-1.7-1-2.4-1.3-30.7-11.9-58.6-28-80.9-52.6-14.7-16.2-23.8-35-25.9-56.9-.2-1.9.2-3.9,1.5-6.1,19.2,9.5,38.7,15.4,58.6,19.1,29,5.3,58.3,9.1,87.4,13.7,4.5.7,7.4-.5,10-4.4,9.8-15,19.9-29.8,29.8-44.8,1.1-1.6,1.6-3.6,2.3-5.4,3.1-3.9,6.4-7.6,9.2-11.7,7.3-10.7,14.5-21.5,22.9-32.8,6-3.4,11-5.9,15.5-9,5.2-3.6,9.6-4.2,15.1-.2,5,3.6,10.8,6,16.2,9,10,14.6,20,29.2,30.7,44.9,11.8,17.6,22.9,34.1,33.8,50.7,2.4,3.7,5.3,4.2,9.3,3.7,14.8-1.9,29.6-3.4,44.3-5.5,28.9-4.2,57.5-10.1,84.9-20.4,5.7-2.2,10.8-5.9,16.2-8.9M928.8,1166.7c-12.8,18-25,36.4-38,56.6,22.7.9,43.3,1.7,65,2.6,0-20.9,0-40.4.2-61.8,0-11.6.7-23.2-.5-34.7-.7-.2-1.4-.4-2-.7-7.9,12.4-15.8,24.8-24.7,37.9M996.5,1164.5c-7.3-14-20.3-32.1-25.9-36.1,0,12.6,0,25.1-.1,39.5,0,9.6-.2,19.3-.1,28.9.1,9.5-.6,19,.5,28.2,15.1,1.5,58.2-.8,64.7-3.4-8.7-13-17.3-26.1-26.1-38.9-3.9-5.7-8.3-11.1-12.9-18.1Z"/>
  <path class="cls-13" d="M900.8,1490c3.7-8.9,7.6-17.7,11.1-26.6,3.9-9.9,7.3-20,11.5-31.3,2.5-6.6,4.5-12,6.9-17.9,11.1-28.2,21.7-55.8,32.3-83.4.6-.1,1.2-.2,1.8-.4,10.6,28.2,21.2,56.4,32,85.2,2.5,5.8,4.8,11,7.2,16.2,7.1,19,14.2,38,21.8,58.3,1.7,5.2,2.8,9.1,4.5,14.8-10.6-5.8-19.4-10.7-28.7-16-12.8-8.1-25.2-15.6-38-23.5-12.8,8.3-25,16.2-37.9,24.3-9.2,4.8-17.6,9.4-27.4,14.7,1.2-5.8,2.1-10.1,3-14.5Z"/>
  <path class="cls-2" d="M921.7,1629.9c.8-9.9,1-18.9,2.5-27.7,3.3-18.7,16.4-29.8,35.4-30.2,7.6-.1,15.5.2,22.6,2.2,14.2,4,20.8,15.6,19.1,31.3h-24.3c-.6-1.6-1.4-3.6-2.1-5.7-1.6-4.7-5.2-6.9-9.8-7.4-5-.5-9.2,1.5-11.7,6-1.4,2.6-2.9,5.5-3.1,8.3-.4,7.2-.1,14.4-.1,21.8,4.4-1.8,8.5-4,12.9-5.2,14.4-4.2,33.7,2.2,39,20.6,6.1,21.4,5.3,42.8-1.6,63.8-3.6,10.9-11.6,18.1-23,19.9-8.1,1.3-16.5,1.6-24.6.7-15.9-1.8-24.5-12.4-28.5-27-1.6-6-2.3-12.5-2.5-18.7-.4-17.3-.3-34.5-.3-52.8M949.8,1678.9c.7,6.5.8,13.2,2.3,19.6,1.5,6.1,7,9.2,12.8,8.7,5.8-.5,9.4-3.7,10.8-10,2.9-13.8,2.6-27.7,0-41.5-1.1-6-5.1-9.4-10.9-9.8-6.2-.4-10.2,1.7-12.6,7.5-1.2,3-1.9,6.4-2.2,9.6-.4,4.6-.2,9.3-.3,15.8Z"/>
  <path class="cls-9" d="M1001.6,1489.5c8.9,4.9,17.7,9.7,28.3,15.6-1.7-5.7-2.8-9.6-4-14.3,4.9-.7,9.8-.7,15.3-.7v45.4h-155.1v-45.6c4.3,0,8.5,0,13.7,0,0,4.4-.8,8.7-2,14.5,9.8-5.3,18.3-9.9,28.4-14.6,26.2-.2,50.8-.3,75.4-.4Z"/>
  <path class="cls-17" d="M1205.6,1186.3c-4.6,3.3-9.7,7-15.4,9.2-27.4,10.3-56,16.2-84.9,20.4-14.7,2.1-29.6,3.5-44.3,5.5-4,.5-6.9,0-9.3-3.7-10.9-16.6-22-33.1-33.2-50.3,26.3.6,52.9,1.1,79.3,3.3,26.4,2.2,52.7,5.8,79,9.4,9.5,1.3,18.8,4,29,6.3Z"/>
  <path class="cls-17" d="M907.3,1166.7c.1,1.9-.4,3.9-1.4,5.5-9.9,15-20,29.8-29.8,44.8-2.6,3.9-5.5,5.1-10,4.4-29.1-4.6-58.4-8.4-87.4-13.7-19.9-3.7-39.3-9.6-58-19.6,8.5-2.8,17.6-6.4,26.9-7.6,31.6-4,63.3-7.6,95.1-10.5,21.2-1.9,42.5-2.3,64.7-3.3Z"/>
  <path class="cls-6" d="M929.9,1414.9c-2,5.4-3.9,10.7-6.3,16.5-31-39.1-61.6-78.6-92.1-118.1-1.4-1.8-2.6-3.8-3.8-6.4,7.8,1.7,15.4,4.2,23.8,7.6,16,20.6,31.1,40.3,46.4,60,10.6,13.6,21.3,27,32,40.5Z"/>
  <path class="cls-6" d="M1004.1,1431.4c-2.7-4.7-5-9.9-6.9-16,16.9-22,33.5-43.1,49.9-64.3,9.5-12.3,18.8-24.8,28.1-37.2,7.8-2.7,15.6-5.5,24.2-8.1.2,1.3-.2,2.6-.9,3.6-31.3,40.5-62.6,80.9-94.4,121.9Z"/>
  <path class="cls-6" d="M986.9,1121.2c-5.3-2.2-11.1-4.6-16.1-8.2-5.5-4-10-3.3-15.1.2-4.5,3.1-9.5,5.7-15,8.6,6.7-20.1,14-40.3,21.4-60.5,10.1,19.2,17.3,39.2,24.8,59.9Z"/>
  <path class="cls-6" d="M1100.4,1306c-.3-.5,0-1,1-1.5.4.5,0,1-1,1.5Z"/>
  <path class="cls-6" d="M825.6,1304.8c.4-.3,1.1,0,2.1.8-.4.3-1.1,0-2.1-.8Z"/>
  <path class="cls-12" d="M945.8,771.8c.3-.2,1,0,1.5.7-.5.2-.8,0-1.5-.7Z"/>
  <path class="cls-3" d="M1074.3,1314c-8.5,12.4-17.7,24.8-27.3,37.1-16.4,21.2-33,42.2-50.1,63.7-11.2-27.9-21.8-56.1-32.4-84.3-.6.1-1.2.2-1.8.4-10.6,27.6-21.2,55.2-32.3,83.4-11.1-12.9-21.9-26.3-32.4-39.9-15.2-19.6-30.4-39.4-45.7-59.7,14.4,2.4,28.9,5.9,43.6,8.4,35.5,5.9,71.3,6.7,107.2,3.6,23.9-2,47.2-7,71.3-12.6Z"/>
  <path class="cls-16" d="M996.8,1166c4.2,5.5,8.6,11,12.5,16.7,8.8,12.9,17.4,25.9,26.1,38.9-6.5,2.6-49.5,4.9-64.7,3.4-1.1-9.2-.4-18.7-.5-28.2-.1-9.6,0-19.3,1-29.8,9.1-.9,17.3-1,25.5-1Z"/>
  <path class="cls-7" d="M955.9,1166v59.9c-21.7-.9-42.3-1.7-65-2.6,12.9-20.3,25.2-38.6,39.5-56.9,9.5-.3,17.5-.4,25.6-.4Z"/>
  <path class="cls-14" d="M996.7,1165.2c-8,.7-16.2.8-25.3.8-.9-12.5-.9-25-.9-37.6,5.7,4,18.7,22.1,26.1,36.8Z"/>
  <path class="cls-11" d="M956,1165.1c-8.1,1-16.1,1-25.1.9,6.9-12.5,14.8-24.9,22.7-37.3.7.2,1.4.4,2,.7,1.2,11.5.4,23.2.4,35.7Z"/>
  <path class="cls-5" d="M1001.2,1489c-24.2.6-48.7.7-74.3.7,11.3-8,23.5-15.9,36.3-24.2,12.8,7.8,25.2,15.4,38,23.5Z"/>
  <path class="cls-8" d="M949.8,1677.9c0-5.6,0-10.3.3-14.9.3-3.2,1-6.6,2.2-9.6,2.4-5.8,6.4-8,12.6-7.5,5.8.4,9.8,3.7,10.9,9.8,2.5,13.8,2.9,27.7,0,41.5-1.4,6.4-5,9.5-10.8,10-5.8.5-11.3-2.6-12.8-8.7-1.5-6.4-1.6-13.1-2.3-20.6Z"/>
</svg>