<?xml version="1.0" encoding="UTF-8"?>
<svg id="Layer_1" data-name="Layer 1" xmlns="http://www.w3.org/2000/svg" version="1.1" viewBox="0 0 1920 1174">
  <defs>
    <style>
      .cls-1 {
        fill: #e3da96;
      }

      .cls-1, .cls-2, .cls-3, .cls-4, .cls-5, .cls-6, .cls-7, .cls-8, .cls-9, .cls-10, .cls-11, .cls-12, .cls-13, .cls-14, .cls-15, .cls-16, .cls-17, .cls-18, .cls-19, .cls-20, .cls-21, .cls-22, .cls-23, .cls-24, .cls-25, .cls-26, .cls-27, .cls-28, .cls-29, .cls-30, .cls-31, .cls-32, .cls-33, .cls-34, .cls-35, .cls-36, .cls-37 {
        stroke-width: 0px;
      }

      .cls-2 {
        fill: #02273a;
      }

      .cls-3 {
        fill: #e3da94;
      }

      .cls-4 {
        fill: #7c878e;
      }

      .cls-5 {
        fill: #01273a;
      }

      .cls-6 {
        fill: #092d3c;
      }

      .cls-7 {
        fill: #03283a;
      }

      .cls-8 {
        fill: #dfd793;
      }

      .cls-9 {
        fill: #114f87;
      }

      .cls-10 {
        fill: #707e66;
      }

      .cls-11 {
        fill: #0f4d87;
      }

      .cls-12 {
        fill: #e4da95;
      }

      .cls-13 {
        fill: #e3d994;
      }

      .cls-14 {
        fill: #c7c389;
      }

      .cls-15 {
        fill: #ddd592;
      }

      .cls-16 {
        fill: #e5db95;
      }

      .cls-17 {
        fill: #d4cd8e;
      }

      .cls-18 {
        fill: #87916f;
      }

      .cls-19 {
        fill: #03293a;
      }

      .cls-20 {
        fill: #dfd692;
      }

      .cls-21 {
        fill: #a6a97c;
      }

      .cls-22 {
        fill: #04293b;
      }

      .cls-23 {
        fill: #dfd693;
      }

      .cls-24 {
        fill: #ded592;
      }

      .cls-25 {
        fill: #d7d090;
      }

      .cls-26 {
        fill: #062a3b;
      }

      .cls-27 {
        fill: #0f4e87;
      }

      .cls-28 {
        fill: #e2d994;
      }

      .cls-29 {
        fill: #bab984;
      }

      .cls-30 {
        fill: #072b3b;
      }

      .cls-31 {
        fill: #101820;
      }

      .cls-32 {
        fill: #0e4d87;
      }

      .cls-33 {
        fill: #e2d894;
      }

      .cls-34 {
        fill: #e1d893;
      }

      .cls-35 {
        fill: #052a3b;
      }

      .cls-36 {
        fill: #dcd491;
      }

      .cls-37 {
        fill: #104e87;
      }
    </style>
  </defs>
  <path class="cls-4" d="M1383,1175c0-2.1-1.7-2.4-2.9-3.2-22.2-13.9-44.3-27.9-66.4-41.8-35.9-22.5-71.8-44.8-107.7-67.3-24.8-15.6-49.4-31.4-74.2-46.9-28.8-18.1-57.8-35.9-86.6-53.9-22.2-13.9-44.2-28-66.3-42-5.2-3.3-10.7-6.4-15.8-9.9-2-1.4-3-.6-4.7.5-27.1,17.2-54.2,34.3-81.3,51.3-32.1,20.1-64.3,40.2-96.5,60.2-31.6,19.8-63.2,39.5-94.8,59.3-32.8,20.6-65.7,41.1-98.5,61.7-15.4,9.6-30.7,19.3-46,29-.9.6-1.6,1.6-2.1,2.7-4.6,1.5-3.6-2-3.7-5.2,3,.3,2-2.5,2.4-3.6,8.7-23.7,17.1-47.6,25.8-71.3,13-35.9,26.2-71.7,39.3-107.6,13.7-37.6,27.2-75.2,40.9-112.7,14-38.7,28-77.3,42-116,13.7-37.7,27.4-75.4,41.1-113.2,14-38.7,28-77.3,42-116,13.7-37.7,27.4-75.4,41.1-113.2,14-38.7,28-77.3,42-116,14-38.7,28-77.3,42-116,13.6-37.6,27.2-75.2,40.9-112.7,8.1-22.2,16.2-44.4,24.3-66.7.3-.9.5-1.9.5-3.2.5-.3,1.2-.3,2.4-.3.1,5.1,2.9,9.3,4.5,13.7,13.8,38.9,27.7,77.8,42,116.5,11.1,30.2,22,60.4,32.9,90.6,13.6,37.8,27.3,75.5,41,113.2,11.3,31.3,22.7,62.6,34,93.9,13.7,37.7,27.3,75.5,41,113.2,11,30.2,22,60.4,32.9,90.6,14.1,38.8,28,77.7,42.1,116.5,10.9,30.1,22,60.1,32.9,90.1,14.1,39,28,78,42.2,116.9,9.8,26.7,19.5,53.3,29,80.1,12.9,35.9,26.1,71.8,39.3,107.6,3.1,8.5,5.6,17.3,10.1,25.2-.9,1.6,3.3,6.2-3.2,5.8Z"/>
  <path class="cls-31" d="M647.9,1068c-16.3,10.5-32.5,20.7-49,31-.9-2.4.5-4.4,1.3-6.6,114.6-317.8,229.2-635.5,343.9-953.3,5.5-15.2,11-30.4,17-47,121.8,336.3,243.1,671.2,364.3,1006.2-.3.3-.6.6-.9,1-16.5-10.3-33-20.7-49.8-31.3-3-3.3-2.6-7-2.3-10.7,1.3-14.6,1.1-29.2,0-43.9-1.3-17.1-3.9-34-7.9-50.7-4.4-18.7-10.7-36.8-18.6-54.3-11.7-25.8-26.4-49.7-44.5-71.5-18.8-22.4-40.1-42.1-64.5-58.5-1.7-1.1-3.3-2.2-4.9-3.4-2.3-1.7-3.6-4-2.7-7,1.8-6-.4-11.1-3.6-16,0-.1-.3-.3-.3-.4-1.5-11.4-9.9-20-12.2-31-1-5-3.5-9-7.3-12.2-2.3-2-3.7-4.2-3.7-7.2,0-4.3-1.7-7.8-4.9-10.6-3.4-3-5.4-6.7-6.2-11.1-.8-4.1-2.7-7.5-6-10.1-2.5-2-3.8-4.5-4.4-7.6-1.3-5.9-3.9-10.9-9-14.5-2.1-1.5-3.2-3.8-3.4-6.4-.5-4.7-2.6-8.5-6.1-11.6-3.3-2.9-5.9-6.1-6.5-10.9-.4-2.9-1.9-6-4.3-7.7-5.8-4-8.1-10.4-11.9-15.8-13.8-19.6-30-36.3-52.4-46-.6-.3-1.2-.5-1.9-.7-7.2-2.5-7.3-2.5-5.1-9.9,1.1-3.7.3-6.6-2.8-8.8-2.3-1.7-4.7-3.5-6.2-5.7-3.5-5-8.3-4.8-13.4-4.5-1.6,0-2.9.7-4,1.8-2.9,3.2-6.1,6.2-9.5,8.9-3,2.4-3.2,5.4-2,9,2,6.1,1.3,6.9-4.6,9-15.5,5.4-27.6,15.6-38.9,27-8.6,8.7-15.2,18.8-22,28.9-4.5,6.6-11,11.9-12.4,20.4-.2,1.3-1.8,2.4-2.9,3.4-4.4,3.9-7.5,8.4-8,14.5-.2,2.4-1.7,4.3-3.7,5.7-4.4,3.2-7,7.6-8.1,12.8-.8,3.9-2.4,7.1-5.6,9.6-2.9,2.2-4.4,5.5-5.1,9-.9,4.4-2.6,8.1-6.1,11.1-3.3,2.9-5.1,6.5-5.1,11,0,2.8-1.3,5-3.5,6.8-4.2,3.5-7,7.9-7.6,13.6-.5,4-1.6,7.7-4.7,10.7-2.2,2.1-3.6,4.9-4,7.9-.8,5.9-3,11.1-6.3,16-2.2,3.3-3.1,7.2-2.2,11.5.8,3.5-.5,6.5-3.7,8.6-16.8,11-32.2,23.7-46.4,37.7-11.3,11.2-21.9,23.3-31.3,36.2-24.1,32.9-41.5,69-51.7,108.5-4.5,17.6-7.3,35.5-8.7,53.6-1.1,14.8-1.3,29.6,0,44.4.3,3.6.9,7.4-1.7,11Z"/>
  <path class="cls-35" d="M648,1068.3c-1.5-16-2.3-32.2-1.4-48.3,1.8-31.4,7.7-62,18.7-91.6,12.4-33.6,29.9-64.3,52.7-91.9,12.8-15.6,27.1-29.7,42.6-42.6,8.4-6.9,17.1-13.2,26.1-19.3,2.2-1.5,3.3-3.3,2.5-5.9-1.9-6.7.9-12.2,4.6-17.2,1.8-2.4,2.7-4.7,2.9-7.7.3-4.6,1.8-9,5-12.2,3-2.9,4.3-6.3,4.6-10.1.6-6.3,3.8-10.9,8.4-14.8,1.8-1.5,3-3,2.8-5.4-.3-5.1,1.8-9.1,5.6-12.3,3.1-2.6,4.8-5.8,5.4-9.8.4-2.5.8-5.3,2.6-6.9,5.4-4.6,7.2-11.1,10.1-17.1,3.9-7.9,11.6-13.7,13.1-23.2.1-1,1.4-1.8,2.3-2.6,3.6-3.4,7.2-6.7,7.6-12.3.1-2.1,1.5-4.8,3.2-6.1,9.6-7.5,13.1-19.5,21.1-28.1,13-14,26.5-27.2,44.3-35,2.7-1.2,6.6-.5,8-3.2,1.4-2.7-1.1-5.7-1.7-8.6-.6-2.4-.1-4.2,1.7-5.8,4-3.6,7.8-7.3,11.8-10.7,3.1-2.6,14.5-2,17.5.7,2.9,2.7,5.6,5.7,8.9,8,3.8,2.6,4.7,5.8,3.1,10.3-2.2,6.2-1.8,6.2,4.2,8.3,11.9,4.3,22.1,11.5,31.4,20,11.7,10.7,22.3,22.4,29.5,36.8.9,1.7,2.4,2.7,3.9,3.8,3.7,2.6,6.2,6.4,6.9,10.7.6,4,2.5,6.7,5.3,9.2,4.2,3.6,7,7.9,7.3,13.7,0,2.3,1.4,3.9,3.3,5.3,5,3.6,7.9,8.5,8.9,14.5.5,3.2,1.9,5.6,4.4,7.5.7.5,1.5,1.1,1.7,1.8,3.1,11.8,14.2,19.7,15.5,32.3.2,1.6.9,2.8,2.1,3.8,5.4,4.2,8.7,9.5,9.2,16.5.3,3.4,1.6,6.3,4.2,8.7,3.1,3,4.7,7,5.1,11.2.3,4,1.7,7.2,3.8,10.5,3,4.5,4.7,9.7,2.6,15.2-1,2.6,0,4,2.1,5.3,17.8,11.2,34,24.6,48.9,39.4,13.5,13.3,25.8,27.8,36.6,43.5,21.4,31,37.2,64.6,46.6,101.1,4.6,17.7,7.3,35.8,8.9,54.1,1.1,13,.5,26,.8,38.9,0,5.5-1.4,10.9-.9,16.9-2.3-1-4.5-2.4-6.9-4.1-2.1-2.3-2.4-4.7-2.1-7.2,1.8-16.3.6-32.5-.9-48.8-2.3-24.2-7.7-47.6-15.7-70.5-11.6-33-28.4-63-50.4-90.2-6.1-7.5-12.3-14.9-19.1-21.7-16.6-16.7-34.6-31.6-54.7-44.1-1.6-1-3.1-1.9-4.6-3-2.9-2.1-4.3-4.2-1.9-7.9,2.4-3.8-1.1-9.6-5.8-9.7-3,0-6.1-.4-9,.4-11.5,3.2-21.1-2.2-31-6.6-1.5-.7-3.3-1.6-2.9-3.6.5-2.2,2.6-2.2,4.4-2.5,10.5-1.4,21.2-1.5,31.8-3,4.7-.6,5.4-2,3-6.1-1.7-2.9-4.1-4.5-7.4-4.2-15.2,1.7-30.4,3-45.7,4.4-5.5.5-10.9,1.1-16.4,1.5-1.8.1-4.1.1-4.1,2.6,0,2.1,2.2,2.3,3.7,2.7,21.3,5.7,41.9,13.4,61.4,23.7,20.6,10.8,39.9,23.4,57.3,38.9,4,3.6,4.2,5.5,1.1,9.8-2.3,3.2-5.4,5.5-8.6,7.5-3.3,2.1-6.3.4-8.9-2.1-11.1-10.6-22.7-20.5-35.1-29.5-22.2-16.2-45.9-29.5-71.7-39.1,19.2,8.2,37.6,17.9,54.9,29.6,17.1,11.6,33.4,24.2,47.7,39.3,4.9,5.1,4.8,7.8-1.5,11.2-7.6,4.1-15.5,7.7-23.8,10.2-5.6,1.7-7.7,1.1-11.2-3.6-5.4-7.2-10.9-14.3-16.9-21-11.9-13.3-24.5-25.9-38.5-37-5.7-4.5-11.5-9-17.8-12.6,10.8,7.6,20.4,16.6,29.6,25.9,11.5,11.5,22.3,23.8,31.9,37,1.8,2.6,3.8,5.1,5.5,7.8,3.1,5.1,2.2,8-3.6,9.6-9.8,2.7-19.8,4.3-29.8,6.1-4.1.7-8.2,1.3-12.3,1.8-6,.7-8.2-.5-10.4-6.1-6.4-16.4-13.4-32.6-21.7-48.3-.8-1.5-1.2-3.5-3.3-4.6-.3,2.7,1.2,4.6,2.1,6.6,7.2,14.8,13.7,30,19.3,45.5,2.2,6.3.5,8.4-6,9.2-6.2.8-12.6.4-18.8,2,7.3,1.1,14.4-.3,21.5-1,4.4-.4,7.1.8,8.5,4.9,6.3,18.8,11.7,37.9,16.2,57.2.4,1.8.8,3.6-.9,5.4-11.3-5.6-21.5-12.7-32.1-19.2-19.3-11.9-38.6-24.1-57.8-36.2-2.2-1.4-4.2-2.7-7.1-.5-13.7,4-26.2.9-38.7-5-1.8-2.4-4.6-3.9-4.1-7.6,2.6-19.7.8-38.6-3.8-57.8-2.1-3-1.1-6.6-3.3-9.6-2.5-7.9-5.6-15.2-8.5-22.9-1.2-1.7-1.2-3.5-2.2-5.3-1.3-3.4-2.8-6.4-4-9.8-.6-1.9-1.6-3.3-2.1-5.3-.7-1.4-.7-2.7-1.5-4.1-1.8-4.6-4.8-5.9-9.4-6.3-19.4-1.6-38.7-3.4-58.1-5.3-2.8-.3-5.4-.1-7.3,2.1-1.4,1.6-3,3.5-2.4,5.8.6,2.6,3.2,1.9,5,2.2,10,1.5,20.2,1.5,30.3,2.9,2,.3,4.4,0,4.9,2.5.5,2.4-1.7,3.3-3.5,4.2-9.9,4.5-19.7,9-31.1,6-2.5-.7-5.3-.4-8-.2-4.9.3-8,5.4-5.7,9.7,2.1,4,.6,6.2-2.7,8.1-13.8,8.4-26.8,18-39.1,28.5-14.6,12.5-27.9,26.1-39.8,41.1-28,35.2-47.4,74.6-58.1,118.3-4.3,17.5-7,35.2-8,53.2-.7,12.3-1.3,24.6,0,36.9.3,2.5.1,5-1.7,7.5-2.3,1.7-4.4,3.1-6.9,4.7Z"/>
  <path class="cls-1" d="M909.3,793c2.1,2.5,2.5,5.4,3.2,8.6-.1,7.5-4.2,13.2-6.9,19.4-4.4,9.9-8.6,19.8-12.3,30-1.7,4.8-1.2,5.2,3.9,5.9,4.1.5,8.2,1,12.4,1,2.5,0,5,.4,7,2.8-.3,2.8.9,4.4,2.9,6-1.6,3.6-4.8,2.8-7.4,2.4-6.1-1-12.3-.3-18.4-1.5-4.2-.8-6.8,1.2-8.1,5.4-4.9,16.3-9.6,32.6-13.8,49-.7,2.7-1.2,5.6-3.9,7.7-3.1,3.1-6.2,5.3-10.5,6.4-2.7-2.1-1.9-4.6-1.3-7,4.6-19.1,9.8-38,16.2-56.6,2.3-6.6,1.8-7.3-5.2-8.2-12.4-1.6-24.6-4.1-36.7-7.2-4.7-1.2-7.4,0-9.9,4-14.9,23.7-27.5,48.6-37.7,74.8-5.7,14.8-5.1,12,8.1,15.5,8,2.2,16.3,3.3,24.4,5.1,1.9.4,4.1.5,4.9,3.2-2.3,2-4.4,3.9-7.7,4.5-2.8,1.5-5.2,1.7-8,1.2-7.7-1.5-15.3-3.1-22.9-5-6.8-1.7-7.1-1.4-9.4,5-2.6,7.2-4.5,14.6-6.5,22-.9,3.4-2,6.6-4.7,9.5-3.7,3.5-8,5.6-12.3,8-3.1-2-1.7-4.9-1.2-7.3,2.6-12.7,5.8-25.3,9.8-37.6,1.7-5.4,1.7-5.7-3.7-7.6-12.9-4.6-25.5-9.7-37.4-16.4-3.4-1.9-4.9.2-6,2.9-5.1,12.3-9.9,24.6-13.8,37.4-5.2,17.1-8.8,34.4-11.3,52.1-.7,5.1-.7,9.8,2.1,14.6-4.3,4-8.9,7-14.4,9.2-2.1-.6-2.7-2.1-2.5-3.6.5-5.1-3.1-7.2-7.3-10.4-.6,5.4-.6,10,0,14.6.3,2.2.7,4.3-1.5,6.2-1.6,2.7-4.1,3.7-6.7,5-6.6-87.1,18.8-163.8,76.2-229.7,19.9-22.9,43.2-42,69-57.9,1.4-.9,2.8-1.7,4.9-3-4.1-1.1-6.3-2.6-4.4-7.1,3.1-7.4,4.6-9,10.3-8.5,4.5.4,9,.5,13.4,1.2,6.2,1,11.4-1.2,16.7-3.7,3.3-1.6,6.7-2.8,10.1-4.9-8.6-.7-17.2-1.5-25.8-2.2-4.5-.4-9-.8-13.4-1-3.2-.2-4-1.6-3-4.5,3-8.8,6-10.7,15.1-9.8,19.1,1.9,38.1,3.8,57.2,5.1,5.5.4,9.3,1.5,10.3,7.8-1.1,3.6-4.2,3.9-6.9,4.6-19.7,5.3-38.7,12.4-56.9,21.5-20.5,10.2-39.4,22.9-57.1,37.3-3.9,3.1-4.1,4.8-1.5,7.7,4.3,4.8,6.7,5.2,10.3,1.8,26.4-25.1,55.9-45.7,89-61,6-2.8,12.3-5.2,18.5-7.5,1.7-.6,3.5-1.2,5.7-.1,1.5,1.2,2.1,2.6,2.3,4.6-.7,2.9-2.8,3.8-5,4.7-29.7,12.5-57,28.8-81.5,49.6-6.2,5.3-12.5,10.4-18.2,16.3-3.5,3.7-3.5,4.1.8,6.4,6.5,3.5,13.3,6,20.2,8.6,3.1,1.2,5.4.6,7.3-2.2,11.9-16.5,26-31.2,40.6-45.2,10.3-9.9,21.8-18.5,33.6-26.6,1.7-1.2,3.4-2.2,5.9-1.5,1.6,1.2,2.2,2.6,2.3,4.6,0,2.8-1.6,4.2-3.4,5.5-12.8,9.3-23.9,20.6-35,31.9-10.6,10.8-20,22.7-28.8,35-2.4,3.3-2.1,4.5,2,5.5,12.9,3.2,26,5.5,39.2,7.2,3.5.4,4.5-2,5.5-4.6,6.4-16.8,13.9-33.1,22.3-49,1.6-3,2.7-6.6,6.8-7.9Z"/>
  <path class="cls-28" d="M1054.7,930.2c-4.7-21.5-10.9-42.3-17.5-63-.8-2.6-2.1-3.1-4.7-2.8-9.6,1-19.2,1.7-28.9,2.5,1-6.2,5.2-6.7,10.1-6.8,5.5-.1,11-.9,16.4-1.1,3.3-.1,3.8-1.2,2.6-4.3-5.9-16.2-12.4-32.2-20.4-47.5-2.4-4.7-3.5-8.8-.3-13.4,1.4.3,1.7,2,2.3,3.2,10.2,17.9,18.5,36.8,25.7,56.1,1.3,3.4,2.5,4.7,6.3,4.2,15.2-2.2,30.2-4.8,45.1-8.5,3.2-.8,3.6-1.7,1.7-4.4-19.3-27.2-41.4-51.7-68.1-71.9-.5-.4-1-.9-1.6-1.2-2.1-1.2-3-2.8-1.4-4.9,1.7-2.3,2.9,0,4,.8,16.7,10.8,31.9,23.5,45.9,37.6,11.3,11.4,21.6,23.6,31,36.6,1.9,2.6,3.4,3.2,6.6,2.1,9.3-3.3,18.3-7.1,27-11.6,3.1-1.6,3.1-2.7.7-5.1-30.6-29.8-65.1-53.7-104.7-70-.8-.3-1.6-.6-2.3-.9-1.6-.7-3.6-1.1-2.4-3.8,1.1-2.5,2.8-1.2,4.1-.7,17.5,6.4,34.3,14.3,50.3,23.9,22.1,13.2,42.3,28.9,60.7,46.9,2.8,2.7,4.5,3.2,7.7.6,10.6-8.9,10.7-8.8,0-17.4-34.3-27.7-72.7-47.1-115.4-58.2-1.5-.4-4.8.5-4.1-2.6.6-2.6.9-6,5.2-6.3,11.8-.9,23.6-2,35.3-3.1,9.5-.9,18.9-1.7,28.3-2.7,6.9-.7,13.7,5.2,13.7,12,0,3.2-2.5,2.5-4.4,2.7-12.8,1.1-25.6,2.1-38.4,3.6,9.6,3.8,18.3,10.7,29.8,8,2.9-.7,6-.5,9-.8,7.2-.6,12.9,4.6,12.7,11.7,0,3.2-3.2,2.1-4.9,3.6,8.2,5.6,16.5,10.7,24.3,16.5,68.8,51.1,110.1,119,123.5,203.7,3.6,22.8,4.2,45.8,2.2,69.2-2.6,0-4.4-1.7-6.7-3.3-2.1-2-2.3-4.1-1.9-6.6.7-4.4.6-8.9,0-14.1-3.8,2.3-7.3,3.9-7.2,8.7,0,1.7,0,3.4-2,4.6-5.2-2.2-9.6-5.1-14-8.5,3.9-21.3-3.7-40.8-8.4-60.6-3.5-14.7-9.1-28.8-15.1-42.8-2.3-5.3-3-5.7-8.1-3.1-11.7,6.1-23.7,11.4-36.2,15.6-3.8,1.3-4.8,3.3-3.5,7.2,4,12.2,7.1,24.6,9.8,37.1.5,2.3.9,4.6-.6,7-4.8-1.5-9-3.8-12.6-7.6-4.9-4-5-9.9-6.5-15.1-1.7-5.7-3.5-11.4-5.3-17.2-1.2-3.7-3.2-5-7.1-4-7.7,2-15.5,3.7-23.4,5.2-2.9.6-5.6.7-8.6-.8-3-.8-5.2-2.3-7.5-4.2.3-3.1,2.6-3.3,4.7-3.7,10.1-2.2,20.2-4,30.2-6.6,5.6-1.5,6-2.1,4-7.6-10.6-28.5-23.9-55.6-40.1-81.3-2.5-4-5.3-5.2-9.9-3.9-12.4,3.3-25,5.5-37.7,7.2-5.6.8-6.2,1.8-4.4,7.2,6.4,18.8,11.8,37.8,16.4,57.1.6,2.4,1.4,4.9-1,7.3-4-.8-7-3.1-10.2-5.7Z"/>
  <path class="cls-5" d="M1064.5,936.1c-1.8-13-5.9-25.5-9.4-38.1-3-10.5-6.4-20.9-9.9-31.3-1-2.9-.5-3.5,2.4-3.9,16.3-2.2,32.6-5,48.5-9.4,2.1-.6,3.3,0,4.5,1.8,18.7,28.9,33.7,59.6,45.5,91.9,1.2,3.3-.6,3.5-2.9,4.1-13.2,3.5-26.6,6.1-40.4,8.7-13-6.8-25-14.8-37.4-22.8-.4-.4-.5-.6-.8-.9-.2-.2-.2,0-.1,0Z"/>
  <path class="cls-32" d="M820.7,959.9c-13.8-2.8-27.4-5.1-40.8-8.5-4.1-1.1-4.9-2.2-3.4-6.3,11.6-31,26-60.5,43.7-88.4,2.1-3.2,3.9-4,7.6-2.9,15.1,4.3,30.5,6.9,46,8.9,3.7.5,3.8,1.4,2.8,4.6-7.7,22.3-14.2,44.9-19.5,68.3-.9,1.7-1.8,2.7-3.2,3.6-11,6.8-22,13.7-33.2,20.7Z"/>
  <path class="cls-32" d="M687.7,1043.1c-5.6-1.7-6-5.2-5.4-10.4,4-35.1,13.8-68.6,28.4-100.6.3-.6.8-1.1,1.3-1.7,15,9.2,31.1,16,47.8,21.2,2.5.8,2.5,1.9,1.8,3.9-5.3,16-9.4,32.2-12.9,49-17.1,11.2-34.1,22.1-51.2,32.9-3.1,1.9-6.3,3.7-9.7,5.7Z"/>
  <path class="cls-5" d="M1173.4,1004.3c-3.5-16.5-7.6-32.6-12.9-48.4-.9-2.7-.3-3.7,2.4-4.5,15.6-4.9,30.7-11,44.6-19.6,3.5-2.2,3.8.3,4.7,2.2,9.1,20.1,16.3,41,21.3,62.5,3.1,13.3,5.1,26.7,6.8,40.2.5,3.8-2.4,4.2-4.5,6-3.1-.4-5.3-2.4-7.7-3.8-17-10.6-33.9-21.2-50.8-31.8-1.3-.8-2.4-1.8-3.8-2.9Z"/>
  <path class="cls-11" d="M867.9,930c4.1-21.1,10.3-41.8,16.8-62.4.9-2.8,2.3-3.3,5.1-3,9.6,1,19.3,1.5,29.4,2.3,12.1,5.8,24.7,6.7,37.8,7.1-20.9,13.5-42.3,27.1-63.7,40.5-8.3,5.2-16.7,10.3-25.4,15.4Z"/>
  <path class="cls-37" d="M761.3,996.9c2.7-12.4,6.3-24.8,10.2-37.2,1-3,2-4.1,5.6-3.2,11.3,3.1,22.8,5.7,34.9,7.7,0,.7-.4,1.6-1.1,2-16.4,10.2-32.8,20.4-49.5,30.7Z"/>
  <path class="cls-22" d="M1110,964.6c11.7-2.1,23.5-4.8,35.2-7.9,3.2-.9,4.3-.2,5.2,2.8,3.7,11.9,7.3,23.7,10.2,36.2-1,.6-1.8,0-2.7-.5-15.5-9.7-30.9-19.3-46.3-29-.5-.3-.9-.9-1.6-1.6Z"/>
  <path class="cls-9" d="M661.8,1059.1c-1.3-8.5-1.4-17-1.1-26.9,5.4,6.4,15.1,8.4,11.9,19.3-2.6,4.1-6.6,5.7-10.8,7.6Z"/>
  <path class="cls-26" d="M1249.5,1052.2c-1.9-7.1.6-11.9,6.6-15.3,1.7-.9,3-2.5,5.1-4.4.5,9,.3,17.3-.7,26-3.7-1.8-7.2-3.9-11-6.4Z"/>
  <path class="cls-31" d="M598.5,1099c0-.2-.2.8,0,0,.1,0,.1,0,0,0Z"/>
  <path class="cls-28" d="M1064.6,936c.1,0,.3,0,.5.6.2-.1,0-.4-.5-.6Z"/>
  <path class="cls-30" d="M891.6,395c-3.4-.9-6.3-2.2-5.9-6,.4-3.7,3.5-4.4,6.5-5.1,11.5-2.7,23-5.6,34.5-8.2,3.9-.9,5.2-2,2.5-5.8-2.7-3.8-4.9-7.9-7.2-12-1.3-2.3-2.6-5-.2-7.3,2.5-2.4,5.2-1.6,7.8,0,3.6,2.2,7.1,4.4,10.6,6.6,5.3,3.3,5.7,3.2,7.1-2.7,2.5-10.5,4.9-21.1,7.4-31.6.5-1.9,1-3.9,1.7-5.7.8-2,2.4-3.2,4.7-3.1,2.1,0,3.5,1.3,4.2,3.1.8,2,1.3,4.1,1.8,6.2,2.5,10.7,5.2,21.4,7.5,32.1,1,4.6,2.9,4.4,6.1,2.3,3.6-2.4,7.3-4.6,11-6.9,2.7-1.6,5.6-2.8,8.2-.2,2.6,2.6,1,5.3-.4,7.8-2.3,4.1-4.6,8.1-7.2,12-2.4,3.4-1.1,4.5,2.3,5.3,11.7,2.7,23.3,5.6,35,8.3,3.2.8,6.5,1.5,6.5,5.6,0,3.8-3,4.8-6.1,5.5-11.7,2.8-23.3,5.6-35,8.2-4.1.9-5,2.4-2.6,5.9,2.7,4,5.2,8.2,7.6,12.3,1.3,2.2,2.1,4.8,0,7-2.3,2.4-4.9,1.6-7.3.2-3.9-2.2-7.8-4.6-11.6-6.8-5.2-3.1-5.3-3.1-6.7,3-2.5,10.7-5,21.4-7.5,32.1-.2,1-.4,2-.7,2.9-.9,2.7-2.1,5.1-5.4,5-3.3,0-4.6-2.5-5.2-5.2-2.1-8.7-4.1-17.5-6.2-26.3-.9-3.7-1.9-7.4-2.7-11.2-.6-2.8-1.9-3.1-4.2-1.7-3.8,2.4-7.6,4.8-11.5,7-2.8,1.6-6,4.1-9.1,1.1-3.2-3-.8-6.2.8-9.1,2.1-3.6,4.3-7.1,6.6-10.6,2.2-3.3,1.5-4.8-2.4-5.7-11.7-2.6-23.3-5.5-35.4-8.3Z"/>
  <path class="cls-16" d="M922.3,583.1c7.5-6.4,16.4-10.1,26.4-11.1,1.6-.2,3.7.1,3.4-2.4-.6-3.7,2-4,4.4-4.3,3.1-.5,6.3-.5,9.4,0,2.4.4,4.6.8,4.1,4.1-.3,2,1,2.4,2.8,2.5,9.7.7,18.3,4.3,26.4,10,.4.7.2,1.1-.5,1.3-7.1-3.7-14-6-21.9-4.3-4.7,1-7.5,2.9-7.4,8.2.1,3.9-.5,7.9-1,13.6,2.7-4.9,4-3.9,5.3-.9.6,1.4,1.5,3,3.7,3.5,0-4.3.7-8.2,3.4-11.6,4-5.1,8.5-6.9,14.5-4.7,9.9,3.7,16.6,10.8,20.4,20.6.5,1.3,1.3,2.8-.7,4.4-1.8-10.1-8.9-15.5-17.2-19.6-5.7-2.8-13.7-.4-16.8,4.7-2.9,4.8-1.5,8.5,4,9.6,3.6.7,7.3.8,10.9,1.2,3.1.3,6.3.5,9.4,1,1.5.2,3.5.4,4.2,1.4,3,4,6.3,7.5,9.9,11,4,4,4.1,10,4,15.6,0,1.7-.3,3.1-2.2,4-6.9,3.5-16,2.1-21.3-3.4-.9-1-1.4-3.1-3.3-2.3-1.5.7-1.8,2.3-1.9,3.8-.2,1.5-.2,2.9-.3,5.6-22.2-18.9-44.3-19.2-65.8-.7-1.5-1.3-1-2.3-1.1-3.2,0-2,0-4.4-1.9-5.4-2.4-1.2-2.8,1.7-4,2.8-5.2,4.9-14.9,6.2-21,2.6-1.1-.6-1.7-1.4-1.8-2.7-.3-6.3.1-12.6,4.3-17.5,2.7-3.1,6-5.4,8.3-9.2,2.2-3.6,7.8-2.9,12.1-3.3,4.5-.5,9-.5,13.4-1.3,5.8-1,7.2-5,4-9.9-2.7-4.1-9.4-7-14.1-5.2-9.5,3.6-17.3,9.2-19.6,20.3-2.1-1-1.3-2.7-.8-4.1,3.7-9.9,10.5-17,20.3-20.7,8.3-3.1,17,3.1,17.8,12.2.1,1.3,0,2.6,0,4,2.4-.5,3.5-2.2,4-3.8,1.3-3.8,2.8-2.3,5.2,1.2-.5-6.5-.9-11.4-1.3-16.3-.2-3.1-2.4-4.1-4.9-4.9-8.2-2.5-15.8-.8-23.3,3.5-.7.2-1,.3-1.7,0Z"/>
  <path class="cls-11" d="M909.6,792.6c-11.1,19.7-20.3,39.9-27.9,60.8-1.2,3.3-2.7,4.2-6.1,3.7-15.2-2.1-30.2-4.8-45.1-8.5-3.1-.8-3.7-1.6-1.7-4.5,20.1-28.2,43.1-53.7,71.6-74.3,4.5,6.9,6.8,14.6,9.2,22.7Z"/>
  <path class="cls-27" d="M898.8,764.4c-26.2,17.6-49.2,38.3-69,62.7-3.9,4.8-7.6,9.7-11.3,14.6-1.4,1.9-2.6,2.7-5,1.8-10.7-3.8-21.2-7.9-31.4-14.3,32.5-32.4,69.1-57.8,112.2-74.5,2.3,2.8,3.7,5.8,4.5,9.5Z"/>
  <path class="cls-9" d="M892.7,749.6c-15.6,6.6-31.2,13.1-46,21.5-24.7,14.1-47.2,31-67.6,50.9-2.7,2.6-4.3,2.8-7.2.4-10.7-9-10.8-8.9-.1-17.5,35.2-28.5,74.9-48,119.2-58.9.8,1,1.2,2.1,1.7,3.6Z"/>
  <path class="cls-23" d="M933,748.4c5.2,33.7,9.8,67,12.1,100.6.3,4.3.4,8.7.7,13,.1,2.2-.4,4.6,3.8,6.3-9.6,0-17.1-.7-24.4-3.3-1.9-.7-3.2-1.4-2.7-3.9,6-32.7-3.1-63-14.4-93-6-15.7-13-31-16.9-47.4-1.8-7.3-2.7-14.8-.6-22.2.5-1.9,1-3.8,3.5-6.2,0,6-.3,11,0,16,.8,12,4.9,23.1,10.7,33.5,11.3,20.5,18.7,42.2,21.5,65.5,1.8,15.1,2.7,30.2,2.6,45.4,0,8.9.2,9.1,9.2,10.6,5.9,1,6,.8,5.4-5-4-38.9-8.4-77.8-14.5-116.5-.4-2.7.9-4.9,1.3-7.4,2,4.3,2,9,2.9,14Z"/>
  <path class="cls-23" d="M997.7,843.7c.6,5.8,1,11.1,1.9,16.3.5,2.8-.3,4.2-3,5.1-7.2,2.5-14.6,3.2-20.9,3.2,2.6-45,8.2-89.6,15.8-134.7,3,5.3,1.5,10.1.8,14.6-5.6,36.9-9.7,73.9-13.6,111-.4,4.2,1,5,4.7,4.1,1-.2,2-.3,3-.5,6.8-1.5,7.2-1.9,7.2-8.8,0-27.2,1.6-54.3,10-80.4,2.5-7.8,5.5-15.4,9.4-22.5,9.8-18,18-36.5,15.8-57.9,3,2.9,3.7,6.5,4.1,10.2.9,10.9-2.2,21.1-5.7,31.2-7,20.1-15.9,39.5-21.9,59.9-4.6,15.9-7.6,32.1-7.3,49.2Z"/>
  <path class="cls-11" d="M916.8,860.6c-8.3-.3-16.4-1.1-24.5-1.5-4-.2-4.2-1.5-3-4.9,6.5-17.7,13.8-35.1,22.8-52,5.8,16.2,7.2,33.1,5.9,50.2-.2,2.6-.7,5.2-1.3,8.2Z"/>
  <path class="cls-16" d="M1044.4,716.6c16.2-2.3,32-4.6,47.7-6.8,6-.8,12,5,11.5,10.9-.3,2.8-2.6,2.7-4.5,3-12.4,1.5-24.7,2.9-37.1,4.3-5.9.7-11.9,1.3-17.8,2-2.8.4-4.2-.5-3.8-3.4.4-3.6-1.3-7.9,4-10Z"/>
  <path class="cls-16" d="M878.5,730.1c-18.8-2.1-37.1-4.1-55.4-6.3-5-.6-5.6-1.7-3.7-6.5,2.9-7.6,3.8-8.3,11.7-7.3,15,2,29.9,4.2,44.9,6.2,3.4.5,5.8,2.2,5.5,5.8-.3,2.8,2.7,6.7-2.9,8.1Z"/>
  <path class="cls-12" d="M1094.6,700.4c-14.7,1.9-29,3.7-43.4,5.4-4.8.6-6.6-1.4-7.5-7.5-.7-4.6,2.6-4.1,5.3-4.5,11.2-1.5,22.4-3.1,33.6-4.6,7.1-1,12.4,3.7,12,11.2Z"/>
  <path class="cls-12" d="M832.2,690.2c2.6-1.7,5.1-1.3,7.6-1,11.2,1.5,22.4,3.1,33.6,4.6,2.6.4,5.6,0,5,4.3-.8,5.8-2.7,8.2-6.9,7.7-9.6-1-19.2-2.2-28.7-3.3-4.1-.5-8.2-1.2-12.4-1.4-4.1-.2-4.5-2.1-2.6-5.1,1.2-2,2.7-3.7,4.5-5.8Z"/>
  <path class="cls-12" d="M957.6,656.8c6.1,0,11.8-.2,17.3,1.2,5.7,1.4,9.9,4.5,12.4,9.9.5,1.2,1,2.7,0,3.8-1.2,1.3-2.4.1-3.6-.4-15.2-7.4-30.4-7.3-45.6,0-1.1.5-2.4,1.7-3.5.2-.9-1.2-.5-2.6,0-3.8,2.4-4.9,6.3-8.1,11.5-9.5,3.5-.9,7.2-1.4,11.3-1.4Z"/>
  <path class="cls-12" d="M852.6,671c6.5.8,12.7,1.5,18.8,2.4,4.4.7,6,4,5.1,9.5-.7,4.4-3.9,3.4-6.5,3-10-1.4-20.1-3.1-30.1-4.5-3.8-.5-3.8-1.8-2.2-4.9,3.3-6.2,8.2-7.6,15-5.5Z"/>
  <path class="cls-12" d="M1047.8,674.1c9.6-1.4,18.8-2.8,28.1-4,3.3-.4,9.9,6.1,9.7,9.2,0,1.7-1.3,1.7-2.4,1.8-10.9,1.6-21.7,3.2-32.6,4.9-3.4.5-5.1-.9-5-4.3,0-2.6-.3-5.4,2.2-7.7Z"/>
  <path class="cls-8" d="M939.5,681.9c15.7-9.2,32.1-8.4,46.1,2.1,3,2.2,4.7,5,5.4,10.1-20.1-13.6-39.7-13.8-59.6-.3-.1-6.4,3.7-9.1,8-11.9Z"/>
  <path class="cls-34" d="M949.2,703.5c-5.2,1.4-9.8,3.4-14.4,5.3-1.1.4-2.6,2.5-3.7,0-.8-1.8-.8-3.8,1.1-4.8,12.6-7,25.5-12.4,40.3-7.7,5.6,1.7,10.8,4.3,15.9,7,1.6.8,2.9,1.7,2.8,3.7-.1,2.1-.4,3.6-3.2,2.3-4.4-2-8.9-3.7-13.4-5.2-8.2-2.8-16.6-2.9-25.4-.5Z"/>
  <path class="cls-8" d="M985.8,727.9c-16-8.2-31.8-8.8-47.7-.9-1.3.6-3.1,2.4-4.2,0-1-2.1-.5-3.9,1.8-5.4,14.6-9.6,35.9-9.7,50.5,0,3.2,2.1,3.2,4.1-.4,6.3Z"/>
  <path class="cls-28" d="M970.6,765.6c-9.6-1.5-18.6-1.2-27.3,2.6-1.5.6-3.5,2.6-4.5-.3-.7-2-1.5-4.7,1.2-6.2,2.2-1.2,4.3-2.5,6.7-3.3,11.5-3.8,22.8-3.5,33.7,2.4,1.1.6,2.7,1,3,2.4.4,1.8.7,3.8-.4,5.3-1.4,2-2.9.1-4.4-.3-2.5-.8-5-1.6-8-2.6Z"/>
  <path class="cls-13" d="M947.5,736.9c12.1-3.3,23.4-2.9,34.1,3.3.9.5,1.7,1.1,2.5,1.7,2.3,1.5,2.2,3.9,1.3,5.8-1.2,2.4-2.8.1-4.1-.4-13.6-5.8-27.1-5.7-40.6,0-1.2.5-2.9,2.8-4.1.4-.9-1.9-.9-4.2,1.3-5.8,2.9-2,5.9-3.7,9.6-5Z"/>
  <path class="cls-33" d="M944.3,780.7c11.2-5,22.2-5,33.1-.2,2,.9,3.7,2,3.7,4.7,0,4.8-.8,5.4-5.2,3.9-9.6-3.2-19.2-3-28.9-.4-1.7.4-4,3.6-5.3.3-1.1-2.8-1.8-6.3,2.6-8.2Z"/>
  <path class="cls-3" d="M1057.2,664.7c-2.4.3-4.4.4-6.3.9-3.6.9-5.4-.8-6.2-4-2-7.6-2.2-8.2,5.4-9,4.1-.4,8.2-1.2,12.3-1.9,5.9-.9,11,2.2,12.9,7.8,1,2.8-.6,3.6-2.8,4-4.9.7-9.8,1.4-15.2,2.2Z"/>
  <path class="cls-3" d="M846.7,658.6c3.4-6.4,7.6-10.2,15.3-7.7,4.2,1.4,8.8,1.6,13.2,2.2,2.8.4,3.7,1.9,3.1,4.5-2,8.6-2.7,9.1-10,7.6-5.8-1.2-11.8-1.6-17.7-2.5-2-.3-4.7-.2-3.8-4Z"/>
  <path class="cls-34" d="M970.5,526.7c2.2,1.5,2.8,2.9,1.5,5.2-3.8,6.7-6.1,14-6.5,21.8,0,2.2-1.2,2.9-2.8,2.1-2-1.1-5.8,2.6-6.3-2-.7-7.9-2.9-15.3-6.8-22.2-1.3-2.2-.2-3.4,1.4-4.5,2.1-1.4,2.4.9,3.2,1.9,2.3,3,4.3,6.2,6.5,9.4,4-3.6,5.2-8.9,9.7-11.6Z"/>
  <path class="cls-16" d="M972.2,808.2c-8.4-1.5-16.3-1.6-24.2.5-1.5.4-3.5,1.6-4.2-.9-.6-2.1-1.5-4.6.7-6.5.7-.6,1.7-1.1,2.6-1.4,9.5-3.1,18.9-3.2,28.3.3,3.9,1.4,3.6,4.5,2.6,7.4-1.2,3.3-3.6.8-5.9.6Z"/>
  <path class="cls-36" d="M945.3,642.7c10.1-8.6,30.4-5.8,37.4,5.9.7,1.2,1.6,2.4.5,3.6-1.4,1.5-2.3-.1-3.2-.9-11.7-9.4-26.2-9.4-38.1,0-.9.7-1.8,2-2.9,1.1-1.2-1-.9-2.5,0-3.5,1.9-2.1,4-4,6.2-6.2Z"/>
  <path class="cls-16" d="M976,827.6c-1,2.5-2.6,1.7-4,1.5-7.3-1.3-14.6-1.4-21.8,0-2.6.5-4.2,0-4.6-2.9-.3-2.5-.7-4.7,2.8-5.7,7.7-2.1,15.4-2.1,23.2-.6,4.4.9,6,2.9,4.4,7.6Z"/>
  <path class="cls-12" d="M1044.5,646c-7.3,0-4.2-5.7-5.3-8.9-1.2-3.2,2-3.1,4-3.5,3.1-.6,6.2-1.2,9.3-1.7,5.4-.8,9.2,2,10.3,7.3.6,2.9-1,3.4-3.2,3.8-4.9.9-9.8,1.9-15.1,2.9Z"/>
  <path class="cls-12" d="M869.8,632c3.3.6,6.2,1.3,9.2,1.6,3.3.4,4.4,1.6,3.8,5.2-1.4,8.1-1.1,8.1-9.2,6.5-3.9-.8-7.8-1.5-11.7-2.2-2.9-.5-3.3-2.1-2.4-4.7,1.9-5.3,4.6-7.2,10.3-6.4Z"/>
  <path class="cls-8" d="M955.8,849.9c-7.6.5-8.5-.2-8.3-5.3.1-2.2,1.1-3.3,3.2-3.7,6.8-1.3,13.5-1.3,20.3,0,4.3.8,3.3,3.8,3.1,6.6-.2,3-1.9,3-4.5,2.7-4.4-.5-9-.3-13.9-.3Z"/>
  <path class="cls-24" d="M1013.7,586.9c-9.8-11.5-21.6-18.6-36.4-20.4-1.3-.2-3.9.5-3.4-2.3.4-2.1,1-4.4,3.9-4.4,1.6,0,3.3.3,4.9.7,16.1,4.7,26.7,16.3,36.5,29,.9,1.2.7,2.5,0,4.3-1.9-2.4-3.6-4.5-5.5-6.9Z"/>
  <path class="cls-24" d="M907.4,588c-1.5,2-2.8,3.7-4.2,5.4-1.6-1.2-1.3-2.6-.4-3.8,9.9-13,20.9-24.8,37.4-29.3,2.5-.7,5.4-1.7,7.1,1.5,1.5,2.7,1.3,4.5-2.5,4.9-15.4,1.6-27.5,9.3-37.4,21.4Z"/>
  <path class="cls-25" d="M1017.3,600.7c1.4,1.1,2.4,2.2,3.8,3.7.8-7,1.1-13.6,3.9-19.7.5-1,.7-3.1,2.4-2.1,1.2.7,3,1.9,1.6,4-7.2,11.2-5.6,23.2-3.4,35.3.4,2.1.9,4.2,1.5,6.3.4,1.5.2,3.5,3,2.2,1.1-.5,2.5.7,3.2,1.9.9,1.4-.4,2.1-1.2,2.8-2.4,2.3-3.3,5.2-4,8.6-2.1-2.2-1.6-4.7-1.7-6.9-.2-7.3-1.6-14.2-6.9-19.7-.9-.9-2.3-2.3-.7-3.3,5.1-3.5,1.6-6.4-.4-9.4-.5-.7-.9-1.4-1.5-2.4-.1-.6,0-.9.4-1.1Z"/>
  <path class="cls-28" d="M1046.6,612.6c8.1,9.4,7.8,10.3-3.7,12.5-2.7.5-6.1,2.6-7.9.3-1.5-2,.8-5.2,1.5-7.9,1.4-5.4,5.7-5.1,10.2-4.9Z"/>
  <path class="cls-28" d="M871.3,617.9c3.8-6,5.9-6.9,10.9-4.9,2,.8,5.7,9.5,5.2,11.8-.4,1.6-1.6,1.5-2.7,1.3-4.4-.7-8.9-1.3-13.1-2.5-4.2-1.2-.7-3.6-.2-5.8Z"/>
  <path class="cls-36" d="M901.2,677c.2-.8.1-1.5.4-1.8.9-1,.9.2,1,.6,1.3,3.2,2.5,6.5,3.8,9.8,2.3,5.7,4.8,11.3,9.9,15.3,2.1,1.7,2,4.4,2.3,7.1-11.2-7.5-19.7-16-17.4-31Z"/>
  <path class="cls-36" d="M1018.3,678.8c.6-1.6,1-2.8,1.5-4.2,4.2,7.1.6,12.9-1.9,19.1-2.8,6.8-8.6,10.2-14.3,14.2.2-3.3.9-5.9,3.6-8.3,6.1-5.4,8.1-13.2,11.1-20.7Z"/>
  <path class="cls-25" d="M896.1,625.2c1.1-7.5,2.5-14.9,1.9-22.4-.4-5.5-1.5-10.9-4.8-15.5-1.6-2.2-.3-3.6,1.2-4.5,2.2-1.2,2.3,1.3,2.7,2.4,2.5,5.9,3.2,12.2,3.5,18.7,1.9,0,2-1.9,3.3-2.9.6-.2.9-.2,1.2.2-1.1,2.1-2.1,3.8-3.2,5.4-1.7,2.3-2.5,4.3.5,6.2,1.8,1.2,1.7,2.6.2,4.1-2.1,2.1-3.7,4.7-5.1,7.7-.4.4-.7.6-1.4.5Z"/>
  <path class="cls-20" d="M1031.8,682.6c-6-6.8-7.1-14.4-6.5-23.5,3,3.1,3.1,6.4,4.3,9.3,2.3,5.5,3.7,6,8.7,2.8,1.8,3.6,1.7,7.1-.5,10.4-1.4,2.1-3.4,2.4-5.9,1Z"/>
  <path class="cls-20" d="M892.2,668.6c1.5-3.1,1.4-6.5,4.3-9.3.9,8.5-.5,15.7-5.2,22.1-2.6,3.5-6.3,2.7-8.1-1.4-1.2-2.9-1.2-5.8.5-9.1,4,4.5,6.4,2.4,8.4-2.3Z"/>
  <path class="cls-20" d="M967.6,554.3c2.4-8,4.6-15.6,6.9-23.2,3.7,1.8,4.6,4,3.2,7.8-2,5.4-3.3,11.1-5,16.6-.3,1.2-.2,3-2.2,2.6-1.7-.3-3.9-.6-3-3.8Z"/>
  <path class="cls-23" d="M946,544.5c-.6-2.1-.9-4-1.7-5.6-1.7-3.6-.6-6,3.1-8,2.4,8,4.7,15.9,7,23.7.6,2-.6,2.6-2.1,3.2-2,.8-2.6-.2-3-2-1-3.7-2.1-7.3-3.3-11.3Z"/>
  <path class="cls-20" d="M952.2,864.7c-1.8-1.1-4.6-2.4-.8-3.4,7.1-1.9,14.2-2,22.2,1.1-7.3,4.9-14.1,4.5-21.4,2.3Z"/>
  <path class="cls-17" d="M1036.6,662.9c-.6,1.7,0,4.6-2.4,3.6-1.9-.7-3.7-2.8-3.5-5.5,0-.5.3-.9.6-1.3,2.9-4.1,3.7-8.1-1.2-11.9,3.9,0,5.3,1.1,6.4,4.3,1.1,3.4.8,6.9.1,10.7Z"/>
  <path class="cls-17" d="M884.9,658.8c0-5.1.3-9.8,5.6-11.7,1.1.9.7,1.7,0,2.2-3.3,2.7-2.6,5.7-.8,8.8.5.9,1.2,1.7,1.4,2.6.6,3-1.6,5.2-3.6,5.8-2.2.7-1.9-2.3-2.3-3.9-.3-1.1-.4-2.3-.6-3.8Z"/>
  <path class="cls-15" d="M966.1,522.3c1.4,1.3,2.7,2.6.6,3.7-2.3,1.2-3.4,4.8-6.9,3.7-.1,0-.3-.2-.4-.3-1.6-1.9-5.7-2.6-4.9-5.3,1-3.4,4.7-3.6,8-3.2,1.1.2,2.1.7,3.5,1.4Z"/>
  <path class="cls-36" d="M895.7,629.8c-.6,4.5.5,9.1-1.5,14.1-1.3-4-2.2-7.4-5.1-9.6-.8-.6-.9-1.3-.4-2.2,1.4-2.3,3.6-1.6,5.7-1.9.4-.4.7-.6,1.3-.5Z"/>
  <path class="cls-15" d="M941.6,549c2.8.3,3,2.4,2.9,4,0,1.7-2.1,1-3.2,1.5-1.2.5-2.5.7-3.7,1.2-2,.8-2.1-.9-2.6-2-.7-1.4-.8-2.5,1-3,1.7-.5,3.4-1,5.6-1.6Z"/>
  <path class="cls-15" d="M983.6,549.8c2.2.8,5.1.7,3.3,4.1-2.3,4.4-5-.2-7.5.2-2.1.3-2.3-1.1-1.7-2.8,1.1-3.5,3.3-2.2,5.9-1.4Z"/>
  <path class="cls-25" d="M917.2,565.1c-.8-2.9,3-7.7,5.1-6.9,1.5.6,3,2.7,1.8,3.8-1.8,1.6-3.4,4.5-6.9,3.2Z"/>
  <path class="cls-36" d="M931,558.5c-2.1.9-3.9,3.1-5.6-.2-1-2,0-2.8,1.5-3.3,1.8-.6,3.4-3.5,5.5-1.2,1.3,1.4,2,3.7-1.4,4.7Z"/>
  <path class="cls-36" d="M991.7,558.8c-2.3-1-3.9-1.8-2.5-4.5,1.5-3,3.2-.9,4.3-.2,1.3.9,4.5.5,3.1,3.8-1.1,2.7-2.7,2.3-5,.9Z"/>
  <path class="cls-25" d="M1005.3,561.7c.7,2.2-.2,4.5-1.9,4.1-2.3-.6-5.1-1.9-5.7-4.6-.2-1.1.6-4.4,3.7-2.3,1.2.8,2.4,1.7,3.8,2.9Z"/>
  <path class="cls-25" d="M1007,565.9c2.8-2.9,3.6.4,5,1.3,1,.6,3,1.3,1.9,3.4-.8,1.7-1.7,3.7-3.7,1.2-1.4-1.7-5-2.1-3.2-5.9Z"/>
  <path class="cls-16" d="M904.3,572.5c3.7-.2,3.9,1.6,2.4,4-1,1.5-2.4,2.7-3.8,3.9-.7.6-1.4,2.4-2.6.8-.8-1-2.3-2.3-.7-3.8,1.5-1.5,3-3,4.8-4.8Z"/>
  <path class="cls-25" d="M911.6,572.1c-4,1.3-3.4-1.3-3.2-3.4,0-.1.2-.2.3-.3,1.6-1.3,2.9-3.2,5.1-3.7.4,0,1.4,1.3,1.6,2.1,1,3.1-2.4,3.4-3.8,5.4Z"/>
  <path class="cls-16" d="M1016.4,571.9c2.3,1.8,4.3,3.6,6.2,5.4,1.6,1.5.1,2.8-.7,3.8-1.2,1.7-2.2,0-2.6-.7-1.7-2.6-7.3-3.8-2.9-8.5Z"/>
  <path class="cls-29" d="M907.2,597.3c3.3-5.3,7.6-9.2,12.7-12.2-3.9,4-7.7,8-11.5,12.5-.6.2-.9.2-1.2-.3Z"/>
  <path class="cls-29" d="M1014.3,597.8c-4.2-4.4-8.2-8.6-12.3-12.7,5.1,2.7,8.9,6.7,12.6,11.4.1.6.2,1-.3,1.3Z"/>
  <path class="cls-21" d="M896.3,629.7c-.4.3-.7.3-1.3.3,0-1.5.2-3,.6-4.8.4-.3.7-.3,1.4-.3,0,1.5-.2,3-.7,4.8Z"/>
  <path class="cls-29" d="M1014.5,597c1.1.6,1.9,1.5,2.8,2.7,0,.5-.2.7-.6,1.1-1-.7-1.8-1.6-2.7-2.8,0-.4.1-.6.5-1Z"/>
  <path class="cls-29" d="M904.8,600.3c.5-1.3,1.2-2.3,2.2-3.4.4,0,.6.2.9.6-.5,1.2-1.2,2.2-2.1,3.4-.4,0-.6-.2-1-.6Z"/>
  <path class="cls-29" d="M998.5,583.4c0-.5.3-.7.7-1.1,1.4.4,2.6,1,3,2.5-1.7.7-2.4-.7-3.7-1.5Z"/>
  <path class="cls-29" d="M921.5,582.9c.7,0,1,0,1.7,0-.1.6-.7,1.1-1.3,1.6-.6.4-1.5,1.1-2,.2-.4-.8.6-1.3,1.5-1.9Z"/>
  <path class="cls-25" d="M1016.5,601.2c.1-.4.3-.6.7-1,.2-.1.5.2.5.4-.1.3-.3.5-.7.8-.3.2-.5,0-.5-.1Z"/>
  <path class="cls-25" d="M904.5,600.2c.4,0,.6.2.9.7.1.2,0,.5,0,.6-.3,0-.4-.2-.8-.5-.2-.2-.2-.6,0-.8Z"/>
  <path class="cls-36" d="M919,709.4s0,0,0,0Z"/>
  <path class="cls-36" d="M1003,709.4s0,0,0,0Z"/>
  <path class="cls-11" d="M727.5,900.1c13.7-23,29.4-44,47.4-63.3,2.2-2.3,3.6-2.8,6.6-1.1,8.7,5.3,18,9.2,27.7,12.4,2.7.9,3.8,1.5,1.7,4.6-19,28.1-33.8,58.3-45.1,90.3-1,2.9-2,3.9-5.2,2.8-14.8-5.1-29.3-10.9-42.8-18.8-3-1.7-3.5-3.1-1.7-6.1,3.9-6.7,7.6-13.7,11.5-20.8Z"/>
  <path class="cls-37" d="M718.8,860.4c11-14.9,23.1-28.4,36.3-41,2.2-2.1,3.4-2.6,5.7.1,3.1,3.7,6.8,6.7,10.5,10.2-16.8,17.5-31.9,36.4-45,57-6.2,9.7-12,19.5-17.1,29.8-1.5,3-2.5,2.9-5,.9-13.4-10.9-13.6-11.5-5.3-26.2,6-10.6,12.5-20.8,19.9-30.9Z"/>
  <path class="cls-37" d="M668.2,1029.3c-5.6-4.3-7.3-9.3-6.8-16.2,2.2-31.2,14.7-78.7,27.8-102.4,4.3,5,8.9,9.6,14,13.4,2.3,1.7.4,3.3-.2,4.7-8.8,19-15.8,38.7-21,59-3.3,12.9-5.6,25.9-7.4,39.1-.3,2.1.8,5-1.4,5.9-1.7.7-3.1-2.1-5-3.5Z"/>
  <path class="cls-2" d="M1159.2,946.5c-2.1.4-2.1-1.1-2.5-2.1-11.8-33.4-27.3-64.9-47.5-94.6,5.7-2.3,11.3-4.2,16.6-6.6,5-2.2,10-4.5,14.7-7.3,2.8-1.7,4.3-1.4,6.6,1,21,22.5,38.9,47.2,53.6,74.3,1.7,3.2,3.1,6.6,5.2,9.7,2.2,3.3,1,4.7-2,6.4-14,8.2-28.9,14.3-44.7,19.2Z"/>
  <path class="cls-7" d="M1192.2,881.2c-11.6-17.4-24.3-33.4-38.5-48.2-2.9-3-2.3-4.3.6-6.3,2.2-1.5,4.4-3.2,5.9-5.3,2.9-4.3,5.1-3.7,8.6-.3,24,23.3,43.8,49.6,59.3,79.2,1.5,2.9,1.5,5-.7,7.6-3.7,4.3-7.7,8.3-12.7,11.9-6.9-13.2-14.1-26-22.5-38.5Z"/>
  <path class="cls-19" d="M1258.3,994.3c.8,8.2,1.7,16,2.3,23.8.3,3.6-7.8,14.3-11.2,14.8-2.6.4-1.7-2-1.9-3.1-2.4-23.2-7.8-45.8-15.3-67.8-3.8-11.3-8.2-22.4-13.5-33.2-1.2-2.5-1.3-4,1.2-5.7,4.8-3.3,8.7-7.7,12.9-12.5,12.8,26.8,20.8,54.5,25.3,83.7Z"/>
  <path class="cls-16" d="M959.5,389.4c-21,0-41.5.1-62.4,0-.6-.3-.7-.5-.7-1,16.8-4.3,33.4-8.3,51.8-12.8-7-6.7-13.2-12.6-19.7-18.8,0-.3.2-.3.8-.3,5.7,3.2,11.2,6.3,16.4,9.9,3.2,2.2,3.9,1,4.6-2.1,3-12.9,6.1-25.7,9.3-39,.3-.5.5-.6.9-.5.3,20.7.4,41.3.4,62.3,0,1.2-.2,1.8-1.4,2.2Z"/>
  <path class="cls-14" d="M959,389.6c.4-.6.8-1,1.5-1.7,1.6,1,2.3-.2,3.1-1,2.3-2.3,4.6-4.8,7.1-7,2.7-2.4,4.9-4.8,2.8-8.8-1-1.9,0-3.3,1.8-4.4,4.9-2.8,9.6-5.8,14.7-8.9.9-.4,1.3-.2,1.6.7-5.6,5.6-11.1,10.8-17.7,17,19.4,4.7,37.1,8.9,54.8,13.2,0,.3-.1.6-.2.9-20.7,0-41.4,0-62,0-1.8,0-3.7-.5-5.6,1-.5.4-.8.6-1.4.4-.4-.6-.5-.9-.6-1.5Z"/>
  <path class="cls-16" d="M958.9,390.9c.6,0,.8,0,1.4,0,.4,20.7.5,41.4.5,62.5-.3.6-.5.7-.9.6-4.3-16.9-8.4-33.5-12.8-51.7-5.6,5.9-10.5,11.1-15.6,16.4-.6.1-1,0-1.3-.5,3-5.5,5.9-10.5,9-15.5,1.8-2.8,5.1-3.6,7.8-5.2,3.8-2.3,7.8-4.4,12-6.7Z"/>
  <path class="cls-28" d="M991.3,418.9c-5.5-5.2-10.5-10.4-15.4-15.6,3.8-2.1,6.8-2,9.1,2.8,1.8,3.9,4.4,7.4,6.7,11.4.1.7.2,1.1-.4,1.5Z"/>
  <path class="cls-14" d="M896.2,388.1c.3.3.4.5.4,1-1.1.8-2.2.8-3.4.6.6-1.1,1.6-1.3,3-1.6Z"/>
  <path class="cls-14" d="M959.6,454.3c.2-.3.4-.3.8-.3.5,1.1.7,2.2.9,3.3-.2,0-.3,0-.5.1-.4-.9-.8-1.9-1.2-3.1Z"/>
  <path class="cls-14" d="M960.9,324.8c-.3.2-.5.2-1,.2-.5-1.4.3-2.3,1.3-3.7,0,1.4-.1,2.3-.4,3.5Z"/>
  <path class="cls-10" d="M928.7,421.1c0,1.6-.7,2.8-1.5,2.4-1.3-.5,0-1.5.5-2.4.6-.3.9-.4,1.1,0Z"/>
  <path class="cls-10" d="M993.6,420.7c1.2.9,2.6,1.7,1.3,2.7-.6.5-1.2-.6-1.4-1.6,0-.6-.2-1,.2-1.1Z"/>
  <path class="cls-18" d="M991.8,358.9c-.5-.2-.7-.5-1.2-1,.2-.5.6-.8,1.3-1.3.5,0,.8,0,1.2.5-.2.8-.6,1.2-1.3,1.7Z"/>
  <path class="cls-28" d="M991.5,418c.6.1.9.5,1.4,1.2.1.5,0,.8-.3,1-.8-.3-1.2-.6-1.7-1.1,0-.4.2-.6.6-1.2Z"/>
  <path class="cls-16" d="M930.9,418.7c0,.7-.4,1.1-.9,1.5-.5,0-.8,0-1-.3.2-.9.5-1.4,1-2,.4,0,.6.3,1,.8Z"/>
  <path class="cls-18" d="M926.9,355.6c0-.2,0-.3.2-.3,0,0,.1.2.2.2,0,0-.2.1-.4,0Z"/>
  <path class="cls-18" d="M994.8,355.7c0-.2,0-.3.1-.3,0,0,.2.1.2.2,0,0-.2.1-.4,0Z"/>
  <path class="cls-18" d="M928.5,356.6c-.3-1.3.4-.6.9-.3-.1.3-.4.3-.9.3Z"/>
  <path class="cls-18" d="M992.4,356.9c.4-.6,1.2-1.6,1.1.4-.4.1-.6,0-1.1-.4Z"/>
  <path class="cls-16" d="M929.6,420.1c0,.5-.3.9-.8,1.3-.3.1-.5-.2-.7-.4,0-.5.2-.8.7-1.4.3,0,.5,0,.8.4Z"/>
  <path class="cls-28" d="M992.8,419.7c.4.1.7.5,1.1,1,.2.2-.2.5-.3.7-.5,0-.8-.3-1.2-.8,0-.4.2-.5.5-.9Z"/>
  <path class="cls-6" d="M973.7,616.9c1.7,2.8,3.6,5,4.5,8.1q-20.1-6.4-33.7,0c.6-6.1,9-16.3,14.7-17.7,3.9-1,6.8,1.1,9.4,3.5,1.8,1.7,3.3,3.8,5.1,5.9Z"/>
</svg>