<svg id="Layer_1" data-name="Layer 1" xmlns="http://www.w3.org/2000/svg" viewBox="0 0 426.82171 573.38922"><defs><style>.cls-1{fill:#fbd280;}.cls-2{fill:#fabb3b;}.cls-3{fill:#052539;}.cls-4{fill:#842535;}.cls-5{fill:#094d87;}.cls-6{fill:#0b4d86;}.cls-7{fill:#0c4d86;}.cls-8{fill:#08416f;}.cls-9{fill:#062539;}.cls-10{fill:#06273e;}.cls-11{fill:#001639;}.cls-12{fill:#3f4539;}.cls-13{fill:#f9bb3b;}.cls-14{fill:#7a838a;}.cls-15{fill:#fcfcfc;}.cls-16{fill:#fdfdfd;}.cls-17{fill:#f4b83d;}.cls-18{fill:#f1f2f3;}.cls-19{fill:#094c87;}.cls-20{fill:#f8f9f9;}.cls-21{fill:#f5f5f6;}.cls-22{fill:#79828a;}.cls-23{fill:#0a4c86;}.cls-24{fill:#747e85;}.cls-25{fill:#d1d2d3;}.cls-26{fill:#084980;}.cls-27{fill:#0a4b85;}.cls-28{fill:#73808f;}.cls-29{fill:#6c777e;}.cls-30{fill:#6c767e;}.cls-31{fill:#09508e;}.cls-32{fill:#073e6a;}.cls-33{fill:#094578;}.cls-34{fill:#052130;}.cls-35{fill:#08477c;}.cls-36{fill:#912231;}.cls-37{fill:#052131;}.cls-38{fill:#084171;}.cls-39{fill:#011e33;}.cls-40{fill:#084374;}.cls-41{fill:#073b66;}.cls-42{fill:#052437;}.cls-43{fill:#08477b;}.cls-44{fill:#08487e;}.cls-45{fill:#073e6c;}.cls-46{fill:#fecd3b;}.cls-47{fill:#e5e7e8;}.cls-48{fill:#094e8b;}.cls-49{fill:#05263b;}.cls-50{fill:#02142a;}.cls-51{fill:#50533a;}.cls-52{fill:#001c39;}.cls-53{fill:#001b39;}.cls-54{fill:#959ea4;}.cls-55{fill:#4a4f3a;}.cls-56{fill:#4b5d69;}.cls-57{fill:#66613a;}.cls-58{fill:#001839;}.cls-59{fill:#041228;}.cls-60{fill:#9f8641;}.cls-61{fill:#e6e9ea;}.cls-62{fill:#063457;}.cls-63{fill:#4d513a;}.cls-64{fill:#001a39;}.cls-65{fill:#001126;}.cls-66{fill:#84723a;}.cls-67{fill:#001a2f;}.cls-68{fill:#919fa7;}.cls-69{fill:#095292;}.cls-70{fill:#001739;}.cls-71{fill:#72673a;}.cls-72{fill:#000f25;}.cls-73{fill:#001939;}.cls-74{fill:#625e39;}.cls-75{fill:#095190;}.cls-76{fill:#001539;}.cls-77{fill:#0d4c86;}.cls-78{fill:#0a2941;}.cls-79{fill:#1d467a;}.cls-80{fill:#8f212f;}.cls-81{fill:#922435;}.cls-82{fill:#90212e;}.cls-83{fill:#fecc3b;}.cls-84{fill:#8d783a;}.cls-85{fill:#fec93b;}.cls-86{fill:#feca3b;}.cls-87{fill:#717b82;}.cls-88{fill:#707a81;}</style></defs><path class="cls-1" d="M213.89511,3.0791,213.9001.096h1.98525q-.0154,1.50233-.03078,3.00466A1.3805,1.3805,0,0,1,213.89511,3.0791Z" transform="translate(-1.47546 -0.09602)"/><path class="cls-2" d="M213.89511,3.07911q.97979.01075,1.95952.02154,14.94252,40.00706,29.88392,80.01453,20.88283,55.95372,41.7536,111.912,24.69327,66.13815,49.40528,132.26925,28.98426,77.70963,57.92293,155.43633c10.53652,28.21972,21.19088,56.39533,31.76794,84.59986.74143,1.97717,1.98336,3.84108,1.6546,6.11808-11.73822-6.65955-23.52422-13.23611-35.20567-19.99421Q339.777,522.64356,286.58384,491.71427c-22.08309-12.82178-44.21054-25.56919-66.163-38.61233-4.0775-2.42264-7.08856-2.32591-11.12588.03488Q148.70829,488.5639,87.927,523.65625q-41.8932,24.31-83.7797,48.63164a27.086,27.086,0,0,1-2.67187,1.19734c2.00456-9.38348,6.11578-18.04116,9.39592-26.97261,11.39915-31.03856,23.01748-61.99628,34.60633-92.96445q23.542-62.91,47.14924-125.79549,29.60962-79.33071,59.07954-158.7139Q182.32908,86.9212,213.06182,4.84492C213.289,4.2373,213.61516,3.66689,213.89511,3.07911Z" transform="translate(-1.47546 -0.09602)"/><path class="cls-3" d="M193.27381,441.07779a13.03272,13.03272,0,0,1-6.94445,4.22485c-5.25435,1.02364-10.54567.26694-15.75568-.12288-4.75513-.35585-9.57528-.436-14.28667-1.35121-3.79742-.73766-5.92772.89-7.02744,4.47235-1.89447,6.17115-4.67575,12.04216-6.17746,18.35452a11.76425,11.76425,0,0,1-2.76612,5.74509c-1.16526,1.74753-3.32592,1.68763-4.89107,2.70908-1.29466-1.78068-.26188-3.50658.18723-5.20381,2.03155-7.67733,4.654-15.16561,7.331-22.63408,1.561-4.35482,1.3473-4.96886-2.98315-5.57258-4.25077-.59265-8.48163-1.27444-12.65309-2.247-2.96782-.692-4.98768.0208-6.613,2.746a165.04275,165.04275,0,0,0-15.38828,32.65695c-.95346,2.8826-.21517,4.37483,2.71863,5.02721,2.7398.6093,5.568.75673,8.255,1.56645,1.42571.42964,3.52924.1172,3.54079,2.575-.85619,1.21685-2.20975,1.58729-3.49871,2.06764-3.26546,1.52391-6.52.56054-9.71366-.19036-3.05927-.71933-4.627.29486-5.38,3.355-.65407,2.65805-.62808,5.72076-3.33158,7.50016l-4.12659,2.69207c-1.36105-3.88495.438-7.44287,1.376-10.99957.93211-3.53429.48385-5.63327-3.44144-6.493a33.46094,33.46094,0,0,1-7.88952-2.76682c-2.49417-1.25893-3.5669-.343-4.19791,2.09442-.65733,2.53914-1.00844,5.18318-2.26676,7.541a7.87353,7.87353,0,0,0-1.50251,4.08308,8.71839,8.71839,0,0,1-.33084,1.19844,21.52726,21.52726,0,0,0-.76465,4.22609,12.47789,12.47789,0,0,1-.30775,1.229c-.57894,1.88272-.23491,3.866-.61926,5.77134a13.22389,13.22389,0,0,1-.29582,1.3219c-.52362,1.74365-.15644,3.73962-1.47324,5.25557l.03448-.04229c-1.736.77351-2.5745-.07345-2.99923-1.66645.09962-2.38609-.695-4.71018-.5187-7.10314,1.97021-2.11259,1.26077-4.76076,1.42968-7.23356.23087-1.9774.80537-3.89907.95789-5.88863-.24125-1.83007.91082-3.21722,1.51324-4.77774.4385-1.07064.507-2.30185,1.35968-3.1966,1.49261-2.02878-.49517-4.6079.66535-5.60492-.506.94246.04258,3.06353-.27454,5.09034a7.79875,7.79875,0,0,0-1.78429,3.54309,11.1808,11.1808,0,0,1-1.20421,2.49069c-.36728,2.1835-.48359,4.40114-.9848,6.56428-.76386,2.55774.36884,5.34793-.96894,7.83314-1.9356,3.21577.46972,6.56064-.29454,9.81074a5.54081,5.54081,0,0,1-.87079,2.38709c-10.41838,6.18656-20.83677,12.37317-31.74923,18.85313-.41735-4.8962,2-8.35213,3.32582-11.99034C48.43271,496.994,57.37591,473.08373,66.28689,449.162c6.66761-17.89933,13.47261-35.74759,20.05986-53.67647,8.00631-21.79123,15.90534-43.63969,24.1887-65.30795,17.65-46.17029,34.56279-92.61393,52.09121-138.8268,8.93874-23.56656,17.70038-47.201,26.47543-70.82956Q201.31824,87.62677,213.409,54.68549a3.14908,3.14908,0,0,1,.62092-.76969c1.07371-.5992,1.32219.42685,1.8331.93607,12.01052,31.43786,23.71354,62.98934,35.35466,94.56727,6.62662,17.97555,13.53526,35.86325,20.24267,53.81765q21.91683,58.667,43.63872,117.40731a3.676,3.676,0,0,0,1.20688,3.70939c5.41347,11.41788,9.13405,23.49632,13.57628,35.28844,13.5179,35.88386,26.80052,71.85683,40.17687,107.79434q11.44523,30.74948,22.92988,61.48412c.4098,1.09327,1.07175,2.04139.15028,3.91891q-15.27633-9.05728-30.454-18.056c.00239-.23944.00481-.47883.00569-.71833a42.73142,42.73142,0,0,1,.10687-9.32559c.00888-.05945,1.19131-1.08521-.28014-.648a1.50535,1.50535,0,0,1-1.24514-.62681c-.80626-2.66345-.43818-5.49738-1.20624-8.15971a8.41275,8.41275,0,0,1-.22023-1.43092c-.50052-6.26837-2.53178-12.17693-4.21471-18.16946.88133,6.47127,3.465,12.55651,4.19466,19.06259a39.32974,39.32974,0,0,0,.82213,5.05276,11.24551,11.24551,0,0,1,.133,1.53361,34.498,34.498,0,0,0,.988,7.84982c-.10108,1.59354.51243,3.5961-2.10577,3.77133q-.97584-.4422-1.95162-.88451c-1.72007-2.40344-.90014-5.24272-1.35071-7.85817a10.88527,10.88527,0,0,1-.335-1.33727c-.34445-1.71-.16709-3.48851-.64974-5.1837a11.94121,11.94121,0,0,1-.32361-1.21754,24.20442,24.20442,0,0,0-.74825-4.23628,8.92222,8.92222,0,0,1-.34613-1.198,8.09643,8.09643,0,0,0-1.44931-4.08921c-3.26531-8.68709-3.26937-8.69915-12.12781-5.70971-7.16389,2.41757-6.43541,1.267-4.87248,8.76516.64045,3.07244,2.52918,6.19631.58177,9.47432l-4.071-2.67563c-1.768-1.4737-2.12759-3.57026-2.58573-5.66438-1.35974-6.21535-1.396-6.25047-7.40471-4.99744-2.90232.60526-5.76447,1.12844-8.63825-.05064-1.69543-.72933-3.5725-1.20977-4.35226-3.194.16043-.17619.32086-.35239.479-.53141,4.11068-1.15609,8.3562-1.65849,12.54125-2.42209,3.21109-.58588,4.35971-1.7218,2.90262-4.91041a17.051,17.051,0,0,1-1.72255-5.14168c.23931-2.421,1.01025-4.46582,3.65005-5.178,2.50407,2.45,2.7265,5.9175,3.81661,8.96758.99707,2.78976,2.523,3.53878,5.25767,2.69352,13.7424-4.24758,11.92789-4.26164,7.49292-14.73375-3.30651-7.80762-8.12536-14.7126-12.28385-22.01916a9.11734,9.11734,0,0,1,.14586-5.92317c2.58879-2.04925,3.52589.57118,4.47413,1.895a127.67433,127.67433,0,0,1,13.13383,23.24874c.91234,2.08516,1.81624,4.16021,2.87493,6.16587-5.37327-13.39369-11.42158-26.405-21.40723-37.12341a203.268,203.268,0,0,0-13.15955-42.10122c-6.27083-14.04473-12.77967-27.98839-19.23038-41.95492-.89109-1.92932-2.25064-3.71106-2.0435-6.01577.79905-1.28857,2.02617-1.361,3.33138-1.12158.65441.12,1.58511.63987.74053-.73468.796-1.50632,2.16139-1.42117,3.54573-1.29771,1.24353.16325,2.449.90334,3.71191.22146a1.65752,1.65752,0,0,0-.44827-1.51307c-13.63719-12.64643-25.67031-26.93252-39.9425-38.90591.80754.566.7375,1.46775.89739,2.2774,2.35793,14.02088,5.81856,27.79959,8.80873,41.67814a35.12483,35.12483,0,0,1,.877,4.36654c.19939,2.52584-1.285,4.97029-.38059,7.4377.03417.76393.75092.17638.09215.23933-.14062.01342-.21874-.12993-.21062-.42932.0252-.92816-.28624-1.919.49185-2.71041,2.04114.18844,1.85557,1.85343,2.13335,3.21288.56553.73756-1.15469,2.5275,1.14248,2.435,1.248-2.26276,2.23073-4.63548,3.53264-6.83.754-1.271,1.15329-3.17034,3.36234-2.69638a344.05131,344.05131,0,0,1,18.20132,35.64673,229.92038,229.92038,0,0,1,10.36113,26.78c.45242,1.46152,1.89506,2.88309.53033,4.58071-2.45084.71618-3.507-1.30944-4.85721-2.59989a87.34944,87.34944,0,0,0-10.17843-8.437c5.40592,3.32324,11.11489,9.726,17.47124,15.37154,1.31648,2.15941,2.21359,4.40531,1.42129,6.99372-2.68694,1.58881-3.76762-.93211-5.16416-2.20178-4.48758-4.07986-8.61271-8.53477-13.09187-12.64464-5.09467-4.67479-10.2701-7.37743-17.0782-4.05522-1.85859-.47157-3.12939-1.47291-3.185-3.562,1.36225-2.31339,3.5341-2.44165,5.70685-2.48415-6.72119-5.21909-14.52691-9.09125-22.57118-12.53974-8.05618-4.95975-14.55657-11.86178-21.92007-17.691-13.59307-10.76073-27.25705-21.41973-41.41432-31.43485-1.88487-1.33341-4.59931-2.31294-4.33045-5.48541,1.74034-3.031,5.3947-3.68746,7.56246-6.13722-13.06722-6.55156-26.93357-10.86949-40.76983-15.24618-2.98682-.94474-5.8829-2.1091-8.82514-3.09534-.21491.13449-1.77011-1.01723-.49128.53442.28546.34635.71746.58333,1.03223.93575,8.41061,13.18559,18.26306,25.31024,27.58726,37.82115a67.91742,67.91742,0,0,1,5.13813,7.80349c.27.30081.572,1.0113.82012.853.49738-.31743.07367-1.009.15051-1.558.24436-3.37443-.83153-6.86443,1.02035-10.05473,1.098-.56025,2.087-.83381,2.2985.89274-1.20808,3.87136-.06116,7.93849-.49921,10.76392.02372-2.48695-.018-6.0717.01588-9.65015,1.48407-3.0516,3.34137-1.07377,4.8246-.17255,5.51931,3.35344,10.75917,7.13968,15.96445,10.95774,8.67683,6.36451,17.44786,12.60383,25.92742,19.234,1.606,1.25576,3.92257,2.135,3.5035,4.90132-1.83622,1.28119-3.208.39462-4.55649-.6549a15.26869,15.26869,0,0,0,9.55886,3.59118c1.86694.67781,3.82212,1.2623,4.06652,3.71617-1.27969,1.026-3.31175,1.74367-.64759,3.68627a18.49113,18.49113,0,0,1,4.88547,5.53794c3.38733,5.71918,8.06009,8.20944,14.66762,6.28525,1.82751.57671,3.08731,1.63726,3.15617,3.71088-1.23463,3.14687-4.804,1.40109-6.91761,3.36763,4.56074,9.03765,10.19991,17.52907,14.7379,26.62,1.04824,2.1,2.88626,1.74191,4.71047,1.61411,5.73275-.4017,11.2596-2.26416,17.03634-2.38844a3.42131,3.42131,0,0,1,2.19329,3.778c-3.03709,3.55515-7.53563,2.87476-11.416,3.70583-8.44868,1.80957-8.47406,1.59692-5.68865,9.951,2.09612,6.28665,4.30413,12.5398,5.94332,18.97011.44215,1.73438,1.25741,3.506-.181,5.18485q-1.97309-.93984-3.94622-1.87962c-1.87662-1.58719-2.57725-3.80638-3.148-6.06021-1.67363-6.60833-4.47686-12.82915-6.522-19.30476-1.19471-3.78294-3.576-4.64642-7.22638-4.13135-8.83633,1.2468-17.75518,1.59017-26.65811,2.07635a10.58414,10.58414,0,0,1-3.4009-.55532c-2.99108-.55429-5.2371-2.45855-7.57144-4.20274-.52319-2.28584-.78416-4.61962-1.2704-6.91248-.17647-1.59965-.037-3.25751-.90046-4.72777a10.52464,10.52464,0,0,1-1.1573-4.76262,17.57,17.57,0,0,0-.31288-4.64572,11.845,11.845,0,0,1-.32834-1.28006c-.26856-1.24486-.19734-2.58265-1.02856-3.66665a6.92165,6.92165,0,0,1-.67727-1.04758c-.504-1.08187-.51462-2.39119-1.50526-3.24888a8.88961,8.88961,0,0,0-2.40724-1.05231c-7.54279-.30136-15.07453-.21238-22.5963-.03469a7.4069,7.4069,0,0,0-2.42108,1.05316c-.29209.29863-.598.58443-.89407.88162-.26446.33371-.54049.65424-.80571.98482a24.242,24.242,0,0,0-1.572,6.386,8.37855,8.37855,0,0,1-.32982,1.23237,17.68882,17.68882,0,0,0-.816,4.18068,9.07638,9.07638,0,0,1-.32866,1.17423,26.38452,26.38452,0,0,0-.70227,4.22166c-.07493.4271-.18182.8424-.29828,1.25811-.43133,1.74522-.28137,3.56964-.73056,5.31137C194.37756,437.99259,194.325,439.70094,193.27381,441.07779Z" transform="translate(-1.47546 -0.09602)"/><path class="cls-4" d="M282.301,399.34266q1.51342,1.50565,3.02688,3.01126c4.7019,2.09628,7.52349,6.35895,10.98933,9.8233a134.36052,134.36052,0,0,1,15.701,19.13073c.7219,1.17772,1.54979,2.28818,2.24937,3.48118,2.589,4.8447,6.06748,9.1993,7.94409,14.41708.21344.35.07985.97333.73408.94721-.53133-4.86925.34539-9.7312-.55653-14.52535a7.61673,7.61673,0,0,1-.64014-1.20248c-.05653-.21821-.10518-.4401-.1614-.65812-.00533-.222-.00306-.44782-.01106-.671.2022-1.48658.55644-2.99415-.57952-4.30781a5.42505,5.42505,0,0,1-.6585-1.17466c-.41931-1.78006-1.00725-3.53984-.64041-5.41138.36248-2.55011-.54166-4.79384-1.67911-6.98114-.28987-1.751-2.67782-2.77087-1.7177-4.95743C309.8502,388.20274,299.268,367.95921,288.9033,347.619c-.67183-1.31843-1.24542-2.6872-1.86465-4.03258-1.36007-2.74475.33782-4.76232,1.61843-6.88083,1.62655-1.51964,3.52637-.94833,5.38757-.70385a3.18315,3.18315,0,0,1,2.12889,1.61512c10.64427,22.7237,22.39213,44.96529,30.03136,69.00287,2.24264,7.05666,4.4449,14.12836,5.0436,21.57408a2.61944,2.61944,0,0,1,1.19388,2.83211c-2.44384,5.9311.40468,11.795.23883,17.69607-.59343,5.89583-1.25326,11.77319-5.7279,16.29976q-1.51234,2.32921-3.02461,4.65839c-3.22181,6.1882-7.66838,11.03645-14.47315,13.30485l-.41718-.06789c-3.24078-.20691-5.57717-2.25364-8.06648-3.98936.23737-2.37959,2.44235-2.44241,3.93435-3.24775,8.45825-4.56546,11.224-10.94249,8.81836-20.23915a42.20516,42.20516,0,0,0-6.22185-13.45293c-1.04048-1.51079-2.06873-2.98841-2.13558-4.90782l-2.18915-2.95336c-3.98711-1.54448-5.53073-5.56722-8.29706-8.34459-7.11181-7.14033-14.62512-13.89356-21.14866-21.61351l-3.008-3.0047A74.49833,74.49833,0,0,1,251.77,385.24279c-.83977-1.63479-2.50419-2.16706-3.95977-2.9785-1.78931-1.08525-4.13517-1.46149-4.892-3.862-7.92144-7.44815-17.03825-13.34453-25.76746-19.72263-7.80131-5.70013-15.44744-11.681-24.03157-16.23585l.009-.0123q-.81765-.46962-1.6353-.93928c-2.272-3.055-.50173-5.87933.48676-8.75212,1.6412-1.54774,3.10481-3.47374,5.80762-2.86732,6.54967,6.83088,14.88966,11.32608,22.254,17.10024,13.72642,10.76259,27.62338,21.302,40.62,32.96836a55.49977,55.49977,0,0,0,4.78556,3.48134C271.728,388.02339,278.3154,392.29791,282.301,399.34266Z" transform="translate(-1.47546 -0.09602)"/><path class="cls-5" d="M119.82,484.02378c-3.96528-2.21436-8.5228-1.96294-12.77763-2.94633-3.56544-.82409-4.68087-1.9018-3.37787-5.64287a186.27215,186.27215,0,0,1,16.98354-35.733c1.1911-1.95515,2.114-2.62581,4.65254-1.99245a119.08209,119.08209,0,0,0,17.87536,3.2041c4.4999.41206,2.65,2.7308,1.9082,4.57721a271.4479,271.4479,0,0,0-9.65831,29.61839A116.9594,116.9594,0,0,1,119.82,484.02378Z" transform="translate(-1.47546 -0.09602)"/><path class="cls-5" d="M305.36717,437.08008a48.98364,48.98364,0,0,1,9.32076,16.565c3.57475,11.0904.22026,18.74231-10.30127,23.599-1.137.52489-2.69575.29258-3.4128,1.68368q-3.31194-1.88529-6.619-3.76966c-1.95029-10.0708-5.51652-19.64282-9.11414-29.19253-1.07744-2.86-2.39868-4.56479,2.49731-5.17489C293.64042,440.05515,299.75377,439.53331,305.36717,437.08008Z" transform="translate(-1.47546 -0.09602)"/><path class="cls-5" d="M199.10407,411.23041a6.37276,6.37276,0,0,0,.85127-.07345c3.04093-1.76014,6.39448-1.273,9.659-1.29644,5.26775-.03792,10.53624-.02206,15.80457.00732,2.99046.01667,4.92171,1.20393,5.36311,4.32546a4.96624,4.96624,0,0,0,.8607.03114c1.42281,1.38849-.18472,3.48811,1.14307,4.8989l.03461.05656c1.048,1.51456-.26974,3.47839.93713,4.96278-.03972,1.74817-.11377,3.50339,1.02515,5.009,1.07885,1.53841-.2078,3.51193.922,5.041.21264,2.29875,2.01352,4.55674.17709,6.90838-6.00211-3.34129-12.11535-6.5035-17.95433-10.112-2.36493-1.46148-3.87451-1.26761-6.18835.0329-6.10794,3.4331-11.69062,7.86519-18.46688,10.05717.0338-1.71518-.7301-3.55236.77695-5.03794,1.31263-1.79538-.29882-4.10966,1.041-5.90021l-.0173.02816c1.16033-1.50329-.22475-3.51821,1.001-5.00835l-.01559.025c1.18145-1.49271-.23466-3.51936,1.02127-4.9968l-.01785.02837C197.88149,417.25341,198.173,414.16882,199.10407,411.23041Z" transform="translate(-1.47546 -0.09602)"/><path class="cls-5" d="M243.45413,445.304c7.36685-2.28162,15.07407-.7081,22.58511-1.99816a79.08384,79.08384,0,0,1,10.75021-1.26257c2.37674-.07685,3.67535.813,4.41824,3.00467,3.17785,9.375,6.91085,18.567,9.20162,28.23214C274.96905,463.59756,258.58179,455.51392,243.45413,445.304Z" transform="translate(-1.47546 -0.09602)"/><path class="cls-5" d="M140.316,472.40051c1.72553-9.652,5.66459-18.58853,8.90285-27.7528,1.04649-2.96153,3.49207-2.7994,5.76221-2.48665a184.05117,184.05117,0,0,0,25.54442,2.02085c1.93449-.0041,3.87051.72642,5.80486,1.11973-10.3001,7.29334-21.66433,12.79273-32.407,19.34025C149.46647,467.35832,144.8564,469.82194,140.316,472.40051Z" transform="translate(-1.47546 -0.09602)"/><path class="cls-5" d="M336.09047,499.49962c-1.00183-4.82562-1.97528-9.65744-3.02058-14.47358-.37693-1.73681-.58149-2.7353,1.85541-3.3679a50.58086,50.58086,0,0,0,12.49129-4.56066c2.23392-1.27059,3.15257-.42312,3.71373,1.91893.64193,2.67915,1.7101,5.25563,2.59307,7.8767,1.44591,1.381-.17685,3.48926,1.15414,4.8975l.03541.058c1.04282,1.52079-.25918,3.48334.93213,4.97615,1.21793,1.85954-.257,4.15255.96221,6.01188l-.01769-.03057a16.96652,16.96652,0,0,1,.13537,8.65805Q346.50775,505.48187,336.09047,499.49962Z" transform="translate(-1.47546 -0.09602)"/><path class="cls-5" d="M75.90561,488.85979c.12172-.11136.29786-.19919.35727-.33747,1.66991-3.88653,1.32683-11.2532,4.10878-11.37211,5.32018-.22732,10.80664,3.072,16.19163,4.99888,1.564.5596.86327,1.7931.58879,2.9189-1.16614,4.78312-2.26008,9.584-3.38152,14.37932q-10.44681,5.99844-20.89136,11.995a7.745,7.745,0,0,1,.10662-5.65038l-.01372.02185c1.292-2.19535-.32307-4.80245.98523-6.99548l-.007.01145c1.14525-1.51216-.05948-3.43458.86536-4.98523l.07332-.11368C76.20475,492.31221,74.75527,490.31317,75.90561,488.85979Z" transform="translate(-1.47546 -0.09602)"/><path class="cls-6" d="M313.39081,486.11153a42.04613,42.04613,0,0,0,11.59194-2.03489c3.024-.94681,4.43981.18325,4.99065,3.12247.60406,3.223,1.35768,6.4178,2.04613,9.62488A131.02425,131.02425,0,0,1,313.39081,486.11153Z" transform="translate(-1.47546 -0.09602)"/><path class="cls-7" d="M97.896,496.75618a86.9954,86.9954,0,0,0,2.48719-9.54613c.48518-3.234,2.1156-3.72239,4.79294-3.01262a45.982,45.982,0,0,0,11.15,1.892A127.57574,127.57574,0,0,1,97.896,496.75618Z" transform="translate(-1.47546 -0.09602)"/><path class="cls-8" d="M359.6634,512.97457c1.61143-1.07638,1.1064-2.7164,1.11727-4.219-.93561-1.38779-.271-2.72175.13489-4.06531a2.37181,2.37181,0,0,1,.96276-1.00745q.45006.07365.90056.14445c.91477,3.56315.60733,7.14264.14277,10.72428l-.236.2321Q361.17409,513.87882,359.6634,512.97457Z" transform="translate(-1.47546 -0.09602)"/><path class="cls-9" d="M356.925,511.46408q-.06734-4.32893-.135-8.658c2.053,2.92005.65725,6.18482.92189,9.28381Q357.31836,511.77716,356.925,511.46408Z" transform="translate(-1.47546 -0.09602)"/><path class="cls-10" d="M68.116,514.11571l-.09343-2.45526c.81563-.47895.10763-2.45041,1.91093-1.96192a2.093,2.093,0,0,0,2.15632,2.16843Q70.1033,512.99177,68.116,514.11571Z" transform="translate(-1.47546 -0.09602)"/><path class="cls-11" d="M316.306,324.35349c-1.80961-.776-2.38013-1.95739-1.20688-3.70939C315.51525,321.876,316.76881,322.834,316.306,324.35349Z" transform="translate(-1.47546 -0.09602)"/><path class="cls-10" d="M72.98581,505.792q-.05272,2.82486-.106,5.65a.84606.84606,0,0,1-.82425.46735C72.2299,509.84963,71.11512,507.59256,72.98581,505.792Z" transform="translate(-1.47546 -0.09602)"/><path class="cls-12" d="M215.863,54.85187l-1.83312-.93606c.05395-.736-.21154-1.96994.85926-1.79795C216.38381,52.35793,215.75708,53.84069,215.863,54.85187Z" transform="translate(-1.47546 -0.09602)"/><path class="cls-5" d="M247.62749,408.19674c8.9045-2.9286,14.92022-.01331,18.84754,8.58033,2.86409,6.26712,6.57382,12.14558,9.90841,18.19631,1.24759,2.26376.97632,3.85788-1.934,4.06509-9.95482.70876-19.92012,1.28316-29.865,2.1077-2.6308.21815-3.86988-.97-4.76952-3.06949-1.44312-1.80082.20853-4.15969-1.07385-5.98949l.01543.02555c-1.33967-1.78578.31692-4.1157-1.06431-5.89395l-.04538-.07245c-1.01623-1.475.28228-3.39181-.91693-4.83191-1.44668-1.10575-.82538-2.6989-.96394-4.113-1.22825-1.45167.22141-3.4625-1.01973-4.91147a2.62591,2.62591,0,0,1-.02083-4.03189A36.22038,36.22038,0,0,1,247.62749,408.19674Z" transform="translate(-1.47546 -0.09602)"/><path class="cls-5" d="M194.98067,408.28441c2.578,3.56682-2.10139,6.432-.948,9.86107-1.1803,1.50523.17142,3.50427-.97281,5.01655l-.0024.00386c-1.21294,1.483.14815,3.47349-.97529,4.97408l-.01024.01665c-1.33364,1.807.29026,4.13885-1.04885,5.94492l.017-.02722c-1.26457,1.83773.35288,4.18427-1.05282,5.99709a5.86548,5.86548,0,0,1-3.75,1.01944c-10.33413-.69041-20.67119-1.33875-31.00225-2.07225-2.52208-.17905-3.06219-1.57978-1.85708-3.75471,4.96265-8.9563,9.5726-18.1316,15.63-26.42322,2.30516-3.15537,5.82613-1.193,8.78565-1.38894,1.75564-.11623,3.5588.48922,5.34059.77019A28.46849,28.46849,0,0,1,194.98067,408.28441Z" transform="translate(-1.47546 -0.09602)"/><path class="cls-5" d="M117.90671,436.86825c-.39741.68306-.79874,1.40124-1.22627,2.10342a161.59352,161.59352,0,0,0-16.80579,36.908c-.76745,2.515-1.77065,3.16394-4.2501,2.16235-3.65407-1.476-7.41-2.71263-11.1652-3.91772-2.50554-.80407-3.29671-2.05749-2.3634-4.72249,4.59016-13.10691,11.97734-24.6423,19.78644-35.95261,1.5471-2.24079,3.3478-2.73636,5.93232-1.35091,2.44746,1.312,5.21,2.02407,7.80363,3.07548C116.47177,435.51971,117.54228,435.67655,117.90671,436.86825Z" transform="translate(-1.47546 -0.09602)"/><path class="cls-5" d="M145.3771,437.58576c-5.34371-.84747-11.01051-1.66208-16.64161-2.676-2.66879-.4805-4.712-1.27846-2.04506-4.6258,6.7771-8.50593,13.12327-17.34628,21.04272-24.90662,1.94862-1.8602,3.604-1.48606,5.7135-1.14172,12.3919,2.02273,12.31654,1.94569,6.0926,12.51389-3.51436,5.96737-6.709,12.12391-10.05782,18.18959C148.64876,436.44735,148.29068,438.64889,145.3771,437.58576Z" transform="translate(-1.47546 -0.09602)"/><path class="cls-2" d="M227.80848,197.1757c-10.07632-3.0029-10.25319-11.68329-10.95193-19.79579a28.59412,28.59412,0,0,1,1.12871-10.2732c1.785-6.07639,4.78116-11.52956,14.69353-10.78409,7.26336.54625,11.54273,4.41765,12.74762,13.68966a47.92058,47.92058,0,0,1-.402,15.24964c-1.1889,6.18646-4.57516,9.94046-10.247,12.00619a1.72164,1.72164,0,0,1-1.21578.41534,11.27858,11.27858,0,0,0-4.58827-.004A1.49312,1.49312,0,0,1,227.80848,197.1757Z" transform="translate(-1.47546 -0.09602)"/><path class="cls-13" d="M185.17388,169.08461c.14485-6.16762,3.05709-10.71,7.86736-12.2711a15.419,15.419,0,0,1,17.74635,5.6341,1.31324,1.31324,0,0,1,.58561,1.11273,21.00044,21.00044,0,0,0,.02851,6.55407,1.4665,1.4665,0,0,1-.56232,1.14065c-.99982,1.29381-1.99962,2.58764-3.04656,3.94248,2.6219,1.18086,4.18122,3.8957,5.21913,7.00189a3.96064,3.96064,0,0,1-.154,5.0044c-1.2651,5.37488-4.83293,8.41013-9.96117,9.86a1.3239,1.3239,0,0,1-1.11455.58711,20.35517,20.35517,0,0,0-6.547.042,1.64181,1.64181,0,0,1-1.17528-.51882c-5.80923-1.87681-9.43522-5.55339-9.78167-11.93347,3.24311-2.01906,5.97233-1.85168,7.86858,1.85988,5.1903,5.33468,10.196,4.99288,12.19539-.77684,1.27927-3.69148-.84391-5.70247-3.42986-7.56411-1.37773-1.82837-5.2788-.29569-5.27159-3.97587a1.51058,1.51058,0,0,1,.50925-1.34937c2.55562-.58752,5.66735-.2116,6.75-3.50884.86063-2.62114.797-5.1085-1.88866-6.79857a2.87061,2.87061,0,0,1-.55924-.866c-1.48436-.124-2.89655.44687-4.35433.34467a3.20046,3.20046,0,0,0-1.07542.72347c-1.88968,1.52928-2.41431,3.7454-2.97387,5.944C189.7365,169.96029,187.43336,170.32377,185.17388,169.08461Z" transform="translate(-1.47546 -0.09602)"/><path class="cls-5" d="M273.7323,404.16862c3.37437,1.26457,5.44128,4.1428,7.82626,6.56364,7.45315,7.56523,15.47428,14.61193,21.61962,23.3944-6.41061,2.13067-13.19987,2.26057-19.73273,3.75074-1.46631.33447-2.03038-.764-2.52121-1.8494-4.22449-9.34177-9.53184-18.082-14.938-26.7551-1.55739-2.49858-.19951-2.85076,1.69953-3.60835C269.66188,404.87617,272.107,406.1747,273.7323,404.16862Z" transform="translate(-1.47546 -0.09602)"/><path class="cls-5" d="M145.12923,403.03093a151.09187,151.09187,0,0,0-23.4473,27.96457c-.85232,1.34487-1.71325,1.57508-3.25754,1.2297-4.02991-.90133-8.82087-2.0923-10.72764-4.999-1.228-1.872,3.3854-5.65529,5.799-8.24094a131.82235,131.82235,0,0,1,17.22619-15.54781C137.29016,398.50764,137.27244,398.48392,145.12923,403.03093Z" transform="translate(-1.47546 -0.09602)"/><path class="cls-5" d="M326.95331,465.02174a83.16783,83.16783,0,0,0,5.00524-16.01165c-.46632-3.00029-1.07217-6.00623.35839-8.93a110.32184,110.32184,0,0,1,15.79,29.87451c.651,1.80234.42961,2.77333-1.27625,3.46156a8.8078,8.8078,0,0,0-.8786.446C333.07749,480.82783,329.87843,479.33945,326.95331,465.02174Z" transform="translate(-1.47546 -0.09602)"/><path class="cls-5" d="M311.37918,432.01586c-7.82171-10.64921-16.95055-20.144-26.0513-29.6627,9.335-6.64841,14.54994,1.33575,20.32379,6.10559,5.03194,4.1569,9.393,9.13046,14.04851,13.74356,1.62482,1.733,1.22354,3.94072,1.3989,6.01336C318.64152,431.495,315.59483,433.25893,311.37918,432.01586Z" transform="translate(-1.47546 -0.09602)"/><path class="cls-5" d="M201.12046,404.26431q2.4273-8.38889,4.85462-16.77781a52.43568,52.43568,0,0,1,17.83949-.02381q2.44834,7.91169,4.89671,15.8234a2.30464,2.30464,0,0,1-1.92192,1.36509C218.23286,404.53808,209.66325,405.27054,201.12046,404.26431Z" transform="translate(-1.47546 -0.09602)"/><path class="cls-14" d="M266.36116,295.38727c-.05444-1.67006-.22283-3.39627,2.13783-1.34623,7.70224,6.68881,14.65226,14.14841,21.84507,21.35839,5.99581,6.01009,11.93364,12.07835,17.89716,18.12088-1.943,1.51708-3.7369.12665-5.53867-.34537-5.97524-1.56526-11.53223-4.53523-17.74072-5.31378a3.35088,3.35088,0,0,1-1.3814.0576,2.53439,2.53439,0,0,1-.97372-.99369,106.502,106.502,0,0,0-8.22569-16.28752C271.46892,305.66025,268.4567,300.77964,266.36116,295.38727Z" transform="translate(-1.47546 -0.09602)"/><path class="cls-14" d="M155.27916,303.93759q22.35276,7.73636,44.70347,15.4787c2.35162.81594,4.35894,2.6714,7.164,2.13613.75581-.14424,1.71694.40431,1.16816,1.5073-.44239.88915-1.38424.66131-2.19468.55742-6.92924,2.67332-14.31954,2.44509-21.508,3.44567a7.34249,7.34249,0,0,1-1.50973.1158c-7.00768-3.34347-12.51188-8.84535-18.75233-13.29717-3.30742-2.35945-6.89867-4.46074-9.20853-8.00487A1.4853,1.4853,0,0,1,155.27916,303.93759Z" transform="translate(-1.47546 -0.09602)"/><path class="cls-15" d="M266.36113,295.38727c4.78878,4.88571,7.05977,11.3386,10.23257,17.172,2.61917,4.81551,6.618,9.13062,6.93733,15.05236,1.31862,1.65315,1.15747,3.52915.82928,5.43326-.20229,1.02977-.4459,2.054-.57153,3.10041a44.33382,44.33382,0,0,1-.45129,6.32824c-1.07981,2.996.29835,6.67089-2.50349,9.19563a1.82,1.82,0,0,1-2.28874-.197c-1.04255-1.07753.22713-2.85836-1.15878-3.83145-1.32778-1.29461.07319-3.11891-.86642-4.4889-3.30058-14.44819-6.62105-28.89188-9.87055-43.35161A27.61554,27.61554,0,0,1,266.36113,295.38727Z" transform="translate(-1.47546 -0.09602)"/><path class="cls-16" d="M155.36336,305.85412q13.89817,10.34913,27.79637,20.6983a96.20382,96.20382,0,0,1,6.74535,24.231,3.78208,3.78208,0,0,1-1.82868,2.53136c-6.93941-10.44255-14.72552-20.25042-22.21167-30.28492-3.843-5.15122-8.07555-10.221-11.01483-16.07521A.93387.93387,0,0,1,155.36336,305.85412Z" transform="translate(-1.47546 -0.09602)"/><path class="cls-5" d="M237.05438,405.38079c-2.99259.34151-4.58026-.78207-5.26837-3.866a85.81379,85.81379,0,0,0-3.36234-10.86564c-.956-2.598-.00167-3.29739,2.3946-3.2811,2.62757.01789,5.23924.12233,7.82644-.7825,2.07971-.72735,3.98137.35476,5.37209,1.80288,3.886,4.04623,7.84856,8.05625,11.33809,12.43545,2.62387,3.29284-1.41456,3.188-2.60787,3.25626C247.49578,404.38051,242.2166,404.19262,237.05438,405.38079Z" transform="translate(-1.47546 -0.09602)"/><path class="cls-5" d="M173.73032,402.76716c3.79454-6.00976,8.90278-10.26186,13.50639-14.97353,1.96588-2.012,4.1743-1.62769,6.40884-.70536,2.75512,1.13716,7.05483-1.47239,8.23626,1.63027.83068,2.18152-1.44869,5.54459-2.31546,8.38737-2.66335,8.73514-2.65233,8.69267-11.85813,7.30692C183.18675,403.73223,178.424,405.25885,173.73032,402.76716Z" transform="translate(-1.47546 -0.09602)"/><path class="cls-17" d="M172.27151,255.019c10.74521-3.56758,21.59078-6.78289,32.62211-9.34606,4.634.94408,6.50557,5.25776,9.69259,7.98121a2.18521,2.18521,0,0,1,.33407,2.26251,3.66761,3.66761,0,0,1-2.24372,1.21421c-11.82589.22331-23.64919.47351-35.46676-.116-1.15281-.11246-2.243-.5974-3.41523-.60414C172.92365,256.34925,172.0444,256.29357,172.27151,255.019Z" transform="translate(-1.47546 -0.09602)"/><path class="cls-18" d="M257.63852,256.96348c-7.659,2.52884-15.5312,4.34284-23.09078,7.24786-3.0192,1.16023-6.46777,1.19677-9.72089,1.7448a20.41271,20.41271,0,0,1-8.5374-8.7,2.789,2.789,0,0,1,.46959-1.58662,4.4532,4.4532,0,0,1,1.56064-.84887c11.19244-.65524,22.39052-.22149,33.58051-.20421C253.7872,254.6194,256.72393,253.80929,257.63852,256.96348Z" transform="translate(-1.47546 -0.09602)"/><path class="cls-19" d="M183.59547,386.06745c-4.62227,5.37378-9.90674,9.83622-14.09486,15.34622-2.18,2.86795-5.66136.85063-8.28085.435-2.04531-.32448-5.651.62388-6.11348-1.61287-.51073-2.4699,2.88134-3.53793,4.79078-4.98459,2.61427-1.98069,5.20569-4.00133,7.91779-5.84039C172.46025,386.26078,177.1834,383.20442,183.59547,386.06745Z" transform="translate(-1.47546 -0.09602)"/><path class="cls-20" d="M212.95115,296.73393q-3.76716-14.00406-7.52315-28.01105c-.24693-.92515-.33869-1.89195-.50247-2.8394,1.398-3.45336,4.59815-5.33231,6.92444-7.9878,1.1562-.69285,2.28584-1.72727,3.61537-.29613,1.22186,2.51979.78282,5.21817.79825,7.84635q.076,12.93994-.00352,25.88056c-.01515,2.27731.323,4.695-1.53532,6.5642C213.72488,298.13606,212.82739,298.222,212.95115,296.73393Z" transform="translate(-1.47546 -0.09602)"/><path class="cls-20" d="M216.69349,214.18115q4.49679,15.89637,8.99356,31.79275c-1.375,3.57342-4.45459,5.61884-7.147,8.02556a2.41246,2.41246,0,0,1-3.09584-.39343,7.32464,7.32464,0,0,1-.92271-4.29814c-.05411-10.08051-.08613-20.16164.031-30.24121C214.57361,217.24817,214.00443,214.92816,216.69349,214.18115Z" transform="translate(-1.47546 -0.09602)"/><path class="cls-14" d="M213.89153,253.94493q-4.49983-4.13559-8.99879-8.27159c2.3394-9.61935,4.8264-19.1965,8.00049-28.58024,1.96614.03578,1.92052,1.582,1.93078,2.83975.08639,10.59392.14221,21.18846-.0148,31.78246A3.07045,3.07045,0,0,1,213.89153,253.94493Z" transform="translate(-1.47546 -0.09602)"/><path class="cls-14" d="M216.87671,257.92035a35.734,35.734,0,0,1,7.9501,8.03579c-1.31727,8.8899-4.24035,17.355-6.81527,25.91225-1.93308.06024-2.03663-1.42272-2.04752-2.69893-.084-9.84211-.204-19.68526.05652-29.52667A2.60175,2.60175,0,0,1,216.87671,257.92035Z" transform="translate(-1.47546 -0.09602)"/><path class="cls-14" d="M211.80508,258.866q-3.43977,3.50874-6.87955,7.01751c-8.13336-2.69663-17.03059-2.67822-24.70918-6.99132,1.08055-1.87582,2.90652-1.94229,4.745-1.94964q11.35172-.04525,22.70346.00355C209.317,256.95427,211.032,256.91211,211.80508,258.866Z" transform="translate(-1.47546 -0.09602)"/><path class="cls-5" d="M140.80968,396.294c9.0321-5.96093,17.69435-12.08178,28.669-14.38148-.09865,2.97684-2.09218,3.20565-3.32677,4.12907-3.69527,2.76391-7.75075,5.1237-11.10339,8.24793C150.8004,398.24836,146.713,400.76839,140.80968,396.294Z" transform="translate(-1.47546 -0.09602)"/><path class="cls-14" d="M218.68461,252.84948a30.65119,30.65119,0,0,1,7.00246-6.87555,117.57712,117.57712,0,0,1,20.9903,5.86327c.59425,1.17321,3.11562-.09891,2.75525,1.89437-.22021,1.21817-1.83848,1.154-2.98355,1.16133-8.05822.05179-16.1166.06613-24.17485-.00392C220.70646,254.87537,219.33087,254.50314,218.68461,252.84948Z" transform="translate(-1.47546 -0.09602)"/><path class="cls-19" d="M78.09985,469.49239c-2.07023-3.35223-.84094-5.37742-.10337-7.28077A129.8691,129.8691,0,0,1,97.194,428.4502c.63071-.79878,1.18717-2.32543,2.63705-1.38311,1.02151.66389.67975,1.61845.02678,2.555C91.3174,441.87079,83.58024,454.58059,78.09985,469.49239Z" transform="translate(-1.47546 -0.09602)"/><path class="cls-5" d="M251.77,385.24279a159.02748,159.02748,0,0,1,18.95336,15.92168c-4.95163,1.74708-9.35351,2.77336-13.03728-2.97313a54.71462,54.71462,0,0,0-10.811-12.00778C248.61043,384.845,250.32546,385.63577,251.77,385.24279Z" transform="translate(-1.47546 -0.09602)"/><path class="cls-21" d="M284.38954,327.58687c.6356-3.29195,2.75077-.78246,3.56972-.53825,6.79756,2.02711,13.23525,5.19229,20.28193,6.47166.99241.24075.83577,1.05281.87415,1.76792-1.59741,1.29926-3.24738.98463-4.91392.16091a6.01382,6.01382,0,0,0-4.25157.943,5.77421,5.77421,0,0,1-5.43316.11583q-2.56014.0633-5.12032.12668C286.91478,334.071,284.81194,331.29653,284.38954,327.58687Z" transform="translate(-1.47546 -0.09602)"/><path class="cls-19" d="M331.88921,430.19484q-.321-1.00058-.64135-2.00113c4.2341,1.58069,5.70722,5.80132,7.94955,9.02994a120.41475,120.41475,0,0,1,13.58685,26.90721c.45857,1.232,1.9153,3.18693.0853,3.971-2.15567.9236-1.83632-1.63778-2.33851-2.769-5.03112-11.33355-10.27622-22.53736-18.2218-32.2102C331.05423,432.30762,331.56551,431.23768,331.88921,430.19484Z" transform="translate(-1.47546 -0.09602)"/><path class="cls-22" d="M189.21311,351.455c-1.8379-6.86655-3.60866-13.75249-5.56718-20.58425a11.73814,11.73814,0,0,1-.48611-4.31818l-.07635.06938c4.27213.51082,6.9252,3.62388,9.91124,6.20175-1.217,2.76537-.892,5.8-1.50344,8.66965q-.25189,6.02376-.507,12.04979C189.2943,353.785,189.30187,352.579,189.21311,351.455Z" transform="translate(-1.47546 -0.09602)"/><path class="cls-15" d="M192.99471,332.8237c-4.24769-.55-6.48836-4.32583-9.91121-6.20169a85.39745,85.39745,0,0,1,23.03656-3.00487c-1.77823,3.42058-5.67814,4.00011-8.3301,6.255Q195.38966,331.34861,192.99471,332.8237Z" transform="translate(-1.47546 -0.09602)"/><path class="cls-5" d="M282.301,399.34266q-8.427-7.96055-16.85407-15.92055c7.67426,2.50308,14.52958,6.601,21.21412,11.01534.77609.51245,1.90655,1.33988,1.89894,2.01018-.015,1.32354-1.55318,1.33408-2.55977,1.69881C284.7825,398.58775,283.53542,398.94756,282.301,399.34266Z" transform="translate(-1.47546 -0.09602)"/><path class="cls-23" d="M309.45555,482.985c5.82442-3.34056,9.919-8.57422,14.47427-13.30367,5.04308,10.24281,5.02185,10.13585-6.25766,12.38837A42.09608,42.09608,0,0,1,309.45555,482.985Z" transform="translate(-1.47546 -0.09602)"/><path class="cls-14" d="M284.38954,327.58687a29.56874,29.56874,0,0,1,5.00613,9.04789q-1.17486,3.47538-2.35409,6.95137-2.87917,5.481-5.75253,10.96145c-2.001-.51513-1.69377-1.71934-.91-3.06576,2.04686-2.70619-.40213-6.30482,1.77347-8.98546,1.37512-2.23.75489-4.56482.3596-6.88779a1.941,1.941,0,0,1,.79115-2.04743c1.39136-1.7688-.05068-3.9916.92828-5.82651Z" transform="translate(-1.47546 -0.09602)"/><path class="cls-24" d="M218.68461,252.84948c3.7336,1.9908,7.76271.92873,11.65483,1.03991,5.92314.16922,11.85492.03432,17.783.01953.12582-.00032.25138-.1102.51555-.23369-.67925-.63652-1.32-1.23691-1.96065-1.83767,4.80962,1.14575,9.61925,2.29186,14.49009,3.45257-.51439,2.19969-2.31285,1.29878-3.529,1.67338-.54206-1.425-1.78465-1.2153-2.90108-1.20913q-18.93413.10449-37.86812.235a1.29507,1.29507,0,0,1,.10716-1.961Q217.83052,253.43891,218.68461,252.84948Z" transform="translate(-1.47546 -0.09602)"/><path class="cls-19" d="M214.99325,384.35868c-1.82489-.38684-5.05608,1.16357-6.03595-.76214-1.0705-2.10378,1.15325-4.55279,2.59052-6.58187,2.516-3.55209,4.82539-3.52617,7.161.10532.17776.27639.28185.59925.44318.88761C222.69343,384.33611,222.68173,384.35647,214.99325,384.35868Z" transform="translate(-1.47546 -0.09602)"/><path class="cls-25" d="M216.97645,254.02838l-.10714,1.96079-.08988,1.12423c-.83866,11.47144-.451,22.95558-.16482,34.42915.04862,1.94909-.31668,3.91113.05755,5.84765a4.79143,4.79143,0,0,1-.23593,2.49731c-1.42371,2.396-1.90821.35218-2.63194-.56286a1.59464,1.59464,0,0,1-.10546-1.48011c1.22729-.68406,1.16806-1.87418,1.16819-3.02845.00152-11.87213.012-23.74433-.03824-35.61626a7.76491,7.76491,0,0,0-.75045-2.26327q-.22156-.12484-.44338-.24989a.91277.91277,0,0,1,.63219-.70415l.71115-.86515c-1.18448-4.19033-.43535-8.47046-.53694-12.70572-.22492-9.37645.28668-18.76384-.37405-28.135.53139-1.30725.5732-3.92908,2.68461-1.00708a.90092.90092,0,0,1-.05842.91156c-1.58523,2.94179-.668,6.11331-.72011,9.16345-.14591,8.53826-.08958,17.081-.01813,25.62114C215.96956,250.67833,215.25775,252.62721,216.97645,254.02838Z" transform="translate(-1.47546 -0.09602)"/><path class="cls-19" d="M132.05234,396.95468c-2.10226,3.20009-5.52711,4.98982-8.29207,7.37115a141.29114,141.29114,0,0,0-17.74381,17.85451c-.82609,1.01708-1.67,3.72133-3.6173,1.84168-1.53506-1.48175.63516-2.57341,1.5529-3.52952,8.11416-8.45338,16.34971-16.779,26.18292-23.29169C130.64518,396.86291,131.08968,396.2105,132.05234,396.95468Z" transform="translate(-1.47546 -0.09602)"/><path class="cls-19" d="M236.40159,382.72814c-10.75337,1.83493-12.31714.86345-14.28376-8.82181C227.14522,376.52223,232.09257,378.74935,236.40159,382.72814Z" transform="translate(-1.47546 -0.09602)"/><path class="cls-26" d="M358.85071,494.76119c-1.169-7.37285-4.81895-14.29487-3.98257-22.0675,3.9073,6.54491,5.34479,13.74073,5.85058,21.19557-.35623.4205-.4632,1.03463-1.00934,1.30862A.6673.6673,0,0,1,358.85071,494.76119Z" transform="translate(-1.47546 -0.09602)"/><path class="cls-19" d="M207.92064,374.49856c-4.70726,10.02335-4.70726,10.02335-14.449,8.16916A66.22359,66.22359,0,0,1,207.92064,374.49856Z" transform="translate(-1.47546 -0.09602)"/><path class="cls-27" d="M316.30143,410.2641c.901,1.538,1.9704,3.01721,1.71819,4.95728-6.72447-6.11347-12.915-12.80862-20.144-18.402C304.96222,400.05373,310.4157,405.45324,316.30143,410.2641Z" transform="translate(-1.47546 -0.09602)"/><path class="cls-28" d="M211.80508,258.866c-3.745-1.83165-7.74567-.92758-11.60353-.87171-6.6631.09645-13.39917-.97355-19.98541.898q-3.5776-.97124-7.15563-1.94238-.4057-.38168-.18948-.62753a.51241.51241,0,0,1,.37189-.21168q1.49384.003,2.98769.006c10.63236.74261,21.279.09235,31.91569.34368,1.76755.04177,3.60586-.47534,5.30055.4698a1.74694,1.74694,0,0,0,.63154.00614Q212.94168,257.90144,211.80508,258.866Z" transform="translate(-1.47546 -0.09602)"/><path class="cls-29" d="M214.77705,213.08835q.0998,21.01295.2004,42.02744-.54205-.58381-1.08586-1.17086c.00341-10.5746.03661-21.14936-.01932-31.72365-.00917-1.73341.67443-3.67938-.979-5.12815.18393-1.3586-.23946-2.88345,1.071-3.93357C214.1938,212.66115,214.46276,212.61448,214.77705,213.08835Z" transform="translate(-1.47546 -0.09602)"/><path class="cls-30" d="M216.05135,298.8307q-.11448-19.78942-.22881-39.57883a2.32692,2.32692,0,0,1,.957-2.13887q.03037.40624.09713.80735c.00006,9.619-.03047,19.23808.0283,28.85667.01061,1.73614-.667,3.7065,1.10626,5.09107q-.56419,2.43642-1.12891,4.87225C217.56388,297.82036,217.58869,298.63782,216.05135,298.8307Z" transform="translate(-1.47546 -0.09602)"/><path class="cls-31" d="M230.78207,414.1933c-1.47948-2.30908-3.34589-3.19036-6.29961-3.08486-8.1656.29167-16.34947.06875-24.52662.04888a8.06025,8.06025,0,0,1,.03576-.95,99.3412,99.3412,0,0,1,29.86037-.08524C231.19809,411.24107,230.62737,412.80053,230.78207,414.1933Z" transform="translate(-1.47546 -0.09602)"/><path class="cls-32" d="M229.852,410.12205q-14.93008.04273-29.86028.08536c.40734-.88311,1.214-.976,2.03748-1.03546a156.57272,156.57272,0,0,1,25.7267-.0006A2.39464,2.39464,0,0,1,229.852,410.12205Z" transform="translate(-1.47546 -0.09602)"/><path class="cls-31" d="M201.12046,404.26431q10.90979-.00812,21.81957-.01224c1.982.0013,3.982.16018,5.77189-.96632.03635,1.52534-.85505,1.98388-2.20518,1.97689-8.09293-.04195-16.186-.06063-24.27846-.1443C201.85611,405.11449,201.4896,404.5615,201.12046,404.26431Z" transform="translate(-1.47546 -0.09602)"/><path class="cls-33" d="M242.9182,378.40228c1.84422,1.01531,3.85918,1.81324,4.89142,3.86258-4.54571,1.04069-7.70027-1.22134-10.72177-4.41031C239.33188,376.81186,240.994,378.897,242.9182,378.40228Z" transform="translate(-1.47546 -0.09602)"/><path class="cls-5" d="M193.45938,377.38231c-2.98884,2.617-5.67913,6.00529-11.705,4.36837C186.20259,379.83105,189.41906,377.75579,193.45938,377.38231Z" transform="translate(-1.47546 -0.09602)"/><path class="cls-34" d="M227.75587,409.17135q-12.86389.00076-25.72725.00106A71.23813,71.23813,0,0,1,227.75587,409.17135Z" transform="translate(-1.47546 -0.09602)"/><path class="cls-35" d="M73.9559,481.93066c-.50484-2.53416-.92168-5.07393-.00432-7.60193.31248-.86111.48851-2.16038,1.81645-1.67371,1.13668.41658.95473,1.47483.57479,2.47887-.84591,2.23548-1.62932,4.49471-2.43819,6.74428Z" transform="translate(-1.47546 -0.09602)"/><path class="cls-36" d="M331.88921,430.19484q.209,1.46328.419,2.9272.00428,3.48021.00766,6.9586-.17744,4.46439-.35715,8.92963A40.50777,40.50777,0,0,1,331.88921,430.19484Z" transform="translate(-1.47546 -0.09602)"/><path class="cls-37" d="M223.81457,387.46272q-8.91965.01043-17.83939.02232A28.79338,28.79338,0,0,1,223.81457,387.46272Z" transform="translate(-1.47546 -0.09602)"/><path class="cls-38" d="M70.83038,495.72243c-.27533,2.41945,1.32223,5.34658-1.87936,6.97281q-.3774-.29892-.23446-.57382.13934-.26871.27315-.26885c.3759-2.6948-.88008-5.57251.90379-8.10953C70.71062,494.16254,70.24363,495.19329,70.83038,495.72243Z" transform="translate(-1.47546 -0.09602)"/><path class="cls-39" d="M193.11917,342.4438v12.74313c-.53663-4.26262-2.18783-8.56393.00869-12.75464Z" transform="translate(-1.47546 -0.09602)"/><path class="cls-40" d="M68.98971,501.85257q-.01563.42264-.03841.84383.49122,3.50058.98259,7.0028-.95645.98107-1.9117,1.96234C68.40045,508.39665,67.01828,504.95833,68.98971,501.85257Z" transform="translate(-1.47546 -0.09602)"/><path class="cls-41" d="M287.8686,390.246c2.2895.53819,4.59369,1.054,6.12125,3.8C291.09044,393.37954,288.98181,392.56724,287.8686,390.246Z" transform="translate(-1.47546 -0.09602)"/><path class="cls-34" d="M194.98067,408.28444q-5.92332-.03122-11.84655-.06246c3.83605-1.9833,7.88094-.74525,11.84364-.75594.06628-.00018.18921.24227.18537.36849A1.38192,1.38192,0,0,1,194.98067,408.28444Z" transform="translate(-1.47546 -0.09602)"/><path class="cls-34" d="M247.62749,408.19674q-6.45081.03044-12.90189.06115A17.71938,17.71938,0,0,1,247.62749,408.19674Z" transform="translate(-1.47546 -0.09602)"/><path class="cls-42" d="M362.92165,514.55152q-.0712-5.36253-.14259-10.72464c.02833-.15918.00655-.36056.09633-.46914a3.89005,3.89005,0,0,1,.58628-.49089C363.70756,506.78157,364.60527,510.72654,362.92165,514.55152Z" transform="translate(-1.47546 -0.09602)"/><path class="cls-43" d="M172.7565,379.99485a25.32679,25.32679,0,0,1,8.64847-2.76294C178.17467,379.51149,176.06363,380.9337,172.7565,379.99485Z" transform="translate(-1.47546 -0.09602)"/><path class="cls-44" d="M361.87832,503.68279l-.12487,1.20637c-2.76209-.39258-.51318-3.11588-1.91517-4.14107a3.914,3.914,0,0,0-.11621-.98345,1.25967,1.25967,0,0,1-.13189-1.26487c.401-1.26154.00164-2.79739,1.276-3.76119C362.62612,497.55809,361.36235,500.72172,361.87832,503.68279Z" transform="translate(-1.47546 -0.09602)"/><path class="cls-45" d="M136.883,393.35442c1.55052-1.16335,2.46787-3.478,5.30007-2.56885C140.42594,392.36167,139.03608,393.72255,136.883,393.35442Z" transform="translate(-1.47546 -0.09602)"/><path class="cls-46" d="M192.14683,187.10046c-2.2024-2.40893-5.11376-1.80142-7.86858-1.85987a1.00721,1.00721,0,0,1-.0586-.87579c2.59211-1.69112,5.21779-1.48483,7.86364-.14Q192.115,185.66265,192.14683,187.10046Z" transform="translate(-1.47546 -0.09602)"/><path class="cls-47" d="M280.37907,351.48185c.20211,1.05211-.36142,2.33278.90995,3.06573-.2291,1.058-1.21863,2.06335-1.90127,1.71211-2.121-1.09129-.42637-3.18566-.84249-4.7875Z" transform="translate(-1.47546 -0.09602)"/><path class="cls-48" d="M70.83038,495.72243q-.46772-.98892-.93617-1.9786c.652-2.19893-.76781-4.73752,1.09934-6.73619.87455.75123.06871,2.00806.83521,2.7918Z" transform="translate(-1.47546 -0.09602)"/><path class="cls-49" d="M199.10407,411.23041c-.16983,3.1123-.49858,6.18823-2.04252,8.98659C196.929,417.03571,197.20706,413.94806,199.10407,411.23041Z" transform="translate(-1.47546 -0.09602)"/><path class="cls-50" d="M276.52006,343.15181l.86642,4.4889c-.04047.92321-.081,1.84645-.14074,3.20814C275.41438,348.0895,275.9173,345.6243,276.52006,343.15181Z" transform="translate(-1.47546 -0.09602)"/><path class="cls-51" d="M210.671,163.42732a9.39462,9.39462,0,0,1,.11664-.97973,5.03124,5.03124,0,0,1,.94829-.073,13.83161,13.83161,0,0,1,.05669,8.929,6.133,6.133,0,0,1-.95317-.04847l-.096-.99718A18.60473,18.60473,0,0,1,210.671,163.42732Z" transform="translate(-1.47546 -0.09602)"/><path class="cls-52" d="M211.79257,171.30354q-.0267-4.4644-.055-8.92888A7.93761,7.93761,0,0,1,211.79257,171.30354Z" transform="translate(-1.47546 -0.09602)"/><path class="cls-53" d="M202.92693,198.04054a7.99928,7.99928,0,0,1-8.8534.06639A11.05941,11.05941,0,0,1,202.92693,198.04054Z" transform="translate(-1.47546 -0.09602)"/><path class="cls-54" d="M155.36336,305.85412l-.51346,1.10056c-1.55-.21192-3.22717-1.04463-2.91325-2.519.32375-1.52066,2.1524-.53682,3.34254-.49827Q155.32125,304.896,155.36336,305.85412Z" transform="translate(-1.47546 -0.09602)"/><path class="cls-55" d="M202.92693,198.04054q-4.42691.03387-8.85361.06709a7.94542,7.94542,0,0,1-.0134-.93358l1.03925-.16613a18.43391,18.43391,0,0,1,6.80944-.05754l.98814.11342A5.34309,5.34309,0,0,1,202.92693,198.04054Z" transform="translate(-1.47546 -0.09602)"/><path class="cls-56" d="M214.77705,213.08835a6.75261,6.75261,0,0,1-.81309.07106c.16007-1.176-.46935-2.49942.87624-3.74329,1.43495.88318,1.77486,2.30781,1.91172,3.8535C216.07619,213.40028,215.5813,211.54932,214.77705,213.08835Z" transform="translate(-1.47546 -0.09602)"/><path class="cls-9" d="M359.83828,500.74809c1.51077.97361.25257,3.23661,1.91578,4.14a5.65279,5.65279,0,0,0-.97315,3.86769C358.84871,506.27789,360.22435,503.40872,359.83828,500.74809Z" transform="translate(-1.47546 -0.09602)"/><path class="cls-46" d="M196.193,174.3106c.26543,2.87788,3.67686,2.39881,4.71924,4.44835q-2.44674-.23326-4.89374-.46765C195.05687,176.91945,194.768,175.57724,196.193,174.3106Z" transform="translate(-1.47546 -0.09602)"/><path class="cls-57" d="M192.08329,184.22482l-7.86364.14-.09223-1.02014a12.718,12.718,0,0,1,7.935-.0908A2.61893,2.61893,0,0,1,192.08329,184.22482Z" transform="translate(-1.47546 -0.09602)"/><path class="cls-58" d="M192.06239,183.25386q-3.96744.04485-7.93491.09025A7.23835,7.23835,0,0,1,192.06239,183.25386Z" transform="translate(-1.47546 -0.09602)"/><path class="cls-59" d="M294.51669,336.5079l5.43319-.11583a2.80362,2.80362,0,0,1,.92026.32678c.46874.39614.39525.77761-.26509.80434-1.47561.05981-2.95339.06519-4.43091.0932C295.46651,337.47972,294.66849,337.47935,294.51669,336.5079Z" transform="translate(-1.47546 -0.09602)"/><path class="cls-52" d="M234.71145,198.17546c-2.31366,1.73519-4.60785,1.536-6.88789-.0697A6.95437,6.95437,0,0,1,234.71145,198.17546Z" transform="translate(-1.47546 -0.09602)"/><path class="cls-60" d="M173.24292,256.11063a4.001,4.001,0,0,1-.18073.83948c-1.11788-.424-3.108.2649-3.27352-1.064-.193-1.55029,1.56709-.69051,2.48283-.8671Z" transform="translate(-1.47546 -0.09602)"/><path class="cls-61" d="M189.21311,351.455q.88556,1.044,1.77114,2.08808c-1.26856,3.7569-1.98167.3999-2.90785-.22827A1.87233,1.87233,0,0,1,189.21311,351.455Z" transform="translate(-1.47546 -0.09602)"/><path class="cls-62" d="M285.78778,389.07139c-1.99566.275-2.7667-.41118-3.18173-1.93962C284.2283,387.00938,285.23731,387.42672,285.78778,389.07139Z" transform="translate(-1.47546 -0.09602)"/><path class="cls-63" d="M234.71145,198.17546q-3.44418-.03412-6.88812-.069a8.58739,8.58739,0,0,1-.01485-.93079l1.03382-.1402a8.19045,8.19045,0,0,1,4.86105.00523q.537.11367,1.07408.22737A6.64252,6.64252,0,0,1,234.71145,198.17546Z" transform="translate(-1.47546 -0.09602)"/><path class="cls-64" d="M185.17388,169.08461q3.43734.09416,6.87463.18834C189.7126,170.83717,187.41147,171.12674,185.17388,169.08461Z" transform="translate(-1.47546 -0.09602)"/><path class="cls-65" d="M213.69883,297.84454a.70126.70126,0,0,0,.19937.88111,3.99382,3.99382,0,0,1,.271,3.88278c-1.514-1.72717-2.28155-3.61-1.21809-5.87459Q213.325,297.28926,213.69883,297.84454Z" transform="translate(-1.47546 -0.09602)"/><path class="cls-10" d="M73.95733,498.81832c-.47645,2.31072.7373,4.86092-.98541,6.99526C73.31813,503.48445,72.01633,500.92174,73.95733,498.81832Z" transform="translate(-1.47546 -0.09602)"/><path class="cls-31" d="M71.82876,489.79944c-1.02665-.70634-.83737-1.77843-.83543-2.79293q.44892-1.06023.89738-2.12277a.72743.72743,0,0,1,1.14076.01856Q72.43012,487.35086,71.82876,489.79944Z" transform="translate(-1.47546 -0.09602)"/><path class="cls-66" d="M195.02234,163.329a5.69081,5.69081,0,0,1,.03308-.83565,7.17465,7.17465,0,0,1,5.95561-.14932,1.6849,1.6849,0,0,1,.0003.7828.51583.51583,0,0,1-.06339.58057,11.688,11.688,0,0,1-4.84827-.19851Z" transform="translate(-1.47546 -0.09602)"/><path class="cls-67" d="M216.05135,298.8307q.41547-1.0452.831-2.09036c2.04365,2.06517.15836,3.44224-.86551,4.97019a.78.78,0,0,1-.42431-.6642q.00014-.42555.10642-.42557Z" transform="translate(-1.47546 -0.09602)"/><path class="cls-68" d="M215.69891,300.62076l.31789,1.08977q-.92383.449-1.84764.898-.13537-1.94144-.27093-3.88279Q214.79855,299.67316,215.69891,300.62076Z" transform="translate(-1.47546 -0.09602)"/><path class="cls-9" d="M356.80728,502.8366c-1.592-1.79933-.56-4.02105-.96221-6.01188C357.643,498.5909,356.535,500.82486,356.80728,502.8366Z" transform="translate(-1.47546 -0.09602)"/><path class="cls-49" d="M237.69212,426.21879c1.76488,1.70862.58522,3.95172,1.064,5.89389C236.87719,430.42493,238.07826,428.17773,237.69212,426.21879Z" transform="translate(-1.47546 -0.09602)"/><path class="cls-49" d="M191.02311,434.10154c.45351-1.96331-.651-4.203,1.04876-5.94507C191.71778,430.13746,192.91418,432.39341,191.02311,434.10154Z" transform="translate(-1.47546 -0.09602)"/><path class="cls-49" d="M195.09022,430.14092c-.44,1.95065.58308,4.16088-1.04109,5.90082C194.38026,434.07156,193.20132,431.83405,195.09022,430.14092Z" transform="translate(-1.47546 -0.09602)"/><path class="cls-49" d="M238.741,432.08719c1.6709,1.76.54261,4.02393,1.07288,5.98949C237.814,436.37642,239.061,434.09054,238.741,432.08719Z" transform="translate(-1.47546 -0.09602)"/><path class="cls-49" d="M189.9873,440.07141c.51878-1.96924-.614-4.2302,1.053-5.99682C190.73406,436.08126,191.95565,438.358,189.9873,440.07141Z" transform="translate(-1.47546 -0.09602)"/><path class="cls-69" d="M73.03147,484.9023q-.56978-.00929-1.14015-.01859c-.05833-1.509-.13541-3.03155,2.06441-2.95317l-.051-.05219C73.78894,482.93714,73.98932,484.08788,73.03147,484.9023Z" transform="translate(-1.47546 -0.09602)"/><path class="cls-70" d="M195.02464,178.28515c-1.4126-1.68132-1.54466-3.3353.1051-4.95125A6.205,6.205,0,0,1,195.02464,178.28515Z" transform="translate(-1.47546 -0.09602)"/><path class="cls-71" d="M195.02462,178.28515q.05148-2.476.104-4.95163.51168.05062,1.02128.10061a1.37081,1.37081,0,0,0,.04195.87647q-.08553,1.99035-.17333,3.9807Z" transform="translate(-1.47546 -0.09602)"/><path class="cls-72" d="M304.20142,335.44911q2.457-.08046,4.914-.16091C307.539,337.23529,305.89156,336.99788,304.20142,335.44911Z" transform="translate(-1.47546 -0.09602)"/><path class="cls-49" d="M235.70471,434.19259c-1.40226-1.479-.66754-3.35138-.92233-5.04122C236.39592,430.59174,235.51641,432.49038,235.70471,434.19259Z" transform="translate(-1.47546 -0.09602)"/><path class="cls-49" d="M233.75758,424.14268c-1.5478-1.41953-.68484-3.29745-.93771-4.96293C234.378,420.59771,233.52619,422.473,233.75758,424.14268Z" transform="translate(-1.47546 -0.09602)"/><path class="cls-64" d="M216.5026,186.75647a3.46474,3.46474,0,0,1-.22-3.59463C217.20575,184.10247,216.84129,185.10121,216.5026,186.75647Z" transform="translate(-1.47546 -0.09602)"/><path class="cls-49" d="M197.07965,420.1889c-.37861,1.65761.47424,3.56846-1.02145,4.99656C196.27652,423.495,195.32538,421.5639,197.07965,420.1889Z" transform="translate(-1.47546 -0.09602)"/><path class="cls-73" d="M213.88685,182.26672c1.4337,1.6769,1.56809,3.32409-.1121,4.92979A6.61329,6.61329,0,0,1,213.88685,182.26672Z" transform="translate(-1.47546 -0.09602)"/><path class="cls-9" d="M354.87753,491.79061c-1.63652-1.3363-.61052-3.30219-1.15287-4.89753C355.61063,488.1695,354.55912,490.14238,354.87753,491.79061Z" transform="translate(-1.47546 -0.09602)"/><path class="cls-10" d="M75.90561,488.85979c-.322,1.62785.67637,3.53244-1.01618,4.872C75.18641,492.09846,74.28694,490.21487,75.90561,488.85979Z" transform="translate(-1.47546 -0.09602)"/><path class="cls-49" d="M236.72981,421.31443c1.60725,1.36206.64353,3.21555.91768,4.83212C236.13412,424.76605,236.94013,422.94324,236.72981,421.31443Z" transform="translate(-1.47546 -0.09602)"/><path class="cls-74" d="M213.88685,182.26672q-.05435,2.46549-.1104,4.93038l-.45985.01917-.45856-.01235q.07667-2.50224.15374-5.00439A8.6886,8.6886,0,0,1,213.88685,182.26672Z" transform="translate(-1.47546 -0.09602)"/><path class="cls-10" d="M74.8157,493.84454c-.16824,1.68267.69427,3.54531-.86545,4.98511C74.14614,497.15187,73.34543,495.3,74.8157,493.84454Z" transform="translate(-1.47546 -0.09602)"/><path class="cls-75" d="M360.86619,494.73858c-.25149,1.39156.43581,3.03265-1.08056,4.08794a4.12825,4.12825,0,0,1-.0266-3.89916q.4806-.51957.96042-1.03865A2.86055,2.86055,0,0,1,360.86619,494.73858Z" transform="translate(-1.47546 -0.09602)"/><path class="cls-9" d="M359.759,494.92736q.01359,1.94949.0269,3.89907-.03316.4698-.063.939c-1.53258-1.45052-.67964-3.31832-.87254-5.00346Q359.305,494.84384,359.759,494.92736Z" transform="translate(-1.47546 -0.09602)"/><path class="cls-76" d="M196.09967,163.50892q2.42424.099,4.84838.19825C199.29336,164.58682,197.665,164.82155,196.09967,163.50892Z" transform="translate(-1.47546 -0.09602)"/><path class="cls-49" d="M192.0822,428.14c.30694-1.66162-.57283-3.55728.97526-4.97411C192.81953,424.84109,193.70737,426.7383,192.0822,428.14Z" transform="translate(-1.47546 -0.09602)"/><path class="cls-49" d="M196.074,425.16073c-.343,1.66743.4472,3.56278-1.00127,5.00808C195.275,428.47316,194.34388,426.54949,196.074,425.16073Z" transform="translate(-1.47546 -0.09602)"/><path class="cls-49" d="M234.74614,412.29c1.5145,1.39183.679,3.27415,1.01949,4.91126C234.08317,415.84469,234.97765,413.94979,234.74614,412.29Z" transform="translate(-1.47546 -0.09602)"/><path class="cls-49" d="M232.78584,419.12334c-1.63567-1.339-.608-3.30165-1.14189-4.8989C233.512,415.50818,232.471,417.47484,232.78584,419.12334Z" transform="translate(-1.47546 -0.09602)"/><path class="cls-49" d="M193.05989,423.162c.308-1.67514-.50442-3.56889.97293-5.01619C193.81614,419.83866,194.71353,421.74912,193.05989,423.162Z" transform="translate(-1.47546 -0.09602)"/><path class="cls-9" d="M355.84507,496.82472c-1.55561-1.42409-.66916-3.30879-.93271-4.9763C356.47012,493.27248,355.61839,495.15018,355.84507,496.82472Z" transform="translate(-1.47546 -0.09602)"/><path class="cls-77" d="M321.14228,450.00939c-1.64352-5.41211-5.31193-9.77169-7.65883-14.81817,2.40852-2.12744,4.98834-3.5879,8.31324-2.14716l.27342,1.128c1.90675,4.90825.96323,9.94154.59561,14.93868C322.61652,449.7793,321.8633,450.06249,321.14228,450.00939Z" transform="translate(-1.47546 -0.09602)"/><path class="cls-78" d="M321.79669,433.04406q-4.15846,1.07331-8.31506,2.14689-1.05018-1.58644-2.10323-3.17427c3.50689-.58342,6.57736-2.28633,9.72062-3.80158q.38487-.00689.76743-.04928c1.29418,1.56526.74765,3.243.29859,4.91472Z" transform="translate(-1.47546 -0.09602)"/><path class="cls-79" d="M321.14228,450.00939c2.01811-5.17862.46384-10.56776.92792-15.83764a4.43837,4.43837,0,0,0,.7434-.03111,55.96835,55.96835,0,0,1,.05683,19.85881Q322.00632,452.00444,321.14228,450.00939Z" transform="translate(-1.47546 -0.09602)"/><path class="cls-80" d="M322.87043,453.99945q-.02649-9.92922-.05489-19.85863A32.84405,32.84405,0,0,1,322.87043,453.99945Z" transform="translate(-1.47546 -0.09602)"/><path class="cls-81" d="M322.165,433.08054q-.14772-2.4573-.297-4.91466C323.73407,429.696,323.44959,431.35774,322.165,433.08054Z" transform="translate(-1.47546 -0.09602)"/><path class="cls-82" d="M317.91568,459.98037v3.2103C316.61614,462.15512,317.51546,461.09758,317.91568,459.98037Z" transform="translate(-1.47546 -0.09602)"/><path class="cls-9" d="M233.7238,163.38154c2.21949,1.33034,2.48228,3.75967,3.2865,5.8849.014.25062.028.50125.04473.75187-.04173,4.50968.0174,9.0197-.03645,13.52946-.02178.25026-.04613.50038-.0705.75049-.86205,3.316-1.93145,6.55177-6.30475,5.99687-4.29143-.54448-4.10124-4.13009-4.92694-7.30949-1.28956-4.96556-.257-9.76581.19278-14.61364a8.08239,8.08239,0,0,1,2.94676-4.94386C230.47238,162.76327,232.089,162.11843,233.7238,163.38154Z" transform="translate(-1.47546 -0.09602)"/><path class="cls-83" d="M237.7412,169.27373c2.1028,4.86092.585,9.9186.78861,14.88251.00317.07743-.222.22354-.34753.23176a1.3303,1.3303,0,0,1-.46477-.14805A24.00664,24.00664,0,0,1,237.7412,169.27373Z" transform="translate(-1.47546 -0.09602)"/><path class="cls-57" d="M237.7412,169.27373q-.01185,7.48315-.02368,14.96625l-.38135.07412-.38811-.01584-.30618.01331-.26857-.14807c-.18475-4.92337-.24414-9.84647.03167-14.76885a.61526.61526,0,0,1,.6053-.1282A1.39172,1.39172,0,0,1,237.7412,169.27373Z" transform="translate(-1.47546 -0.09602)"/><path class="cls-84" d="M233.7238,163.38154c-1.62272.00634-3.232,1.42467-4.86787.0466a3.84136,3.84136,0,0,1-.04132-.85329,4.07667,4.07667,0,0,1,4.91064-.01059A4.62545,4.62545,0,0,1,233.7238,163.38154Z" transform="translate(-1.47546 -0.09602)"/><path class="cls-46" d="M233.70335,197.04073q-2.43056-.00258-4.86108-.00518A3.61871,3.61871,0,0,1,233.70335,197.04073Z" transform="translate(-1.47546 -0.09602)"/><path class="cls-85" d="M233.72525,162.56426q-2.4552.00388-4.91053.00916C230.44764,160.77475,232.08454,160.78327,233.72525,162.56426Z" transform="translate(-1.47546 -0.09602)"/><path class="cls-83" d="M201.90861,196.95037q-3.40472.02882-6.80944.0576A6.92172,6.92172,0,0,1,201.90861,196.95037Z" transform="translate(-1.47546 -0.09602)"/><path class="cls-86" d="M201.011,162.34406q-2.97776.074-5.95557.14868c1.68789-1.98592,3.87669-.95473,5.88886-.96472.08393-.00043.23021.23276.23736.36317A1.22057,1.22057,0,0,1,201.011,162.34406Z" transform="translate(-1.47546 -0.09602)"/><path class="cls-83" d="M210.671,163.42732q.03625,3.4153.07247,6.83059A6.98218,6.98218,0,0,1,210.671,163.42732Z" transform="translate(-1.47546 -0.09602)"/><path class="cls-87" d="M284.23157,327.73463c-.09236,1.97693.97,4.13885-.92822,5.82648q.11373-2.97472.22761-5.94948A2.56441,2.56441,0,0,1,284.23157,327.73463Z" transform="translate(-1.47546 -0.09602)"/><path class="cls-88" d="M282.51214,335.60857c1.23342,2.3668,1.72876,4.69494-.35927,6.88776Q282.33218,339.05248,282.51214,335.60857Z" transform="translate(-1.47546 -0.09602)"/><path class="cls-60" d="M213.44684,256.93012c-10.66-.03429-21.32022-.04344-31.97983-.12792-1.75395-.01388-3.62642.53734-5.23784-.68647q19.01821-.06574,38.03575-.13327Q213.85808,256.45633,213.44684,256.93012Z" transform="translate(-1.47546 -0.09602)"/><path class="cls-58" d="M236.405,169.39465a66.973,66.973,0,0,1-.031,14.7692A34.608,34.608,0,0,1,236.405,169.39465Z" transform="translate(-1.47546 -0.09602)"/></svg>