<svg version="1.1" id="Layer_1" xmlns="http://www.w3.org/2000/svg" xmlns:xlink="http://www.w3.org/1999/xlink" x="0px" y="0px"
	 width="100%" viewBox="0 0 901 1201" enable-background="new 0 0 901 1201" xml:space="preserve">
<path fill="#FFFFFF" opacity="1.000000" stroke="none" 
	d="
M452.000000,1.000000 
	C601.970642,1.000000 751.941223,1.000000 901.955933,1.000000 
	C901.955933,401.225586 901.955933,801.451172 901.955933,1202.000000 
	C601.666748,1202.000000 301.333374,1202.000000 1.347287,1201.433350 
	C2.297233,1200.598389 2.929687,1200.381958 3.498273,1200.054443 
	C55.586399,1170.050049 107.691017,1140.074219 159.748062,1110.015991 
	C234.001221,1067.141479 308.219208,1024.206177 382.452332,981.296997 
	C403.932343,968.880859 425.440979,956.513733 446.861206,943.995300 
	C449.901917,942.218140 452.139893,941.920837 455.429901,943.887146 
	C470.151520,952.685852 485.127563,961.057800 499.980865,969.637329 
	C565.582336,1007.529846 631.172058,1045.442627 696.768127,1083.344604 
	C751.548828,1114.997314 806.328796,1146.651489 861.117249,1178.291016 
	C874.202026,1185.847290 887.318909,1193.347656 901.169067,1201.303467 
	C900.721313,1199.552002 900.568909,1198.619873 900.247375,1197.750366 
	C896.902893,1188.706177 893.550659,1179.664917 890.163940,1170.636597 
	C865.588013,1105.121094 840.993652,1039.612671 816.424744,974.094543 
	C793.021118,911.683655 769.653076,849.259399 746.247498,786.849304 
	C721.618225,721.175964 696.951538,655.516541 672.322266,589.843201 
	C647.750122,524.321838 623.208923,458.788910 598.645203,393.264404 
	C575.073975,330.387634 551.499084,267.512238 527.911011,204.641754 
	C506.423828,147.370926 484.893311,90.116341 463.439545,32.833004 
	C459.485321,22.274834 455.806122,11.613643 452.000000,1.000000 
z"/>
<path fill="#FFFFFF" opacity="1.000000" stroke="none" 
	d="
M0.999994,1200.000000 
	C1.000000,800.433167 1.000000,400.866394 1.000000,1.000000 
	C150.695908,1.000000 300.391998,1.000000 450.462128,1.355853 
	C450.272949,3.099841 449.676544,4.475547 449.151306,5.877914 
	C431.290466,53.565495 413.466461,101.266907 395.573761,148.942520 
	C372.184479,211.263763 348.703674,273.550659 325.332214,335.878571 
	C300.733978,401.477905 276.242004,467.117096 251.659729,532.722412 
	C227.018692,598.484680 202.313950,664.223083 177.654831,729.978577 
	C154.281738,792.304871 130.939865,854.642883 107.569382,916.970093 
	C78.356041,994.879761 49.147701,1072.791138 19.889177,1150.683838 
	C13.699324,1167.162476 7.301804,1183.563354 0.999994,1200.000000 
z"/>
<path fill="#7C888F" opacity="1.000000" stroke="none" 
	d="
M0.999994,1200.250000 
	C7.301804,1183.563354 13.699324,1167.162476 19.889177,1150.683838 
	C49.147701,1072.791138 78.356041,994.879761 107.569382,916.970093 
	C130.939865,854.642883 154.281738,792.304871 177.654831,729.978577 
	C202.313950,664.223083 227.018692,598.484680 251.659729,532.722412 
	C276.242004,467.117096 300.733978,401.477905 325.332214,335.878571 
	C348.703674,273.550659 372.184479,211.263763 395.573761,148.942520 
	C413.466461,101.266907 431.290466,53.565495 449.151306,5.877914 
	C449.676544,4.475547 450.272949,3.099841 450.918091,1.355853 
	C451.000000,1.000000 451.500000,1.000000 451.750000,1.000000 
	C455.806122,11.613643 459.485321,22.274834 463.439545,32.833004 
	C484.893311,90.116341 506.423828,147.370926 527.911011,204.641754 
	C551.499084,267.512238 575.073975,330.387634 598.645203,393.264404 
	C623.208923,458.788910 647.750122,524.321838 672.322266,589.843201 
	C696.951538,655.516541 721.618225,721.175964 746.247498,786.849304 
	C769.653076,849.259399 793.021118,911.683655 816.424744,974.094543 
	C840.993652,1039.612671 865.588013,1105.121094 890.163940,1170.636597 
	C893.550659,1179.664917 896.902893,1188.706177 900.247375,1197.750366 
	C900.568909,1198.619873 900.721313,1199.552002 901.169067,1201.303467 
	C887.318909,1193.347656 874.202026,1185.847290 861.117249,1178.291016 
	C806.328796,1146.651489 751.548828,1114.997314 696.768127,1083.344604 
	C631.172058,1045.442627 565.582336,1007.529846 499.980865,969.637329 
	C485.127563,961.057800 470.151520,952.685852 455.429901,943.887146 
	C452.139893,941.920837 449.901917,942.218140 446.861206,943.995300 
	C425.440979,956.513733 403.932343,968.880859 382.452332,981.296997 
	C308.219208,1024.206177 234.001221,1067.141479 159.748062,1110.015991 
	C107.691017,1140.074219 55.586399,1170.050049 3.498273,1200.054443 
	C2.929687,1200.381958 2.297233,1200.598389 1.347287,1200.933350 
	C1.000000,1201.000000 1.000000,1200.500000 0.999994,1200.250000 
M666.514099,681.944031 
	C646.167358,627.778015 625.837280,573.605652 605.470459,519.447205 
	C557.933411,393.038757 510.380615,266.636230 462.827515,140.233871 
	C459.140106,130.432251 455.400604,120.650230 451.255066,109.725243 
	C324.873077,445.743591 198.937149,780.575989 72.547371,1116.614990 
	C77.667152,1113.677124 81.545242,1111.445801 85.429001,1109.224243 
	C151.338425,1071.524902 217.257431,1033.842163 283.155823,996.123413 
	C336.195129,965.764893 389.265198,935.459106 442.162415,904.854797 
	C448.523682,901.174377 453.098053,900.774292 459.888062,904.703796 
	C525.309143,942.564453 591.026123,979.913452 656.649170,1017.425232 
	C712.735352,1049.485474 768.808105,1081.569458 824.896851,1113.625122 
	C826.041809,1114.279297 827.311401,1114.715576 829.662720,1115.759766 
	C775.052856,970.515015 720.938293,826.587402 666.514099,681.944031 
z"/>
<path fill="#141B22" opacity="1.000000" stroke="none" 
	d="
M666.668884,682.301880 
	C720.938293,826.587402 775.052856,970.515015 829.662720,1115.759766 
	C827.311401,1114.715576 826.041809,1114.279297 824.896851,1113.625122 
	C768.808105,1081.569458 712.735352,1049.485474 656.649170,1017.425232 
	C591.026123,979.913452 525.309143,942.564453 459.888062,904.703796 
	C453.098053,900.774292 448.523682,901.174377 442.162415,904.854797 
	C389.265198,935.459106 336.195129,965.764893 283.155823,996.123413 
	C217.257431,1033.842163 151.338425,1071.524902 85.429001,1109.224243 
	C81.545242,1111.445801 77.667152,1113.677124 72.547371,1116.614990 
	C198.937149,780.575989 324.873077,445.743591 451.255066,109.725243 
	C455.400604,120.650230 459.140106,130.432251 462.827515,140.233871 
	C510.380615,266.636230 557.933411,393.038757 605.470459,519.447205 
	C625.837280,573.605652 646.167358,627.778015 666.668884,682.301880 
M315.237335,971.886414 
	C315.497040,971.692566 315.756714,971.498718 316.687836,971.009766 
	C318.328735,970.237854 320.032288,969.575439 321.601013,968.677429 
	C341.098450,957.516724 360.576263,946.321716 380.476044,935.261658 
	C380.821747,935.025940 381.167450,934.790222 382.123169,934.240295 
	C387.195648,931.193848 392.268127,928.147339 397.988983,924.942139 
	C405.205933,920.855164 412.475372,916.857361 419.621796,912.650513 
	C424.578674,909.732666 429.366150,906.527039 434.351318,903.380554 
	C434.351318,903.380554 434.445984,903.276917 435.125000,903.203186 
	C439.524658,900.901917 443.827698,898.376099 448.375610,896.419250 
	C450.001068,895.719788 452.519012,895.778564 454.114075,896.553040 
	C460.944489,899.869507 467.582642,903.581970 474.602173,907.700928 
	C479.988983,910.570312 485.375793,913.439758 490.952148,916.969421 
	C495.487091,919.682556 499.972168,922.483398 504.566254,925.092407 
	C518.682739,933.109192 532.840942,941.052307 547.374756,949.576538 
	C552.589417,952.529663 557.804016,955.482849 563.527039,958.828247 
	C564.805420,959.600769 566.068665,960.399841 567.364502,961.141907 
	C590.447937,974.361755 613.509338,987.620544 636.633423,1000.768982 
	C647.606934,1007.008606 658.701782,1013.034790 670.185120,1019.691406 
	C673.157104,1021.243591 676.129089,1022.795715 679.481262,1024.859741 
	C680.363220,1025.600342 681.156860,1026.495850 682.140991,1027.057129 
	C690.782715,1031.984863 699.493469,1036.791870 708.116272,1041.752197 
	C724.384094,1051.110474 740.594849,1060.567749 756.851685,1069.945312 
	C776.561646,1081.314697 796.289917,1092.652222 816.028564,1103.971802 
	C817.359802,1104.735229 818.844971,1105.230469 821.547913,1106.415894 
	C697.987244,777.875122 574.931091,450.675812 451.874969,123.476501 
	C451.477722,123.489380 451.080475,123.502251 450.683228,123.515129 
	C327.577698,450.800934 204.472183,778.086792 81.366661,1105.372559 
	C103.120636,1094.185547 123.928780,1082.421509 144.694412,1070.583008 
	C167.493179,1057.585571 190.287903,1044.580078 212.993317,1031.420898 
	C216.602783,1029.329102 219.733658,1026.411499 223.802551,1024.060181 
	C226.731247,1022.457031 229.659943,1020.853943 233.212433,1019.101013 
	C254.417908,1007.016418 275.653198,994.983704 296.810211,982.814880 
	C302.914307,979.303894 308.793335,975.401550 315.009338,971.976624 
	C315.009338,971.976624 314.765015,971.688110 315.237335,971.886414 
z"/>
<path fill="#000000" opacity="1.000000" stroke="none" 
	d="
M223.085785,1023.875549 
	C219.733658,1026.411499 216.602783,1029.329102 212.993317,1031.420898 
	C190.287903,1044.580078 167.493179,1057.585571 144.694412,1070.583008 
	C123.928780,1082.421509 103.120636,1094.185547 81.366661,1105.372559 
	C204.472183,778.086792 327.577698,450.800934 450.683228,123.515129 
	C451.080475,123.502251 451.477722,123.489380 451.874969,123.476501 
	C574.931091,450.675812 697.987244,777.875122 821.547913,1106.415894 
	C818.844971,1105.230469 817.359802,1104.735229 816.028564,1103.971802 
	C796.289917,1092.652222 776.561646,1081.314697 756.851685,1069.945312 
	C740.594849,1060.567749 724.384094,1051.110474 708.116272,1041.752197 
	C699.493469,1036.791870 690.782715,1031.984863 682.140991,1027.057129 
	C681.156860,1026.495850 680.363220,1025.600342 679.274658,1024.130127 
	C678.404663,1018.126404 677.898376,1012.826965 677.052856,1007.582153 
	C670.890808,969.358704 656.017761,934.775330 631.752686,904.696228 
	C621.152405,891.556091 608.415894,880.139221 596.988586,867.730347 
	C602.299866,866.161194 607.272034,864.801392 612.244263,863.441589 
	C605.500977,860.781860 598.807068,859.080627 592.228455,857.012878 
	C590.929382,856.604492 589.398254,854.921875 589.128784,853.592834 
	C587.844482,847.258606 587.004211,840.835815 585.915466,834.459961 
	C585.140564,829.921326 584.221985,825.407166 583.367493,820.882080 
	C583.087708,820.931885 582.807922,820.981628 582.528137,821.031372 
	C580.648376,831.798889 578.768616,842.566406 576.534424,853.272095 
	C558.928223,842.191650 540.569397,833.501343 521.232971,826.722534 
	C590.644592,742.596191 619.142212,647.111084 603.623169,538.247681 
	C599.597778,545.526184 595.938171,552.199463 592.224792,558.842712 
	C587.967163,566.459717 585.098938,568.075989 576.771667,564.945190 
	C568.585510,561.867493 560.420715,558.219482 553.065491,553.535706 
	C524.507080,535.349915 500.342285,511.902283 476.515869,488.115326 
	C475.749268,487.349976 475.403687,486.162994 474.855469,484.680328 
	C474.822510,460.794525 474.795868,437.400940 475.076233,413.766693 
	C484.903442,411.284637 494.356415,408.660278 503.973541,406.970367 
	C508.491547,406.176483 513.500610,406.458130 517.975464,407.540802 
	C524.692383,409.165924 532.091492,407.428070 535.887756,402.093048 
	C540.144165,396.111389 540.004578,388.404236 535.543579,383.094452 
	C530.782043,377.426941 523.107544,374.970947 517.241150,378.790039 
	C512.129089,382.118134 507.027466,381.960999 501.621338,381.962585 
	C490.965057,381.965698 480.308746,381.963318 469.652466,381.963257 
	C467.882416,381.963257 466.112366,381.963257 464.147949,381.963257 
	C463.899261,377.338379 463.687042,373.391937 463.635132,369.153381 
	C463.797882,367.941010 463.800354,367.020782 463.869080,365.648926 
	C463.891724,363.371887 463.848175,361.546478 463.863831,359.346252 
	C463.891632,357.942352 463.860199,356.913300 463.881531,355.440552 
	C463.876373,353.208588 463.818420,351.420319 463.824097,349.281738 
	C463.858673,347.724792 463.829620,346.518158 463.858734,344.840973 
	C463.859711,342.795197 463.802521,341.219971 463.812866,339.292908 
	C463.812744,337.974365 463.745087,337.007629 463.727478,335.636597 
	C462.909821,331.384216 465.910034,329.665955 468.021790,327.415161 
	C476.474182,318.406311 476.336792,304.102051 467.755737,295.425781 
	C458.974945,286.547546 444.418823,286.351776 435.379669,294.990326 
	C426.240051,303.724854 425.330261,317.711090 434.183136,326.652069 
	C438.131714,330.639984 439.566101,334.568878 438.983154,339.762939 
	C438.855042,340.904358 439.054291,342.082458 439.028503,343.594727 
	C438.951416,344.903625 438.948608,345.861450 438.900818,347.262512 
	C438.888947,349.485046 438.922028,351.264343 438.835846,353.316467 
	C438.778931,354.696106 438.841309,355.802979 438.876160,357.346619 
	C438.888428,359.532471 438.928223,361.281464 438.850952,363.300018 
	C438.785858,364.715576 438.837830,365.861572 438.860809,367.455566 
	C438.881500,369.700287 438.931152,371.497040 438.911499,373.638184 
	C438.909454,374.917023 438.976715,375.851501 439.020508,377.229858 
	C439.521973,381.304657 437.747375,382.074188 434.404510,382.027832 
	C421.943481,381.854858 409.473999,382.146332 397.017975,381.842896 
	C393.591797,381.759430 389.954651,380.725098 386.845032,379.230774 
	C380.086853,375.983032 372.328583,376.932312 367.676575,382.215118 
	C363.003021,387.522400 362.427887,395.883362 366.341370,401.626343 
	C370.318390,407.462738 377.982758,409.469421 384.988373,407.436066 
	C388.793121,406.331818 393.173828,405.859650 397.032776,406.555359 
	C407.445465,408.432617 417.717621,411.089081 427.993927,413.861633 
	C427.976715,438.167114 428.011169,462.047302 427.772278,486.122986 
	C422.809448,491.019806 418.348938,495.979492 413.388580,500.375122 
	C396.840668,515.039124 380.441437,529.901489 363.339355,543.898682 
	C352.037231,553.148987 339.794373,561.379211 325.292786,565.170105 
	C316.743408,567.405029 314.269196,566.211304 310.033997,558.467590 
	C306.418732,551.857361 302.771301,545.264587 298.490143,537.487000 
	C297.288330,551.313538 295.790070,563.637390 295.229340,576.003662 
	C293.983612,603.477356 295.023865,630.877869 300.177704,657.970032 
	C309.950684,709.343323 330.054321,756.363098 360.318695,799.000671 
	C367.048218,808.481445 374.204651,817.659180 380.841614,827.170288 
	C310.251801,851.919128 261.653839,898.793396 235.421280,968.551636 
	C228.718811,986.375122 225.285950,1005.007385 223.085785,1023.875549 
M434.620514,260.203064 
	C439.085480,257.018616 443.644714,253.955887 447.977692,250.600922 
	C450.321808,248.785858 452.009247,248.571075 454.475006,250.572723 
	C458.975952,254.226456 463.833618,257.440826 469.391022,261.450745 
	C467.394531,255.219391 465.904449,249.821411 463.911469,244.615967 
	C462.625793,241.257797 463.077057,239.267380 466.262390,237.282013 
	C470.841919,234.427643 475.056030,230.986969 480.583435,226.951630 
	C473.621704,226.951630 468.042297,226.792404 462.478088,227.014023 
	C459.364075,227.138046 457.757843,226.335968 456.909729,223.051376 
	C455.481750,217.521057 453.422852,212.153656 451.263977,205.610458 
	C449.275513,211.618851 447.283966,216.528702 446.075775,221.624298 
	C445.037659,226.002747 442.997437,227.471848 438.507904,227.044388 
	C433.462952,226.564072 428.337006,226.933929 421.870636,226.933929 
	C427.757080,231.211075 432.459167,234.799164 437.351990,238.104889 
	C439.546448,239.587524 439.838806,241.057022 439.042816,243.451492 
	C437.222656,248.926758 435.687378,254.496719 433.601624,260.088959 
	C433.658020,260.276550 433.714417,260.464172 433.770813,260.651764 
	C433.824493,260.415375 433.878174,260.179016 434.620514,260.203064 
M175.998459,1002.237915 
	C175.019897,1000.658081 173.737335,999.187988 173.119766,997.477783 
	C171.261230,992.331055 169.661697,987.090759 167.653641,980.945984 
	C165.495422,987.595703 163.560776,993.059937 161.981857,998.625000 
	C161.157318,1001.531189 159.677261,1002.458679 156.712738,1002.335144 
	C151.098663,1002.101196 145.467926,1002.267578 139.844131,1002.267578 
	C143.973831,1006.468079 148.042435,1009.928223 152.564651,1012.628784 
	C156.083923,1014.730469 156.278580,1016.946716 154.980530,1020.369934 
	C153.082748,1025.374878 151.588470,1030.532837 149.509628,1036.886475 
	C156.289429,1031.997192 161.914032,1027.940918 167.692642,1023.773621 
	C173.477295,1027.935303 179.174988,1032.034424 185.835526,1036.826294 
	C183.314209,1028.922485 181.176727,1022.221863 179.049713,1015.554016 
	C184.955627,1011.205139 190.489258,1007.130371 197.109833,1002.255249 
	C189.424744,1002.255249 183.169830,1002.255249 175.998459,1002.237915 
M760.474854,1002.318604 
	C755.486694,1002.300659 750.493713,1002.143799 745.512390,1002.319946 
	C742.780640,1002.416687 741.419678,1001.756714 740.634583,998.832458 
	C739.110840,993.157410 736.977478,987.646057 734.768188,981.092224 
	C732.570679,987.781311 730.603577,993.231934 729.028076,998.793518 
	C728.250366,1001.538940 726.918274,1002.432129 724.131714,1002.335999 
	C718.406860,1002.138550 712.670410,1002.276611 705.419189,1002.276611 
	C710.831726,1006.260681 714.837585,1009.689697 719.301697,1012.349487 
	C723.143066,1014.638000 723.409973,1017.095825 721.899292,1020.892273 
	C719.972534,1025.734131 718.591064,1030.792847 716.633667,1036.805176 
	C723.358765,1032.017822 729.127502,1027.911255 734.872803,1023.821472 
	C740.838135,1028.133423 746.505310,1032.229736 752.950867,1036.888794 
	C750.492676,1029.130737 748.358704,1022.395813 746.179810,1015.519226 
	C751.401672,1011.706177 756.501587,1008.005615 761.569946,1004.262451 
	C762.646729,1003.467285 764.522949,1002.350037 760.474854,1002.318604 
z"/>
<path fill="#0F4C88" opacity="1.000000" stroke="none" 
	d="
M669.741699,1019.157593 
	C658.701782,1013.034790 647.606934,1007.008606 636.633423,1000.768982 
	C613.509338,987.620544 590.447937,974.361755 567.364502,961.141907 
	C566.068665,960.399841 564.805420,959.600769 563.288574,958.207214 
	C561.521362,955.526611 560.411682,952.526550 558.370544,951.617065 
	C554.882141,950.062683 550.809998,949.818542 546.982971,949.024109 
	C532.840942,941.052307 518.682739,933.109192 504.566254,925.092407 
	C499.972168,922.483398 495.487091,919.682556 491.192505,916.429810 
	C493.735870,914.958435 496.035400,914.018005 498.342407,913.096252 
	C525.952759,902.064880 553.541504,890.993408 576.773071,871.981750 
	C578.769165,883.710938 580.665833,894.982605 582.562500,906.254333 
	C582.898376,906.209595 583.234192,906.164795 583.570068,906.120056 
	C585.109863,896.777710 586.649719,887.435303 588.449402,877.960022 
	C589.391663,878.325928 590.537720,878.716675 590.683167,879.340698 
	C591.874207,884.451904 592.790466,889.627441 593.996155,894.734741 
	C594.340759,896.194763 595.026184,897.926453 596.135010,898.785645 
	C599.065674,901.056641 602.464355,902.722290 605.402832,904.984619 
	C610.763367,909.111938 616.131958,912.694031 623.443054,912.216858 
	C625.252014,912.098816 627.805115,913.635193 628.991028,915.192017 
	C645.107910,936.348877 656.314209,960.044067 663.463013,985.528015 
	C666.530884,996.464355 667.706360,1007.931641 669.741699,1019.157593 
z"/>
<path fill="#7B878E" opacity="1.000000" stroke="none" 
	d="
M223.444153,1023.967896 
	C225.285950,1005.007385 228.718811,986.375122 235.421280,968.551636 
	C261.653839,898.793396 310.251801,851.919128 381.120056,827.340210 
	C389.250977,835.631653 396.780609,843.946960 404.220184,852.658386 
	C404.649109,855.954529 405.168091,858.854553 405.687073,861.754639 
	C406.302917,861.677490 406.918762,861.600342 407.534576,861.523254 
	C407.699402,860.000061 407.864197,858.476807 408.381256,856.899414 
	C417.182037,864.254211 425.630554,871.663208 433.886292,879.346680 
	C426.801727,886.881592 426.847260,886.858643 431.269409,895.624023 
	C432.510101,898.083252 433.396881,900.721008 434.445984,903.276917 
	C434.445984,903.276917 434.351318,903.380554 433.908325,903.282898 
	C431.516541,901.838318 428.982300,900.892151 427.732697,899.066650 
	C424.446472,894.266174 414.085419,891.214233 410.326233,895.448608 
	C407.464020,898.672668 404.454254,898.368225 401.315277,899.003906 
	C396.334991,900.012451 392.319824,904.022156 393.044220,909.059692 
	C393.826538,914.500183 395.855438,919.761414 397.340576,925.100830 
	C392.268127,928.147339 387.195648,931.193848 381.611816,934.179688 
	C380.955170,933.984131 380.809845,933.849121 380.564362,933.414551 
	C379.327271,931.992004 377.294922,930.930542 377.212799,929.735046 
	C376.903534,925.232422 373.287537,924.038635 370.549927,921.714294 
	C364.708435,916.754517 356.760803,914.460999 352.542633,907.418396 
	C352.083038,906.651123 350.583435,906.506775 349.566254,906.073486 
	C349.131744,906.621277 348.697266,907.169006 348.262756,907.716736 
	C353.847534,913.217896 359.432343,918.719055 365.017120,924.220215 
	C364.751312,924.547302 364.485504,924.874451 364.219696,925.201599 
	C359.886505,922.381470 355.137146,920.025513 351.333466,916.614868 
	C347.276154,912.976624 344.177185,908.283875 340.509399,904.186096 
	C339.681183,903.260803 338.295685,902.682861 337.057037,902.300232 
	C326.537262,899.051025 320.396515,891.827698 317.869995,881.315796 
	C317.138763,878.273499 316.593994,875.186340 315.834991,871.493408 
	C314.177246,872.721130 313.325867,873.217529 312.636810,873.882324 
	C302.970642,883.207458 292.788483,892.068970 283.800140,902.009277 
	C269.451019,917.878052 258.577301,936.165100 249.842545,955.680115 
	C249.470108,956.512207 250.670639,958.048462 250.865723,959.495056 
	C249.219940,960.668274 247.048584,961.320435 246.601593,962.583130 
	C243.385849,971.666443 240.461594,980.855835 237.641449,990.071716 
	C237.385696,990.907471 238.513031,992.166443 238.771576,993.491577 
	C237.697617,994.852722 236.307739,995.854248 236.091461,997.065369 
	C234.775482,1004.434021 233.726639,1011.850403 232.588654,1019.250854 
	C229.659943,1020.853943 226.731247,1022.457031 223.444153,1023.967896 
z"/>
<path fill="#114C87" opacity="1.000000" stroke="none" 
	d="
M434.785492,903.240051 
	C433.396881,900.721008 432.510101,898.083252 431.269409,895.624023 
	C426.847260,886.858643 426.801727,886.881592 434.177795,879.489746 
	C439.370148,882.760986 443.972107,886.329956 448.860962,889.449219 
	C450.079163,890.226440 452.777466,890.268250 453.856049,889.433838 
	C464.221222,881.414429 474.789886,873.582764 484.497498,864.809082 
	C495.078705,855.246033 504.808167,844.740540 515.310669,834.741577 
	C528.457092,839.996765 541.310669,844.909119 553.890320,850.443970 
	C558.576233,852.505737 562.621765,856.022888 566.583496,858.969360 
	C561.930481,860.254517 557.653442,861.446716 552.015564,863.018250 
	C560.190002,865.342041 566.817688,867.226196 573.201050,869.383301 
	C555.010742,877.123901 537.214844,884.983337 519.071411,891.935852 
	C504.361267,897.572693 489.233459,902.119690 474.290894,907.150085 
	C467.582642,903.581970 460.944489,899.869507 454.114075,896.553040 
	C452.519012,895.778564 450.001068,895.719788 448.375610,896.419250 
	C443.827698,898.376099 439.524658,900.901917 434.785492,903.240051 
z"/>
<path fill="#FAFAFA" opacity="1.000000" stroke="none" 
	d="
M238.998047,993.228882 
	C238.513031,992.166443 237.385696,990.907471 237.641449,990.071716 
	C240.461594,980.855835 243.385849,971.666443 246.601593,962.583130 
	C247.048584,961.320435 249.219940,960.668274 251.292114,959.453247 
	C253.315033,959.048828 254.661560,959.039734 255.959442,958.783813 
	C296.320312,950.827881 336.676453,942.847900 377.535370,934.942200 
	C378.711365,935.053711 379.385254,935.094604 380.059143,935.135498 
	C360.576263,946.321716 341.098450,957.516724 321.601013,968.677429 
	C320.032288,969.575439 318.328735,970.237854 316.109314,971.074829 
	C315.275513,971.322571 315.020264,971.505310 314.765015,971.688110 
	C314.765015,971.688110 315.009338,971.976624 314.495850,971.817810 
	C288.987579,978.848938 263.992828,986.038940 238.998047,993.228882 
z"/>
<path fill="#79858D" opacity="1.000000" stroke="none" 
	d="
M669.963379,1019.424561 
	C667.706360,1007.931641 666.530884,996.464355 663.463013,985.528015 
	C656.314209,960.044067 645.107910,936.348877 628.991028,915.192017 
	C627.805115,913.635193 625.252014,912.098816 623.443054,912.216858 
	C616.131958,912.694031 610.763367,909.111938 605.402832,904.984619 
	C602.464355,902.722290 599.065674,901.056641 596.135010,898.785645 
	C595.026184,897.926453 594.340759,896.194763 593.996155,894.734741 
	C592.790466,889.627441 591.874207,884.451904 590.683167,879.340698 
	C590.537720,878.716675 589.391663,878.325928 588.397461,877.570435 
	C588.485229,871.946167 590.379333,867.944031 596.649536,867.939819 
	C608.415894,880.139221 621.152405,891.556091 631.752686,904.696228 
	C656.017761,934.775330 670.890808,969.358704 677.052856,1007.582153 
	C677.898376,1012.826965 678.404663,1018.126404 679.084595,1023.874268 
	C676.129089,1022.795715 673.157104,1021.243591 669.963379,1019.424561 
z"/>
<path fill="#F4F4F5" opacity="1.000000" stroke="none" 
	d="
M474.446533,907.425537 
	C489.233459,902.119690 504.361267,897.572693 519.071411,891.935852 
	C537.214844,884.983337 555.010742,877.123901 573.504150,869.377441 
	C574.925537,869.907104 575.799622,870.715698 576.673706,871.524292 
	C553.541504,890.993408 525.952759,902.064880 498.342407,913.096252 
	C496.035400,914.018005 493.735870,914.958435 491.097748,916.099731 
	C485.375793,913.439758 479.988983,910.570312 474.446533,907.425537 
z"/>
<path fill="#164D87" opacity="1.000000" stroke="none" 
	d="
M238.771576,993.491577 
	C263.992828,986.038940 288.987579,978.848938 314.378967,971.668823 
	C308.793335,975.401550 302.914307,979.303894 296.810211,982.814880 
	C275.653198,994.983704 254.417908,1007.016418 232.900543,1019.175903 
	C233.726639,1011.850403 234.775482,1004.434021 236.091461,997.065369 
	C236.307739,995.854248 237.697617,994.852722 238.771576,993.491577 
z"/>
<path fill="#114C87" opacity="1.000000" stroke="none" 
	d="
M397.664795,925.021484 
	C395.855438,919.761414 393.826538,914.500183 393.044220,909.059692 
	C392.319824,904.022156 396.334991,900.012451 401.315277,899.003906 
	C404.454254,898.368225 407.464020,898.672668 410.326233,895.448608 
	C414.085419,891.214233 424.446472,894.266174 427.732697,899.066650 
	C428.982300,900.892151 431.516541,901.838318 433.847290,903.317627 
	C429.366150,906.527039 424.578674,909.732666 419.621796,912.650513 
	C412.475372,916.857361 405.205933,920.855164 397.664795,925.021484 
z"/>
<path fill="#79858D" opacity="1.000000" stroke="none" 
	d="
M547.178833,949.300293 
	C550.809998,949.818542 554.882141,950.062683 558.370544,951.617065 
	C560.411682,952.526550 561.521362,955.526611 563.034363,958.011108 
	C557.804016,955.482849 552.589417,952.529663 547.178833,949.300293 
z"/>
<path fill="#7B878E" opacity="1.000000" stroke="none" 
	d="
M380.267609,935.198608 
	C379.385254,935.094604 378.711365,935.053711 377.752136,934.697144 
	C378.532715,934.159058 379.598633,933.936584 380.664551,933.714111 
	C380.809845,933.849121 380.955170,933.984131 381.306824,934.336792 
	C381.167450,934.790222 380.821747,935.025940 380.267609,935.198608 
z"/>
<path fill="#164D87" opacity="1.000000" stroke="none" 
	d="
M315.001160,971.787231 
	C315.020264,971.505310 315.275513,971.322571 315.773590,971.222351 
	C315.756714,971.498718 315.497040,971.692566 315.001160,971.787231 
z"/>
<path fill="#A42331" opacity="1.000000" stroke="none" 
	d="
M514.908936,834.645874 
	C504.808167,844.740540 495.078705,855.246033 484.497498,864.809082 
	C474.789886,873.582764 464.221222,881.414429 453.856049,889.433838 
	C452.777466,890.268250 450.079163,890.226440 448.860962,889.449219 
	C443.972107,886.329956 439.370148,882.760986 434.370605,879.215210 
	C425.630554,871.663208 417.182037,864.254211 408.367249,856.914307 
	C408.001007,856.983459 408.038757,856.989746 408.125122,856.687744 
	C407.843933,855.913879 407.476410,855.441956 406.982025,854.705383 
	C406.006866,853.714539 405.158539,852.988464 404.310242,852.262329 
	C396.780609,843.946960 389.250977,835.631653 381.442932,827.146362 
	C374.204651,817.659180 367.048218,808.481445 360.318695,799.000671 
	C330.054321,756.363098 309.950684,709.343323 300.177704,657.970032 
	C295.023865,630.877869 293.983612,603.477356 295.229340,576.003662 
	C295.790070,563.637390 297.288330,551.313538 298.490143,537.487000 
	C302.771301,545.264587 306.418732,551.857361 310.033997,558.467590 
	C314.269196,566.211304 316.743408,567.405029 325.292786,565.170105 
	C339.794373,561.379211 352.037231,553.148987 363.339355,543.898682 
	C380.441437,529.901489 396.840668,515.039124 413.388580,500.375122 
	C418.348938,495.979492 422.809448,491.019806 428.086273,486.001160 
	C434.673340,480.651733 441.648438,478.156036 449.861694,477.781097 
	C451.218689,477.818085 452.125397,477.783325 453.454315,477.795044 
	C457.826202,478.805573 461.864929,479.508453 465.697998,480.814728 
	C468.878296,481.898529 471.816437,483.692932 474.861847,485.172546 
	C475.403687,486.162994 475.749268,487.349976 476.515869,488.115326 
	C500.342285,511.902283 524.507080,535.349915 553.065491,553.535706 
	C560.420715,558.219482 568.585510,561.867493 576.771667,564.945190 
	C585.098938,568.075989 587.967163,566.459717 592.224792,558.842712 
	C595.938171,552.199463 599.597778,545.526184 603.623169,538.247681 
	C619.142212,647.111084 590.644592,742.596191 521.018311,826.978760 
	C518.782654,829.919373 516.845825,832.282654 514.908936,834.645874 
M505.411957,831.763611 
	C505.703796,831.577881 505.843567,831.312134 506.323212,830.718628 
	C506.594513,830.253601 506.865814,829.788513 507.757568,829.026367 
	C510.358643,825.950562 512.959717,822.874817 515.721985,819.617188 
	C515.721985,819.617188 515.831482,819.400269 516.278442,819.136536 
	C521.872314,811.773621 527.466125,804.410767 533.000000,797.001831 
	C533.000000,797.001831 533.047852,797.060486 533.648315,796.819702 
	C534.431396,795.546143 535.214478,794.272583 536.000000,793.000000 
	C536.000000,793.000000 535.999023,792.996521 536.447510,792.836853 
	C536.779785,792.648926 536.882629,792.374878 537.178528,791.458801 
	C583.847473,723.975464 604.612915,649.510864 598.061096,566.170105 
	C593.971985,571.813416 589.528931,575.078918 583.888123,574.176697 
	C576.949585,573.066956 569.673401,571.905212 563.463196,568.878296 
	C552.370178,563.471436 541.953613,556.672180 531.302917,550.372742 
	C530.571045,549.939819 530.243591,548.823364 529.578918,547.386536 
	C525.415771,544.190369 521.252686,540.994141 516.910278,537.328918 
	C516.616028,537.187134 516.321777,537.045410 515.746155,536.301270 
	C511.142242,532.357361 506.538361,528.413513 501.745270,524.264343 
	C501.745270,524.264343 501.501129,524.129150 501.231567,523.713379 
	C500.837128,523.437378 500.442688,523.161438 499.894470,522.424744 
	C499.701508,522.127625 499.427917,521.975708 498.794098,521.358093 
	C495.911835,518.812073 493.029541,516.266052 489.873383,513.121704 
	C483.368835,506.737335 476.864258,500.352997 470.359711,493.968628 
	C465.029022,488.736389 458.731293,485.928223 450.370514,486.229431 
	C443.411469,487.028442 437.274841,489.481415 432.031616,494.356903 
	C415.339630,509.878296 398.777191,525.555664 381.654846,540.592163 
	C368.766785,551.910156 354.800323,561.942261 339.167267,569.270569 
	C331.488037,572.870300 323.478027,576.374268 314.728119,573.914307 
	C311.143768,572.906616 307.976990,570.413452 303.847534,568.177734 
	C303.847534,583.305603 303.652313,598.037842 303.891937,612.763000 
	C304.280792,636.658203 308.391754,660.056519 314.598114,683.051941 
	C324.258453,718.844910 339.581116,752.154785 359.825043,783.195862 
	C380.330719,814.638306 405.157715,842.314148 433.492798,866.844299 
	C438.829681,871.464478 444.953461,875.175659 450.954193,879.795532 
	C451.509216,879.835999 452.249695,880.130615 452.592590,879.880371 
	C469.116913,867.823059 484.448669,854.428284 498.667908,838.842590 
	C500.451599,836.898804 502.235291,834.955017 503.998779,833.000000 
	C503.998779,833.000000 504.009918,833.020752 504.512726,832.876221 
	C504.652405,832.576660 504.792053,832.277161 505.000122,831.978455 
	C505.000122,831.978455 504.969299,831.917419 505.411957,831.763611 
z"/>
<path fill="#A42030" opacity="1.000000" stroke="none" 
	d="
M463.474823,369.445496 
	C463.687042,373.391937 463.899261,377.338379 464.147949,381.963257 
	C466.112366,381.963257 467.882416,381.963257 469.652466,381.963257 
	C480.308746,381.963318 490.965057,381.965698 501.621338,381.962585 
	C507.027466,381.960999 512.129089,382.118134 517.241150,378.790039 
	C523.107544,374.970947 530.782043,377.426941 535.543579,383.094452 
	C540.004578,388.404236 540.144165,396.111389 535.887756,402.093048 
	C532.091492,407.428070 524.692383,409.165924 517.975464,407.540802 
	C513.500610,406.458130 508.491547,406.176483 503.973541,406.970367 
	C494.356415,408.660278 484.903442,411.284637 474.686035,413.695312 
	C458.674408,413.721832 443.359985,413.579071 428.045563,413.436310 
	C417.717621,411.089081 407.445465,408.432617 397.032776,406.555359 
	C393.173828,405.859650 388.793121,406.331818 384.988373,407.436066 
	C377.982758,409.469421 370.318390,407.462738 366.341370,401.626343 
	C362.427887,395.883362 363.003021,387.522400 367.676575,382.215118 
	C372.328583,376.932312 380.086853,375.983032 386.845032,379.230774 
	C389.954651,380.725098 393.591797,381.759430 397.017975,381.842896 
	C409.473999,382.146332 421.943481,381.854858 434.404510,382.027832 
	C437.747375,382.074188 439.521973,381.304657 439.390808,377.218750 
	C447.681305,374.324341 455.578064,371.884918 463.474823,369.445496 
z"/>
<path fill="#FAFAF9" opacity="1.000000" stroke="none" 
	d="
M427.993927,413.861633 
	C443.359985,413.579071 458.674408,413.721832 474.379028,413.935974 
	C474.795868,437.400940 474.822510,460.794525 474.855469,484.680328 
	C471.816437,483.692932 468.878296,481.898529 465.697998,480.814728 
	C461.864929,479.508453 457.826202,478.805573 453.428406,477.351135 
	C452.965912,459.538635 452.952820,442.216461 452.934174,424.894318 
	C452.932892,423.729736 453.068970,422.519623 452.789307,421.420166 
	C452.652252,420.881287 451.751709,420.346466 451.109161,420.203552 
	C450.768951,420.127930 449.928009,420.845612 449.857300,421.291443 
	C449.650848,422.593292 449.689545,423.938324 449.682312,425.266724 
	C449.586975,442.747589 449.500305,460.228455 449.411438,477.709351 
	C441.648438,478.156036 434.673340,480.651733 428.359589,485.805603 
	C428.011169,462.047302 427.976715,438.167114 427.993927,413.861633 
z"/>
<path fill="#A41F2F" opacity="1.000000" stroke="none" 
	d="
M439.102783,343.243713 
	C439.054291,342.082458 438.855042,340.904358 438.983154,339.762939 
	C439.566101,334.568878 438.131714,330.639984 434.183136,326.652069 
	C425.330261,317.711090 426.240051,303.724854 435.379669,294.990326 
	C444.418823,286.351776 458.974945,286.547546 467.755737,295.425781 
	C476.336792,304.102051 476.474182,318.406311 468.021790,327.415161 
	C465.910034,329.665955 462.909821,331.384216 463.371704,335.694214 
	C455.011475,338.518677 447.057129,340.881195 439.102783,343.243713 
z"/>
<path fill="#F2B73E" opacity="1.000000" stroke="none" 
	d="
M176.456696,1002.246582 
	C183.169830,1002.255249 189.424744,1002.255249 197.109833,1002.255249 
	C190.489258,1007.130371 184.955627,1011.205139 179.049713,1015.554016 
	C181.176727,1022.221863 183.314209,1028.922485 185.835526,1036.826294 
	C179.174988,1032.034424 173.477295,1027.935303 167.692642,1023.773621 
	C161.914032,1027.940918 156.289429,1031.997192 149.509628,1036.886475 
	C151.588470,1030.532837 153.082748,1025.374878 154.980530,1020.369934 
	C156.278580,1016.946716 156.083923,1014.730469 152.564651,1012.628784 
	C148.042435,1009.928223 143.973831,1006.468079 139.844131,1002.267578 
	C145.467926,1002.267578 151.098663,1002.101196 156.712738,1002.335144 
	C159.677261,1002.458679 161.157318,1001.531189 161.981857,998.625000 
	C163.560776,993.059937 165.495422,987.595703 167.653641,980.945984 
	C169.661697,987.090759 171.261230,992.331055 173.119766,997.477783 
	C173.737335,999.187988 175.019897,1000.658081 176.456696,1002.246582 
z"/>
<path fill="#F0B63E" opacity="1.000000" stroke="none" 
	d="
M760.842651,1002.291626 
	C764.522949,1002.350037 762.646729,1003.467285 761.569946,1004.262451 
	C756.501587,1008.005615 751.401672,1011.706177 746.179810,1015.519226 
	C748.358704,1022.395813 750.492676,1029.130737 752.950867,1036.888794 
	C746.505310,1032.229736 740.838135,1028.133423 734.872803,1023.821472 
	C729.127502,1027.911255 723.358765,1032.017822 716.633667,1036.805176 
	C718.591064,1030.792847 719.972534,1025.734131 721.899292,1020.892273 
	C723.409973,1017.095825 723.143066,1014.638000 719.301697,1012.349487 
	C714.837585,1009.689697 710.831726,1006.260681 705.419189,1002.276611 
	C712.670410,1002.276611 718.406860,1002.138550 724.131714,1002.335999 
	C726.918274,1002.432129 728.250366,1001.538940 729.028076,998.793518 
	C730.603577,993.231934 732.570679,987.781311 734.768188,981.092224 
	C736.977478,987.646057 739.110840,993.157410 740.634583,998.832458 
	C741.419678,1001.756714 742.780640,1002.416687 745.512390,1002.319946 
	C750.493713,1002.143799 755.486694,1002.300659 760.842651,1002.291626 
z"/>
<path fill="#F5B93F" opacity="1.000000" stroke="none" 
	d="
M434.036407,260.028229 
	C435.687378,254.496719 437.222656,248.926758 439.042816,243.451492 
	C439.838806,241.057022 439.546448,239.587524 437.351990,238.104889 
	C432.459167,234.799164 427.757080,231.211075 421.870636,226.933929 
	C428.337006,226.933929 433.462952,226.564072 438.507904,227.044388 
	C442.997437,227.471848 445.037659,226.002747 446.075775,221.624298 
	C447.283966,216.528702 449.275513,211.618851 451.263977,205.610458 
	C453.422852,212.153656 455.481750,217.521057 456.909729,223.051376 
	C457.757843,226.335968 459.364075,227.138046 462.478088,227.014023 
	C468.042297,226.792404 473.621704,226.951630 480.583435,226.951630 
	C475.056030,230.986969 470.841919,234.427643 466.262390,237.282013 
	C463.077057,239.267380 462.625793,241.257797 463.911469,244.615967 
	C465.904449,249.821411 467.394531,255.219391 469.391022,261.450745 
	C463.833618,257.440826 458.975952,254.226456 454.475006,250.572723 
	C452.009247,248.571075 450.321808,248.785858 447.977692,250.600922 
	C443.644714,253.955887 439.085480,257.018616 434.302521,260.093994 
	C433.984528,259.984924 434.036407,260.028229 434.036407,260.028229 
z"/>
<path fill="#F3B941" opacity="1.000000" stroke="none" 
	d="
M576.773071,871.981750 
	C575.799622,870.715698 574.925537,869.907104 573.748413,869.104370 
	C566.817688,867.226196 560.190002,865.342041 552.015564,863.018250 
	C557.653442,861.446716 561.930481,860.254517 566.963928,859.005554 
	C569.617188,858.354919 571.689697,858.058960 573.357300,857.076050 
	C574.776611,856.239441 575.729553,854.611694 576.888855,853.333923 
	C578.768616,842.566406 580.648376,831.798889 582.528137,821.031372 
	C582.807922,820.981628 583.087708,820.931885 583.367493,820.882080 
	C584.221985,825.407166 585.140564,829.921326 585.915466,834.459961 
	C587.004211,840.835815 587.844482,847.258606 589.128784,853.592834 
	C589.398254,854.921875 590.929382,856.604492 592.228455,857.012878 
	C598.807068,859.080627 605.500977,860.781860 612.244263,863.441589 
	C607.272034,864.801392 602.299866,866.161194 596.988586,867.730347 
	C590.379333,867.944031 588.485229,871.946167 588.137573,877.703369 
	C586.649719,887.435303 585.109863,896.777710 583.570068,906.120056 
	C583.234192,906.164795 582.898376,906.209595 582.562500,906.254333 
	C580.665833,894.982605 578.769165,883.710938 576.773071,871.981750 
z"/>
<path fill="#79858D" opacity="1.000000" stroke="none" 
	d="
M576.534424,853.272095 
	C575.729553,854.611694 574.776611,856.239441 573.357300,857.076050 
	C571.689697,858.058960 569.617188,858.354919 567.339844,858.912598 
	C562.621765,856.022888 558.576233,852.505737 553.890320,850.443970 
	C541.310669,844.909119 528.457092,839.996765 515.310669,834.741577 
	C516.845825,832.282654 518.782654,829.919373 520.934204,827.299927 
	C540.569397,833.501343 558.928223,842.191650 576.534424,853.272095 
z"/>
<path fill="#A52633" opacity="1.000000" stroke="none" 
	d="
M438.968048,363.030487 
	C438.928223,361.281464 438.888428,359.532471 439.260315,357.337921 
	C447.701508,354.472260 455.730988,352.052155 463.760498,349.632050 
	C463.818420,351.420319 463.876373,353.208588 463.490936,355.457214 
	C455.021057,358.288513 446.994568,360.659485 438.968048,363.030487 
z"/>
<path fill="#A52633" opacity="1.000000" stroke="none" 
	d="
M438.980835,373.293823 
	C438.931152,371.497040 438.881500,369.700287 439.262146,367.455322 
	C447.729797,364.578461 455.767212,362.149750 463.804596,359.721069 
	C463.848175,361.546478 463.891724,363.371887 463.494629,365.642609 
	C455.029572,368.489899 447.005188,370.891876 438.980835,373.293823 
z"/>
<path fill="#A52633" opacity="1.000000" stroke="none" 
	d="
M438.955139,353.043640 
	C438.922028,351.264343 438.888947,349.485046 439.280823,347.270630 
	C447.718994,344.438568 455.732178,342.041687 463.745361,339.644775 
	C463.802521,341.219971 463.859711,342.795197 463.528748,344.939423 
	C455.078766,348.020203 447.016968,350.531921 438.955139,353.043640 
z"/>
<path fill="#817F82" opacity="1.000000" stroke="none" 
	d="
M463.863831,359.346252 
	C455.767212,362.149750 447.729797,364.578461 439.291077,367.007385 
	C438.837830,365.861572 438.785858,364.715576 438.850952,363.300018 
	C446.994568,360.659485 455.021057,358.288513 463.438171,355.900879 
	C463.860199,356.913300 463.891632,357.942352 463.863831,359.346252 
z"/>
<path fill="#817F82" opacity="1.000000" stroke="none" 
	d="
M438.835846,353.316467 
	C447.016968,350.531921 455.078766,348.020203 463.470581,345.410004 
	C463.829620,346.518158 463.858673,347.724792 463.824097,349.281738 
	C455.730988,352.052155 447.701508,354.472260 439.287842,356.901123 
	C438.841309,355.802979 438.778931,354.696106 438.835846,353.316467 
z"/>
<path fill="#817F82" opacity="1.000000" stroke="none" 
	d="
M438.911499,373.638184 
	C447.005188,370.891876 455.029572,368.489899 463.428375,366.094238 
	C463.800354,367.020782 463.797882,367.941010 463.635132,369.153381 
	C455.578064,371.884918 447.681305,374.324341 439.414276,376.774902 
	C438.976715,375.851501 438.909454,374.917023 438.911499,373.638184 
z"/>
<path fill="#817F82" opacity="1.000000" stroke="none" 
	d="
M463.812866,339.292908 
	C455.732178,342.041687 447.718994,344.438568 439.325806,346.827393 
	C438.948608,345.861450 438.951416,344.903625 439.028503,343.594757 
	C447.057129,340.881195 455.011475,338.518677 463.321594,336.098541 
	C463.745087,337.007629 463.812744,337.974365 463.812866,339.292908 
z"/>
<path fill="#F5B93F" opacity="1.000000" stroke="none" 
	d="
M433.958191,259.963776 
	C433.878174,260.179016 433.824493,260.415375 433.770813,260.651764 
	C433.714417,260.464172 433.658020,260.276550 433.819031,260.058594 
	C434.036407,260.028229 433.984528,259.984924 433.958191,259.963776 
z"/>
<path fill="#104D88" opacity="1.000000" stroke="none" 
	d="
M380.564362,933.414551 
	C379.598633,933.936584 378.532715,934.159058 377.250061,934.626587 
	C336.676453,942.847900 296.320312,950.827881 255.959442,958.783813 
	C254.661560,959.039734 253.315033,959.048828 251.564789,959.214844 
	C250.670639,958.048462 249.470108,956.512207 249.842545,955.680115 
	C258.577301,936.165100 269.451019,917.878052 283.800140,902.009277 
	C292.788483,892.068970 302.970642,883.207458 312.636810,873.882324 
	C313.325867,873.217529 314.177246,872.721130 315.834991,871.493408 
	C316.593994,875.186340 317.138763,878.273499 317.869995,881.315796 
	C320.396515,891.827698 326.537262,899.051025 337.057037,902.300232 
	C338.295685,902.682861 339.681183,903.260803 340.509399,904.186096 
	C344.177185,908.283875 347.276154,912.976624 351.333466,916.614868 
	C355.137146,920.025513 359.886505,922.381470 364.219696,925.201599 
	C364.485504,924.874451 364.751312,924.547302 365.017120,924.220215 
	C359.432343,918.719055 353.847534,913.217896 348.262756,907.716736 
	C348.697266,907.169006 349.131744,906.621277 349.566254,906.073486 
	C350.583435,906.506775 352.083038,906.651123 352.542633,907.418396 
	C356.760803,914.460999 364.708435,916.754517 370.549927,921.714294 
	C373.287537,924.038635 376.903534,925.232422 377.212799,929.735046 
	C377.294922,930.930542 379.327271,931.992004 380.564362,933.414551 
z"/>
<path fill="#164D87" opacity="1.000000" stroke="none" 
	d="
M404.220184,852.658386 
	C405.158539,852.988464 406.006866,853.714539 406.963715,855.017944 
	C407.394440,856.059998 407.716583,856.524902 408.038757,856.989746 
	C408.038757,856.989746 408.001007,856.983459 408.015015,856.968506 
	C407.864197,858.476807 407.699402,860.000061 407.534576,861.523254 
	C406.918762,861.600342 406.302917,861.677490 405.687073,861.754639 
	C405.168091,858.854553 404.649109,855.954529 404.220184,852.658386 
z"/>
<path fill="#7D888E" opacity="1.000000" stroke="none" 
	d="
M450.714111,879.306335 
	C444.953461,875.175659 438.829681,871.464478 433.492798,866.844299 
	C405.157715,842.314148 380.330719,814.638306 359.825043,783.195862 
	C339.581116,752.154785 324.258453,718.844910 314.598114,683.051941 
	C308.391754,660.056519 304.280792,636.658203 303.891937,612.763000 
	C303.652313,598.037842 303.847534,583.305603 303.847534,568.177734 
	C307.976990,570.413452 311.143768,572.906616 314.728119,573.914307 
	C323.478027,576.374268 331.488037,572.870300 339.167267,569.270569 
	C354.800323,561.942261 368.766785,551.910156 381.654846,540.592163 
	C398.777191,525.555664 415.339630,509.878296 432.031616,494.356903 
	C437.274841,489.481415 443.411469,487.028442 450.788666,486.714874 
	C451.161194,536.401062 451.115570,585.601868 450.768311,634.672424 
	C439.511841,616.860657 428.598938,599.152710 417.538513,581.537476 
	C416.413696,579.746033 414.451904,577.287415 412.793457,577.219543 
	C402.871826,576.814026 392.925262,577.018677 382.203125,577.018677 
	C383.366974,578.869202 384.119720,580.105286 384.909943,581.316833 
	C400.542816,605.283936 416.197784,629.236633 431.771362,653.242188 
	C432.686127,654.652222 433.929657,657.048584 433.363373,658.028625 
	C429.111053,665.388123 424.442474,672.507202 419.291077,680.673096 
	C416.504272,671.804688 414.218567,664.177185 411.643219,656.648804 
	C411.157990,655.230347 409.551636,653.197815 408.407227,653.160828 
	C399.467163,652.871643 390.513580,653.000732 380.919861,653.000732 
	C381.694427,655.353943 382.231781,657.065308 382.819397,658.759277 
	C387.997742,673.687256 393.010132,688.676575 398.474396,703.499268 
	C400.149841,708.044250 399.808624,711.529724 397.087433,715.519287 
	C391.596436,723.569519 386.585571,731.947205 380.862793,741.003113 
	C390.410645,741.003113 399.000458,741.105347 407.585266,740.943176 
	C410.294769,740.892029 411.736206,741.563293 412.671417,744.318970 
	C420.097290,766.199646 427.835541,787.975586 435.113617,809.904480 
	C436.884705,815.240723 439.218506,818.203552 445.219879,817.069641 
	C447.135406,816.707764 449.198822,817.128723 451.193207,817.647827 
	C451.189026,832.883057 451.228058,847.662048 451.162048,862.440613 
	C451.136932,868.063110 450.870544,873.684448 450.714111,879.306335 
M346.097717,660.362854 
	C339.703644,645.087952 333.309570,629.813049 326.915497,614.538147 
	C326.248749,614.786133 325.582001,615.034119 324.915253,615.282043 
	C331.067566,636.632080 337.219910,657.982056 343.372223,679.332092 
	C343.009277,679.495667 342.646362,679.659241 342.283447,679.822815 
	C337.435974,676.377625 332.588501,672.932373 326.645050,668.708252 
	C341.571045,702.904968 355.887329,735.704834 370.203613,768.504639 
	C370.548187,768.377441 370.892792,768.250244 371.237396,768.123047 
	C364.378174,745.669067 357.518951,723.215149 350.310699,699.618652 
	C355.831055,702.326172 360.171112,704.454712 365.661682,707.147583 
	C358.922974,691.015198 352.666504,676.037231 346.097717,660.362854 
z"/>
<path fill="#FDFCFC" opacity="1.000000" stroke="none" 
	d="
M451.069946,634.802612 
	C451.115570,585.601868 451.161194,536.401062 451.183990,486.754822 
	C458.731293,485.928223 465.029022,488.736389 470.359711,493.968628 
	C476.864258,500.352997 483.368835,506.737335 489.888947,513.722351 
	C489.544952,520.968140 494.564453,521.162598 499.073730,521.968872 
	C499.427917,521.975708 499.701508,522.127625 499.994812,522.987427 
	C500.563843,523.743164 501.032471,523.936157 501.501129,524.129150 
	C501.501129,524.129150 501.745270,524.264343 501.583435,524.742554 
	C501.407104,526.168518 501.235321,527.915588 501.401062,527.948181 
	C506.545532,528.961060 505.829529,532.784729 505.350464,535.418030 
	C508.633026,536.383057 511.393707,537.273926 514.206482,537.947266 
	C514.701843,538.065857 515.414978,537.274658 516.027527,536.903625 
	C516.321777,537.045410 516.616028,537.187134 516.943726,537.937256 
	C516.977173,540.612244 516.977173,542.678894 516.977173,544.952515 
	C519.741089,544.547424 521.447266,544.297424 522.659790,544.119690 
	C523.554077,546.369568 524.274597,548.182312 524.710327,550.032959 
	C524.102112,550.377380 523.778748,550.683960 523.455383,550.990540 
	C523.666382,551.173584 523.877380,551.356567 524.088379,551.539612 
	C524.393860,551.028015 524.699341,550.516479 525.348206,550.001648 
	C527.036987,549.340515 528.382507,548.682617 529.728027,548.024780 
	C530.243591,548.823364 530.571045,549.939819 531.302917,550.372742 
	C541.953613,556.672180 552.370178,563.471436 563.463196,568.878296 
	C569.673401,571.905212 576.949585,573.066956 583.888123,574.176697 
	C589.528931,575.078918 593.971985,571.813416 598.061096,566.170105 
	C604.612915,649.510864 583.847473,723.975464 536.781616,791.848450 
	C536.158936,792.441406 536.030334,792.694214 535.999023,792.996521 
	C535.999023,792.996521 536.000000,793.000000 535.612610,793.008179 
	C534.499451,794.364380 533.773621,795.712463 533.047852,797.060486 
	C533.047852,797.060486 533.000000,797.001831 532.666138,796.969971 
	C531.253357,797.138306 529.920898,797.012695 529.151611,797.611084 
	C527.818237,798.648193 527.011292,800.366516 525.670898,801.389526 
	C520.634399,805.233765 519.595215,811.867065 515.224121,816.186768 
	C514.791077,816.614807 515.599365,818.299072 515.831482,819.400269 
	C515.831482,819.400269 515.721985,819.617188 515.292603,819.548340 
	C513.117126,819.825806 511.358124,820.515503 509.627716,820.449951 
	C505.530548,820.294678 503.978424,822.131042 505.508240,825.789856 
	C506.008270,826.985657 506.591736,828.146606 507.137085,829.323486 
	C506.865814,829.788513 506.594513,830.253601 505.878204,830.944458 
	C505.185638,831.361694 505.031006,831.610718 504.969299,831.917419 
	C504.969299,831.917419 505.000122,831.978455 504.752014,832.092163 
	C504.237488,832.415771 504.072815,832.687378 504.009918,833.020752 
	C504.009918,833.020752 503.998779,833.000000 503.570984,832.998535 
	C496.271179,833.045776 496.007812,833.363525 498.065155,839.123657 
	C484.448669,854.428284 469.116913,867.823059 452.592590,879.880371 
	C452.249695,880.130615 451.509216,879.835999 450.834167,879.550903 
	C450.870544,873.684448 451.136932,868.063110 451.162048,862.440613 
	C451.228058,847.662048 451.189026,832.883057 451.641846,817.583252 
	C456.573242,817.062256 461.054657,817.062256 465.600800,817.062256 
	C474.462555,791.515564 483.211182,766.295044 492.080627,740.726196 
	C501.881653,740.726196 511.403381,740.726196 521.613464,740.726196 
	C515.790161,731.697876 510.554657,723.230896 504.924133,715.035278 
	C502.869843,712.045105 502.732086,709.500244 503.903198,706.241638 
	C508.170776,694.367126 512.230164,682.417603 516.347595,670.489380 
	C518.309998,664.804077 520.226501,659.102905 522.304626,652.995178 
	C513.828491,652.995178 506.160645,653.295654 498.531799,652.880005 
	C494.109436,652.638977 492.095886,653.880676 490.961548,658.307678 
	C489.005615,665.941284 486.281281,673.378052 483.607788,681.747681 
	C478.704681,674.177002 474.441193,667.266602 469.815063,660.608093 
	C467.898987,657.850281 467.927948,655.956604 469.822083,653.129456 
	C483.338867,632.954285 496.649872,612.641235 510.013916,592.363831 
	C513.257996,587.441650 516.455750,582.489014 520.031677,577.002869 
	C510.004730,577.002869 500.857178,577.132996 491.717194,576.927002 
	C488.809540,576.861511 487.262085,577.888794 485.797760,580.297913 
	C479.057861,591.386780 472.193176,602.401794 465.231201,613.352966 
	C460.635406,620.582092 455.798767,627.658081 451.069946,634.802612 
M560.030640,679.036560 
	C560.030640,679.036560 559.862488,678.876099 559.830994,678.070435 
	C560.011780,677.092163 560.110168,676.090088 560.385437,675.139221 
	C565.974426,655.827820 571.601501,636.527405 577.159912,617.207214 
	C577.683472,615.387329 577.800293,613.450378 578.105957,611.567810 
	C577.651428,611.484558 577.196899,611.401367 576.742371,611.318115 
	C563.533386,642.958496 550.324341,674.598877 536.548828,707.596375 
	C542.294128,704.671143 546.771118,702.391663 552.152588,699.651611 
	C544.798645,723.568420 537.717834,746.596802 530.637024,769.625244 
	C531.014526,769.775879 531.392029,769.926514 531.769531,770.077087 
	C546.255554,736.875793 560.741577,703.674438 575.227600,670.473083 
	C574.884094,670.291687 574.540588,670.110291 574.197083,669.928833 
	C569.529541,673.019775 564.861938,676.110718 560.030640,679.036560 
z"/>
<path fill="#21252C" opacity="1.000000" stroke="none" 
	d="
M449.861694,477.781097 
	C449.500305,460.228455 449.586975,442.747589 449.682312,425.266724 
	C449.689545,423.938324 449.650848,422.593292 449.857300,421.291443 
	C449.928009,420.845612 450.768951,420.127930 451.109161,420.203552 
	C451.751709,420.346466 452.652252,420.881287 452.789307,421.420166 
	C453.068970,422.519623 452.932892,423.729736 452.934174,424.894318 
	C452.952820,442.216461 452.965912,459.538635 453.006195,477.304688 
	C452.125397,477.783325 451.218689,477.818085 449.861694,477.781097 
z"/>
<path fill="#F3F1F0" opacity="1.000000" stroke="none" 
	d="
M516.054932,819.268433 
	C515.599365,818.299072 514.791077,816.614807 515.224121,816.186768 
	C519.595215,811.867065 520.634399,805.233765 525.670898,801.389526 
	C527.011292,800.366516 527.818237,798.648193 529.151611,797.611084 
	C529.920898,797.012695 531.253357,797.138306 532.696167,796.992920 
	C527.466125,804.410767 521.872314,811.773621 516.054932,819.268433 
z"/>
<path fill="#F3F1F0" opacity="1.000000" stroke="none" 
	d="
M515.886841,536.602417 
	C515.414978,537.274658 514.701843,538.065857 514.206482,537.947266 
	C511.393707,537.273926 508.633026,536.383057 505.350464,535.418030 
	C505.829529,532.784729 506.545532,528.961060 501.401062,527.948181 
	C501.235321,527.915588 501.407104,526.168518 501.678009,524.845154 
	C506.538361,528.413513 511.142242,532.357361 515.886841,536.602417 
z"/>
<path fill="#F3F1F0" opacity="1.000000" stroke="none" 
	d="
M507.447327,829.174927 
	C506.591736,828.146606 506.008270,826.985657 505.508240,825.789856 
	C503.978424,822.131042 505.530548,820.294678 509.627716,820.449951 
	C511.358124,820.515503 513.117126,819.825806 515.211975,819.639282 
	C512.959717,822.874817 510.358643,825.950562 507.447327,829.174927 
z"/>
<path fill="#F3F1F0" opacity="1.000000" stroke="none" 
	d="
M529.653442,547.705627 
	C528.382507,548.682617 527.036987,549.340515 525.345764,549.999207 
	C525.000000,550.000000 524.995117,549.995117 524.995117,549.995117 
	C524.274597,548.182312 523.554077,546.369568 522.659790,544.119690 
	C521.447266,544.297424 519.741089,544.547424 516.977173,544.952515 
	C516.977173,542.678894 516.977173,540.612244 517.033325,538.171753 
	C521.252686,540.994141 525.415771,544.190369 529.653442,547.705627 
z"/>
<path fill="#F3F1F0" opacity="1.000000" stroke="none" 
	d="
M498.933899,521.663452 
	C494.564453,521.162598 489.544952,520.968140 490.025879,514.021545 
	C493.029541,516.266052 495.911835,518.812073 498.933899,521.663452 
z"/>
<path fill="#F3F1F0" opacity="1.000000" stroke="none" 
	d="
M498.366516,838.983154 
	C496.007812,833.363525 496.271179,833.045776 503.581055,833.004150 
	C502.235291,834.955017 500.451599,836.898804 498.366516,838.983154 
z"/>
<path fill="#F3F1F0" opacity="1.000000" stroke="none" 
	d="
M533.348083,796.940063 
	C533.773621,795.712463 534.499451,794.364380 535.611389,793.007690 
	C535.214478,794.272583 534.431396,795.546143 533.348083,796.940063 
z"/>
<path fill="#7B878E" opacity="1.000000" stroke="none" 
	d="
M408.125122,856.687744 
	C407.716583,856.524902 407.394440,856.059998 407.090576,855.282593 
	C407.476410,855.441956 407.843933,855.913879 408.125122,856.687744 
z"/>
<path fill="#F3F1F0" opacity="1.000000" stroke="none" 
	d="
M501.366333,523.921265 
	C501.032471,523.936157 500.563843,523.743164 500.071716,523.217834 
	C500.442688,523.161438 500.837128,523.437378 501.366333,523.921265 
z"/>
<path fill="#F3F1F0" opacity="1.000000" stroke="none" 
	d="
M504.261322,832.948486 
	C504.072815,832.687378 504.237488,832.415771 504.717834,832.091736 
	C504.792053,832.277161 504.652405,832.576660 504.261322,832.948486 
z"/>
<path fill="#F3F1F0" opacity="1.000000" stroke="none" 
	d="
M505.190613,831.840515 
	C505.031006,831.610718 505.185638,831.361694 505.632202,831.068359 
	C505.843567,831.312134 505.703796,831.577881 505.190613,831.840515 
z"/>
<path fill="#F3F1F0" opacity="1.000000" stroke="none" 
	d="
M536.223267,792.916687 
	C536.030334,792.694214 536.158936,792.441406 536.570435,792.126343 
	C536.882629,792.374878 536.779785,792.648926 536.223267,792.916687 
z"/>
<path fill="#A52130" opacity="1.000000" stroke="none" 
	d="
M450.768311,634.672424 
	C455.798767,627.658081 460.635406,620.582092 465.231201,613.352966 
	C472.193176,602.401794 479.057861,591.386780 485.797760,580.297913 
	C487.262085,577.888794 488.809540,576.861511 491.717194,576.927002 
	C500.857178,577.132996 510.004730,577.002869 520.031677,577.002869 
	C516.455750,582.489014 513.257996,587.441650 510.013916,592.363831 
	C496.649872,612.641235 483.338867,632.954285 469.822083,653.129456 
	C467.927948,655.956604 467.898987,657.850281 469.815063,660.608093 
	C474.441193,667.266602 478.704681,674.177002 483.607788,681.747681 
	C486.281281,673.378052 489.005615,665.941284 490.961548,658.307678 
	C492.095886,653.880676 494.109436,652.638977 498.531799,652.880005 
	C506.160645,653.295654 513.828491,652.995178 522.304626,652.995178 
	C520.226501,659.102905 518.309998,664.804077 516.347595,670.489380 
	C512.230164,682.417603 508.170776,694.367126 503.903198,706.241638 
	C502.732086,709.500244 502.869843,712.045105 504.924133,715.035278 
	C510.554657,723.230896 515.790161,731.697876 521.613464,740.726196 
	C511.403381,740.726196 501.881653,740.726196 492.080627,740.726196 
	C483.211182,766.295044 474.462555,791.515564 465.600800,817.062256 
	C461.054657,817.062256 456.573242,817.062256 451.643188,817.126831 
	C449.198822,817.128723 447.135406,816.707764 445.219879,817.069641 
	C439.218506,818.203552 436.884705,815.240723 435.113617,809.904480 
	C427.835541,787.975586 420.097290,766.199646 412.671417,744.318970 
	C411.736206,741.563293 410.294769,740.892029 407.585266,740.943176 
	C399.000458,741.105347 390.410645,741.003113 380.862793,741.003113 
	C386.585571,731.947205 391.596436,723.569519 397.087433,715.519287 
	C399.808624,711.529724 400.149841,708.044250 398.474396,703.499268 
	C393.010132,688.676575 387.997742,673.687256 382.819397,658.759277 
	C382.231781,657.065308 381.694427,655.353943 380.919861,653.000732 
	C390.513580,653.000732 399.467163,652.871643 408.407227,653.160828 
	C409.551636,653.197815 411.157990,655.230347 411.643219,656.648804 
	C414.218567,664.177185 416.504272,671.804688 419.291077,680.673096 
	C424.442474,672.507202 429.111053,665.388123 433.363373,658.028625 
	C433.929657,657.048584 432.686127,654.652222 431.771362,653.242188 
	C416.197784,629.236633 400.542816,605.283936 384.909943,581.316833 
	C384.119720,580.105286 383.366974,578.869202 382.203125,577.018677 
	C392.925262,577.018677 402.871826,576.814026 412.793457,577.219543 
	C414.451904,577.287415 416.413696,579.746033 417.538513,581.537476 
	C428.598938,599.152710 439.511841,616.860657 450.768311,634.672424 
M451.000000,681.000000 
	C451.000000,681.000000 450.926208,680.910706 450.227356,680.923340 
	C446.537872,686.811096 442.879395,692.718567 439.152802,698.582825 
	C429.531158,713.723694 429.536591,713.710327 435.046448,730.739441 
	C440.356720,747.151611 445.625641,763.577148 451.034088,780.632202 
	C451.082001,780.791748 451.101959,780.968323 451.185974,781.105774 
	C451.264252,781.233887 451.410736,781.320312 451.527222,781.425049 
	C452.017792,780.685120 452.712219,780.009521 452.969055,779.195862 
	C459.422241,758.751953 465.872467,738.306763 472.153229,717.809692 
	C472.598999,716.354919 472.215881,714.213989 471.411987,712.876709 
	C464.985413,702.186401 458.364441,691.612915 451.750153,680.566162 
	C451.474548,680.681946 451.198975,680.797729 451.000000,681.000000 
z"/>
<path fill="#F6F7F7" opacity="1.000000" stroke="none" 
	d="
M346.253845,660.711060 
	C352.666504,676.037231 358.922974,691.015198 365.661682,707.147583 
	C360.171112,704.454712 355.831055,702.326172 350.310699,699.618652 
	C357.518951,723.215149 364.378174,745.669067 371.237396,768.123047 
	C370.892792,768.250244 370.548187,768.377441 370.203613,768.504639 
	C355.887329,735.704834 341.571045,702.904968 326.645050,668.708252 
	C332.588501,672.932373 337.435974,676.377625 342.283447,679.822815 
	C342.646362,679.659241 343.009277,679.495667 343.372223,679.332092 
	C337.219910,657.982056 331.067566,636.632080 324.915253,615.282043 
	C325.582001,615.034119 326.248749,614.786133 326.915497,614.538147 
	C333.309570,629.813049 339.703644,645.087952 346.253845,660.711060 
z"/>
<path fill="#828C93" opacity="1.000000" stroke="none" 
	d="
M560.194397,679.201599 
	C564.861938,676.110718 569.529541,673.019775 574.197083,669.928833 
	C574.540588,670.110291 574.884094,670.291687 575.227600,670.473083 
	C560.741577,703.674438 546.255554,736.875793 531.769531,770.077087 
	C531.392029,769.926514 531.014526,769.775879 530.637024,769.625244 
	C537.717834,746.596802 544.798645,723.568420 552.152588,699.651611 
	C546.771118,702.391663 542.294128,704.671143 536.548828,707.596375 
	C550.324341,674.598877 563.533386,642.958496 576.742371,611.318115 
	C577.196899,611.401367 577.651428,611.484558 578.105957,611.567810 
	C577.800293,613.450378 577.683472,615.387329 577.159912,617.207214 
	C571.601501,636.527405 565.974426,655.827820 560.385437,675.139221 
	C560.110168,676.090088 560.011780,677.092163 559.676270,678.565308 
	C559.568604,679.272827 559.615601,679.485474 559.662659,679.698059 
	C559.839905,679.532593 560.017151,679.367065 560.194397,679.201599 
z"/>
<path fill="#F3F1F0" opacity="1.000000" stroke="none" 
	d="
M525.002441,550.002441 
	C524.699341,550.516479 524.393860,551.028015 524.088379,551.539612 
	C523.877380,551.356567 523.666382,551.173584 523.455383,550.990540 
	C523.778748,550.683960 524.102112,550.377380 524.710327,550.032959 
	C524.995117,549.995117 525.000000,550.000000 525.002441,550.002441 
z"/>
<path fill="#F7F6F5" opacity="1.000000" stroke="none" 
	d="
M451.803009,681.003662 
	C458.364441,691.612915 464.985413,702.186401 471.411987,712.876709 
	C472.215881,714.213989 472.598999,716.354919 472.153229,717.809692 
	C465.872467,738.306763 459.422241,758.751953 452.969055,779.195862 
	C452.712219,780.009521 452.017792,780.685120 451.527222,781.425049 
	C451.410736,781.320312 451.264252,781.233887 451.185974,781.105774 
	C451.101959,780.968323 451.082001,780.791748 451.065979,779.855347 
	C451.113525,762.132385 451.163239,745.186157 451.134918,728.240051 
	C451.108582,712.463562 450.999084,696.687134 450.926208,680.910706 
	C450.926208,680.910706 451.000000,681.000000 451.175171,681.043152 
	C451.350372,681.086304 451.803009,681.003662 451.803009,681.003662 
z"/>
<path fill="#7D878D" opacity="1.000000" stroke="none" 
	d="
M450.576782,680.916992 
	C450.999084,696.687134 451.108582,712.463562 451.134918,728.240051 
	C451.163239,745.186157 451.113525,762.132385 451.005280,779.537720 
	C445.625641,763.577148 440.356720,747.151611 435.046448,730.739441 
	C429.536591,713.710327 429.531158,713.723694 439.152802,698.582825 
	C442.879395,692.718567 446.537872,686.811096 450.576782,680.916992 
z"/>
<path fill="#7D878D" opacity="1.000000" stroke="none" 
	d="
M451.776581,680.784912 
	C451.803009,681.003662 451.350372,681.086304 451.136902,680.999939 
	C451.198975,680.797729 451.474548,680.681946 451.776581,680.784912 
z"/>
<path fill="#FDFCFC" opacity="1.000000" stroke="none" 
	d="
M560.112549,679.119080 
	C560.017151,679.367065 559.839905,679.532593 559.662659,679.698059 
	C559.615601,679.485474 559.568604,679.272827 559.692017,678.968140 
	C559.862488,678.876099 560.030640,679.036560 560.112549,679.119080 
z"/>
</svg>