<?xml version="1.0" encoding="UTF-8" standalone="no"?>
<svg
   xmlns:dc="http://purl.org/dc/elements/1.1/"
   xmlns:cc="http://creativecommons.org/ns#"
   xmlns:rdf="http://www.w3.org/1999/02/22-rdf-syntax-ns#"
   xmlns:svg="http://www.w3.org/2000/svg"
   xmlns="http://www.w3.org/2000/svg"
   xmlns:sodipodi="http://sodipodi.sourceforge.net/DTD/sodipodi-0.dtd"
   xmlns:inkscape="http://www.inkscape.org/namespaces/inkscape"
   id="Layer_1"
   data-name="Layer 1"
   viewBox="0 0 430.14324 574.52002"
   version="1.1"
   sodipodi:docname="Space_Launch_Delta_45_Emblem.svg"
   inkscape:version="1.0.1 (3bc2e813f5, 2020-09-07)">
  <metadata
     id="metadata307">
    <rdf:RDF>
      <cc:Work
         rdf:about="">
        <dc:format>image/svg+xml</dc:format>
        <dc:type
           rdf:resource="http://purl.org/dc/dcmitype/StillImage" />
      </cc:Work>
    </rdf:RDF>
  </metadata>
  <sodipodi:namedview
     pagecolor="#ffffff"
     bordercolor="#666666"
     borderopacity="1"
     objecttolerance="10"
     gridtolerance="10"
     guidetolerance="10"
     inkscape:pageopacity="0"
     inkscape:pageshadow="2"
     inkscape:window-width="1366"
     inkscape:window-height="706"
     id="namedview305"
     showgrid="false"
     inkscape:zoom="0.93643386"
     inkscape:cx="215.07162"
     inkscape:cy="287.26001"
     inkscape:window-x="-8"
     inkscape:window-y="-8"
     inkscape:window-maximized="1"
     inkscape:current-layer="Layer_1" />
  <defs
     id="defs4">
    <style
       id="style2">.cls-1{fill:#fefefe;}.cls-2{fill:#fcbd3d;}.cls-3{fill:#052639;}.cls-4{fill:#a0a7af;}.cls-5{fill:#a4aab2;}.cls-6{fill:#9ca3ab;}.cls-7{fill:#001f33;}.cls-8{fill:#a9afb4;}.cls-9{fill:#862433;}.cls-10{fill:#fbbd3d;}.cls-11{fill:#084c87;}.cls-12{fill:#084d87;}.cls-13{fill:#084c86;}.cls-14{fill:#084c85;}.cls-15{fill:#f9fafa;}.cls-16{fill:#094c86;}.cls-17{fill:#a0a7ae;}.cls-18{fill:#05283e;}.cls-19{fill:#062940;}.cls-20{fill:#094c87;}.cls-21{fill:#052941;}.cls-22{fill:#062e4a;}.cls-23{fill:#052940;}.cls-24{fill:#052840;}.cls-25{fill:#0f293c;}.cls-26{fill:#062e4b;}.cls-27{fill:#05263b;}.cls-28{fill:#094b84;}.cls-29{fill:#052339;}.cls-30{fill:#eeeff0;}.cls-31{fill:#002033;}.cls-32{fill:#001d39;}.cls-33{fill:#a1a6ae;}.cls-34{fill:#062c46;}.cls-35{fill:#052a44;}.cls-36{fill:#062b46;}.cls-37{fill:#052c48;}.cls-38{fill:#001c39;}.cls-39{fill:#001e39;}.cls-40{fill:#002034;}.cls-41{fill:#063252;}.cls-42{fill:#1d384a;}.cls-43{fill:#001e33;}.cls-44{fill:#124b85;}.cls-45{fill:#062c48;}.cls-46{fill:#001d32;}.cls-47{fill:#d6dadd;}.cls-48{fill:#a0a8b0;}.cls-49{fill:#a7adb4;}.cls-50{fill:#abb0b6;}.cls-51{fill:#aab0b7;}.cls-52{fill:#aaafb6;}.cls-53{fill:#a8aeb5;}.cls-54{fill:#485d6b;}.cls-55{fill:#a8adb4;}.cls-56{fill:#0a263a;}.cls-57{fill:#a9afb5;}.cls-58{fill:#febe36;}.cls-59{fill:#cbb17a;}.cls-60{fill:#9aa6b6;}.cls-61{fill:#05283f;}.cls-62{fill:#872433;}.cls-63{fill:#072b45;}.cls-64{fill:#18487e;}.cls-65{fill:#023;}.cls-66{fill:#072539;}.cls-67{fill:#fec53e;}.cls-68{fill:#947d3c;}.cls-69{fill:#062b44;}.cls-70{fill:#062d48;}.cls-71{fill:#06304d;}.cls-72{fill:#052438;}.cls-73{fill:#052a42;}.cls-74{fill:#052437;}.cls-75{fill:#084e89;}.cls-76{fill:#a2a9b0;}.cls-77{fill:#294555;}.cls-78{fill:#001e32;}</style>
  </defs>
  <path
     class="cls-2"
     d="M11.34085,572.04794C79.38488,381.31974,146.989,191.82455,215.06093,1.01823c67.978,190.65575,135.5045,380.04509,203.475,570.67992-27.56915-17.79686-53.857-34.81923-80.19807-51.75837q-59.91914-38.5322-119.85734-77.03438c-2.62744-1.69475-4.42064-1.67759-7.04392.01455q-88.65806,57.18849-177.4233,114.2101C26.78908,561.77949,19.65606,566.57133,11.34085,572.04794Z"
     transform="translate(-0.39338 0)"
     id="path8" />
  <path
     class="cls-3"
     d="M301.51324,288.70352c4.98955,10.26213,8.04472,21.26142,11.94668,31.93,9.84524,26.91836,19.26252,53.9937,28.90609,80.98648,9.5238,26.6576,19.15306,53.27738,28.66286,79.94,6.35617,17.82077,12.5843,35.68737,18.91944,53.67456-1.94128,1.03188-2.83186-.64316-3.89577-1.324q-33.9867-21.75018-67.90333-43.61038a17.04162,17.04162,0,0,1-1.86646-1.61277c.469-2.97638-2.28332-.77738-2.98786-1.86834-12.28536-7.78852-24.599-15.53259-36.84971-23.37553q-30.78657-19.70973-61.50982-39.519a2.2593,2.2593,0,0,1-.33481-2.78724,3.60257,3.60257,0,0,1,1.14748-.87233,26.33065,26.33065,0,0,1,8.178-1.30319c3.15136-.06239,6.25982-.58253,7.649-4.11525a5.277,5.277,0,0,1,5.06762-1.9653c.83329.43782.37359,2.89449,2.5492,1.37342,1.988-1.38985,4.37551-2.19387,6.21656-3.87289,5.69051-3.681,12.317-5.47034,18.04108-9.13134,7.69068-4.91877,14.76578-10.46743,20.23329-17.88255a6.50908,6.50908,0,0,1,2.971-2.511c1.62767-.40191,2.81083.59064,4.07643,1.30636a2.5786,2.5786,0,0,0,.98718.25918c1.10865-1.54364.2368-3.2441.438-4.8439a20.12422,20.12422,0,0,1,.372-4.43609c.85112-2.81361.46817-5.69874.49669-8.55657a28.84171,28.84171,0,0,1,.35049-5.30086c.329-2.08935,1.55127-4.11029.54272-6.26394.03779.05458-.11479-.19868-.11479-.19868a.06408.06408,0,0,0,.013.08006,2.19646,2.19646,0,0,1,.15561,1.28761,3.85654,3.85654,0,0,1-.501,1.08593c-.50268.70305-1.05179,1.35656-1.55769,2.04779-4.6532,6.2186-9.71154,12.13084-13.83832,18.705.24437,1.74052,1.917.95944,2.79419,1.57957a2.59532,2.59532,0,0,1,1.03873.90984c.61021,2.10016-.91009,3.36284-1.9057,4.80627-3.50649,5.08359-8.25439,8.83649-13.28212,12.26494-1.19868.81741-2.46994,1.72613-4.06869.88187-.29859-4.40007,3.65928-7.10982,4.38231-11.10631a12.08,12.08,0,0,0,1.41711-2.5015,77.86821,77.86821,0,0,0,3.77468-19.06178c-.00454-.7227.00885-1.44662.02582-2.16781a56.94527,56.94527,0,0,0-2.51239-15.38387c-.38326-1.16453-.31386-2.87772-2.03659-2.94558-1.63582-.06445-2.00914,1.39086-2.339,2.67838a2.41623,2.41623,0,0,1-1.36671,1.88058,2.2401,2.2401,0,0,1-2.25778-1.25386,10.04915,10.04915,0,0,1-1.59888-2.95175c-.19673-4.13681-3.80026-7.0628-3.97854-11.20985a1.44757,1.44757,0,0,1,1.48636-1.16423c2.71095,1.50516,3.11772,4.55687,4.59986,6.888.49514.77877.6386,2.16131,1.93041,1.8174a2.54824,2.54824,0,0,0,1.72151-2.73745c.00413-3.97409-6.29413-10.84711-10.21585-11.14372a1.58226,1.58226,0,0,1-1.32514-1.41014c.68078-2.08935.08349-3.57981-1.58148-5.14027a52.26867,52.26867,0,0,0-14.16223-9.17177c-.54-.60619-.87682.50719-.40033.04653.07733-.07475.20149.02056.43421.20977a4.40542,4.40542,0,0,1,1.43058,1.9379,1.421,1.421,0,0,1-1.10537,1.53137c-2.00932.37145-3.31978-2.04306-5.60994-1.3562.48134,3.40679,4.82768,4.38351,4.93506,7.90888a1.45037,1.45037,0,0,1-1.42784,1.2419c-3.56585-1.28287-4.97554-5.67164-9.27144-6.64809-.731,3.08806,2.77809,4.79384,1.87517,7.502a1.58653,1.58653,0,0,1-1.58074,1.11217c-2.84125-1.05883-2.95854-5.08174-6.69283-6.01576.31112,5.51418,2.66573,10.30873,3.02669,15.43764.06477,1.19706.53006,2.31476.69167,3.49351a5.14425,5.14425,0,0,1-.6159,3.57479,1.5566,1.5566,0,0,1-1.26964.42712c-1.86173-1.33937-3.1581-4.70427-6.22071-1.745-.9558,7.50673-.4663,15.00088-.1874,22.49314-.27443,8.10241-.78881,16.20648.24189,24.27185,2.8957,2.7247,4.24378-.11272,5.94519-1.65805a1.55894,1.55894,0,0,1,1.73156.77461c.75278,2.80862,3.663,2.873,5.48821,4.32322a1.54479,1.54479,0,0,1-.90653,1.68968,9.30146,9.30146,0,0,0-6.25454,3.53773c-1.10812.0811-1.63094-.72182-2.20434-1.44559-2.54679-1.94692-3.14262-.18036-3.33431,1.87306a53.94015,53.94015,0,0,0-.074,8.88828c.14121,1.93626,1.77089-1.27789,2.60679.16351,1.252,1.39671.57764,2.819.07035,4.24406a6.50989,6.50989,0,0,1-2.00633,2.30076c-.96737.89529-1.58774,2.17746-2.92964,2.66574-9.41887,2.56146-18.99621,1.12942-28.51129,1.16511-12.26922-5.22957-19.82582-15.09917-25.63017-26.56316a51.34507,51.34507,0,0,1-4.38078-12.66823,27.94834,27.94834,0,0,1-.52947-4.63778,58.745,58.745,0,0,1,37.955-64.24647c6.66074-2.45625,13.432-4.77608,20.75354-3.43932a6.49012,6.49012,0,0,1,1.23223.82318c1.92231,2.07775,1.19054,4.687,1.35243,7.10332.12918,1.928.61169,3.31715,2.9546,2.75267,3.84205-.92567,7.61077-2.00518,10.75574-5.43284a19.57241,19.57241,0,0,0-8.36583-2.06975c-2.66879-.20774-5.29892-.47324-7.11367-2.83371-1.51181-2.74955-.6061-5.73759-.8695-8.60763-.17408-1.89665.51014-3.92975-.90494-5.61223-.8885-.8315-2.11729-1.14263-3.00535-1.96742-1.78307-2.50063-.27612-5.63486-1.58691-8.21661-1.10387-.88436-2.58935-.65354-3.77293-1.29612a2.714,2.714,0,0,1-.94906-.98739c-1.0396-2.59779-.13894-5.4134-.90588-8.03442a5.10543,5.10543,0,0,0-.8514-.89226c-2.51612-.56591-5.00636-.9646-7.30066.70275-1.96748,2.713.24954,6.43842-2.18855,9.02758-3.20611.68893-5.23932,2.20927-4.70429,5.96561a4.52081,4.52081,0,0,1-1.33167,4.04715c-3.05708,1.34559-6.159,1.11545-9.27731.29153-3.02192-2.36746-1.31347-5.89116-2.14459-8.78665a7.97425,7.97425,0,0,0-.87153-1.05807c-1.51562-1.1303-3.83169-.33767-5.07544-2.1083-1.19962-2.23026-.45261-4.75943-1.10448-7.06195-2.24921-2.709-5.10384-1.11281-7.71527-1.08981a7.20956,7.20956,0,0,0-.86576.8658c-1.00509,2.56905-.20488,5.17237-.1904,7.758a2.1274,2.1274,0,0,1-.65422,1.19561c-1.2937,1.17531-4.01.08808-4.35093,2.77839-.39885,8.15584-2.41274,9.48135-11.09878,7.33536a4.00761,4.00761,0,0,1-1.5237-3.87544c.54566-3.864-1.56726-5.49477-4.82882-6.34681-2.4533-3.08622-.18728-7.04005-1.87983-10.26811,4.34586-14.91413,10.11272-29.33392,15.296-43.95437Q180.80687,138.328,211.02318,53.81286a36.0055,36.0055,0,0,1,1.9519-3.93413c2.31857.26987,2.15238,2.16307,2.3127,3.726a58.43358,58.43358,0,0,1,.09166,5.9584q.00255,98.87158.00585,197.74317a61.25088,61.25088,0,0,0,.15763,6.93246,4.00011,4.00011,0,0,0,.7918,1.45178c3.39639,2.09118,7.76237-.62814,11.00656,2.2148,1.32651,2.7,1.09268,5.46564.35221,8.24753-.30093.56983-.69982,1.23792-1.32627,1.2809-5.50763.37789-5.79888,3.80965-4.76022,8.03625.11873.19257.21752.39675.33541.5909a4.593,4.593,0,0,0,.941.98633,91.73867,91.73867,0,0,0,19.76539-.13827,2.62058,2.62058,0,0,0,.58953-1.18388c.47554-3.39582.92816-6.69077-3.81633-7.50511-1.211-.20789-1.5852-1.553-1.84268-2.72749-.31233-8.44448.2293-9.0042,8.74206-9.03445,2.14984-.00762,4.29978-.01179,6.44956.00188,7.91491.05027,8.644.88679,7.97782,9.11008-.569,2.2319-2.43282,2.80923-4.29434,3.38091-2.9382,5.07594-1.8041,7.44555,3.71592,7.45157,5.45508.00592,10.91477.2412,16.355-.16509a8.90215,8.90215,0,0,0,1.051-.74c1.24023-2.37025.79985-4.85119.5126-7.31812a.29615.29615,0,0,0-.24707-.148,2.19138,2.19138,0,0,0-.4082.26016c-2.76392.59176-5.3385.81176-6.09777-2.86481-.29168-8.39816.23534-9.05562,8.72711-8.91991,4.38995.07014,8.87714-.88445,13.16505.85574,2.99787,6.24129,2.06947,9.18626-3.43142,10.96552-3.83342,1.73743-1.65979,4.80852-1.60367,7.39249.123.18224.22674.37306.35068.558a3.49758,3.49758,0,0,0,1.03852.87145C293.50535,288.15589,297.80375,286.17717,301.51324,288.70352Z"
     transform="translate(-0.39338 0)"
     id="path10" />
  <path
     class="cls-4"
     d="M210.99972,286.82746l3.42426.00537c1.91237,5.55361,1.30349,11.14522.25127,16.74353-36.23188.959-61.33155,29.93724-57.7307,66.65151-1.471,2.64025-4.28947,2.93392-6.73856,3.74826-6.15047,2.04509-12.1424,4.39658-17.22392,8.54721-9.05026,7.39246-8.7913,15.12951.74335,21.79741a52.88965,52.88965,0,0,0,17.15334,7.5676,143.07714,143.07714,0,0,0,38.704,4.93584,24.12059,24.12059,0,0,1,6.41672.30506c1.04718.26836,2.88529.35951,1.77046,2.404-5.13755.19588-10.27886.06743-15.63915.06369.526.542.68276.06886.93781.06066,5.05376-.163,10.11817.31529,15.16472-.25253a3.40836,3.40836,0,0,1,1.33126-.96012c5.17684.283,10.342.6417,15.18384,2.77424q.09426,1.35342.18774,2.70605-34.44969,22.08888-68.89367,44.18567Q94.10187,501.52628,42.20126,535.00426c-.68583.4417-1.42152.80565-3.17365,1.79,2.715-7.80464,5.05979-14.69542,7.505-21.55019Q72.72046,441.82885,98.941,368.42544q17.43811-48.86246,34.86109-97.7304a15.99689,15.99689,0,0,1,.886-1.77519c2.61008,1.60445.95207,3.84288,1.23064,5.82018-.0259-2.33426.61449-4.70862-.65195-7.00506a1.516,1.516,0,0,1,.25272-.85726c2.7758.48693,1.55174,2.69669,1.76546,4.23835.26142,1.88547-.3733,3.854.487,5.69612a3.19575,3.19575,0,0,0,1.0047.83035c1.42042.49131,3.38682-.36331,4.16212,1.70666.33391,2.44984-.59106,4.98734.53316,7.37606a9.86887,9.86887,0,0,0,1.9319.318c9.13276-.2916,8.52834,2.19815,8.06337-8.75221a.72019.72019,0,0,1,1.00026-.62277c.92933,2.25508.10571,4.66561.49719,7.08686.461-2.69162-1.88137-6.37393,2.96637-7.08443a3.30222,3.30222,0,0,0,1.09082-.85653l.24192-1.02287c-.4593-2.98327-.91553-5.96649.25612-8.90262l-.13054.13064c3.62845-.90829,7.24645-1.368,10.816.253q.05264,4.27371.10529,8.54742c1.75978,1.4,4.19693-.491,5.893,1.21857l-.13977-.18109c1.69043,3.12433-.28808,6.68664,1.16906,9.83883a24.14982,24.14982,0,0,0,9.932-.10759,3.44459,3.44459,0,0,0,.8132-1.02514c.87618-2.83924-1.59439-7.31594,3.8534-7.91521a3.43555,3.43555,0,0,0,1.00723-.8356c.88037-2.19211.32363-4.4819.42629-6.72437.06782-1.48143-.12051-2.99652,1.876-3.344,2.97541-.46953,5.94787-.80417,8.89124.19482l-.12426-.0274q.75537.71022-.10118,1.28646a23.20846,23.20846,0,0,1-3.91628.13626c-5.30813.03508-5.30816.03-5.14152,5.64042.08767.6577,1.0456-.15227.42689.08377q-.39576.151-.42938-.23908c-.46353-5.3774-.39578-5.47071,4.9929-5.43848,1.45966.00874,2.94923-.2523,4.37788.30724,1.11188,2.65583-.30246,5.56733.83864,8.2177l-.03014.00033a1.517,1.517,0,0,1,.68109.94174c1.57909.61618,3.8457-1.0222,4.85186,1.47317C210.79588,281.81489,209.87782,284.39494,210.99972,286.82746Z"
     transform="translate(-0.39338 0)"
     id="path12" />
  <path
     class="cls-4"
     d="M272.4414,277.234c1.75379,1.65851,4.15869-1.00975,5.87642.88839a11.72865,11.72865,0,0,1-.01848,8.60675l.17525-.15649c-7.4453,1.53382-14.96818.30429-22.44779.6248-.68051.02916-1.56709-.27932-1.51924-.91479.23847-3.1654-2.0548-6.8014,1.61224-9.36611,1.23344,1.59379,2.38467.7368,3.53592-.11916a2,2,0,0,0,.446-.85987c.72211-8.59463.71929-8.59487-7.82687-8.59487h-5.40853c-9.45967,0-9.45967,0-8.17914,9.82437,8.224-.86413,5.303,5.42175,5.9957,9.38928-1.26915,1.45765-3.01812,1.2926-4.62327,1.1656-6.35984-.50312-12.84027,1.27157-19.10171-1.0092l.024.04341a2.83876,2.83876,0,0,1-.5384-1.81394c-.29362-7-.29891-6.99975,6.18469-8.1254.83843-2.96885.48823-5.96649.216-8.96225-3.84309-1.52171-8.02726.56558-11.85434-1.12556l.11069.11041c-1.208-1.82664-.57842-3.87191-.57951-5.7993q-.05844-103.10531.00973-206.2106c.00265-3.25517-.98236-6.59313.46318-9.7903,1.234.50418.97839,1.627,1.0761,2.60307.73083,1.93208.3543,3.943.355,5.9119q.03471,102.2652.01936,204.53041c0,7.68041.00043,7.68041,8.05277,6.98951-1.96558.52824-3.8169.20011-5.6518.24233-1.64235.03785-2.39012-.80444-2.36171-2.4403.02015-1.16019-.00885-2.322-.00885-3.48318q-.00066-101.76757.02973-203.53513c.00093-1.76448-.59716-3.65311.59758-5.3039C220.514,59.6783,224.045,68.76005,227.31869,77.934q33.19176,93.01331,66.28451,186.06208c.3301.92725.54347,1.89623.81136,2.84574a2.23036,2.23036,0,0,1-1.64194.49566c-5.55365.01084-11.11658.19108-16.65873-.06662-3.253-.15126-4.5208.873-4.08581,4.125C272.28615,273.32536,271.73952,275.3251,272.4414,277.234Z"
     transform="translate(-0.39338 0)"
     id="path14" />
  <path
     class="cls-5"
     d="M217.10209,50.55388c-.04874,18.07565-.1327,36.15129-.13952,54.227q-.02881,76.37309-.00292,152.74619c.00124,8.32751-.5494,7.36083,7.02872,7.35637a16.406,16.406,0,0,1,2.0502.27094c-.31456.28889-.41414.46336-.53208.47685-9.53924,1.09328-9.53938,1.09233-9.53938-8.52227q0-101.2503.00428-202.50061c.00018-2.321.06371-4.642.0982-6.96453A3.72058,3.72058,0,0,1,217.10209,50.55388Z"
     transform="translate(-0.39338 0)"
     id="path16" />
  <path
     class="cls-3"
     d="M214.99394,45.03917q.01344,107.91677.03014,215.83353c.00036,1.98863.04921,3.97723.076,5.96628-2.01359-1.71529-1.0773-4.03709-1.07889-6.06257q-.08007-102.37681-.084-204.75366c-.00143-2.05125.839-4.33634-.962-6.144C213.1928,48.07475,213.56242,46.33444,214.99394,45.03917Z"
     transform="translate(-0.39338 0)"
     id="path18" />
  <path
     class="cls-6"
     d="M293.37434,266.87689q.52011-.01733,1.04022-.03484c2.69168,6.63591,5.55417,13.214,6.87528,20.31607-4.61383.72188-9.22855,1.46749-13.73947-.52354l.02415.1181c-.80336-3.31318-1.31592-6.61909.24553-9.87319,6.41535.634,6.41535.634,5.59408-9.02412q-.51051-.30585-.3581-.63881C293.15915,266.99027,293.26488,266.87689,293.37434,266.87689Z"
     transform="translate(-0.39338 0)"
     id="path20" />
  <path
     class="cls-7"
     d="M301.51324,288.70352c-4.67111-.39481-9.4667,1.1204-14.03063-.91874a37.67631,37.67631,0,0,1,13.66038.00021Z"
     transform="translate(-0.39338 0)"
     id="path22" />
  <path
     class="cls-3"
     d="M301.143,287.785q-6.83047-.00041-13.66065-.00052.034-.57412.0677-1.14937,6.86966.25961,13.7392.52165A1.05866,1.05866,0,0,1,301.143,287.785Z"
     transform="translate(-0.39338 0)"
     id="path24" />
  <path
     class="cls-3"
     d="M313.29489,486.819c.31816-.0767.63517-.15865.95473-.22906,1.41775-.31234,1.11725-4.09262,3.38058-2.08661,1.70818,1.514-.83549,2.76761-1.34745,4.184Q314.7888,487.75317,313.29489,486.819Z"
     transform="translate(-0.39338 0)"
     id="path26" />
  <path
     class="cls-8"
     d="M135.26689,267.735c2.30858,2.47887.94864,5.30815,1.06194,8.64264-1.63509-2.72254.22151-5.45735-1.64115-7.45818Q134.97778,268.32762,135.26689,267.735Z"
     transform="translate(-0.39338 0)"
     id="path28" />
  <path
     class="cls-9"
     d="M198.29726,419.01864c-1.61812-1.25781-3.5021-.685-5.26624-.68868-17.4185-.037-34.57114-1.73364-50.97951-8.10408a36.0811,36.0811,0,0,1-12.61673-7.647c-6.06965-5.98359-6.12625-12.60055-.18334-18.6955,4.37092-4.48271,9.86089-7.16352,15.559-9.41473,3.983-1.57359,8.0868-2.83985,12.13539-4.24209q.304,2.48416.61062,4.96579c-1.73912,2.61915-4.77556,2.708-7.32084,3.71394-5.99069,2.36782-12.0385,4.61026-16.4903,9.61-3.35231,3.76494-3.30415,6.32367.37006,9.77265a34.9295,34.9295,0,0,0,11.91106,6.88532c10.59726,4.00067,21.73228,5.3045,32.86007,6.61617a21.07911,21.07911,0,0,1,6.20791,1.35377c10.28082.252,20.564.57159,30.77684-1.09565a10.86043,10.86043,0,0,1,4.1023-1.71659c1.8874-.50006,3.88646-.32619,5.75054-.97029,1.85914-.40428,3.70394-.87964,5.57293-1.23825a16.023,16.023,0,0,0,3.37527-.71535c.42994-.17122.87007-.30721,1.3124-.438a65.9547,65.9547,0,0,0,11.14048-3.61167c1.04734-.35924,2.10749-.685,3.15907-1.03113a19.74918,19.74918,0,0,0,4.10792-1.69013c.77027-.4001,1.5463-.78655,2.321-1.182,2.15565-.74712,3.6841-2.712,6.01419-3.11206a43.06646,43.06646,0,0,0,19.16642-18.12518,3.85811,3.85811,0,0,1,3.76281-.695c1.52554.76088,2.88919,1.61019,1.8637,3.67323-3.43019,3.70993-6.68133,7.60818-10.32762,11.09075a79.04737,79.04737,0,0,1-26.69435,16.45725,41.45389,41.45389,0,0,0-4.7756,2.56374c-2.97576.59987-5.45671,3.47048-8.8951,1.94738q-2.51,1.01936-5.02,2.03868c-5.02565,2.23415-10.51317,2.17479-15.78259,3.20459a77.04726,77.04726,0,0,1-16.97122.3322l-.04875.35882C198.66776,419.554,198.4365,419.4776,198.29726,419.01864Z"
     transform="translate(-0.39338 0)"
     id="path30" />
  <path
     class="cls-4"
     d="M185.09441,413.14425c-15.315-.28385-30.29933-2.4044-44.34516-8.86763-4.91328-2.26085-10.8218-4.80582-10.83011-11.07639-.00816-6.16632,5.78208-8.77015,10.56442-11.4037,5.38274-2.96416,11.21247-4.83776,17.0718-6.60426C161.95868,391.32542,171.0034,404.07417,185.09441,413.14425Z"
     transform="translate(-0.39338 0)"
     id="path32" />
  <path
     class="cls-10"
     d="M176.04413,188.23162q8.6052-10.22456,17.21041-20.44908c3.34064-2.67885,7.16651-1.38929,10.76243-1.07936,1.97939.1706,1.96981,2.33254,1.98967,3.9999.053,4.44148.20839,8.8946-.04148,13.32123-.17842,3.16072.73827,5.00048,4.01205,5.30008l-.08009-.08208c1.0659,1.26413.32744,2.78893.6026,4.16055.75177,3.74733-.64394,5.72059-4.54668,5.72352l.02319-.04356a9.07,9.07,0,0,0-.80106,1.06494c-.49783,5.82764-.69617,6.05645-6.27868,6.31368a20.80194,20.80194,0,0,1-4.39127.12457,2.03732,2.03732,0,0,1-1.13931-1.17312c-.537-6.22783-.537-6.228-6.98484-6.23782-.82373-.00126-1.64744,0-2.47117-.0004C174.706,199.16974,173.57605,197.59774,176.04413,188.23162Z"
     transform="translate(-0.39338 0)"
     id="path34" />
  <path
     class="cls-11"
     d="M256.64076,332.59279c1.13041,3.73666,4.92209,6.48544,4.05127,10.96494-1.049,2.32056-3.48985,2.54634-5.379,3.60911a5.90005,5.90005,0,0,1-1.9006.73559,5.491,5.491,0,0,1-4.1922-2.23767,7.035,7.035,0,0,1-.63357-1.26359c-.89991-2.67764-1.65241-5.408-2.82053-7.99627-1.38643-5.3223-.84892-6.16526,5.4847-8.638a4.73147,4.73147,0,0,1,2.24546.16141C255.59875,328.76571,256.21208,330.61686,256.64076,332.59279Z"
     transform="translate(-0.39338 0)"
     id="path36" />
  <path
     class="cls-12"
     d="M253.70635,347.46206l.78715-.97552c2.7941.431,5.16967-2.758,8.12372-.94361a2.296,2.296,0,0,0,1.0561,2.12188,2.12381,2.12381,0,0,1,1.48542,2.22755c-.05658,2.48829.92621,4.87151.76012,7.378-.05325,1.68057-.03149,3.38154-1.4279,4.64586-3.43658,1.43307-6.96017.93936-10.484.48739-4.2424-3.57661-3.12231-8.64593-3.46134-13.22934C250.42093,347.48921,252.5739,347.94683,253.70635,347.46206Z"
     transform="translate(-0.39338 0)"
     id="path38" />
  <path
     class="cls-12"
     d="M228.89927,322.55832c-.14946-1.93389-1.753-3.09994-2.48653-4.72681-.46838-1.03884-2.264-1.95318-.33243-3.20109,1.28607-.8309,2.68892-1.46922,4.01615-.13374,2.30537,2.31971,4.54194,4.70813,6.80734,7.06775,3.44309,1.26441,4.77,4.41219,5.97834,7.36861,1.55139,3.79574-2.124,3.51256-4.07444,4.51188-4.07593,1.741-6.52207.311-7.93551-3.79743A33.50874,33.50874,0,0,1,228.89927,322.55832Z"
     transform="translate(-0.39338 0)"
     id="path40" />
  <path
     class="cls-11"
     d="M237.81671,320.59539c-1.61692-1.80969-3.274-3.58551-4.83466-5.44268-.84008-.99966-2.80454-1.736-1.36278-3.53327,1.16871-1.45691,2.59773-.92326,3.92243-.0882,1.09524.69038,2.17642,1.40324,3.26382,2.10617,3.0506.272,4.637,3.1607,7.31692,4.09781a12.06026,12.06026,0,0,1,4.88922,4.57014c.11276,2.01511,2.29692,4.27875-.6908,5.93845-6.09734,2.947-6.116,2.95828-9.50084-2.64119C239.81342,323.93739,238.13078,322.67636,237.81671,320.59539Z"
     transform="translate(-0.39338 0)"
     id="path42" />
  <path
     class="cls-11"
     d="M215.99627,303.73859c5.70216,1.14662,11.73833.7184,17.36131,3.52662-3.75743,5.479-9.51388,6.58631-15.05881,8.0374-2.25406.58991-2.4231-1.02435-2.41-2.63059.0243-2.98294.08261-5.96558.12676-8.94834Z"
     transform="translate(-0.39338 0)"
     id="path44" />
  <path
     class="cls-13"
     d="M223.99981,340.49861q-.019-1.94085-.03807-3.88173c7.05075-3.72684,8.243-3.18153,12.33673,5.63659a5.31628,5.31628,0,0,1,.35538,2.50269c-.37,5.2816-1.45987,6.53249-6.026,6.931-4.85354.42354-6.8452-1.36294-7.04916-6.34311A14.175,14.175,0,0,1,223.99981,340.49861Z"
     transform="translate(-0.39338 0)"
     id="path46" />
  <path
     class="cls-14"
     d="M229.83557,389.3556c-2.57211-.43473-6.01064.414-5.89676-3.99943.088-2.43915-.64235-4.83194-.309-7.29836.37671-2.78748,1.53778-4.6423,4.6392-4.60661.65571.03408,1.28056.2795,1.92906.35483,6.32341.73464,6.2018.11257,6.24759,7.20638a4.221,4.221,0,0,1-.25333,1.57055c-.98828,1.48256-1.25155,3.26853-1.99245,4.85509C233.31026,389.343,232.22583,390.85714,229.83557,389.3556Z"
     transform="translate(-0.39338 0)"
     id="path48" />
  <path
     class="cls-13"
     d="M264.61945,349.28359q-.47374-.81119-.94683-1.62058a1.97215,1.97215,0,0,0,.44384-2.22479c-.74506-3.107,2.25872-3.63226,3.81623-4.25955,2.27369-.91574,2.14886,1.75368,2.59676,3.14954a60.00862,60.00862,0,0,1,2.94892,16.987,4.30659,4.30659,0,0,1-3.08256,1.348c-6.13186.26912-4.33574-4.56865-5.00843-7.81615A26.33673,26.33673,0,0,1,264.61945,349.28359Z"
     transform="translate(-0.39338 0)"
     id="path50" />
  <path
     class="cls-11"
     d="M273.4935,363.48877c-.04455,7.15323-2.03377,13.93655-3.92633,20.73828-5.12788.339-7.00934-1.51536-6.35823-6.22039.22483-1.62465.81564-3.16364,1.02543-4.78783a19.60721,19.60721,0,0,1,.52578-3.20905c.96934-2.28122-.15019-5.16375,2.021-7.10186C269.08885,362.29092,271.37945,361.87217,273.4935,363.48877Z"
     transform="translate(-0.39338 0)"
     id="path52" />
  <path
     class="cls-11"
     d="M222.941,333.488c-.226-4.83819-1.93677-9.34023-3.19909-13.938-.36978-1.3469-.92729-2.42605.84265-3.243a2.43257,2.43257,0,0,1,3.40086.97955c1.38785,2.04746,2.658,4.17509,3.97758,6.269,2.70866,2.07049,2.9632,5.41337,4.11538,8.252.84469,2.08115-.72008,2.923-2.56055,3.25549C227.09041,335.50159,224.58258,336.32635,222.941,333.488Z"
     transform="translate(-0.39338 0)"
     id="path54" />
  <path
     class="cls-13"
     d="M218.94308,408.19324q.50761-2.03339,1.01525-4.0668a1.81983,1.81983,0,0,1-.44724-1.32612c.97479-2.91566.81868-6.27018,3.29618-8.60939-.0602-4.4979,3.13158-3.92473,5.99557-3.86274,2.83492.11846,4.42,1.2586,3.34009,4.343a43.10722,43.10722,0,0,1-6.47349,12.713C223.95842,409.5488,221.64,411.848,218.94308,408.19324Z"
     transform="translate(-0.39338 0)"
     id="path56" />
  <path
     class="cls-15"
     d="M276.55891,376.33527l14.8626-19.93141a2.6476,2.6476,0,0,1,1.814,2.28536,42.55475,42.55475,0,0,1-5.02621,14.74885,13.39376,13.39376,0,0,1-2.32285,1.706A18.10506,18.10506,0,0,1,278.7,377.5686,1.70765,1.70765,0,0,1,276.55891,376.33527Z"
     transform="translate(-0.39338 0)"
     id="path58" />
  <path
     class="cls-11"
     d="M255.69694,325.59348c1.69727-1.49319,3.10251-1.84086,4.8493.25381,2.45375,2.94242,4.19994,6.29483,6.24368,9.47557,1.85334,2.88447.35068,4.72356-2.06338,6.0136-2.91614,1.55834-2.64413-1.52435-3.4174-2.75039-1.40259-2.22388-2.48839-4.64853-3.70643-6.98935a7.527,7.527,0,0,1-3.27661-3.95545A1.98675,1.98675,0,0,1,255.69694,325.59348Z"
     transform="translate(-0.39338 0)"
     id="path60" />
  <path
     class="cls-11"
     d="M222.99608,384.33266c-.04206,5.39108-4.09191,3.64551-6.993,3.94546-.982-4.64684-.56716-9.31642-.22721-13.98688a6.34337,6.34337,0,0,1,7.3723-.46613c2.43318,1.43237,1.14023,4.155,1.00663,6.312C224.06726,381.5498,224.04471,383.12336,222.99608,384.33266Z"
     transform="translate(-0.39338 0)"
     id="path62" />
  <path
     class="cls-12"
     d="M216.0834,336.5767c2.84914.33825,6.88888-1.42065,6.89188,3.93087,1.3372,2.32029,1.08855,4.94311,1.40761,7.456.26807,2.11134-.62628,3.38143-2.76531,3.7106-6.11821-.00085-6.22919-.00347-6.09068-5.8857C215.59914,342.72067,214.7919,339.57531,216.0834,336.5767Z"
     transform="translate(-0.39338 0)"
     id="path64" />
  <path
     class="cls-11"
     d="M262.72732,396.34313c-1.3629,2.29024-3.55062,3.32034-6.00234,3.94706-3.20891-.51121-2.98135-2.49923-1.90392-4.69082,1.15286-2.345,2.888-4.35071,4.04854-6.70082q.56343-1.10288,1.11537-2.20957c2.46521-4.9419,2.992-5.03363,7.4283-1.31456C268.191,390.03486,264.14616,392.62546,262.72732,396.34313Z"
     transform="translate(-0.39338 0)"
     id="path66" />
  <path
     class="cls-16"
     d="M250.74388,322.61184l-4.88125-3.96772c-1.961-2.05769-4.61178-3.40721-6.09086-5.95974-1.48209-1.39593-3.71515-1.95279-5.26557-4.89621a47.71315,47.71315,0,0,1,15.91921,8.14645c1.56236,1.17079,2.92056,2.61589,4.48665,3.78091,2.42851,1.8065,2.17405,3.38513-.18276,4.94958C251.66746,327.36085,251.602,324.21356,250.74388,322.61184Z"
     transform="translate(-0.39338 0)"
     id="path68" />
  <path
     class="cls-17"
     d="M287.32645,373.33753q2.6091-7.41626,5.21826-14.8325c.51862-1.20235-.43723-2.76094.90521-3.76427a.42566.42566,0,0,1-.0914-.488c2.62613.754,1.38769,2.59178,1.15747,4.1468q-.10368,2.79906-.20731,5.59808c-1.06474,3.0425.23328,6.28418-.78288,9.33078l-.19746,4.707c-1.43578,1.56523,1.15368,4.56211-1.95816,5.53125l-.114-.2481.18686-.19884C289.016,380.305,286.42412,377.55988,287.32645,373.33753Z"
     transform="translate(-0.39338 0)"
     id="path70" />
  <path
     class="cls-18"
     d="M221.96368,350.5346c2.75154-.54683,2.015-2.67051,1.632-4.24993a19.73908,19.73908,0,0,1-.6209-5.777q.51222-.00452,1.02424-.009c1.22953,1.19208.881,2.754.9031,4.18848.047,3.04372-.27472,6.12881,4.4005,5.77452,3.55945-.26979,6.93962-.32744,5.91387-5.4517-.03808-.19023.39789-.47582.61293-.717,2.27016,1.88541,4.35973,4.076,7.79121,3.51854.79119-.12855,1.4037.72394,1.55452,1.63388-.03235.33661-.08424.82418-.31078.88609-6.122,1.67312-6.17438,5.99063-4.78028,10.95075.05412.7922.05692,1.58151.04036,2.37536-.30781,3.014-.45689,6.06587-2.15205,8.73571-1.57986.35678-1.84518-.84912-2.25281-1.89346a33.88351,33.88351,0,0,1-.2587-6.57708c-.00615-.75825.00391-1.52007.01868-2.27491-.00247-.65676-.01132.18635-.00458-.47716.08769-8.63645-1.31788-9.72079-9.60018-7.39634a4.36575,4.36575,0,0,1-1.36284.17405,2.64521,2.64521,0,0,1-1.21046-.59437C222.65164,352.51527,221.45818,351.92728,221.96368,350.5346Z"
     transform="translate(-0.39338 0)"
     id="path72" />
  <path
     class="cls-19"
     d="M218.94308,408.19324c3.06213,1.99264,5.02588.19726,6.38227-2.21006,2.00077-3.551,3.5744-7.341,5.47221-10.95412,1.32552-2.52358.18033-3.77918-1.99415-4.70138q.5159-.48611,1.03253-.97266c2.67388.38077,3.07034-1.63765,3.68936-3.47292.47264-1.40133-.00394-3.43895,2.32543-3.66646.10816.11944.3206.24987.30942.35675-.43935,4.19678,1.39407,7.17622,4.906,9.27131a2.075,2.075,0,0,1-1.09442,1.69582c-4.42023-.95525-6.61187.84757-7.78393,5.25757-1.12965,4.25033-3.92722,7.85151-6.30882,11.56047-1.8002,1.20921-3.86725.71505-5.82527.91676-1.275-.33485-3.19.32325-3.15529-2.04333A2.2283,2.2283,0,0,0,218.94308,408.19324Z"
     transform="translate(-0.39338 0)"
     id="path74" />
  <path
     class="cls-11"
     d="M215.93135,317.53478c3.78457,4.73337,4.41638,10.31122,5.81708,15.61417.4447,1.68367-.7982,2.34571-2.37041,2.3072-1.45847-.03569-3.34525.27872-3.40088-1.86345C215.83824,328.24327,215.93135,322.88782,215.93135,317.53478Z"
     transform="translate(-0.39338 0)"
     id="path76" />
  <path
     class="cls-12"
     d="M219.93345,403.39882q.00015.36513.02464.72857c-2.261-.085-1.6992,2.5696-4.03336,3.72119,0-5.4667-.014-10.533.01087-15.59907a1.72862,1.72862,0,0,1,1.75373-1.94231c1.64812-.00729,3.79365-.91072,4.1972,1.90555C221.73858,396.02969,220.50714,399.65657,219.93345,403.39882Z"
     transform="translate(-0.39338 0)"
     id="path78" />
  <path
     class="cls-20"
     d="M215.874,417.20178c5.31618-.59677,10.46686-2.5816,15.934-1.90825,1.40217,6.274-4.46639,4.01385-6.55984,4.63878-2.73128.81531-6.07753.88515-9.17037,1.14221A2.71274,2.71274,0,0,1,215.874,417.20178Z"
     transform="translate(-0.39338 0)"
     id="path80" />
  <path
     class="cls-21"
     d="M222.941,333.488a14.23558,14.23558,0,0,0,3.17327,1.02275c5.2749.42251,5.95767-.55258,4.03214-5.53-.70317-1.81777-1.455-3.61661-2.18405-5.42457q.46881-.49909.93661-.99751c1.87016,1.59944,2.37723,4.001,2.90844,6.1166,1.03093,4.10571,3.24535,5.14544,6.99062,3.85737a1.87377,1.87377,0,0,1,.42535,1.285c-3.25251,2.06924-2.15193,5.847-3.39387,8.70686-.45486-.15145-1.29448-.27252-1.30914-.45875-.595-7.5618-5.62961-6.396-10.55912-5.44951Q223.45162,335.05276,222.941,333.488Z"
     transform="translate(-0.39338 0)"
     id="path82" />
  <path
     class="cls-22"
     d="M215.96343,374.34779q.01944,6.96521.03924,13.93036c-1.995-2.30881-1.06023-5.09425-.957-7.60195.26374-6.40565-1.16739-12.89774.858-19.21873.18138-.18875.36275-.37747.54262-.5691a10.66861,10.66861,0,0,1,6.9613-.28011,3.82824,3.82824,0,0,1,1.3482.865c2.01636,2.937,1.63806,6.093.84353,9.28246a1.40343,1.40343,0,0,1-1.14633.83111c-1.68151-.72173-1.60786-2.33511-1.82641-3.76123-.24794-1.61781-.81947-2.882-2.689-2.9402a2.145,2.145,0,0,0-2.48272,1.87375c-.27217,1.71052-.1658,3.25151,1.682,4.19765,1.1495.58863,3.22478.33825,2.78574,2.6501C219.99211,374.33206,217.8355,373.18776,215.96343,374.34779Z"
     transform="translate(-0.39338 0)"
     id="path84" />
  <path
     class="cls-3"
     d="M209.97721,189.32439c-3.43353.49724-5.06923-.51178-4.72232-4.4521.38645-4.38968-.20019-8.86454.1729-13.25656.34719-4.08734-1.31581-5.1855-4.98349-4.71879-2.39439.30467-4.9232-.505-7.18964.88511q.47241-.75824.945-1.5175c3.20165-1.16916,6.66014.39639,9.8471-.92914,1.04535-1.85012,2.493-2.80729,4.19037-.99576,1.32261,1.41153.86,2.66571-1.21074,2.98882a86.08428,86.08428,0,0,0-.00121,20.901C208.1283,188.27185,209.33207,188.04157,209.97721,189.32439Z"
     transform="translate(-0.39338 0)"
     id="path86" />
  <path
     class="cls-23"
     d="M238.80281,333.55032l-.00473-1.01758c3.71229-1.05087,3.95922-2.97793,1.61841-5.811-1.31891-1.59628-2.35212-3.42972-3.51336-5.15679q.45738-.48514.91351-.96944c1.04629,1.25487,2.53936,2.34833,3.05929,3.79349,1.96981,5.47518,5.36815,5.71213,9.78328,3.14766.99887-.3815,1.16254.1318,1.02834.96427-3.03863,1.77568-7.70857,2.54582-4.87278,7.94233.45885.95313-.11626,1.22841-.89188,1.37245A13.69875,13.69875,0,0,0,238.80281,333.55032Z"
     transform="translate(-0.39338 0)"
     id="path88" />
  <path
     class="cls-24"
     d="M267.41327,385.37442c-5.59435-4.57077-5.55808,1.8514-7.72376,3.97458a1.84448,1.84448,0,0,1-1.41172-1.40655c1.5936-3.76312.93643-6.50227-3.388-7.68017a1.99927,1.99927,0,0,1-1.468-1.76962,2.27361,2.27361,0,0,1,1.32646-1.50835,2.35091,2.35091,0,0,1,1.43908-.01789c4.13176,1.99771,6.35075.6882,6.837-3.84178.04833-.45049.55935-.77006,1.0077-.996.90828-.11581,1.13028.62767,1.49387,1.19385a26.11022,26.11022,0,0,1-.79254,3.27763c-1.79352,4.74321.378,6.89769,4.8339,7.62777C269.15794,385.19178,268.28679,385.28536,267.41327,385.37442Z"
     transform="translate(-0.39338 0)"
     id="path90" />
  <path
     class="cls-25"
     d="M215.874,417.20178q.10086,1.93694.20275,3.87331-.663.0714-1.32817.144a54.9399,54.9399,0,0,1-15.69442-2.38818Q207.46365,418.01623,215.874,417.20178Z"
     transform="translate(-0.39338 0)"
     id="path92" />
  <path
     class="cls-3"
     d="M238.68714,277.167c-1.473-2.61146-.46266-5.44614-.71686-8.16743-.16978-1.81723,1.025-2.13291,2.50745-2.128,5.73509.01914,11.4705.03247,17.20534-.011,1.71079-.013,3.02311.35775,2.77371,2.40418-.30562,2.5077.93818,5.18343-.80106,7.53257-.00182-8.942-.00182-8.942-8.87716-8.942h-2.47721C239.02373,267.85537,239.02373,267.85537,238.68714,277.167Z"
     transform="translate(-0.39338 0)"
     id="path94" />
  <path
     class="cls-26"
     d="M221.96368,350.5346l1.92063,1.96737c-5.43573.47223-6.654,4.71-7.91676,8.90812l-.06336.04711a61.687,61.687,0,0,1,.17808-24.88074,61.41859,61.41859,0,0,1-.21212,7.79461C215.1277,349.3588,217.0922,351.30025,221.96368,350.5346Z"
     transform="translate(-0.39338 0)"
     id="path96" />
  <path
     class="cls-3"
     d="M176.04413,188.23162c-.42112,10.14929-.42112,10.14927,9.71191,10.14924l.49382,0c7.637,0,7.637,0,7.98049,7.69184l.297.586q-.19506.26413-.39023.52827l-1.014-.04775c-1.18266-7.47814-1.18333-7.41941-9.0442-7.50847-2.94-.03331-5.92722.52858-8.82386-.45138l-.09383-1.09727a23.27352,23.27352,0,0,1,.06592-9.78739Q175.635,188.25475,176.04413,188.23162Z"
     transform="translate(-0.39338 0)"
     id="path98" />
  <path
     class="cls-3"
     d="M256.1198,276.91655c-2.66658,2.63773-1.12155,5.89711-1.19986,8.88166-.03173,1.21071,1.36178,1.20591,2.32863,1.18932,7.07505-.12143,14.14961-.2724,21.22517-.41446-3.242,2.53841-6.9755.75138-10.46163,1.12815a44.57,44.57,0,0,1-8.41194.0017c-1.94513-.16081-4.965,1.334-5.57366-1.49568-.6194-2.87949-1.305-6.17042.68324-8.99821C254.91152,276.92205,255.63724,277.00518,256.1198,276.91655Z"
     transform="translate(-0.39338 0)"
     id="path100" />
  <path
     class="cls-27"
     d="M215.96342,374.34779c1.75967-1.798,4.03326-.61132,6.02823-1.04279.81874-1.25647,2.06877-1.39586,3.40325-1.32479,2.29923.19027,4.80255-.48672,6.663,1.571-.66648,1.92751-1.98862,1.30781-3.26981.84715-2.694-.16563-3.79756,1.08647-3.88965,3.80205-.0811,2.39061.72968,4.96382-.96,7.15526q-.47149-.51138-.943-1.02338a13.86252,13.86252,0,0,1,.00281-1.95035C224.10305,374.4528,224.10952,374.45371,215.96342,374.34779Z"
     transform="translate(-0.39338 0)"
     id="path102" />
  <path
     class="cls-3"
     d="M293.37434,266.87689l.03979.97848c-5.123,0-10.266.28006-15.36286-.08565-4.33655-.31116-6.20665,1.02532-5.524,5.495a22.24494,22.24494,0,0,1-.08594,3.968c-1.4756-2.60678-.54208-5.435-.69788-8.15717-.14991-2.61942,1.92432-2.12738,3.46861-2.13974C281.2659,266.88724,287.32021,266.892,293.37434,266.87689Z"
     transform="translate(-0.39338 0)"
     id="path104" />
  <path
     class="cls-28"
     d="M236.82758,413.2553c2.99684-.503,5.63266-2.66191,8.89493-1.94778-2.57612,3.15089-6.503,3.85962-9.96136,5.74907C234.58193,415.1792,237.30877,414.67683,236.82758,413.2553Z"
     transform="translate(-0.39338 0)"
     id="path106" />
  <path
     class="cls-29"
     d="M175.25505,199.17943c4.06182.00053,8.14595.26816,12.17939-.07074,4.35966-.36632,6.48914.93673,5.70739,5.59107a14.92329,14.92329,0,0,0-.01872,2.43955c.01116-7.97958-5.44-7.248-10.83415-7.04384C179.96789,200.18328,177.38,201.08,175.25505,199.17943Z"
     transform="translate(-0.39338 0)"
     id="path108" />
  <path
     class="cls-30"
     d="M287.32645,373.33753q2.05827,4.89112,4.11655,9.78221c-1.99853.77544-2.528-1.45928-3.92227-1.9232-.01233-1.39823-.99379-2.19976-1.87537-3.0627-.88351-1.24035-.158-2.55669-.18043-3.83771Q286.3957,373.81687,287.32645,373.33753Z"
     transform="translate(-0.39338 0)"
     id="path110" />
  <path
     class="cls-3"
     d="M220.95786,286.7127c7.91037.25555,15.82159.63577,23.725-.15615q.01967.612.03943,1.22455a124.2086,124.2086,0,0,1-23.75675-.00012Z"
     transform="translate(-0.39338 0)"
     id="path112" />
  <path
     class="cls-31"
     d="M220.96558,287.781q11.87894-.00014,23.75729-.00009A58.76217,58.76217,0,0,1,220.96558,287.781Z"
     transform="translate(-0.39338 0)"
     id="path114" />
  <path
     class="cls-32"
     d="M207.0252,188.2295a47.0664,47.0664,0,0,1,.00121-20.901Q207.02581,177.779,207.0252,188.2295Z"
     transform="translate(-0.39338 0)"
     id="path116" />
  <path
     class="cls-33"
     d="M285.46493,374.29613c1.9288,1.19105.55514,2.53792.18034,3.83768q-1.87843.04191-3.75426.08393c-.32737.00246-.65747.0047-.98758.007-.779-.36935-1.7517-.23273-2.407-.92545C280.44493,375.42552,283.31682,375.70448,285.46493,374.29613Z"
     transform="translate(-0.39338 0)"
     id="path118" />
  <path
     class="cls-34"
     d="M219.93345,403.39882c-.91348-4.00292.86122-7.53412,1.95338-11.18558q.46072.98915.92124,1.97848C222.038,397.31937,221.89759,400.645,219.93345,403.39882Z"
     transform="translate(-0.39338 0)"
     id="path120" />
  <path
     class="cls-3"
     d="M214.67525,303.57636c.24132-5.58528.71077-11.17394-.24945-16.74246,2.62917,1.30389,1.37847,3.72763,1.48164,5.65466.2003,3.74055.07731,7.49843.08854,11.24958l.01907-.01482Q215.3456,303.6502,214.67525,303.57636Z"
     transform="translate(-0.39338 0)"
     id="path122" />
  <path
     class="cls-35"
     d="M251.68755,328.5009q-.51372-.48177-1.02789-.9639c1.80771-1.61153-1.64456-3.313.084-4.92534,1.28632.76629,1.59951,3.43024,3.98519,2.05284q.48447.465.968.92888-.49493.97758-.99,1.955c.38068,1.04379-.073,1.26255-.99864,1.0146Z"
     transform="translate(-0.39338 0)"
     id="path124" />
  <path
     class="cls-3"
     d="M226.62815,276.81677c-7.7407-.03071-5.451,5.6635-5.64645,9.93928-2.03966-2.61377-1.43565-5.7895-.71528-8.35081C221.12524,275.35177,224.45386,277.36151,226.62815,276.81677Z"
     transform="translate(-0.39338 0)"
     id="path126" />
  <path
     class="cls-3"
     d="M187.874,286.71292q-.35461-.06124-.709-.12418a27.07146,27.07146,0,0,0-.03538-4.35438c-.78059-4.73295,1.50266-6.05363,5.70935-5.42181a4.91986,4.91986,0,0,0,.21666.61247c-3.80267.65455-5.1609,2.897-4.45671,6.645C188.76341,284.94557,188.95487,286.06891,187.874,286.71292Z"
     transform="translate(-0.39338 0)"
     id="path128" />
  <path
     class="cls-3"
     d="M137.58077,277.45521q.10891-.31752.19115-.643c4.30621-.66863,6.50563.78337,5.73745,5.51a27.83307,27.83307,0,0,0-.03728,4.40314c-1.76535-2.45822-.2257-5.3398-1.01059-7.92353C141.08826,277.42927,138.81626,279.32936,137.58077,277.45521Z"
     transform="translate(-0.39338 0)"
     id="path130" />
  <path
     class="cls-36"
     d="M239.77177,312.68438c2.1,1.91393,5.3051,2.69365,6.08963,5.95944-3.18171-.49243-4.64087-3.4262-7.05589-5.00638Z"
     transform="translate(-0.39338 0)"
     id="path132" />
  <path
     class="cls-3"
     d="M205.953,199.12638c6.66268-1.15,3.58981-6.20393,3.94441-9.88368,2.15352,2.5407,1.20123,5.57239.85475,8.26163C210.39791,200.25431,207.66986,198.81686,205.953,199.12638Z"
     transform="translate(-0.39338 0)"
     id="path134" />
  <path
     class="cls-37"
     d="M262.61722,345.54293c-2.83337-.78285-5.16082,2.80764-8.12151.94361q3.09543-1.46485,6.1958-2.92927Q261.65487,344.55057,262.61722,345.54293Z"
     transform="translate(-0.39338 0)"
     id="path136" />
  <path
     class="cls-38"
     d="M204.04678,165.33541c.1624.02855.37738.00252.47567.09762a3.262,3.262,0,0,1,.41493.6249q-5.3701.104-10.73895.20727C197.33357,164.37387,200.77562,165.76436,204.04678,165.33541Z"
     transform="translate(-0.39338 0)"
     id="path138" />
  <path
     class="cls-39"
     d="M206.00708,207.16176a15.89978,15.89978,0,0,1-11.87047.02516l.04036-.11653c3.34208-1.58318,6.86987-.76685,10.33238-.80485A4.92132,4.92132,0,0,1,206.00708,207.16176Z"
     transform="translate(-0.39338 0)"
     id="path140" />
  <path
     class="cls-3"
     d="M214.98985,266.729c3.91342.778,8.06654-.98043,11.8544,1.12556C222.91247,267.27066,218.75326,269.09375,214.98985,266.729Z"
     transform="translate(-0.39338 0)"
     id="path142" />
  <path
     class="cls-3"
     d="M170.20549,267.27236q-5.40751-.1272-10.81551-.25375C163.03714,265.28677,166.65489,264.83768,170.20549,267.27236Z"
     transform="translate(-0.39338 0)"
     id="path144" />
  <path
     class="cls-40"
     d="M287.82005,276.87949q-.1232,4.93628-.24592,9.87285C285.95644,283.41915,285.54075,280.11567,287.82005,276.87949Z"
     transform="translate(-0.39338 0)"
     id="path146" />
  <path
     class="cls-3"
     d="M210.99972,286.82746c-2.15415-2.426-.27266-5.42266-1.13031-8.032a1.8487,1.8487,0,0,1-.44113-1.06572,1.44206,1.44206,0,0,1,.65794-.92421C211.93894,280.00441,210.58463,283.49694,210.99972,286.82746Z"
     transform="translate(-0.39338 0)"
     id="path148" />
  <path
     class="cls-3"
     d="M177.23305,286.69609c-1.81528-3.10881.16228-6.67042-1.16895-9.83792C178.49026,279.89375,176.683,283.43561,177.23305,286.69609Z"
     transform="translate(-0.39338 0)"
     id="path150" />
  <path
     class="cls-41"
     d="M273.4935,363.4888l-6.86662-.01439c.16746-2.896,2.93311-.66557,3.89936-1.9855q1.47674-.086,2.95283-.17283Q273.48557,362.40154,273.4935,363.4888Z"
     transform="translate(-0.39338 0)"
     id="path152" />
  <path
     class="cls-42"
     d="M204.95606,276.90589c-1.7885-2.503-.29474-5.42345-1.02025-8.06167q-.42014-.2982-.3108-.63392.112-.345.24175-.34509a1.80408,1.80408,0,0,0,.042-.95349C206.25952,270.03211,204.58233,273.577,204.95606,276.90589Z"
     transform="translate(-0.39338 0)"
     id="path154" />
  <path
     class="cls-32"
     d="M175.22714,188.29477q-.03221,4.89518-.06517,9.78886A11.118,11.118,0,0,1,175.22714,188.29477Z"
     transform="translate(-0.39338 0)"
     id="path156" />
  <path
     class="cls-43"
     d="M278.29934,286.72914q.00936-4.30347.0186-8.60684C280.38526,280.99577,280.131,283.86417,278.29934,286.72914Z"
     transform="translate(-0.39338 0)"
     id="path158" />
  <path
     class="cls-3"
     d="M291.37018,383.56668c2.33108-1.24506.63072-3.92523,1.95834-5.52934.00924,1.90938.35853,3.90007-.06245,5.71083C292.79487,385.77476,291.89811,384.956,291.37018,383.56668Z"
     transform="translate(-0.39338 0)"
     id="path160" />
  <path
     class="cls-3"
     d="M204.03237,266.939q-4.44565-.09737-8.89127-.19479C198.135,265.42832,201.10668,265.12968,204.03237,266.939Z"
     transform="translate(-0.39338 0)"
     id="path162" />
  <path
     class="cls-3"
     d="M159.52,266.88867q-.128,4.45136-.25609,8.90265C157.9572,272.78351,157.55,269.80175,159.52,266.88867Z"
     transform="translate(-0.39338 0)"
     id="path164" />
  <path
     class="cls-44"
     d="M216.89837,409.231q1.5767,1.02132,3.15433,2.043c-1.25007,1.02961-2.72643.83837-4.18027.77513C215.90372,410.99591,215.74412,409.87287,216.89837,409.231Z"
     transform="translate(-0.39338 0)"
     id="path166" />
  <path
     class="cls-3"
     d="M293.52577,373.32845c-.02706-3.13259-.342-6.28949.78264-9.32789C294.08413,367.111,295.27205,370.34339,293.52577,373.32845Z"
     transform="translate(-0.39338 0)"
     id="path168" />
  <path
     class="cls-3"
     d="M294.516,358.39959c-.58142-1.32743.86712-3.22408-1.15747-4.1468l.05637-1.79314.00606-.00486C296.90253,353.85965,295.409,356.18519,294.516,358.39959Z"
     transform="translate(-0.39338 0)"
     id="path170" />
  <path
     class="cls-45"
     d="M253.70817,328.563l.99846-1.01439q1.44873,2.02336,2.89659,4.04766l-.96213.99629Q255.17431,330.578,253.70817,328.563Z"
     transform="translate(-0.39338 0)"
     id="path172" />
  <path
     class="cls-3"
     d="M206.00708,207.16176q-.472-.00348-.94388-.012a2.80071,2.80071,0,0,1-.70774-1.45044c.6126-2.079-.42239-4.3593.77121-6.368a1.49707,1.49707,0,0,1,.84972-.24827Q205.99159,203.12219,206.00708,207.16176Z"
     transform="translate(-0.39338 0)"
     id="path174" />
  <path
     class="cls-3"
     d="M293.41489,352.45965c-1.2695-.1433-2.19187-.67009-1.64736-2.10286a1.67078,1.67078,0,0,1,1.522-.63255c1.65027.74062.32526,1.79283.13134,2.73058Z"
     transform="translate(-0.39338 0)"
     id="path176" />
  <path
     class="cls-3"
     d="M278.49647,377.29924q1.201.46267,2.40445.92539c-1.39775-.74041-4.329,2.05572-4.342-1.88936Q277.52772,376.81722,278.49647,377.29924Z"
     transform="translate(-0.39338 0)"
     id="path178" />
  <path
     class="cls-46"
     d="M176.20376,277.03835c-1.98882-.28728-4.378,1.37057-5.893-1.21857C172.27667,276.21839,174.61226,274.82076,176.20376,277.03835Z"
     transform="translate(-0.39338 0)"
     id="path180" />
  <path
     class="cls-3"
     d="M154.40958,277.95968c-.31358.10889-.62719.21778-.9415.329,1.28985-2.60991,3.69072-1.02663,5.554-1.47453a2.785,2.785,0,0,0,.27018.54729C157.85089,279.08752,156.0886,278.18217,154.40958,277.95968Z"
     transform="translate(-0.39338 0)"
     id="path182" />
  <path
     class="cls-47"
     d="M293.44992,354.74076c-.03385,1.3195.27592,2.72217-.90585,3.764q-.56061-1.0502-1.12256-2.10092C291.6434,355.29288,292.546,355.01595,293.44992,354.74076Z"
     transform="translate(-0.39338 0)"
     id="path184" />
  <path
     class="cls-42"
     d="M210.08622,276.80556a7.96579,7.96579,0,0,1-.0624.95838,4.84955,4.84955,0,0,1-4.841-.055,3.26733,3.26733,0,0,1-.25653-.80313Q207.50586,276.8561,210.08622,276.80556Z"
     transform="translate(-0.39338 0)"
     id="path186" />
  <path
     class="cls-3"
     d="M128.47773,308.65114c2.76228-9.56272,8.70536-14.98076,17.59609-16.0416a6.71109,6.71109,0,0,1,6.6219.02573c13.9497,3.6459,17.76781,12.65477,17.53092,20.89714-.43162,15.01892-13.46452,24.304-26.92143,20.42849-8.13221-2.342-13.18491-7.90509-14.93689-16.31145-.01057-.21475-.02114-.4295-.035-.64434.11293-2.5696.04567-5.14109.07441-7.71163C128.429,309.07931,128.45336,308.86522,128.47773,308.65114Z"
     transform="translate(-0.39338 0)"
     id="path188" />
  <path
     class="cls-48"
     d="M198.29726,419.01864a.82431.82431,0,0,1,.70849.17116c-5.86839,2.156-11.83817.33725-17.7676-.17116Z"
     transform="translate(-0.39338 0)"
     id="path190" />
  <path
     class="cls-49"
     d="M203.86676,267.86521q.03459.48953.06911.979c-.48983.00179-.97959.00462-1.46937.00522-7.03351.00839-7.03351.00833-7.68145,6.72923C192.91861,267.86051,192.91861,267.86051,203.86676,267.86521Z"
     transform="translate(-0.39338 0)"
     id="path192" />
  <path
     class="cls-50"
     d="M154.40958,277.95968c1.5385-.92983,3.26991-.273,4.88242-.59729-3.53132,1.69214-4.92918,4.51832-4.88242,8.36545Z"
     transform="translate(-0.39338 0)"
     id="path194" />
  <path
     class="cls-51"
     d="M187.874,286.71292a32.38011,32.38011,0,0,0-.071-3.90509c-.55236-4.10716.80983-6.22561,5.25258-5.38226C187.77557,278.52966,190.27078,283.99226,187.874,286.71292Z"
     transform="translate(-0.39338 0)"
     id="path196" />
  <path
     class="cls-52"
     d="M177.41125,288.01532H186.105l.005.48077h-8.5937Z"
     transform="translate(-0.39338 0)"
     id="path198" />
  <path
     class="cls-52"
     d="M143.73328,288.04074h8.643l-.00263.48071h-8.69286Z"
     transform="translate(-0.39338 0)"
     id="path200" />
  <path
     class="cls-53"
     d="M127.63306,317.517c-1.51481-2.8858-1.462-5.35593.18734-8.76976A10.52793,10.52793,0,0,1,127.63306,317.517Z"
     transform="translate(-0.39338 0)"
     id="path202" />
  <path
     class="cls-53"
     d="M146.62519,291.82551a1.33116,1.33116,0,0,1-.47626-.115,5.66085,5.66085,0,0,1-.60463-.57149c2.51273-.83913,5.08013-.27037,7.62439-.28155.04562-.00018.15331.32869.12932.34418-.3716.24-.76027.45349-1.145.6731A8.86687,8.86687,0,0,1,146.62519,291.82551Z"
     transform="translate(-0.39338 0)"
     id="path204" />
  <path
     class="cls-54"
     d="M127.63306,317.517q.09246-4.38529.18613-8.77019a5.92262,5.92262,0,0,0,.65854-.09565l.4095.08964a39.70045,39.70045,0,0,1-.06269,8.83391l-.45619.07476A3.20253,3.20253,0,0,1,127.63306,317.517Z"
     transform="translate(-0.39338 0)"
     id="path206" />
  <path
     class="cls-55"
     d="M145.30592,336.19893c2.79039-.81948,4.337-.75341,5.92621,0Z"
     transform="translate(-0.39338 0)"
     id="path208" />
  <path
     class="cls-56"
     d="M146.62519,291.82551q2.76438.02433,5.52828.049a5.45494,5.45494,0,0,0,.54129.761q-3.308-.013-6.61941-.02572Q146.35935,292.22489,146.62519,291.82551Z"
     transform="translate(-0.39338 0)"
     id="path210" />
  <path
     class="cls-57"
     d="M205.18286,277.709q2.42048.02753,4.84095.055l-.15439,1.03149C208.34521,278.26868,206.32714,279.88218,205.18286,277.709Z"
     transform="translate(-0.39338 0)"
     id="path212" />
  <path
     class="cls-50"
     d="M137.58077,277.45521c1.60952.51227,3.81676-1.152,4.88074,1.34663C140.7988,278.48327,138.71994,279.68013,137.58077,277.45521Z"
     transform="translate(-0.39338 0)"
     id="path214" />
  <path
     class="cls-2"
     d="M249.6712,168.32057c.037.32935.09839.658.10743.98813.19366,7.06971.19254,7.06954-6.6671,7.072-2.48073.00089-4.9664.10167-7.44087-.02221-2.68093-.13419-3.84621,1.49434-3.46171,3.64423.4451,2.48871,2.34452.691,3.55855.50012,7.05061-1.10857,12.99793,1.09853,15.6525,5.91047,2.55624,4.6337,1.90637,12.09412-1.39022,15.95915-7.03212,8.24473-23.864,7.1929-29.199-1.76873-1.76369-2.96262-1.73161-4.72858,2.30647-4.9835,3.3851-.21366,6.601-1.23374,9.66819,1.76868,1.99416,1.952,5.09056,1.50109,7.24107-.537,2.07718-1.9686,2.05709-4.49474.51357-6.809a4.77319,4.77319,0,0,0-6.9853-1.49012c-3.75084,2.61035-7.36967.16641-11.01193.51317-1.58077.15049-1.68748-1.307-1.44635-2.52918,1.21089-6.137,2.45695-12.26708,3.69065-18.3996C233.10765,166.502,241.40046,165.90727,249.6712,168.32057Z"
     transform="translate(-0.39338 0)"
     id="path216" />
  <path
     class="cls-58"
     d="M249.6712,168.32057c-8.19487.40714-16.44153-.86237-24.60642.7258-.02591.005-.16828-.59144-.25694-.90808a1.60027,1.60027,0,0,1,.07243-.83354,64.31182,64.31182,0,0,1,24.81415.05666A1.67135,1.67135,0,0,1,249.6712,168.32057Z"
     transform="translate(-0.39338 0)"
     id="path218" />
  <path
     class="cls-59"
     d="M249.69442,167.36143q-12.407-.02823-24.81406-.05656a9.0149,9.0149,0,0,1,.01952-.97319,127.973,127.973,0,0,1,24.82524.00756Z"
     transform="translate(-0.39338 0)"
     id="path220" />
  <path
     class="cls-60"
     d="M249.72512,166.33923q-12.41262-.00376-24.82524-.00753A63.36666,63.36666,0,0,1,249.72512,166.33923Z"
     transform="translate(-0.39338 0)"
     id="path222" />
  <path
     class="cls-55"
     d="M228.692,268.30662v7.33411A9.66066,9.66066,0,0,1,228.692,268.30662Z"
     transform="translate(-0.39338 0)"
     id="path224" />
  <path
     class="cls-20"
     d="M225.87893,410.35756c-1.33778-1.106-.45323-1.98559.29134-2.88037a25.11531,25.11531,0,0,0,5.41958-10.365c1.20925-5.47527,3.93519-5.89334,8.23336-3.94168,2.938-.85754,3.55973.71149,2.959,3.08266-.48217,1.90327-1.84837,3.40864-2.93255,5.02089a27.38123,27.38123,0,0,1-5.20305,6.05057,21.61165,21.61165,0,0,1-2.65278,1.76978Q228.93639,409.72595,225.87893,410.35756Z"
     transform="translate(-0.39338 0)"
     id="path226" />
  <path
     class="cls-61"
     d="M238.79057,401.20835c.89932-1.48884,1.77315-2.99387,2.70406-4.46261,1.33176-2.10122.65845-3.21618-1.67181-3.57448q.53671-.47676,1.07267-.95191c4.49547-3.86691,5.42077-9.27669,6.31172-14.699a4.38934,4.38934,0,0,1,1.76817-2.83535,2.091,2.091,0,0,1,1.84278-.55045c1.3352,1.05009,2.96874,1.7576,3.87226,3.31953l-1.11626.94076c-3.64448,3.32423-4.02,8.19222-5.73017,12.41226-.84373,2.08209,1.14049,2.76837,2.58961,3.549,1.615.87,2.72791.35948,3.7911-1.04829,1.35575-1.79511,2.03659-4.23772,4.52114-5.0181q.47151.52911.94334,1.05877c-.51145,2.43875-2.18833,4.2228-3.558,6.14889-1.34281,1.88827-1.38942,3.41486.59338,4.79269q-.92481.50214-1.85055,1.004a9.022,9.022,0,0,1-2.59166-.39381,5.73631,5.73631,0,0,1-1.61965-1.18947c-4.72482-3.60009-4.72823-3.60294-8.34836.74309a5.323,5.323,0,0,1-2.585,2.073C238.96722,402.40806,238.33782,402.19352,238.79057,401.20835Z"
     transform="translate(-0.39338 0)"
     id="path228" />
  <path
     class="cls-16"
     d="M239.74683,402.20671c.57394-.79752,1.174-1.57757,1.71762-2.39538,3.73041-5.61232,4.8034-5.6799,10.2204-.61435a7.40479,7.40479,0,0,1-4.10774,5.00537c-3.674,2.17677-7.76063,3.1079-11.87584,3.95283C234.859,404.67547,238.10545,403.98942,239.74683,402.20671Z"
     transform="translate(-0.39338 0)"
     id="path230" />
  <path
     class="cls-62"
     d="M204.991,414.89981H186.43137l-.01073-.39888h18.56169Z"
     transform="translate(-0.39338 0)"
     id="path232" />
  <path
     class="cls-21"
     d="M239.74681,402.20671c-.90383,2.28578-3.66215,3.30539-4.04408,5.94847l-.435.11111-.44736-.01133a1.7978,1.7978,0,0,1-.93044-1.02474q2.45043-3.01083,4.90075-6.02171Z"
     transform="translate(-0.39338 0)"
     id="path234" />
  <path
     class="cls-63"
     d="M247.57711,404.20235c1.393-1.6488,2.198-3.78252,4.108-5.00507l.96744,1.02147c.71428,1.891-1.09754,2.11392-1.9516,2.96927Q249.13905,403.69517,247.57711,404.20235Z"
     transform="translate(-0.39338 0)"
     id="path236" />
  <path
     class="cls-64"
     d="M250.701,403.188q.97626-1.48455,1.952-2.96918a2.148,2.148,0,0,1,2.21937,1.07538A7.35793,7.35793,0,0,1,250.701,403.188Z"
     transform="translate(-0.39338 0)"
     id="path238" />
  <path
     class="cls-65"
     d="M233.8899,407.23022q.46566.51212.93087,1.02447a3.09665,3.09665,0,0,1-2.82845.84035Q232.94264,408.16192,233.8899,407.23022Z"
     transform="translate(-0.39338 0)"
     id="path240" />
  <path
     class="cls-66"
     d="M194.01857,178.29163c.51675,13.33913,1.37717,10.94469-8.81534,10.71439Z"
     transform="translate(-0.39338 0)"
     id="path242" />
  <path
     class="cls-67"
     d="M205.12667,199.33133q-.02127,3.4261-.04257,6.85218c-3.33464.61975-6.66388.9497-9.96578-.18672.74162-.28,1.52433-.8783,2.21822-.78836,4.6018.59646,7.676-.43173,6.96648-5.98757a.65193.65193,0,0,1,.40168-.132A1.34847,1.34847,0,0,1,205.12667,199.33133Z"
     transform="translate(-0.39338 0)"
     id="path244" />
  <path
     class="cls-68"
     d="M195.11832,205.99679q4.98289.09334,9.96578.18671a1.43909,1.43909,0,0,1-.021.96626q-5.44314-.03945-10.8863-.07917.02691-.49913.05352-.99787A2.56215,2.56215,0,0,0,195.11832,205.99679Z"
     transform="translate(-0.39338 0)"
     id="path246" />
  <path
     class="cls-13"
     d="M238.80281,333.55032c3.94384-1.55381,6.182-.057,7.02024,3.94351,2.47324,1.69576,1.69323,5.20834,3.91561,7.04418q-.00693.39447-.01251.78895c.07021,1.7703-1.0675,2.74137-2.36612,3.61179a2.48411,2.48411,0,0,1-2.42.49908c-.71036-.29414-1.61635-1.02948-2.10063-.81376-4.53754,2.02134-6.19242-.42276-7.01007-4.32893q.00018-.88768.00017-1.77091a5.85083,5.85083,0,0,0-.18954-1.90928C233.93466,336.98624,234.76092,334.56222,238.80281,333.55032Z"
     transform="translate(-0.39338 0)"
     id="path248" />
  <path
     class="cls-69"
     d="M246.59483,348.52088q1.56569-1.59511,3.13132-3.1921,1.99,1.065,3.98008,2.13346c-1.438.98575-2.91132,1.80364-2.03332,4.10911,1.20632,3.16746.41206,6.7846,1.994,9.909a5.48036,5.48036,0,0,1,.408,3.02179c-.386,2.19946.63287,4.88947-2.14187,6.26714-3.72407-1.30809-1.95107-4.14186-1.81364-6.5232a25.235,25.235,0,0,0-.1244-2.87374C249.73937,356.85617,249.36853,352.37075,246.59483,348.52088Z"
     transform="translate(-0.39338 0)"
     id="path250" />
  <path
     class="cls-70"
     d="M249.73866,344.538c-3.24986-1.26152-2.467-4.77608-3.91617-7.04375q.496-.52524.99161-1.05033C248.48577,338.88879,248.94886,341.77267,249.73866,344.538Z"
     transform="translate(-0.39338 0)"
     id="path252" />
  <path
     class="cls-70"
     d="M270.52624,361.48891c-.85591,1.538-3.13357.26869-3.89948,1.98483-.3308,2.33222.74285,4.85444-.94564,7.00178a3.97591,3.97591,0,0,1-1.85658-2.38915,10.9013,10.9013,0,0,1-.3071-4.642,4.49277,4.49277,0,0,1,1.09694-2.04367q.04665-2.51178.09325-5.0236c.63321-.52612.17113-1.57827.96828-2.02565,1.1161,1.0324,1.0274,2.42827.89855,3.704C266.25814,361.18774,268.1023,361.62845,270.52624,361.48891Z"
     transform="translate(-0.39338 0)"
     id="path254" />
  <path
     class="cls-71"
     d="M264.61438,361.40073q.00465.99775.00925,1.99552a11.6709,11.6709,0,0,1-11.83687.14711q.4404-1.03212.88045-2.06366Q259.14044,361.44084,264.61438,361.40073Z"
     transform="translate(-0.39338 0)"
     id="path256" />
  <path
     class="cls-72"
     d="M265.67594,354.35148q-.48485,1.01352-.969,2.02632c.69257-2.37293-2.17056-4.70075-.08751-7.0923C266.07641,350.74151,265.49821,352.62565,265.67594,354.35148Z"
     transform="translate(-0.39338 0)"
     id="path258" />
  <path
     class="cls-12"
     d="M247.76182,377.28648c1.27168,5.26933-2.77609,14.07035-6.86733,14.93332-5.854-1.21924-6.99892-4.82513-5.04406-10.003q-.022-.35548-.02228-.70946Q236.35426,370.20868,247.76182,377.28648Z"
     transform="translate(-0.39338 0)"
     id="path260" />
  <path
     class="cls-73"
     d="M247.76182,377.28648a18.95729,18.95729,0,0,1-2.4112-.24634c-7.25255-1.66228-7.25038-1.67176-9.52251,4.4651.10475-4.80542-2.52-6.89823-7.03924-7.10727,1.079-.10552,2.27058.15419,3.04885-.93708,1.49812-1.28607,2.81654-2.85139,4.92726-3.18545q.47344,1.04087.94688,2.08175c4.00018,1.00416,8.307.7662,12.00894,2.97827Q248.7413,376.31094,247.76182,377.28648Z"
     transform="translate(-0.39338 0)"
     id="path262" />
  <path
     class="cls-74"
     d="M264.71748,368.40952q.48111,1.032.96291,2.065-.07585,1.42536-.15385,2.84835-.4722-.51471-.943-1.02857A2.59013,2.59013,0,0,1,264.71748,368.40952Z"
     transform="translate(-0.39338 0)"
     id="path264" />
  <path
     class="cls-14"
     d="M249.7208,375.33546c-4.15981-.3552-8.64741.61739-12.00808-2.97824q.53732-4.48908,1.07636-8.9781a13.56326,13.56326,0,0,1,12.8658.15922c-.21141,2.3332-2.1333,4.68092.05908,6.9937,1.11136,1.647.28166,2.78627-.99175,3.8095Q250.2215,374.83847,249.7208,375.33546Z"
     transform="translate(-0.39338 0)"
     id="path266" />
  <path
     class="cls-12"
     d="M246.59483,348.52088c5.64207,2.94452,3.9436,8.25127,4.14684,12.946a16.57364,16.57364,0,0,1-11.93753-.05608c-.01206-.16359-.01038-.32956-.03814-.49045-1.4799-8.57361-1.48014-8.57358,6.17215-11.4821Q245.76834,348.97916,246.59483,348.52088Z"
     transform="translate(-0.39338 0)"
     id="path268" />
  <path
     class="cls-14"
     d="M236.765,370.27544c-.94138,2.1511-2.23505,3.75448-4.92716,3.18456-2.29009-.55421-4.84495.7094-6.96417-1.01812q-.4314-.35643-.26846-.68744.1593-.32441.3116-.32458l-.03953-.187c1.53489-2.6175-.59473-5.81179,1.31249-8.376,3.6103-1.15357,7.18329-1.60341,10.62148.54793Q236.7881,366.84512,236.765,370.27544Z"
     transform="translate(-0.39338 0)"
     id="path270" />
  <path
     class="cls-13"
     d="M224.91154,353.45117a8.2352,8.2352,0,0,1,9.61922-1.52732c3.37436,1.63054,2.07151,6.09989,2.26729,9.45862-3.38032,1.80839-6.92982.96953-10.44406.67517-2.26646-1.58646-1.58789-4.01777-1.77264-6.20323A12.04763,12.04763,0,0,1,224.91154,353.45117Z"
     transform="translate(-0.39338 0)"
     id="path272" />
  <path
     class="cls-75"
     d="M215.96755,361.41009c-.0103-.32349-.03454-.64723-.02888-.97044.1542-8.81721-1.43825-8.00591,7.94584-7.93808q.046.46737.11421.93126c1.16414,2.67445,1.52783,5.33974-.09123,7.98224Q219.93753,361.41261,215.96755,361.41009Z"
     transform="translate(-0.39338 0)"
     id="path274" />
  <path
     class="cls-71"
     d="M238.80414,361.41084q5.96847.02757,11.93724.05559.4575,1.03507.914,2.07055-6.43347-.07733-12.86612-.15762Q238.79656,362.39487,238.80414,361.41084Z"
     transform="translate(-0.39338 0)"
     id="path276" />
  <path
     class="cls-71"
     d="M225.93581,361.34369q5.43135.01982,10.86247.03921.00632,1.01539.013,2.03173-5.44425.02174-10.88837.04325A1.44563,1.44563,0,0,1,225.93581,361.34369Z"
     transform="translate(-0.39338 0)"
     id="path278" />
  <path
     class="cls-22"
     d="M223.90749,361.41507q.04485-3.991.09045-7.98209.45734.01686.9135.01819.45033.5298.90047,1.05956c-1.60163,2.04831,1.37232,5.31149-1.83254,6.93413Z"
     transform="translate(-0.39338 0)"
     id="path280" />
  <path
     class="cls-13"
     d="M224.9168,371.42986q-.02136.50541-.04295,1.01144-1.44188.43293-2.88281.86422c-2.5681-1.36166-7.2574-.13587-6.197-5.83.48209-2.5887.55976-4.24324,3.81082-4.1889,2.95308.04936,4.762.54,4.38057,4.036C223.8337,368.71339,223.51,370.317,224.9168,371.42986Z"
     transform="translate(-0.39338 0)"
     id="path282" />
  <path
     class="cls-18"
     d="M223.97937,361.44486c2.10931-1.91393-.26451-5.0188,1.83318-6.93489q.06063,3.41824.12288,6.83432-.00613,1.05576-.01277,2.11317c-.50179,2.57543,1.00876,5.42184-1.04516,7.78647C224.68325,367.96715,225.58007,364.591,223.97937,361.44486Z"
     transform="translate(-0.39338 0)"
     id="path284" />
  <path
     class="cls-11"
     d="M250.72221,374.34154q.49586-1.9065.99175-3.81126c1.76805-2.11146.70721-4.66014,1.072-6.98823q5.91963-.07154,11.83765-.14571.04614,2.50632.09306,5.013-.06541,1.94335-.13279,3.88565c-.11043.11682-.27995.216-.32216.35435-2.25884,7.399-2.25769,7.39941-9.57129,4.80377C252.95554,376.94446,251.00383,376.71255,250.72221,374.34154Z"
     transform="translate(-0.39338 0)"
     id="path286" />
  <path
     class="cls-12"
     d="M258.74584,388.28972c-.86206,1.405-1.69473,2.82918-2.59158,4.2115-2.99866,4.62184-5.39161,4.974-9.44377,1.51688a1.81738,1.81738,0,0,1-.73406-2.12719c1.37263-4.05225,2.73381-8.10973,4.20435-12.12662.572-1.56262,2.08143-1.35629,3.39454-1.37a12.49136,12.49136,0,0,0,1.63254.94356C261.72334,381.93082,261.726,381.92405,258.74584,388.28972Z"
     transform="translate(-0.39338 0)"
     id="path288" />
  <path
     class="cls-4"
     d="M167.11648,318.5664c-1.603,6.9276-6.122,10.97468-12.73549,12.95289-3.92673.45283-5.32428-1.58473-5.33113-5.23531-.01491-7.93789-.04963-15.87609.00482-23.81359.04175-6.09108.33486-6.33587,6.29483-6.5727,6.47633,1.91907,10.22739,6.356,11.787,12.81751A75.9306,75.9306,0,0,1,167.11648,318.5664Z"
     transform="translate(-0.39338 0)"
     id="path290" />
  <path
     class="cls-76"
     d="M155.34951,295.89769c-3.9763.64412-5.28728,2.76868-5.04505,6.93875.42891,7.38419.32638,14.81975.02829,22.21688-.13714,3.40351.79517,5.50161,4.04824,6.466-1.41407,1.26082-3.16571.78027-4.79443.93378a3.43248,3.43248,0,0,1-1.09166-2.66683c.07685-11.39043-.41723-22.78541.2614-34.16973,1.5094-2.6915,3.0882-.69145,4.64723-.06585Q154.37652,295.72415,155.34951,295.89769Z"
     transform="translate(-0.39338 0)"
     id="path292" />
  <path
     class="cls-77"
     d="M149.43257,294.72924q.07693,18.862.15393,37.72386-.55578.04879-1.11168.09775c-1.13072-7.1836-.41583-14.41523-.45429-21.6203-.0288-5.395-.66516-10.82862.41938-16.20162l.00292.01777A.59442.59442,0,0,1,149.43257,294.72924Z"
     transform="translate(-0.39338 0)"
     id="path294" />
  <path
     class="cls-40"
     d="M148.43991,294.72893q.01709,18.91091.03455,37.82185c-.3215-.54674-.92155-1.09218-.92423-1.64053q-.08372-17.2595-.00588-34.51946C147.54682,295.83551,148.12814,295.28281,148.43991,294.72893Z"
     transform="translate(-0.39338 0)"
     id="path296" />
  <path
     class="cls-49"
     d="M167.11648,318.5664a12.82,12.82,0,0,1,.02-9.8512A10.98028,10.98028,0,0,1,167.11648,318.5664Z"
     transform="translate(-0.39338 0)"
     id="path298" />
  <path
     class="cls-78"
     d="M128.82454,317.57469a27.41719,27.41719,0,0,1,.06213-8.83418A12.04464,12.04464,0,0,1,128.82454,317.57469Z"
     transform="translate(-0.39338 0)"
     id="path300" />
  <path
     class="cls-56"
     d="M149.43257,294.72924l-.49508-.00416-.49466.02144c1.92418-1.40932,3.72823-2.07416,4.96072.80414C151.8912,296.19317,150.96021,294.0123,149.43257,294.72924Z"
     transform="translate(-0.39338 0)"
     id="path302" />
</svg>
