<svg version="1.1" id="Layer_1" xmlns="http://www.w3.org/2000/svg" xmlns:xlink="http://www.w3.org/1999/xlink" x="0px" y="0px"
	 width="100%" viewBox="0 0 353 457" enable-background="new 0 0 353 457" xml:space="preserve">
<path fill="#FFFFFF" opacity="1.000000" stroke="none" 
	d="
M190.000000,458.000000 
	C126.686058,458.000000 63.872112,458.000000 1.029083,458.000000 
	C1.029083,305.733063 1.029083,153.466125 1.029083,1.099592 
	C118.563889,1.099592 236.127899,1.099592 353.845947,1.099592 
	C353.845947,153.333206 353.845947,305.666595 353.845947,458.000000 
	C299.466187,458.000000 244.983093,458.000000 190.000000,458.000000 
M151.547791,67.127975 
	C146.408569,80.760025 141.275925,94.394562 136.128098,108.023369 
	C131.685669,119.784660 127.312706,131.573181 122.753860,143.289276 
	C115.679138,161.471100 108.418533,179.580597 101.344711,197.762772 
	C97.807312,206.855103 94.597946,216.074768 91.083931,225.176529 
	C83.523872,244.758041 75.793785,264.274017 68.266342,283.867950 
	C63.009621,297.551208 58.085617,311.362427 52.813774,325.039703 
	C43.998272,347.910645 34.997322,370.710083 26.124607,393.559082 
	C19.629120,410.286316 13.185272,427.033813 6.786288,443.798157 
	C5.430725,447.349518 4.369953,451.013428 3.173354,454.625458 
	C7.761941,453.231567 11.262446,451.074707 14.847528,449.069000 
	C38.354599,435.917419 61.916454,422.863373 85.389771,409.651978 
	C112.888443,394.174957 140.272095,378.493347 167.796310,363.062225 
	C177.617783,357.555939 177.729584,357.787659 187.325333,363.232635 
	C214.317078,378.548737 241.313828,393.856018 268.314758,409.155914 
	C289.997253,421.442230 311.676208,433.734985 333.385010,445.974670 
	C338.966278,449.121399 344.654388,452.078583 350.293427,455.122833 
	C350.657288,454.863098 351.021149,454.603363 351.385010,454.343628 
	C293.442657,303.691803 235.500275,153.040009 177.123810,1.259499 
	C168.315628,24.026562 160.110748,45.234261 151.547791,67.127975 
z"/>
<path fill="#8BACCF" opacity="1.000000" stroke="none" 
	d="
M151.726822,66.784966 
	C160.110748,45.234261 168.315628,24.026562 177.123810,1.259499 
	C235.500275,153.040009 293.442657,303.691803 351.385010,454.343628 
	C351.021149,454.603363 350.657288,454.863098 350.293427,455.122833 
	C344.654388,452.078583 338.966278,449.121399 333.385010,445.974670 
	C311.676208,433.734985 289.997253,421.442230 268.314758,409.155914 
	C241.313828,393.856018 214.317078,378.548737 187.325333,363.232635 
	C177.729584,357.787659 177.617783,357.555939 167.796310,363.062225 
	C140.272095,378.493347 112.888443,394.174957 85.389771,409.651978 
	C61.916454,422.863373 38.354599,435.917419 14.847528,449.069000 
	C11.262446,451.074707 7.761941,453.231567 3.173354,454.625458 
	C4.369953,451.013428 5.430725,447.349518 6.786288,443.798157 
	C13.185272,427.033813 19.629120,410.286316 26.124607,393.559082 
	C34.997322,370.710083 43.998272,347.910645 52.813774,325.039703 
	C58.085617,311.362427 63.009621,297.551208 68.266342,283.867950 
	C75.793785,264.274017 83.523872,244.758041 91.083931,225.176529 
	C94.597946,216.074768 97.807312,206.855103 101.344711,197.762772 
	C108.418533,179.580597 115.679138,161.471100 122.753860,143.289276 
	C127.312706,131.573181 131.685669,119.784660 136.128098,108.023369 
	C141.275925,94.394562 146.408569,80.760025 151.726822,66.784966 
M245.093079,220.737793 
	C243.225021,216.546738 241.356964,212.355698 239.229935,207.346924 
	C238.729294,205.099045 238.502731,202.746201 237.687912,200.618652 
	C218.097061,149.465775 198.446243,98.335838 178.780807,47.211563 
	C178.362167,46.123219 177.643875,45.150150 176.834579,43.713669 
	C128.231918,170.106354 79.906487,295.778076 31.096313,422.710388 
	C33.584293,421.490814 34.751358,420.988586 35.852421,420.369019 
	C81.855705,394.484558 127.837982,368.562622 173.913010,342.806549 
	C175.547195,341.893005 178.550110,341.792877 180.147461,342.686249 
	C227.421494,369.125824 274.598175,395.739410 322.426300,422.683685 
	C321.168365,418.721252 320.248352,415.232452 318.967438,411.881622 
	C308.382294,384.191345 297.768951,356.511688 287.084778,328.859497 
	C280.126495,310.850586 273.035736,292.892914 265.978394,274.157227 
	C265.053101,271.525940 264.228088,268.854187 263.185272,266.270325 
	C258.507050,254.679062 253.766861,243.112793 249.115295,230.715347 
	C247.774734,227.671631 246.434174,224.627930 245.093079,220.737793 
z"/>
<path fill="#030303" opacity="1.000000" stroke="none" 
	d="
M266.004333,274.912292 
	C273.035736,292.892914 280.126495,310.850586 287.084778,328.859497 
	C297.768951,356.511688 308.382294,384.191345 318.967438,411.881622 
	C320.248352,415.232452 321.168365,418.721252 322.426300,422.683685 
	C274.598175,395.739410 227.421494,369.125824 180.147461,342.686249 
	C178.550110,341.792877 175.547195,341.893005 173.913010,342.806549 
	C127.837982,368.562622 81.855705,394.484558 35.852421,420.369019 
	C34.751358,420.988586 33.584293,421.490814 31.096313,422.710388 
	C79.906487,295.778076 128.231918,170.106354 176.834579,43.713669 
	C177.643875,45.150150 178.362167,46.123219 178.780807,47.211563 
	C198.446243,98.335838 218.097061,149.465775 237.687912,200.618652 
	C238.502731,202.746201 238.729294,205.099045 238.978058,207.755096 
	C225.775269,195.736893 211.247604,185.801682 194.006134,179.631592 
	C179.086624,164.763596 163.269028,151.758545 142.223267,144.156418 
	C142.913467,147.111542 143.273849,148.654572 143.647964,150.576691 
	C144.576233,153.235077 145.230652,155.666183 146.455170,157.764587 
	C149.835770,163.557632 153.454666,169.211624 156.603561,174.962296 
	C154.838058,175.402832 153.448334,175.801697 151.751709,176.143341 
	C149.004425,175.379623 146.563995,174.673141 144.048767,173.608246 
	C143.464951,171.766602 142.955948,170.283356 142.376434,168.594589 
	C140.753174,169.131241 139.427261,169.569580 137.663376,170.152725 
	C138.382492,172.252426 139.004944,174.069870 139.320160,176.092865 
	C135.528381,178.239258 132.043854,180.180115 127.418159,182.756592 
	C132.287933,184.385757 135.436310,187.318527 135.929260,192.348450 
	C134.630386,193.843491 133.566635,195.081635 132.255417,196.607803 
	C133.670853,197.710678 134.877365,198.650772 136.338165,199.788986 
	C137.553528,198.035919 138.477295,196.703461 139.755859,195.300568 
	C142.490814,195.536194 144.870972,195.842255 147.235596,196.550690 
	C148.654510,198.608871 150.088959,200.264664 151.279236,202.213455 
	C143.750000,207.071747 136.464920,211.637039 128.836151,216.231934 
	C125.014374,220.153946 120.956291,223.672073 118.160355,228.004715 
	C107.065125,245.198013 102.797554,263.623993 108.822624,283.852203 
	C114.164093,301.785400 124.675560,315.449707 140.941895,324.685303 
	C155.790573,333.116058 171.777405,336.066772 188.420868,332.782654 
	C195.862610,331.314209 202.844421,327.514923 210.367065,324.718353 
	C212.370560,323.651428 214.112793,322.739380 215.702164,321.611908 
	C228.921234,312.234406 238.643265,300.311676 242.916473,283.932312 
	C243.492493,282.325012 243.981979,281.094543 244.149094,279.821747 
	C244.804886,274.827118 245.359055,269.819153 246.295898,264.915527 
	C253.095337,268.314056 259.549835,271.613159 266.004333,274.912292 
M224.125626,328.284698 
	C226.284225,328.708771 228.637985,329.809296 230.517761,329.266968 
	C231.435577,329.002136 232.355713,325.213104 231.651993,323.868561 
	C230.968491,322.562592 227.345261,321.250214 226.546814,321.881317 
	C225.031998,323.078583 224.613403,325.662781 224.125626,328.284698 
M89.902870,342.303101 
	C91.357857,341.411194 93.334641,340.815247 94.071495,339.516052 
	C94.511154,338.740845 93.326035,336.139160 92.286339,335.678375 
	C91.194534,335.194427 88.188950,336.178894 88.142029,336.709381 
	C87.987587,338.455383 88.794441,340.286438 89.902870,342.303101 
M277.025360,321.549866 
	C277.672272,320.130402 278.319183,318.710907 278.966064,317.291412 
	C277.722290,316.757141 276.426239,315.727203 275.251862,315.851013 
	C274.369049,315.944122 272.809296,318.070160 272.987762,318.339630 
	C273.848022,319.638611 275.195435,320.614990 277.025360,321.549866 
M101.257332,324.372772 
	C99.562347,324.111511 97.859032,323.677338 96.180527,323.758240 
	C95.899094,323.771790 95.211563,326.263916 95.643875,327.162140 
	C96.089615,328.088318 98.316513,329.225525 98.644348,328.947906 
	C99.816612,327.955322 100.513794,326.401642 101.257332,324.372772 
M247.554184,310.311707 
	C248.265289,311.664825 248.877914,313.094238 249.799606,314.284241 
	C249.929550,314.451996 251.986008,313.677887 252.394669,312.927826 
	C252.820190,312.146790 252.564163,310.056915 252.197311,309.950623 
	C250.891342,309.572266 249.411316,309.794800 247.554184,310.311707 
z"/>
<path fill="#E1DA97" opacity="1.000000" stroke="none" 
	d="
M265.991364,274.534760 
	C259.549835,271.613159 253.095337,268.314056 246.151550,264.627075 
	C238.031998,256.875336 229.915894,249.938721 222.935883,242.002853 
	C217.975693,236.363373 214.547211,229.376678 210.620819,222.662872 
	C212.255890,217.028717 216.539948,214.911407 221.482513,213.316986 
	C223.664185,214.246811 225.714890,214.705307 227.304092,215.821075 
	C234.622818,220.959595 241.812851,226.281418 249.049026,231.537506 
	C253.766861,243.112793 258.507050,254.679062 263.185272,266.270325 
	C264.228088,268.854187 265.053101,271.525940 265.991364,274.534760 
z"/>
<path fill="#DCD794" opacity="1.000000" stroke="none" 
	d="
M152.058594,176.200562 
	C153.448334,175.801697 154.838058,175.402832 157.010406,175.015869 
	C158.611038,174.940750 159.429077,174.853760 160.639465,174.913574 
	C162.715698,175.050217 164.399612,175.040039 166.478806,175.110870 
	C171.206436,175.766861 175.538773,176.341812 180.245972,177.065384 
	C183.595490,177.801254 186.570145,178.388504 189.881775,179.012390 
	C191.525742,179.347015 192.832764,179.645020 194.139771,179.943008 
	C211.247604,185.801682 225.775269,195.736893 239.107544,208.163940 
	C241.356964,212.355698 243.225021,216.546738 244.778885,220.951691 
	C235.085052,211.282425 223.697357,204.181381 211.716827,197.394119 
	C209.550613,196.534164 207.561264,195.936737 205.285492,195.070770 
	C201.565903,193.569351 198.132736,192.336456 194.296967,191.094757 
	C189.736099,190.623062 185.577820,190.160172 181.033783,189.594208 
	C178.493042,189.379639 176.338043,189.268143 173.733429,189.092194 
	C172.077774,189.095367 170.871719,189.162994 169.256897,189.159790 
	C164.245438,189.669296 159.642776,190.249619 155.130585,190.450714 
	C156.236603,186.540833 157.197983,183.017029 153.976562,180.010635 
	C153.998367,179.998184 153.972748,180.040009 153.982849,179.721375 
	C153.348145,178.335342 152.703369,177.267944 152.058594,176.200562 
z"/>
<path fill="#11110C" opacity="1.000000" stroke="none" 
	d="
M211.893692,197.656631 
	C223.697357,204.181381 235.085052,211.282425 244.779144,221.374908 
	C246.434174,224.627930 247.774734,227.671631 249.082153,231.126434 
	C241.812851,226.281418 234.622818,220.959595 227.304092,215.821075 
	C225.714890,214.705307 223.664185,214.246811 221.461731,213.036041 
	C220.579056,211.714600 220.060715,210.842682 219.443954,209.609894 
	C216.861603,205.384872 214.377640,201.520752 211.893692,197.656631 
z"/>
<path fill="#314E83" opacity="1.000000" stroke="none" 
	d="
M210.435104,222.991272 
	C214.547211,229.376678 217.975693,236.363373 222.935883,242.002853 
	C229.915894,249.938721 238.031998,256.875336 245.806610,264.527679 
	C245.359055,269.819153 244.804886,274.827118 244.149094,279.821747 
	C243.981979,281.094543 243.492493,282.325012 242.597229,283.855225 
	C240.565002,284.327850 238.449448,283.961700 237.711792,284.803284 
	C232.956558,290.228485 225.962585,287.154236 220.394730,289.674896 
	C215.962143,291.681610 210.613403,291.718445 206.271042,293.850922 
	C203.593231,295.165924 199.774704,297.769409 202.502121,302.462341 
	C202.910934,303.165771 202.171234,304.627075 201.798218,305.679443 
	C199.857758,311.153625 202.300461,315.162628 208.106171,315.848267 
	C209.680664,316.034180 211.280411,316.006042 214.031555,316.127533 
	C212.428329,319.595764 211.231628,322.184570 210.034943,324.773407 
	C202.844421,327.514923 195.862610,331.314209 188.420868,332.782654 
	C171.777405,336.066772 155.790573,333.116058 140.941895,324.685303 
	C124.675560,315.449707 114.164093,301.785400 108.822624,283.852203 
	C102.797554,263.623993 107.065125,245.198013 118.160355,228.004715 
	C120.956291,223.672073 125.014374,220.153946 128.822708,216.605804 
	C129.221115,218.143280 129.289261,219.336472 129.384750,221.008179 
	C131.480164,219.767456 132.934021,218.906601 135.091141,217.629349 
	C134.518951,220.830139 134.098114,223.184204 133.807480,224.809967 
	C131.307693,225.695160 129.196106,226.442886 126.053917,227.555557 
	C131.758545,229.841690 135.884979,231.495346 140.403091,233.305984 
	C141.025238,231.099655 141.672409,229.392090 141.976273,227.625458 
	C143.299789,219.930435 148.275970,215.220779 154.961365,212.220795 
	C160.408844,209.776306 166.137482,207.964233 171.704193,205.776886 
	C174.134872,204.821793 182.082565,206.776443 183.654739,208.244553 
	C185.384354,209.859695 187.628189,210.991852 189.782196,212.065063 
	C191.778351,213.059647 194.072769,213.477066 196.020981,214.541794 
	C199.742111,216.575378 203.310486,218.888519 207.028839,221.399979 
	C208.221970,222.139984 209.328537,222.565628 210.435104,222.991272 
M172.022369,233.223419 
	C171.673828,232.480240 171.325287,231.737045 171.108276,230.395920 
	C171.199265,229.998169 171.290253,229.600418 171.937210,229.099762 
	C172.313248,229.045349 172.689301,228.990921 173.691101,229.226486 
	C178.651596,228.299454 182.219513,230.860886 185.878479,233.704773 
	C188.366638,235.638687 191.344559,237.258270 194.911041,234.990265 
	C193.812866,233.560791 192.302979,232.483185 192.125946,231.218964 
	C191.081482,223.759979 185.695755,221.538055 179.470764,220.049957 
	C176.215393,219.271774 167.167862,225.194473 167.107330,228.462006 
	C167.092911,229.240280 168.104248,230.037567 167.999893,231.079910 
	C166.603577,232.813522 165.207245,234.547134 163.136795,236.111023 
	C162.273117,235.740234 161.438461,235.199142 160.537750,235.045547 
	C159.598419,234.885345 158.595413,235.098618 157.620224,235.148590 
	C158.115906,236.081497 158.611572,237.014389 158.819321,238.484619 
	C158.492950,238.725342 158.166580,238.966064 157.114349,238.971100 
	C153.569061,237.938812 149.516983,237.850937 147.735718,233.605011 
	C147.545044,233.150543 146.244156,232.975662 145.462601,232.986404 
	C141.336777,233.043015 135.847519,240.233871 136.669266,244.416870 
	C143.307129,244.402832 147.557419,248.120834 147.919373,254.730972 
	C148.204025,259.928925 147.887558,265.158051 148.102142,270.362457 
	C148.188721,272.461823 148.474487,274.848785 149.545746,276.554688 
	C152.419098,281.130371 155.747971,285.422180 158.993271,289.753815 
	C159.115005,289.916321 160.250885,289.319061 161.009277,288.985626 
	C161.009277,288.985626 161.098984,288.889954 161.801605,288.935272 
	C163.292542,290.227539 165.391434,291.232697 166.162323,292.865051 
	C168.640915,298.113281 173.416092,297.872955 177.913132,298.445923 
	C183.198807,299.119324 188.493622,299.720947 194.242859,300.408539 
	C193.950150,299.334167 193.408295,297.345276 192.886124,295.428619 
	C190.764969,295.612610 189.191956,295.749023 187.701553,295.878296 
	C187.440735,294.058838 187.230377,292.591370 186.824814,289.762238 
	C185.111633,291.808044 184.342148,292.771149 183.526138,293.693054 
	C181.098862,296.435272 178.640106,296.260651 176.430176,293.514221 
	C173.249054,289.560791 175.068451,284.781586 179.687195,282.989990 
	C184.201401,281.238892 188.381454,278.956970 192.037888,283.920868 
	C190.827087,273.294983 191.473923,263.863770 198.529617,255.812103 
	C196.795532,255.017334 194.995270,254.192230 193.724060,253.609604 
	C195.018692,251.206192 195.984924,249.412445 196.951157,247.618713 
	C195.146606,246.736130 193.414108,245.627258 191.520493,245.024506 
	C188.747025,244.141678 185.858170,243.621384 183.019958,242.523666 
	C183.019958,242.523666 183.028976,242.100830 183.133972,241.392609 
	C183.395599,236.659134 180.374313,234.951614 176.411301,234.224289 
	C174.973221,233.960358 173.481812,233.986847 172.022369,233.223419 
z"/>
<path fill="#9A9EA0" opacity="1.000000" stroke="none" 
	d="
M210.367050,324.718353 
	C211.231628,322.184570 212.428329,319.595764 214.031555,316.127533 
	C211.280411,316.006042 209.680664,316.034180 208.106171,315.848267 
	C202.300461,315.162628 199.857758,311.153625 201.798218,305.679443 
	C202.171234,304.627075 202.910934,303.165771 202.502121,302.462341 
	C199.774704,297.769409 203.593231,295.165924 206.271042,293.850922 
	C210.613403,291.718445 215.962143,291.681610 220.394730,289.674896 
	C225.962585,287.154236 232.956558,290.228485 237.711792,284.803284 
	C238.449448,283.961700 240.565002,284.327850 242.362610,284.212616 
	C238.643265,300.311676 228.921234,312.234406 215.702164,321.611908 
	C214.112793,322.739380 212.370560,323.651428 210.367050,324.718353 
z"/>
<path fill="#959B9F" opacity="1.000000" stroke="none" 
	d="
M206.942261,221.085632 
	C203.310486,218.888519 199.742111,216.575378 196.020981,214.541794 
	C194.072769,213.477066 191.778351,213.059647 189.782196,212.065063 
	C187.628189,210.991852 185.384354,209.859695 183.654739,208.244553 
	C182.082565,206.776443 174.134872,204.821793 171.704193,205.776886 
	C166.137482,207.964233 160.408844,209.776306 154.961365,212.220795 
	C148.275970,215.220779 143.299789,219.930435 141.976273,227.625458 
	C141.672409,229.392090 141.025238,231.099655 140.403091,233.305984 
	C135.884979,231.495346 131.758545,229.841690 126.053917,227.555557 
	C129.196106,226.442886 131.307693,225.695160 133.807480,224.809967 
	C134.098114,223.184204 134.518951,220.830139 135.091141,217.629349 
	C132.934021,218.906601 131.480164,219.767456 129.384750,221.008179 
	C129.289261,219.336472 129.221115,218.143280 129.166412,216.576202 
	C136.464920,211.637039 143.750000,207.071747 151.254028,202.236679 
	C151.472961,201.966904 151.428528,202.017990 151.818512,201.968750 
	C152.811493,201.583633 153.414505,201.247757 154.004532,200.951263 
	C153.991547,200.990631 153.914078,200.961075 154.320801,201.120544 
	C161.984756,200.055969 169.241989,198.831955 176.696411,197.574677 
	C174.326202,194.761734 171.995941,191.996170 169.665665,189.230621 
	C170.871719,189.162994 172.077774,189.095367 173.858734,189.382446 
	C184.192200,198.646515 193.983063,207.520996 203.672043,216.505371 
	C205.019363,217.754715 205.864594,219.545502 206.942261,221.085632 
z"/>
<path fill="#959CA3" opacity="1.000000" stroke="none" 
	d="
M194.006134,179.631592 
	C192.832764,179.645020 191.525742,179.347015 189.757492,178.666840 
	C188.132202,176.892822 187.178680,175.223557 185.769775,174.154419 
	C176.924149,167.441971 168.038132,160.778488 159.028656,154.288727 
	C156.105209,152.182877 152.770889,150.647430 149.624496,148.851089 
	C149.335068,149.302261 149.045654,149.753433 148.756226,150.204605 
	C152.322739,153.067017 155.984161,155.820023 159.435684,158.814941 
	C166.308517,164.778534 173.065979,170.875107 179.871109,176.916748 
	C175.538773,176.341812 171.206436,175.766861 166.332458,174.804764 
	C160.888016,168.855988 155.985229,163.294373 151.015045,157.425629 
	C150.215836,156.079742 149.640610,154.865509 148.717270,154.041321 
	C147.137741,152.631439 145.340210,151.465805 143.634247,150.197601 
	C143.273849,148.654572 142.913467,147.111542 142.223267,144.156418 
	C163.269028,151.758545 179.086624,164.763596 194.006134,179.631592 
z"/>
<path fill="#949BA3" opacity="1.000000" stroke="none" 
	d="
M153.954742,180.023087 
	C157.197983,183.017029 156.236603,186.540833 154.894775,190.709122 
	C153.535980,192.580933 152.503494,193.815094 151.109833,195.055679 
	C149.582825,195.424179 148.416977,195.786240 147.251144,196.148300 
	C144.870972,195.842255 142.490814,195.536194 139.596207,195.002411 
	C138.109314,193.880295 137.136841,192.985916 136.164368,192.091537 
	C135.436310,187.318527 132.287933,184.385757 127.418159,182.756592 
	C132.043854,180.180115 135.528381,178.239258 139.628357,176.072769 
	C141.537064,175.220306 142.830322,174.593475 144.123581,173.966644 
	C146.563995,174.673141 149.004425,175.379623 151.751709,176.143341 
	C152.703369,177.267944 153.348145,178.335342 153.609558,179.774048 
	C152.390656,179.609085 151.530029,178.591980 150.724655,178.634003 
	C148.902985,178.729050 147.108597,179.346771 145.303101,179.751892 
	C145.706284,181.202362 145.757874,183.599243 146.585678,183.906769 
	C148.321945,184.551804 150.616776,184.528030 152.379547,183.912262 
	C153.251099,183.607819 153.450958,181.380432 153.954742,180.023087 
z"/>
<path fill="#767C84" opacity="1.000000" stroke="none" 
	d="
M143.647964,150.576691 
	C145.340210,151.465805 147.137741,152.631439 148.717270,154.041321 
	C149.640610,154.865509 150.215836,156.079742 150.694016,157.501053 
	C150.390900,158.575638 150.037109,159.465698 150.338760,159.929276 
	C153.582077,164.913803 156.928741,169.831070 160.247116,174.766754 
	C159.429077,174.853760 158.611038,174.940750 157.386169,174.974182 
	C153.454666,169.211624 149.835770,163.557632 146.455170,157.764587 
	C145.230652,155.666183 144.576233,153.235077 143.647964,150.576691 
z"/>
<path fill="#E5E5E5" opacity="1.000000" stroke="none" 
	d="
M223.932556,327.977783 
	C224.613403,325.662781 225.031998,323.078583 226.546814,321.881317 
	C227.345261,321.250214 230.968491,322.562592 231.651993,323.868561 
	C232.355713,325.213104 231.435577,329.002136 230.517761,329.266968 
	C228.637985,329.809296 226.284225,328.708771 223.932556,327.977783 
z"/>
<path fill="#DCDCDC" opacity="1.000000" stroke="none" 
	d="
M89.567459,342.193970 
	C88.794441,340.286438 87.987587,338.455383 88.142029,336.709381 
	C88.188950,336.178894 91.194534,335.194427 92.286339,335.678375 
	C93.326035,336.139160 94.511154,338.740845 94.071495,339.516052 
	C93.334641,340.815247 91.357857,341.411194 89.567459,342.193970 
z"/>
<path fill="#D8D8D8" opacity="1.000000" stroke="none" 
	d="
M276.697693,321.627838 
	C275.195435,320.614990 273.848022,319.638611 272.987762,318.339630 
	C272.809296,318.070160 274.369049,315.944122 275.251862,315.851013 
	C276.426239,315.727203 277.722290,316.757141 278.966064,317.291412 
	C278.319183,318.710907 277.672272,320.130402 276.697693,321.627838 
z"/>
<path fill="#DFDFDF" opacity="1.000000" stroke="none" 
	d="
M101.324005,324.716492 
	C100.513794,326.401642 99.816612,327.955322 98.644348,328.947906 
	C98.316513,329.225525 96.089615,328.088318 95.643875,327.162140 
	C95.211563,326.263916 95.899094,323.771790 96.180527,323.758240 
	C97.859032,323.677338 99.562347,324.111511 101.324005,324.716492 
z"/>
<path fill="#C3C3C3" opacity="1.000000" stroke="none" 
	d="
M144.048767,173.608246 
	C142.830322,174.593475 141.537064,175.220306 139.935608,175.867233 
	C139.004944,174.069870 138.382492,172.252426 137.663376,170.152725 
	C139.427261,169.569580 140.753174,169.131241 142.376434,168.594589 
	C142.955948,170.283356 143.464951,171.766602 144.048767,173.608246 
z"/>
<path fill="#C3C3C3" opacity="1.000000" stroke="none" 
	d="
M247.775696,310.050781 
	C249.411316,309.794800 250.891342,309.572266 252.197311,309.950623 
	C252.564163,310.056915 252.820190,312.146790 252.394669,312.927826 
	C251.986008,313.677887 249.929550,314.451996 249.799606,314.284241 
	C248.877914,313.094238 248.265289,311.664825 247.775696,310.050781 
z"/>
<path fill="#D2D2D2" opacity="1.000000" stroke="none" 
	d="
M135.929260,192.348450 
	C137.136841,192.985916 138.109314,193.880295 139.241425,195.072845 
	C138.477295,196.703461 137.553528,198.035919 136.338165,199.788986 
	C134.877365,198.650772 133.670853,197.710678 132.255417,196.607803 
	C133.566635,195.081635 134.630386,193.843491 135.929260,192.348450 
z"/>
<path fill="#D2D2D2" opacity="1.000000" stroke="none" 
	d="
M147.235596,196.550690 
	C148.416977,195.786240 149.582825,195.424179 151.333221,195.338791 
	C152.583221,197.397339 153.248657,199.179199 153.914078,200.961075 
	C153.914078,200.961075 153.991547,200.990631 153.631226,200.849289 
	C152.656784,201.144623 152.042648,201.581314 151.428528,202.017990 
	C151.428528,202.017990 151.472961,201.966904 151.498169,201.943680 
	C150.088959,200.264664 148.654510,198.608871 147.235596,196.550690 
z"/>
<path fill="#302F2F" opacity="1.000000" stroke="none" 
	d="
M207.028839,221.399979 
	C205.864594,219.545502 205.019363,217.754715 203.672043,216.505371 
	C193.983063,207.520996 184.192200,198.646515 174.308350,189.446899 
	C176.338043,189.268143 178.493042,189.379639 181.229401,189.846268 
	C190.157013,197.434967 198.473145,204.703888 206.877762,211.868988 
	C208.362808,213.135025 210.161850,215.349976 212.374878,212.101196 
	C214.090500,211.669724 215.448349,211.246399 217.175964,210.871552 
	C218.211273,210.603607 218.876816,210.287201 219.542358,209.970779 
	C220.060715,210.842682 220.579056,211.714600 221.118195,212.867447 
	C216.539948,214.911407 212.255890,217.028717 210.620819,222.662872 
	C209.328537,222.565628 208.221970,222.139984 207.028839,221.399979 
z"/>
<path fill="#0D0D0C" opacity="1.000000" stroke="none" 
	d="
M154.320801,201.120544 
	C153.248657,199.179199 152.583221,197.397339 151.694397,195.332352 
	C152.503494,193.815094 153.535980,192.580933 154.804291,191.088348 
	C159.642776,190.249619 164.245438,189.669296 169.256897,189.159790 
	C171.995941,191.996170 174.326202,194.761734 176.696411,197.574677 
	C169.241989,198.831955 161.984756,200.055969 154.320801,201.120544 
z"/>
<path fill="#969DA5" opacity="1.000000" stroke="none" 
	d="
M212.017120,212.109344 
	C210.161850,215.349976 208.362808,213.135025 206.877762,211.868988 
	C198.473145,204.703888 190.157013,197.434967 181.615143,189.949341 
	C185.577820,190.160172 189.736099,190.623062 194.418823,191.421707 
	C200.634552,198.541428 206.325836,205.325394 212.017120,212.109344 
z"/>
<path fill="#F1F2F3" opacity="1.000000" stroke="none" 
	d="
M180.245972,177.065369 
	C173.065979,170.875107 166.308517,164.778534 159.435684,158.814941 
	C155.984161,155.820023 152.322739,153.067017 148.756226,150.204605 
	C149.045654,149.753433 149.335068,149.302261 149.624496,148.851089 
	C152.770889,150.647430 156.105209,152.182877 159.028656,154.288727 
	C168.038132,160.778488 176.924149,167.441971 185.769775,174.154419 
	C187.178680,175.223557 188.132202,176.892822 189.420532,178.630188 
	C186.570145,178.388504 183.595490,177.801254 180.245972,177.065369 
z"/>
<path fill="#EFF1F0" opacity="1.000000" stroke="none" 
	d="
M212.374878,212.101196 
	C206.325836,205.325394 200.634552,198.541428 194.821411,191.430527 
	C198.132736,192.336456 201.565903,193.569351 205.464630,195.282028 
	C206.740814,196.565567 207.700623,197.266678 208.336380,198.190735 
	C211.209763,202.367050 213.991486,206.606415 216.806213,210.823074 
	C215.448349,211.246399 214.090500,211.669724 212.374878,212.101196 
z"/>
<path fill="#313032" opacity="1.000000" stroke="none" 
	d="
M160.639465,174.913574 
	C156.928741,169.831070 153.582077,164.913803 150.338760,159.929276 
	C150.037109,159.465698 150.390900,158.575638 150.761398,157.808167 
	C155.985229,163.294373 160.888016,168.855988 165.937164,174.723724 
	C164.399612,175.040039 162.715698,175.050217 160.639465,174.913574 
z"/>
<path fill="#72777A" opacity="1.000000" stroke="none" 
	d="
M217.175964,210.871552 
	C213.991486,206.606415 211.209763,202.367050 208.336380,198.190735 
	C207.700623,197.266678 206.740814,196.565567 205.751053,195.550552 
	C207.561264,195.936737 209.550613,196.534164 211.716827,197.394119 
	C214.377640,201.520752 216.861603,205.384872 219.443954,209.609894 
	C218.876816,210.287201 218.211273,210.603607 217.175964,210.871552 
z"/>
<path fill="#9B9FA2" opacity="1.000000" stroke="none" 
	d="
M183.018478,242.946594 
	C185.858170,243.621384 188.747025,244.141678 191.520493,245.024506 
	C193.414108,245.627258 195.146606,246.736130 196.951141,247.618713 
	C195.984924,249.412445 195.018692,251.206192 193.724060,253.609604 
	C194.995270,254.192230 196.795532,255.017334 198.529617,255.812103 
	C191.473923,263.863770 190.827087,273.294983 192.037888,283.920868 
	C188.381454,278.956970 184.201401,281.238892 179.687195,282.989990 
	C175.068451,284.781586 173.249054,289.560791 176.430176,293.514221 
	C178.640106,296.260651 181.098862,296.435272 183.526138,293.693054 
	C184.342148,292.771149 185.111633,291.808044 186.824814,289.762238 
	C187.230377,292.591370 187.440735,294.058838 187.701553,295.878296 
	C189.191956,295.749023 190.764969,295.612610 192.886124,295.428619 
	C193.408295,297.345276 193.950150,299.334167 194.242859,300.408539 
	C188.493622,299.720947 183.198807,299.119324 177.913132,298.445923 
	C173.416092,297.872955 168.640915,298.113281 166.162323,292.865051 
	C165.391434,291.232697 163.292542,290.227539 161.377319,288.731964 
	C160.750320,288.552368 160.547592,288.576080 160.344864,288.599792 
	C160.534622,288.758484 160.724380,288.917175 160.914154,289.075867 
	C160.250885,289.319061 159.115005,289.916321 158.993271,289.753815 
	C155.747971,285.422180 152.419098,281.130371 149.545746,276.554688 
	C148.474487,274.848785 148.188721,272.461823 148.102142,270.362457 
	C147.887558,265.158051 148.204025,259.928925 147.919373,254.730972 
	C147.557419,248.120834 143.307129,244.402832 136.669266,244.416870 
	C135.847519,240.233871 141.336777,233.043015 145.462601,232.986404 
	C146.244156,232.975662 147.545044,233.150543 147.735718,233.605011 
	C149.516983,237.850937 153.569061,237.938812 157.580261,239.440308 
	C161.070679,242.710876 164.154373,242.750854 167.576172,240.469818 
	C168.831223,239.633194 170.561264,239.509094 172.337341,239.297913 
	C172.749802,240.724289 172.899536,241.912735 172.876953,243.400681 
	C168.628647,249.059174 169.417770,251.308502 175.820419,252.775604 
	C178.059555,253.288696 180.261459,253.964371 183.341080,254.799088 
	C181.935455,250.954819 180.751373,247.716476 179.366882,243.930023 
	C180.390121,243.654449 181.704300,243.300522 183.018478,242.946594 
z"/>
<path fill="#959BA0" opacity="1.000000" stroke="none" 
	d="
M168.643784,230.826111 
	C168.104248,230.037567 167.092911,229.240280 167.107330,228.462006 
	C167.167862,225.194473 176.215393,219.271774 179.470764,220.049957 
	C185.695755,221.538055 191.081482,223.759979 192.125946,231.218964 
	C192.302979,232.483185 193.812866,233.560791 194.911041,234.990265 
	C191.344559,237.258270 188.366638,235.638687 185.878479,233.704773 
	C182.219513,230.860886 178.651596,228.299454 173.346405,228.741150 
	C172.590012,227.681931 172.178314,227.108078 171.766602,226.534210 
	C171.638153,227.423691 171.509689,228.313187 171.381241,229.202667 
	C171.290253,229.600418 171.199265,229.998169 170.745056,230.674377 
	C169.802490,230.910599 169.223145,230.868347 168.643784,230.826111 
z"/>
<path fill="#355184" opacity="1.000000" stroke="none" 
	d="
M183.019226,242.735138 
	C181.704300,243.300522 180.390121,243.654449 179.366882,243.930023 
	C180.751373,247.716476 181.935455,250.954819 183.341080,254.799088 
	C180.261459,253.964371 178.059555,253.288696 175.820419,252.775604 
	C169.417770,251.308502 168.628647,249.059174 173.167358,243.249359 
	C176.440216,238.217316 179.961945,243.221619 183.028976,242.100830 
	C183.028976,242.100830 183.019958,242.523666 183.019226,242.735138 
z"/>
<path fill="#5E6F8F" opacity="1.000000" stroke="none" 
	d="
M168.321838,230.953003 
	C169.223145,230.868347 169.802490,230.910599 170.679306,230.973358 
	C171.325287,231.737045 171.673828,232.480240 171.884888,233.873215 
	C171.856476,236.035339 171.965561,237.547668 172.074646,239.059998 
	C170.561264,239.509094 168.831223,239.633194 167.576172,240.469818 
	C164.154373,242.750854 161.070679,242.710876 157.943192,239.558167 
	C158.166580,238.966064 158.492950,238.725342 159.246552,238.426025 
	C160.766373,238.831223 161.858948,239.295029 162.951508,239.758835 
	C163.237976,238.599457 163.524429,237.440094 163.810913,236.280731 
	C165.207245,234.547134 166.603577,232.813522 168.321838,230.953003 
z"/>
<path fill="#90979E" opacity="1.000000" stroke="none" 
	d="
M172.337341,239.297913 
	C171.965561,237.547668 171.856476,236.035339 171.881073,234.201920 
	C173.481812,233.986847 174.973221,233.960358 176.411301,234.224289 
	C180.374313,234.951614 183.395599,236.659134 183.081482,241.746719 
	C179.961945,243.221619 176.440216,238.217316 173.339661,242.949860 
	C172.899536,241.912735 172.749802,240.724289 172.337341,239.297913 
z"/>
<path fill="#8B929C" opacity="1.000000" stroke="none" 
	d="
M163.473846,236.195877 
	C163.524429,237.440094 163.237976,238.599457 162.951508,239.758835 
	C161.858948,239.295029 160.766373,238.831223 159.390518,238.157349 
	C158.611572,237.014389 158.115906,236.081497 157.620239,235.148590 
	C158.595413,235.098618 159.598419,234.885345 160.537750,235.045547 
	C161.438461,235.199142 162.273117,235.740234 163.473846,236.195877 
z"/>
<path fill="#5E6F8F" opacity="1.000000" stroke="none" 
	d="
M171.659225,229.151215 
	C171.509689,228.313187 171.638153,227.423691 171.766602,226.534210 
	C172.178314,227.108078 172.590012,227.681931 173.033539,228.596161 
	C172.689301,228.990921 172.313248,229.045349 171.659225,229.151215 
z"/>
<path fill="#0D0D0C" opacity="1.000000" stroke="none" 
	d="
M151.818512,201.968750 
	C152.042648,201.581314 152.656784,201.144623 153.644211,200.809906 
	C153.414505,201.247757 152.811493,201.583633 151.818512,201.968750 
z"/>
<path fill="#F0F1F3" opacity="1.000000" stroke="none" 
	d="
M153.976562,180.010635 
	C153.450958,181.380432 153.251099,183.607819 152.379547,183.912262 
	C150.616776,184.528030 148.321945,184.551804 146.585678,183.906769 
	C145.757874,183.599243 145.706284,181.202362 145.303101,179.751892 
	C147.108597,179.346771 148.902985,178.729050 150.724655,178.634003 
	C151.530029,178.591980 152.390656,179.609085 153.599472,180.092682 
	C153.972748,180.040009 153.998367,179.998184 153.976562,180.010635 
z"/>
<path fill="#314E83" opacity="1.000000" stroke="none" 
	d="
M160.961716,289.030731 
	C160.724380,288.917175 160.534622,288.758484 160.344864,288.599792 
	C160.547592,288.576080 160.750320,288.552368 161.026001,288.709290 
	C161.098984,288.889954 161.009277,288.985626 160.961716,289.030731 
z"/>
</svg>