<?xml version="1.0" encoding="UTF-8"?>
<svg id="Layer_1" data-name="Layer 1" xmlns="http://www.w3.org/2000/svg" version="1.1" viewBox="0 0 1920 2400">
  <defs>
    <style>
      .cls-1 {
        fill: #004985;
      }

      .cls-1, .cls-2, .cls-3, .cls-4, .cls-5, .cls-6, .cls-7, .cls-8, .cls-9, .cls-10, .cls-11, .cls-12, .cls-13, .cls-14, .cls-15, .cls-16, .cls-17, .cls-18, .cls-19, .cls-20, .cls-21, .cls-22, .cls-23 {
        stroke-width: 0px;
      }

      .cls-2 {
        fill: #10273b;
      }

      .cls-3 {
        fill: #77838a;
      }

      .cls-4 {
        fill: #f3f3f3;
      }

      .cls-5 {
        fill: #f4f4f4;
      }

      .cls-6 {
        fill: #737e84;
      }

      .cls-7 {
        fill: #e9e59a;
      }

      .cls-8 {
        fill: #050506;
      }

      .cls-9 {
        fill: #f3f5f6;
      }

      .cls-10 {
        fill: #054d87;
      }

      .cls-11 {
        fill: #014a87;
      }

      .cls-12 {
        fill: #f2f6f9;
      }

      .cls-13 {
        fill: #010101;
      }

      .cls-14 {
        fill: #e9e498;
      }

      .cls-15 {
        fill: #040405;
      }

      .cls-16 {
        fill: #758187;
      }

      .cls-17 {
        fill: #28271a;
      }

      .cls-18 {
        fill: #e8e498;
      }

      .cls-19 {
        fill: #010304;
      }

      .cls-20 {
        fill: #efefef;
      }

      .cls-21 {
        fill: #778389;
      }

      .cls-22 {
        fill: #78848a;
      }

      .cls-23 {
        fill: #f7f7f7;
      }
    </style>
  </defs>
  <path class="cls-22" d="M965.3,2c-.9,3.9,1.3,7.1,2.6,10.4,30.2,80.7,60.4,161.4,90.6,242,39.7,105.9,79.5,211.7,119.2,317.6,55.2,147,110.3,293.9,165.4,440.9,64,170.6,128,341.3,192,511.9,64.9,173.1,129.8,346.3,194.7,519.4,41.9,111.8,83.8,223.6,125.8,335.4,1.3,3.3,1.5,7.3,5.7,8.9.7,3.5.5,7.5.7,11.5.2,3.9-2.8,1.2-5,2-140.5-80.3-279.8-160.9-419.2-241.3-99.9-57.6-199.7-115.3-299.5-173.1-55.1-31.9-110.3-63.6-165.4-95.5-7.1-4.1-12.6-3.8-19.4.1-103.9,60.6-208.2,120.6-312.4,180.7-124.1,71.6-248.2,143.3-372.4,214.9-61.8,35.6-123.5,71.3-185.2,107.1-4,2.3-8.3,4.3-13,6.7-2.2.5-3.9.2-5.5.5-4.1.8-2.9-2.1-3-5.1,4.9.4,4.4-4.2,5.3-6.4,6.6-17.1,12.9-34.2,19.3-51.4,32-85.3,64-170.7,96-256,57.9-154.5,115.8-308.9,173.8-463.4,56.1-149.5,112.1-299,168.2-448.4,55.9-149.2,111.9-298.3,167.8-447.5,58-154.8,116.1-309.6,174.1-464.3,31.4-83.8,62.9-167.5,94.3-251.3.6-1.5.9-3.2,1.3-5.5.9-.8,1.7-.8,3.3-.8Z"/>
  <path class="cls-13" d="M963.3,220.1c3.6,1.8,4.1,6,5.4,9.7,60.8,162.1,121.6,324.2,182.4,486.3,63.3,168.7,126.5,337.3,189.8,506,64,170.5,127.9,341.1,191.8,511.6,60.8,162.1,121.6,324.2,182.3,486.4,1.1,3,3.3,5.9,2.4,10.1-3.9.4-6.5-2.3-9.5-4-67.6-38.9-135.1-77.8-202.6-116.8-171.4-98.9-342.7-197.9-514.1-296.9-8.7-5-17.3-10-26.7-15.3-3.5-2.7-3.9-6.1-3.9-9.4,0-40.5-.9-81,.6-122.4,3.6-6.5,4.8-12.3,3-18.9-2.2-8.1,1.1-12.9,9.5-14,.7,0,1.3-.3,1.9-.5,20.2-5,21.1-4.4,26.1,15.2.7,2.9,1.3,5.9,2.5,8.6.6,1.5,1.3,3.3,3.4,2.9,1.5-.3,1.6-1.8,2.2-3,5.4-12.5,14.6-14.3,24.9-4.9.5.5,1.2.5,3.2-.2-1.6-13.3-2.8-26.9-10.5-39.8-.8-1.6-.9-2.7-.5-4.5,4.7-5.6,11.2-4.9,16.7-6.9,5.3-1.9,14.3-.6,11.8-10.7-2.3-9.2-9.4-6.4-15.4-4.9-20.6,5.1-41.3,9.7-62.1,14.3-5,1.1-10.3,3.5-15.7-1.2-2.8-7.5-1.9-14.6-1.9-21.5.3-23.6-.9-47.2.9-71.7,1.8-5.1,5.2-5.7,9.2-5.3,33.1,3.5,60.1-9.8,83-31.7,13.6-13,26.1-27.6,40.5-39.2,17.5-14.1,22.4-34,30.8-52.1,9.7-21,19.8-41.3,35.2-58.8,25.9-29.5,36.2-65.3,41-103.3,3.2-25,.3-49.7-3.2-74.4-1.9-13.7-8.7-23.8-20.3-30.3-11.6-6.6-19.9-15.4-23.7-28.3-.7-2.6-2-5-3.9-6.9-18.2-17.6-29.9-39.9-43.5-60.8-31.8-49-77.2-78.9-131.7-96.7-4.1-1.3-8.4-2.3-12.1-6.1-.7-1.2-.9-1.7-1.4-3.1-1.6-17.7-.3-34.5-.4-52.2,1.2-24.6,10.4-46.1,19.3-67.5,13-31.6,31-60.3,52.3-86.9,6.7-8.4,6.9-17.7,6.1-27.4-.5-6.2-5.4-5.8-9.7-5.9-17.3-.1-34.6,0-51.9-.1-4.9,0-10.1.7-14.7-3.9-2-4.6-1.9-8.6-1.9-12.6,0-59.3-.2-118.6.1-178.8,2.2-13,5-24.9,7.6-36.9,2.5-11.1,4.8-12,14.8-6.1,2,1.2,4,2.4,6.5,4.1,1.5,1.2,2.3,2.1,3.2,2.9,1,.9-.7,0,.7,0,.6,0,.4-.5-1.1-1-14.2-16.4-12.8-20.9,7.6-25.2,4.6-1,9.1-2.1,14.6-3.2-8.2-1.4-15.4-3-22.5-4.8-10.9-2.8-11.9-5.1-6.3-15.3.8-1.5,1.7-2.9,2.9-4.7.6-.9,1.1-1.2,1.6-1.4-.5-.2-.9,0-1.9.8-1.7,1.5-3.1,2.4-4.6,3.2-10.2,5.4-13.3,4.1-15.9-6.9-2.6-10.6-3.9-21.4-6.7-32.8-1.2-36.8-.4-72.7-.5-108.6,0-5,1.2-9.9,2.7-15.7Z"/>
  <path class="cls-11" d="M962.2,851.6c2.4,13.5,1,27.4,1.4,41.3.1,4.3,0,8.6.2,13.9-3.8,5.1-8.6,3.9-13,2.8-34.7-8.7-63.4,3.2-89.2,25.7-22,19.2-40.6,41.2-55.5,66.4-1.5,2.6-3.4,5-4.8,7.6-5.5,9.6-13.5,13.9-24.7,13.8-15.3-.2-20.7,3.4-21.8,18.6-1.5,20.6-9.8,37.6-21.3,53.9-17.5,24.8-25.8,54-37.5,81.5-5.5,13-11.5,25.7-20.1,36.7-9.7,12.5-13.2,26.6-15.1,41.6-3.1,23.8-5.2,47.7-9.7,71.3-2.6,13.6-7.5,26.1-15.1,37.8-11.4,17.5-19.3,36.4-22.1,57.3-2.7,19.9,3.4,38.2,9,56.7.7,2.3,2,4.7,5,3.1,8.7-4.6,10.1,2.2,12.5,7.7,2,4.7,2,12.4,10.8,5.7,4.1-3.1,5.6,2.2,6.4,5,2.3,7.6,5.3,7.7,11.2,2.9,6.5-5.3,8.1-4.6,9.8,4.5,1.1,5.7,3.4,6.8,8.1,4.3,5.2-2.8,10.5-3.6,16.4-2.7,5.9.9,9.6-4.1,14-6.9,12.1-7.8,14.4-7.1,16.4,6.8,3.9,27.8,10.2,55,20.9,81.1,2.9,7.1,2.5,13.4-2.2,19.7-8,10.9-8.7,24.1-10.9,37.6-7.7,2.4-10-3.8-13.5-7.8-11.6-13.3-25.6-20-43.7-19.3-26.8,1-47.9,25.7-48.3,51.9-.4,26.3,12,47.9,38.6,56.8,31.6,10.6,65-12.4,67-45.8.2-3.3,0-6.7,1.6-10.5,1.8-2.4,3.6-3.4,6.4-4.5,10.4-2.5,19.9-5.6,30.6-6.3,2.4.3,4,.7,5.3,1.6,6.5,4.7,11.4,2.9,15.4-3.4,1.2-1.9,2.9-3.5,5.4-5.1,3.9-1.6,7.4-1.3,11.5-2.2,2,.2.6-.7,1.7,0,12.9,6.7,24.2,8.3,34.3-5.7,4.3-5.9,12.3-3.6,18.5-.8,7.6,3.4,14.7,3.9,21.9-2.3,6.3,2.7,5.8,8.7,7.2,13.5,1.8,6,2.4,12.3,4.3,18.4,1,3.1,1.7,6.9,6.3,6,5-1,4.6-4.9,3.9-8.6-.2-1-.4-1.9-.6-2.9-1-5-2-10.2,4.5-12.4,5.6-1.9,11.9-4.4,16.1,2.2,2.8,4.3,6,4.2,10.2,3.3,5.4-1.2,10.8-3.3,17.1-1.4.6,40.9.6,81.3.7,121.7,0,4,.1,7.9.3,12.8-18.8,9.9-36.5,21.3-54.7,31.7-37,21.1-73.8,42.5-110.6,63.8-36,20.8-72,41.6-108,62.4-37.2,21.5-74.4,42.8-111.5,64.3-36.6,21.1-73.2,42.2-109.8,63.4-40.9,23.6-81.8,47.3-122.7,70.9-41.5,24-82.9,47.9-124.4,71.9-3.5,2-7.1,3.7-11.6,5.4-1.3-4,.2-7.4,1.5-10.8,16.5-43.9,32.9-87.9,49.4-131.8,16.9-45.2,33.9-90.4,50.8-135.5,23.5-62.6,47.1-125.2,70.6-187.8,20.5-54.5,40.8-109.1,61.3-163.6,25.6-68.2,51.3-136.4,76.8-204.7,21-56.1,41.9-112.2,63-168.3,25-66.7,50.1-133.3,75.1-200,22.9-61.1,45.7-122.2,68.6-183.2,27-72,54-143.9,81-215.9,22.9-61.1,45.8-122.1,68.7-183.2,28-74.8,56.1-149.5,84.2-224.3.2-.6.6-1.1,1.5-1.6.6,41.8.7,83.6.7,126.3,0,11.6-2.9,21.8-5.1,32.1-2.3,10.6-5.8,11.8-15.1,6.2-2.3-1.4-4.5-2.7-7-4.9-1.2-1-1.6-2.6-2-2.2-.9.9.8,1,1.5,2.2,11.8,18.8,11.3,20.1-9.5,24.6-3.9.8-7.8,1.8-13.5,3.2,8.3,1.3,14.7,3.1,21.2,4.6,11.7,2.7,12.6,5,6.8,15.6-.6,1.2-1.3,2.3-2.3,4-.5,1.5-2,1.6-1.8,2.8.4-.4.8-.8,1.7-1.6,16.5-9.8,17.9-9.3,21.4,8.9,1.6,8.1,4.5,16.1,3.2,25.3.3,23.3.4,45.9.4,68.5,0,42.5,0,85,0,128.5-4.1,4.9-9.3,4-14.2,4.1-17,.2-33.9-.2-50.9.2-9.6.2-11.1,2.2-11.2,11.1,0,7.3,3.3,10.1,10.3,10.1,17,0,33.9,0,50.9,0,5,0,10-.4,15.5,2.4,3.2,4,3.3,8,3.3,12,0,17.5.6,35-.5,53.3-.3,5.3-2.4,9.1-4.4,13-13.7,26.4-23.1,54.4-31,83-3.2,11.6-2.3,11.8,9.6,13,11.2,1.1,17.6-2.8,21.2-13.8Z"/>
  <path class="cls-11" d="M210.1,2230.1c-.4.7-1,1.8-.7-.2.3-.2.6,0,.7.2Z"/>
  <path class="cls-15" d="M895.1,1642.6c-4.7,8.9-8.4,10.6-17,8.2-2.9-.8-5.6-1.9-8.4-3-9.8-3.7-13-2.8-19.7,5.4-.6.8-1.2,1.6-1.8,2.4-4.1,5.4-9.1,7-15.7,4.9-4.5-1.5-8.3-4-12.9-6.5-4.9-.7-9.2-1.7-13.2,2.1-2.3,3.1-4.1,5.8-6.1,8.3-5.2,6.5-7.8,6.7-14.4,1.5-1-.8-1.9-1.8-3.5-3.1-12-6.7-14-6.6-24.2,1.5-2.1,1.6-4.1,3.3-7.1,4.8-2.2,1.2-3.7,2.2-6,3.3-7.3-6-8.3-13.8-6.3-23,.7-5.4.8-10.1,1.3-14.7,1.2-10.4,4.5-20.2,10.9-28.5,3.2-4.1,4.2-7.8,2-12.8-9.5-21.7-15.7-44.5-19.8-67.8-1.5-8.8-2.6-17.7-4-27.2-7.8,2.2-13.2,7.7-19.3,11.9-3.2,2.2-6.2,5.5-10,.4-1.7-2.3-4.3-.5-6.3.5-3.9,1.9-7.8,3.8-11.7,5.6-3.2,1.5-5.2.4-5.5-3.2-.3-3.9-.5-7.9-.8-12.6-5.2,1.6-7.4,6-11,8.7-4.5,3.4-5.7,3.1-7.6-2.4-1.3-3.8-1.3-7.9-3.5-11.4-.5.2-1.2.2-1.6.5-2.6,2.3-3.4,7.8-7.4,7.2-4-.6-3.7-5.8-5.1-9-2-4.5-2.5-9.6-5.5-13.7-4.5.6-4.9,5.6-8.6,6.7-2.7,0-2.9-2.3-3.5-4-5.5-14.7-9.7-29.8-11.3-45.4-1.7-17.6,3-34.4,9.7-50.5,3.5-8.3,7.4-16.5,12.7-23.8,10.1-13.9,14.6-29.7,16.9-46.4,2.8-20.4,5.3-40.9,8.1-61.2,1.2-8.9,2.9-17.7,4.6-26.5.4-2.2,1.4-4.6,2.9-6.3,17.4-20.8,27.9-45.3,37-70.3,9.1-24.8,20.4-48.4,35.7-70.1,7.2-10.3,12.5-21.1,12.3-34.1,0-5.2,1.4-10.5,2.8-15.6,2.2-8.4,8.1-12.7,16.6-13.5,3.6-.3,7.3-.4,11-.2,7.1.4,12.1-2.5,15.7-8.5,4.3-7.1,8.7-14.2,13.4-21.1,18.2-27,39.1-51.4,66.3-69.7,23-15.5,48-20.6,75.2-13.6,3.6.9,7.1,1.7,11.7,1.1.8-.2.9.7.9,1.2,2.5,3.4,3.1,6.7,1.8,11.1-3.4,5.1-7.8,4.4-12.1,3.8-4.9-.6-9.8-1.6-14.8-2.3-20-2.9-37.9.7-54.3,13.6-28,22.2-51.3,48.2-69.1,79.1-1.6,2.8-4.3,6-2,9.1,2.8,3.9,7,1.8,9.9.1,14.2-8.3,29.5-9.3,45.4-8.7,8.8.4,17.3,1.7,25.1,5.8,9.7,5.1,18.7,5.2,28.3-.5,9.5-5.6,20.3-6,31.1-4.6,5,.7,9.8,2.3,12.8,8,1.1,4.1,1.1,7.4-.5,11.3-4,3.9-8,2.2-11.8,1.3-13-3.1-25.3-1-36.4,6.1-8.2,5.3-16.2,5.1-24.6,1-2.4-1.2-4.8-2.4-7.2-3.5-23.1-11.5-38.3-9.1-56.7,9-6.6,6.5-10.7,6.6-17.4-1.2-7.7-9.1-17.1-13.3-28.9-12.8-10.9.5-14.8,4-15.5,15.2-1.1,17,1.2,33.9,2.9,50.7,1.1,10.1,0,19.3-5.6,27.7-10.2,15.2-10.1,32.7-11.2,49.9-.3,4.7.8,9.7,7.2,9.9,7.9.3,8,5.3,7.3,11.1-1.9,14.8-1.2,29.3,6.2,42.2-1-11.5-2-23.5,1.7-35.2,1.3-4.1,2.8-9,8-9,5.2,0,5.2,5.3,6.3,8.9,1.1,3.8,1.8,7.8,2.5,11.7,5.3,30.9,19.5,57.1,41.8,78.9,2.4,2.3,4.6,4.8,6.9,8,.7.8.9,1,.9,1,.6.7.6.7-.3-.4-3.7-4.4-5.2-9.1-5.9-14.1-.4-3-.4-7,2.7-8,8.3-2.6,4.9-7.5,3.3-12.5-4.7-14.3-8-28.9-10.2-43.7-2.5-16.9,2.9-30.7,16.8-42-13.2-5.6-26.2-7.6-39.5-8.4-5-.3-10,0-15,.4-2.6.1-5.6.5-6.6-2.9-.7-2.6,1-4.6,2.9-5.9,6.8-4.7,14.7-7.8,18-16.5.8-2.1,4.1-1.9,6.4-1.5,10.9,1.8,21.3-.7,31.5-3.5,13.4-3.7,24.4,0,33.6,9.5,4.8,5,9.8,8.8,17,9.2,2.6.1,5.6,1,5.8,4.4.2,3.2-2.5,5.3-4.9,5.6-16.5,2.2-19.9,16.4-24.3,28.1-7.2,19.3-6.5,39.5-.2,60.2,5.3-12.5,7.2-13.2,19.8-13.1,14,0,27.8,2.6,41.8,2.5,13.7,0,16.4,2.7,18.7,16.7,2.6-5.3,2.8-11.7,8.3-16.2,6.7,2.6,5.1,8.2,5.1,12.9.2,31,0,61.9.2,92.9,0,3.2-1,6.6,1,9.8,4.6-1.8,7-6,10.7-8.8,11.4-8.7,34.5.5,36.7,14.7.7,4.3-1.4,7.3-5.1,8.7-4.8,1.8-7.8,3.6-7.1,9.9.8,6.6-5.1,6.5-9.8,6.8-3.7.3-8.1-2.5-11.1,3.1-.6,1.2-.9,1.6-1.8,2.6-6.4,2.8-11-.6-16.4-3.3-4-5.3-3.9-11.2-5.3-17.5-7.2,3.6-13.6,8.1-20.4,11.8-14.2,7.8-28.4,12.2-44.7,5.5-9.1-3.7-12.5-1.7-16.4,7.4-7.9,17.9-12.8,35.9-6,55.9,6,17.6,9.8,36,6.9,54.9-.7,4.5,1.3,8.5,3.5,12.2,11.8,19.3,23.9,38.4,39.6,54.9,4.4,4.6,8.3,9.5,10.7,16.3,1.7,7.2,4.8,13.2,6,20.6.1,1.9,0,2.9-.6,4.7-2.4,3.6-5.4,4.4-9.5,4.3-2.7-.4-4.5-1.2-7.3-1.2-5.9-.2-11.2-.2-16.3-1.5-2.8-.7-6-1.6-7.3,3.2-.2,1.6-.2,2.5-.4,4.1-.3,1.6-.5,2.5-1.4,3.9Z"/>
  <path class="cls-2" d="M980.4,1406.3c-.7-3.3-1.1-6.2-1.5-9,3.1-1.9,6.1-1.3,8.9-.3,2.6.9,5.2,1.1,7.9,1,1.9,0,4.2.4,5.4-1.6,1.6-2.6-.4-4.3-1.9-6.1-1-1.2-2.5-2.2-2.2-5,3.4-1.8,7.6-2.2,11.6-3.3,5.9-1.6,6.9-4.6,2.9-9.3-3.5-4-7-8-11.7-10.8-9.4-5.5-13.3-4.9-21.3,2.5-4,3.7-7.1,8.8-13.5,10.6-1.7-2.9-1-5.9-1-8.7,0-33.3,0-66.6,0-99.9,0-3.6.6-7.3-1.1-11.5-4-3.7-2.1-7.4-1.9-10.9.8-13,.6-25.9-3.7-38.5-3.6-10.6-10.6-18.2-18.9-25.1-9.7-8-9.2-11.2,2.3-16.6,5.8-2.7,11.1-6.1,16.1-10,8-6.2,16.1-7.2,24.9-1.8,6.2,3.8,12.4,8.3,20.3,3.6,1.5-.9,3.8-.5,4.5,1,3.8,8.1,11.7,7.8,18.6,9.7,2.8.8,6.5,1.5,6.8,4.9.3,3-3,4-5.3,5.4-2.1,1.3-3.8,2.7-3.6,5.5.8,10.6-6.8,9.2-12.8,8.2-10.7-1.8-21.1-1.3-32.1,1.4,32.4,28.5,16.4,59.3,4.7,90.6,6-5.4,10.7-10.8,15.8-16,1.4-1.4,3-2.9,5.2-1.9,2.1,1,2.4,3.2,2.2,5.2-.6,7-2.1,13.8-4.2,21.2-.6,1.5-1.3,2.1-1.6,2.8-.5,1.2-.2-.6.5.6.7,1.1,1.5-.2.2,0,0,0-.2-.3,0-1.4,14.9-18.9,24.6-39.3,29.6-62.2,1.7-7.7,4.7-8.3,12.6-4.1,8.1,4.2,8.1,4.2,8.2-5.1,0-6.7,0-13.3,0-20,0-4.8.6-9.4,5.8-11.7,4.1-1.8,4.2-5.7,4.1-9.4-.5-17.6-4.8-34.3-13.3-49.7-4.1-7.5-6-7.4-10.4.4-3.2,5.6-7.2,10.4-12.5,14-1.9,1.3-4.3,2.5-6.6,1.2-2.4-1.3-2.5-4-1.8-6.2,5.4-16.8-2.3-28.2-15.1-37.7-4.6-3.4-8.1-8-10.9-12.9-3.4-5.9-1.2-9.9,5.1-8.3,9.1,2.3,14.3-.7,19-8.1,3.5-5.5,7.8-4.4,10.8,1,3.1,5.5,7.2,10.5,8.6,15.6-2.9-9.9-5-21.2-10.3-31.4-7.3-14-14.4-15.5-26.7-5.5-5.7,4.6-10.1,10.7-16.3,14.7-2,1.3-4.3,2.4-6.5,1.1-1.9-1.1-2.6-3.7-1.7-5.3,6.4-12-.9-18.8-8.8-26.1.3-4.4.4-8.1.8-12.6,14.7,1.6,29.2,4,43.6-2.3,2.5-1.1,6,.3,8.7,1.5,41,19,77.4,43.2,97.7,85.8,7.3,15.2,11,31.5,12.2,48.2,1.5,20.9,16.9,30.9,30.8,44.9,4-14.2.3-25.7-.7-37-2.4-26.2-7.4-52.1-14.1-77.6-1.6-6-4.3-10.8-8.9-15.2-11.7-11.2-25.4-19.4-39.6-26.8-3.1-1.6-8.4-2.5-7.6-6.6.8-4.2,5.9-3.1,9.4-3.3,1.6,0,3.3.5,4.7-1,.6-2.9-1.6-4.9-3-7-29.6-46.7-70.4-79.4-122.8-97.4-3.7-1.3-7.8-2.2-10.6-6.3-.2-4.5-.2-8.4-.2-13.1,15.9,3.8,31.6,9.2,46.7,16.4,38,18.1,70.1,42.8,94,77.9,12,17.6,22.4,36.2,35.4,53.1,1.6,2.1,3.2,4.3,5.2,6,6.5,5.9,11.5,12.5,13.8,21.3,2.1,7.9,7.3,14,15,17.8,16.1,7.9,25.7,20.5,27.5,38.7,1.4,14.8,4,29.7,4,44.5,0,17.9-1.8,35.7-5.9,53.3-5.6,24.2-13.5,47.3-28.4,67.5-8.7,11.7-18.9,22.3-26.6,34.8-5.4,8.8-10.7,17.9-14,27.6-5.9,17.8-16.8,33.3-23,50.9-1.1,3.3-3.1,5.7-7.2,5.6-3.9-.1-6.3,2-6.5,6-.2,4.1-3.1,5.4-6.1,7.1-5.8,3.2-10.7,7.3-15.2,12.5-18.1,20.8-38.6,38.6-65.9,46.4-13.5,3.8-27.3,5.9-42.7,1.5-3.2-4.4-3-8.2-1.4-12.7,4.9-4.7,10.5-3.5,15.7-3.5,12.3.1,23.6-3.4,34.7-8.1,2.4-1,5.2-2.4,5.1-5.5-.1-3-2.8-4.4-5.2-5.5-6.1-2.8-12.2-2.9-18.3,0-6.4,2.9-12.6,6-19.2,8.3-4.1,1.4-8.3,2.9-12.7-1.2-3.6-17.2-.9-33.9-2.4-51.4-1.2-6.4-.4-11.6,3-17.1,6.2-1.7,10,3.2,15.8,3.4.8,0,1.5.5,1.3,0Z"/>
  <path class="cls-1" d="M963.8,1401.3c-.5,5.7-1.2,10.5-1.7,16.2-1.9,6.5-6.2,4.6-9.7,3.3-4.9-1.9-7.7-1.4-7.8,4.5-.2,7.1-2,11.9-10.9,8.4-3.9-1.5-5.9,2-7.8,4.8-10.2,15.2-5.5,36,10.1,47.8,8.2,6.2,18.5,7.4,27.4,13.4.5.5.4.4.4.4-.1,32.2-.2,64.3-.2,97.4-9.2,9.1-20.8,8.7-32.7,9.5-3.8-7.9-8.8-14-14.3-19.9-15.6-16.6-27.7-35.7-39.2-55.1-2-3.4-3.5-7.2-2.5-11.4,2.8-12.3,1.1-24.4-2-36.4-2.3-9-4.5-18-6.9-27-1.7-6.5-2-12.9-.6-19.7,2.2-10.8,5.7-21.2,10.3-31.1,4.1-8.9,7.9-10.9,16.6-7,16,7.3,30.4,3.9,44.5-4.5,8-4.7,15.9-9.4,24.9-14.6.7,7.4,1.4,13.8,2.1,21.1Z"/>
  <path class="cls-14" d="M963,850.5c-2.3,6-.5,13.4-4.6,16.6-4.5,3.6-11.6,1.1-17.5,1.2-4.9,0-9.9.7-15.5-.8,8.2-37.3,20.4-72.7,38.5-106.7,8.8-25.8,26.6-44.7,44.3-64.9-15-3.1-29.5,1.3-43.9-3.1-22.9-.5-45.1-.6-67.4-.7-2.3,0-4.7-.1-7,0-3.5.2-4.7-1.6-4.7-4.8,0-5.3.2-10.6,0-15.9-.3-5.1,1.6-7,6.9-6.9,12.9.3,25.9.1,38.9.1,10.3,0,20.6,0,31.8-.2,20.8,0,40.8.1,60.7.3,4,0,8,.2,12,0,4.5-.3,6.4,1,6.6,6,.8,20,1,20-11.3,36.2-30.8,40.4-53.5,84.7-65.7,134.2-.7,2.9-1.3,5.8-2,9.6Z"/>
  <path class="cls-18" d="M926.2,1632.1c3.4-.3,5.9-.6,9-1.4,8.4-6.4,18.5-4.9,27.9-8.6,18-3.5,34.8-8,51.9-11.8,3.9-.9,7.6-2.2,12.4-1.2,3.9-.1,5.6,1.3,6.3,4.4,2.6,12,5.4,23.9,8.1,35.9.7,3.3.6,5.8-3.6,6.5-3.8.7-6.4.5-7.2-4.1-.3-1.9-.5-4-2.5-5.5-3,.6-6.3,1.2-9.5,1.9-6.6,1.5-7,1.6-5.8,9,.8,4.8-2.3,4.6-5,5.6-3.7,1.3-5.5,0-6.3-3.8-1.7-8.1-3.9-16.1-5.5-24.2-.8-3.7-2.1-4.9-6-3.8-6.7,1.9-13.5,3.5-20.4,4.6-4.6.8-5.2,3-4.1,6.9,1.2,4.5,1.8,9.1,3.1,13.6,1.3,4.1-1.8,4.2-4.7,5.6-8.1,1.8-15.7,3.1-23.1,5-4.1,1.1-6.6.6-7-4-.4-5.2-3.2-5.9-7.5-4.7-2.2.6-4.5,1.3-6.8,1.6-3.6.6-4.1,2.6-3.3,5.7,1,3.9,1.8,7.8,2.9,11.6,1.1,3.9.4,6.5-4.3,7-1.3.1-2.7.4-3.9.9-4.5,1.8-6.5.3-7.5-4.5-2.5-12-5.5-24-8.7-36.6-.3-1.2-.2-1.7-.3-2.7,8.6-9,20-7.6,31.4-9Z"/>
  <path class="cls-9" d="M963.6,466.2c-3.3-12.9-6.3-26.6-9.6-41.2-5.5,3.3-9.9,6.1-15,8.9-1.9.6-2.8.2-3.3-1.7,2.9-5.7,5.6-10.5,8.6-16-12.4-4.4-25.2-5.5-38.9-9.7,13.1-5,25.7-5.8,38.1-9.8-1.1-7.2-6.9-11.7-10.4-18.3-.4-1.2-.2-1.8,0-3.4,6.6,3.4,12.8,8.3,21,12,3-13.6,5.8-26.7,9.1-40.3,3.5,12.8,6.5,26.2,9.7,40.4,6-2.3,10.5-6.2,16.1-9.4,1.8-.6,2.7-.2,3.3,1.6-2.9,6.3-7.2,10.9-9.5,17.2,12.6,4.2,25.5,5,39.3,10.1-14.3,3.3-26.6,6.1-39.4,9,3,7.5,7.9,12.9,11.9,19.7-.1.9-.7,1.2-2.1,1.3-6.7-3.8-12.5-7.5-19.1-11.6-4.7,13.6-5.3,27.5-9.9,41.1Z"/>
  <path class="cls-5" d="M1029.6,1679c11.7-3.4,23.2-6.4,34.9-8.7,4.8-.9,6.7-3,7.4-7.6,1.7-10.5,3.9-20.9,6-31.3.6-3.2,1.6-6.4,3-11.7,3.3,15.3,6.5,28.4,8.8,41.7.9,5.3,3.5,7.2,8.2,8.2,12.8,2.8,25.6,5.9,40.2,9.3-13,4.6-24.8,6.5-36.4,8.9-7.3,1.5-11.4,4-12.4,12.3-1.4,12.1-4.8,23.9-8.8,35.9-2.8-13-6-25.9-8.3-39-.9-5.2-3.3-7.3-8.1-8.2-10.4-2.1-20.8-4.5-31.9-6.9-1.6-.7-2.2-1.3-2.7-2.8Z"/>
  <path class="cls-4" d="M1451.9,1703.7c-7,1.5-13.1,3.3-19.3,4.1-4.9.7-6.5,3.2-7.3,7.7-2.4,13-5.3,26-8,39-3.1-.9-2.7-3.6-3.2-5.8-2.3-10.7-4.7-21.5-6.7-32.3-1-5.1-2.9-7.9-8.7-8.8-12.8-2.1-25.4-5.4-39.5-8.5,13.2-4.5,25.6-6.6,37.8-9.1,6.4-1.3,9.6-3.9,10.7-10.6,1.9-12.4,4.8-24.7,7.3-37.2,3.2,1.2,2.7,3.8,3.2,6,2.2,10.4,4.8,20.8,6.4,31.3,1,6.9,4.7,9.3,10.9,10.3,9.8,1.7,19.5,4.1,29.3,6.1,2.2.5,4.7.5,6.2,3.1-6.1,1.5-12.1,2.9-18.9,4.5Z"/>
  <path class="cls-5" d="M1362.8,1448.3c3.6,13.4,6.7,26.7,9.1,40.1.9,4.9,3.4,6.6,7.7,7.5,13,2.6,25.9,5.6,38.8,9.7-12.2,2.8-24.4,6-36.8,8.3-6.1,1.1-9,3.4-10,9.9-2,12.8-5.1,25.4-9.2,38.1-2.8-12.9-6-25.8-8.2-38.8-1-5.6-3.4-7.8-8.7-8.9-12.6-2.5-25.4-4.7-39.8-9.2,14.8-3.3,27.6-6.4,40.5-9,4.6-.9,7.2-2.8,7.6-7.6.7-6.9,3.6-13.5,3-21.5-1-7.6-.3-13.9,6-18.6Z"/>
  <path class="cls-18" d="M930.3,1607.2c10.7-3.1,21.5-5.5,32.8-8.3,21.2-3.7,41.3-9.5,61.6-13.8,7.4-1.6,14.8-3.6,22.2-5.3,7.8-1.8,9.2-.9,11.2,6.8.3,1.3.8,2.5,1,3.8,1.1,6.2-.3,8.5-6.4,9.9-7.7,1.8-15.5,3.5-24,5.5-17.3,7.7-35.6,9-52.9,13.9-3.1.9-6.3,1.6-10.4,2.2-9.8,2.1-18.5,5.4-28.7,4.8-2.6-6.6-4.6-12.7-6.6-19.5Z"/>
  <path class="cls-4" d="M1240.4,1864.5c-2.8-11.9-5.6-23.2-7.5-34.6-.8-4.9-3.3-6.6-7.6-7.5-9.8-2-19.5-4.2-29.3-6.2-3.3-.7-6.5-1.3-10.2-3.4,13.2-3,25.6-6.2,38.2-8.6,5.9-1.1,8.2-3.7,9.2-9.5,2.1-12.6,5-25.2,7.7-38.5,4.1,4.6,3.5,10,4.7,14.6,2.1,8,3.7,16.2,5,24.4.9,5.4,3.4,7.8,8.8,8.8,12.7,2.4,25.3,5.4,37.9,9.5-12,2.8-24,6.2-36.2,8.2-7.4,1.2-9.8,4.9-10.9,11.4-1.8,10.5-4.1,20.9-6.4,32.1-1.5,1.7-2.3.9-3.5-.6Z"/>
  <path class="cls-23" d="M1024.6,553.6c-4.1,4.6-7.7,8.8-12.9,14.8-1.7-30.2-3.3-57.8-4.9-85.4.6-.3,1.1-.6,1.7-1,17.2,21.6,34.3,43.3,52.5,66.2-7.3.5-13.2-.6-19.9-1.7-5.8,2.3-11.1,4-16.5,7.1Z"/>
  <path class="cls-6" d="M1188.4,1001.7c-3.8-10.8-7.4-20.8-10.9-30.8q-3.3-9.2,2.7-11.4t9.8,6.5c8,22.2,15.9,44.4,23.9,66.6,2.1,5.9,4,12,6.4,17.8,2.4,5.7-2,5.9-5.2,7.2-3.2,1.3-5.9,2.3-7.6-2.7-6-17.6-12.6-35-19.1-53.2Z"/>
  <path class="cls-6" d="M1112.2,749.7c.9,2.6,1.5,4.6,2.4,6.4,3.4,7.3,1.5,8.2-6.4,10.8-2.4.8-3.8.1-4.7-2.1-.6-1.6-1.3-3.1-1.8-4.6-9.9-27.6-19.8-55.1-29.7-82.7-2.6-7.3-2.3-7.3,4.7-9.9,4.1-1.6,6-.5,7.4,3.5,4.5,12.9,9.2,25.7,13.8,38.5,4.7,13.2,9.4,26.3,14.3,40.2Z"/>
  <path class="cls-6" d="M1148.6,851.2c5.9,16.4,11.6,32,17.2,47.7,4,11.2,3.9,11.2-8.3,14.1-2-1.5-2.4-3.9-3.2-6.1-9.9-27.6-19.8-55.1-29.7-82.7-2.9-8.2-2.4-8.7,5.2-11.3,4.1-1.3,5.3.3,6.4,3.7,3.9,11.3,8,22.6,12.4,34.6Z"/>
  <path class="cls-6" d="M1292.9,1252.9c10.7,29.5,21,58.2,31.2,87,2.5,6.9,2.1,6.7-4.2,9.3-5.3,2.1-6.9-.2-8.5-4.7-7-20.1-14.3-40-21.5-60-2.9-8.1-5.8-16.3-8.7-24.4-.9-2.4-2.9-5.6,0-7.2,3.3-1.7,7.3-6,11.6,0Z"/>
  <path class="cls-6" d="M1259.2,1158.7c4.6,12.6,8.6,24.6,13.2,36.3,1.8,4.6.8,6.6-3.7,8-5.9,1.9-7,1.9-9-3.6-10.4-28.4-20.6-56.8-30.8-85.3-2.2-6.2-1.3-7.1,4.7-9.5,5.8-2.2,6.8,1.6,8.2,5.4,5.7,16,11.4,31.9,17.4,48.6Z"/>
  <path class="cls-6" d="M1024.9,554.1c2.7-5.3,6.8-9.5,14.7-7.7.4,4,2.2,7.3,3.5,10.7,6.3,17.8,12.8,35.6,19.1,53.4,2.6,7.3,2.4,7.4-3.5,9.6-6.1,2.3-6.4,2.3-8.6-3.8-6.4-17.5-12.5-35-18.9-52.4-1.3-3.5-1.3-7.9-6.2-9.7Z"/>
  <path class="cls-6" d="M1363.6,1447.6c-4.7,5.4-3.2,12.1-6.3,17.9-2.4-.1-2.9-1.7-3.4-3.3-6.8-19.1-13.5-38.2-20.6-57.2-1.7-4.5-1-6.7,3.6-8.2,6-2,7.1-1.9,9.1,3.6,4.3,11.5,8.3,23.2,12.5,34.7,1.5,4,2.6,8.3,5.2,12.5Z"/>
  <path class="cls-17" d="M963.2,1621.3c21.2-5.5,42.2-10.4,64-15.3.8.9.9,1.6.9,3-20.7,6.3-41.7,10.6-63.5,15.3-1.4-.8-1.6-1.6-1.3-3Z"/>
  <path class="cls-18" d="M1029.1,1678.2c1.1.9,1.6,1.7,2.3,2.9-1.1.3-2.5.4-3.6,0-.7-.3-1.2-1.3-1.7-1.9.8-.4,1.7-.7,3.1-1Z"/>
  <path class="cls-22" d="M1239.9,1864.7c1.1,0,2,.6,3.4,1.2.9,1.9,1.2,4.6-.9,4.7-3,.1-2.2-3.1-2.5-5.8Z"/>
  <path class="cls-22" d="M992.9,379.9c-1-.5-1.5-1.3-2.6-2.3.2-1,1-2.1,2-2.7.9-.6,2.2-1.9,3.2-.3.3.5-.2,1.7-.6,2.5-.4.9-1,1.6-2.1,2.8Z"/>
  <path class="cls-22" d="M991.9,437.3c.3-.7.8-.8,2.2-1,1.2.5,2,1.6,1.8,1.9-1.3,1.8-2.5.2-4-.9Z"/>
  <path class="cls-7" d="M738.6,1648.5c1.7,7.9,3,15.4,5.6,23.5-.1,8.1-.1,15.4-2.3,22.6-11.7,38.2-55.8,51.7-87,26.5-22.5-18.1-28.3-52-13.7-76.9,19-32.6,63.8-35.5,85.9-8.9,3.6,4.4,7.4,8.6,11.6,13.3Z"/>
  <path class="cls-12" d="M866.5,1766.1c-10.9.3-14.8,6-16.1,15.5-1.5,11.5-4.4,22.8-8,34.1-2.8-12.9-5.8-25.8-8.3-38.7-1.1-5.5-2.8-8.6-9.1-9.6-12.4-1.9-24.6-5.3-37.3-8.1,2.2-2.7,5.1-2.8,7.8-3.4,9.7-2.1,19.4-4.6,29.2-6.4,5.7-1.1,8.4-3.7,9.3-9.5,1.7-10.5,4-20.9,6.2-31.3.5-2.2,1.3-4.4,3.2-6.7,2.8,12.9,6,25.8,8.3,38.8.9,5.2,3.2,7.3,8,8.3,12.6,2.5,25.1,5.4,37.8,9.9-10.1,2.3-20.1,4.6-31,7.1Z"/>
  <path class="cls-12" d="M610.5,1775.1c2.3,7.1.7,15.4,5.8,19.3,4.6,3.5,11.9,3.4,18,4.8,8.1,1.8,16.2,3.5,24.6,5.3-.9,2.8-3.3,2.8-5.3,3.3-11,2.5-22,5.1-33,7.4-4.1.8-6.1,2.5-6.9,7-2.4,13.4-5.4,26.7-8.3,40.7-3.9-4.8-3.4-10.3-4.7-15.2-2.1-8-3.6-16.2-5-24.4-.8-4.9-3.1-7.3-8.2-8.2-11.4-2.1-22.7-4.8-34.1-7.3-1.2-.3-2.7,0-3.3-2.7,10.1-2.3,20.2-5.4,30.5-6.8,10.4-1.4,15.4-5.7,16.4-16.7.9-10.7,4.2-21.2,8.3-31.8,1.7,8.2,3.5,16.3,5.4,25.3Z"/>
  <path class="cls-12" d="M455.5,1990.9c-.6-6.6-3.6-9.4-9.4-10.4-10.5-1.8-20.8-4.3-31.2-6.6-1.8-.4-4.1,0-5.3-3.1,12.2-2.8,24.3-6.1,36.5-8.2,6.2-1.1,8.2-4.1,9.2-9.6,2.2-12.4,4.9-24.8,7.4-37.2,3.2-.2,2.7,2.4,3.1,4,2.5,11.4,5,22.8,7.2,34.2.9,4.8,2.8,7.3,8.1,8.2,12.7,2.3,25.2,5.4,38.1,8.3-2.5,2.9-5.6,2.9-8.5,3.5-8.1,1.9-16.1,4.6-24.3,5.4-9.9.9-13.3,5.9-14.5,15.1-1.4,10.9-4.2,21.5-7.2,32.4-4.9-11.3-6.1-23.5-9.1-36.1Z"/>
  <path class="cls-8" d="M963.7,693.3c16.5-.9,33-.9,51.8-.9-20.8,20.7-37.1,42.7-50.9,67.3-.6-21.5-.7-43.5-.8-66.3Z"/>
  <path class="cls-18" d="M751.2,1669.4c2.1-5,6.7-8.2,11.5-11.1,8.2-5,11.6-4.3,18.9,3.7-9.8,2.8-19.7,5-30.4,7.4Z"/>
  <path class="cls-22" d="M806.8,1656.7c3.6-7.5,4.1-7.6,11.8-3.4-3,3.1-7,3.1-11.8,3.4Z"/>
  <path class="cls-20" d="M935.3,431.8c1,.4,1.4,1,2.4,2-.8,2.4-3,3.2-5.5,4.4-.6-2.9,1.7-4.2,3.1-6.4Z"/>
  <path class="cls-22" d="M932.7,374.1c.4.8.3,1.4,0,2.9-1.4-.3-2.6-1.5,0-2.9Z"/>
  <path class="cls-21" d="M1000.6,1293.8c-1.7-9.6,3.4-18.5,3-29.7-8.5,9.3-15.7,17.8-24.6,25.9-1.9-4.7.6-7.8,1.7-10.8,3.3-9.4,7.6-18.5,10.4-28.1,6.1-20.6,6.5-43.1-19.8-60.6,8-3.6,16.2-3.7,24.3-4.2,8.3-.5,16.5,2.3,24.7,1.4.4-.8,1-1.6.9-1.9q-4.3-8.5,4.7-12c1.5-.6,3-1.3,5.2-2.3-5.2-3.9-10.9-3.3-16-4.7-8.5-2.3-8.6-2-9.9-10.1-.6,0-1.6-.3-1.9,0-6,6.5-12,5.4-18,0-.7-.7-1.8-.9-2.6-1.5-9.1-6.8-17.6-6.1-26,1.7-6.9,6.4-15.8,9.6-24.2,13.2,1.2,3.9,4,5.3,6.5,6.9,15.8,10.3,22.8,25.7,24.9,43.6,1.2,10.6,1.3,21.3-1.5,32.6-2.8,7.8-4,15.6-9.3,22.4-2.3-3-2.2-6.2-2.7-9.2-1.3-8.4-3.2-10.6-11.4-10.5-16.3.2-32.5-2-48.8-2.4-9.1-.2-10.9.9-13.1,9.8-.5,2.2-.8,4.5-1.3,7.5-4.8-3.3-6.2-8.1-7.3-12.6-4.2-17.5-3.5-35,.5-52.4,1.3-5.9,4.2-11.4,8.5-15.6,3.8-3.8,2-6.2-.9-9.1,7.7-5,17.3-4.9,25-11.2-5.7-2.9-11.4-.9-16.1-3.5-4.9-2.7-6.4-8.4-10.8-11.6-7.9-5.6-15.9-8.7-26.1-5.6-12.3,3.8-25.1,7-38.1,3.2-2.7,2.4,1.4,5.4-1,7.4-1.8,1.5-3.8,2.7-5.8,3.9-5.1,3-10.2,6-15.2,9.7,11.4,1.4,22.8-.4,34.1,1.7,11.2,2,22.2,4.1,32.6,9-.5,3-3.2,3-4.9,4.2-11.1,7.5-17,17.7-16,31.2,1.4,19,5.9,37.4,12.3,55.3,1.2,3.4,3.2,6.5,3.2,10.2-2.5,1.9-4.4-.2-6.6-.7-4.8-1.2-5.9-.3-5.1,4.9.9,6,3.7,11.3,6.4,17.5.1,1.2.1,1.8-.7,2.3-28.4-22.9-46.6-51.5-53.7-86.9-1.6-8-2-16.3-6-25.8-6.6,9.1-7.2,18.1-8,27.1-.8,9,1.6,17.8,2.4,29.1-9-9.4-12-19.3-13.9-29.4-1.9-10.5-.5-21.1,1.3-31.1-2.1-2-3.6-.8-5.1-.4-7.8,1.7-9.4,1.3-9.7-6.2-.7-20-1.4-40.1,10.7-57.8,5.1-7.5,6.2-15.7,5.5-24.7-1.2-16.3-3.7-32.4-3.6-48.8.2-19.7,5.2-24.1,24.8-22.5,9.9.8,17.8,5,24,12.7,1,1.3,2,2.7,3.1,3.9,4.8,5.5,6.1,5.5,10.5-.4,9.7-13.3,23.2-18.2,39.1-18.2,5.9,0,11.1,1.9,16.2,4.6,5.6,2.9,11.3,5.7,16.9,8.6,4.8,2.4,9.6,2.7,14.1-.7,15.5-11.6,32.4-12.6,51-6.2,3.8,2.1,6.8,4.1,9.8,6.1q7.1,4.9,4.5,12.8c-1.2,3.7-3.2,7.3-3.4,12.3,4.9-.6,7.8-3.7,10.7-6.6,5.5-5.4,10.7-11,17.2-15.2,6.9-4.4,12.7-4.4,17.8,1.9,10.4,12.9,15.2,28.1,16.5,46.7-7.6-7.9-11-15.9-15.2-23.8-4.9,2.3-6.5,6.9-8.9,10.6-2.7,4.2-5.4,6-10.6,3.9-3.2-1.3-6.7-2.8-12-2.3,4.3,8.6,10.1,14.6,16.6,19.8,5,4,9.3,8.5,12.1,14.4,3.1,6.6,4.3,13.2,1.9,20.3-.8,2.4-2.6,4.7-1.4,8.7,7.1-2.3,11.1-7.7,14.9-13.3,1.1-1.6,1.7-3.6,2.8-5.3,1.5-2.4,1.1-6.5,4.8-7,4.1-.5,5.6,3.2,7.2,6,11,18.5,15.9,38.6,15.7,60.1,0,3.3-.5,6.2-4.8,5.9-5.6-.3-5.5,3.5-5.5,7.3,0,10.3,0,20.7,0,31,0,1.6.3,3.3-1.4,5.3-6.5-1.9-10.5-8.5-18-10.6-6,25.6-13.3,50.4-34,69.1Z"/>
  <path class="cls-22" d="M963.1,922.9c19.2,7.2,37.5,14,54.7,23.7,24.4,13.6,45.8,30.8,62.6,53.3,6,8,12.1,15.9,18,24,2,2.7,3.7,5.5,5.4,8.4,1.1,2,3,4.3,1.3,6.4-1.8,2.3-4.3.3-6.4-.1-3.5-.7-7.1-1.4-11.4.3,6.6,3.5,12.8,6.6,18.8,9.9,3.8,2.1,7.4,4.4,11.1,6.7,17.1,10.4,28.8,23.8,32,45.1,3.7,24.6,9.2,48.9,11.3,73.8.9,10.2,1.9,20.4,1.7,30.3-3.5,1.7-5.1-.5-6.8-1.9-9.2-7.2-17.8-15-24.7-24.6-4.2-5.8-6.2-12.3-6.7-19.5-2.5-33-13.9-62-37.8-85.7-15.7-15.6-32.7-29.3-52.9-38.6-3.6-1.7-6.9-4-10.4-5.9-8.9-4.6-17.9-7.3-27.2-.7-4.1,2.9-8.9,2.5-13.5,1-5.4-1.7-10.7-3.8-16.7-5.9-15.2-7.7-29.7-7.1-43.6.9-9.4,5.4-17.7,4.9-27.4.7-22-9.5-44.3-11.3-66.2.6-3.6,1.9-7.3,3.4-11.2,4-7,1.1-10.6-3.7-8-10.5.4-.9.9-1.8,1.4-2.6,18.6-31.5,41.6-59.1,70.4-82.1,17.8-14.2,37.1-18.5,58.8-15.4,7.6,1.1,15.1,2.7,23.4,4.2Z"/>
  <path class="cls-21" d="M805.6,1298.2c7.1,7.6,9,16.1,8.9,25.4-.2,17.7-2.5,35.2-6.9,52.4-1.4,5.5-2.8,11-3.9,16.5-1.4,7-5.3,11.3-12.2,13-2.9.7-5.8,1.5-8.7,2.1-7.8,1.6-8.3,2.5-4.9,9.4,3.4,6.9,9.3,11.2,15.7,15,5.6,3.4,11.3,6.6,17.7,10.3-9.9,7.8-20.3,10.2-33.6,9.8,4.3,5.1,7.5,8.7,10.6,12.4,13,15.5,22.6,32.9,28.5,52.3,2.2,7.3,2.2,7.5-4.4,10.4-18.7,8.2-29.9,22.8-36,41.8-2.1,6.6-3.9,13.3-6.6,22.3-1.7-4.3-2.7-6.4-3.4-8.6-11.5-38.4-20.3-77.3-23.8-117.2-.9-10.4-.4-20.6,3.1-30.6,2.3-6.5,2.6-12.9.7-19.6-3.3-11.9-5.9-23.9-9-35.8-4.5-17-5.3-33.5,4.3-49.2,3.6-5.9,2.9-12.1-.8-18-4.3-6.8-9.5-12.8-15.1-18.6-15.1-15.9-23.1-34.4-22.2-56.9,1.2-31.2,6.9-61.5,16.9-91,5-15,12.9-28.5,22.4-41.1,2-2.6,3.7-5.6,7.5-7.2,3.6,4.5,5,9.6,3.9,15.4-1.5,8.3-4.3,16.1-7.3,23.8-5.7,14.5-13.4,28.3-16,44-1.6,9.6-1.7,19.3-.9,28.9.7,7.4,4,14.1,8.9,19.8,5.5,6.3,11.2,12.3,17.6,17.7,12.4,10.4,23.2,22,28.5,37.8,1.9,5.6,5.6,8.9,11.7,9.3,3.1.2,5.7,1.6,8.7,4.1Z"/>
  <path class="cls-21" d="M705.7,1410.6c4.2,17,7.4,33.2,6.3,50-.5,6.6-1.3,13.1-4.9,18.8-3.6-.2-3.3-3.3-4.5-5-2.2-3.4-4.4-8-8.1-8.3-7.3-.7-11.1-4.8-14.5-10.4-1.4-2.2-4.3-3.6-7-3.3-5.9.6-8.6-.8-9.4-7.5-.9-7.3-5.9-9.5-17.3-9.9,0-1.6,0-3.2,0-4.9,0-10.3-2.8-14.6-12.6-17.6-4-1.2-5.5-2.7-4.9-6.8,1.1-6.9,1.9-13.8,4.6-20.4,1.1-2.8,2.3-5.5,4.6-7.5,11.8-10.1,18.5-23.2,22.5-38,.4-1.6,1.2-3,2.2-5.5,14.9,13.6,26.1,29,33.2,47.2,3.6,9.3,6.4,18.9,9.7,29.1Z"/>
  <path class="cls-16" d="M670.2,1254.5c3-11.8,5.4-22.9,11.3-32.8,2.2-3.6,4.1-7.5,8.1-10.7.8,5.4-1.3,9.8-2.2,14.2-4.7,22.7-.4,42.9,15.1,60.5,3.1,3.5,5.9,7.2,9.1,10.6,2.3,2.5,2,4.5-.1,6.9-4.6,5.3-9.6,10.2-15,14.7-2.2,1.8-4.6,2.4-7.4,2.5-15.1.4-26.1-10.6-24.9-25.6,1-13.3,3-26.5,5.9-40.3Z"/>
  <path class="cls-16" d="M837.4,1604.6c-8.5.2-14.8,3.1-19.3,9.8-1.6,2.4-3.2,4.5-7.2,2.3-12.2-7-17-6.3-27.5,2.8-.8.6-1.6,1.2-2.9,2.3-5.1-5.9-11.2-10.1-19.7-8.1,3.4-10.1,10.7-14,20.8-10.7,3.4,1.1,5.1,1.1,7.5-1.7,9.3-11.2,11.6-11.6,24.4-5.2.8-.9,1.6-1.9,2.5-2.9,7.7-9.3,14.2-11.3,25.4-6.7,4,1.7,6,1.9,8.7-2.3,7.2-11.2,20.1-11.9,29.3-2.2,3.9,4.1,6.9,8.7,6.5,14.4-2.1,1.8-3.7.9-5.2.7-10.5-1.6-19.2,1.1-24.5,10.9-2.3,4.2-4.4,5.3-8.2,1.7-2.7-2.5-6.1-4-10.4-5Z"/>
  <path class="cls-6" d="M929.3,1353.1c5.9-11.2,5.6-23.2,8.9-34.3,1.5-5.3,1.1-11.2,4.9-16.3,4.9,7.8,3.4,15.9,2.3,23.6-1.2,8.8-3.4,17.6-6,26.2-4.1,13.8-15.2,21.8-29.7,22.2-4,0-8.1.3-11.9-.5-9.6-2-17.9-6.8-20.3-16.9-3.9-16.1-6.8-32.5-3.4-49.3.2-.9.2-1.9,2.2-2.5,2.3,4.6,3.1,9.7,3.7,14.8.8,6.6,1.2,13.2,1.9,19.8,1.5,15,6.8,20,21.7,20,5.6,0,11.3.2,16.8-1.4,3.3-.9,6.3-1.9,8.9-5.4Z"/>
  <path class="cls-20" d="M913.9,1262.3c7.6.5,14.2.8,20.9,1.4,5.7.6,7.5,2.6,7.4,8.4,0,6.4-2.4,12-5.2,17.4-3.8-1.3-2.9-4.3-4.1-6.1-1.2-2-1.8-4.7-4.9-2.4-1.9,1.3-3,0-4.3-1-.8-.6-1.7-1.5-2.5-1.4-3,.1-2,6.4-6,4.4-2.2-1-3.6-4.3-6.4-1-1,1.1-2.8,1.4-3.5.2-3-5.8-6.4,2.8-10.8-.6-3-2.3-3.1,5.5-6.6,8.6-4.3-8.1-5.2-16.1-2.4-24.5,1.2-3.5,4.3-3.7,7.4-3.7,6.6,0,13.3.2,20.9.3Z"/>
  <path class="cls-16" d="M903.2,1328.4c-6.7-5.3-9.7-12.4-12.2-19.5-2.6-7.4,0-11.2,7.7-10.6,6.9.5,13.7.7,20.6-.1,6.6-.8,10.5,4.7,8.1,11.1-2,5.2-4.9,10.1-7.4,15.2-1.3,2.6-3.1,3.9-6.3,3.5-3.2-.3-6.5.3-10.5.5Z"/>
  <path class="cls-5" d="M879.2,1610.1c9.4,8.3,8.7,18,5.9,28-.4,1.4-1,3.3-3,3.5-2,.2-3-1.4-3.7-2.8-2.8-5.1-6.7-8.7-11.8-11.7-5.6-3.2-7.1-8.7-4.9-13.6,2.1-4.9,5.8-6.7,12.4-5.7,1.6.2,3.1,1.2,5.2,2.2Z"/>
  <path class="cls-20" d="M911.4,1352.1c-4.2,0-7.5.1-10.8-.2-9.8-.9-12.8-4.7-11.4-14.4.3-1.9.3-4,2.4-5.8,3.5,7.5,10.1,7.5,16.4,5.6,5.5-1.7,13.8,2.5,15.4-7.8,6.8,10,4.6,17.8-5.3,21.4-1.8.7-3.9.7-6.7,1.1Z"/>
  <path class="cls-20" d="M826.9,1638.9c-2.4-2.5-3.5-4.9-4.3-7.5-1.5-5.3.9-10.6,5.8-13.5,5.3-3.1,12.3-2.2,16.4,2.2,3.6,3.8,4.1,8,.1,13.5-3.7,5.2-5.1,11.3-7.6,17.6-3.6-4.3-6.8-8-10.5-12.3Z"/>
  <path class="cls-23" d="M751.3,1650.9c-2-6.9-2.7-13.2-1.7-19.5.9-6.2,3.9-9,9.6-9.7,6.5-.9,10.9,1.6,13.7,7.5,2.5,5.3,1.9,9.6-3,13.2-5.5,4.1-10.5,9.5-18.6,8.5Z"/>
  <path class="cls-4" d="M801.5,1643.5c-3.8,5.4-7.1,10.2-10.7,15.3-7.4-7.5-8.9-15.8-5.6-24.9,2.5-6.9,8.8-10.7,15.3-10.3,4,.3,7,2.1,8.8,5.5,2.1,3.8-.6,6.1-2.8,8.6-1.5,1.7-3,3.5-5,5.8Z"/>
  <path class="cls-4" d="M659.7,1484.8c-.1-3.8-.3-6.7-.1-9.7.3-5.3,2.4-9.6,7.7-11.6,3.6-1.4,6.4.3,8.8,2.9,3.2,3.5,4.5,10.9,1.9,14.9-4.1,6.2-8.8,12-13.9,18.9-2.7-5.7-3.8-10-4.3-15.3Z"/>
  <path class="cls-20" d="M634.2,1428.5c2.7,4.3,2.8,8.3,2,12.2-1.7,8-3.4,16.1-7.7,24.8-6.1-11.2-8.4-22.4-10.2-33.7-.5-3.2,2.2-5.4,5-6.9,4.3-2.3,7.6-.5,10.9,3.5Z"/>
  <path class="cls-4" d="M913.6,1598.5c7.1,6.3,10.3,13.5,10.3,23.2-5.5-2.4-10.3-4.2-15.6-4.2-4.2,0-7.4-2.7-9.6-6.3-2.8-4.7-2.4-8.8,1.3-12.7,3.9-4.2,5.4-4.2,13.6,0Z"/>
  <path class="cls-20" d="M640.1,1465.9c-.8-4.1-1.8-7.3-2.1-10.5-.3-4.4,2-7.8,6.2-9.1,4.4-1.3,7.7,1,9.8,4.9,2.1,4,2,8.1.8,12.5-2,7.3-6.2,13.8-7.6,22-5.1-5.9-4.8-12.9-7.2-19.8Z"/>
  <path class="cls-20" d="M697.7,1482.2q4.8,9.5-2.8,14.7c-3.2,2.2-6.4,4.6-10.7,7.6-1.2-11.6,3.8-21.3,4.3-32,5.6,1,6.3,5.9,9.1,9.7Z"/>
  <path class="cls-20" d="M853,1169.1c2.7,1.9,4.6,2.2,7,1,3.7-1.8,3.9-1.5,8.8.2-4.5,5.9-10,7.8-16.5,5.6-5.1-1.7-8.6-6.5-8.5-12.1,0-2.2-.1-5.3,3.2-5,2.3.2,5.4,1,4.1,5-.6,1.7.3,3.2,1.8,5.2Z"/>
  <path class="cls-10" d="M962.8,1620.7c.8.7.8,1.5.9,2.9-8.6,3.4-17.4,5.2-27.1,6.8-.8-.9-.7-1.8-.5-3.4,8.8-2.5,17.4-4.4,26.8-6.3Z"/>
  <path class="cls-18" d="M895.3,1636.6c-1.3-3.7-1.8-6.9-.8-10.7,7.4,3.1,14.9,3.7,23.1,4.6,1.1.1,1.4.1,1.8.1.8,0,1.1.8.3,1.1-7.5,3.4-15.4,5.5-24.4,4.9Z"/>
  <path class="cls-11" d="M894.5,1636.8c7.9-1.6,15.3-3.9,23.3-6,3-.7,5.4-.7,8.4.9-9.1,4.8-19.9,5.4-30.8,8.8-.9-.9-1-1.9-1-3.7Z"/>
  <path class="cls-21" d="M844.1,1307.9c1.6.5,3.1,1.8,2.2,3.1-.8,1.2-2-.2-3.2-1.5,0-.7.2-1,.9-1.6Z"/>
  <path class="cls-3" d="M1092.6,1126.2c-1.5,2.5-.2,4.9,1.1,7.2,14.3,27.8,21.4,57.9,28.2,88.2,7.4,33.1,7.8,66.8,5.7,100.4-1.2,19.4-7.3,38-17.3,54.8-11.6,19.5-24.5,38.1-42.5,52.4-3.6,2.9-7.3,5.9-13,6.9,4.3-13.6,10.7-26.4,14.3-40.3,5.3-20.9,6.7-41.9,3.5-63.3-2.5-16.5-9.6-30.3-22.1-41.4-2-1.8-3.8-3.8-5.8-5.5-3.2-2.5-2.8-4.8,0-7.4,6.8-6.4,12.8-13.6,18.8-20.7,11.1-13.2,19.1-27.9,22.8-44.9,2.9-13.3.9-25.7-4-38-9.6-23.8-19.1-47.6-28.6-71.4-5.2-13.1-8-26.8-7.7-40.9,0-1.9-.6-4,1.2-5.5,21.6,7.8,56.9,53,56.5,82.7-5.2-3.4-6.6-9.3-11.1-13.2Z"/>
  <path class="cls-19" d="M963.9,1499.3c-15.7-2.2-29.7-7.8-39.6-21.5-9.1-12.5-8.9-30.2.8-43.7,4.7-6.5,5.5-6.6,12.3-2,.8.5,1.8.6,3.3,1.2,1.9-4.6.3-9.3,1.3-13.7,1.2-5.1,2.6-5.7,7.4-3.1,3.7,2,7,5.5,12.3,2.3,3.2,2.2,2.1,5.7,2.1,8.9.1,14.2,0,28.4.1,43.5-2.7,8.4-9.8,3.5-14.3,6.1,4,3.6,9.9,3.7,13.9,8.3.3,4.7.3,8.7.4,13.7Z"/>
  <path class="cls-16" d="M1169.8,1225.8c4.6-13.2,5.4-26.5,5.9-39.7.7-17.9,1.5-36-1.4-53.8-.2-1.5-.6-3.2,1.1-5.3,7.3,7.2,10.9,16.5,14.1,25.7,4.9,14.1,4.7,28.6,3.5,43.4-2,24.7-8.6,48.4-15.2,72.1-1,3.4-1.4,7.3-5,9.3-3-2.1-2.3-5.3-2.8-8.2-2.1-12.3-5.5-23.9-14.1-33.6-5.7-6.5-9.1-14.1-9.8-24,6.1,1.9,8.4,6.3,11.7,9.3,3.3,3,6.3,6.1,12,4.8Z"/>
  <path class="cls-16" d="M964.8,1486.2c-8.6-2.4-17-3.7-22.8-11.9,7.7-1.1,14.3.8,21.4-1.6,10.8-1.3,19.5-6.4,28.4-10.5,6.6-3.1,13.1-4.2,20.1-1.9.6.2,1.3.4,1.9.7,4.2,2,9.3,3.9,9.5,9.1.1,5.1-5.3,6.2-9.1,7.9-15.4,7.1-31.6,9.2-49.4,8.2Z"/>
  <path class="cls-6" d="M1138.8,1322.1c10.1-22.2,11.3-46.2,13.3-70.5,16.3,24.5,8.5,53.9-13.3,70.5Z"/>
  <path class="cls-20" d="M957.7,1178.2c-.6-6.1.9-7.5,5.9-5,2.9,1.5,5.2,2.7,8.1.6,2.2-1.6,2.2-3.7,1.8-6.2-.6-3.3,2.3-3.6,4.5-4,3.2-.5,3.9,1.9,4.2,4.3.8,5.5-3,10.6-9.4,12.2-4.9,1.2-9.9,1.5-15-1.9Z"/>
  <path class="cls-21" d="M1000,1294c-.1.9-.6,1.3-1,.8-.8-1,1.5-.8.5-.9.4,0,.5,0,.5,0Z"/>
  <path class="cls-6" d="M1138.4,1322.4c-.2.5-.7,1.1-1,1-.7,0-.8-.7,0-1.4.3-.2.8.2,1,.4Z"/>
  <path class="cls-15" d="M980.1,1405.9c.3.3.5.7.7,1-.2,0-.4-.1-.8-.5-.1-.3,0-.4,0-.5Z"/>
  <path class="cls-3" d="M1054.3,1436.3c-.2.5-.6,1-1,1-.7,0-.7-.6,0-1.3.3-.2.7.2.9.4Z"/>
  <path class="cls-10" d="M726.1,1677.7c-2.8,20.2-15,33.3-33.1,35.4-13.8,1.6-24.4-5-33.2-14.8-3.2-3.6-2.1-8.2,1.9-12.5,3.8-4.1,8.9-5.6,14.2-6.7,1.6-.3,3.6-1,3.4-2.9-.2-2.9-2.8-2.2-4.6-2.1-2.6.3-5.2,1.1-7.9,1.3-10.8.8-16.1-6.8-11.5-16.5,7.1-15.2,21.7-23.3,38.2-21.2,16.5,2.2,29.9,15.5,32.4,32.1.3,2.3.2,4.6.3,7.8Z"/>
  <path class="cls-19" d="M930.4,1239.2c-19.4,8.5-39,1.2-45.7-24.7-1.7-6.5,1.5-12.2,8-14,14.4-3.9,29-4.4,43.2.6,12.4,4.4,15.5,15.8,7.6,26.3-3.4,4.5-7.2,8.7-13.1,11.8Z"/>
  <path class="cls-8" d="M811.2,1066c2.5,2.9,0,4.8-1.2,7-4.1,6.8-8.4,13.6-12.6,20.3-8.1,12.9-9.1,26.8-6.4,41.3.4,2.2,1.7,4.4.4,6.7-14.6-5.1-20-14-16.3-27.8,1.1-4,1-7.8-.3-11.7-2.2-7-4.6-14-5.8-21.1-1.8-10.5,1.2-20,8-28.7,3.8,2.6,4.9,6.3,7,9.2,7.3,10,11,11.2,22.9,6.6,1.2-.5,2.4-1.1,4.3-1.8Z"/>
  <path class="cls-8" d="M872,1096c-.8-1.6-2.3-3.4-.2-3.4,2.9,0,5.9.9,8.7,1.9,13.7,4.6,27.4,4.3,41.3.4,4.4-1.2,8.8-3.2,13.5-2.5,0,.6.3,1,.1,1.2-9.1,15.3-32.7,22.5-48.1,14.6-5.7-2.9-10.4-7.2-15.4-12.2Z"/>
  <path class="cls-8" d="M812,1066c.4-.3.7-.6,1.1-.9-.2.4-.3.8-.8,1-.3-.2-.3-.1-.3-.1Z"/>
  <path class="cls-2" d="M1092,1126c-.4-.2-1.2-.4-1.2-.5.1-.8.5-.9,1,.2,0,.4.2.3.2.3Z"/>
</svg>