<?xml version="1.0" encoding="UTF-8"?>
<svg id="svg444" xmlns="http://www.w3.org/2000/svg" xmlns:svg="http://www.w3.org/2000/svg" xmlns:sodipodi="http://sodipodi.sourceforge.net/DTD/sodipodi-0.dtd" xmlns:rdf="http://www.w3.org/1999/02/22-rdf-syntax-ns#" xmlns:inkscape="http://www.inkscape.org/namespaces/inkscape" xmlns:dc="http://purl.org/dc/elements/1.1/" xmlns:cc="http://creativecommons.org/ns#" version="1.1" viewBox="0 0 302 420">
  <defs>
    <style>
      .cls-1, .cls-2, .cls-3, .cls-4 {
        fill: #10191f;
      }

      .cls-1, .cls-5, .cls-6, .cls-7, .cls-8, .cls-9, .cls-10, .cls-11 {
        stroke-width: 0px;
      }

      .cls-2 {
        font-size: 24px;
      }

      .cls-2, .cls-12, .cls-3, .cls-4, .cls-13 {
        isolation: isolate;
      }

      .cls-2, .cls-3, .cls-4 {
        font-family: Arial-BoldMT, Arial;
        font-weight: 700;
      }

      .cls-12 {
        font-family: ArialMT, Arial;
        font-size: 26.7px;
      }

      .cls-12, .cls-8, .cls-14 {
        fill: #7aaed4;
      }

      .cls-5 {
        fill: #d9dfe7;
      }

      .cls-6 {
        fill: #9e9f9f;
      }

      .cls-7 {
        fill: #002638;
      }

      .cls-3 {
        font-size: 24px;
      }

      .cls-4 {
        font-size: 21.8px;
      }

      .cls-9 {
        fill: #dae0e8;
      }

      .cls-14 {
        stroke: #d9dfe7;
        stroke-width: 4.8px;
      }

      .cls-10 {
        fill: #b9c6d7;
      }

      .cls-15 {
        fill: none;
        stroke: #79858b;
      }

      .cls-11 {
        fill: #ecdd98;
      }
    </style>
  </defs>
  <g id="g4939">
    <path id="path4725" class="cls-1" d="M154,18.8L28,356.8l126,29,126-29L154,18.8h0Z" inkscape:connector-curvature="0"/>
    <path id="path4776" class="cls-5" d="M152.9,121.5h2l-1,149.4-1-149.4Z" inkscape:connector-curvature="0" sodipodi:nodetypes="cccc"/>
    <path id="path4723" class="cls-8" d="M154,18.8L28,356.8l126,29,126-29L154,18.8h0ZM154,57l107.7,289.9-107.7-64.9-107.7,64.9L154,57ZM154,292.2l84,51-84,19-83.9-19,83.9-51Z" inkscape:connector-curvature="0" sodipodi:nodetypes="ccccccccccccccc"/>
    <path id="path4921-1-5-1" class="cls-10" d="M85.8,269.3l-.6-4-3.5-.5,3.5-.5.6-4,.6,4,3.5.5-3.5.5-.6,4Z" inkscape:connector-curvature="0" sodipodi:nodetypes="ccccccccc"/>
    <g id="text1217" class="cls-13">
      <g class="cls-13">
        <text class="cls-12" transform="translate(119 345.5)"><tspan x="0" y="0">STAR</tspan></text>
      </g>
    </g>
    <g id="g1273">
      <path id="path1223" class="cls-11" d="M143.7,222.8h-5.3l2.4-2-10.4,1.7,5.4,3.5-18,3.3,4.7,3.5-30.8,2.7,22.4-4.1-4.4-3,17.1-3.6-5-3.5s10.1-3.9,15.4-5.1c3.3-.8,10-1.5,10-1.5l-3.2,2s2.8,6.6,11,6.5,11-6.5,11-6.5l-3.2-2s6.7.7,10,1.5c5.3,1.3,15.4,5.1,15.4,5.1l-5,3.5,17.1,3.6-4.4,3,22.4,4.1-30.8-2.7,4.7-3.5-18-3.3,5.4-3.5-10.4-1.7,2.4,2c-1.6-.1-3.3-.5-4.8,0-3.9,1.1-7.3,4.1-11.8,4.3-6.1.2-7.6-2.7-11.3-4.2h0Z" inkscape:connector-curvature="0" sodipodi:nodetypes="ccccccccccccacczccacccccccccccssc"/>
      <path id="path1269" class="cls-15" d="M91.7,235.4l62.3,36.6,64.4-36.6" inkscape:connector-curvature="0"/>
    </g>
    <path id="path4921-1-5-1-1" class="cls-10" d="M95,277.8l-.6-4-3.5-.5,3.5-.5.6-4,.6,4,3.5.5-3.5.5-.6,4Z" inkscape:connector-curvature="0" sodipodi:nodetypes="ccccccccc"/>
    <path id="path4921-1-5-1-0" class="cls-10" d="M102.9,280.2l-.6-4-3.5-.5,3.5-.5.6-4,.6,4,3.5.5-3.5.5-.6,4Z" inkscape:connector-curvature="0" sodipodi:nodetypes="ccccccccc"/>
    <path id="path4921-1-5-1-19" class="cls-10" d="M118.4,286l-.6-4-3.5-.5,3.5-.5.6-4,.6,4,3.5.5-3.5.5-.6,4Z" inkscape:connector-curvature="0" sodipodi:nodetypes="ccccccccc"/>
    <path id="path4921-1-5-1-8" class="cls-10" d="M125.2,272.8l-.6-4-3.5-.5,3.5-.5.6-4,.6,4,3.5.5-3.5.5-.6,4Z" inkscape:connector-curvature="0" sodipodi:nodetypes="ccccccccc"/>
    <path id="path4921-1-5-1-3" class="cls-10" d="M99.1,264.7l-.6-4-3.5-.5,3.5-.5.6-4,.6,4,3.5.5-3.5.5-.6,4Z" inkscape:connector-curvature="0" sodipodi:nodetypes="ccccccccc"/>
    <path id="path4921-1-5-1-81" class="cls-10" d="M107.8,259.2l-.6-4-3.5-.5,3.5-.5.6-4,.6,4,3.5.5-3.5.5-.6,4Z" inkscape:connector-curvature="0" sodipodi:nodetypes="ccccccccc"/>
    <path id="path4921-1-5-1-11" class="cls-10" d="M143.1,235.7l-.6-4-3.5-.5,3.5-.5.6-4,.6,4,3.5.5-3.5.5-.6,4Z" inkscape:connector-curvature="0" sodipodi:nodetypes="ccccccccc"/>
    <path id="path4921-1-5-1-84" class="cls-10" d="M187.2,205.3l-.6-4-3.5-.5,3.5-.5.6-4,.6,4,3.5.5-3.5.5-.6,4Z" inkscape:connector-curvature="0" sodipodi:nodetypes="ccccccccc"/>
    <path id="path4921-1-5-1-9" class="cls-10" d="M197.9,198l-.6-4-3.5-.5,3.5-.5.6-4,.6,4,3.5.5-3.5.5-.6,4Z" inkscape:connector-curvature="0" sodipodi:nodetypes="ccccccccc"/>
    <path id="path4921-1-5-1-00" class="cls-10" d="M179.6,182.8l-.6-4-3.5-.5,3.5-.5.6-4,.6,4,3.5.5-3.5.5-.6,4Z" inkscape:connector-curvature="0" sodipodi:nodetypes="ccccccccc"/>
    <path id="path4921-1-5-1-39" class="cls-10" d="M161.6,159.2l-.6-4-3.5-.5,3.5-.5.6-4,.6,4,3.5.5-3.5.5-.6,4Z" inkscape:connector-curvature="0" sodipodi:nodetypes="ccccccccc"/>
    <path id="path4921-1-5-1-5" class="cls-10" d="M145.6,143.9l-.6-4-3.5-.5,3.5-.5.6-4,.6,4,3.5.5-3.5.5-.6,4Z" inkscape:connector-curvature="0" sodipodi:nodetypes="ccccccccc"/>
    <g id="g4691">
      <path id="path4682" class="cls-14" d="M154,75.7l-18.4,55.4,18.4-10.4,18.4,10.4-18.4-55.4h0Z" inkscape:connector-curvature="0" sodipodi:nodetypes="ccccc"/>
      <path id="path4684" class="cls-7" d="M172.4,131.1l-18.4-18.4v8l18.4,10.4Z" inkscape:connector-curvature="0" sodipodi:nodetypes="cccc"/>
      <path id="path4686" class="cls-7" d="M135.6,131.1l18.4-18.4v-37l-18.4,55.4Z" inkscape:connector-curvature="0" sodipodi:nodetypes="cccc"/>
    </g>
    <g id="g4678">
      <path id="path4663" class="cls-9" d="M154,100.3l2.6,9.8,9.8,2.6-9.8,2.6-2.6,9.8-2.6-9.8-9.8-2.6,9.8-2.6,2.6-9.8Z" inkscape:flatsided="false" inkscape:randomized="-8.67362e-019" inkscape:rounded="0" inkscape:transform-center-y="-1.1834326" sodipodi:arg1="-1.5707963" sodipodi:arg2="-0.78539814" sodipodi:cx="456.58478" sodipodi:cy="219.62494" sodipodi:r1="12.393066" sodipodi:r2="3.7179198" sodipodi:sides="4" sodipodi:type="star"/>
      <path id="path4665" class="cls-6" d="M154,125.1v-12.4l2.6,2.6-2.6,9.8h0Z" inkscape:connector-curvature="0"/>
      <path id="path4667" class="cls-6" d="M141.6,112.7l9.8,2.6,2.6-2.6h-12.4Z" inkscape:connector-curvature="0"/>
      <path id="path4669" class="cls-6" d="M154,112.7v-12.4l-2.6,9.8,2.6,2.6h0Z" inkscape:connector-curvature="0"/>
      <path id="path4671" class="cls-6" d="M154,112.7h12.4l-9.8-2.6-2.6,2.6Z" inkscape:connector-curvature="0"/>
    </g>
    <g id="text4784" class="cls-13">
      <g class="cls-13">
        <text class="cls-2" transform="translate(86.5 367.5) rotate(12.4) scale(1.1 1) skewX(10.9)"><tspan x="0" y="0">COM</tspan></text>
      </g>
    </g>
    <g id="text4784-7" class="cls-13">
      <g class="cls-13">
        <text class="cls-4" transform="translate(165 379.7) rotate(-13.8) scale(1.3 1) skewX(-7.9)"><tspan x="0" y="0">AND</tspan></text>
      </g>
    </g>
    <g id="text4806" class="cls-13">
      <g class="cls-13">
        <text class="cls-3" transform="translate(144.1 380.5)"><tspan x="0" y="0">M</tspan></text>
      </g>
    </g>
  </g>
</svg>